<?xml version="1.0" encoding="UTF-8" standalone="no"?>
<svg
   id="Layer_2"
   data-name="Layer 2"
   viewBox="0 0 1917 1080"
   version="1.1"
   sodipodi:docname="00_BG.svg"
   width="1917"
   height="1080"
   xmlns:inkscape="http://www.inkscape.org/namespaces/inkscape"
   xmlns:sodipodi="http://sodipodi.sourceforge.net/DTD/sodipodi-0.dtd"
   xmlns="http://www.w3.org/2000/svg"
   xmlns:svg="http://www.w3.org/2000/svg">
  <sodipodi:namedview
     id="namedview25"
     pagecolor="#ffffff"
     bordercolor="#000000"
     borderopacity="0.25"
     inkscape:showpageshadow="2"
     inkscape:pageopacity="0.0"
     inkscape:pagecheckerboard="0"
     inkscape:deskcolor="#d1d1d1" />
  <defs
     id="defs1">
    <style
       id="style1">
      .cls-1, .cls-2, .cls-3 {
        fill: none;
      }

      .cls-2, .cls-3, .cls-4 {
        stroke: #301b4e;
        stroke-linecap: round;
        stroke-linejoin: round;
      }

      .cls-2, .cls-4 {
        stroke-width: 1.12px;
      }

      .cls-3 {
        stroke-width: .61px;
      }

      .cls-5, .cls-4 {
        fill: #d8e3ff;
      }

      .cls-6 {
        fill: #e7ecff;
      }

      .cls-7 {
        fill: #fff;
      }

      .cls-8 {
        clip-path: url(#clippath);
      }
    </style>
    <clipPath
       id="clippath">
      <polygon
         class="cls-1"
         points="59.04,562.48 59.04,206.48 773,206.48 773,506.48 "
         id="polygon1" />
    </clipPath>
  </defs>
  <g
     id="Layer_1-2"
     data-name="Layer 1"
     transform="translate(0,-206.48)">
    <rect
       class="cls-6"
       y="206.48"
       width="1917"
       height="1080"
       id="rect1"
       x="0" />
    <rect
       class="cls-7"
       y="1038.48"
       width="1917"
       height="248"
       id="rect2"
       x="0" />
    <g
       class="cls-8"
       clip-path="url(#clippath)"
       id="g16">
      <g
         id="g15">
        <circle
           class="cls-4"
           cx="425.26999"
           cy="299.70001"
           r="151.97"
           id="circle2" />
        <g
           id="g14">
          <line
             class="cls-2"
             x1="433.97"
             y1="608.84003"
             x2="430.45001"
             y2="498.48999"
             id="line2" />
          <line
             class="cls-2"
             x1="291.51999"
             y1="578.52002"
             x2="339.67999"
             y2="479.17001"
             id="line3" />
          <line
             class="cls-2"
             x1="179.48"
             y1="485.45999"
             x2="268.29001"
             y2="419.88"
             id="line4" />
          <line
             class="cls-2"
             x1="123.51"
             y1="351"
             x2="232.64"
             y2="334.20001"
             id="line5" />
          <line
             class="cls-2"
             x1="136.45"
             y1="205.92999"
             x2="240.88"
             y2="241.77"
             id="line6" />
          <line
             class="cls-2"
             x1="215.32001"
             y1="83.480003"
             x2="291.13"
             y2="163.75"
             id="line7" />
          <line
             class="cls-2"
             x1="342.06"
             y1="11.72"
             x2="371.89001"
             y2="118.03"
             id="line8" />
          <line
             class="cls-2"
             x1="487.63"
             y1="7.0799999"
             x2="464.64001"
             y2="115.07"
             id="line9" />
          <line
             class="cls-2"
             x1="618.69"
             y1="70.610001"
             x2="548.14001"
             y2="155.55"
             id="line10" />
          <line
             class="cls-2"
             x1="705.20001"
             y1="187.78"
             x2="603.27002"
             y2="230.2"
             id="line11" />
          <line
             class="cls-2"
             x1="727.35999"
             y1="331.73001"
             x2="617.39001"
             y2="321.92001"
             id="line12" />
          <line
             class="cls-2"
             x1="680.08002"
             y1="469.48999"
             x2="587.26001"
             y2="409.70001"
             id="line13" />
          <line
             class="cls-2"
             x1="574.20001"
             y1="569.5"
             x2="519.79999"
             y2="473.42001"
             id="line14" />
        </g>
      </g>
    </g>
    <g
       id="g17">
      <path
         class="cls-5"
         d="M 248.3,890.07 H 115.11 c 0,0 11.01,-47.59 23.37,-51.54 12.72,-4.05 21.51,28.44 21.51,28.44 0,0 9.84,-44.6 23.07,-44.6 13.03,0.04 18.17,41.54 18.17,44.9 0,3.36 8.87,-27.56 18.59,-27.33 13.22,0.31 28.48,50.12 28.48,50.12 z"
         id="path16" />
      <path
         class="cls-3"
         d="M 115.11,890.07 H 248.3 c 0,0 -15.26,-49.81 -28.48,-50.12 -9.73,-0.23 -18.59,30.68 -18.59,27.33 0,-3.35 -5.14,-44.86 -18.17,-44.9 -13.22,0 -23.07,44.6 -23.07,44.6 0,0 -8.79,-32.49 -21.51,-28.44 -12.36,3.95 -23.37,51.54 -23.37,51.54 z"
         id="path17" />
    </g>
    <g
       id="g19">
      <path
         class="cls-5"
         d="M 1058.3,404.42 H 967 c 0,0 7.55,-32.62 16.02,-35.33 8.72,-2.78 14.75,19.49 14.75,19.49 0,0 6.75,-30.57 15.81,-30.57 8.93,0.03 12.46,28.48 12.46,30.78 0,2.3 6.08,-18.89 12.75,-18.73 9.06,0.21 19.52,34.36 19.52,34.36 z"
         id="path18" />
      <path
         class="cls-3"
         d="m 967,404.42 h 91.3 c 0,0 -10.46,-34.15 -19.52,-34.36 -6.67,-0.16 -12.75,21.03 -12.75,18.73 0,-2.3 -3.53,-30.75 -12.46,-30.78 -9.06,0 -15.81,30.57 -15.81,30.57 0,0 -6.02,-22.27 -14.75,-19.49 -8.47,2.71 -16.02,35.33 -16.02,35.33 z"
         id="path19" />
    </g>
    <g
       id="g21">
      <path
         class="cls-5"
         d="M 1903.3,974.25 H 1793 c 0,0 9.12,-39.41 19.36,-42.68 10.54,-3.35 17.81,23.55 17.81,23.55 0,0 8.15,-36.93 19.1,-36.93 10.79,0.03 15.05,34.41 15.05,37.19 0,2.78 7.34,-22.82 15.4,-22.63 10.95,0.25 23.58,41.51 23.58,41.51 z"
         id="path20" />
      <path
         class="cls-3"
         d="m 1793,974.25 h 110.3 c 0,0 -12.63,-41.25 -23.58,-41.51 -8.06,-0.19 -15.4,25.41 -15.4,22.63 0,-2.78 -4.26,-37.15 -15.05,-37.19 -10.95,0 -19.1,36.93 -19.1,36.93 0,0 -7.28,-26.9 -17.81,-23.55 -10.23,3.27 -19.36,42.68 -19.36,42.68 z"
         id="path21" />
    </g>
    <g
       id="g23">
      <path
         class="cls-5"
         d="M 739,887.88 H 592.11 c 0,0 12.15,-52.48 25.78,-56.84 14.03,-4.47 23.72,31.36 23.72,31.36 0,0 10.86,-49.18 25.44,-49.18 14.37,0.04 20.04,45.82 20.04,49.52 0,3.7 9.78,-30.39 20.51,-30.13 14.58,0.34 31.4,55.28 31.4,55.28 z"
         id="path22" />
      <path
         class="cls-3"
         d="M 592.11,887.88 H 739 c 0,0 -16.82,-54.94 -31.4,-55.28 -10.73,-0.25 -20.51,33.84 -20.51,30.13 0,-3.71 -5.67,-49.48 -20.04,-49.52 -14.58,0 -25.44,49.18 -25.44,49.18 0,0 -9.69,-35.83 -23.72,-31.36 -13.63,4.36 -25.78,56.84 -25.78,56.84 z"
         id="path23" />
    </g>
    <g
       id="g25">
      <path
         class="cls-5"
         d="M 527,961.33 H 290.58 c 0,0 17.82,-51.25 34.02,-53.95 9.85,-1.64 21.57,26.58 21.57,26.58 0,0 15.28,-46.87 32.76,-47.73 16.6,-0.83 29.03,43.97 29.03,43.97 0,0 13.26,-60.15 31.1,-60.11 17.56,0.04 24.49,56 24.49,60.52 0,4.52 11.96,-37.15 25.07,-36.84 17.82,0.41 38.39,67.57 38.39,67.57 z"
         id="path24" />
      <path
         class="cls-3"
         d="M 290.58,961.33 H 527 c 0,0 -20.57,-67.15 -38.39,-67.57 -13.11,-0.3 -25.07,41.37 -25.07,36.84 0,-4.53 -6.93,-60.49 -24.49,-60.52 -17.84,-0.04 -31.1,60.11 -31.1,60.11 0,0 -12.43,-44.79 -29.03,-43.97 -17.48,0.87 -32.76,47.73 -32.76,47.73 0,0 -11.72,-28.22 -21.57,-26.58 -16.2,2.69 -34.02,53.95 -34.02,53.95 z"
         id="path25" />
    </g>
  </g>
</svg>
