<?xml version="1.0" encoding="UTF-8"?>
<svg id="Layer_2" data-name="Layer 2" xmlns="http://www.w3.org/2000/svg" xmlns:xlink="http://www.w3.org/1999/xlink" viewBox="0 0 1917 1286.48">
  <defs>
    <style>
      .cls-1, .cls-2, .cls-3 {
        fill: none;
      }

      .cls-2, .cls-3, .cls-4 {
        stroke: #301b4e;
        stroke-linecap: round;
        stroke-linejoin: round;
      }

      .cls-2, .cls-4 {
        stroke-width: 1.12px;
      }

      .cls-3 {
        stroke-width: .61px;
      }

      .cls-5, .cls-4 {
        fill: #d8e3ff;
      }

      .cls-6 {
        fill: #e7ecff;
      }

      .cls-7 {
        fill: #fff;
      }

      .cls-8 {
        clip-path: url(#clippath);
      }
    </style>
    <clipPath id="clippath">
      <polygon class="cls-1" points="773 506.48 59.04 562.48 59.04 206.48 773 206.48 773 506.48"/>
    </clipPath>
  </defs>
  <g id="Layer_1-2" data-name="Layer 1">
    <rect class="cls-6" y="206.48" width="1917" height="1080"/>
    <rect class="cls-7" y="1038.48" width="1917" height="248"/>
    <g class="cls-8">
      <g>
        <circle class="cls-4" cx="425.27" cy="299.7" r="151.97"/>
        <g>
          <line class="cls-2" x1="433.97" y1="608.84" x2="430.45" y2="498.49"/>
          <line class="cls-2" x1="291.52" y1="578.52" x2="339.68" y2="479.17"/>
          <line class="cls-2" x1="179.48" y1="485.46" x2="268.29" y2="419.88"/>
          <line class="cls-2" x1="123.51" y1="351" x2="232.64" y2="334.2"/>
          <line class="cls-2" x1="136.45" y1="205.93" x2="240.88" y2="241.77"/>
          <line class="cls-2" x1="215.32" y1="83.48" x2="291.13" y2="163.75"/>
          <line class="cls-2" x1="342.06" y1="11.72" x2="371.89" y2="118.03"/>
          <line class="cls-2" x1="487.63" y1="7.08" x2="464.64" y2="115.07"/>
          <line class="cls-2" x1="618.69" y1="70.61" x2="548.14" y2="155.55"/>
          <line class="cls-2" x1="705.2" y1="187.78" x2="603.27" y2="230.2"/>
          <line class="cls-2" x1="727.36" y1="331.73" x2="617.39" y2="321.92"/>
          <line class="cls-2" x1="680.08" y1="469.49" x2="587.26" y2="409.7"/>
          <line class="cls-2" x1="574.2" y1="569.5" x2="519.8" y2="473.42"/>
        </g>
      </g>
    </g>
    <g>
      <path class="cls-5" d="M248.3,890.07H115.11s11.01-47.59,23.37-51.54c12.72-4.05,21.51,28.44,21.51,28.44,0,0,9.84-44.6,23.07-44.6,13.03.04,18.17,41.54,18.17,44.9s8.87-27.56,18.59-27.33c13.22.31,28.48,50.12,28.48,50.12Z"/>
      <path class="cls-3" d="M115.11,890.07h133.19s-15.26-49.81-28.48-50.12c-9.73-.23-18.59,30.68-18.59,27.33s-5.14-44.86-18.17-44.9c-13.22,0-23.07,44.6-23.07,44.6,0,0-8.79-32.49-21.51-28.44-12.36,3.95-23.37,51.54-23.37,51.54Z"/>
    </g>
    <g>
      <path class="cls-5" d="M1058.3,404.42h-91.3s7.55-32.62,16.02-35.33c8.72-2.78,14.75,19.49,14.75,19.49,0,0,6.75-30.57,15.81-30.57,8.93.03,12.46,28.48,12.46,30.78s6.08-18.89,12.75-18.73c9.06.21,19.52,34.36,19.52,34.36Z"/>
      <path class="cls-3" d="M967,404.42h91.3s-10.46-34.15-19.52-34.36c-6.67-.16-12.75,21.03-12.75,18.73s-3.53-30.75-12.46-30.78c-9.06,0-15.81,30.57-15.81,30.57,0,0-6.02-22.27-14.75-19.49-8.47,2.71-16.02,35.33-16.02,35.33Z"/>
    </g>
    <g>
      <path class="cls-5" d="M1903.3,974.25h-110.3s9.12-39.41,19.36-42.68c10.54-3.35,17.81,23.55,17.81,23.55,0,0,8.15-36.93,19.1-36.93,10.79.03,15.05,34.41,15.05,37.19s7.34-22.82,15.4-22.63c10.95.25,23.58,41.51,23.58,41.51Z"/>
      <path class="cls-3" d="M1793,974.25h110.3s-12.63-41.25-23.58-41.51c-8.06-.19-15.4,25.41-15.4,22.63s-4.26-37.15-15.05-37.19c-10.95,0-19.1,36.93-19.1,36.93,0,0-7.28-26.9-17.81-23.55-10.23,3.27-19.36,42.68-19.36,42.68Z"/>
    </g>
    <g>
      <path class="cls-5" d="M739,887.88h-146.89s12.15-52.48,25.78-56.84c14.03-4.47,23.72,31.36,23.72,31.36,0,0,10.86-49.18,25.44-49.18,14.37.04,20.04,45.82,20.04,49.52s9.78-30.39,20.51-30.13c14.58.34,31.4,55.28,31.4,55.28Z"/>
      <path class="cls-3" d="M592.11,887.88h146.89s-16.82-54.94-31.4-55.28c-10.73-.25-20.51,33.84-20.51,30.13s-5.67-49.48-20.04-49.52c-14.58,0-25.44,49.18-25.44,49.18,0,0-9.69-35.83-23.72-31.36-13.63,4.36-25.78,56.84-25.78,56.84Z"/>
    </g>
    <g>
      <path class="cls-5" d="M527,961.33h-236.42s17.82-51.25,34.02-53.95c9.85-1.64,21.57,26.58,21.57,26.58,0,0,15.28-46.87,32.76-47.73,16.6-.83,29.03,43.97,29.03,43.97,0,0,13.26-60.15,31.1-60.11,17.56.04,24.49,56,24.49,60.52s11.96-37.15,25.07-36.84c17.82.41,38.39,67.57,38.39,67.57Z"/>
      <path class="cls-3" d="M290.58,961.33h236.42s-20.57-67.15-38.39-67.57c-13.11-.3-25.07,41.37-25.07,36.84s-6.93-60.49-24.49-60.52c-17.84-.04-31.1,60.11-31.1,60.11,0,0-12.43-44.79-29.03-43.97-17.48.87-32.76,47.73-32.76,47.73,0,0-11.72-28.22-21.57-26.58-16.2,2.69-34.02,53.95-34.02,53.95Z"/>
    </g>
  </g>
</svg>