<?xml version="1.0" encoding="UTF-8"?>
<svg id="Layer_2" data-name="Layer 2" xmlns="http://www.w3.org/2000/svg" viewBox="0 0 806.18 199.59">
  <defs>
    <style>
      .cls-1 {
        fill: #ff79ae;
        stroke: #000;
        stroke-miterlimit: 10;
        stroke-width: .91px;
      }

      .cls-2 {
        letter-spacing: 0em;
      }

      .cls-3 {
        fill: #738bda;
        font-family: DINPro-Bold, DINPro;
        font-size: 48.79px;
        font-weight: 700;
      }

      .cls-4 {
        letter-spacing: 0em;
      }

      .cls-5 {
        letter-spacing: 0em;
      }
    </style>
  </defs>
  <g id="Layer_1-2" data-name="Layer 1">
    <g>
      <g>
        <path class="cls-1" d="M5.47,132.17l-.14-2.45c-.43-7.36-.98-18.23-1.64-32.61-.67-14.38-1.21-25.25-1.64-32.61L.48,37.79l75.12-4.39,1.24,21.17.06.97.06,1.03c.01.17,0,.48,0,.94-.02.45-.07.77-.17.95-.1.18-.23.43-.41.77-.17.33-.39.57-.64.72-.25.14-.59.28-1.01.42-.42.13-.89.21-1.41.24l-1.81.11c-11.14.65-21.31,1.07-30.49,1.26-.05.69-.12,1.77-.23,3.22-.11,1.45-.19,2.73-.23,3.83-.04,1.1-.03,2.17.03,3.2l30.72-1.79c1.29-.08,2.16.05,2.61.37.45.32.7.87.74,1.64.01.22.01.56,0,1.04-.02.48-.02.82,0,1.04.12,2.07.36,5.12.73,9.15.37,4.04.61,7.09.73,9.15-.08.87-.4,1.32-.96,1.35-.26.02-.48-.06-.66-.22-13.56,1.48-23.6,2.41-30.14,2.8l-1.68.1.54,9.29c3.83-.22,9.36-.72,16.59-1.49,7.23-.77,12.65-1.26,16.27-1.47,2.84-.17,4.51.34,5.01,1.52l.29,4.9c.12,2.07.34,5.12.66,9.16.32,4.04.54,7.09.66,9.16.13,2.15-.67,3.28-2.39,3.38-2.24.13-5.68.31-10.33.54-4.65.23-8.18.41-10.59.55-6.2.36-15.05,1.04-26.56,2.04-11.51,1-19.85,1.67-25.01,2.01l-1.93-1.96c-.24-1.19-.37-1.96-.39-2.31Z"/>
        <path class="cls-1" d="M170.16,35.78c.53.14.97.86,1.32,2.16.36,1.3.61,2.93.77,4.91.16,1.98.27,3.87.33,5.68.06,1.81.12,3.66.16,5.56.05,1.9.08,3.08.11,3.56.01,1.73.11,4.14.29,7.24l.4,6.84c.18,3.01.46,7.14.85,12.38.39,5.24.66,9.11.81,11.61l1.37,23.49c-.09,1.47-1.25,2.28-3.49,2.41l-36.14,2.11c-.78-.13-1.88-1.88-3.29-5.25-.95-2.23-2.54-5.9-4.75-10.99-2.22-5.09-4.13-9.57-5.74-13.43-1.61-3.86-3.08-7.6-4.41-11.24l-.02-.39.02.39c.04,2.85.15,7.08.35,12.7.2,5.62.32,9.84.35,12.64l.77,13.17c.08,1.29-.02,2.19-.3,2.7-.27.51-1.04.96-2.32,1.33l-26.59,1.55-3.01-2.67c-.2-7.15-.68-18.35-1.44-33.59-.76-15.24-1.25-26.52-1.46-33.85l-.81-13.94c.34-1.57.81-2.38,1.41-2.41l.02.26c2.93-.17,7.51-.52,13.76-1.06,6.25-.54,10.95-.9,14.09-1.08l10.84-.63s.11.02.2.05c.79.26,1.24.57,1.35.96l.09.45c1.79,4.08,3.62,8.32,5.47,12.7,1.85,4.38,4.06,9.68,6.63,15.9,2.56,6.22,4.35,10.51,5.35,12.87l-.56-9.55c-.02-15.19-.22-25.98-.59-32.34-.04-.69.41-1.15,1.34-1.37.94-.23,2.39-.4,4.37-.51l22.07-1.29Z"/>
        <path class="cls-1" d="M176.28,40.87c-.15-2.58-.13-4.09.06-4.54.35-.63.96-.96,1.82-1.01l1.55-.09c.69-.04,1.16-.02,1.43.05l3.36-.2c4.34-.25,10.91-.74,19.7-1.47,8.79-.73,15.37-1.22,19.76-1.48l17.17-1c1.13.06,1.72.59,1.78,1.58l1.26,21.56c-.03.26-.09.49-.19.69-.1.2-.17.33-.24.4-.06.07-.26.23-.59.49-.33.26-.56.45-.68.59l-29.95,1.75.47,8,2.84-.17c2.49-.15,6.3-.45,11.41-.92,5.11-.47,9.04-.79,11.8-.95,1.2-.07,2.04.12,2.49.57.46.45.71,1.1.76,1.96.01.22,0,.58-.06,1.1-.06.52-.08.89-.07,1.1l.14,2.45c.01.17.05.53.13,1.06.07.54.12,1,.15,1.38l.11,1.81c.06.95.15,1.89.29,2.83.14.94.23,1.76.27,2.44l.1,1.68c-.19.53-.34.88-.46,1.06-.12.18-.33.28-.63.3v-.13c-1.6.09-4.34.36-8.22.8-3.88.44-6.98.73-9.31.87l-10.33.6.48,8.26c.34-.02.86-.03,1.55-.03.69,0,1.21,0,1.55-.03,1.94-.11,4.79-.34,8.57-.7,3.78-.35,6.51-.57,8.18-.67l8.26-.48c2.24-.13,3.67.04,4.3.53.23.25.42.49.56.74l1.21,20.65c.05.9-.08,1.6-.4,2.1-.32.49-.95.79-1.89.89l-63.89,3.73-2.03-1.57-4.59-78.61Z"/>
        <path class="cls-1" d="M249.28,31.16l12-.7c3.7-.22,9.61-.65,17.73-1.29,8.12-.65,14.2-1.09,18.25-1.32,3.48-.2,6.76-.2,9.81,0,3.06.21,6.09.75,9.1,1.61,3.01.86,5.6,2.03,7.78,3.5,2.18,1.47,3.99,3.47,5.43,6,1.44,2.53,2.26,5.49,2.46,8.89.27,4.69-.59,8.76-2.59,12.2-2,3.44-5.22,6.43-9.64,8.98,1.85.67,3.48,1.59,4.89,2.76,1.41,1.17,2.49,2.19,3.25,3.05s1.54,2.34,2.33,4.43c.79,2.09,1.27,3.47,1.44,4.13.17.66.54,2.29,1.13,4.89.16.6.28,1.04.34,1.34.27,1.71,1.19,4.82,2.75,9.33,1.56,4.51,2.41,7.99,2.55,10.44.09,1.55-.34,2.35-1.28,2.41-2.58.15-6.48.4-11.71.75-5.22.35-9.11.6-11.65.74-1.04-.03-2.59.02-4.65.14l-4.39.26c-.88-.21-1.79-1.49-2.75-3.85-.96-2.36-1.7-5.04-2.22-8.03l-2.09-11.41c-.31-.93-.56-1.6-.73-2-.18-.4-.47-.88-.89-1.44-.42-.56-.97-.93-1.65-1.1-.68-.18-1.54-.23-2.57-.17l-2.97.17,1.51,25.81.04.61.03.58.03.48c.01.22,0,.38-.04.49-.04.11-.07.25-.1.43-.03.17-.08.3-.14.36s-.14.16-.24.27c-.1.11-.23.2-.37.25-.15.05-.32.11-.51.16-.19.05-.42.09-.67.1l-33.95,1.98-5.03-86.22ZM287.79,63.11c.09.08.23.26.42.53.19.27.37.49.56.65.18.16.36.26.54.29,1.29-.08,2.57-.29,3.85-.65,1.27-.36,2.57-.89,3.89-1.62,1.32-.72,2.36-1.78,3.12-3.16.76-1.38,1.09-3,.98-4.85-.26-4.47-4.69-6.46-13.3-5.96-.85.27-1.26.63-1.23,1.11l.14,2.45c.07,1.25.25,3.12.52,5.6.28,2.49.45,4.36.52,5.6Z"/>
        <path class="cls-1" d="M424.97,101.47c-.25,1.61-3.08,3.21-8.49,4.8-5.41,1.59-10.82,2.8-16.24,3.64-5.41.83-9.71,1.34-12.89,1.53-3.36.2-6.28.28-8.76.25-2.48-.03-5.45-.23-8.91-.61-3.45-.38-6.79-1.18-10.02-2.39-3.22-1.21-6.27-2.82-9.15-4.81l-2.85-2.17c-.76-.47-1.54-1.21-2.33-2.2l-2.22-2.59c-5.64-7.83-8.77-17.14-9.4-27.94-.63-10.71,1.55-19.99,6.53-27.84l1.68-2.3-.05-.9v.13c7.17-10.35,19.66-16.04,37.48-17.08,2.58-.15,5.4-.09,8.46.19,3.06.27,6.33.8,9.8,1.57,3.48.77,6.8,2.01,9.96,3.72,3.16,1.72,5.72,3.77,7.68,6.16.97,1.15,1.74,2.46,2.3,3.91.56,1.46,1.11,3.35,1.66,5.67.55,2.32.98,4.03,1.3,5.14.09,1.46-1.25,2.27-4,2.44l-5.29.31c-1.2.07-3.67.15-7.4.24-3.73.09-6.69.2-8.89.32l-7.1.41c-.62-.18-1.2-.82-1.76-1.94-.56-1.11-.91-1.75-1.05-1.91v.13c-.87-1.67-2.64-2.44-5.31-2.28-1.76.1-3.28.57-4.55,1.4-1.27.83-2.22,1.81-2.84,2.95-.63,1.14-1.09,2.55-1.4,4.23-.31,1.68-.48,3.21-.51,4.6-.03,1.38.01,2.96.11,4.72.04.6.11,1.44.21,2.51.11,1.07.17,1.78.19,2.13l.29,4.9c.09,1.55.22,2.9.4,4.06.17,1.16.52,2.45,1.04,3.89.52,1.44,1.19,2.61,2.02,3.51.83.9,1.99,1.63,3.5,2.19,1.5.56,3.26.78,5.28.66,4.22-.25,7.51-.83,9.87-1.74l-.17-2.84c-.02-.34-.07-.79-.14-1.35-.08-.56-.12-1.01-.14-1.35,0-.09,0-.3.03-.65.02-.35.03-.65.01-.91l-2.45.14c-.35.02-.77.07-1.29.14-.51.07-.86.12-1.03.13l-5.42.32-2.34-2.32c-.11-.42-.19-1.07-.24-1.93l-.23-4c-.03-.52-.06-1.31-.07-2.39-.02-1.08-.05-1.96-.09-2.65l-.11-1.81c0-.09,0-.28.03-.58.02-.3.03-.59.02-.84l-.03-.52c-.05-.77.07-1.41.34-1.9.27-.49.82-1.02,1.66-1.59l6.07-.35c.43-.03,1.08.02,1.95.14l5.81-.34c4.31-.08,7.5-.18,9.57-.3l6.2-.36c6.54-.38,10.45,0,11.72,1.13.24,4.13.52,10.42.84,18.86.32,8.44.6,14.73.84,18.86l.33,5.68Z"/>
        <path class="cls-1" d="M424.49,26.38c-.15-2.58-.13-4.09.06-4.54.35-.63.96-.96,1.82-1.01l1.55-.09c.69-.04,1.16-.02,1.43.05l3.36-.2c4.35-.25,10.91-.74,19.7-1.47,8.79-.73,15.37-1.22,19.76-1.48l17.17-1c1.13.06,1.72.59,1.78,1.58l1.26,21.56c-.03.26-.09.49-.19.69-.1.2-.17.33-.24.4-.06.07-.26.23-.59.49-.33.26-.56.45-.68.59l-29.95,1.75.47,8,2.84-.17c2.49-.15,6.3-.45,11.41-.92,5.11-.47,9.04-.79,11.8-.95,1.2-.07,2.04.12,2.49.57.46.45.71,1.1.76,1.96.01.22,0,.58-.07,1.1-.06.52-.08.89-.06,1.1l.14,2.45c.01.17.05.53.13,1.06.07.54.12,1,.15,1.38l.11,1.81c.06.95.15,1.89.3,2.83.14.94.23,1.76.27,2.44l.1,1.68c-.19.53-.34.88-.46,1.06-.12.18-.33.28-.63.3v-.13c-1.6.09-4.34.36-8.22.8-3.88.44-6.98.73-9.31.87l-10.33.6.48,8.26c.34-.02.86-.03,1.55-.03.69,0,1.21,0,1.55-.03,1.94-.11,4.79-.34,8.57-.7,3.78-.35,6.51-.57,8.18-.67l8.26-.48c2.24-.13,3.67.04,4.3.53.23.25.42.49.56.74l1.21,20.65c.05.9-.08,1.6-.4,2.1-.32.49-.95.79-1.89.89l-63.89,3.73-2.03-1.57-4.59-78.61Z"/>
        <path class="cls-1" d="M494.6,40.41l-1.36-23.23,75.12-4.39c.7.09,1.14.33,1.34.73.2.4.32.99.36,1.76l1.21,20.65c-.03,1.04-.6,1.59-1.72,1.66l-18.33,1.07,3.47,59.37s-.01.15-.05.33c-.03.17-.05.28-.05.33s-.01.13-.05.26c-.04.13-.07.22-.11.27-.04.05-.08.12-.12.23-.04.11-.09.18-.15.2-.06.03-.15.07-.25.14-.1.07-.21.13-.31.18-.11.05-.23.09-.38.12-.15.03-.31.07-.48.12l-4.13.24c-5.51.32-8.27.31-8.29-.03-.35.02-.86.07-1.55.15-.69.08-1.2.13-1.55.15l-5.16.3c-.99.06-2.4.16-4.22.31-1.83.15-3.26.25-4.29.31l-3.61.21-2.69-1.66-.81-13.94c-.1-2.5-.23-7.84-.39-16.04-.15-8.19-.37-14.66-.65-19.39l-.1-1.68c-.02-.34-.03-.88-.03-1.62,0-.73,0-1.27-.03-1.62-.02-.39-.09-1.17-.2-2.35-.11-1.18-.18-1.94-.2-2.29l-16.13.94c-.95.06-1.86-.05-2.74-.33-.88-.27-1.34-.77-1.38-1.51Z"/>
        <path class="cls-1" d="M579.07,98.56l-4.95-84.8c.02-.35.35-.68.98-1,.63-.32,1-.54,1.13-.68l34.72-2.03,4.91,84.03c-.16.92-.33,1.54-.51,1.88-.17.33-.48.51-.91.54l-35.37,2.06Z"/>
        <path class="cls-1" d="M620.95,96.24c-.85-1.24-1.42-2.12-1.71-2.62l-4.95-84.8,28.53-1.67c.13,0,.47-.04,1.03-.09.56-.05.99-.08,1.29-.08.3,0,.72.01,1.26.02.54.01.99.06,1.34.15.35.09.71.22,1.09.39.38.17.69.42.95.75.26.33.44.71.55,1.13l1.67,28.65c1.25-2.92,3.01-7.13,5.25-12.61,2.25-5.48,3.9-9.47,4.97-11.95l2.77-6.96,6.12-.55c.86-.05,2.16-.08,3.91-.1,1.75-.02,3.03-.05,3.85-.1l4.9-.29c.34-.02.85-.07,1.51-.15.66-.08,1.15-.13,1.45-.15l3.74-.22c.17-.01.47-.07.9-.18,6.97-.41,10.49-.09,10.55.94.04.6-.3,1.44-1.02,2.52-1.8,3.26-4.8,9.18-9,17.78-4.2,8.6-7.62,15.09-10.26,19.48l27.77,42.03.03.45.03.52c0,.09,0,.23,0,.42-.01.19-.03.35-.07.46-.04.11-.08.24-.14.4-.06.16-.13.29-.24.4l-.33.38c-4.06-.02-10.09.2-18.09.67-1.08.06-2.73.18-4.97.36-2.24.17-3.89.29-4.97.35l-8.78.51-.11-1.81c-.76-1.12-2.37-3.31-4.85-6.58-2.48-3.27-4.29-5.84-5.44-7.71l-8.03-13.39,1.67,28.65c-.5,1.76-2.82,2.75-6.95,3l-27.23,1.59Z"/>
        <path class="cls-1" d="M743.42,75.36c-.24,1.01-.46,2.33-.64,3.96-.19,1.63-.37,2.91-.55,3.85-.18.94-.52,1.93-1.02,2.97-.5,1.04-1.31,1.84-2.42,2.38-1.11.54-2.57.86-4.38.97l-27.88,1.63-.13-2.19c1.88-6.97,4.59-17.67,8.13-32.08,3.54-14.41,6.3-25.32,8.29-32.73v.13c1.23-4.26,3-10.92,5.32-20,.04-.09.1-.2.17-.33.35-.67.69-1.18,1.01-1.55l34.87-1.78c5.94-.35,9.24-.02,9.9.98l.1,1.68c.11.38.64,1.34,1.59,2.89,4.92,12.54,8.52,21.65,10.79,27.35l.05.77c.24,1.24.71,2.64,1.41,4.19.7,1.56,1.52,3.23,2.46,5,.95,1.78,1.62,3.18,2.03,4.19l3.12,9.14c1.8,4.9,4.4,11.44,7.82,19.62v-.13s.07,1.29.07,1.29c.16.6.53,1.39,1.11,2.4.58,1,.94,1.72,1.1,2.14.07,1.21-.13,1.99-.61,2.37-.48.37-1.42.6-2.84.68l-29.95,1.75c-.74-.04-1.21-.08-1.43-.11-.22-.03-.56-.1-1.01-.2-.46-.1-.79-.25-1-.46-.21-.2-.34-.48-.4-.82l-3.03-9.67c-.22-.81-.42-1.26-.6-1.36-.18-.1-.7-.12-1.56-.07l-19.88,1.16ZM758.92,43.63c-.33-1.19-.82-3.11-1.47-5.77-.65-2.66-1.27-4.98-1.86-6.95-.59-1.97-1.22-3.8-1.87-5.49l-.18-3.1c-.4-.88-1.04-1.49-1.92-1.83v.13c-1.01.28-1.88,3.22-2.59,8.83l.18,3.1c-.07.31-.25.6-.53.87-.29.28-.43.44-.43.48-1.05,6.37-1.92,11.51-2.6,15.43.03.43-.04,1.19-.19,2.28-.15,1.09-.22,1.72-.21,1.89l16.01-.93c-.07-1.12-.57-3.12-1.52-6l-.08-1.42c-.05-.13-.18-.37-.4-.72-.21-.35-.33-.62-.34-.79Z"/>
      </g>
      <text class="cls-3" transform="translate(168.56 188.04) rotate(-3.34)"><tspan class="cls-4" x="0" y="0">P</tspan><tspan x="30.15" y="0">ohání </tspan><tspan class="cls-5" x="163.16" y="0">sv</tspan><tspan class="cls-2" x="210.68" y="0">ět každý den</tspan></text>
    </g>
  </g>
</svg>