<?xml version="1.0" encoding="UTF-8" standalone="no"?>
<svg
   id="Layer_2"
   data-name="Layer 2"
   viewBox="0 0 806.21021 187.79905"
   version="1.1"
   sodipodi:docname="00_HL.svg"
   width="806.21021"
   height="187.79904"
   xmlns:inkscape="http://www.inkscape.org/namespaces/inkscape"
   xmlns:sodipodi="http://sodipodi.sourceforge.net/DTD/sodipodi-0.dtd"
   xmlns="http://www.w3.org/2000/svg"
   xmlns:svg="http://www.w3.org/2000/svg">
  <sodipodi:namedview
     id="namedview13"
     pagecolor="#ffffff"
     bordercolor="#000000"
     borderopacity="0.25"
     inkscape:showpageshadow="2"
     inkscape:pageopacity="0.0"
     inkscape:pagecheckerboard="0"
     inkscape:deskcolor="#d1d1d1" />
  <defs
     id="defs1">
    <style
       id="style1">
      .cls-1 {
        fill: #ff79ae;
        stroke: #000;
        stroke-miterlimit: 10;
        stroke-width: .91px;
      }

      .cls-2 {
        letter-spacing: 0em;
      }

      .cls-3 {
        fill: #738bda;
        font-family: DINPro-Bold, DINPro;
        font-size: 48.79px;
        font-weight: 700;
      }

      .cls-4 {
        letter-spacing: 0em;
      }

      .cls-5 {
        letter-spacing: 0em;
      }
    </style>
  </defs>
  <g
     id="Layer_1-2"
     data-name="Layer 1"
     transform="translate(9.2364729e-4,6.5350026e-4)">
    <g
       id="g13">
      <g
         id="g10">
        <path
           class="cls-1"
           d="M 5.47,132.17 5.33,129.72 C 4.9,122.36 4.35,111.49 3.69,97.11 3.02,82.73 2.48,71.86 2.05,64.5 L 0.48,37.79 75.6,33.4 l 1.24,21.17 0.06,0.97 0.06,1.03 c 0.01,0.17 0,0.48 0,0.94 -0.02,0.45 -0.07,0.77 -0.17,0.95 -0.1,0.18 -0.23,0.43 -0.41,0.77 -0.17,0.33 -0.39,0.57 -0.64,0.72 -0.25,0.14 -0.59,0.28 -1.01,0.42 -0.42,0.13 -0.89,0.21 -1.41,0.24 l -1.81,0.11 c -11.14,0.65 -21.31,1.07 -30.49,1.26 -0.05,0.69 -0.12,1.77 -0.23,3.22 -0.11,1.45 -0.19,2.73 -0.23,3.83 -0.04,1.1 -0.03,2.17 0.03,3.2 l 30.72,-1.79 c 1.29,-0.08 2.16,0.05 2.61,0.37 0.45,0.32 0.7,0.87 0.74,1.64 0.01,0.22 0.01,0.56 0,1.04 -0.02,0.48 -0.02,0.82 0,1.04 0.12,2.07 0.36,5.12 0.73,9.15 0.37,4.04 0.61,7.09 0.73,9.15 -0.08,0.87 -0.4,1.32 -0.96,1.35 -0.26,0.02 -0.48,-0.06 -0.66,-0.22 -13.56,1.48 -23.6,2.41 -30.14,2.8 l -1.68,0.1 0.54,9.29 c 3.83,-0.22 9.36,-0.72 16.59,-1.49 7.23,-0.77 12.65,-1.26 16.27,-1.47 2.84,-0.17 4.51,0.34 5.01,1.52 l 0.29,4.9 c 0.12,2.07 0.34,5.12 0.66,9.16 0.32,4.04 0.54,7.09 0.66,9.16 0.13,2.15 -0.67,3.28 -2.39,3.38 -2.24,0.13 -5.68,0.31 -10.33,0.54 -4.65,0.23 -8.18,0.41 -10.59,0.55 -6.2,0.36 -15.05,1.04 -26.56,2.04 -11.51,1 -19.85,1.67 -25.01,2.01 L 5.89,134.49 C 5.65,133.3 5.52,132.53 5.5,132.18 Z"
           id="path1" />
        <path
           class="cls-1"
           d="m 170.16,35.78 c 0.53,0.14 0.97,0.86 1.32,2.16 0.36,1.3 0.61,2.93 0.77,4.91 0.16,1.98 0.27,3.87 0.33,5.68 0.06,1.81 0.12,3.66 0.16,5.56 0.05,1.9 0.08,3.08 0.11,3.56 0.01,1.73 0.11,4.14 0.29,7.24 l 0.4,6.84 c 0.18,3.01 0.46,7.14 0.85,12.38 0.39,5.24 0.66,9.11 0.81,11.61 l 1.37,23.49 c -0.09,1.47 -1.25,2.28 -3.49,2.41 l -36.14,2.11 c -0.78,-0.13 -1.88,-1.88 -3.29,-5.25 -0.95,-2.23 -2.54,-5.9 -4.75,-10.99 -2.22,-5.09 -4.13,-9.57 -5.74,-13.43 -1.61,-3.86 -3.08,-7.6 -4.41,-11.24 l -0.02,-0.39 0.02,0.39 c 0.04,2.85 0.15,7.08 0.35,12.7 0.2,5.62 0.32,9.84 0.35,12.64 l 0.77,13.17 c 0.08,1.29 -0.02,2.19 -0.3,2.7 -0.27,0.51 -1.04,0.96 -2.32,1.33 L 91.01,126.91 88,124.24 C 87.8,117.09 87.32,105.89 86.56,90.65 85.8,75.41 85.31,64.13 85.1,56.8 L 84.29,42.86 c 0.34,-1.57 0.81,-2.38 1.41,-2.41 l 0.02,0.26 c 2.93,-0.17 7.51,-0.52 13.76,-1.06 6.25,-0.54 10.95,-0.9 14.09,-1.08 l 10.84,-0.63 c 0,0 0.11,0.02 0.2,0.05 0.79,0.26 1.24,0.57 1.35,0.96 l 0.09,0.45 c 1.79,4.08 3.62,8.32 5.47,12.7 1.85,4.38 4.06,9.68 6.63,15.9 2.56,6.22 4.35,10.51 5.35,12.87 l -0.56,-9.55 c -0.02,-15.19 -0.22,-25.98 -0.59,-32.34 -0.04,-0.69 0.41,-1.15 1.34,-1.37 0.94,-0.23 2.39,-0.4 4.37,-0.51 l 22.07,-1.29 z"
           id="path2" />
        <path
           class="cls-1"
           d="m 176.28,40.87 c -0.15,-2.58 -0.13,-4.09 0.06,-4.54 0.35,-0.63 0.96,-0.96 1.82,-1.01 l 1.55,-0.09 c 0.69,-0.04 1.16,-0.02 1.43,0.05 l 3.36,-0.2 c 4.34,-0.25 10.91,-0.74 19.7,-1.47 8.79,-0.73 15.37,-1.22 19.76,-1.48 l 17.17,-1 c 1.13,0.06 1.72,0.59 1.78,1.58 l 1.26,21.56 c -0.03,0.26 -0.09,0.49 -0.19,0.69 -0.1,0.2 -0.17,0.33 -0.24,0.4 -0.06,0.07 -0.26,0.23 -0.59,0.49 -0.33,0.26 -0.56,0.45 -0.68,0.59 l -29.95,1.75 0.47,8 2.84,-0.17 c 2.49,-0.15 6.3,-0.45 11.41,-0.92 5.11,-0.47 9.04,-0.79 11.8,-0.95 1.2,-0.07 2.04,0.12 2.49,0.57 0.46,0.45 0.71,1.1 0.76,1.96 0.01,0.22 0,0.58 -0.06,1.1 -0.06,0.52 -0.08,0.89 -0.07,1.1 l 0.14,2.45 c 0.01,0.17 0.05,0.53 0.13,1.06 0.07,0.54 0.12,1 0.15,1.38 l 0.11,1.81 c 0.06,0.95 0.15,1.89 0.29,2.83 0.14,0.94 0.23,1.76 0.27,2.44 l 0.1,1.68 c -0.19,0.53 -0.34,0.88 -0.46,1.06 -0.12,0.18 -0.33,0.28 -0.63,0.3 v -0.13 c -1.6,0.09 -4.34,0.36 -8.22,0.8 -3.88,0.44 -6.98,0.73 -9.31,0.87 l -10.33,0.6 0.48,8.26 c 0.34,-0.02 0.86,-0.03 1.55,-0.03 0.69,0 1.21,0 1.55,-0.03 1.94,-0.11 4.79,-0.34 8.57,-0.7 3.78,-0.35 6.51,-0.57 8.18,-0.67 l 8.26,-0.48 c 2.24,-0.13 3.67,0.04 4.3,0.53 0.23,0.25 0.42,0.49 0.56,0.74 l 1.21,20.65 c 0.05,0.9 -0.08,1.6 -0.4,2.1 -0.32,0.49 -0.95,0.79 -1.89,0.89 l -63.89,3.73 -2.03,-1.57 -4.59,-78.61 z"
           id="path3" />
        <path
           class="cls-1"
           d="m 249.28,31.16 12,-0.7 c 3.7,-0.22 9.61,-0.65 17.73,-1.29 8.12,-0.65 14.2,-1.09 18.25,-1.32 3.48,-0.2 6.76,-0.2 9.81,0 3.06,0.21 6.09,0.75 9.1,1.61 3.01,0.86 5.6,2.03 7.78,3.5 2.18,1.47 3.99,3.47 5.43,6 1.44,2.53 2.26,5.49 2.46,8.89 0.27,4.69 -0.59,8.76 -2.59,12.2 -2,3.44 -5.22,6.43 -9.64,8.98 1.85,0.67 3.48,1.59 4.89,2.76 1.41,1.17 2.49,2.19 3.25,3.05 0.76,0.86 1.54,2.34 2.33,4.43 0.79,2.09 1.27,3.47 1.44,4.13 0.17,0.66 0.54,2.29 1.13,4.89 0.16,0.6 0.28,1.04 0.34,1.34 0.27,1.71 1.19,4.82 2.75,9.33 1.56,4.51 2.41,7.99 2.55,10.44 0.09,1.55 -0.34,2.35 -1.28,2.41 -2.58,0.15 -6.48,0.4 -11.71,0.75 -5.22,0.35 -9.11,0.6 -11.65,0.74 -1.04,-0.03 -2.59,0.02 -4.65,0.14 l -4.39,0.26 c -0.88,-0.21 -1.79,-1.49 -2.75,-3.85 -0.96,-2.36 -1.7,-5.04 -2.22,-8.03 l -2.09,-11.41 c -0.31,-0.93 -0.56,-1.6 -0.73,-2 -0.18,-0.4 -0.47,-0.88 -0.89,-1.44 -0.42,-0.56 -0.97,-0.93 -1.65,-1.1 -0.68,-0.18 -1.54,-0.23 -2.57,-0.17 l -2.97,0.17 1.51,25.81 0.04,0.61 0.03,0.58 0.03,0.48 c 0.01,0.22 0,0.38 -0.04,0.49 -0.04,0.11 -0.07,0.25 -0.1,0.43 -0.03,0.17 -0.08,0.3 -0.14,0.36 -0.06,0.06 -0.14,0.16 -0.24,0.27 -0.1,0.11 -0.23,0.2 -0.37,0.25 -0.15,0.05 -0.32,0.11 -0.51,0.16 -0.19,0.05 -0.42,0.09 -0.67,0.1 l -33.95,1.98 -5.03,-86.22 z m 38.51,31.95 c 0.09,0.08 0.23,0.26 0.42,0.53 0.19,0.27 0.37,0.49 0.56,0.65 0.18,0.16 0.36,0.26 0.54,0.29 1.29,-0.08 2.57,-0.29 3.85,-0.65 1.27,-0.36 2.57,-0.89 3.89,-1.62 1.32,-0.72 2.36,-1.78 3.12,-3.16 0.76,-1.38 1.09,-3 0.98,-4.85 -0.26,-4.47 -4.69,-6.46 -13.3,-5.96 -0.85,0.27 -1.26,0.63 -1.23,1.11 l 0.14,2.45 c 0.07,1.25 0.25,3.12 0.52,5.6 0.28,2.49 0.45,4.36 0.52,5.6 z"
           id="path4" />
        <path
           class="cls-1"
           d="m 424.97,101.47 c -0.25,1.61 -3.08,3.21 -8.49,4.8 -5.41,1.59 -10.82,2.8 -16.24,3.64 -5.41,0.83 -9.71,1.34 -12.89,1.53 -3.36,0.2 -6.28,0.28 -8.76,0.25 -2.48,-0.03 -5.45,-0.23 -8.91,-0.61 -3.45,-0.38 -6.79,-1.18 -10.02,-2.39 -3.22,-1.21 -6.27,-2.82 -9.15,-4.81 l -2.85,-2.17 c -0.76,-0.47 -1.54,-1.21 -2.33,-2.2 l -2.22,-2.59 c -5.64,-7.83 -8.77,-17.14 -9.4,-27.94 -0.63,-10.71 1.55,-19.99 6.53,-27.84 l 1.68,-2.3 -0.05,-0.9 v 0.13 c 7.17,-10.35 19.66,-16.04 37.48,-17.08 2.58,-0.15 5.4,-0.09 8.46,0.19 3.06,0.27 6.33,0.8 9.8,1.57 3.48,0.77 6.8,2.01 9.96,3.72 3.16,1.72 5.72,3.77 7.68,6.16 0.97,1.15 1.74,2.46 2.3,3.91 0.56,1.46 1.11,3.35 1.66,5.67 0.55,2.32 0.98,4.03 1.3,5.14 0.09,1.46 -1.25,2.27 -4,2.44 l -5.29,0.31 c -1.2,0.07 -3.67,0.15 -7.4,0.24 -3.73,0.09 -6.69,0.2 -8.89,0.32 l -7.1,0.41 c -0.62,-0.18 -1.2,-0.82 -1.76,-1.94 -0.56,-1.11 -0.91,-1.75 -1.05,-1.91 v 0.13 c -0.87,-1.67 -2.64,-2.44 -5.31,-2.28 -1.76,0.1 -3.28,0.57 -4.55,1.4 -1.27,0.83 -2.22,1.81 -2.84,2.95 -0.63,1.14 -1.09,2.55 -1.4,4.23 -0.31,1.68 -0.48,3.21 -0.51,4.6 -0.03,1.38 0.01,2.96 0.11,4.72 0.04,0.6 0.11,1.44 0.21,2.51 0.11,1.07 0.17,1.78 0.19,2.13 l 0.29,4.9 c 0.09,1.55 0.22,2.9 0.4,4.06 0.17,1.16 0.52,2.45 1.04,3.89 0.52,1.44 1.19,2.61 2.02,3.51 0.83,0.9 1.99,1.63 3.5,2.19 1.5,0.56 3.26,0.78 5.28,0.66 4.22,-0.25 7.51,-0.83 9.87,-1.74 l -0.17,-2.84 c -0.02,-0.34 -0.07,-0.79 -0.14,-1.35 -0.08,-0.56 -0.12,-1.01 -0.14,-1.35 0,-0.09 0,-0.3 0.03,-0.65 0.02,-0.35 0.03,-0.65 0.01,-0.91 l -2.45,0.14 c -0.35,0.02 -0.77,0.07 -1.29,0.14 -0.51,0.07 -0.86,0.12 -1.03,0.13 l -5.42,0.32 -2.34,-2.32 c -0.11,-0.42 -0.19,-1.07 -0.24,-1.93 l -0.23,-4 c -0.03,-0.52 -0.06,-1.31 -0.07,-2.39 -0.02,-1.08 -0.05,-1.96 -0.09,-2.65 l -0.11,-1.81 c 0,-0.09 0,-0.28 0.03,-0.58 0.02,-0.3 0.03,-0.59 0.02,-0.84 l -0.03,-0.52 c -0.05,-0.77 0.07,-1.41 0.34,-1.9 0.27,-0.49 0.82,-1.02 1.66,-1.59 l 6.07,-0.35 c 0.43,-0.03 1.08,0.02 1.95,0.14 l 5.81,-0.34 c 4.31,-0.08 7.5,-0.18 9.57,-0.3 l 6.2,-0.36 c 6.54,-0.38 10.45,0 11.72,1.13 0.24,4.13 0.52,10.42 0.84,18.86 0.32,8.44 0.6,14.73 0.84,18.86 l 0.33,5.68 z"
           id="path5" />
        <path
           class="cls-1"
           d="m 424.49,26.38 c -0.15,-2.58 -0.13,-4.09 0.06,-4.54 0.35,-0.63 0.96,-0.96 1.82,-1.01 l 1.55,-0.09 c 0.69,-0.04 1.16,-0.02 1.43,0.05 l 3.36,-0.2 c 4.35,-0.25 10.91,-0.74 19.7,-1.47 8.79,-0.73 15.37,-1.22 19.76,-1.48 l 17.17,-1 c 1.13,0.06 1.72,0.59 1.78,1.58 l 1.26,21.56 c -0.03,0.26 -0.09,0.49 -0.19,0.69 -0.1,0.2 -0.17,0.33 -0.24,0.4 -0.06,0.07 -0.26,0.23 -0.59,0.49 -0.33,0.26 -0.56,0.45 -0.68,0.59 l -29.95,1.75 0.47,8 2.84,-0.17 c 2.49,-0.15 6.3,-0.45 11.41,-0.92 5.11,-0.47 9.04,-0.79 11.8,-0.95 1.2,-0.07 2.04,0.12 2.49,0.57 0.46,0.45 0.71,1.1 0.76,1.96 0.01,0.22 0,0.58 -0.07,1.1 -0.06,0.52 -0.08,0.89 -0.06,1.1 l 0.14,2.45 c 0.01,0.17 0.05,0.53 0.13,1.06 0.07,0.54 0.12,1 0.15,1.38 l 0.11,1.81 c 0.06,0.95 0.15,1.89 0.3,2.83 0.14,0.94 0.23,1.76 0.27,2.44 l 0.1,1.68 c -0.19,0.53 -0.34,0.88 -0.46,1.06 -0.12,0.18 -0.33,0.28 -0.63,0.3 v -0.13 c -1.6,0.09 -4.34,0.36 -8.22,0.8 -3.88,0.44 -6.98,0.73 -9.31,0.87 l -10.33,0.6 0.48,8.26 c 0.34,-0.02 0.86,-0.03 1.55,-0.03 0.69,0 1.21,0 1.55,-0.03 1.94,-0.11 4.79,-0.34 8.57,-0.7 3.78,-0.35 6.51,-0.57 8.18,-0.67 l 8.26,-0.48 c 2.24,-0.13 3.67,0.04 4.3,0.53 0.23,0.25 0.42,0.49 0.56,0.74 l 1.21,20.65 c 0.05,0.9 -0.08,1.6 -0.4,2.1 -0.32,0.49 -0.95,0.79 -1.89,0.89 l -63.89,3.73 -2.03,-1.57 -4.59,-78.61 z"
           id="path6" />
        <path
           class="cls-1"
           d="m 494.6,40.41 -1.36,-23.23 75.12,-4.39 c 0.7,0.09 1.14,0.33 1.34,0.73 0.2,0.4 0.32,0.99 0.36,1.76 l 1.21,20.65 c -0.03,1.04 -0.6,1.59 -1.72,1.66 l -18.33,1.07 3.47,59.37 c 0,0 -0.01,0.15 -0.05,0.33 -0.03,0.17 -0.05,0.28 -0.05,0.33 0,0.05 -0.01,0.13 -0.05,0.26 -0.04,0.13 -0.07,0.22 -0.11,0.27 -0.04,0.05 -0.08,0.12 -0.12,0.23 -0.04,0.11 -0.09,0.18 -0.15,0.2 -0.06,0.03 -0.15,0.07 -0.25,0.14 -0.1,0.07 -0.21,0.13 -0.31,0.18 -0.11,0.05 -0.23,0.09 -0.38,0.12 -0.15,0.03 -0.31,0.07 -0.48,0.12 l -4.13,0.24 c -5.51,0.32 -8.27,0.31 -8.29,-0.03 -0.35,0.02 -0.86,0.07 -1.55,0.15 -0.69,0.08 -1.2,0.13 -1.55,0.15 l -5.16,0.3 c -0.99,0.06 -2.4,0.16 -4.22,0.31 -1.83,0.15 -3.26,0.25 -4.29,0.31 l -3.61,0.21 -2.69,-1.66 -0.81,-13.94 c -0.1,-2.5 -0.23,-7.84 -0.39,-16.04 -0.15,-8.19 -0.37,-14.66 -0.65,-19.39 l -0.1,-1.68 c -0.02,-0.34 -0.03,-0.88 -0.03,-1.62 0,-0.73 0,-1.27 -0.03,-1.62 -0.02,-0.39 -0.09,-1.17 -0.2,-2.35 -0.11,-1.18 -0.18,-1.94 -0.2,-2.29 l -16.13,0.94 c -0.95,0.06 -1.86,-0.05 -2.74,-0.33 -0.88,-0.27 -1.34,-0.77 -1.38,-1.51 z"
           id="path7" />
        <path
           class="cls-1"
           d="m 579.07,98.56 -4.95,-84.8 c 0.02,-0.35 0.35,-0.68 0.98,-1 0.63,-0.32 1,-0.54 1.13,-0.68 l 34.72,-2.03 4.91,84.03 c -0.16,0.92 -0.33,1.54 -0.51,1.88 -0.17,0.33 -0.48,0.51 -0.91,0.54 z"
           id="path8" />
        <path
           class="cls-1"
           d="M 620.95,96.24 C 620.1,95 619.53,94.12 619.24,93.62 l -4.95,-84.8 28.53,-1.67 c 0.13,0 0.47,-0.04 1.03,-0.09 0.56,-0.05 0.99,-0.08 1.29,-0.08 0.3,0 0.72,0.01 1.26,0.02 0.54,0.01 0.99,0.06 1.34,0.15 0.35,0.09 0.71,0.22 1.09,0.39 0.38,0.17 0.69,0.42 0.95,0.75 0.26,0.33 0.44,0.71 0.55,1.13 L 652,38.07 c 1.25,-2.92 3.01,-7.13 5.25,-12.61 2.25,-5.48 3.9,-9.47 4.97,-11.95 L 664.99,6.55 671.11,6 c 0.86,-0.05 2.16,-0.08 3.91,-0.1 1.75,-0.02 3.03,-0.05 3.85,-0.1 l 4.9,-0.29 c 0.34,-0.02 0.85,-0.07 1.51,-0.15 0.66,-0.08 1.15,-0.13 1.45,-0.15 l 3.74,-0.22 c 0.17,-0.01 0.47,-0.07 0.9,-0.18 6.97,-0.41 10.49,-0.09 10.55,0.94 0.04,0.6 -0.3,1.44 -1.02,2.52 -1.8,3.26 -4.8,9.18 -9,17.78 -4.2,8.6 -7.62,15.09 -10.26,19.48 l 27.77,42.03 0.03,0.45 0.03,0.52 c 0,0.09 0,0.23 0,0.42 -0.01,0.19 -0.03,0.35 -0.07,0.46 -0.04,0.11 -0.08,0.24 -0.14,0.4 -0.06,0.16 -0.13,0.29 -0.24,0.4 l -0.33,0.38 c -4.06,-0.02 -10.09,0.2 -18.09,0.67 -1.08,0.06 -2.73,0.18 -4.97,0.36 -2.24,0.17 -3.89,0.29 -4.97,0.35 l -8.78,0.51 -0.11,-1.81 c -0.76,-1.12 -2.37,-3.31 -4.85,-6.58 -2.48,-3.27 -4.29,-5.84 -5.44,-7.71 l -8.03,-13.39 1.67,28.65 c -0.5,1.76 -2.82,2.75 -6.95,3 l -27.23,1.59 z"
           id="path9" />
        <path
           class="cls-1"
           d="m 743.42,75.36 c -0.24,1.01 -0.46,2.33 -0.64,3.96 -0.19,1.63 -0.37,2.91 -0.55,3.85 -0.18,0.94 -0.52,1.93 -1.02,2.97 -0.5,1.04 -1.31,1.84 -2.42,2.38 -1.11,0.54 -2.57,0.86 -4.38,0.97 l -27.88,1.63 -0.13,-2.19 c 1.88,-6.97 4.59,-17.67 8.13,-32.08 3.54,-14.41 6.3,-25.32 8.29,-32.73 v 0.13 c 1.23,-4.26 3,-10.92 5.32,-20 0.04,-0.09 0.1,-0.2 0.17,-0.33 0.35,-0.67 0.69,-1.18 1.01,-1.55 l 34.87,-1.78 c 5.94,-0.35 9.24,-0.02 9.9,0.98 l 0.1,1.68 c 0.11,0.38 0.64,1.34 1.59,2.89 4.92,12.54 8.52,21.65 10.79,27.35 l 0.05,0.77 c 0.24,1.24 0.71,2.64 1.41,4.19 0.7,1.56 1.52,3.23 2.46,5 0.95,1.78 1.62,3.18 2.03,4.19 l 3.12,9.14 c 1.8,4.9 4.4,11.44 7.82,19.62 v -0.13 c 0,0 0.07,1.29 0.07,1.29 0.16,0.6 0.53,1.39 1.11,2.4 0.58,1 0.94,1.72 1.1,2.14 0.07,1.21 -0.13,1.99 -0.61,2.37 -0.48,0.37 -1.42,0.6 -2.84,0.68 l -29.95,1.75 c -0.74,-0.04 -1.21,-0.08 -1.43,-0.11 -0.22,-0.03 -0.56,-0.1 -1.01,-0.2 -0.46,-0.1 -0.79,-0.25 -1,-0.46 -0.21,-0.2 -0.34,-0.48 -0.4,-0.82 l -3.03,-9.67 c -0.22,-0.81 -0.42,-1.26 -0.6,-1.36 -0.18,-0.1 -0.7,-0.12 -1.56,-0.07 l -19.88,1.16 z m 15.5,-31.73 c -0.33,-1.19 -0.82,-3.11 -1.47,-5.77 -0.65,-2.66 -1.27,-4.98 -1.86,-6.95 -0.59,-1.97 -1.22,-3.8 -1.87,-5.49 l -0.18,-3.1 c -0.4,-0.88 -1.04,-1.49 -1.92,-1.83 v 0.13 c -1.01,0.28 -1.88,3.22 -2.59,8.83 l 0.18,3.1 c -0.07,0.31 -0.25,0.6 -0.53,0.87 -0.29,0.28 -0.43,0.44 -0.43,0.48 -1.05,6.37 -1.92,11.51 -2.6,15.43 0.03,0.43 -0.04,1.19 -0.19,2.28 -0.15,1.09 -0.22,1.72 -0.21,1.89 l 16.01,-0.93 c -0.07,-1.12 -0.57,-3.12 -1.52,-6 l -0.08,-1.42 c -0.05,-0.13 -0.18,-0.37 -0.4,-0.72 -0.21,-0.35 -0.33,-0.62 -0.34,-0.79 z"
           id="path10" />
      </g>
      <text
         class="cls-3"
         transform="rotate(-3.34,3309.0846,-2796.711)"
         id="text13"><tspan
           class="cls-4"
           x="0"
           y="0"
           id="tspan10">P</tspan><tspan
           x="30.15"
           y="0"
           id="tspan11">ohání</tspan><tspan
           class="cls-5"
           x="163.16"
           y="0"
           id="tspan12">sv</tspan><tspan
           class="cls-2"
           x="210.67999"
           y="0"
           id="tspan13">ět každý den</tspan></text>
    </g>
  </g>
</svg>
