<?xml version="1.0" encoding="UTF-8"?>
<svg id="Layer_2" data-name="Layer 2" xmlns="http://www.w3.org/2000/svg" viewBox="0 0 1920 1080">
  <defs>
    <style>
      .cls-1 {
        fill: #6c8ce0;
      }

      .cls-2 {
        fill: #2b6faa;
      }

      .cls-3 {
        fill: #ff978c;
      }

      .cls-4 {
        fill: none;
        stroke: #fff;
        stroke-linecap: round;
        stroke-linejoin: round;
        stroke-width: 12px;
      }

      .cls-5 {
        fill: #ff79ae;
      }

      .cls-6 {
        fill: #351751;
      }
    </style>
  </defs>
  <g id="Layer_1-2" data-name="Layer 1">
    <rect class="cls-5" x="0" width="1920" height="1080"/>
    <g>
      <path class="cls-4" d="M866.15,247.38h-233.1c-34.85,0-63.11,28.25-63.11,63.11v104.39c0,34.85,28.25,63.11,63.11,63.11h84.75v87.56l65.06-87.56h83.28c34.85,0,63.11-28.25,63.11-63.11v-104.39c0-34.85-28.26-63.11-63.11-63.11Z"/>
      <g>
        <circle class="cls-3" cx="668.18" cy="386.92" r="26.18"/>
        <circle class="cls-3" cx="749.6" cy="386.92" r="26.18"/>
        <circle class="cls-3" cx="831.02" cy="386.92" r="26.18"/>
      </g>
      <path class="cls-4" d="M1035.34,406.46h233.1c34.85,0,63.11,28.25,63.11,63.11v104.39c0,34.85-28.25,63.11-63.11,63.11h-84.75s0,87.56,0,87.56l-65.06-87.56h-83.28c-34.85,0-63.11-28.25-63.11-63.11v-104.39c0-34.85,28.26-63.11,63.11-63.11Z"/>
      <g>
        <circle class="cls-2" cx="1233.31" cy="546" r="26.18"/>
        <circle class="cls-2" cx="1151.89" cy="546" r="26.18"/>
        <circle class="cls-2" cx="1070.47" cy="546" r="26.18"/>
      </g>
      <path class="cls-4" d="M866.15,247.38h-233.1c-34.85,0-63.11,28.25-63.11,63.11v104.39c0,34.85,28.25,63.11,63.11,63.11h84.75v87.56l65.06-87.56h83.28c34.85,0,63.11-28.25,63.11-63.11v-104.39c0-34.85-28.26-63.11-63.11-63.11Z"/>
      <g>
        <circle class="cls-1" cx="668.18" cy="386.92" r="26.18"/>
        <circle class="cls-1" cx="749.6" cy="386.92" r="26.18"/>
        <circle class="cls-1" cx="831.02" cy="386.92" r="26.18"/>
      </g>
      <path class="cls-4" d="M1035.34,406.46h233.1c34.85,0,63.11,28.25,63.11,63.11v104.39c0,34.85-28.25,63.11-63.11,63.11h-84.75s0,87.56,0,87.56l-65.06-87.56h-83.28c-34.85,0-63.11-28.25-63.11-63.11v-104.39c0-34.85,28.26-63.11,63.11-63.11Z"/>
      <g>
        <circle class="cls-6" cx="1233.31" cy="546" r="26.18"/>
        <circle class="cls-6" cx="1151.89" cy="546" r="26.18"/>
        <circle class="cls-6" cx="1070.47" cy="546" r="26.18"/>
      </g>
    </g>
  </g>
</svg>