<?xml version="1.0" encoding="UTF-8" standalone="no"?>
<svg
   id="Layer_2"
   data-name="Layer 2"
   viewBox="0 0 1920 1080"
   version="1.1"
   sodipodi:docname="02_BG.svg"
   width="1920"
   height="1080"
   xmlns:inkscape="http://www.inkscape.org/namespaces/inkscape"
   xmlns:sodipodi="http://sodipodi.sourceforge.net/DTD/sodipodi-0.dtd"
   xmlns="http://www.w3.org/2000/svg"
   xmlns:svg="http://www.w3.org/2000/svg">
  <sodipodi:namedview
     id="namedview13"
     pagecolor="#ffffff"
     bordercolor="#000000"
     borderopacity="0.25"
     inkscape:showpageshadow="2"
     inkscape:pageopacity="0.0"
     inkscape:pagecheckerboard="0"
     inkscape:deskcolor="#d1d1d1" />
  <defs
     id="defs1">
    <style
       id="style1">
      .cls-1 {
        fill: #6c8ce0;
      }

      .cls-2 {
        fill: #2b6faa;
      }

      .cls-3 {
        fill: #ff978c;
      }

      .cls-4 {
        fill: none;
        stroke: #fff;
        stroke-linecap: round;
        stroke-linejoin: round;
        stroke-width: 12px;
      }

      .cls-5 {
        fill: #ff79ae;
      }

      .cls-6 {
        fill: #351751;
      }
    </style>
  </defs>
  <g
     id="Layer_1-2"
     data-name="Layer 1">
    <rect
       class="cls-5"
       x="0"
       width="1920"
       height="1080"
       id="rect1"
       y="0" />
    <g
       id="g13">
      <path
         class="cls-4"
         d="m 866.15,247.38 h -233.1 c -34.85,0 -63.11,28.25 -63.11,63.11 v 104.39 c 0,34.85 28.25,63.11 63.11,63.11 h 84.75 v 87.56 l 65.06,-87.56 h 83.28 c 34.85,0 63.11,-28.25 63.11,-63.11 V 310.49 c 0,-34.85 -28.26,-63.11 -63.11,-63.11 z"
         id="path1" />
      <g
         id="g3">
        <circle
           class="cls-3"
           cx="668.17999"
           cy="386.92001"
           r="26.18"
           id="circle1" />
        <circle
           class="cls-3"
           cx="749.59998"
           cy="386.92001"
           r="26.18"
           id="circle2" />
        <circle
           class="cls-3"
           cx="831.02002"
           cy="386.92001"
           r="26.18"
           id="circle3" />
      </g>
      <path
         class="cls-4"
         d="m 1035.34,406.46 h 233.1 c 34.85,0 63.11,28.25 63.11,63.11 v 104.39 c 0,34.85 -28.25,63.11 -63.11,63.11 h -84.75 c 0,0 0,87.56 0,87.56 l -65.06,-87.56 h -83.28 c -34.85,0 -63.11,-28.25 -63.11,-63.11 V 469.57 c 0,-34.85 28.26,-63.11 63.11,-63.11 z"
         id="path3" />
      <g
         id="g6">
        <circle
           class="cls-2"
           cx="1233.3101"
           cy="546"
           r="26.18"
           id="circle4" />
        <circle
           class="cls-2"
           cx="1151.89"
           cy="546"
           r="26.18"
           id="circle5" />
        <circle
           class="cls-2"
           cx="1070.47"
           cy="546"
           r="26.18"
           id="circle6" />
      </g>
      <path
         class="cls-4"
         d="m 866.15,247.38 h -233.1 c -34.85,0 -63.11,28.25 -63.11,63.11 v 104.39 c 0,34.85 28.25,63.11 63.11,63.11 h 84.75 v 87.56 l 65.06,-87.56 h 83.28 c 34.85,0 63.11,-28.25 63.11,-63.11 V 310.49 c 0,-34.85 -28.26,-63.11 -63.11,-63.11 z"
         id="path6" />
      <g
         id="g9">
        <circle
           class="cls-1"
           cx="668.17999"
           cy="386.92001"
           r="26.18"
           id="circle7" />
        <circle
           class="cls-1"
           cx="749.59998"
           cy="386.92001"
           r="26.18"
           id="circle8" />
        <circle
           class="cls-1"
           cx="831.02002"
           cy="386.92001"
           r="26.18"
           id="circle9" />
      </g>
      <path
         class="cls-4"
         d="m 1035.34,406.46 h 233.1 c 34.85,0 63.11,28.25 63.11,63.11 v 104.39 c 0,34.85 -28.25,63.11 -63.11,63.11 h -84.75 c 0,0 0,87.56 0,87.56 l -65.06,-87.56 h -83.28 c -34.85,0 -63.11,-28.25 -63.11,-63.11 V 469.57 c 0,-34.85 28.26,-63.11 63.11,-63.11 z"
         id="path9" />
      <g
         id="g12">
        <circle
           class="cls-6"
           cx="1233.3101"
           cy="546"
           r="26.18"
           id="circle10" />
        <circle
           class="cls-6"
           cx="1151.89"
           cy="546"
           r="26.18"
           id="circle11" />
        <circle
           class="cls-6"
           cx="1070.47"
           cy="546"
           r="26.18"
           id="circle12" />
      </g>
    </g>
  </g>
</svg>
