<?xml version="1.0" encoding="UTF-8" standalone="no"?>
<svg
   id="Layer_2"
   data-name="Layer 2"
   viewBox="0 0 1920 1080"
   version="1.1"
   sodipodi:docname="03.svg"
   width="1920"
   height="1080"
   xmlns:inkscape="http://www.inkscape.org/namespaces/inkscape"
   xmlns:sodipodi="http://sodipodi.sourceforge.net/DTD/sodipodi-0.dtd"
   xmlns:xlink="http://www.w3.org/1999/xlink"
   xmlns="http://www.w3.org/2000/svg"
   xmlns:svg="http://www.w3.org/2000/svg">
  <sodipodi:namedview
     id="namedview40"
     pagecolor="#ffffff"
     bordercolor="#000000"
     borderopacity="0.25"
     inkscape:showpageshadow="2"
     inkscape:pageopacity="0.0"
     inkscape:pagecheckerboard="0"
     inkscape:deskcolor="#d1d1d1" />
  <defs
     id="defs9">
    <style
       id="style1">
      .cls-1 {
        fill: none;
      }

      .cls-2, .cls-3 {
        fill: #38a429;
      }

      .cls-2, .cls-4, .cls-5, .cls-6, .cls-7 {
        fill-rule: evenodd;
      }

      .cls-8 {
        fill: #00afeb;
      }

      .cls-4 {
        fill: url(#Oranžová_žlutá-2);
      }

      .cls-5 {
        fill: #1a1b1f;
      }

      .cls-9 {
        clip-path: url(#clippath-1);
      }

      .cls-6 {
        fill: #218e2a;
      }

      .cls-10 {
        fill: #fff;
      }

      .cls-11 {
        fill: #5dae42;
      }

      .cls-12 {
        fill: #50a825;
      }

      .cls-13 {
        fill: #009536;
      }

      .cls-14 {
        fill: #2fbbed;
      }

      .cls-7 {
        fill: url(#Oranžová_žlutá);
      }

      .cls-15 {
        fill: #00a2e8;
      }

      .cls-16 {
        clip-path: url(#clippath);
      }

      .cls-17 {
        fill: #90bf5f;
      }
    </style>
    <clipPath
       id="clippath">
      <rect
         class="cls-1"
         x="0"
         width="1920"
         height="1080"
         id="rect1"
         y="0" />
    </clipPath>
    <clipPath
       id="clippath-1">
      <rect
         class="cls-1"
         x="-0.85000002"
         y="-334.28"
         width="1980.05"
         height="1420.72"
         id="rect2" />
    </clipPath>
    <linearGradient
       id="Oranžová_žlutá"
       data-name="Oranžová, žlutá"
       x1="1536.35"
       y1="651.94"
       x2="1536.35"
       y2="395.56"
       gradientTransform="matrix(-1,0,0,1,2528.44,0)"
       gradientUnits="userSpaceOnUse">
      <stop
         offset="0"
         stop-color="#ffeb25"
         id="stop2" />
      <stop
         offset=".02"
         stop-color="#fee41f"
         id="stop3" />
      <stop
         offset=".1"
         stop-color="#fbd20d"
         id="stop4" />
      <stop
         offset=".19"
         stop-color="#fac603"
         id="stop5" />
      <stop
         offset=".28"
         stop-color="#fac300"
         id="stop6" />
      <stop
         offset=".67"
         stop-color="#ed882b"
         id="stop7" />
      <stop
         offset=".89"
         stop-color="#e55e28"
         id="stop8" />
      <stop
         offset="1"
         stop-color="#e13126"
         id="stop9" />
    </linearGradient>
    <linearGradient
       id="Oranžová_žlutá-2"
       data-name="Oranžová, žlutá"
       x1="720.70001"
       y1="729.10999"
       x2="720.70001"
       y2="300.60001"
       xlink:href="#Oran%C5%BEov%C3%A1_%C5%BElut%C3%A1" />
    <linearGradient
       inkscape:collect="always"
       xlink:href="#Oranžová_žlutá"
       id="linearGradient40"
       gradientUnits="userSpaceOnUse"
       gradientTransform="matrix(-1,0,0,1,2528.44,0)"
       x1="1536.35"
       y1="651.94"
       x2="1536.35"
       y2="395.56" />
  </defs>
  <g
     id="Layer_1-2"
     data-name="Layer 1">
    <g
       class="cls-16"
       clip-path="url(#clippath)"
       id="g40">
      <g
         id="g39">
        <g
           class="cls-9"
           clip-path="url(#clippath-1)"
           id="g14">
          <g
             id="g13">
            <rect
               class="cls-15"
               x="-7473.1499"
               y="-660.5"
               width="11759.17"
               height="5190.1899"
               id="rect9" />
            <path
               class="cls-8"
               d="m 4117.59,1891.99 c 0,1428.8 -2502.45,2587.02 -5589.37,2587.02 -3086.93,0 -5589.37,-1158.22 -5589.37,-2587.02 0,-1428.8 2502.44,-2587.06 5589.37,-2587.06 3086.92,0 5589.37,1158.24 5589.37,2587.06 z"
               id="path9" />
            <path
               class="cls-14"
               d="m 3416.77,1563.36 c 0,1252.03 -2192.83,2266.97 -4897.85,2266.96 -2705.03,0 -4897.87,-1014.94 -4897.87,-2266.96 0,-1252.02 2192.84,-2267 4897.87,-2267 2705.03,0 4897.85,1014.97 4897.85,2267 z"
               id="path10" />
            <g
               id="g12">
              <path
                 class="cls-17"
                 d="m -1563.97,3334.8 c -296.98,0 -593.78,-13.85 -882.14,-41.16 -281.01,-26.61 -557.42,-66.33 -821.54,-118.03 -259.29,-50.76 -509.37,-113.58 -743.28,-186.73 -231.63,-72.43 -449.43,-155.6 -647.35,-247.21 -197.82,-91.56 -377.39,-192.29 -533.72,-299.4 -157.69,-108.03 -293.09,-223.49 -402.45,-343.16 -111.2,-121.69 -196.58,-248.97 -253.77,-378.32 -58.58,-132.49 -88.28,-268.82 -88.28,-405.21 0,-136.39 29.7,-272.72 88.28,-405.21 57.18,-129.35 142.56,-256.63 253.77,-378.33 109.36,-119.67 244.76,-235.13 402.45,-343.16 156.33,-107.11 335.9,-207.84 533.72,-299.4 197.92,-91.61 415.71,-174.78 647.35,-247.21 233.91,-73.14 483.99,-135.97 743.28,-186.73 264.12,-51.71 540.53,-91.42 821.54,-118.03 288.36,-27.31 585.15,-41.16 882.14,-41.16 296.99,0 593.77,13.85 882.13,41.16 281.01,26.62 557.42,66.33 821.54,118.03 259.29,50.76 509.37,113.59 743.28,186.73 231.63,72.43 449.43,155.6 647.35,247.21 197.82,91.56 377.39,192.3 533.73,299.4 157.69,108.04 293.09,223.49 402.45,343.16 111.2,121.69 196.58,248.98 253.77,378.33 58.58,132.49 88.28,268.83 88.28,405.21 0,136.38 -29.7,272.71 -88.28,405.21 -57.19,129.35 -142.57,256.63 -253.77,378.32 -109.36,119.67 -244.76,235.13 -402.45,343.16 -156.33,107.1 -335.91,207.84 -533.73,299.4 -197.92,91.6 -415.72,174.78 -647.35,247.2 -233.91,73.14 -483.99,135.97 -743.28,186.73 -264.12,51.71 -540.52,91.42 -821.54,118.03 -288.36,27.31 -585.15,41.16 -882.13,41.16 z"
                 id="path11" />
              <path
                 class="cls-12"
                 d="m -1563.97,-695.07 c 296.71,0 593.23,13.84 881.32,41.12 280.73,26.59 556.85,66.26 820.7,117.91 258.98,50.7 508.75,113.45 742.37,186.5 231.28,72.32 448.73,155.36 646.31,246.81 197.39,91.36 376.54,191.86 532.48,298.69 157.15,107.66 292.06,222.69 400.97,341.88 110.58,121.01 195.45,247.51 252.26,376.01 28.8,65.14 50.78,131.79 65.32,198.09 14.74,67.2 22.22,135.72 22.22,203.66 0,67.94 -7.48,136.46 -22.22,203.66 -14.55,66.3 -36.53,132.94 -65.32,198.08 -56.81,128.5 -141.68,255 -252.26,376.01 -108.92,119.19 -243.82,234.21 -400.97,341.87 -155.94,106.84 -335.09,207.33 -532.48,298.69 -197.58,91.45 -415.03,174.49 -646.31,246.8 -233.62,73.05 -483.38,135.8 -742.37,186.5 -263.84,51.65 -539.97,91.32 -820.7,117.91 -288.09,27.29 -584.61,41.12 -881.32,41.12 -296.71,0 -593.24,-13.84 -881.33,-41.12 -280.73,-26.59 -556.85,-66.26 -820.7,-117.91 -258.98,-50.7 -508.75,-113.45 -742.37,-186.5 -231.28,-72.32 -448.73,-155.35 -646.3,-246.8 -197.39,-91.36 -376.54,-191.85 -532.48,-298.69 -157.15,-107.66 -292.05,-222.68 -400.97,-341.87 -110.58,-121 -195.45,-247.51 -252.26,-376.01 -28.8,-65.14 -50.78,-131.79 -65.32,-198.08 -14.74,-67.2 -22.22,-135.72 -22.22,-203.66 0,-67.94 7.48,-136.46 22.22,-203.66 14.55,-66.3 36.52,-132.95 65.32,-198.09 56.81,-128.5 141.68,-255.01 252.26,-376.01 108.91,-119.19 243.82,-234.21 400.97,-341.87 155.94,-106.84 335.09,-207.33 532.48,-298.69 197.58,-91.45 415.03,-174.49 646.3,-246.81 233.62,-73.05 483.38,-135.8 742.37,-186.5 263.85,-51.65 539.97,-91.32 820.7,-117.91 288.09,-27.29 584.61,-41.12 881.33,-41.12 m 0,-17.14 c -2419.62,0 -4381.08,907.87 -4381.08,2027.8 0,1119.93 1961.46,2027.77 4381.08,2027.77 2419.62,0 4381.09,-907.85 4381.09,-2027.77 0,-1119.92 -1961.5,-2027.8 -4381.09,-2027.8 z"
                 id="path12" />
            </g>
          </g>
        </g>
        <g
           id="g15">
          <path
             class="cls-2"
             d="m 921.65,220.8 v 15.82 h -17.8 V 220.8 h -25.86 l 5.31,-15.69 19.02,-17.23 -2.23,-2.7 -11.84,5.29 4.85,-14.37 18.59,-16.83 -2.22,-2.68 -11.49,5.1 15.21,-44.95 17.6,52.04 1.61,4.7 -10.1,-4.5 -2.23,2.69 16.88,15.3 5.41,15.96 -13.01,-5.8 -2.23,2.69 20.39,18.48 -0.07,-0.33 0.96,2.83 h -26.72 z m 92.08,-131.83 21.98,64.35 1.98,5.84 -12.6,-5.56 -2.77,3.33 21.08,18.89 6.76,19.76 -16.28,-7.16 -2.78,3.31 25.49,22.85 -0.08,-0.37 1.19,3.47 H 1022 v 21.09 h -17.59 v -21.09 h -34.65 l 6.63,-19.41 23.77,-21.33 -2.77,-3.31 -14.81,6.52 6.07,-17.76 23.22,-20.81 -2.78,-3.32 -14.37,6.33 19.02,-55.61 v 0 z"
             id="path14" />
          <path
             class="cls-6"
             d="m 985,225 h -15.82 v 13.76 H 985 Z M 970.04,114.79 c -13.4,0 -24.29,10.69 -24.29,23.89 0,3.43 0.73,6.67 2.06,9.64 -5.92,3.71 -9.85,10.23 -9.85,17.66 0,8.96 5.72,16.6 13.77,19.6 -0.25,1.2 -0.4,2.45 -0.4,3.75 0,8.35 5.87,15.34 13.75,17.25 l 3.45,-10.16 1.64,-4.86 c 7.48,-22.12 14.02,-41.44 21.55,-63.69 -4.01,-7.76 -12.21,-13.07 -21.66,-13.07 z"
             id="path15" />
        </g>
        <path
           class="cls-11"
           d="M 732.63,190.57 C 171.12,197.43 71.15,466.42 -382,482.42 H 1430.39 C 1258.72,347.66 1056.63,186.63 732.63,190.57 Z"
           id="path16" />
        <g
           id="g18">
          <path
             class="cls-5"
             d="m 921.65,708.54 v 15.82 h -17.8 v -15.82 h -25.86 l 5.3,-15.69 19.02,-17.23 -2.23,-2.69 -11.84,5.3 4.85,-14.38 18.58,-16.83 -2.22,-2.68 -11.49,5.1 15.2,-44.95 17.6,52.04 1.6,4.7 -10.1,-4.5 -2.23,2.69 16.88,15.29 5.4,15.97 -13.02,-5.79 -2.22,2.68 20.39,18.48 -0.07,-0.33 0.95,2.83 h -26.72 z m 92.08,-131.83 21.98,64.35 1.97,5.84 -12.6,-5.56 -2.78,3.33 21.08,18.9 6.76,19.75 -16.28,-7.16 -2.78,3.32 25.49,22.85 -0.08,-0.37 1.19,3.47 h -35.7 v 21.09 h -17.6 v -21.09 h -34.65 l 6.62,-19.4 23.78,-21.33 -2.78,-3.31 -14.8,6.52 6.07,-17.76 23.22,-20.8 -2.78,-3.33 -14.37,6.33 19.02,-55.61 v 0 z"
             id="path17" />
          <path
             class="cls-5"
             d="m 985.01,712.74 h -15.83 v 13.76 h 15.83 z m -14.97,-110.2 c -13.4,0 -24.29,10.68 -24.29,23.88 0,3.43 0.74,6.67 2.06,9.64 -5.92,3.71 -9.85,10.23 -9.85,17.65 0,8.96 5.72,16.6 13.77,19.6 -0.25,1.21 -0.4,2.45 -0.4,3.75 0,8.35 5.87,15.34 13.75,17.24 l 3.45,-10.16 1.64,-4.86 c 7.48,-22.12 14.02,-41.44 21.55,-63.68 -4.01,-7.76 -12.21,-13.06 -21.66,-13.06 z"
             id="path18" />
        </g>
        <g
           id="g20">
          <path
             class="cls-2"
             d="m 188.48,708.54 v 15.82 h -17.8 v -15.82 h -25.87 l 5.31,-15.69 19.02,-17.23 -2.22,-2.69 -11.86,5.3 4.85,-14.38 18.59,-16.83 -2.22,-2.68 -11.48,5.1 15.2,-44.95 17.6,52.04 1.6,4.7 -10.1,-4.5 -2.22,2.68 16.88,15.29 5.39,15.97 -13.01,-5.8 -2.23,2.68 20.39,18.48 -0.06,-0.33 0.95,2.83 h -26.71 z m 92.06,-131.83 22,64.35 1.97,5.84 -12.6,-5.56 -2.78,3.33 21.09,18.9 6.75,19.75 -16.28,-7.16 -2.77,3.32 25.5,22.85 -0.08,-0.37 1.18,3.47 h -35.7 v 21.09 h -17.59 v -21.09 h -34.65 l 6.63,-19.4 23.77,-21.33 -2.78,-3.31 -14.8,6.52 6.07,-17.76 23.23,-20.8 -2.78,-3.33 -14.37,6.33 19.01,-55.61 v 0 z"
             id="path19" />
          <path
             class="cls-6"
             d="M 251.83,712.74 H 236 v 13.76 h 15.83 z m -14.97,-110.2 c -13.41,0 -24.3,10.68 -24.3,23.88 0,3.43 0.74,6.67 2.05,9.64 -5.91,3.71 -9.85,10.23 -9.85,17.65 0,8.96 5.72,16.6 13.78,19.6 -0.25,1.21 -0.4,2.45 -0.4,3.75 0,8.35 5.88,15.34 13.74,17.24 l 3.46,-10.16 1.64,-4.86 c 7.47,-22.12 14.01,-41.44 21.55,-63.68 -4.01,-7.76 -12.22,-13.06 -21.66,-13.06 z"
             id="path20" />
        </g>
        <path
           class="cls-3"
           d="m 313.42,168.08 h -0.9 l -0.74,0.74 h -19.54 l 21.18,37.65 h -0.9 l -0.74,0.74 h -30.15 v 27.8 l -1.77,1.62 h -28.54 l -1.62,-1.62 v -27.8 h -31.77 c 0.4,-2.54 7.48,-15.36 21.19,-38.39 h -21.19 v -1.62 l 47.38,-80.75 h 1.61 l 46.5,81.64 z m -93.13,-12.21 v 0.73 c 0,1.66 -2.16,6.58 -6.45,14.72 h 14.69 l 0.74,0.87 c 0.9,2.16 1.72,3.24 2.51,3.24 l -19.57,34.28 h 20.46 l 5.59,4.84 -1.62,1.62 h -21.18 v 18.84 l -1.6,1.62 h -19.59 l -1.61,-1.62 v -18.84 h -22.95 l -0.74,-0.74 15.46,-26.92 h -14.72 l -0.74,-0.88 34.28,-59.58 c 1.37,0.68 7.06,9.95 17.06,27.81 z"
           id="path21" />
        <path
           class="cls-13"
           d="m 797.58,412.45 h -0.9 l -0.74,0.74 H 776.4 l 21.18,37.66 h -0.9 l -0.74,0.74 H 765.8 v 27.8 l -1.77,1.62 h -28.54 l -1.62,-1.62 v -27.8 H 702.1 c 0.4,-2.54 7.48,-15.36 21.2,-38.39 h -21.2 v -1.62 l 47.37,-80.75 h 1.61 l 46.51,81.64 z m -93.13,-12.2 v 0.72 c 0,1.68 -2.16,6.58 -6.46,14.72 h 14.68 l 0.74,0.87 c 0.9,2.16 1.72,3.24 2.51,3.24 l -19.58,34.28 h 20.46 l 5.59,4.85 -1.62,1.61 h -21.18 v 18.84 l -1.6,1.62 h -19.6 l -1.6,-1.62 v -18.84 h -22.95 l -0.74,-0.74 15.46,-26.92 h -14.72 l -0.74,-0.87 34.28,-59.59 c 1.37,0.69 7.06,9.95 17.07,27.82 z"
           id="path22" />
        <path
           class="cls-13"
           d="m 1292.54,412.45 h -0.9 l -0.74,0.74 h -19.54 l 21.18,37.66 h -0.9 l -0.74,0.74 h -30.14 v 27.8 l -1.77,1.62 h -28.54 l -1.62,-1.62 v -27.8 h -31.77 c 0.4,-2.54 7.48,-15.36 21.2,-38.39 h -21.2 v -1.62 l 47.37,-80.75 h 1.61 l 46.51,81.64 z m -93.13,-12.2 v 0.72 c 0,1.68 -2.16,6.58 -6.46,14.72 h 14.68 l 0.74,0.87 c 0.9,2.16 1.72,3.24 2.51,3.24 l -19.58,34.28 h 20.46 l 5.59,4.85 -1.62,1.61 h -21.18 v 18.84 l -1.6,1.62 h -19.6 l -1.6,-1.62 v -18.84 h -22.95 l -0.74,-0.74 15.46,-26.92 h -14.72 l -0.74,-0.87 34.28,-59.59 c 1.37,0.69 7.06,9.95 17.07,27.82 z"
           id="path23" />
        <path
           class="cls-13"
           d="m 553.3,168.08 h -0.9 l -0.74,0.74 h -19.54 l 21.18,37.66 h -0.9 l -0.74,0.74 h -30.14 v 27.8 l -1.77,1.62 h -28.54 l -1.62,-1.62 v -27.8 h -31.77 c 0.4,-2.54 7.48,-15.36 21.2,-38.39 h -21.2 v -1.62 l 47.37,-80.75 h 1.61 l 46.51,81.64 z m -93.13,-12.2 v 0.72 c 0,1.68 -2.16,6.58 -6.46,14.72 h 14.68 l 0.74,0.87 c 0.9,2.16 1.72,3.24 2.51,3.24 l -19.58,34.28 h 20.46 l 5.59,4.85 -1.62,1.61 h -21.18 v 18.84 l -1.6,1.62 h -19.6 l -1.6,-1.62 v -18.84 h -22.95 l -0.74,-0.74 15.46,-26.92 h -14.72 l -0.74,-0.87 34.28,-59.59 c 1.37,0.69 7.06,9.95 17.07,27.82 z"
           id="path24" />
        <path
           class="cls-3"
           d="m 554.21,899.58 h -0.9 l -0.74,0.74 h -19.54 l 21.18,37.66 h -0.9 l -0.74,0.74 h -30.14 v 27.8 l -1.77,1.62 h -28.54 l -1.62,-1.62 v -27.8 h -31.77 c 0.41,-2.54 7.48,-15.36 21.2,-38.39 h -21.2 v -1.62 l 47.38,-80.75 h 1.6 l 46.51,81.64 z m -93.13,-12.21 v 0.74 c 0,1.65 -2.16,6.57 -6.46,14.72 h 14.69 l 0.74,0.87 c 0.9,2.16 1.72,3.25 2.51,3.25 l -19.57,34.27 h 20.46 l 5.59,4.84 -1.63,1.62 h -21.18 v 18.84 l -1.61,1.62 h -19.59 l -1.6,-1.62 v -18.84 h -22.95 l -0.73,-0.73 15.46,-26.92 h -14.72 l -0.73,-0.89 34.27,-59.57 c 1.37,0.67 7.06,9.95 17.07,27.81 z"
           id="path25" />
        <path
           class="cls-3"
           d="m 1512.97,658.16 h -0.9 l -0.74,0.74 h -19.54 l 21.18,37.65 h -0.9 l -0.74,0.74 h -30.14 v 27.8 l -1.78,1.62 h -28.54 l -1.62,-1.62 v -27.8 h -31.77 c 0.4,-2.54 7.48,-15.36 21.2,-38.39 h -21.2 v -1.62 l 47.38,-80.75 h 1.61 l 46.5,81.64 z m -93.12,-12.22 v 0.73 c 0,1.66 -2.16,6.57 -6.46,14.72 h 14.69 l 0.74,0.87 c 0.9,2.16 1.72,3.24 2.51,3.24 l -19.57,34.27 h 20.45 l 5.59,4.83 -1.62,1.63 H 1415 v 18.84 l -1.6,1.62 h -19.59 l -1.61,-1.62 v -18.84 h -22.95 l -0.74,-0.74 15.46,-26.92 h -14.72 l -0.74,-0.88 34.28,-59.57 c 1.37,0.67 7.06,9.95 17.07,27.8 z"
           id="path26" />
        <path
           class="cls-11"
           d="m 1625.9,693.21 c 85.19,0.98 159.76,7.61 226.55,18.21 373.43,59.28 0.33,255.41 0.33,255.41 H 928.15 C 1099.82,840.49 1301.9,689.5 1625.9,693.21 Z"
           id="path27" />
        <path
           class="cls-3"
           d="m 1768.8,170.4 h -0.9 l -0.74,0.74 h -19.54 l 21.18,37.66 h -0.9 l -0.74,0.74 h -30.14 v 27.8 l -1.78,1.62 h -28.54 l -1.62,-1.62 v -27.8 h -31.77 c 0.4,-2.54 7.48,-15.36 21.2,-38.39 h -21.2 v -1.62 l 47.37,-80.75 h 1.6 l 46.51,81.63 z m -93.12,-12.21 v 0.74 c 0,1.65 -2.16,6.57 -6.46,14.72 h 14.69 l 0.73,0.87 c 0.9,2.16 1.72,3.24 2.51,3.24 l -19.57,34.28 h 20.46 l 5.59,4.83 -1.62,1.62 h -21.18 v 18.84 l -1.6,1.62 h -19.59 l -1.61,-1.62 v -18.84 h -22.95 l -0.74,-0.74 15.46,-26.92 h -14.72 l -0.74,-0.88 34.27,-59.57 c 1.37,0.67 7.06,9.95 17.07,27.8 z"
           id="path28" />
        <path
           class="cls-3"
           d="m 1517.5,170.4 h -0.9 l -0.74,0.74 h -19.54 l 21.18,37.66 h -0.9 l -0.74,0.74 h -30.14 v 27.8 l -1.78,1.62 h -28.54 l -1.62,-1.62 v -27.8 h -31.77 c 0.4,-2.54 7.48,-15.36 21.2,-38.39 h -21.2 v -1.62 l 47.37,-80.75 h 1.6 l 46.51,81.63 z m -93.12,-12.21 v 0.74 c 0,1.65 -2.16,6.57 -6.46,14.72 h 14.69 l 0.73,0.87 c 0.9,2.16 1.72,3.24 2.51,3.24 l -19.57,34.28 h 20.46 l 5.59,4.83 -1.62,1.62 h -21.18 v 18.84 l -1.6,1.62 h -19.59 l -1.61,-1.62 v -18.84 h -22.95 l -0.74,-0.74 15.46,-26.92 h -14.72 l -0.74,-0.88 34.27,-59.57 c 1.37,0.67 7.06,9.95 17.07,27.8 z"
           id="path29" />
        <path
           class="cls-13"
           d="m 1294.37,899.58 h -0.9 l -0.73,0.74 h -19.54 l 21.18,37.66 h -0.9 l -0.73,0.74 h -30.15 v 27.8 l -1.77,1.62 h -28.54 l -1.62,-1.62 v -27.8 h -31.77 c 0.4,-2.54 7.48,-15.36 21.2,-38.39 h -21.2 v -1.62 l 47.38,-80.75 h 1.6 l 46.5,81.64 z m -93.13,-12.2 v 0.72 c 0,1.67 -2.16,6.57 -6.46,14.72 h 14.69 l 0.73,0.87 c 0.9,2.16 1.72,3.25 2.52,3.25 l -19.57,34.27 h 20.46 l 5.59,4.85 -1.62,1.61 h -21.18 v 18.84 l -1.6,1.62 h -19.59 l -1.61,-1.62 v -18.84 h -22.95 l -0.73,-0.73 15.45,-26.92 h -14.72 l -0.73,-0.87 34.28,-59.59 c 1.37,0.69 7.06,9.95 17.06,27.82 z"
           id="path30" />
        <path
           d="m 798.63,658.16 h -0.9 L 797,658.9 h -19.54 l 21.18,37.65 h -0.9 l -0.73,0.74 h -30.15 v 27.8 l -1.78,1.62 h -28.54 l -1.62,-1.62 v -27.8 h -31.77 c 0.4,-2.54 7.48,-15.36 21.2,-38.39 h -21.2 v -1.62 l 47.37,-80.75 h 1.61 l 46.5,81.64 z m -93.12,-12.22 v 0.73 c 0,1.66 -2.16,6.57 -6.46,14.72 h 14.69 l 0.73,0.87 c 0.91,2.16 1.73,3.24 2.52,3.24 l -19.57,34.27 h 20.46 l 5.59,4.83 -1.62,1.63 h -21.18 v 18.84 l -1.6,1.62 h -19.59 l -1.61,-1.62 v -18.84 h -22.95 l -0.73,-0.74 15.45,-26.92 h -14.72 l -0.73,-0.88 34.27,-59.57 c 1.38,0.67 7.07,9.95 17.07,27.8 z"
           id="path31" />
        <g
           id="g33">
          <path
             class="cls-2"
             d="m 1648.25,461.77 v 15.82 h -17.8 v -15.82 h -25.86 l 5.3,-15.69 19.02,-17.23 -2.22,-2.69 -11.84,5.3 4.85,-14.38 18.58,-16.83 -2.22,-2.68 -11.49,5.1 15.2,-44.95 17.6,52.04 1.6,4.7 -10.11,-4.5 -2.22,2.69 16.88,15.29 5.4,15.97 -13.02,-5.8 -2.22,2.68 20.39,18.48 -0.07,-0.33 0.96,2.83 h -26.72 z m 92.08,-131.84 21.98,64.35 1.97,5.84 -12.6,-5.56 -2.77,3.33 21.08,18.9 6.76,19.75 -16.28,-7.16 -2.78,3.32 25.49,22.85 -0.08,-0.37 1.19,3.47 h -35.7 v 21.09 H 1731 v -21.09 h -34.64 l 6.62,-19.4 23.78,-21.33 -2.78,-3.31 -14.8,6.52 6.07,-17.77 23.22,-20.8 -2.78,-3.33 -14.37,6.33 19.02,-55.61 v 0 z"
             id="path32" />
          <path
             class="cls-6"
             d="m 1711.61,465.96 h -15.83 v 13.76 h 15.83 z m -14.97,-110.2 c -13.4,0 -24.29,10.68 -24.29,23.88 0,3.43 0.74,6.67 2.06,9.64 -5.92,3.71 -9.85,10.23 -9.85,17.65 0,8.96 5.72,16.6 13.77,19.6 -0.25,1.21 -0.41,2.45 -0.41,3.75 0,8.35 5.87,15.34 13.75,17.24 l 3.45,-10.16 1.64,-4.86 c 7.48,-22.12 14.02,-41.43 21.55,-63.69 -4.02,-7.76 -12.21,-13.06 -21.66,-13.06 z"
             id="path33" />
        </g>
        <path
           class="cls-14"
           d="m 1583.19,1176.83 -2.09,-0.29 -3.2,-0.47 -3.46,-1 -6.83,-2.06 -13.54,-4.13 c -17.57,-6.6 -34.77,-13.6 -50.79,-22.89 -32.6,-17.68 -31.81,-103.68 -86.41,-110.64 -54.6,-6.96 -98.65,-10.41 -98.65,-10.41 l -7.45,-1 -14.89,-1.96 -29.8,-3.88 c -10,-1.34 -19.33,-1.95 -29.03,-2.95 -19.25,-1.76 -38.53,-3.53 -57.87,-5.3 -38.62,-3.27 -77.41,-5.98 -116.91,-8.67 -78.91,-5.07 -160.33,-9.11 -247.1,-11.87 -87.46,-2.83 -175.86,-7.34 -263.74,-14.04 -21.88,-1.84 -43.52,-4.25 -65.26,-6.43 -22.08,-1.9 -42.71,-4.99 -62.84,-10.35 -20.01,-5.26 -39.1,-12.75 -54.56,-23.44 -7.47,-5.54 -14,-11.72 -18.87,-18.77 -4.85,-7.06 -7.81,-15.02 -9.29,-23.57 -1.46,-8.56 -1.32,-17.73 -0.04,-27.09 1.48,-9.38 4,-18.85 7.14,-28.28 6.62,-18.85 15.58,-37.35 25.65,-55.37 20.1,-36.12 43.74,-70.51 66.04,-105.68 11.13,-17.67 22.08,-35.49 31.8,-54.47 4.87,-9.55 9.29,-19.34 13.26,-29.91 4.15,-11.54 7.44,-24.63 8.13,-37.31 0.7,-12.73 -1.31,-25.64 -6.88,-37 -5.53,-11.43 -14.6,-20.66 -24.92,-27.81 -10.33,-7.24 -22.52,-11.79 -34.46,-15.62 -5.38,-1.35 -11.08,-3.02 -16.22,-3.96 -5.13,-0.89 -10.34,-2.08 -15.36,-2.68 -20.32,-2.99 -39.86,-3.83 -58.96,-4.06 -9.57,-0.19 -18.96,0 -28.28,0.22 -8.78,0.09 -17.49,0.18 -26.13,0.26 -16.89,-0.03 -33.27,-1 -48.76,-3.03 -7.88,-0.75 -15.01,-2.71 -22.41,-3.91 -3.43,-0.97 -6.84,-1.95 -10.23,-2.92 l -5.06,-1.42 -4.51,-1.88 c -2.81,-1.25 -6.41,-2.41 -8.52,-3.61 l -6.01,-3.55 c -1.77,-1.36 -3.39,-2.78 -5.06,-4.13 -1.59,-1.44 -2.82,-3.22 -4.21,-4.77 -5.13,-6.75 -6.46,-15.45 -4.95,-23.01 l 1.42,-5.55 2.12,-5.26 c 0.64,-1.63 2.38,-4.54 3.44,-6.72 1.06,-2.36 2.54,-4.72 4.15,-7.06 5.65,-9.45 13.64,-18.38 21.24,-26.87 16.15,-16.74 34.13,-30.88 51.62,-42.79 17.66,-11.81 34.93,-21.38 50.83,-29.49 32.14,-15.76 59.04,-24.97 77.76,-30.92 0,0 2.56,-1.38 6.49,-3.22 3.94,-1.9 9.19,-4.42 14.45,-6.97 10.76,-4.58 21.52,-9.17 21.52,-9.17 -25.92,1.79 -67.45,10.77 -114.04,31.66 -23.23,10.42 -47.62,23.85 -71.05,40.56 -23.25,16.71 -46.26,36.65 -63.15,59.98 -2.27,2.85 -4.22,5.8 -5.97,8.81 -1.77,2.99 -3.95,5.94 -5.23,9.01 -1.35,2.94 -3.31,6.28 -4.24,8.91 -0.89,2.66 -2.07,5.28 -2.76,8.01 -3.16,10.81 -2.43,23.06 3.41,32.94 5.95,9.95 15.35,16.46 26.53,21.54 l 9.5,3.71 c 3.13,1.31 6.72,1.93 10.03,2.94 6.63,2.09 13.71,3.22 20.66,4.45 28.01,4.59 56.16,4.67 81.91,4.22 26.88,-0.86 51.54,-0.27 72.84,2.02 16.54,1.6 31.7,3.62 46.79,8.08 15.55,4.51 29.78,11.24 40.18,20.65 10.59,9.32 16.35,21.89 17.91,33.78 1.67,11.97 -0.19,23.19 -2.81,32.97 -2.37,8.25 -3.01,9.5 -1.83,5.23 0.89,-4.3 4.54,-14.35 4.38,-29.7 -0.02,-7.61 -1.49,-16.64 -6.08,-25.53 -4.49,-8.92 -12.33,-17.2 -22.52,-23.7 -5.01,-3.44 -10.86,-5.97 -16.89,-8.66 -3.12,-1.13 -6.3,-2.28 -9.53,-3.44 -3.21,-1.06 -6.3,-1.78 -9.54,-2.7 -12.82,-3.36 -26.07,-5.52 -40.06,-6.98 -24.84,-2.31 -52.3,-1.84 -80.87,-1.02 -27.95,0.89 -58.56,0.14 -88.95,-6.64 4.57,1.54 9.46,2.44 14.2,3.71 4.73,1.32 9.59,2.28 14.53,2.99 4.92,0.84 9.82,1.66 14.68,2.49 4.97,0.52 9.91,1.03 14.81,1.54 9.83,1.27 19.69,1.52 29.39,2.06 9.86,0.43 19.56,0.85 29.07,1.27 38.04,2.02 73.44,6.95 99.58,17.41 9.64,2.78 18.97,6.91 27.06,12.83 8.09,5.91 14.41,14.4 17.01,24.17 2.69,9.76 2,20.16 -0.15,29.97 -2.14,9.79 -5.72,19.42 -10.03,29.29 -9.45,21.48 -21.69,41.82 -34.12,61.9 -12.5,20.07 -25.54,39.83 -38.26,59.81 -12.67,20.03 -25.21,40.18 -36.41,61.26 -11.17,21.05 -21.44,42.93 -27.58,66.75 -3.04,11.88 -5.04,24.28 -4.82,37.05 0.18,12.71 2.96,25.85 8.73,37.66 11.74,23.92 33.73,40.13 55.91,50.41 22.48,10.54 45.99,16.93 69.76,21.72 5.99,1.36 11.89,2.26 17.75,2.97 l 17.66,2.42 c 11.78,1.64 23.58,3.28 35.4,4.93 17.17,2.67 39.34,5.01 63.99,7.53 24.68,2.54 51.85,5.34 78.96,8.12 54.19,5 108.13,10.42 141.23,14.59 0,0 -52.04,-4.39 -130.1,-10.98 -39.03,-3.34 -84.59,-8.03 -133.41,-12.75 -24.51,-3.02 -49.84,-6.14 -75.58,-9.3 -26.01,-3.61 -52.9,-9.72 -78.87,-19.98 -12.96,-5.46 -25.77,-12.03 -37.63,-20.82 -11.84,-8.73 -22.48,-20.39 -29.65,-34.1 -7.28,-13.69 -10.41,-29.11 -10.57,-43.5 -0.22,-14.5 2.22,-28.15 5.71,-40.84 7.02,-25.46 17.76,-47.64 28.55,-67.91 10.88,-20.27 22.15,-38.52 32.6,-55.23 21.06,-33.3 38.71,-60.4 50.04,-79.78 11.35,-19.34 16.81,-30.63 16.81,-30.63 -3.56,6.38 -7.32,12.63 -11.24,18.72 0,0 -13.34,23.11 -36.02,57.38 -11.22,17.2 -24.56,37.26 -38.22,59.59 -13.59,22.33 -27.62,46.91 -38.46,74.11 -5.37,13.6 -9.9,27.95 -12.31,43.17 -2.4,15.14 -2.48,31.41 1.51,47.02 3.87,15.62 12.01,29.82 21.62,40.67 9.59,11.09 20.51,18.49 30.49,24.84 20.33,11.83 38.09,17.91 50.38,21.51 6.17,2.01 11.02,3.22 14.33,4.02 3.31,0.83 5.07,1.28 5.07,1.28 26.19,6.32 51.01,8.24 76.99,12.45 0,0 -19.03,-2.56 -38.08,-5.12 -4.77,-0.69 -9.45,-1.17 -14.02,-1.99 -4.63,-0.94 -8.94,-1.81 -12.64,-2.55 -7.41,-1.39 -12.26,-2.78 -12.26,-2.78 -16.77,-3.63 -33.51,-8.8 -50.13,-15.61 -16.54,-6.96 -33.33,-16.12 -48.05,-30.39 -7.51,-6.86 -13.79,-15.71 -19.18,-25.03 -4.8,-9.65 -8.88,-20.08 -10.39,-30.73 -3.78,-21.4 -0.64,-42.04 4.29,-61.26 13.94,-47.33 43.59,-89.58 66.94,-126.92 19.52,-30.23 40.11,-55.74 58.12,-83.64 0,0 8.2,-13.8 14.83,-27.92 3.24,-6.96 6.35,-14.37 8.03,-19.27 1.76,-4.89 2.55,-8.08 2.55,-8.08 1.05,-5.03 1.64,-10.45 1.81,-16.02 -0.07,0.19 -0.17,0.56 -0.26,0.71 -1.03,2.79 -2.4,6.98 -4.48,12.07 -2.13,5.16 -4.8,10.69 -9.24,19.41 -8.78,16.64 -22.36,37.85 -39.59,62.26 -17.11,24.49 -37.63,52.13 -58.42,83.57 -10.37,15.76 -20.8,32.51 -30.49,50.8 -9.64,18.31 -18.57,38.36 -24.61,61.36 -2.77,11.71 -4.83,24.12 -5,37.52 0,13.46 2.05,27.78 6.93,41.64 4.88,13.95 12.96,26.52 22,37.17 4.65,5.12 9.43,10.14 14.49,14.18 4.99,4.51 10.12,7.95 15.27,11.49 20.68,13.65 41.25,21.55 60.66,27.64 9.81,3.25 19.17,5.4 28.57,7.73 9.32,1.93 18.93,4.22 26.93,5.1 33.15,4.67 63.18,9.1 87.28,11.78 23.98,2.49 42.66,4.2 54.16,4.9 36.69,2.57 71.83,2.08 107.93,1.52 36.13,-0.47 73.27,-0.7 113.8,1.52 27.1,1.53 49.72,6.33 70.66,5.19 2.19,-1.62 12.66,-2.21 23.18,-2.79 53.94,3.02 107.49,13.53 149.31,11.28 29.18,0.02 330.17,13.43 345.3,43.65 15.13,30.21 18.47,83.08 69.6,109.8 6.78,3.49 33.78,5.92 41.05,8.59 7.23,2.81 15.04,5.41 23.3,7.28 9.47,2.97 22.86,5 37.32,5.61 v -59.47 z"
           id="path34" />
        <g
           id="g36">
          <path
             class="cls-7"
             d="m 1060.71,650.41 c 14.29,-20.64 19.12,-36.57 14.75,-48.72 -6.41,-17.84 -32.08,-25.08 -56.91,-32.08 -27.6,-7.79 -56.11,-15.83 -54.7,-39.19 -39.89,27.62 -58.93,52.51 -58.2,76.05 0.05,1.51 -0.46,2.82 -1.51,3.9 -1.98,2.05 -5.87,3.13 -11.24,3.13 -18.5,0 -54.69,-13.65 -55.01,-38.68 -0.61,-49.12 46.93,-103.23 62.56,-121.02 0.97,-1.11 1.81,-2.06 2.48,-2.83 l 0.61,-0.7 21.62,17.1 c 16.04,-30.13 56.7,-65.09 109.14,-71.65 l 1.27,-0.16 -0.2,1.27 c -2.63,17.06 20.67,43.63 45.34,71.77 31.05,35.42 66.25,75.56 65.54,111.58 -0.34,17.77 -8,35.32 -21,48.15 -15.41,15.2 -37.46,23.36 -63.76,23.61 l -1.87,0.02 1.06,-1.54 z"
             id="path35"
             style="fill:url(#linearGradient40)" />
          <path
             class="cls-10"
             d="m 1034.43,396.68 c -5.96,38.68 112.15,118.37 110.87,183.47 -0.63,32.72 -26.66,70.28 -83.8,70.8 69.54,-100.44 -104.17,-64.29 -96.49,-122.52 -36.77,25.16 -61.16,51.2 -60.33,78.06 0.13,4.09 -4.69,6.03 -11.78,6.03 -18.85,0 -53.74,-13.79 -54.04,-37.72 -0.65,-51.93 53.87,-110.54 64.8,-123.2 l 21.81,17.25 c 15.9,-30.85 57.35,-65.72 108.95,-72.17 m 2.32,-2.24 -2.55,0.32 c -24.14,3.02 -47.91,12.45 -68.74,27.28 -17.58,12.51 -31.91,28.01 -40.58,43.85 l -19.99,-15.81 -1.46,-1.15 -1.21,1.41 c -0.67,0.77 -1.5,1.72 -2.47,2.83 -7.56,8.61 -23.3,26.52 -37.17,48.52 -17.27,27.4 -25.89,52.01 -25.63,73.15 0.14,11.24 7.61,21.71 21.03,29.49 10.64,6.16 24.36,10.15 34.95,10.15 3.93,0 9.19,-0.59 11.93,-3.42 1.22,-1.26 1.83,-2.85 1.78,-4.61 -0.71,-22.88 17.69,-47.15 56.21,-74.13 0.07,9.77 5.35,17.62 16.06,23.92 10.45,6.15 24.51,10.11 39.4,14.31 24.59,6.94 50.01,14.11 56.26,31.48 4.25,11.82 -0.54,27.47 -14.64,47.84 l -2.13,3.07 3.74,-0.03 c 26.56,-0.24 48.84,-8.5 64.43,-23.88 13.18,-13 20.94,-30.8 21.29,-48.82 0.71,-36.39 -34.61,-76.69 -65.78,-112.24 -24.52,-27.96 -47.67,-54.37 -45.11,-70.98 l 0.39,-2.54 v 0 z"
             id="path36" />
        </g>
        <g
           id="g38">
          <path
             class="cls-4"
             d="m 800.52,725.48 c 25.22,-26.35 37.27,-53.8 35.82,-81.59 C 834.4,606.75 809,567.65 758.7,524.44 c 0.81,16.92 -6.01,30.42 -20.77,41.18 -13.89,10.12 -32.69,16.69 -52.59,23.64 -31.85,11.13 -64.79,22.64 -75.04,49.68 -7.85,20.7 -1.77,48.47 18.59,84.88 l 1.22,2.18 -2.5,-0.03 c -35.36,-0.4 -64.99,-13.98 -85.69,-39.26 -17.39,-21.26 -27.63,-50.31 -28.09,-79.72 -0.95,-59.65 46.21,-126.26 87.82,-185.03 34.55,-48.8 64.39,-90.95 60.84,-119.45 l -0.24,-1.9 1.89,0.29 c 70.28,10.89 124.78,68.78 146.35,118.75 l 28.95,-28.35 0.98,1.4 c 0.9,1.29 2.02,2.86 3.32,4.71 11.71,16.5 39.12,55.14 59.36,100.56 25.31,56.81 31.03,104.88 16.98,142.88 -15.51,41.98 -55.27,71.27 -118.17,87.05 l -4.86,1.22 3.47,-3.62 z"
             id="path37"
             style="fill:url(#Oran%C5%BEov%C3%A1_%C5%BElut%C3%A1-2)" />
          <path
             class="cls-10"
             d="m 663.92,302.32 c 69.18,10.71 124.75,68.62 146.07,119.83 l 29.24,-28.64 c 23.94,34.36 203.9,272.36 -37.67,332.97 68.71,-71.78 32.19,-140.35 -44.57,-205.39 10.3,96.68 -222.59,36.67 -129.36,203.44 -76.6,-0.87 -111.5,-63.23 -112.35,-117.56 -1.72,-108.1 156.64,-240.42 148.65,-304.64 m -3.35,-3.45 0.47,3.8 c 1.57,12.64 -3.51,28.91 -15.99,51.21 -11.37,20.3 -27.51,43.1 -44.59,67.23 -41.73,58.95 -89.04,125.77 -88.08,185.89 0.46,29.73 10.82,59.11 28.42,80.62 20.97,25.63 50.98,39.39 86.79,39.79 l 4.99,0.06 -2.44,-4.36 c -20.14,-36.02 -26.19,-63.39 -18.5,-83.66 10.01,-26.41 42.63,-37.8 74.17,-48.82 20.01,-6.99 38.9,-13.59 52.96,-23.84 14.23,-10.37 21.28,-23.22 21.43,-39.13 48.36,42.1 72.8,80.18 74.69,116.31 0.7,13.36 -1.75,26.7 -7.28,39.67 -5.84,13.7 -15.31,27.44 -28.14,40.84 l -6.93,7.24 9.72,-2.44 c 63.39,-15.9 103.49,-45.49 119.17,-87.95 14.18,-38.37 8.45,-86.81 -17.02,-143.97 -20.3,-45.55 -47.77,-84.27 -59.5,-100.81 -1.3,-1.84 -2.42,-3.41 -3.32,-4.7 l -1.95,-2.8 -2.44,2.39 -26.23,25.7 c -11.63,-26.09 -30.73,-51.61 -54.16,-72.26 -28,-24.68 -59.97,-40.39 -92.45,-45.42 l -3.78,-0.59 v 0 z"
             id="path38" />
        </g>
      </g>
    </g>
  </g>
</svg>
