<?xml version="1.0" encoding="UTF-8" standalone="no"?>
<svg
   id="Layer_2"
   data-name="Layer 2"
   viewBox="0 0 1920.0001 1080"
   version="1.1"
   sodipodi:docname="04.svg"
   width="1920"
   height="1080"
   xmlns:inkscape="http://www.inkscape.org/namespaces/inkscape"
   xmlns:sodipodi="http://sodipodi.sourceforge.net/DTD/sodipodi-0.dtd"
   xmlns:xlink="http://www.w3.org/1999/xlink"
   xmlns="http://www.w3.org/2000/svg"
   xmlns:svg="http://www.w3.org/2000/svg">
  <sodipodi:namedview
     id="namedview95"
     pagecolor="#ffffff"
     bordercolor="#000000"
     borderopacity="0.25"
     inkscape:showpageshadow="2"
     inkscape:pageopacity="0.0"
     inkscape:pagecheckerboard="0"
     inkscape:deskcolor="#d1d1d1" />
  <defs
     id="defs14">
    <style
       id="style1">
      .cls-1 {
        fill: #b37d4f;
      }

      .cls-1, .cls-2, .cls-3, .cls-4, .cls-5, .cls-6, .cls-7, .cls-8, .cls-9, .cls-10, .cls-11, .cls-12, .cls-13, .cls-14, .cls-15, .cls-16, .cls-17, .cls-18, .cls-19 {
        fill-rule: evenodd;
      }

      .cls-20 {
        fill: none;
      }

      .cls-2 {
        fill: url(#radial-gradient);
      }

      .cls-3, .cls-21 {
        fill: #807f81;
      }

      .cls-4, .cls-22 {
        fill: #38a429;
      }

      .cls-5, .cls-23 {
        fill: #009536;
      }

      .cls-6 {
        fill: #df2329;
      }

      .cls-7 {
        fill: #c1c2c5;
      }

      .cls-24 {
        fill: url(#linear-gradient);
      }

      .cls-25 {
        fill: #00afeb;
      }

      .cls-8 {
        fill: url(#Oranžová_žlutá-3);
      }

      .cls-9 {
        fill: url(#Oranžová_žlutá-2);
      }

      .cls-10 {
        fill: #c6b595;
      }

      .cls-26, .cls-12 {
        fill: #b6ccd3;
      }

      .cls-27 {
        clip-path: url(#clippath-1);
      }

      .cls-11 {
        fill: #218e2a;
      }

      .cls-28 {
        fill: #5dae42;
      }

      .cls-29 {
        fill: #50a825;
      }

      .cls-30 {
        fill: #2fbbed;
      }

      .cls-13 {
        fill: #7c461a;
      }

      .cls-14 {
        fill: #ffec00;
      }

      .cls-31 {
        fill: #7a6356;
      }

      .cls-32 {
        fill: #6bb24d;
      }

      .cls-15 {
        fill: url(#radial-gradient-3);
      }

      .cls-16 {
        fill: url(#radial-gradient-2);
      }

      .cls-17 {
        fill: #e5e5e5;
      }

      .cls-18 {
        fill: url(#Oranžová_žlutá);
      }

      .cls-33 {
        fill: #00a2e8;
      }

      .cls-19 {
        fill: #f5ad2b;
      }

      .cls-34 {
        clip-path: url(#clippath);
      }

      .cls-35 {
        fill: #90bf5f;
      }
    </style>
    <clipPath
       id="clippath">
      <rect
         class="cls-20"
         x="5544.8198"
         y="1599.71"
         width="1920"
         height="1080"
         id="rect1" />
    </clipPath>
    <clipPath
       id="clippath-1">
      <rect
         class="cls-20"
         x="5543.0698"
         y="1375.21"
         width="1978.5"
         height="1422"
         id="rect2" />
    </clipPath>
    <linearGradient
       id="linear-gradient"
       x1="4362.4102"
       y1="1210.5601"
       x2="4362.4102"
       y2="0"
       gradientUnits="userSpaceOnUse">
      <stop
         offset="0"
         stop-color="#b9e2f6"
         id="stop2" />
      <stop
         offset="1"
         stop-color="#00b3eb"
         id="stop3" />
    </linearGradient>
    <radialGradient
       id="radial-gradient"
       cx="19907.75"
       cy="548.95001"
       fx="19907.75"
       fy="548.95001"
       r="55.630001"
       gradientTransform="matrix(0.89,0,0,0.89,-11364.6,1534.36)"
       gradientUnits="userSpaceOnUse">
      <stop
         offset=".43"
         stop-color="#fff"
         id="stop4" />
      <stop
         offset=".74"
         stop-color="#ffea00"
         id="stop5" />
      <stop
         offset="1"
         stop-color="#ef8b00"
         id="stop6" />
    </radialGradient>
    <linearGradient
       id="Oranžová_žlutá"
       data-name="Oranžová, žlutá"
       x1="6115.3398"
       y1="2361.6599"
       x2="6115.3398"
       y2="2340.55"
       gradientTransform="matrix(1.1,0,0,1.1,-482.99,-576.48)"
       gradientUnits="userSpaceOnUse">
      <stop
         offset="0"
         stop-color="#ffeb25"
         id="stop7" />
      <stop
         offset=".02"
         stop-color="#fee41f"
         id="stop8" />
      <stop
         offset=".1"
         stop-color="#fbd20d"
         id="stop9" />
      <stop
         offset=".19"
         stop-color="#fac603"
         id="stop10" />
      <stop
         offset=".28"
         stop-color="#fac300"
         id="stop11" />
      <stop
         offset=".67"
         stop-color="#ed882b"
         id="stop12" />
      <stop
         offset=".89"
         stop-color="#e55e28"
         id="stop13" />
      <stop
         offset="1"
         stop-color="#e13126"
         id="stop14" />
    </linearGradient>
    <radialGradient
       id="radial-gradient-2"
       cx="20307.85"
       cy="751.48999"
       fx="20307.85"
       fy="751.48999"
       r="55.630001"
       xlink:href="#radial-gradient" />
    <linearGradient
       id="Oranžová_žlutá-2"
       data-name="Oranžová, žlutá"
       x1="6436.4102"
       y1="2524.1799"
       x2="6436.4102"
       y2="2503.0801"
       xlink:href="#Oran%C5%BEov%C3%A1_%C5%BElut%C3%A1" />
    <radialGradient
       id="radial-gradient-3"
       cx="20511.461"
       cy="548.46002"
       fx="20511.461"
       fy="548.46002"
       r="55.639999"
       xlink:href="#radial-gradient" />
    <linearGradient
       id="Oranžová_žlutá-3"
       data-name="Oranžová, žlutá"
       x1="6599.7998"
       y1="2361.3"
       x2="6599.7998"
       y2="2340.1899"
       xlink:href="#Oran%C5%BEov%C3%A1_%C5%BElut%C3%A1" />
    <radialGradient
       inkscape:collect="always"
       xlink:href="#radial-gradient"
       id="radialGradient95"
       gradientUnits="userSpaceOnUse"
       gradientTransform="matrix(0.89,0,0,0.89,-11364.6,1534.36)"
       cx="19907.75"
       cy="548.95001"
       fx="19907.75"
       fy="548.95001"
       r="55.630001" />
    <linearGradient
       inkscape:collect="always"
       xlink:href="#Oranžová_žlutá"
       id="linearGradient95"
       gradientUnits="userSpaceOnUse"
       gradientTransform="matrix(1.1,0,0,1.1,-482.99,-576.48)"
       x1="6115.3398"
       y1="2361.6599"
       x2="6115.3398"
       y2="2340.55" />
  </defs>
  <g
     id="Layer_1-2"
     data-name="Layer 1"
     transform="translate(-5544.8198,-1599.71)">
    <g
       class="cls-34"
       clip-path="url(#clippath)"
       id="g95">
      <g
         id="g94">
        <g
           class="cls-27"
           clip-path="url(#clippath-1)"
           id="g20">
          <g
             id="g19">
            <rect
               class="cls-24"
               x="0"
               y="0"
               width="8724.8096"
               height="1210.5601"
               id="rect14"
               style="fill:url(#linear-gradient)" />
            <rect
               class="cls-33"
               x="0"
               y="1210.55"
               width="8724.8096"
               height="3850.9099"
               id="rect15" />
            <path
               class="cls-25"
               d="m 8599.85,3104.39 c 0,1060.11 -1856.71,1919.46 -4147.08,1919.46 -2290.38,0 -4147.08,-859.35 -4147.08,-1919.46 0,-1060.11 1856.71,-1919.49 4147.08,-1919.49 2290.37,0 4147.08,859.37 4147.08,1919.49 z"
               id="path15" />
            <path
               class="cls-30"
               d="m 8079.87,2860.57 c 0,928.95 -1626.99,1682 -3634,1681.99 -2007.02,0 -3634.02,-753.04 -3634.02,-1681.99 0,-928.95 1627,-1682.02 3634.02,-1682.02 2007.02,0 3634,753.06 3634,1682.02 z"
               id="path16" />
            <g
               id="g18">
              <path
                 class="cls-35"
                 d="m 4384.37,4174.9 c -438.42,0 -863.71,-39.74 -1264.06,-118.11 -192.38,-37.66 -377.93,-84.27 -551.48,-138.54 -171.86,-53.74 -333.46,-115.45 -480.3,-183.42 -146.77,-67.93 -280.01,-142.67 -396,-222.14 -117,-80.16 -217.46,-165.82 -298.6,-254.61 -82.51,-90.29 -145.86,-184.73 -188.29,-280.7 -43.46,-98.3 -65.5,-199.46 -65.5,-300.65 0,-101.19 22.04,-202.34 65.5,-300.65 42.43,-95.97 105.78,-190.41 188.28,-280.7 81.14,-88.79 181.6,-174.46 298.6,-254.61 115.99,-79.47 249.23,-154.21 396,-222.14 146.85,-67.97 308.44,-129.68 480.3,-183.42 173.55,-54.27 359.1,-100.88 551.48,-138.55 400.35,-78.38 825.64,-118.11 1264.06,-118.11 438.42,0 863.7,39.74 1264.05,118.11 192.38,37.66 377.93,84.28 551.48,138.55 171.86,53.74 333.46,115.45 480.3,183.42 146.77,67.94 280.01,142.67 396,222.14 117,80.16 217.46,165.82 298.6,254.61 82.51,90.29 145.86,184.73 188.29,280.7 43.46,98.31 65.5,199.46 65.5,300.65 0,101.19 -22.04,202.34 -65.5,300.65 -42.43,95.97 -105.78,190.41 -188.29,280.7 -81.14,88.79 -181.6,174.45 -298.6,254.61 -115.99,79.47 -249.23,154.21 -396,222.14 -146.85,67.97 -308.44,129.68 -480.3,183.42 -173.55,54.27 -359.1,100.88 -551.48,138.54 -400.34,78.37 -825.63,118.11 -1264.05,118.11 z"
                 id="path17" />
              <path
                 class="cls-29"
                 d="m 4384.37,1184.9 c 220.15,0 440.15,10.26 653.9,30.51 208.29,19.73 413.16,49.16 608.92,87.49 192.16,37.62 377.47,84.17 550.81,138.37 171.6,53.66 332.94,115.27 479.53,183.12 146.45,67.79 279.38,142.35 395.08,221.62 116.6,79.88 216.69,165.22 297.5,253.66 82.04,89.78 145.02,183.65 187.17,278.98 43.1,97.49 64.96,197.78 64.96,298.08 0,100.3 -21.85,200.59 -64.96,298.08 -42.15,95.34 -105.12,189.2 -187.17,278.98 -80.81,88.43 -180.91,173.77 -297.5,253.65 -115.7,79.27 -248.62,153.83 -395.08,221.61 -146.6,67.85 -307.93,129.46 -479.53,183.12 -173.33,54.2 -358.65,100.75 -550.81,138.37 -195.76,38.32 -400.63,67.76 -608.92,87.48 -213.75,20.24 -433.76,30.51 -653.9,30.51 -220.14,0 -440.16,-10.26 -653.91,-30.51 -208.29,-19.73 -413.16,-49.16 -608.93,-87.48 -192.16,-37.62 -377.47,-84.17 -550.81,-138.37 -171.6,-53.66 -332.94,-115.27 -479.53,-183.12 -146.45,-67.78 -279.38,-142.35 -395.08,-221.61 -116.6,-79.88 -216.69,-165.22 -297.5,-253.65 -82.04,-89.78 -145.01,-183.64 -187.16,-278.98 -43.1,-97.49 -64.95,-197.78 -64.95,-298.08 0,-100.3 21.85,-200.59 64.95,-298.08 42.15,-95.34 105.12,-189.2 187.16,-278.98 80.81,-88.43 180.9,-173.77 297.5,-253.66 115.7,-79.27 248.62,-153.83 395.08,-221.62 146.6,-67.85 307.93,-129.46 479.53,-183.12 173.33,-54.2 358.65,-100.76 550.81,-138.37 195.76,-38.32 400.63,-67.76 608.93,-87.49 213.75,-20.24 433.76,-30.51 653.91,-30.51 m 0,-12.71 c -1795.26,0 -3250.58,673.6 -3250.58,1504.54 0,830.94 1455.33,1504.52 3250.58,1504.52 1795.25,0 3250.58,-673.58 3250.58,-1504.52 0,-830.94 -1455.34,-1504.54 -3250.58,-1504.54 z"
                 id="path18" />
            </g>
          </g>
        </g>
        <path
           class="cls-32"
           d="m 5649.81,1385.31 c 253.9,3.15 299.12,126.25 504.04,133.56 h -819.57 c 77.62,-61.67 169.01,-135.36 315.53,-133.56 z"
           id="path20" />
        <path
           class="cls-32"
           d="m 6038.24,1562.21 c -298.49,3.15 -351.64,126.25 -592.53,133.56 h 963.46 c -91.26,-61.67 -198.69,-135.36 -370.93,-133.56 z"
           id="path21" />
        <path
           class="cls-32"
           d="m 7180.06,2646.35 c -298.5,3.15 -351.64,126.25 -592.53,133.56 H 7551 c -91.26,-61.67 -198.69,-135.36 -370.93,-133.56 z"
           id="path22" />
        <path
           class="cls-32"
           d="m 6192.17,2500.62 c -249.6,2.33 -294.05,93.54 -495.48,98.95 h 805.65 c -76.32,-45.69 -166.15,-100.29 -310.18,-98.95 z"
           id="path23" />
        <path
           class="cls-28"
           d="m 6088.35,1842.01 c -416.62,5.09 -490.79,204.67 -827.01,216.54 h 1344.72 c -127.37,-99.99 -277.32,-219.47 -517.71,-216.54 z"
           id="path24" />
        <g
           id="g26">
          <path
             class="cls-4"
             d="m 6406.44,1681.85 v 11.74 h -13.21 v -11.74 h -19.19 l 3.94,-11.64 14.11,-12.78 -1.65,-2 -8.79,3.92 3.6,-10.66 13.79,-12.49 -1.65,-1.99 -8.53,3.79 11.28,-33.35 13.06,38.61 1.19,3.49 -7.5,-3.34 -1.65,1.99 12.52,11.35 4.01,11.84 -9.65,-4.3 -1.65,1.99 15.13,13.71 -0.05,-0.24 0.71,2.1 z m 68.31,-97.81 16.31,47.74 1.47,4.33 -9.35,-4.13 -2.06,2.47 15.64,14.02 5.01,14.66 -12.08,-5.31 -2.06,2.46 18.91,16.95 -0.06,-0.28 0.88,2.58 h -26.49 v 15.65 h -13.06 v -15.65 h -25.71 l 4.92,-14.4 17.64,-15.83 -2.06,-2.46 -10.99,4.84 4.51,-13.18 17.23,-15.44 -2.06,-2.46 -10.66,4.7 14.11,-41.26 v 0 z"
             id="path25" />
          <path
             class="cls-11"
             d="m 6453.44,1684.97 h -11.74 v 10.21 h 11.74 z m -11.11,-81.77 c -9.94,0 -18.02,7.93 -18.02,17.72 0,2.54 0.54,4.95 1.53,7.15 -4.39,2.76 -7.31,7.59 -7.31,13.1 0,6.65 4.25,12.32 10.21,14.54 -0.18,0.89 -0.3,1.82 -0.3,2.78 0,6.19 4.36,11.38 10.2,12.8 l 2.56,-7.54 1.21,-3.6 c 5.55,-16.42 10.4,-30.74 15.99,-47.25 -2.98,-5.76 -9.06,-9.69 -16.07,-9.69 z"
             id="path26" />
        </g>
        <path
           class="cls-22"
           d="m 7031.68,2006.2 h -0.67 l -0.54,0.55 h -14.5 l 15.72,27.94 h -0.67 l -0.54,0.55 h -22.37 v 20.63 l -1.32,1.2 h -21.17 l -1.21,-1.2 v -20.63 h -23.57 c 0.3,-1.89 5.55,-11.39 15.73,-28.49 h -15.73 v -1.2 l 35.15,-59.91 h 1.19 l 34.51,60.57 z m -69.1,-9.06 v 0.54 c 0,1.23 -1.6,4.88 -4.79,10.92 h 10.9 l 0.55,0.64 c 0.67,1.6 1.28,2.41 1.86,2.41 l -14.52,25.43 h 15.18 l 4.15,3.59 -1.2,1.2 h -15.72 v 13.98 l -1.19,1.2 h -14.53 l -1.19,-1.2 v -13.98 h -17.03 l -0.55,-0.55 11.47,-19.97 h -10.92 l -0.55,-0.66 25.43,-44.2 c 1.02,0.5 5.24,7.39 12.66,20.63 z"
           id="path27" />
        <g
           id="g29">
          <path
             class="cls-4"
             d="m 6228.6,2226.32 v 11.74 h -13.2 v -11.74 h -19.19 l 3.93,-11.65 14.11,-12.79 -1.65,-2 -8.79,3.93 3.6,-10.67 13.79,-12.48 -1.65,-1.99 -8.52,3.78 11.28,-33.35 13.06,38.61 1.19,3.49 -7.5,-3.34 -1.65,1.99 12.52,11.34 4.01,11.85 -9.66,-4.3 -1.65,1.99 15.13,13.71 -0.05,-0.24 0.71,2.1 h -19.82 z m 68.31,-97.81 16.31,47.74 1.46,4.33 -9.35,-4.13 -2.06,2.47 15.64,14.03 5.01,14.65 -12.08,-5.31 -2.06,2.46 18.91,16.95 -0.06,-0.28 0.88,2.57 h -26.49 v 15.65 h -13.06 v -15.65 h -25.71 l 4.91,-14.39 17.64,-15.83 -2.06,-2.46 -10.98,4.84 4.5,-13.18 17.23,-15.44 -2.06,-2.47 -10.66,4.7 14.11,-41.26 v 0 z"
             id="path28" />
          <path
             class="cls-11"
             d="m 6275.6,2229.43 h -11.74 v 10.21 h 11.74 z m -11.11,-81.76 c -9.94,0 -18.02,7.93 -18.02,17.72 0,2.54 0.55,4.95 1.53,7.15 -4.39,2.75 -7.31,7.59 -7.31,13.1 0,6.65 4.24,12.32 10.21,14.54 -0.19,0.89 -0.3,1.82 -0.3,2.78 0,6.19 4.36,11.38 10.2,12.8 l 2.56,-7.54 1.22,-3.61 c 5.55,-16.41 10.4,-30.74 15.99,-47.25 -2.98,-5.76 -9.06,-9.69 -16.07,-9.69 z"
             id="path29" />
        </g>
        <g
           id="g31">
          <path
             class="cls-4"
             d="m 5684.61,2226.32 v 11.74 h -13.21 v -11.74 h -19.2 l 3.94,-11.65 14.11,-12.79 -1.64,-2 -8.8,3.93 3.6,-10.67 13.79,-12.48 -1.65,-1.99 -8.52,3.78 11.28,-33.35 13.06,38.61 1.19,3.49 -7.49,-3.34 -1.65,1.99 12.53,11.34 4,11.85 -9.65,-4.3 -1.66,1.99 15.13,13.71 -0.04,-0.24 0.7,2.1 h -19.82 z m 68.31,-97.81 16.32,47.74 1.46,4.33 -9.35,-4.13 -2.07,2.47 15.64,14.03 5.01,14.65 -12.08,-5.31 -2.05,2.46 18.91,16.95 -0.06,-0.28 0.87,2.57 h -26.48 v 15.65 h -13.05 v -15.65 h -25.71 l 4.92,-14.39 17.64,-15.83 -2.06,-2.46 -10.98,4.84 4.5,-13.18 17.23,-15.44 -2.06,-2.47 -10.66,4.7 14.11,-41.26 v 0 z"
             id="path30" />
          <path
             class="cls-11"
             d="m 5731.62,2229.43 h -11.74 v 10.21 h 11.74 z m -11.11,-81.76 c -9.95,0 -18.03,7.93 -18.03,17.72 0,2.54 0.55,4.95 1.52,7.15 -4.39,2.75 -7.31,7.59 -7.31,13.1 0,6.65 4.25,12.32 10.22,14.54 -0.19,0.89 -0.3,1.82 -0.3,2.78 0,6.19 4.36,11.38 10.19,12.8 l 2.56,-7.54 1.22,-3.61 c 5.54,-16.41 10.4,-30.74 15.99,-47.25 -2.98,-5.76 -9.07,-9.69 -16.07,-9.69 z"
             id="path31" />
        </g>
        <g
           id="g33">
          <path
             class="cls-4"
             d="m 5684.61,2586.25 v 11.74 h -13.21 v -11.74 h -19.2 l 3.94,-11.65 14.11,-12.78 -1.64,-2 -8.8,3.93 3.6,-10.67 13.79,-12.49 -1.65,-1.99 -8.52,3.79 11.28,-33.35 13.06,38.61 1.19,3.49 -7.49,-3.34 -1.65,1.99 12.53,11.34 4,11.85 -9.65,-4.3 -1.66,1.99 15.13,13.71 -0.04,-0.24 0.7,2.1 h -19.82 z m 68.31,-97.82 16.32,47.74 1.46,4.33 -9.35,-4.13 -2.07,2.47 15.64,14.03 5.01,14.65 -12.08,-5.31 -2.05,2.46 18.91,16.96 -0.06,-0.28 0.87,2.58 h -26.48 v 15.64 h -13.05 v -15.64 h -25.71 l 4.92,-14.4 17.64,-15.83 -2.06,-2.46 -10.98,4.84 4.5,-13.18 17.23,-15.43 -2.06,-2.47 -10.66,4.7 14.11,-41.26 v 0 z"
             id="path32" />
          <path
             class="cls-11"
             d="m 5731.62,2589.36 h -11.74 v 10.21 h 11.74 z m -11.11,-81.76 c -9.95,0 -18.03,7.92 -18.03,17.72 0,2.55 0.55,4.95 1.52,7.15 -4.39,2.76 -7.31,7.59 -7.31,13.1 0,6.65 4.25,12.32 10.22,14.54 -0.19,0.89 -0.3,1.82 -0.3,2.78 0,6.2 4.36,11.38 10.19,12.8 l 2.56,-7.54 1.22,-3.6 c 5.54,-16.42 10.4,-30.74 15.99,-47.25 -2.98,-5.76 -9.07,-9.69 -16.07,-9.69 z"
             id="path33" />
        </g>
        <g
           id="g35">
          <path
             class="cls-5"
             d="m 5687.4,1681.7 v 11.74 h -13.2 v -11.74 h -19.19 l 3.93,-11.64 14.11,-12.78 -1.65,-2 -8.79,3.92 3.6,-10.66 13.79,-12.49 -1.65,-1.99 -8.53,3.78 11.28,-33.35 13.06,38.61 1.19,3.49 -7.5,-3.34 -1.65,1.99 12.52,11.34 4.01,11.85 -9.66,-4.3 -1.65,1.99 15.13,13.71 -0.05,-0.24 0.71,2.1 h -19.82 z m 68.31,-97.81 16.31,47.74 1.47,4.33 -9.35,-4.13 -2.06,2.47 15.64,14.02 5.02,14.66 -12.08,-5.31 -2.06,2.46 18.92,16.95 -0.06,-0.28 0.88,2.57 h -26.49 v 15.65 h -13.06 v -15.65 h -25.71 l 4.92,-14.4 17.64,-15.83 -2.06,-2.46 -10.98,4.84 4.5,-13.18 17.23,-15.44 -2.06,-2.46 -10.66,4.7 14.11,-41.26 v 0 z"
             id="path34" />
          <path
             class="cls-5"
             d="m 5734.4,1684.82 h -11.74 v 10.21 h 11.74 z m -11.11,-81.77 c -9.94,0 -18.02,7.93 -18.02,17.73 0,2.54 0.54,4.95 1.53,7.15 -4.39,2.75 -7.31,7.59 -7.31,13.1 0,6.65 4.24,12.32 10.21,14.54 -0.19,0.89 -0.3,1.82 -0.3,2.78 0,6.19 4.35,11.38 10.2,12.8 l 2.56,-7.54 1.22,-3.61 c 5.55,-16.41 10.4,-30.74 15.99,-47.25 -2.98,-5.76 -9.06,-9.69 -16.07,-9.69 z"
             id="path35" />
        </g>
        <path
           class="cls-23"
           d="m 6319.87,1644.32 h -0.66 l -0.55,0.54 h -14.49 l 15.71,27.94 h -0.66 l -0.55,0.55 h -22.37 v 20.63 l -1.31,1.2 h -21.17 c 0,0 -1.2,-1.21 -1.2,-1.21 v -20.63 h -23.58 c 0.3,-1.89 5.55,-11.39 15.73,-28.48 h -15.73 v -1.2 l 35.15,-59.91 h 1.19 l 34.51,60.58 z m -69.1,-9.06 v 0.54 c 0,1.24 -1.6,4.88 -4.8,10.92 h 10.9 l 0.54,0.65 c 0.68,1.6 1.28,2.41 1.87,2.41 l -14.52,25.43 h 15.18 l 4.14,3.59 -1.2,1.2 h -15.71 v 13.98 l -1.2,1.2 h -14.52 l -1.19,-1.2 V 1680 h -17.03 l -0.55,-0.55 11.48,-19.97 h -10.93 l -0.55,-0.65 25.43,-44.21 c 1.02,0.5 5.24,7.39 12.66,20.63 z"
           id="path36" />
        <path
           class="cls-22"
           d="m 5777.31,1825.32 h -0.67 l -0.55,0.55 h -14.5 l 15.71,27.94 h -0.67 l -0.55,0.55 h -22.37 v 20.63 l -1.31,1.2 h -21.17 l -1.2,-1.2 v -20.63 h -23.57 c 0.3,-1.89 5.55,-11.39 15.72,-28.48 h -15.72 v -1.2 l 35.15,-59.91 h 1.19 l 34.5,60.57 z m -69.1,-9.05 v 0.54 c 0,1.23 -1.6,4.88 -4.79,10.92 h 10.9 l 0.55,0.65 c 0.67,1.6 1.28,2.41 1.86,2.41 l -14.52,25.43 h 15.18 l 4.14,3.59 -1.2,1.2 h -15.71 v 13.98 l -1.19,1.2 h -14.53 l -1.19,-1.2 v -13.98 h -17.03 l -0.55,-0.55 11.47,-19.97 h -10.92 l -0.55,-0.65 25.43,-44.2 c 1.02,0.5 5.24,7.38 12.66,20.63 z"
           id="path37" />
        <path
           class="cls-23"
           d="m 6136.54,2006.64 h -0.67 l -0.54,0.55 h -14.5 l 15.71,27.94 h -0.67 l -0.54,0.55 h -22.37 v 20.63 l -1.31,1.2 h -21.18 l -1.21,-1.2 v -20.63 h -23.57 c 0.3,-1.89 5.55,-11.39 15.72,-28.49 h -15.72 v -1.2 l 35.15,-59.91 h 1.19 l 34.5,60.57 z m -69.1,-9.05 v 0.53 c 0,1.24 -1.6,4.88 -4.79,10.92 h 10.9 l 0.55,0.65 c 0.67,1.6 1.28,2.41 1.86,2.41 l -14.52,25.43 h 15.18 l 4.15,3.6 -1.2,1.19 h -15.71 v 13.98 l -1.19,1.2 h -14.54 l -1.19,-1.2 v -13.98 h -17.03 l -0.55,-0.55 11.47,-19.97 h -10.92 l -0.55,-0.65 25.43,-44.21 c 1.02,0.51 5.24,7.39 12.66,20.64 z"
           id="path38" />
        <g
           id="g47">
          <g
             id="g40">
            <path
               class="cls-1"
               d="m 6413.27,1870.93 c 7.33,0.07 14.65,0.39 21.98,0.99 l 3.5,0.3 c 4.23,0.4 8.45,0.88 12.68,1.45 v 4.23 h -81.15 v -4.23 c 4.07,-0.56 8.14,-1.03 12.2,-1.42 l 3.5,-0.31 c 7.94,-0.66 15.86,-1 23.79,-1.04 h 3.5 z"
               id="path39" />
            <path
               class="cls-14"
               d="m 6435.24,1871.92 v -21.41 c -4.86,-0.55 -6.42,-3.76 -5.77,-9.43 3.96,-0.08 6.39,2.09 7.53,5.15 1.15,-3.06 3.58,-5.23 7.54,-5.15 0.65,5.68 -0.91,8.89 -5.8,9.43 v 21.7 l -3.5,-0.3 z m -25.48,-1 v -20.36 0 c -7.37,-0.49 -9.71,-4.97 -8.77,-13.1 5.48,-0.12 8.82,2.88 10.41,7.12 1.59,-4.24 4.95,-7.24 10.42,-7.12 0.93,8.05 -1.37,12.52 -8.56,13.09 v 20.39 h -3.5 z m -27.29,1.34 v -21.75 c -4.87,-0.55 -6.41,-3.76 -5.77,-9.43 3.97,-0.08 6.39,2.09 7.54,5.15 1.15,-3.06 3.58,-5.23 7.53,-5.15 0.65,5.68 -0.9,8.89 -5.8,9.43 v 21.43 l -3.5,0.31 z m 6.38,-51.08 v -10.53 h 2.63 v 10.53 z m -3.97,0 v -12.7 h 2.62 v 12.7 z m -8.03,0 v -10.53 h 2.64 v 10.53 z m 4.04,0 v -12.7 h 2.63 v 12.7 z m 3.35,10.66 c -6.26,0.06 -8.27,-3.21 -7.54,-9.51 3.97,-0.09 6.39,2.08 7.54,5.14 1.15,-3.07 3.58,-5.24 7.53,-5.14 0.73,6.3 -1.27,9.56 -7.53,9.51 z m 0,9.57 c 6.26,0.06 8.26,-3.22 7.53,-9.51 -3.96,-0.08 -6.38,2.09 -7.53,5.16 -1.15,-3.07 -3.57,-5.24 -7.54,-5.16 -0.73,6.3 1.28,9.58 7.54,9.51 z m 57.39,-20.23 v -10.53 h 2.63 v 10.53 z m -3.98,0 v -12.7 h 2.62 v 12.7 z m -8.03,0 v -10.53 h 2.63 v 10.53 z m 4.04,0 v -12.7 h 2.64 v 12.7 z m 3.35,10.66 c -6.26,0.06 -8.26,-3.21 -7.53,-9.51 3.96,-0.09 6.39,2.08 7.53,5.14 1.15,-3.07 3.58,-5.24 7.54,-5.14 0.72,6.3 -1.27,9.56 -7.54,9.51 z m 0,9.57 c 6.27,0.06 8.26,-3.22 7.54,-9.51 -3.96,-0.08 -6.39,2.09 -7.54,5.16 -1.14,-3.07 -3.57,-5.24 -7.53,-5.16 -0.73,6.3 1.27,9.58 7.53,9.51 z m -18.95,-31.48 v -14.57 h 3.64 v 14.57 z m -5.78,0 v -17.57 h 3.64 v 17.57 z m -11.08,0 v -14.57 h 3.63 v 14.57 z m 5.57,0 v -17.57 h 3.63 v 17.57 z m 4.63,14.73 c -8.66,0.08 -11.4,-4.45 -10.41,-13.15 5.48,-0.12 8.82,2.88 10.41,7.12 1.59,-4.24 4.95,-7.25 10.42,-7.12 1,8.7 -1.76,13.23 -10.42,13.15 z m 0,13.22 c 8.66,0.09 11.42,-4.44 10.42,-13.14 -5.47,-0.12 -8.83,2.88 -10.42,7.12 -1.59,-4.25 -4.93,-7.25 -10.41,-7.12 -0.99,8.7 1.76,13.23 10.41,13.14 z"
               id="path40" />
          </g>
          <g
             id="g42">
            <path
               class="cls-1"
               d="m 6494.42,1870.93 c 7.33,0.07 14.65,0.39 21.98,0.99 l 3.5,0.3 c 4.23,0.4 8.45,0.88 12.68,1.45 v 4.23 h -81.16 v -4.23 c 4.07,-0.56 8.14,-1.03 12.2,-1.42 l 3.5,-0.31 c 7.94,-0.66 15.86,-1 23.79,-1.04 h 3.5 z"
               id="path41" />
            <path
               class="cls-14"
               d="m 6516.4,1871.92 v -21.41 c -4.86,-0.55 -6.42,-3.76 -5.76,-9.43 3.95,-0.08 6.39,2.09 7.53,5.15 1.14,-3.06 3.58,-5.23 7.54,-5.15 0.65,5.68 -0.9,8.89 -5.8,9.43 v 21.7 l -3.5,-0.3 z m -25.48,-1 v -20.36 0 c -7.37,-0.49 -9.71,-4.97 -8.78,-13.1 5.48,-0.12 8.82,2.88 10.41,7.12 1.59,-4.24 4.95,-7.24 10.42,-7.12 0.93,8.05 -1.37,12.52 -8.56,13.09 v 20.39 h -3.5 z m -27.3,1.34 v -21.75 c -4.87,-0.55 -6.41,-3.76 -5.77,-9.43 3.96,-0.08 6.39,2.09 7.54,5.15 1.16,-3.06 3.57,-5.23 7.53,-5.15 0.65,5.68 -0.9,8.89 -5.8,9.43 v 21.43 l -3.5,0.31 z m 6.39,-51.08 v -10.53 h 2.63 v 10.53 z m -3.98,0 v -12.7 h 2.62 v 12.7 z m -8.02,0 v -10.53 h 2.64 v 10.53 z m 4.04,0 v -12.7 h 2.63 v 12.7 z m 3.34,10.66 c -6.25,0.06 -8.27,-3.21 -7.54,-9.51 3.96,-0.09 6.39,2.08 7.54,5.14 1.16,-3.07 3.57,-5.24 7.53,-5.14 0.73,6.3 -1.27,9.56 -7.53,9.51 z m 0,9.57 c 6.26,0.06 8.26,-3.22 7.53,-9.51 -3.96,-0.08 -6.38,2.09 -7.53,5.16 -1.15,-3.07 -3.57,-5.24 -7.54,-5.16 -0.73,6.3 1.28,9.58 7.54,9.51 z m 57.4,-20.23 v -10.53 h 2.63 v 10.53 z m -3.98,0 v -12.7 h 2.62 v 12.7 z m -8.03,0 v -10.53 h 2.63 v 10.53 z m 4.04,0 v -12.7 h 2.63 v 12.7 z m 3.35,10.66 c -6.26,0.06 -8.26,-3.21 -7.53,-9.51 3.95,-0.09 6.39,2.08 7.53,5.14 1.14,-3.07 3.58,-5.24 7.54,-5.14 0.72,6.3 -1.27,9.56 -7.54,9.51 z m 0,9.57 c 6.27,0.06 8.26,-3.22 7.54,-9.51 -3.96,-0.08 -6.39,2.09 -7.54,5.16 -1.14,-3.07 -3.58,-5.24 -7.53,-5.16 -0.74,6.3 1.27,9.58 7.53,9.51 z m -18.95,-31.48 v -14.57 h 3.64 v 14.57 z m -5.78,0 v -17.57 h 3.64 v 17.57 z m -11.08,0 v -14.57 h 3.63 v 14.57 z m 5.57,0 v -17.57 h 3.63 v 17.57 z m 4.63,14.73 c -8.66,0.08 -11.4,-4.45 -10.41,-13.15 5.48,-0.12 8.82,2.88 10.41,7.12 1.59,-4.24 4.95,-7.25 10.42,-7.12 1,8.7 -1.76,13.23 -10.42,13.15 z m 0,13.22 c 8.66,0.09 11.42,-4.45 10.42,-13.15 -5.47,-0.12 -8.83,2.88 -10.42,7.12 -1.59,-4.24 -4.93,-7.25 -10.41,-7.12 -0.99,8.7 1.76,13.23 10.41,13.15 z"
               id="path42" />
          </g>
          <g
             id="g44">
            <path
               class="cls-1"
               d="m 6575.58,1870.93 c 7.33,0.07 14.65,0.39 21.98,0.99 l 3.5,0.3 c 4.22,0.4 8.45,0.88 12.68,1.45 v 4.23 h -81.16 v -4.23 c 4.07,-0.56 8.14,-1.03 12.2,-1.42 l 3.5,-0.31 c 7.94,-0.66 15.87,-1 23.8,-1.04 h 3.5 z"
               id="path43" />
            <path
               class="cls-14"
               d="m 6597.56,1871.92 v -21.41 c -4.87,-0.55 -6.42,-3.76 -5.76,-9.43 3.95,-0.08 6.39,2.09 7.53,5.15 1.15,-3.06 3.58,-5.23 7.54,-5.15 0.65,5.68 -0.91,8.89 -5.8,9.43 v 21.7 l -3.5,-0.3 z m -25.49,-1 v -20.36 0 c -7.37,-0.49 -9.71,-4.97 -8.78,-13.1 5.48,-0.12 8.82,2.88 10.41,7.12 1.59,-4.24 4.95,-7.24 10.42,-7.12 0.92,8.05 -1.36,12.52 -8.56,13.09 v 20.39 h -3.5 z m -27.29,1.34 v -21.75 c -4.87,-0.55 -6.42,-3.76 -5.77,-9.43 3.96,-0.08 6.38,2.09 7.54,5.15 1.15,-3.06 3.57,-5.23 7.53,-5.15 0.65,5.68 -0.9,8.89 -5.81,9.43 v 21.43 l -3.5,0.31 z m 6.39,-51.08 v -10.53 h 2.63 v 10.53 z m -3.98,0 v -12.7 h 2.63 v 12.7 z m -8.03,0 v -10.53 h 2.64 v 10.53 z m 4.04,0 v -12.7 h 2.63 v 12.7 z m 3.35,10.66 c -6.26,0.06 -8.27,-3.21 -7.54,-9.51 3.96,-0.09 6.38,2.08 7.54,5.14 1.15,-3.07 3.57,-5.24 7.53,-5.14 0.73,6.3 -1.27,9.56 -7.53,9.51 z m 0,9.57 c 6.26,0.06 8.26,-3.22 7.53,-9.51 -3.96,-0.08 -6.38,2.09 -7.53,5.16 -1.16,-3.07 -3.58,-5.24 -7.54,-5.16 -0.73,6.3 1.28,9.58 7.54,9.51 z m 57.39,-20.23 v -10.53 h 2.63 v 10.53 z m -3.98,0 v -12.7 h 2.62 v 12.7 z m -8.03,0 v -10.53 h 2.64 v 10.53 z m 4.04,0 v -12.7 h 2.63 v 12.7 z m 3.35,10.66 c -6.26,0.06 -8.26,-3.21 -7.53,-9.51 3.95,-0.09 6.39,2.08 7.53,5.14 1.15,-3.07 3.58,-5.24 7.54,-5.14 0.72,6.3 -1.27,9.56 -7.54,9.51 z m 0,9.57 c 6.27,0.06 8.26,-3.22 7.54,-9.51 -3.96,-0.08 -6.39,2.09 -7.54,5.16 -1.14,-3.07 -3.58,-5.24 -7.53,-5.16 -0.73,6.3 1.27,9.58 7.53,9.51 z m -18.95,-31.48 v -14.57 h 3.64 v 14.57 z m -5.78,0 v -17.57 h 3.65 v 17.57 z m -11.08,0 v -14.57 h 3.63 v 14.57 z m 5.57,0 v -17.57 h 3.63 v 17.57 z m 4.63,14.73 c -8.66,0.08 -11.41,-4.45 -10.41,-13.15 5.48,-0.12 8.82,2.88 10.41,7.12 1.59,-4.24 4.95,-7.25 10.42,-7.12 1,8.7 -1.76,13.23 -10.42,13.15 z m 0,13.22 c 8.66,0.09 11.42,-4.45 10.42,-13.15 -5.47,-0.12 -8.83,2.88 -10.42,7.12 -1.59,-4.24 -4.93,-7.25 -10.41,-7.12 -0.99,8.7 1.76,13.23 10.41,13.15 z"
               id="path44" />
          </g>
          <g
             id="g46">
            <path
               class="cls-1"
               d="m 6656.73,1870.93 c 7.33,0.07 14.65,0.39 21.98,0.99 l 3.5,0.3 c 4.22,0.4 8.45,0.88 12.68,1.45 v 4.23 h -81.15 v -4.23 c 4.07,-0.56 8.13,-1.03 12.2,-1.42 l 3.5,-0.31 c 7.94,-0.66 15.86,-1 23.8,-1.04 h 3.5 z"
               id="path45" />
            <path
               class="cls-14"
               d="m 6678.71,1871.92 v -21.41 c -4.87,-0.55 -6.42,-3.76 -5.76,-9.43 3.95,-0.08 6.38,2.09 7.53,5.15 1.15,-3.06 3.58,-5.23 7.54,-5.15 0.65,5.68 -0.91,8.89 -5.8,9.43 v 21.7 l -3.5,-0.3 z m -25.48,-1 v -20.36 0 c -7.37,-0.49 -9.71,-4.97 -8.77,-13.1 5.48,-0.12 8.82,2.88 10.41,7.12 1.59,-4.24 4.95,-7.24 10.42,-7.12 0.92,8.05 -1.37,12.52 -8.56,13.09 v 20.39 h -3.5 z m -27.29,1.34 v -21.75 c -4.87,-0.55 -6.41,-3.76 -5.77,-9.43 3.96,-0.08 6.38,2.09 7.54,5.15 1.15,-3.06 3.57,-5.23 7.53,-5.15 0.65,5.68 -0.9,8.89 -5.8,9.43 v 21.43 l -3.5,0.31 z m 6.38,-51.08 v -10.53 h 2.62 v 10.53 z m -3.98,0 v -12.7 h 2.63 v 12.7 z m -8.02,0 v -10.53 h 2.64 v 10.53 z m 4.04,0 v -12.7 h 2.63 v 12.7 z m 3.35,10.66 c -6.26,0.06 -8.27,-3.21 -7.54,-9.51 3.96,-0.09 6.38,2.08 7.54,5.14 1.15,-3.07 3.57,-5.24 7.53,-5.14 0.73,6.3 -1.27,9.56 -7.53,9.51 z m 0,9.57 c 6.26,0.06 8.26,-3.22 7.53,-9.51 -3.96,-0.08 -6.38,2.09 -7.53,5.16 -1.16,-3.07 -3.58,-5.24 -7.54,-5.16 -0.73,6.3 1.28,9.58 7.54,9.51 z m 57.39,-20.23 v -10.53 h 2.63 v 10.53 z m -3.98,0 v -12.7 h 2.62 v 12.7 z m -8.03,0 v -10.53 h 2.63 v 10.53 z m 4.04,0 v -12.7 h 2.63 v 12.7 z m 3.35,10.66 c -6.26,0.06 -8.26,-3.21 -7.53,-9.51 3.95,-0.09 6.38,2.08 7.53,5.14 1.15,-3.07 3.58,-5.24 7.54,-5.14 0.72,6.3 -1.27,9.56 -7.54,9.51 z m 0,9.57 c 6.27,0.06 8.26,-3.22 7.54,-9.51 -3.96,-0.08 -6.39,2.09 -7.54,5.16 -1.14,-3.07 -3.57,-5.24 -7.53,-5.16 -0.73,6.3 1.27,9.58 7.53,9.51 z m -18.95,-31.48 v -14.57 h 3.64 v 14.57 z m -5.78,0 v -17.57 h 3.64 v 17.57 z m -11.08,0 v -14.57 h 3.63 v 14.57 z m 5.57,0 v -17.57 h 3.63 v 17.57 z m 4.63,14.73 c -8.66,0.08 -11.41,-4.45 -10.41,-13.15 5.48,-0.12 8.82,2.88 10.41,7.12 1.59,-4.24 4.95,-7.25 10.42,-7.12 1,8.7 -1.76,13.23 -10.42,13.15 z m 0,13.22 c 8.66,0.09 11.42,-4.45 10.42,-13.15 -5.47,-0.12 -8.83,2.88 -10.42,7.12 -1.59,-4.24 -4.93,-7.25 -10.41,-7.12 -0.99,8.7 1.76,13.23 10.41,13.15 z"
               id="path46" />
          </g>
        </g>
        <path
           class="cls-17"
           d="m 6554.25,2530.35 c 0.97,-5.23 8.15,-13.23 18.35,-19.93 8.09,-5.31 16.18,-8.55 21.79,-9.07 2.98,-2.95 6.7,-5.97 10.97,-8.78 1.75,-1.15 3.49,-2.2 5.19,-3.14 2.19,-5.13 8.77,-11.96 17.71,-17.84 12.8,-8.4 25.54,-11.59 28.46,-7.12 0.48,0.72 0.67,1.6 0.58,2.61 9.98,-5.05 18.69,-6.42 21.05,-2.82 2.92,4.46 -5.07,14.88 -17.84,23.27 -2.44,1.6 -4.87,3 -7.22,4.2 0.42,0.28 0.81,0.62 1.07,1.04 0.54,0.83 0.69,1.89 0.51,3.07 8.98,-4.1 16.52,-4.99 18.7,-1.69 2.91,4.46 -5.1,14.89 -17.89,23.29 -2.59,1.69 -5.17,3.18 -7.67,4.43 1.8,4.77 -6.06,14.62 -18.21,22.6 -7.74,5.08 -15.47,8.26 -21.02,8.98 -2.97,4.69 -8.82,10.3 -16.31,15.22 -12.79,8.39 -25.52,11.58 -28.44,7.11 -1.55,-2.37 0,-6.44 3.69,-10.98 -12.03,7.37 -23.53,9.96 -26.28,5.75 -0.86,-1.31 -0.79,-3.12 0.07,-5.25 -12.16,7.52 -23.84,10.21 -26.61,5.96 -2.79,-4.23 4.28,-13.84 15.94,-21.97 3.09,-4.57 8.74,-9.87 15.88,-14.56 2.55,-1.68 5.09,-3.13 7.56,-4.37 v 0 z"
           id="path47" />
        <g
           id="g52">
          <path
             class="cls-1"
             d="m 6050,1877.24 h 72.16 l -12.3,-110.68 h -49.1 l -9.47,97.42 -1.3,13.26 z"
             id="path48" />
          <path
             class="cls-6"
             d="m 6116.54,1766.56 h -60.91 l 28.67,-34.14 z"
             id="path49" />
          <polygon
             class="cls-3"
             points="6084.68,1746.53 6066.06,1728.59 6073.74,1720.61 6023.15,1671.94 5998.25,1697.81 6053.02,1742.14 6060.94,1733.92 6079.57,1751.86 6061.63,1770.49 6053.42,1762.58 6000.39,1808.96 6026.28,1833.87 6074.95,1783.3 6066.97,1775.63 6084.89,1756.98 6103.54,1774.91 6095.63,1783.13 6142.04,1836.15 6166.94,1810.29 6116.35,1761.6 6108.66,1769.6 6090.03,1751.66 6107.97,1733.03 6116.17,1740.93 6169.19,1694.55 6143.3,1669.65 6094.64,1720.22 6102.63,1727.9 "
             id="polygon49" />
          <rect
             class="cls-31"
             x="6079.2598"
             y="1789.2"
             width="13.64"
             height="13.64"
             id="rect49" />
          <rect
             class="cls-31"
             x="6079.2598"
             y="1827"
             width="13.64"
             height="13.63"
             id="rect50" />
          <path
             class="cls-12"
             d="m 6044,1680.88 11.62,10.49 c 0,0 19.6,-24.61 66.54,-11.84 -37.83,-20.99 -78.16,1.35 -78.16,1.35 z"
             id="path50" />
          <path
             class="cls-26"
             d="m 6010.19,1789.2 11.55,-8.85 c 0,0 -23.49,-20.91 -10.85,-63.81 -20.66,38.93 -0.7,72.66 -0.7,72.66 z"
             id="path51" />
          <path
             class="cls-12"
             d="m 6157.66,1715.03 -10.41,8.92 c 0,0 21.94,18.01 9.99,67.64 20.99,-40.63 0.42,-76.56 0.42,-76.56 z"
             id="path52" />
        </g>
        <g
           id="g56">
          <polygon
             class="cls-2"
             points="6226.71,1994.09 6226.71,2058.7 6303.96,2058.7 6303.96,1994.09 6266.06,1964.67 "
             id="polygon52"
             style="fill:url(#radialGradient95)" />
          <path
             class="cls-3"
             d="m 6202.56,2013.89 55.39,-55.51 v 0 l 7.69,-7.65 63.18,63.16 -9.46,9.42 -53.74,-53.73 -53.59,53.73 z"
             id="path53" />
          <polygon
             class="cls-1"
             points="6297.83,2047.86 6297.83,2058.7 6303.96,2058.7 6310.09,2058.7 6310.09,2053.29 6310.09,2014.03 6297.83,2001.78 6297.83,2033.02 "
             id="polygon53" />
          <polygon
             class="cls-1"
             points="6221.61,2058.7 6227.74,2058.7 6233.85,2058.7 6233.85,2047.86 6233.85,2033.02 6233.85,2001.42 6221.61,2013.69 6221.61,2053.29 "
             id="polygon54" />
          <path
             class="cls-7"
             d="m 6274.94,2058.7 h -18.12 v -12.95 c 0,0 -7.03,-6.69 0,-6.69 h 18.12 c 6.16,9.21 0,8.45 0,8.45 v 11.18 z"
             id="path54" />
          <path
             class="cls-18"
             d="m 6277.18,2023.14 c 0.1,-5.93 -8.59,-13.21 -8.17,-16.73 -3.8,0.57 -6.87,3.76 -8.02,6.58 l -1.61,-1.58 c -1.31,1.88 -11.18,14.97 2.09,18.3 -3.79,-3.95 -1.78,-7.72 2.43,-11.3 -0.55,5.32 12.25,2.01 7.12,11.18 4.22,-0.05 6.14,-3.48 6.17,-6.46 v 0 z"
             id="path55"
             style="fill:url(#linearGradient95)" />
          <path
             class="cls-21"
             d="m 6266.33,2038.34 c -0.33,0.45 -0.67,0.9 -1,1.34 -0.33,-2.93 -0.67,-6.47 -1,-10.6 1,1.34 2,2.69 3.01,4.03 -0.33,1.14 -0.67,2.88 -1,5.22 z"
             id="path56" />
        </g>
        <path
           class="cls-22"
           d="m 7217.31,2532.18 h -0.67 l -0.55,0.55 h -14.5 l 15.71,27.94 h -0.67 l -0.55,0.55 h -22.37 v 20.63 l -1.31,1.21 h -21.17 l -1.21,-1.21 v -20.63 h -23.57 c 0.3,-1.89 5.55,-11.39 15.73,-28.48 h -15.73 v -1.21 l 35.15,-59.91 h 1.19 l 34.5,60.57 z m -69.1,-9.06 v 0.55 c 0,1.23 -1.6,4.88 -4.79,10.92 h 10.9 l 0.55,0.64 c 0.67,1.6 1.28,2.41 1.86,2.41 l -14.52,25.43 h 15.18 l 4.15,3.59 -1.2,1.2 h -15.71 v 13.98 l -1.19,1.21 h -14.54 l -1.19,-1.21 v -13.98 h -17.03 l -0.55,-0.55 11.47,-19.97 h -10.92 l -0.55,-0.66 25.43,-44.2 c 1.02,0.49 5.24,7.38 12.66,20.63 z"
           id="path57" />
        <g
           id="g61">
          <polygon
             class="cls-16"
             points="6581.04,2173.46 6581.04,2238.07 6658.29,2238.07 6658.29,2173.46 6620.39,2144.04 "
             id="polygon57"
             style="fill:url(#radial-gradient-2)" />
          <path
             class="cls-3"
             d="m 6556.89,2193.25 55.39,-55.51 v 0 l 7.69,-7.65 63.19,63.16 -9.46,9.42 -53.74,-53.73 -53.59,53.73 -9.47,-9.42 v 0 z"
             id="path58" />
          <polygon
             class="cls-1"
             points="6652.16,2227.22 6652.16,2238.07 6658.3,2238.07 6664.42,2238.07 6664.42,2232.66 6664.42,2193.39 6652.16,2181.15 6652.16,2212.39 "
             id="polygon58" />
          <polygon
             class="cls-1"
             points="6575.95,2238.07 6582.07,2238.07 6588.18,2238.07 6588.18,2227.22 6588.18,2212.39 6588.18,2180.79 6575.95,2193.06 6575.95,2232.66 "
             id="polygon59" />
          <path
             class="cls-7"
             d="m 6629.27,2238.07 h -18.12 v -12.94 c 0,0 -7.03,-6.69 0,-6.69 h 18.12 c 6.16,9.21 0,8.45 0,8.45 z"
             id="path59" />
          <path
             class="cls-9"
             d="m 6631.52,2202.51 c 0.1,-5.93 -8.6,-13.2 -8.18,-16.73 -3.8,0.57 -6.87,3.76 -8.02,6.58 l -1.61,-1.58 c -1.32,1.88 -11.18,14.97 2.08,18.29 -3.79,-3.95 -1.77,-7.72 2.43,-11.3 -0.55,5.32 12.26,2.01 7.12,11.18 4.22,-0.05 6.14,-3.47 6.18,-6.45 v 0 z"
             id="path60"
             style="fill:url(#Oran%C5%BEov%C3%A1_%C5%BElut%C3%A1-2)" />
          <path
             class="cls-21"
             d="m 6620.66,2217.71 c -0.33,0.45 -0.67,0.9 -1,1.34 -0.33,-2.93 -0.67,-6.46 -1,-10.59 1,1.34 2,2.69 3.01,4.03 -0.33,1.14 -0.67,2.88 -1,5.22 z"
             id="path61" />
        </g>
        <path
           class="cls-22"
           d="m 5955.97,2368.07 h -0.67 l -0.55,0.54 h -14.5 l 15.71,27.94 h -0.67 l -0.55,0.55 h -22.36 v 20.63 l -1.32,1.21 h -21.17 l -1.2,-1.21 v -20.63 h -23.57 c 0.3,-1.89 5.55,-11.39 15.73,-28.49 h -15.73 v -1.2 l 35.15,-59.91 h 1.19 z m -69.1,-9.06 v 0.55 c 0,1.23 -1.6,4.88 -4.79,10.92 h 10.9 l 0.55,0.65 c 0.67,1.6 1.28,2.41 1.86,2.41 l -14.52,25.43 h 15.18 l 4.15,3.59 -1.21,1.2 h -15.71 v 13.97 l -1.19,1.21 h -14.53 l -1.19,-1.21 v -13.97 h -17.03 l -0.54,-0.55 11.47,-19.97 h -10.92 l -0.54,-0.66 25.43,-44.2 c 1.02,0.5 5.24,7.39 12.66,20.63 z"
           id="path62" />
        <g
           id="g66">
          <polygon
             class="cls-15"
             points="6761.36,1993.65 6761.36,2058.27 6838.6,2058.27 6838.6,1993.65 6800.71,1964.23 "
             id="polygon62"
             style="fill:url(#radial-gradient-3)" />
          <path
             class="cls-3"
             d="m 6737.21,2013.45 55.39,-55.51 v 0 l 7.69,-7.66 63.18,63.16 -9.46,9.41 -53.75,-53.72 -53.59,53.72 -9.47,-9.41 v 0 z"
             id="path63" />
          <polygon
             class="cls-1"
             points="6832.48,2047.42 6832.48,2058.27 6838.61,2058.27 6844.74,2058.27 6844.74,2052.85 6844.74,2013.59 6832.48,2001.35 6832.48,2032.58 "
             id="polygon63" />
          <polygon
             class="cls-1"
             points="6756.26,2058.27 6762.38,2058.27 6768.5,2058.27 6768.5,2047.42 6768.5,2032.58 6768.5,2000.98 6756.26,2013.25 6756.26,2052.85 "
             id="polygon64" />
          <path
             class="cls-7"
             d="m 6809.59,2058.27 h -18.12 v -12.95 c 0,0 -7.03,-6.7 0,-6.7 h 18.12 c 6.16,9.22 0,8.46 0,8.46 z"
             id="path64" />
          <path
             class="cls-8"
             d="m 6811.83,2022.71 c 0.1,-5.93 -8.6,-13.21 -8.17,-16.74 -3.8,0.58 -6.87,3.77 -8.03,6.58 l -1.61,-1.57 c -1.32,1.87 -11.18,14.96 2.08,18.28 -3.78,-3.93 -1.77,-7.71 2.43,-11.28 -0.54,5.31 12.26,2.01 7.12,11.18 4.22,-0.04 6.14,-3.47 6.18,-6.45 z"
             id="path65"
             style="fill:url(#Oran%C5%BEov%C3%A1_%C5%BElut%C3%A1-3)" />
          <path
             class="cls-21"
             d="m 6800.98,2037.9 c -0.33,0.45 -0.67,0.9 -1,1.34 -0.33,-2.93 -0.67,-6.47 -1,-10.59 1,1.34 2,2.69 3.01,4.03 -0.33,1.14 -0.67,2.88 -1,5.22 z"
             id="path66" />
        </g>
        <path
           class="cls-30"
           d="m 5853.94,1876.99 c -19.23,1.33 -50.05,7.99 -84.61,23.49 -17.23,7.73 -35.34,17.69 -52.72,30.09 -17.25,12.4 -34.32,27.2 -46.85,44.5 -1.69,2.12 -3.13,4.3 -4.43,6.54 -1.32,2.22 -2.93,4.41 -3.89,6.68 -1,2.18 -2.46,4.66 -3.15,6.61 -0.66,1.97 -1.54,3.92 -2.05,5.94 -2.34,8.02 -1.8,17.11 2.53,24.44 4.42,7.39 11.39,12.21 19.69,15.98 l 7.05,2.76 c 2.32,0.97 4.98,1.43 7.44,2.18 4.92,1.55 10.17,2.39 15.33,3.3 20.78,3.4 41.67,3.46 60.77,3.13 19.95,-0.64 38.24,-0.2 54.04,1.5 12.27,1.19 23.52,2.68 34.72,6 11.54,3.35 22.1,8.34 29.81,15.32 7.86,6.91 12.13,16.24 13.29,25.06 1.24,8.88 -0.14,17.2 -2.09,24.46 -1.76,6.12 -2.24,7.04 -1.36,3.88 0.66,-3.19 3.37,-10.65 3.25,-22.04 -0.01,-5.65 -1.11,-12.35 -4.51,-18.94 -3.33,-6.62 -9.15,-12.76 -16.71,-17.59 -3.72,-2.55 -8.06,-4.43 -12.53,-6.43 -2.32,-0.84 -4.67,-1.69 -7.07,-2.55 -2.38,-0.79 -4.67,-1.32 -7.08,-2 -9.51,-2.49 -19.35,-4.1 -29.72,-5.18 -18.43,-1.71 -38.81,-1.36 -60,-0.76 -20.74,0.66 -43.45,0.1 -66,-4.93 3.39,1.14 7.02,1.81 10.53,2.76 3.51,0.98 7.12,1.69 10.78,2.22 3.65,0.62 7.28,1.23 10.89,1.85 3.69,0.38 7.35,0.77 10.99,1.15 7.29,0.95 14.6,1.13 21.8,1.53 7.32,0.32 14.51,0.63 21.56,0.95 28.23,1.5 54.49,5.16 73.88,12.92 7.16,2.06 14.07,5.13 20.08,9.52 6,4.38 10.69,10.69 12.62,17.94 2,7.24 1.48,14.95 -0.11,22.24 -1.59,7.26 -4.25,14.4 -7.44,21.73 -7.01,15.94 -16.09,31.03 -25.31,45.93 -9.27,14.89 -18.95,29.55 -28.39,44.38 -9.4,14.86 -18.71,29.81 -27.01,45.45 -8.29,15.62 -15.9,31.85 -20.46,49.53 -2.25,8.81 -3.74,18.02 -3.58,27.49 0.14,9.43 2.2,19.18 6.48,27.95 8.71,17.74 25.02,29.78 41.48,37.4 16.68,7.82 34.13,12.56 51.76,16.12 4.45,1.01 8.82,1.68 13.17,2.2 l 13.1,1.8 c 8.74,1.22 17.5,2.43 26.26,3.65 12.74,1.98 29.19,3.72 47.48,5.59 18.31,1.89 38.47,3.96 58.58,6.02 40.21,3.71 80.23,7.73 104.78,10.82 0,0 -38.61,-3.26 -96.53,-8.14 -28.96,-2.48 -62.76,-5.95 -98.98,-9.46 -18.18,-2.24 -36.98,-4.56 -56.08,-6.9 -19.3,-2.68 -39.25,-7.21 -58.52,-14.82 -9.61,-4.05 -19.12,-8.92 -27.92,-15.45 -8.78,-6.48 -16.68,-15.12 -22,-25.3 -5.4,-10.16 -7.73,-21.6 -7.84,-32.28 -0.16,-10.75 1.65,-20.88 4.24,-30.3 5.21,-18.89 13.18,-35.35 21.18,-50.38 8.07,-15.04 16.43,-28.58 24.19,-40.98 15.63,-24.71 28.72,-44.81 37.13,-59.2 8.42,-14.35 12.47,-22.73 12.47,-22.73 -2.64,4.73 -5.43,9.37 -8.34,13.89 0,0 -9.89,17.15 -26.72,42.57 -8.32,12.76 -18.23,27.65 -28.36,44.21 -10.08,16.57 -20.49,34.8 -28.53,54.99 -3.98,10.09 -7.35,20.74 -9.13,32.03 -1.78,11.23 -1.84,23.3 1.12,34.88 2.87,11.59 8.91,22.13 16.04,30.17 7.12,8.23 15.22,13.72 22.62,18.43 15.09,8.78 28.26,13.29 37.38,15.96 4.58,1.49 8.18,2.39 10.63,2.98 2.46,0.62 3.77,0.95 3.77,0.95 19.43,4.69 37.85,6.11 57.13,9.24 0,0 -14.12,-1.9 -28.25,-3.8 -3.54,-0.51 -7.01,-0.87 -10.41,-1.48 -3.43,-0.7 -6.63,-1.34 -9.38,-1.9 -5.5,-1.03 -9.09,-2.06 -9.09,-2.06 -12.44,-2.69 -24.86,-6.53 -37.19,-11.58 -12.27,-5.16 -24.73,-11.96 -35.65,-22.55 -5.57,-5.09 -10.23,-11.66 -14.23,-18.57 -3.56,-7.16 -6.59,-14.9 -7.71,-22.8 -2.81,-15.88 -0.48,-31.19 3.18,-45.45 10.34,-35.11 32.34,-66.46 49.67,-94.17 14.49,-22.43 29.76,-41.36 43.12,-62.06 0,0 6.09,-10.24 11,-20.72 2.4,-5.16 4.71,-10.66 5.96,-14.3 1.31,-3.63 1.89,-6 1.89,-6 0.78,-3.73 1.21,-7.76 1.34,-11.89 -0.05,0.14 -0.13,0.42 -0.19,0.53 -0.76,2.07 -1.78,5.18 -3.33,8.96 -1.58,3.82 -3.56,7.93 -6.86,14.4 -6.52,12.34 -16.59,28.08 -29.37,46.2 -12.69,18.17 -27.92,38.68 -43.34,62 -7.69,11.69 -15.43,24.12 -22.62,37.69 -7.16,13.58 -13.78,28.46 -18.26,45.53 -2.05,8.69 -3.58,17.89 -3.71,27.84 0,9.99 1.52,20.61 5.14,30.9 3.63,10.35 9.62,19.68 16.33,27.57 3.45,3.8 7,7.53 10.75,10.53 3.7,3.35 7.51,5.89 11.33,8.53 15.34,10.13 30.61,15.99 45.01,20.51 7.28,2.41 14.22,4 21.2,5.73 6.91,1.44 14.04,3.13 19.98,3.79 24.6,3.46 46.88,6.75 64.76,8.74 17.79,1.85 31.65,3.11 40.19,3.64 27.22,1.91 53.3,1.54 80.08,1.13 26.81,-0.35 54.36,-0.52 84.43,1.12 20.11,1.14 36.89,4.7 52.43,3.85 1.62,-1.2 9.39,-1.64 17.2,-2.07 40.02,2.24 79.75,10.04 110.78,8.37 21.65,0.02 244.97,9.97 256.2,32.39 11.23,22.42 13.7,61.64 51.64,81.46 5.03,2.59 25.07,4.39 30.46,6.37 5.37,2.09 10.95,4.02 17.07,5.4 10.94,3.43 29.29,5.19 44.59,3.89 4.18,0.04 31.18,0.24 57,-0.11 25.79,-0.36 50.62,-0.73 50.62,-0.73 77.24,4.51 125.31,-1.28 185.22,10.95 69.74,-6.7 162.05,6.73 236.16,7.36 74.14,0.66 104.82,8.92 169.43,17.32 18.48,1.6 32.39,1.37 43.11,3.71 10.75,2.36 37.14,-2.39 55.61,-0.77 l -4.74,3.82 c 6.19,0.54 18.47,1.61 24.65,2.14 6.18,0.55 4.57,1.83 2.99,3.1 -3.18,2.55 -6.34,5.1 4.41,7.45 25.71,3.13 52.01,5.83 78.96,8.01 26.74,-1.07 53.13,-2.33 79.16,-3.87 1.57,-1.76 3.39,-3.52 7.09,-4.87 7.77,-0.71 15.51,-1.41 23.24,-2.12 4.77,-3.79 3.38,-8.17 6.58,-10.7 0.39,-11.25 33.18,-20.98 25.82,-31.53 -2.98,-3.1 -47.7,-5.75 -67.58,-11.8 -4.59,-1.81 6.37,-5.06 11.11,-8.86 -26.25,-0.98 -27.62,-5.34 -16.69,-8.58 -6.17,-0.57 -12.32,-1.12 -12.32,-1.12 1.59,-1.26 6.36,-5.08 6.36,-5.08 -66.24,-7.4 -140.09,-19.58 -205.12,-16.78 -13.92,0.17 -37.17,2.41 -52.67,3.91 -7.73,0.73 -24.65,-2.14 -30.83,-2.67 -10.94,3.29 -9.52,7.65 -14.25,11.47 -47.76,-5.52 -151.01,-15.7 -148.32,-1.34 -38.55,-1.86 -46.49,4.52 -86.63,3.95 -53.19,-0.52 -120.64,-1.81 -187.1,-3.46 -36.36,-0.29 -71.27,-1.78 -106.49,-3.15 -13.12,-0.51 -25.88,-0.99 -38.02,-1.46 -32.8,-1.31 -64.8,-2.85 -94.79,-5.65 -3.72,-0.37 -7.43,-0.74 -11.13,-1.1 l -9.27,-1.51 -2.27,-0.35 -2.52,-0.75 -5.04,-1.53 -10.03,-3.07 c -13.04,-4.9 -25.79,-10.09 -37.68,-16.98 -24.18,-13.12 -23.6,-76.92 -64.11,-82.09 -40.51,-5.16 -73.19,-7.72 -73.19,-7.72 l -5.52,-0.75 -11.04,-1.46 -22.11,-2.88 c -7.41,-0.99 -14.34,-1.45 -21.54,-2.18 -14.29,-1.31 -28.58,-2.62 -42.93,-3.94 -28.66,-2.43 -57.43,-4.44 -86.74,-6.43 -58.55,-3.76 -118.96,-6.76 -183.34,-8.8 -64.9,-2.1 -130.48,-5.45 -195.68,-10.41 -16.23,-1.37 -32.29,-3.15 -48.42,-4.77 -16.39,-1.41 -31.69,-3.7 -46.63,-7.68 -14.84,-3.9 -29.01,-9.46 -40.48,-17.39 -5.54,-4.11 -10.39,-8.7 -14,-13.92 -3.6,-5.24 -5.79,-11.15 -6.89,-17.49 -1.08,-6.35 -0.98,-13.16 -0.03,-20.1 1.1,-6.96 2.97,-13.99 5.29,-20.98 4.91,-13.98 11.56,-27.71 19.03,-41.08 14.92,-26.8 32.45,-52.32 49,-78.41 8.26,-13.11 16.38,-26.33 23.6,-40.42 3.61,-7.09 6.89,-14.35 9.84,-22.19 3.08,-8.56 5.52,-18.27 6.03,-27.68 0.52,-9.45 -0.97,-19.03 -5.11,-27.45 -4.1,-8.48 -10.84,-15.33 -18.49,-20.63 -7.66,-5.37 -16.71,-8.75 -25.56,-11.59 -3.99,-1 -8.22,-2.24 -12.03,-2.94 -3.81,-0.66 -7.67,-1.54 -11.4,-1.99 -15.08,-2.22 -29.57,-2.84 -43.74,-3.01 -7.1,-0.14 -14.07,0 -20.98,0.16 -6.51,0.07 -12.98,0.13 -19.39,0.19 -12.53,-0.02 -24.69,-0.75 -36.18,-2.25 -5.85,-0.56 -11.14,-2.01 -16.63,-2.9 -2.54,-0.72 -5.07,-1.45 -7.59,-2.17 l -3.75,-1.05 -3.35,-1.4 c -2.08,-0.92 -4.75,-1.79 -6.32,-2.68 l -4.46,-2.63 c -1.31,-1.01 -2.52,-2.06 -3.75,-3.07 -1.18,-1.07 -2.09,-2.39 -3.12,-3.54 -3.81,-5.01 -4.79,-11.46 -3.67,-17.07 l 1.06,-4.12 1.57,-3.9 c 0.47,-1.21 1.77,-3.37 2.56,-4.99 0.79,-1.75 1.88,-3.5 3.08,-5.24 4.19,-7.01 10.12,-13.64 15.76,-19.93 11.98,-12.42 25.32,-22.91 38.3,-31.75 13.11,-8.76 25.92,-15.86 37.71,-21.88 23.84,-11.7 43.81,-18.52 57.7,-22.94 0,0 1.9,-1.02 4.82,-2.39 2.93,-1.41 6.82,-3.28 10.72,-5.17 7.99,-3.4 15.97,-6.8 15.97,-6.8 z"
           id="path67" />
        <g
           id="g73">
          <path
             class="cls-1"
             d="m 6694.97,2485.26 v 47.94 h -9.02 v 11.55 h 84.42 l -0.32,-11.55 v -47.94 l -39.02,-21.65 z"
             id="path68" />
          <path
             class="cls-6"
             d="m 6752.97,2448.68 h 12.66 v 13.44 l 23.55,13.67 -5.81,10.03 -51.96,-30.15 -50.76,31.74 -6.14,-9.85 53.72,-33.57 2.94,-1.84 3.03,1.75 18.77,10.9 v -6.11 0 z"
             id="path69" />
          <g
             id="g72">
            <rect
               class="cls-31"
               x="6716.0601"
               y="2487.78"
               width="13.64"
               height="13.63"
               id="rect69" />
            <rect
               class="cls-31"
               x="6735.1201"
               y="2487.78"
               width="13.64"
               height="13.63"
               id="rect70" />
            <rect
               class="cls-31"
               x="6716.0601"
               y="2506.8601"
               width="13.64"
               height="13.63"
               id="rect71" />
            <rect
               class="cls-31"
               x="6735.1201"
               y="2506.8601"
               width="13.64"
               height="13.63"
               id="rect72" />
          </g>
        </g>
        <g
           id="g74">
          <path
             class="cls-19"
             d="m 6674.82,2504.86 c 2.57,0.29 5.07,0.8 7.47,1.5 l 9.81,-8.22 10.95,1.54 c 0,0 -4.82,8.43 -7.6,13.23 1.75,1.28 3.39,2.69 4.92,4.22 0.26,0.27 0.54,0.54 0.79,0.82 l 12.61,-2.22 8.71,6.8 c 0,0 -8.38,4.89 -13.18,7.66 1,2.31 1.82,4.73 2.42,7.22 l 12.01,4.38 4.14,10.25 c 0,0 -9.71,0.04 -15.24,0.04 -0.29,2.57 -0.79,5.06 -1.5,7.47 l 8.22,9.79 -1.54,10.95 c 0,0 -8.43,-4.82 -13.23,-7.58 -1.28,1.74 -2.7,3.38 -4.22,4.9 -0.27,0.27 -0.55,0.54 -0.82,0.8 l 2.22,12.61 -6.8,8.72 c 0,0 -4.89,-8.38 -7.65,-13.18 -2.31,1.02 -4.73,1.84 -7.23,2.43 l -4.38,12.01 -10.25,4.15 c 0,0 -0.04,-9.71 -0.04,-15.25 -2.56,-0.27 -5.07,-0.78 -7.47,-1.5 l -9.79,8.22 -10.95,-1.54 c 0,0 4.82,-8.43 7.59,-13.22 -1.74,-1.29 -3.39,-2.7 -4.92,-4.23 -0.26,-0.26 -0.54,-0.53 -0.78,-0.81 l -12.61,2.21 -8.71,-6.8 c 0,0 8.38,-4.88 13.18,-7.65 -1.02,-2.31 -1.84,-4.71 -2.44,-7.22 l -12.01,-4.38 -4.14,-10.25 c 0,0 9.71,-0.04 15.26,-0.04 0.27,-2.57 0.78,-5.06 1.5,-7.47 l -8.21,-9.81 1.54,-10.95 c 0,0 8.43,4.82 13.22,7.6 1.29,-1.74 2.69,-3.39 4.22,-4.91 0.27,-0.26 0.54,-0.54 0.82,-0.79 l -2.22,-12.61 6.81,-8.71 c 0,0 4.88,8.38 7.65,13.19 2.31,-1.02 4.73,-1.84 7.23,-2.43 l 4.38,-12.02 10.25,-4.14 c 0,0 0.05,9.71 0.04,15.24 v 0 z m 25.92,33.07 -16.42,9.48 16.41,9.48 c 0.93,-3.01 1.43,-6.21 1.43,-9.51 0,-3.3 -0.5,-6.46 -1.41,-9.46 v 0 z m -38.44,22.19 -15.68,9.05 c 0.28,0.29 0.56,0.59 0.84,0.87 4.03,4.02 9.12,6.99 14.83,8.42 v -18.33 0 z m -22.93,-3.71 15.59,-9 -15.6,-9.01 c -0.83,2.85 -1.28,5.87 -1.28,8.98 0,3.11 0.45,6.16 1.29,9.03 z m 37.6,-21.71 16.34,-9.43 c -0.17,-0.17 -0.35,-0.36 -0.53,-0.53 -4.26,-4.26 -9.71,-7.32 -15.8,-8.65 v 18.62 0 z m 16.29,34.83 -16.3,-9.41 v 18.57 c 6.1,-1.34 11.55,-4.39 15.8,-8.65 0.18,-0.17 0.34,-0.33 0.5,-0.51 z m -46.66,-43.9 15.7,9.07 v -18.4 c -5.71,1.44 -10.8,4.39 -14.83,8.43 -0.3,0.3 -0.58,0.6 -0.87,0.89 z"
             id="path73" />
          <path
             class="cls-19"
             d="m 6693.56,2547.33 c 0,13.04 -10.57,23.62 -23.62,23.62 -13.05,0 -23.62,-10.58 -23.62,-23.62 0,-13.04 10.56,-23.63 23.62,-23.63 13.06,0 23.62,10.58 23.62,23.63 z"
             id="path74" />
        </g>
        <g
           id="g81">
          <path
             class="cls-13"
             d="m 6424.1,1956.89 h 29.4 l 1.52,-1.24 -4.28,0.39 -0.26,-2.79 8.45,-0.78 1.46,-1.17 -7.32,0.66 -0.26,-2.79 11.49,-1.04 1.8,-1.46 -10.94,0.99 -0.26,-2.8 14.46,-1.31 0.5,-0.67 6.63,-9.02 0.23,6.49 4.59,-3 -1.09,7.74 10.63,6.27 -2.25,6.83 -11.49,0.19 -4.49,24.29 v 21.62 h -5.39 l -2.51,-19.32 c -0.74,0.15 -1.47,0.3 -2.22,0.43 v 18.89 h -5.39 l -2.34,-17.93 h -0.01 l -0.83,-5.89 -1.84,0.3 -1.86,5.75 c -3.95,0.02 -7.99,-0.27 -12.13,-0.84 v 18.61 h -5.38 l -2.08,-15.96 v 15.96 h -5.39 l -3.52,-26.95 c -0.46,-1.22 -0.85,-2.46 -1.14,-3.71 -0.94,4.49 -2.27,8.37 -4.99,13.01 -6.65,-11.6 -3.28,-25.52 8.5,-29.74 z"
             id="path75" />
          <path
             class="cls-1"
             d="m 6401.75,2038.96 c -0.07,-0.59 -0.14,-1.18 -0.2,-1.78 v -18.34 l 1.57,18.34 c -0.46,0.6 -0.91,1.18 -1.37,1.78 z m 50.29,-32.13 c 0.04,3.09 -0.51,6.27 -1.73,9.1 l 2.03,0.9 c 1.36,-3.13 1.96,-6.63 1.92,-10.02 -0.1,-7.89 -3.67,-15.79 -12.25,-17.24 -14.41,0.34 -28.82,0.66 -43.22,0.98 -6.44,0.79 -12.27,-2.44 -18.16,-5.18 l -1.86,-2.55 -1.38,3.94 c -3.92,3.72 -7.86,7.46 -11.78,11.19 1.18,1.1 2.36,2.22 3.53,3.33 1.44,-0.45 2.87,-0.92 4.32,-1.37 3.86,0.06 7.72,0.12 11.58,0.19 1.21,8.72 1.47,14.78 9.62,17.56 l 2.06,19.52 c -0.88,1.2 -1.77,2.39 -2.65,3.59 v 0.68 h 12.81 l 2.79,-23.57 c 6.73,1.68 8.67,1.46 15.93,0.27 0.3,0.74 0.71,1.49 1.24,2.21 l -1.21,1.11 c -0.45,0.41 -0.48,1.12 -0.06,1.57 0.42,0.44 1.12,0.47 1.57,0.05 l 1.15,-1.06 c 0.2,0.2 0.41,0.39 0.63,0.58 l -0.95,1.56 c -0.31,0.52 -0.14,1.2 0.38,1.53 0.52,0.31 1.21,0.15 1.53,-0.38 l 0.83,-1.37 c 0.31,0.19 0.63,0.39 0.96,0.56 l -0.64,1.54 c -0.23,0.57 0.04,1.22 0.6,1.45 0.57,0.23 1.22,-0.04 1.45,-0.61 l 0.62,-1.49 c 1.05,0.37 2.16,0.62 3.29,0.71 l -4.5,15.34 h 6.13 l 3.95,-16.94 3.16,-0.17 -3.9,17.11 h 6.93 c 0.7,-5.51 1.68,-11.98 2.37,-17.4 -0.46,-2.95 -1.2,-5.89 -1.66,-8.84 l 1.91,-13.62 c 0.41,1.64 0.65,3.43 0.66,5.24 z"
             id="path76" />
          <path
             class="cls-17"
             d="m 6489.11,2000.91 c -3.2,3.8 -5.09,6.78 -4.72,14.84 -4.36,2.19 -10.33,3.72 -15.02,5.78 l -6.62,-3.5 -1.25,2.49 6.02,5.07 c 1.15,2.96 3.5,6.09 6.9,7.25 v 0 c 0.55,1.09 1.45,1.91 2.52,2.25 v 3.6 l -0.63,0.47 -0.2,1.3 h 6.3 l -0.1,-1.04 -3.33,-1.09 v -3.18 c 1.37,-0.35 2.48,-1.5 3,-3 5.38,-1.18 9.63,-4.38 9.58,-13.42 -1.55,-4.08 -2.6,-9.21 -1.12,-14.14 l 12.1,-1.45 -0.12,-1.12 -4.75,-0.52 -2.17,-3.76 c -2.52,-0.04 -4.65,1.02 -6.39,3.17 z"
             id="path77" />
          <g
             id="g80">
            <path
               class="cls-10"
               d="m 6417.4,2046.16 c 1.08,-0.07 2.14,-0.14 3.2,-0.2 0.07,-2.05 0.24,-4.08 0.51,-6.11 1.46,-1.27 2.92,-2.53 4.38,-3.8 1.91,1.27 3.82,2.53 5.72,3.8 -0.05,2.01 -0.09,3.91 -0.11,5.7 1.54,-0.04 3.07,-0.07 4.58,-0.08 -0.23,-2.1 -0.52,-4.29 -0.87,-6.58 1.11,-1.18 2.21,-2.36 3.32,-3.54 1.61,1.18 3.21,2.36 4.81,3.54 0.36,2.08 0.64,4.28 0.87,6.57 1.05,0.01 2.09,0.02 3.13,0.03 -0.09,-3.61 -0.2,-7.09 -0.37,-10.31 1.12,-1.18 2.23,-2.36 3.33,-3.54 1.6,1.18 3.2,2.36 4.81,3.54 0.22,2.93 0.37,6.52 0.47,10.48 1.52,0.04 3.03,0.08 4.56,0.12 0.22,-2.4 0.52,-4.7 0.89,-6.88 1.6,-1.17 3.2,-2.36 4.8,-3.54 1.11,1.18 2.22,2.36 3.34,3.54 -0.39,2.5 -0.7,4.86 -0.94,7.13 1.42,0.04 2.83,0.09 4.25,0.14 v 3.2 c -1.52,-0.05 -3.04,-0.11 -4.56,-0.16 -0.57,6.38 -0.7,12.03 -0.79,17.61 1.78,0.05 3.57,0.11 5.35,0.16 v 3.22 c -1.81,-0.06 -3.61,-0.13 -5.4,-0.2 -0.04,2.2 -0.1,4.41 -0.18,6.69 h -8.12 c 0.09,-2.29 0.17,-4.62 0.24,-6.97 -0.93,-0.03 -1.87,-0.06 -2.8,-0.09 0.1,2.45 0.24,4.83 0.4,7.06 h -8.13 c -0.19,-2.35 -0.35,-4.77 -0.46,-7.26 -0.9,-0.01 -1.79,-0.02 -2.68,-0.04 0.08,2.45 0.16,4.89 0.26,7.29 h -8.13 c -0.09,-2.49 -0.14,-4.9 -0.18,-7.31 -1.61,0.01 -3.23,0.04 -4.85,0.08 0.21,2.26 0.43,4.43 0.66,6.61 h -10.1 c -0.16,-2.06 -0.36,-4.13 -0.56,-6.19 -1.54,0.09 -3.09,0.2 -4.64,0.32 v -3.22 c 1.45,-0.09 2.91,-0.17 4.33,-0.25 -0.6,-5.9 -1.18,-11.79 -1.19,-17.59 -1.04,0.07 -2.09,0.14 -3.14,0.22 v -3.2 0 z m 8.32,0.73 c -0.43,0 -0.79,0.35 -0.79,0.79 0,0.44 0.35,0.79 0.79,0.79 0.44,0 0.79,-0.35 0.79,-0.79 0,-0.44 -0.36,-0.79 -0.79,-0.79 z m 38.04,0.05 c -0.44,0 -0.79,0.35 -0.79,0.79 0,0.44 0.35,0.79 0.79,0.79 0.44,0 0.79,-0.36 0.79,-0.79 0,-0.43 -0.35,-0.79 -0.79,-0.79 z m -0.99,20.69 c -0.43,0 -0.8,0.35 -0.8,0.79 0,0.44 0.36,0.79 0.8,0.79 0.44,0 0.79,-0.35 0.79,-0.79 0,-0.44 -0.35,-0.79 -0.79,-0.79 z m -21.71,-0.37 c -0.44,0 -0.8,0.35 -0.8,0.79 0,0.44 0.35,0.79 0.8,0.79 0.45,0 0.79,-0.35 0.79,-0.79 0,-0.44 -0.35,-0.79 -0.79,-0.79 z m 10.96,0.29 c -0.44,0 -0.79,0.35 -0.79,0.79 0,0.44 0.36,0.78 0.79,0.78 0.43,0 0.79,-0.35 0.79,-0.78 0,-0.43 -0.35,-0.79 -0.79,-0.79 z m -1.39,-21.2 c -0.44,0 -0.8,0.35 -0.8,0.79 0,0.44 0.36,0.8 0.8,0.8 0.44,0 0.79,-0.35 0.79,-0.8 0,-0.45 -0.36,-0.79 -0.79,-0.79 z m -10.68,-0.14 c -0.44,0 -0.8,0.35 -0.8,0.79 0,0.44 0.35,0.79 0.8,0.79 0.45,0 0.78,-0.35 0.78,-0.79 0,-0.44 -0.35,-0.79 -0.78,-0.79 z m -13.26,21.42 c -0.43,0 -0.79,0.35 -0.79,0.79 0,0.44 0.35,0.79 0.79,0.79 0.44,0 0.8,-0.35 0.8,-0.79 0,-0.44 -0.36,-0.79 -0.8,-0.79 z m 5.1,-1.27 c 1.7,-0.04 3.38,-0.06 5.06,-0.08 -0.09,-5.61 -0.24,-11.29 -0.84,-17.73 -1.63,0.02 -3.27,0.05 -4.91,0.09 0,7.27 0.3,12.81 0.69,17.72 z m 13.07,-0.07 c 0.87,0 1.75,0.01 2.62,0.03 -0.23,-5.86 -0.33,-11.93 -0.46,-17.74 -0.97,-0.01 -1.96,-0.02 -2.93,-0.03 0.43,5.63 0.6,11.69 0.77,17.74 z m 10.85,0.2 c 1.01,0.02 2.01,0.05 3.01,0.07 0.17,-6.01 0.34,-12.05 0.76,-17.65 -1.4,-0.05 -2.8,-0.1 -4.21,-0.13 0.14,5.66 0.24,11.83 0.44,17.71 z m -4.61,-15.78 c 0,0 -0.26,5.75 -0.3,7.11 -0.04,1.36 0.37,5.93 0.59,6.51 0.22,0.6 0.41,1.48 0.41,1.48 0,0 0.26,-8.35 0.03,-10.34 -0.22,-1.99 -0.73,-4.75 -0.73,-4.75 z"
               id="path78" />
            <path
               class="cls-10"
               d="m 6419.83,2046.16 v 3.2 c -1.05,-0.08 -2.1,-0.15 -3.14,-0.22 0,5.8 -0.59,11.69 -1.18,17.59 1.43,0.08 2.87,0.16 4.32,0.25 v 3.22 c -1.56,-0.12 -3.1,-0.23 -4.64,-0.32 -0.21,2.06 -0.41,4.13 -0.57,6.19 h -10.1 c 0.23,-2.19 0.45,-4.36 0.66,-6.61 -1.62,-0.04 -3.23,-0.06 -4.85,-0.08 -0.04,2.41 -0.09,4.82 -0.17,7.31 h -8.14 c 0.1,-2.4 0.19,-4.85 0.25,-7.29 -0.89,0.01 -1.78,0.02 -2.67,0.04 -0.12,2.48 -0.27,4.91 -0.46,7.26 h -8.13 c 0.16,-2.23 0.29,-4.61 0.4,-7.06 -0.94,0.03 -1.87,0.06 -2.81,0.09 0.08,2.35 0.15,4.68 0.25,6.97 h -8.13 c -0.08,-2.27 -0.13,-4.49 -0.17,-6.69 -1.81,0.07 -3.61,0.14 -5.42,0.2 v -3.22 c 1.79,-0.05 3.57,-0.11 5.36,-0.16 -0.09,-5.58 -0.22,-11.23 -0.79,-17.61 -1.52,0.05 -3.04,0.11 -4.57,0.16 v -3.2 c 1.42,-0.05 2.84,-0.09 4.25,-0.14 -0.24,-2.27 -0.54,-4.63 -0.93,-7.13 1.11,-1.18 2.23,-2.36 3.33,-3.54 1.6,1.18 3.2,2.36 4.8,3.54 0.38,2.18 0.67,4.48 0.91,6.88 1.51,-0.04 3.03,-0.08 4.56,-0.12 0.1,-3.95 0.25,-7.55 0.47,-10.48 1.61,-1.18 3.21,-2.36 4.81,-3.54 1.11,1.18 2.22,2.36 3.33,3.54 -0.17,3.23 -0.28,6.7 -0.37,10.31 1.04,-0.01 2.08,-0.02 3.14,-0.03 0.22,-2.29 0.5,-4.49 0.86,-6.57 1.61,-1.18 3.2,-2.36 4.8,-3.54 1.11,1.18 2.22,2.36 3.33,3.54 -0.35,2.3 -0.64,4.49 -0.88,6.58 1.52,0.01 3.05,0.04 4.59,0.08 -0.02,-1.79 -0.06,-3.69 -0.11,-5.7 1.91,-1.27 3.83,-2.53 5.73,-3.8 1.46,1.27 2.92,2.53 4.38,3.8 0.27,2.02 0.43,4.06 0.52,6.11 1.05,0.06 2.12,0.13 3.19,0.2 v 0 z m -8.32,0.73 c -0.44,0 -0.79,0.35 -0.79,0.79 0,0.44 0.35,0.79 0.79,0.79 0.44,0 0.79,-0.35 0.79,-0.79 0,-0.44 -0.35,-0.79 -0.79,-0.79 z m -38.03,0.05 c -0.44,0 -0.8,0.35 -0.8,0.79 0,0.44 0.36,0.79 0.8,0.79 0.44,0 0.79,-0.36 0.79,-0.79 0,-0.43 -0.35,-0.79 -0.79,-0.79 z m 0.98,20.69 c -0.43,0 -0.78,0.35 -0.78,0.79 0,0.44 0.35,0.79 0.78,0.79 0.43,0 0.79,-0.35 0.79,-0.79 0,-0.44 -0.35,-0.79 -0.79,-0.79 z m 21.73,-0.37 c -0.44,0 -0.8,0.35 -0.8,0.79 0,0.44 0.36,0.79 0.8,0.79 0.44,0 0.79,-0.35 0.79,-0.79 0,-0.44 -0.36,-0.79 -0.79,-0.79 z m -10.97,0.29 c -0.44,0 -0.79,0.35 -0.79,0.79 0,0.44 0.35,0.78 0.79,0.78 0.44,0 0.79,-0.35 0.79,-0.78 0,-0.43 -0.35,-0.79 -0.79,-0.79 z m 1.39,-21.2 c -0.43,0 -0.79,0.35 -0.79,0.79 0,0.44 0.36,0.8 0.79,0.8 0.43,0 0.79,-0.35 0.79,-0.8 0,-0.45 -0.36,-0.79 -0.79,-0.79 z m 10.68,-0.14 c -0.44,0 -0.79,0.35 -0.79,0.79 0,0.44 0.35,0.79 0.79,0.79 0.44,0 0.79,-0.35 0.79,-0.79 0,-0.44 -0.35,-0.79 -0.79,-0.79 z m 13.25,21.42 c -0.43,0 -0.79,0.35 -0.79,0.79 0,0.44 0.36,0.79 0.79,0.79 0.43,0 0.8,-0.35 0.8,-0.79 0,-0.44 -0.36,-0.79 -0.8,-0.79 z m -5.09,-1.27 c 0.4,-4.92 0.69,-10.45 0.69,-17.72 -1.64,-0.04 -3.29,-0.07 -4.92,-0.09 -0.6,6.44 -0.74,12.13 -0.84,17.73 1.68,0.02 3.37,0.04 5.07,0.08 z m -13.08,-0.07 c 0.17,-6.06 0.34,-12.11 0.77,-17.74 -0.98,0 -1.96,0.02 -2.93,0.03 -0.12,5.81 -0.23,11.88 -0.46,17.74 0.87,-0.02 1.74,-0.03 2.62,-0.03 z m -10.85,0.2 c 0.21,-5.88 0.31,-12.05 0.44,-17.71 -1.4,0.04 -2.8,0.08 -4.21,0.13 0.42,5.6 0.58,11.64 0.76,17.65 1.01,-0.02 2,-0.06 3.01,-0.07 z m 3.88,-11.03 c -0.22,1.99 0.04,10.34 0.04,10.34 0,0 0.19,-0.88 0.4,-1.48 0.22,-0.59 0.63,-5.15 0.59,-6.51 -0.03,-1.36 -0.29,-7.11 -0.29,-7.11 0,0 -0.51,2.76 -0.74,4.75 z"
               id="path79" />
            <path
               class="cls-10"
               d="m 6522.69,2046.16 v 3.2 c -1.04,-0.08 -2.1,-0.15 -3.14,-0.22 0,5.8 -0.59,11.69 -1.18,17.59 1.42,0.08 2.87,0.16 4.32,0.25 v 3.22 c -1.55,-0.12 -3.1,-0.23 -4.64,-0.32 -0.2,2.06 -0.4,4.13 -0.56,6.19 h -10.11 c 0.23,-2.19 0.45,-4.36 0.66,-6.61 -1.62,-0.04 -3.23,-0.06 -4.85,-0.08 -0.04,2.41 -0.09,4.82 -0.17,7.31 h -8.14 c 0.1,-2.4 0.19,-4.85 0.25,-7.29 -0.89,0.01 -1.78,0.02 -2.67,0.04 -0.12,2.48 -0.27,4.91 -0.47,7.26 h -8.13 c 0.16,-2.23 0.3,-4.61 0.4,-7.06 -0.94,0.03 -1.87,0.06 -2.81,0.09 0.07,2.35 0.15,4.68 0.25,6.97 h -8.13 c -0.08,-2.27 -0.13,-4.49 -0.16,-6.69 -1.81,0.07 -3.61,0.14 -5.42,0.2 v -3.22 c 1.79,-0.05 3.57,-0.11 5.36,-0.16 -0.09,-5.58 -0.22,-11.23 -0.79,-17.61 -1.52,0.05 -3.04,0.11 -4.57,0.16 v -3.2 c 1.42,-0.05 2.84,-0.09 4.25,-0.14 -0.24,-2.27 -0.54,-4.63 -0.93,-7.13 1.11,-1.17 2.23,-2.36 3.33,-3.54 1.6,1.18 3.2,2.36 4.8,3.54 0.38,2.18 0.67,4.48 0.9,6.88 1.52,-0.04 3.03,-0.08 4.56,-0.12 0.1,-3.95 0.25,-7.55 0.47,-10.48 1.6,-1.18 3.21,-2.36 4.8,-3.54 1.11,1.18 2.22,2.36 3.33,3.54 -0.17,3.23 -0.28,6.7 -0.37,10.31 1.04,-0.01 2.08,-0.02 3.14,-0.03 0.22,-2.29 0.5,-4.49 0.86,-6.57 1.61,-1.17 3.2,-2.36 4.81,-3.54 1.11,1.18 2.22,2.36 3.33,3.54 -0.35,2.3 -0.64,4.49 -0.87,6.58 1.51,0.01 3.05,0.04 4.58,0.08 -0.02,-1.79 -0.06,-3.69 -0.11,-5.7 1.91,-1.27 3.82,-2.53 5.73,-3.8 1.46,1.27 2.91,2.53 4.37,3.8 0.28,2.02 0.43,4.06 0.52,6.11 1.05,0.06 2.12,0.13 3.2,0.2 v 0 z m -8.32,0.73 c -0.44,0 -0.79,0.35 -0.79,0.79 0,0.44 0.35,0.79 0.79,0.79 0.44,0 0.79,-0.35 0.79,-0.79 0,-0.44 -0.35,-0.79 -0.79,-0.79 z m -38.03,0.05 c -0.43,0 -0.79,0.35 -0.79,0.79 0,0.44 0.36,0.79 0.79,0.79 0.43,0 0.79,-0.36 0.79,-0.79 0,-0.43 -0.35,-0.79 -0.79,-0.79 z m 0.98,20.69 c -0.43,0 -0.79,0.35 -0.79,0.79 0,0.44 0.35,0.79 0.79,0.79 0.44,0 0.8,-0.35 0.8,-0.79 0,-0.44 -0.35,-0.79 -0.8,-0.79 z m 21.72,-0.37 c -0.44,0 -0.79,0.35 -0.79,0.79 0,0.44 0.35,0.8 0.79,0.8 0.44,0 0.79,-0.35 0.79,-0.8 0,-0.45 -0.35,-0.79 -0.79,-0.79 z m -10.96,0.29 c -0.45,0 -0.8,0.35 -0.8,0.79 0,0.44 0.35,0.78 0.8,0.78 0.45,0 0.79,-0.35 0.79,-0.78 0,-0.43 -0.35,-0.79 -0.79,-0.79 z m 1.39,-21.2 c -0.44,0 -0.8,0.35 -0.8,0.79 0,0.44 0.36,0.8 0.8,0.8 0.44,0 0.8,-0.35 0.8,-0.8 0,-0.45 -0.36,-0.79 -0.8,-0.79 z m 10.67,-0.14 c -0.43,0 -0.78,0.35 -0.78,0.79 0,0.44 0.35,0.79 0.78,0.79 0.43,0 0.79,-0.35 0.79,-0.79 0,-0.44 -0.35,-0.79 -0.79,-0.79 z m 13.26,21.42 c -0.44,0 -0.8,0.35 -0.8,0.79 0,0.44 0.36,0.79 0.8,0.79 0.44,0 0.79,-0.35 0.79,-0.79 0,-0.44 -0.36,-0.79 -0.79,-0.79 z m -5.09,-1.27 c 0.4,-4.92 0.68,-10.45 0.69,-17.72 -1.64,-0.04 -3.28,-0.07 -4.92,-0.09 -0.6,6.45 -0.74,12.13 -0.84,17.73 1.68,0.01 3.36,0.04 5.07,0.08 z m -13.08,-0.07 c 0.17,-6.06 0.34,-12.11 0.78,-17.74 -0.99,0 -1.96,0.02 -2.94,0.03 -0.13,5.81 -0.23,11.88 -0.46,17.74 0.87,-0.02 1.74,-0.03 2.62,-0.03 z m -10.85,0.2 c 0.21,-5.88 0.31,-12.05 0.44,-17.71 -1.41,0.04 -2.8,0.08 -4.21,0.13 0.42,5.6 0.58,11.64 0.75,17.65 1,-0.02 2,-0.05 3.01,-0.07 v 0 z m 3.88,-11.03 c -0.22,1.99 0.04,10.34 0.04,10.34 0,0 0.18,-0.88 0.41,-1.48 0.22,-0.59 0.63,-5.15 0.59,-6.51 -0.04,-1.36 -0.29,-7.11 -0.29,-7.11 0,0 -0.52,2.76 -0.74,4.75 z"
               id="path80" />
          </g>
        </g>
        <g
           id="g89">
          <g
             id="g82">
            <path
               class="cls-1"
               d="m 6956.96,2229.45 c 7.33,0.07 14.65,0.4 21.98,0.99 l 3.5,0.31 c 4.22,0.39 8.45,0.87 12.68,1.45 v 4.24 h -81.15 v -4.24 c 4.07,-0.55 8.13,-1.02 12.2,-1.41 l 3.5,-0.31 c 7.94,-0.67 15.86,-1.01 23.79,-1.04 h 3.5 z"
               id="path81" />
            <path
               class="cls-14"
               d="m 6978.94,2230.45 v -21.4 c -4.86,-0.55 -6.42,-3.77 -5.77,-9.43 3.96,-0.08 6.38,2.09 7.53,5.15 1.15,-3.06 3.58,-5.23 7.54,-5.15 0.65,5.69 -0.91,8.89 -5.8,9.43 v 21.71 z m -25.48,-1.01 v -20.35 0 c -7.37,-0.5 -9.71,-4.97 -8.77,-13.11 5.48,-0.12 8.82,2.88 10.41,7.12 1.59,-4.24 4.95,-7.24 10.42,-7.12 0.92,8.05 -1.37,12.52 -8.56,13.09 v 20.38 h -3.5 z m -27.3,1.35 v -21.74 c -4.87,-0.55 -6.41,-3.77 -5.77,-9.43 3.96,-0.08 6.38,2.09 7.54,5.15 1.16,-3.06 3.58,-5.23 7.53,-5.15 0.65,5.69 -0.9,8.89 -5.8,9.43 v 21.43 z m 6.39,-51.08 v -10.53 h 2.63 v 10.53 z m -3.98,0 v -12.7 h 2.62 v 12.7 z m -8.02,0 v -10.53 h 2.64 v 10.53 z m 4.04,0 v -12.7 h 2.62 v 12.7 z m 3.34,10.66 c -6.25,0.06 -8.27,-3.2 -7.54,-9.51 3.96,-0.09 6.38,2.08 7.54,5.15 1.16,-3.07 3.58,-5.24 7.53,-5.15 0.73,6.31 -1.27,9.56 -7.53,9.51 z m 0,9.57 c 6.26,0.06 8.26,-3.22 7.53,-9.52 -3.96,-0.08 -6.38,2.09 -7.53,5.16 -1.15,-3.07 -3.57,-5.24 -7.54,-5.16 -0.73,6.3 1.29,9.58 7.54,9.52 z m 57.4,-20.23 v -10.53 h 2.63 v 10.53 z m -3.98,0 v -12.7 h 2.62 v 12.7 z m -8.03,0 v -10.53 h 2.63 v 10.53 z m 4.04,0 v -12.7 h 2.63 v 12.7 z m 3.34,10.66 c -6.26,0.06 -8.26,-3.2 -7.53,-9.51 3.96,-0.09 6.38,2.08 7.53,5.15 1.15,-3.07 3.58,-5.24 7.54,-5.15 0.72,6.31 -1.27,9.56 -7.54,9.51 z m 0,9.57 c 6.27,0.06 8.26,-3.22 7.54,-9.52 -3.96,-0.08 -6.39,2.09 -7.54,5.16 -1.14,-3.07 -3.57,-5.24 -7.53,-5.16 -0.73,6.3 1.27,9.58 7.53,9.52 z m -18.94,-31.48 v -14.57 h 3.64 v 14.57 z m -5.78,0 v -17.57 h 3.64 v 17.57 z m -11.09,0 v -14.57 h 3.63 v 14.57 z m 5.58,0 v -17.57 h 3.63 v 17.57 z m 4.63,14.74 c -8.66,0.07 -11.41,-4.44 -10.41,-13.14 5.48,-0.12 8.82,2.88 10.41,7.12 1.59,-4.25 4.95,-7.25 10.42,-7.12 1,8.7 -1.76,13.22 -10.42,13.14 z m 0,13.22 c 8.66,0.08 11.42,-4.44 10.42,-13.15 -5.47,-0.13 -8.83,2.88 -10.42,7.12 -1.59,-4.24 -4.93,-7.25 -10.41,-7.12 -1,8.7 1.76,13.23 10.41,13.15 z"
               id="path82" />
          </g>
          <g
             id="g84">
            <path
               class="cls-1"
               d="m 7038.12,2229.45 c 7.33,0.07 14.65,0.4 21.98,0.99 l 3.5,0.31 c 4.23,0.39 8.45,0.87 12.68,1.45 v 4.24 h -81.16 v -4.24 c 4.07,-0.55 8.14,-1.02 12.2,-1.41 l 3.5,-0.31 c 7.94,-0.67 15.86,-1.01 23.79,-1.04 h 3.5 z"
               id="path83" />
            <path
               class="cls-14"
               d="m 7060.1,2230.45 v -21.4 c -4.86,-0.55 -6.42,-3.77 -5.77,-9.43 3.96,-0.08 6.39,2.09 7.53,5.15 1.15,-3.06 3.58,-5.23 7.54,-5.15 0.65,5.69 -0.91,8.89 -5.8,9.43 v 21.71 z m -25.49,-1.01 v -20.35 0 c -7.37,-0.5 -9.71,-4.97 -8.78,-13.11 5.48,-0.12 8.83,2.88 10.41,7.12 1.59,-4.24 4.95,-7.24 10.42,-7.12 0.92,8.05 -1.37,12.52 -8.56,13.09 v 20.38 h -3.5 z m -27.29,1.35 v -21.74 c -4.87,-0.55 -6.41,-3.77 -5.77,-9.43 3.97,-0.08 6.39,2.09 7.54,5.15 1.16,-3.06 3.58,-5.23 7.53,-5.15 0.65,5.69 -0.9,8.89 -5.8,9.43 v 21.43 z m 6.39,-51.08 v -10.53 h 2.63 v 10.53 z m -3.98,0 v -12.7 h 2.62 v 12.7 z m -8.03,0 v -10.53 h 2.64 v 10.53 z m 4.04,0 v -12.7 h 2.63 v 12.7 z m 3.35,10.66 c -6.25,0.06 -8.27,-3.2 -7.54,-9.51 3.97,-0.09 6.39,2.08 7.54,5.15 1.16,-3.07 3.58,-5.24 7.53,-5.15 0.73,6.31 -1.27,9.56 -7.53,9.51 z m 0,9.57 c 6.26,0.06 8.26,-3.22 7.53,-9.52 -3.96,-0.08 -6.38,2.09 -7.53,5.16 -1.15,-3.07 -3.57,-5.24 -7.54,-5.16 -0.73,6.3 1.28,9.58 7.54,9.52 z m 57.39,-20.23 v -10.53 h 2.63 v 10.53 z m -3.98,0 v -12.7 h 2.62 v 12.7 z m -8.03,0 v -10.53 h 2.63 v 10.53 z m 4.04,0 v -12.7 h 2.63 v 12.7 z m 3.35,10.66 c -6.26,0.06 -8.26,-3.2 -7.53,-9.51 3.96,-0.09 6.39,2.08 7.53,5.15 1.15,-3.07 3.58,-5.24 7.54,-5.15 0.72,6.31 -1.27,9.56 -7.54,9.51 z m 0,9.57 c 6.27,0.06 8.26,-3.22 7.54,-9.52 -3.96,-0.08 -6.39,2.09 -7.54,5.16 -1.14,-3.07 -3.57,-5.24 -7.53,-5.16 -0.73,6.3 1.27,9.58 7.53,9.52 z m -18.95,-31.48 v -14.57 h 3.64 v 14.57 z m -5.78,0 v -17.57 h 3.64 v 17.57 z m -11.08,0 v -14.57 h 3.63 v 14.57 z m 5.57,0 v -17.57 h 3.63 v 17.57 z m 4.63,14.74 c -8.66,0.07 -11.4,-4.44 -10.41,-13.14 5.48,-0.12 8.83,2.88 10.41,7.12 1.59,-4.25 4.95,-7.25 10.42,-7.12 1,8.7 -1.76,13.22 -10.42,13.14 z m 0,13.22 c 8.66,0.08 11.42,-4.44 10.42,-13.15 -5.47,-0.13 -8.83,2.88 -10.42,7.12 -1.59,-4.24 -4.93,-7.25 -10.41,-7.12 -0.99,8.7 1.76,13.23 10.41,13.15 z"
               id="path84" />
          </g>
          <g
             id="g86">
            <path
               class="cls-1"
               d="m 7119.27,2229.45 c 7.33,0.07 14.65,0.4 21.98,0.99 l 3.5,0.31 c 4.22,0.39 8.45,0.87 12.68,1.45 v 4.24 h -81.15 v -4.24 c 4.07,-0.55 8.13,-1.02 12.2,-1.41 l 3.5,-0.31 c 7.94,-0.67 15.86,-1.01 23.8,-1.04 h 3.5 z"
               id="path85" />
            <path
               class="cls-14"
               d="m 7141.25,2230.45 v -21.4 c -4.87,-0.55 -6.42,-3.77 -5.76,-9.43 3.95,-0.08 6.38,2.09 7.53,5.15 1.15,-3.06 3.58,-5.23 7.54,-5.15 0.65,5.69 -0.9,8.89 -5.8,9.43 v 21.71 l -3.5,-0.31 z m -25.48,-1.01 v -20.35 0 c -7.37,-0.5 -9.71,-4.97 -8.78,-13.11 5.48,-0.12 8.83,2.88 10.41,7.12 1.59,-4.24 4.95,-7.24 10.42,-7.12 0.93,8.05 -1.37,12.52 -8.56,13.09 v 20.38 h -3.5 z m -27.29,1.35 v -21.74 c -4.87,-0.55 -6.41,-3.77 -5.77,-9.43 3.97,-0.08 6.38,2.09 7.54,5.15 1.15,-3.06 3.57,-5.23 7.53,-5.15 0.65,5.69 -0.9,8.89 -5.8,9.43 v 21.43 z m 6.38,-51.08 v -10.53 h 2.62 v 10.53 z m -3.98,0 v -12.7 h 2.62 v 12.7 z m -8.02,0 v -10.53 h 2.64 v 10.53 z m 4.04,0 v -12.7 h 2.63 v 12.7 z m 3.34,10.66 c -6.25,0.06 -8.27,-3.2 -7.54,-9.51 3.97,-0.09 6.38,2.08 7.54,5.15 1.15,-3.07 3.57,-5.24 7.53,-5.15 0.73,6.31 -1.27,9.56 -7.53,9.51 z m 0,9.57 c 6.26,0.06 8.26,-3.22 7.53,-9.52 -3.96,-0.08 -6.38,2.09 -7.53,5.16 -1.15,-3.07 -3.57,-5.24 -7.54,-5.16 -0.73,6.3 1.28,9.58 7.54,9.52 z m 57.4,-20.23 v -10.53 h 2.63 v 10.53 z m -3.98,0 v -12.7 h 2.62 v 12.7 z m -8.03,0 v -10.53 h 2.63 v 10.53 z m 4.04,0 v -12.7 h 2.63 v 12.7 z m 3.35,10.66 c -6.26,0.06 -8.26,-3.2 -7.53,-9.51 3.95,-0.09 6.38,2.08 7.53,5.15 1.15,-3.07 3.58,-5.24 7.54,-5.15 0.72,6.31 -1.27,9.56 -7.54,9.51 z m 0,9.57 c 6.27,0.06 8.26,-3.22 7.54,-9.52 -3.96,-0.08 -6.39,2.09 -7.54,5.16 -1.14,-3.07 -3.57,-5.24 -7.53,-5.16 -0.74,6.3 1.26,9.58 7.53,9.52 z m -18.95,-31.48 v -14.57 h 3.65 v 14.57 z m -5.78,0 v -17.57 h 3.64 v 17.57 z m -11.08,0 v -14.57 h 3.63 v 14.57 z m 5.57,0 v -17.57 h 3.63 v 17.57 z m 4.63,14.74 c -8.66,0.07 -11.41,-4.44 -10.41,-13.14 5.48,-0.12 8.83,2.88 10.41,7.12 1.59,-4.25 4.95,-7.25 10.42,-7.12 1,8.7 -1.76,13.22 -10.42,13.14 z m 0,13.22 c 8.66,0.08 11.42,-4.44 10.42,-13.15 -5.47,-0.13 -8.83,2.88 -10.42,7.12 -1.59,-4.24 -4.93,-7.25 -10.41,-7.12 -0.99,8.7 1.76,13.23 10.41,13.15 z"
               id="path86" />
          </g>
          <g
             id="g88">
            <path
               class="cls-1"
               d="m 7200.43,2229.45 c 7.33,0.07 14.65,0.4 21.98,0.99 l 3.5,0.31 c 4.23,0.39 8.45,0.87 12.68,1.45 v 4.24 h -81.16 v -4.24 c 4.07,-0.55 8.14,-1.02 12.2,-1.41 l 3.5,-0.31 c 7.94,-0.67 15.86,-1.01 23.8,-1.04 h 3.5 z"
               id="path87" />
            <path
               class="cls-14"
               d="m 7222.41,2230.45 v -21.4 c -4.87,-0.55 -6.42,-3.77 -5.76,-9.43 3.95,-0.08 6.39,2.09 7.53,5.15 1.15,-3.06 3.58,-5.23 7.54,-5.15 0.65,5.69 -0.91,8.89 -5.8,9.43 v 21.71 l -3.5,-0.31 z m -25.48,-1.01 v -20.35 0 c -7.37,-0.5 -9.71,-4.97 -8.78,-13.11 5.48,-0.12 8.83,2.88 10.41,7.12 1.59,-4.24 4.95,-7.24 10.42,-7.12 0.93,8.05 -1.36,12.52 -8.56,13.09 v 20.38 h -3.5 z m -27.3,1.35 v -21.74 c -4.87,-0.55 -6.41,-3.77 -5.77,-9.43 3.96,-0.08 6.38,2.09 7.54,5.15 1.15,-3.06 3.57,-5.23 7.53,-5.15 0.65,5.69 -0.9,8.89 -5.8,9.43 v 21.43 z m 6.39,-51.08 v -10.53 h 2.62 v 10.53 z m -3.98,0 v -12.7 h 2.63 v 12.7 z m -8.02,0 v -10.53 h 2.64 v 10.53 z m 4.04,0 v -12.7 h 2.62 v 12.7 z m 3.34,10.66 c -6.26,0.06 -8.27,-3.2 -7.54,-9.51 3.96,-0.09 6.38,2.08 7.54,5.15 1.15,-3.07 3.57,-5.24 7.53,-5.15 0.72,6.31 -1.27,9.56 -7.53,9.51 z m 0,9.57 c 6.26,0.06 8.26,-3.22 7.53,-9.52 -3.96,-0.08 -6.38,2.09 -7.53,5.16 -1.16,-3.06 -3.58,-5.24 -7.54,-5.16 -0.73,6.3 1.28,9.58 7.54,9.52 z m 57.39,-20.23 v -10.53 h 2.63 v 10.53 z m -3.98,0 v -12.7 h 2.62 v 12.7 z m -8.02,0 v -10.53 h 2.63 v 10.53 z m 4.04,0 v -12.7 h 2.63 v 12.7 z m 3.34,10.66 c -6.26,0.06 -8.26,-3.2 -7.53,-9.51 3.95,-0.09 6.39,2.08 7.53,5.15 1.15,-3.07 3.58,-5.24 7.54,-5.15 0.72,6.31 -1.27,9.56 -7.54,9.51 z m 0,9.57 c 6.27,0.06 8.26,-3.22 7.54,-9.52 -3.96,-0.08 -6.39,2.09 -7.54,5.16 -1.14,-3.06 -3.58,-5.24 -7.53,-5.16 -0.73,6.3 1.27,9.58 7.53,9.52 z m -18.95,-31.48 v -14.57 h 3.64 v 14.57 z m -5.78,0 v -17.57 h 3.65 v 17.57 z m -11.08,0 v -14.57 h 3.63 v 14.57 z m 5.57,0 v -17.57 h 3.63 v 17.57 z m 4.64,14.74 c -8.66,0.07 -11.41,-4.44 -10.41,-13.15 5.48,-0.12 8.83,2.88 10.41,7.12 1.59,-4.24 4.95,-7.25 10.42,-7.12 1,8.7 -1.76,13.22 -10.42,13.15 z m 0,13.22 c 8.66,0.08 11.42,-4.44 10.42,-13.15 -5.47,-0.13 -8.83,2.88 -10.42,7.12 -1.59,-4.24 -4.94,-7.25 -10.41,-7.12 -0.99,8.7 1.76,13.23 10.41,13.15 z"
               id="path88" />
          </g>
        </g>
        <path
           class="cls-28"
           d="m 6751.12,2214.94 c 416.62,4.77 490.78,191.9 827.01,203.02 H 6233.41 c 127.37,-93.74 277.31,-205.77 517.7,-203.02 z"
           id="path89" />
        <g
           id="g91">
          <path
             class="cls-5"
             d="m 6943.15,2405.45 v 11.74 h -13.21 v -11.74 h -19.19 l 3.93,-11.64 14.11,-12.78 -1.65,-2 -8.79,3.92 3.6,-10.66 13.79,-12.49 -1.65,-1.99 -8.52,3.78 11.28,-33.34 13.06,38.61 1.19,3.49 -7.5,-3.34 -1.65,1.99 12.52,11.35 4.01,11.85 -9.66,-4.3 -1.65,1.99 15.13,13.71 -0.05,-0.24 0.71,2.1 h -19.82 z m 68.31,-97.81 16.31,47.74 1.47,4.33 -9.35,-4.13 -2.06,2.47 15.64,14.02 5.01,14.66 -12.08,-5.31 -2.06,2.46 18.91,16.95 -0.06,-0.28 0.88,2.57 h -26.49 v 15.65 h -13.06 v -15.65 h -25.7 l 4.91,-14.4 17.64,-15.82 -2.06,-2.46 -10.98,4.84 4.5,-13.18 17.23,-15.44 -2.06,-2.46 -10.66,4.7 14.11,-41.27 v 0 z"
             id="path90" />
          <path
             class="cls-5"
             d="m 6990.15,2408.57 h -11.74 v 10.21 h 11.74 z m -11.11,-81.77 c -9.94,0 -18.02,7.93 -18.02,17.73 0,2.55 0.54,4.95 1.53,7.15 -4.39,2.75 -7.31,7.59 -7.31,13.1 0,6.65 4.25,12.32 10.21,14.54 -0.19,0.89 -0.3,1.82 -0.3,2.78 0,6.2 4.36,11.38 10.2,12.8 l 2.56,-7.54 1.21,-3.6 c 5.55,-16.41 10.4,-30.74 15.99,-47.25 -2.98,-5.76 -9.06,-9.69 -16.07,-9.69 z"
             id="path91" />
        </g>
        <path
           class="cls-22"
           d="m 6857.15,1827.05 h -0.67 l -0.55,0.55 h -14.5 l 15.71,27.94 h -0.67 l -0.55,0.55 h -22.36 v 20.63 l -1.32,1.21 h -21.17 l -1.2,-1.21 v -20.63 h -23.57 c 0.3,-1.89 5.55,-11.39 15.73,-28.49 h -15.73 v -1.2 l 35.15,-59.91 h 1.19 l 34.5,60.57 z m -69.1,-9.06 v 0.55 c 0,1.23 -1.6,4.88 -4.79,10.92 h 10.9 l 0.54,0.65 c 0.67,1.6 1.28,2.41 1.86,2.41 l -14.52,25.43 h 15.18 l 4.15,3.59 -1.21,1.2 h -15.71 v 13.98 l -1.19,1.21 h -14.53 l -1.19,-1.21 v -13.98 h -17.03 l -0.55,-0.55 11.47,-19.97 h -10.92 l -0.55,-0.66 25.43,-44.2 c 1.02,0.5 5.24,7.39 12.66,20.63 z"
           id="path92" />
        <path
           class="cls-23"
           d="m 6505.14,2368.07 h -0.67 l -0.54,0.54 h -14.5 l 15.71,27.94 h -0.67 l -0.54,0.55 h -22.37 v 20.63 l -1.31,1.21 h -21.17 l -1.2,-1.21 v -20.63 h -23.57 c 0.3,-1.89 5.55,-11.39 15.73,-28.49 h -15.73 v -1.2 l 35.15,-59.91 h 1.19 l 34.51,60.57 z m -69.1,-9.05 v 0.54 c 0,1.24 -1.6,4.88 -4.79,10.92 h 10.9 l 0.54,0.65 c 0.67,1.6 1.28,2.41 1.87,2.41 l -14.52,25.43 h 15.18 l 4.14,3.6 -1.2,1.19 h -15.71 v 13.97 l -1.19,1.21 h -14.53 l -1.19,-1.21 v -13.97 h -17.03 l -0.54,-0.55 11.47,-19.97 h -10.92 l -0.54,-0.65 25.43,-44.21 c 1.02,0.51 5.24,7.39 12.66,20.64 z"
           id="path93" />
        <path
           class="cls-22"
           d="m 6137.32,2188.94 h -0.67 l -0.54,0.54 h -14.5 l 15.71,27.94 h -0.67 l -0.54,0.55 h -22.37 v 20.63 l -1.32,1.2 h -21.17 l -1.21,-1.2 v -20.63 h -23.57 c 0.3,-1.89 5.55,-11.39 15.73,-28.48 h -15.73 v -1.2 l 35.15,-59.91 h 1.19 l 34.5,60.57 z m -69.1,-9.06 v 0.55 c 0,1.23 -1.6,4.88 -4.79,10.92 h 10.9 l 0.54,0.65 c 0.67,1.6 1.28,2.41 1.87,2.41 l -14.52,25.43 h 15.18 l 4.15,3.59 -1.2,1.21 h -15.71 v 13.98 l -1.19,1.2 h -14.53 l -1.19,-1.2 v -13.98 h -17.03 l -0.54,-0.55 11.47,-19.97 h -10.92 l -0.54,-0.66 25.43,-44.2 c 1.02,0.49 5.24,7.38 12.66,20.63 z"
           id="path94" />
      </g>
    </g>
  </g>
</svg>
