<?xml version="1.0" encoding="UTF-8"?>
<svg id="Layer_1" xmlns="http://www.w3.org/2000/svg" width="1920" height="1080" xmlns:xlink="http://www.w3.org/1999/xlink" version="1.1" viewBox="0 0 1920 1080">
  <!-- Generator: Adobe Illustrator 29.7.1, SVG Export Plug-In . SVG Version: 2.1.1 Build 8)  -->
  <defs>
    <style>
      .st0 {
        fill: #b37d4f;
      }

      .st0, .st1, .st2, .st3, .st4, .st5, .st6, .st7, .st8, .st9, .st10, .st11, .st12, .st13, .st14, .st15, .st16, .st17, .st18 {
        fill-rule: evenodd;
      }

      .st19 {
        fill: none;
      }

      .st20 {
        fill: url(#linear-gradient3);
      }

      .st21 {
        fill: url(#linear-gradient4);
      }

      .st1 {
        fill: url(#radial-gradient);
      }

      .st2, .st22 {
        fill: #807f81;
      }

      .st3, .st23 {
        fill: #38a429;
      }

      .st4, .st24 {
        fill: #009536;
      }

      .st5 {
        fill: #df2329;
      }

      .st6 {
        fill: #c1c2c5;
      }

      .st25 {
        fill: #00afeb;
      }

      .st7 {
        fill: #c6b595;
      }

      .st26, .st12 {
        fill: #b6ccd3;
      }

      .st27 {
        clip-path: url(#clippath-1);
      }

      .st28 {
        clip-path: url(#clippath-3);
      }

      .st29 {
        clip-path: url(#clippath-4);
      }

      .st30 {
        clip-path: url(#clippath-2);
      }

      .st8 {
        fill: #218e2a;
      }

      .st9 {
        fill: url(#radial-gradient1);
      }

      .st10 {
        fill: url(#radial-gradient2);
      }

      .st11 {
        fill: url(#linear-gradient);
      }

      .st31 {
        fill: #5dae42;
      }

      .st13 {
        fill: url(#linear-gradient1);
      }

      .st14 {
        fill: url(#linear-gradient2);
      }

      .st32 {
        fill: #50a825;
      }

      .st33 {
        fill: #2fbbed;
      }

      .st15 {
        fill: #7c461a;
      }

      .st16 {
        fill: #ffec00;
      }

      .st34 {
        fill: #7a6356;
      }

      .st35 {
        fill: #6bb24d;
      }

      .st17 {
        fill: #e5e5e5;
      }

      .st36 {
        fill: #00a2e8;
      }

      .st18 {
        fill: #f5ad2b;
      }

      .st37 {
        clip-path: url(#clippath);
      }

      .st38 {
        fill: #90bf5f;
      }
    </style>
    <clipPath id="clippath">
      <rect class="st19" width="1920" height="1080"/>
    </clipPath>
    <clipPath id="clippath-1">
      <rect class="st19" x="-1.75" y="-224.5" width="1978.5" height="1422"/>
    </clipPath>
    <radialGradient id="radial-gradient" cx="13571.49" cy="-8966.75" fx="13571.49" fy="-8966.75" r="59.25" gradientTransform="translate(-10532.53 7911.57) scale(.84)" gradientUnits="userSpaceOnUse">
      <stop offset=".43" stop-color="#fff"/>
      <stop offset=".74" stop-color="#ffea00"/>
      <stop offset="1" stop-color="#ef8b00"/>
    </radialGradient>
    <linearGradient id="linear-gradient" x1="1167.14" y1="-5941.53" x2="1167.14" y2="-5964.02" gradientTransform="translate(-481.07 6561.25) scale(1.03)" gradientUnits="userSpaceOnUse">
      <stop offset="0" stop-color="#ffeb25"/>
      <stop offset=".02" stop-color="#fee41f"/>
      <stop offset=".1" stop-color="#fbd20d"/>
      <stop offset=".19" stop-color="#fac603"/>
      <stop offset=".28" stop-color="#fac300"/>
      <stop offset=".67" stop-color="#ed882b"/>
      <stop offset=".89" stop-color="#e55e28"/>
      <stop offset="1" stop-color="#e13126"/>
    </linearGradient>
    <radialGradient id="radial-gradient1" cx="15668.59" cy="-8148.22" fx="15668.59" fy="-8148.22" r="59.25" gradientTransform="translate(51.3 6801.24) scale(.94)" gradientUnits="userSpaceOnUse">
      <stop offset=".43" stop-color="#fff"/>
      <stop offset=".74" stop-color="#ffea00"/>
      <stop offset="1" stop-color="#ef8b00"/>
    </radialGradient>
    <linearGradient id="linear-gradient1" x1="1511.15" y1="-5768.44" x2="1511.15" y2="-5790.92" gradientTransform="translate(-481.07 6561.25) scale(1.03)" gradientUnits="userSpaceOnUse">
      <stop offset="0" stop-color="#ffeb25"/>
      <stop offset=".02" stop-color="#fee41f"/>
      <stop offset=".1" stop-color="#fbd20d"/>
      <stop offset=".19" stop-color="#fac603"/>
      <stop offset=".28" stop-color="#fac300"/>
      <stop offset=".67" stop-color="#ed882b"/>
      <stop offset=".89" stop-color="#e55e28"/>
      <stop offset="1" stop-color="#e13126"/>
    </linearGradient>
    <radialGradient id="radial-gradient2" cx="15885.44" cy="-8364.45" fx="15885.44" fy="-8364.45" r="59.26" gradientTransform="translate(51.3 6801.24) scale(.94)" gradientUnits="userSpaceOnUse">
      <stop offset=".43" stop-color="#fff"/>
      <stop offset=".74" stop-color="#ffea00"/>
      <stop offset="1" stop-color="#ef8b00"/>
    </radialGradient>
    <linearGradient id="linear-gradient2" x1="1686.21" y1="-5941.92" x2="1686.21" y2="-5964.4" gradientTransform="translate(-481.07 6561.25) scale(1.03)" gradientUnits="userSpaceOnUse">
      <stop offset="0" stop-color="#ffeb25"/>
      <stop offset=".02" stop-color="#fee41f"/>
      <stop offset=".1" stop-color="#fbd20d"/>
      <stop offset=".19" stop-color="#fac603"/>
      <stop offset=".28" stop-color="#fac300"/>
      <stop offset=".67" stop-color="#ed882b"/>
      <stop offset=".89" stop-color="#e55e28"/>
      <stop offset="1" stop-color="#e13126"/>
    </linearGradient>
    <clipPath id="clippath-2">
      <rect class="st19" x="-1980" y="2280" width="1920" height="1080"/>
    </clipPath>
    <clipPath id="clippath-3">
      <rect class="st19" x="-1979.63" y="2041.42" width="1919.63" height="1411.35"/>
    </clipPath>
    <linearGradient id="linear-gradient3" x1="-1067.74" y1="-5015.49" x2="-1067.74" y2="-5843" gradientTransform="translate(0 6842)" gradientUnits="userSpaceOnUse">
      <stop offset="0" stop-color="#d8d8d8"/>
      <stop offset="1" stop-color="#838383"/>
    </linearGradient>
    <clipPath id="clippath-4">
      <rect class="st19" x="-3960" y="4560" width="1920" height="1080"/>
    </clipPath>
    <linearGradient id="linear-gradient4" x1="-3696.01" y1="-5959.28" x2="-3696.01" y2="-8249.28" gradientTransform="translate(.3 6832.63) scale(.7)" gradientUnits="userSpaceOnUse">
      <stop offset="0" stop-color="#b9e2f6"/>
      <stop offset="1" stop-color="#00b3eb"/>
    </linearGradient>
  </defs>
  <g id="Layer_1-2">
    <g class="st37">
      <g>
        <g class="st27">
          <g>
            <rect class="st36" x="-5544.82" y="-389.16" width="8724.81" height="3850.91"/>
            <path class="st25" d="M3055.03,1504.68c0,1060.11-1856.71,1919.46-4147.08,1919.46s-4147.08-859.35-4147.08-1919.46S-3382.42-414.81-1092.05-414.81,3055.03,444.56,3055.03,1504.68h0Z"/>
            <path class="st33" d="M2535.05,1260.86c0,928.95-1626.99,1682-3634,1681.99-2007.02,0-3634.02-753.04-3634.02-1681.99S-3105.97-421.16-1098.95-421.16,2535.05,331.9,2535.05,1260.86Z"/>
            <g>
              <path class="st38" d="M-1160.45,2575.19c-438.42,0-863.71-39.74-1264.06-118.11-192.38-37.66-377.93-84.27-551.48-138.54-171.86-53.74-333.46-115.45-480.3-183.42-146.77-67.93-280.01-142.67-396-222.14-117-80.16-217.46-165.82-298.6-254.61-82.51-90.29-145.86-184.73-188.29-280.7-43.46-98.3-65.5-199.46-65.5-300.65s22.04-202.34,65.5-300.65c42.43-95.97,105.78-190.41,188.28-280.7,81.14-88.79,181.6-174.46,298.6-254.61,115.99-79.47,249.23-154.21,396-222.14,146.85-67.97,308.44-129.68,480.3-183.42,173.55-54.27,359.1-100.88,551.48-138.55,400.35-78.38,825.64-118.11,1264.06-118.11s863.7,39.74,1264.05,118.11c192.38,37.66,377.93,84.28,551.48,138.55,171.86,53.74,333.46,115.45,480.3,183.42,146.77,67.94,280.01,142.67,396,222.14,117,80.16,217.46,165.82,298.6,254.61,82.51,90.29,145.86,184.73,188.29,280.7,43.46,98.31,65.5,199.46,65.5,300.65s-22.04,202.34-65.5,300.65c-42.43,95.97-105.78,190.41-188.29,280.7-81.14,88.79-181.6,174.45-298.6,254.61-115.99,79.47-249.23,154.21-396,222.14-146.85,67.97-308.44,129.68-480.3,183.42-173.55,54.27-359.1,100.88-551.48,138.54-400.34,78.37-825.63,118.11-1264.05,118.11h.01Z"/>
              <path class="st32" d="M-1160.45-414.81c220.15,0,440.15,10.26,653.9,30.51,208.29,19.73,413.16,49.16,608.92,87.49,192.16,37.62,377.47,84.17,550.81,138.37,171.6,53.66,332.94,115.27,479.53,183.12,146.45,67.79,279.38,142.35,395.08,221.62,116.6,79.88,216.69,165.22,297.5,253.66,82.04,89.78,145.02,183.65,187.17,278.98,43.1,97.49,64.96,197.78,64.96,298.08s-21.85,200.59-64.96,298.08c-42.15,95.34-105.12,189.2-187.17,278.98-80.81,88.43-180.91,173.77-297.5,253.65-115.7,79.27-248.62,153.83-395.08,221.61-146.6,67.85-307.93,129.46-479.53,183.12-173.33,54.2-358.65,100.75-550.81,138.37-195.76,38.32-400.63,67.76-608.92,87.48-213.75,20.24-433.76,30.51-653.9,30.51s-440.16-10.26-653.91-30.51c-208.29-19.73-413.16-49.16-608.93-87.48-192.16-37.62-377.47-84.17-550.81-138.37-171.6-53.66-332.94-115.27-479.53-183.12-146.45-67.78-279.38-142.35-395.08-221.61-116.6-79.88-216.69-165.22-297.5-253.65-82.04-89.78-145.01-183.64-187.16-278.98-43.1-97.49-64.95-197.78-64.95-298.08s21.85-200.59,64.95-298.08c42.15-95.34,105.12-189.2,187.16-278.98,80.81-88.43,180.9-173.77,297.5-253.66,115.7-79.27,248.62-153.83,395.08-221.62,146.6-67.85,307.93-129.46,479.53-183.12,173.33-54.2,358.65-100.76,550.81-138.37,195.76-38.32,400.63-67.76,608.93-87.49,213.75-20.24,433.76-30.51,653.91-30.51M-1160.45-427.52c-1795.26,0-3250.58,673.6-3250.58,1504.54s1455.33,1504.52,3250.58,1504.52,3250.58-673.58,3250.58-1504.52S634.79-427.52-1160.45-427.52h0Z"/>
            </g>
          </g>
        </g>
        <path class="st35" d="M493.42-37.5C194.93-34.35,141.78,88.75-99.11,96.06h963.46c-91.26-61.67-198.69-135.36-370.93-133.56h0Z"/>
        <path class="st35" d="M1635.24,1046.64c-298.5,3.15-351.64,126.25-592.53,133.56h963.47c-91.26-61.67-198.69-135.36-370.93-133.56h-.01Z"/>
        <path class="st35" d="M647.35,900.91c-249.6,2.33-294.05,93.54-495.48,98.95h805.65c-76.32-45.69-166.15-100.29-310.18-98.95h.01,0Z"/>
        <path class="st31" d="M543.53,242.3c-416.62,5.09-490.79,204.67-827.01,216.54h1344.72c-127.37-99.99-277.32-219.47-517.71-216.54h0Z"/>
        <g>
          <path class="st3" d="M861.62,82.14v11.74h-13.21v-11.74h-19.19l3.94-11.64,14.11-12.78-1.65-2-8.79,3.92,3.6-10.66,13.79-12.49-1.65-1.99-8.53,3.79,11.28-33.35,13.06,38.61,1.19,3.49-7.5-3.34-1.65,1.99,12.52,11.35,4.01,11.84-9.65-4.3-1.65,1.99,15.13,13.71-.05-.24.71,2.1h-19.82,0ZM929.93-15.67l16.31,47.74,1.47,4.33-9.35-4.13-2.06,2.47,15.64,14.02,5.01,14.66-12.08-5.31-2.06,2.46,18.91,16.95-.06-.28.88,2.58h-26.49v15.65h-13.06v-15.65h-25.71l4.92-14.4,17.64-15.83-2.06-2.46-10.99,4.84,4.51-13.18,17.23-15.44-2.06-2.46-10.66,4.7,14.11-41.26s.01,0,.01,0Z"/>
          <path class="st8" d="M908.62,85.26h-11.74v10.21h11.74v-10.21h0ZM897.51,3.49c-9.94,0-18.02,7.93-18.02,17.72,0,2.54.54,4.95,1.53,7.15-4.39,2.76-7.31,7.59-7.31,13.1,0,6.65,4.25,12.32,10.21,14.54-.18.89-.3,1.82-.3,2.78,0,6.19,4.36,11.38,10.2,12.8l2.56-7.54,1.21-3.6c5.55-16.42,10.4-30.74,15.99-47.25-2.98-5.76-9.06-9.69-16.07-9.69h0Z"/>
        </g>
        <path class="st23" d="M1486.86,406.49h-.67l-.54.55h-14.5l15.72,27.94h-.67l-.54.55h-22.37v20.63l-1.32,1.2h-21.17l-1.21-1.2v-20.63h-23.57c.3-1.89,5.55-11.39,15.73-28.49h-15.73v-1.2l35.15-59.91h1.19l34.51,60.57h-.01,0ZM1417.76,397.43v.54c0,1.23-1.6,4.88-4.79,10.92h10.9l.55.64c.67,1.6,1.28,2.41,1.86,2.41l-14.52,25.43h15.18l4.15,3.59-1.2,1.2h-15.72v13.98l-1.19,1.2h-14.53l-1.19-1.2v-13.98h-17.03l-.55-.55,11.47-19.97h-10.92l-.55-.66,25.43-44.2c1.02.5,5.24,7.39,12.66,20.63v.02h-.01Z"/>
        <g>
          <path class="st3" d="M683.78,626.61v11.74h-13.2v-11.74h-19.19l3.93-11.65,14.11-12.79-1.65-2-8.79,3.93,3.6-10.67,13.79-12.48-1.65-1.99-8.52,3.78,11.28-33.35,13.06,38.61,1.19,3.49-7.5-3.34-1.65,1.99,12.52,11.34,4.01,11.85-9.66-4.3-1.65,1.99,15.13,13.71-.05-.24.71,2.1h-19.82v.02h0ZM752.09,528.8l16.31,47.74,1.46,4.33-9.35-4.13-2.06,2.47,15.64,14.03,5.01,14.65-12.08-5.31-2.06,2.46,18.91,16.95-.06-.28.88,2.57h-26.49v15.65h-13.06v-15.65h-25.71l4.91-14.39,17.64-15.83-2.06-2.46-10.98,4.84,4.5-13.18,17.23-15.44-2.06-2.47-10.66,4.7,14.11-41.26h.03,0Z"/>
          <path class="st8" d="M730.78,629.72h-11.74v10.21h11.74v-10.21h0ZM719.67,547.96c-9.94,0-18.02,7.93-18.02,17.72,0,2.54.55,4.95,1.53,7.15-4.39,2.75-7.31,7.59-7.31,13.1,0,6.65,4.24,12.32,10.21,14.54-.19.89-.3,1.82-.3,2.78,0,6.19,4.36,11.38,10.2,12.8l2.56-7.54,1.22-3.61c5.55-16.41,10.4-30.74,15.99-47.25-2.98-5.76-9.06-9.69-16.07-9.69h-.01Z"/>
        </g>
        <g>
          <path class="st3" d="M139.79,626.61v11.74h-13.21v-11.74h-19.2l3.94-11.65,14.11-12.79-1.64-2-8.8,3.93,3.6-10.67,13.79-12.48-1.65-1.99-8.52,3.78,11.28-33.35,13.06,38.61,1.19,3.49-7.49-3.34-1.65,1.99,12.53,11.34,4,11.85-9.65-4.3-1.66,1.99,15.13,13.71-.04-.24.7,2.1h-19.82v.02h0ZM208.1,528.8l16.32,47.74,1.46,4.33-9.35-4.13-2.07,2.47,15.64,14.03,5.01,14.65-12.08-5.31-2.05,2.46,18.91,16.95-.06-.28.87,2.57h-26.48v15.65h-13.05v-15.65h-25.71l4.92-14.39,17.64-15.83-2.06-2.46-10.98,4.84,4.5-13.18,17.23-15.44-2.06-2.47-10.66,4.7,14.11-41.26h0Z"/>
          <path class="st8" d="M186.8,629.72h-11.74v10.21h11.74v-10.21h0ZM175.69,547.96c-9.95,0-18.03,7.93-18.03,17.72,0,2.54.55,4.95,1.52,7.15-4.39,2.75-7.31,7.59-7.31,13.1,0,6.65,4.25,12.32,10.22,14.54-.19.89-.3,1.82-.3,2.78,0,6.19,4.36,11.38,10.19,12.8l2.56-7.54,1.22-3.61c5.54-16.41,10.4-30.74,15.99-47.25-2.98-5.76-9.07-9.69-16.07-9.69h0Z"/>
        </g>
        <g>
          <path class="st3" d="M139.79,986.54v11.74h-13.21v-11.74h-19.2l3.94-11.65,14.11-12.78-1.64-2-8.8,3.93,3.6-10.67,13.79-12.49-1.65-1.99-8.52,3.79,11.28-33.35,13.06,38.61,1.19,3.49-7.49-3.34-1.65,1.99,12.53,11.34,4,11.85-9.65-4.3-1.66,1.99,15.13,13.71-.04-.24.7,2.1h-19.82ZM208.1,888.72l16.32,47.74,1.46,4.33-9.35-4.13-2.07,2.47,15.64,14.03,5.01,14.65-12.08-5.31-2.05,2.46,18.91,16.96-.06-.28.87,2.58h-26.48v15.64h-13.05v-15.64h-25.71l4.92-14.4,17.64-15.83-2.06-2.46-10.98,4.84,4.5-13.18,17.23-15.43-2.06-2.47-10.66,4.7,14.11-41.26h0Z"/>
          <path class="st8" d="M186.8,989.65h-11.74v10.21h11.74v-10.21h0ZM175.69,907.89c-9.95,0-18.03,7.92-18.03,17.72,0,2.55.55,4.95,1.52,7.15-4.39,2.76-7.31,7.59-7.31,13.1,0,6.65,4.25,12.32,10.22,14.54-.19.89-.3,1.82-.3,2.78,0,6.2,4.36,11.38,10.19,12.8l2.56-7.54,1.22-3.6c5.54-16.42,10.4-30.74,15.99-47.25-2.98-5.76-9.07-9.69-16.07-9.69h0Z"/>
        </g>
        <g>
          <path class="st4" d="M142.58,81.99v11.74h-13.2v-11.74h-19.19l3.93-11.64,14.11-12.78-1.65-2-8.79,3.92,3.6-10.66,13.79-12.49-1.65-1.99-8.53,3.78,11.28-33.35,13.06,38.61,1.19,3.49-7.5-3.34-1.65,1.99,12.52,11.34,4.01,11.85-9.66-4.3-1.65,1.99,15.13,13.71-.05-.24.71,2.1h-19.82,0ZM210.89-15.82l16.31,47.74,1.47,4.33-9.35-4.13-2.06,2.47,15.64,14.02,5.02,14.66-12.08-5.31-2.06,2.46,18.92,16.95-.06-.28.88,2.57h-26.49v15.65h-13.06v-15.65h-25.71l4.92-14.4,17.64-15.83-2.06-2.46-10.98,4.84,4.5-13.18,17.23-15.44-2.06-2.46-10.66,4.7,14.11-41.26h-.01Z"/>
          <path class="st4" d="M189.58,85.11h-11.74v10.21h11.74v-10.21h0ZM178.47,3.34c-9.94,0-18.02,7.93-18.02,17.73,0,2.54.54,4.95,1.53,7.15-4.39,2.75-7.31,7.59-7.31,13.1,0,6.65,4.24,12.32,10.21,14.54-.19.89-.3,1.82-.3,2.78,0,6.19,4.35,11.38,10.2,12.8l2.56-7.54,1.22-3.61c5.55-16.41,10.4-30.74,15.99-47.25-2.98-5.76-9.06-9.69-16.07-9.69h-.01Z"/>
        </g>
        <path class="st24" d="M775.05,44.61h-.66l-.55.54h-14.49l15.71,27.94h-.66l-.55.55h-22.37v20.63l-1.31,1.2h-21.17l-1.2-1.21v-20.63h-23.58c.3-1.89,5.55-11.39,15.73-28.48h-15.73v-1.2l35.15-59.91h1.19l34.51,60.58h-.02ZM705.95,35.55v.54c0,1.24-1.6,4.88-4.8,10.92h10.9l.54.65c.68,1.6,1.28,2.41,1.87,2.41l-14.52,25.43h15.18l4.14,3.59-1.2,1.2h-15.71v13.98l-1.2,1.2h-14.52l-1.19-1.2v-13.98h-17.03l-.55-.55,11.48-19.97h-10.93l-.55-.65,25.43-44.21c1.02.5,5.24,7.39,12.66,20.63h0Z"/>
        <path class="st23" d="M232.49,225.61h-.67l-.55.55h-14.5l15.71,27.94h-.67l-.55.55h-22.37v20.63l-1.31,1.2h-21.17l-1.2-1.2v-20.63h-23.57c.3-1.89,5.55-11.39,15.72-28.48h-15.72v-1.2l35.15-59.91h1.19l34.5,60.57v-.02h0ZM163.39,216.56v.54c0,1.23-1.6,4.88-4.79,10.92h10.9l.55.65c.67,1.6,1.28,2.41,1.86,2.41l-14.52,25.43h15.18l4.14,3.59-1.2,1.2h-15.71v13.98l-1.19,1.2h-14.53l-1.19-1.2v-13.98h-17.03l-.55-.55,11.47-19.97h-10.92l-.55-.65,25.43-44.2c1.02.5,5.24,7.38,12.66,20.63h0Z"/>
        <path class="st24" d="M591.72,406.93h-.67l-.54.55h-14.5l15.71,27.94h-.67l-.54.55h-22.37v20.63l-1.31,1.2h-21.18l-1.21-1.2v-20.63h-23.57c.3-1.89,5.55-11.39,15.72-28.49h-15.72v-1.2l35.15-59.91h1.19l34.5,60.57h.01,0ZM522.62,397.88v.53c0,1.24-1.6,4.88-4.79,10.92h10.9l.55.65c.67,1.6,1.28,2.41,1.86,2.41l-14.52,25.43h15.18l4.15,3.6-1.2,1.19h-15.71v13.98l-1.19,1.2h-14.54l-1.19-1.2v-13.98h-17.03l-.55-.55,11.47-19.97h-10.92l-.55-.65,25.43-44.21c1.02.51,5.24,7.39,12.66,20.64h-.01,0Z"/>
        <g>
          <g>
            <path class="st0" d="M868.45,271.22c7.33.07,14.65.39,21.98.99l3.5.3c4.23.4,8.45.88,12.68,1.45v4.23h-81.15v-4.23c4.07-.56,8.14-1.03,12.2-1.42l3.5-.31c7.94-.66,15.86-1,23.79-1.04h3.5v.03h0Z"/>
            <path class="st16" d="M890.42,272.21v-21.41c-4.86-.55-6.42-3.76-5.77-9.43,3.96-.08,6.39,2.09,7.53,5.15,1.15-3.06,3.58-5.23,7.54-5.15.65,5.68-.91,8.89-5.8,9.43v21.7l-3.5-.3h0ZM864.94,271.21v-20.36h0c-7.37-.49-9.71-4.97-8.77-13.1,5.48-.12,8.82,2.88,10.41,7.12,1.59-4.24,4.95-7.24,10.42-7.12.93,8.05-1.37,12.52-8.56,13.09v20.39h-3.5v-.02h0ZM837.65,272.55v-21.75c-4.87-.55-6.41-3.76-5.77-9.43,3.97-.08,6.39,2.09,7.54,5.15,1.15-3.06,3.58-5.23,7.53-5.15.65,5.68-.9,8.89-5.8,9.43v21.43l-3.5.31h0ZM844.03,221.47v-10.53h2.63v10.53h-2.63ZM840.06,221.47v-12.7h2.62v12.7h-2.62ZM832.03,221.47v-10.53h2.64v10.53h-2.64ZM836.07,221.47v-12.7h2.63v12.7h-2.63ZM839.42,232.13c-6.26.06-8.27-3.21-7.54-9.51,3.97-.09,6.39,2.08,7.54,5.14,1.15-3.07,3.58-5.24,7.53-5.14.73,6.3-1.27,9.56-7.53,9.51h0ZM839.42,241.7c6.26.06,8.26-3.22,7.53-9.51-3.96-.08-6.38,2.09-7.53,5.16-1.15-3.07-3.57-5.24-7.54-5.16-.73,6.3,1.28,9.58,7.54,9.51h0ZM896.81,221.47v-10.53h2.63v10.53h-2.63ZM892.83,221.47v-12.7h2.62v12.7h-2.62ZM884.8,221.47v-10.53h2.63v10.53h-2.63ZM888.84,221.47v-12.7h2.64v12.7h-2.64ZM892.19,232.13c-6.26.06-8.26-3.21-7.53-9.51,3.96-.09,6.39,2.08,7.53,5.14,1.15-3.07,3.58-5.24,7.54-5.14.72,6.3-1.27,9.56-7.54,9.51h0ZM892.19,241.7c6.27.06,8.26-3.22,7.54-9.51-3.96-.08-6.39,2.09-7.54,5.16-1.14-3.07-3.57-5.24-7.53-5.16-.73,6.3,1.27,9.58,7.53,9.51h0ZM873.24,210.22v-14.57h3.64v14.57h-3.64ZM867.46,210.22v-17.57h3.64v17.57h-3.64ZM856.38,210.22v-14.57h3.63v14.57h-3.63ZM861.95,210.22v-17.57h3.63v17.57h-3.63ZM866.58,224.95c-8.66.08-11.4-4.45-10.41-13.15,5.48-.12,8.82,2.88,10.41,7.12,1.59-4.24,4.95-7.25,10.42-7.12,1,8.7-1.76,13.23-10.42,13.15h0ZM866.58,238.17c8.66.09,11.42-4.44,10.42-13.14-5.47-.12-8.83,2.88-10.42,7.12-1.59-4.25-4.93-7.25-10.41-7.12-.99,8.7,1.76,13.23,10.41,13.14Z"/>
          </g>
          <g>
            <path class="st0" d="M949.6,271.22c7.33.07,14.65.39,21.98.99l3.5.3c4.23.4,8.45.88,12.68,1.45v4.23h-81.16v-4.23c4.07-.56,8.14-1.03,12.2-1.42l3.5-.31c7.94-.66,15.86-1,23.79-1.04h3.5v.03h.01Z"/>
            <path class="st16" d="M971.58,272.21v-21.41c-4.86-.55-6.42-3.76-5.76-9.43,3.95-.08,6.39,2.09,7.53,5.15,1.14-3.06,3.58-5.23,7.54-5.15.65,5.68-.9,8.89-5.8,9.43v21.7l-3.5-.3h-.01ZM946.1,271.21v-20.36h0c-7.37-.49-9.71-4.97-8.78-13.1,5.48-.12,8.82,2.88,10.41,7.12,1.59-4.24,4.95-7.24,10.42-7.12.93,8.05-1.37,12.52-8.56,13.09v20.39h-3.5v-.02h.01ZM918.8,272.55v-21.75c-4.87-.55-6.41-3.76-5.77-9.43,3.96-.08,6.39,2.09,7.54,5.15,1.16-3.06,3.57-5.23,7.53-5.15.65,5.68-.9,8.89-5.8,9.43v21.43l-3.5.31h0ZM925.19,221.47v-10.53h2.63v10.53h-2.63ZM921.21,221.47v-12.7h2.62v12.7h-2.62ZM913.19,221.47v-10.53h2.64v10.53h-2.64ZM917.23,221.47v-12.7h2.63v12.7h-2.63ZM920.57,232.13c-6.25.06-8.27-3.21-7.54-9.51,3.96-.09,6.39,2.08,7.54,5.14,1.16-3.07,3.57-5.24,7.53-5.14.73,6.3-1.27,9.56-7.53,9.51h0ZM920.57,241.7c6.26.06,8.26-3.22,7.53-9.51-3.96-.08-6.38,2.09-7.53,5.16-1.15-3.07-3.57-5.24-7.54-5.16-.73,6.3,1.28,9.58,7.54,9.51h0ZM977.97,221.47v-10.53h2.63v10.53h-2.63ZM973.99,221.47v-12.7h2.62v12.7h-2.62ZM965.96,221.47v-10.53h2.63v10.53h-2.63ZM970,221.47v-12.7h2.63v12.7h-2.63ZM973.35,232.13c-6.26.06-8.26-3.21-7.53-9.51,3.95-.09,6.39,2.08,7.53,5.14,1.14-3.07,3.58-5.24,7.54-5.14.72,6.3-1.27,9.56-7.54,9.51h0ZM973.35,241.7c6.27.06,8.26-3.22,7.54-9.51-3.96-.08-6.39,2.09-7.54,5.16-1.14-3.07-3.58-5.24-7.53-5.16-.74,6.3,1.27,9.58,7.53,9.51h0ZM954.4,210.22v-14.57h3.64v14.57h-3.64ZM948.62,210.22v-17.57h3.64v17.57h-3.64ZM937.54,210.22v-14.57h3.63v14.57h-3.63ZM943.11,210.22v-17.57h3.63v17.57h-3.63ZM947.74,224.95c-8.66.08-11.4-4.45-10.41-13.15,5.48-.12,8.82,2.88,10.41,7.12,1.59-4.24,4.95-7.25,10.42-7.12,1,8.7-1.76,13.23-10.42,13.15h0ZM947.74,238.17c8.66.09,11.42-4.45,10.42-13.15-5.47-.12-8.83,2.88-10.42,7.12-1.59-4.24-4.93-7.25-10.41-7.12-.99,8.7,1.76,13.23,10.41,13.15Z"/>
          </g>
          <g>
            <path class="st0" d="M1030.76,271.22c7.33.07,14.65.39,21.98.99l3.5.3c4.22.4,8.45.88,12.68,1.45v4.23h-81.16v-4.23c4.07-.56,8.14-1.03,12.2-1.42l3.5-.31c7.94-.66,15.87-1,23.8-1.04h3.5v.03h0Z"/>
            <path class="st16" d="M1052.74,272.21v-21.41c-4.87-.55-6.42-3.76-5.76-9.43,3.95-.08,6.39,2.09,7.53,5.15,1.15-3.06,3.58-5.23,7.54-5.15.65,5.68-.91,8.89-5.8,9.43v21.7l-3.5-.3h-.01ZM1027.25,271.21v-20.36h0c-7.37-.49-9.71-4.97-8.78-13.1,5.48-.12,8.82,2.88,10.41,7.12,1.59-4.24,4.95-7.24,10.42-7.12.92,8.05-1.36,12.52-8.56,13.09v20.39h-3.5v-.02h.01ZM999.96,272.55v-21.75c-4.87-.55-6.42-3.76-5.77-9.43,3.96-.08,6.38,2.09,7.54,5.15,1.15-3.06,3.57-5.23,7.53-5.15.65,5.68-.9,8.89-5.81,9.43v21.43l-3.5.31h.01ZM1006.35,221.47v-10.53h2.63v10.53h-2.63ZM1002.37,221.47v-12.7h2.63v12.7h-2.63ZM994.34,221.47v-10.53h2.64v10.53h-2.64ZM998.38,221.47v-12.7h2.63v12.7h-2.63ZM1001.73,232.13c-6.26.06-8.27-3.21-7.54-9.51,3.96-.09,6.38,2.08,7.54,5.14,1.15-3.07,3.57-5.24,7.53-5.14.73,6.3-1.27,9.56-7.53,9.51h0ZM1001.73,241.7c6.26.06,8.26-3.22,7.53-9.51-3.96-.08-6.38,2.09-7.53,5.16-1.16-3.07-3.58-5.24-7.54-5.16-.73,6.3,1.28,9.58,7.54,9.51h0ZM1059.12,221.47v-10.53h2.63v10.53h-2.63ZM1055.14,221.47v-12.7h2.62v12.7h-2.62ZM1047.11,221.47v-10.53h2.64v10.53h-2.64ZM1051.15,221.47v-12.7h2.63v12.7h-2.63ZM1054.5,232.13c-6.26.06-8.26-3.21-7.53-9.51,3.95-.09,6.39,2.08,7.53,5.14,1.15-3.07,3.58-5.24,7.54-5.14.72,6.3-1.27,9.56-7.54,9.51h0ZM1054.5,241.7c6.27.06,8.26-3.22,7.54-9.51-3.96-.08-6.39,2.09-7.54,5.16-1.14-3.07-3.58-5.24-7.53-5.16-.73,6.3,1.27,9.58,7.53,9.51h0ZM1035.55,210.22v-14.57h3.64v14.57h-3.64ZM1029.77,210.22v-17.57h3.65v17.57h-3.65ZM1018.69,210.22v-14.57h3.63v14.57h-3.63ZM1024.26,210.22v-17.57h3.63v17.57h-3.63ZM1028.89,224.95c-8.66.08-11.41-4.45-10.41-13.15,5.48-.12,8.82,2.88,10.41,7.12,1.59-4.24,4.95-7.25,10.42-7.12,1,8.7-1.76,13.23-10.42,13.15h0ZM1028.89,238.17c8.66.09,11.42-4.45,10.42-13.15-5.47-.12-8.83,2.88-10.42,7.12-1.59-4.24-4.93-7.25-10.41-7.12-.99,8.7,1.76,13.23,10.41,13.15Z"/>
          </g>
          <g>
            <path class="st0" d="M1111.91,271.22c7.33.07,14.65.39,21.98.99l3.5.3c4.22.4,8.45.88,12.68,1.45v4.23h-81.15v-4.23c4.07-.56,8.13-1.03,12.2-1.42l3.5-.31c7.94-.66,15.86-1,23.8-1.04h3.5v.03h-.01Z"/>
            <path class="st16" d="M1133.89,272.21v-21.41c-4.87-.55-6.42-3.76-5.76-9.43,3.95-.08,6.38,2.09,7.53,5.15,1.15-3.06,3.58-5.23,7.54-5.15.65,5.68-.91,8.89-5.8,9.43v21.7l-3.5-.3h-.01ZM1108.41,271.21v-20.36h0c-7.37-.49-9.71-4.97-8.77-13.1,5.48-.12,8.82,2.88,10.41,7.12,1.59-4.24,4.95-7.24,10.42-7.12.92,8.05-1.37,12.52-8.56,13.09v20.39h-3.5v-.02ZM1081.12,272.55v-21.75c-4.87-.55-6.41-3.76-5.77-9.43,3.96-.08,6.38,2.09,7.54,5.15,1.15-3.06,3.57-5.23,7.53-5.15.65,5.68-.9,8.89-5.8,9.43v21.43l-3.5.31h0ZM1087.5,221.47v-10.53h2.62v10.53h-2.62ZM1083.52,221.47v-12.7h2.63v12.7h-2.63ZM1075.5,221.47v-10.53h2.64v10.53h-2.64ZM1079.54,221.47v-12.7h2.63v12.7h-2.63ZM1082.89,232.13c-6.26.06-8.27-3.21-7.54-9.51,3.96-.09,6.38,2.08,7.54,5.14,1.15-3.07,3.57-5.24,7.53-5.14.73,6.3-1.27,9.56-7.53,9.51h0ZM1082.89,241.7c6.26.06,8.26-3.22,7.53-9.51-3.96-.08-6.38,2.09-7.53,5.16-1.16-3.07-3.58-5.24-7.54-5.16-.73,6.3,1.28,9.58,7.54,9.51h0ZM1140.28,221.47v-10.53h2.63v10.53h-2.63ZM1136.3,221.47v-12.7h2.62v12.7h-2.62ZM1128.27,221.47v-10.53h2.63v10.53h-2.63ZM1132.31,221.47v-12.7h2.63v12.7h-2.63ZM1135.66,232.13c-6.26.06-8.26-3.21-7.53-9.51,3.95-.09,6.38,2.08,7.53,5.14,1.15-3.07,3.58-5.24,7.54-5.14.72,6.3-1.27,9.56-7.54,9.51h0ZM1135.66,241.7c6.27.06,8.26-3.22,7.54-9.51-3.96-.08-6.39,2.09-7.54,5.16-1.14-3.07-3.57-5.24-7.53-5.16-.73,6.3,1.27,9.58,7.53,9.51h0ZM1116.71,210.22v-14.57h3.64v14.57h-3.64ZM1110.93,210.22v-17.57h3.64v17.57h-3.64ZM1099.85,210.22v-14.57h3.63v14.57h-3.63ZM1105.42,210.22v-17.57h3.63v17.57h-3.63ZM1110.05,224.95c-8.66.08-11.41-4.45-10.41-13.15,5.48-.12,8.82,2.88,10.41,7.12,1.59-4.24,4.95-7.25,10.42-7.12,1,8.7-1.76,13.23-10.42,13.15h0ZM1110.05,238.17c8.66.09,11.42-4.45,10.42-13.15-5.47-.12-8.83,2.88-10.42,7.12-1.59-4.24-4.93-7.25-10.41-7.12-.99,8.7,1.76,13.23,10.41,13.15Z"/>
          </g>
        </g>
        <path class="st17" d="M1009.43,930.64c.97-5.23,8.15-13.23,18.35-19.93,8.09-5.31,16.18-8.55,21.79-9.07,2.98-2.95,6.7-5.97,10.97-8.78,1.75-1.15,3.49-2.2,5.19-3.14,2.19-5.13,8.77-11.96,17.71-17.84,12.8-8.4,25.54-11.59,28.46-7.12.48.72.67,1.6.58,2.61,9.98-5.05,18.69-6.42,21.05-2.82,2.92,4.46-5.07,14.88-17.84,23.27-2.44,1.6-4.87,3-7.22,4.2.42.28.81.62,1.07,1.04.54.83.69,1.89.51,3.07,8.98-4.1,16.52-4.99,18.7-1.69,2.91,4.46-5.1,14.89-17.89,23.29-2.59,1.69-5.17,3.18-7.67,4.43,1.8,4.77-6.06,14.62-18.21,22.6-7.74,5.08-15.47,8.26-21.02,8.98-2.97,4.69-8.82,10.3-16.31,15.22-12.79,8.39-25.52,11.58-28.44,7.11-1.55-2.37,0-6.44,3.69-10.98-12.03,7.37-23.53,9.96-26.28,5.75-.86-1.31-.79-3.12.07-5.25-12.16,7.52-23.84,10.21-26.61,5.96-2.79-4.23,4.28-13.84,15.94-21.97,3.09-4.57,8.74-9.87,15.88-14.56,2.55-1.68,5.09-3.13,7.56-4.37h-.03,0Z"/>
        <g>
          <path class="st0" d="M505.18,277.53h72.16l-12.3-110.68h-49.1l-9.47,97.42-1.3,13.26h0Z"/>
          <path class="st5" d="M571.72,166.85h-60.91l28.67-34.14,32.24,34.14Z"/>
          <polygon class="st2" points="549.82 120.51 557.81 128.19 539.86 146.82 521.24 128.88 528.92 120.9 478.33 72.23 453.43 98.1 508.2 142.43 516.12 134.21 534.75 152.15 516.81 170.78 508.6 162.87 455.57 209.25 481.46 234.16 530.13 183.59 522.15 175.92 540.07 157.27 558.72 175.2 550.81 183.42 597.22 236.44 622.12 210.58 571.53 161.89 563.84 169.89 545.21 151.95 563.15 133.32 571.35 141.22 624.37 94.84 598.48 69.94 549.82 120.51"/>
          <rect class="st34" x="534.44" y="189.49" width="13.64" height="13.64"/>
          <rect class="st34" x="534.44" y="227.29" width="13.64" height="13.63"/>
          <path class="st12" d="M499.18,81.17l11.62,10.49s19.6-24.61,66.54-11.84c-37.83-20.99-78.16,1.35-78.16,1.35h0Z"/>
          <path class="st26" d="M465.37,189.49l11.55-8.85s-23.49-20.91-10.85-63.81c-20.66,38.93-.7,72.66-.7,72.66h0Z"/>
          <path class="st12" d="M612.84,115.32l-10.41,8.92s21.94,18.01,9.99,67.64c20.99-40.63.42-76.56.42-76.56Z"/>
        </g>
        <g>
          <polygon class="st1" points="759.14 394.38 721.24 364.96 681.89 394.38 681.89 458.99 759.14 458.99 759.14 394.38"/>
          <path class="st2" d="M657.74,414.18l55.39-55.51h0l7.69-7.65,63.18,63.16-9.46,9.42-53.74-53.73-53.59,53.73-9.47-9.42h0Z"/>
          <polygon class="st0" points="753.01 402.07 753.01 433.31 753.01 448.15 753.01 458.99 759.14 458.99 765.27 458.99 765.27 453.58 765.27 414.32 753.01 402.07"/>
          <polygon class="st0" points="676.79 413.98 676.79 453.58 676.79 458.99 682.92 458.99 689.03 458.99 689.03 448.15 689.03 433.31 689.03 401.71 676.79 413.98"/>
          <path class="st6" d="M730.12,458.99h-18.12v-12.95s-7.03-6.69,0-6.69h18.12c6.16,9.21,0,8.45,0,8.45v11.18h0Z"/>
          <path class="st11" d="M732.36,423.43c.1-5.93-8.59-13.21-8.17-16.73-3.8.57-6.87,3.76-8.02,6.58l-1.61-1.58c-1.31,1.88-11.18,14.97,2.09,18.3-3.79-3.95-1.78-7.72,2.43-11.3-.55,5.32,12.25,2.01,7.12,11.18,4.22-.05,6.14-3.48,6.17-6.46h-.01Z"/>
          <path class="st22" d="M721.51,438.63c-.33.45-.67.9-1,1.34-.33-2.93-.67-6.47-1-10.6,1,1.34,2,2.69,3.01,4.03-.33,1.14-.67,2.88-1,5.22h-.01Z"/>
        </g>
        <path class="st23" d="M1672.49,932.47h-.67l-.55.55h-14.5l15.71,27.94h-.67l-.55.55h-22.37v20.63l-1.31,1.21h-21.17l-1.21-1.21v-20.63h-23.57c.3-1.89,5.55-11.39,15.73-28.48h-15.73v-1.21l35.15-59.91h1.19l34.5,60.57h.02ZM1603.39,923.41v.55c0,1.23-1.6,4.88-4.79,10.92h10.9l.55.64c.67,1.6,1.28,2.41,1.86,2.41l-14.52,25.43h15.18l4.15,3.59-1.2,1.2h-15.71v13.98l-1.19,1.21h-14.54l-1.19-1.21v-13.98h-17.03l-.55-.55,11.47-19.97h-10.92l-.55-.66,25.43-44.2c1.02.49,5.24,7.38,12.66,20.63h-.01Z"/>
        <g>
          <polygon class="st9" points="1113.47 573.75 1075.57 544.33 1036.22 573.75 1036.22 638.36 1113.47 638.36 1113.47 573.75"/>
          <path class="st2" d="M1012.07,593.54l55.39-55.51h0l7.69-7.65,63.19,63.16-9.46,9.42-53.74-53.73-53.59,53.73-9.47-9.42h0Z"/>
          <polygon class="st0" points="1107.34 581.44 1107.34 612.68 1107.34 627.51 1107.34 638.36 1113.48 638.36 1119.6 638.36 1119.6 632.95 1119.6 593.68 1107.34 581.44"/>
          <polygon class="st0" points="1031.13 593.35 1031.13 632.95 1031.13 638.36 1037.25 638.36 1043.36 638.36 1043.36 627.51 1043.36 612.68 1043.36 581.08 1031.13 593.35"/>
          <path class="st6" d="M1084.45,638.36h-18.12v-12.94s-7.03-6.69,0-6.69h18.12c6.16,9.21,0,8.45,0,8.45v11.18Z"/>
          <path class="st13" d="M1086.7,602.8c.1-5.93-8.6-13.2-8.18-16.73-3.8.57-6.87,3.76-8.02,6.58l-1.61-1.58c-1.32,1.88-11.18,14.97,2.08,18.29-3.79-3.95-1.77-7.72,2.43-11.3-.55,5.32,12.26,2.01,7.12,11.18,4.22-.05,6.14-3.47,6.18-6.45h0Z"/>
          <path class="st22" d="M1075.84,618c-.33.45-.67.9-1,1.34-.33-2.93-.67-6.46-1-10.59,1,1.34,2,2.69,3.01,4.03-.33,1.14-.67,2.88-1,5.22h-.01Z"/>
        </g>
        <path class="st23" d="M411.15,768.36h-.67l-.55.54h-14.5l15.71,27.94h-.67l-.55.55h-22.36v20.63l-1.32,1.21h-21.17l-1.2-1.21v-20.63h-23.57c.3-1.89,5.55-11.39,15.73-28.49h-15.73v-1.2l35.15-59.91h1.19l34.51,60.57h0ZM342.05,759.3v.55c0,1.23-1.6,4.88-4.79,10.92h10.9l.55.65c.67,1.6,1.28,2.41,1.86,2.41l-14.52,25.43h15.18l4.15,3.59-1.21,1.2h-15.71v13.97l-1.19,1.21h-14.53l-1.19-1.21v-13.97h-17.03l-.54-.55,11.47-19.97h-10.92l-.54-.66,25.43-44.2c1.02.5,5.24,7.39,12.66,20.63h-.03,0Z"/>
        <g>
          <polygon class="st10" points="1293.78 393.94 1255.89 364.52 1216.54 393.94 1216.54 458.56 1293.78 458.56 1293.78 393.94"/>
          <path class="st2" d="M1192.39,413.74l55.39-55.51h0l7.69-7.66,63.18,63.16-9.46,9.41-53.75-53.72-53.59,53.72-9.47-9.41h0Z"/>
          <polygon class="st0" points="1287.66 401.64 1287.66 432.87 1287.66 447.71 1287.66 458.56 1293.79 458.56 1299.92 458.56 1299.92 453.14 1299.92 413.88 1287.66 401.64"/>
          <polygon class="st0" points="1211.44 413.54 1211.44 453.14 1211.44 458.56 1217.56 458.56 1223.68 458.56 1223.68 447.71 1223.68 432.87 1223.68 401.27 1211.44 413.54"/>
          <path class="st6" d="M1264.77,458.56h-18.12v-12.95s-7.03-6.7,0-6.7h18.12c6.16,9.22,0,8.46,0,8.46v11.19h0Z"/>
          <path class="st14" d="M1267.01,423c.1-5.93-8.6-13.21-8.17-16.74-3.8.58-6.87,3.77-8.03,6.58l-1.61-1.57c-1.32,1.87-11.18,14.96,2.08,18.28-3.78-3.93-1.77-7.71,2.43-11.28-.54,5.31,12.26,2.01,7.12,11.18,4.22-.04,6.14-3.47,6.18-6.45h0Z"/>
          <path class="st22" d="M1256.16,438.19c-.33.45-.67.9-1,1.34-.33-2.93-.67-6.47-1-10.59,1,1.34,2,2.69,3.01,4.03-.33,1.14-.67,2.88-1,5.22h-.01Z"/>
        </g>
        <path class="st33" d="M309.12,277.28c-19.23,1.33-50.05,7.99-84.61,23.49-17.23,7.73-35.34,17.69-52.72,30.09-17.25,12.4-34.32,27.2-46.85,44.5-1.69,2.12-3.13,4.3-4.43,6.54-1.32,2.22-2.93,4.41-3.89,6.68-1,2.18-2.46,4.66-3.15,6.61-.66,1.97-1.54,3.92-2.05,5.94-2.34,8.02-1.8,17.11,2.53,24.44,4.42,7.39,11.39,12.21,19.69,15.98l7.05,2.76c2.32.97,4.98,1.43,7.44,2.18,4.92,1.55,10.17,2.39,15.33,3.3,20.78,3.4,41.67,3.46,60.77,3.13,19.95-.64,38.24-.2,54.04,1.5,12.27,1.19,23.52,2.68,34.72,6,11.54,3.35,22.1,8.34,29.81,15.32,7.86,6.91,12.13,16.24,13.29,25.06,1.24,8.88-.14,17.2-2.09,24.46-1.76,6.12-2.24,7.04-1.36,3.88.66-3.19,3.37-10.65,3.25-22.04,0-5.65-1.11-12.35-4.51-18.94-3.33-6.62-9.15-12.76-16.71-17.59-3.72-2.55-8.06-4.43-12.53-6.43-2.32-.84-4.67-1.69-7.07-2.55-2.38-.79-4.67-1.32-7.08-2-9.51-2.49-19.35-4.1-29.72-5.18-18.43-1.71-38.81-1.36-60-.76-20.74.66-43.45.1-66-4.93,3.39,1.14,7.02,1.81,10.53,2.76,3.51.98,7.12,1.69,10.78,2.22,3.65.62,7.28,1.23,10.89,1.85,3.69.38,7.35.77,10.99,1.15,7.29.95,14.6,1.13,21.8,1.53,7.32.32,14.51.63,21.56.95,28.23,1.5,54.49,5.16,73.88,12.92,7.16,2.06,14.07,5.13,20.08,9.52,6,4.38,10.69,10.69,12.62,17.94,2,7.24,1.48,14.95-.11,22.24-1.59,7.26-4.25,14.4-7.44,21.73-7.01,15.94-16.09,31.03-25.31,45.93-9.27,14.89-18.95,29.55-28.39,44.38-9.4,14.86-18.71,29.81-27.01,45.45-8.29,15.62-15.9,31.85-20.46,49.53-2.25,8.81-3.74,18.02-3.58,27.49.14,9.43,2.2,19.18,6.48,27.95,8.71,17.74,25.02,29.78,41.48,37.4,16.68,7.82,34.13,12.56,51.76,16.12,4.45,1.01,8.82,1.68,13.17,2.2l13.1,1.8c8.74,1.22,17.5,2.43,26.26,3.65,12.74,1.98,29.19,3.72,47.48,5.59,18.31,1.89,38.47,3.96,58.58,6.02,40.21,3.71,80.23,7.73,104.78,10.82,0,0-38.61-3.26-96.53-8.14-28.96-2.48-62.76-5.95-98.98-9.46-18.18-2.24-36.98-4.56-56.08-6.9-19.3-2.68-39.25-7.21-58.52-14.82-9.61-4.05-19.12-8.92-27.92-15.45-8.78-6.48-16.68-15.12-22-25.3-5.4-10.16-7.73-21.6-7.84-32.28-.16-10.75,1.65-20.88,4.24-30.3,5.21-18.89,13.18-35.35,21.18-50.38,8.07-15.04,16.43-28.58,24.19-40.98,15.63-24.71,28.72-44.81,37.13-59.2,8.42-14.35,12.47-22.73,12.47-22.73-2.64,4.73-5.43,9.37-8.34,13.89,0,0-9.89,17.15-26.72,42.57-8.32,12.76-18.23,27.65-28.36,44.21-10.08,16.57-20.49,34.8-28.53,54.99-3.98,10.09-7.35,20.74-9.13,32.03-1.78,11.23-1.84,23.3,1.12,34.88,2.87,11.59,8.91,22.13,16.04,30.17,7.12,8.23,15.22,13.72,22.62,18.43,15.09,8.78,28.26,13.29,37.38,15.96,4.58,1.49,8.18,2.39,10.63,2.98,2.46.62,3.77.95,3.77.95,19.43,4.69,37.85,6.11,57.13,9.24,0,0-14.12-1.9-28.25-3.8-3.54-.51-7.01-.87-10.41-1.48-3.43-.7-6.63-1.34-9.38-1.9-5.5-1.03-9.09-2.06-9.09-2.06-12.44-2.69-24.86-6.53-37.19-11.58-12.27-5.16-24.73-11.96-35.65-22.55-5.57-5.09-10.23-11.66-14.23-18.57-3.56-7.16-6.59-14.9-7.71-22.8-2.81-15.88-.48-31.19,3.18-45.45,10.34-35.11,32.34-66.46,49.67-94.17,14.49-22.43,29.76-41.36,43.12-62.06,0,0,6.09-10.24,11-20.72,2.4-5.16,4.71-10.66,5.96-14.3,1.31-3.63,1.89-6,1.89-6,.78-3.73,1.21-7.76,1.34-11.89-.05.14-.13.42-.19.53-.76,2.07-1.78,5.18-3.33,8.96-1.58,3.82-3.56,7.93-6.86,14.4-6.52,12.34-16.59,28.08-29.37,46.2-12.69,18.17-27.92,38.68-43.34,62-7.69,11.69-15.43,24.12-22.62,37.69-7.16,13.58-13.78,28.46-18.26,45.53-2.05,8.69-3.58,17.89-3.71,27.84,0,9.99,1.52,20.61,5.14,30.9,3.63,10.35,9.62,19.68,16.33,27.57,3.45,3.8,7,7.53,10.75,10.53,3.7,3.35,7.51,5.89,11.33,8.53,15.34,10.13,30.61,15.99,45.01,20.51,7.28,2.41,14.22,4,21.2,5.73,6.91,1.44,14.04,3.13,19.98,3.79,24.6,3.46,46.88,6.75,64.76,8.74,17.79,1.85,31.65,3.11,40.19,3.64,27.22,1.91,53.3,1.54,80.08,1.13,26.81-.35,54.36-.52,84.43,1.12,20.11,1.14,36.89,4.7,52.43,3.85,1.62-1.2,9.39-1.64,17.2-2.07,40.02,2.24,79.75,10.04,110.78,8.37,21.65.02,244.97,9.97,256.2,32.39,11.23,22.42,13.7,61.64,51.64,81.46,5.03,2.59,25.07,4.39,30.46,6.37,5.37,2.09,10.95,4.02,17.07,5.4,10.94,3.43,29.29,5.19,44.59,3.89,4.18.04,31.18.24,57-.11,25.79-.36,50.62-.73,50.62-.73,77.24,4.51,125.31-1.28,185.22,10.95,69.74-6.7,162.05,6.73,236.16,7.36,74.14.66,104.82,8.92,169.43,17.32,18.48,1.6,32.39,1.37,43.11,3.71,10.75,2.36,37.14-2.39,55.61-.77l-4.74,3.82c6.19.54,18.47,1.61,24.65,2.14,6.18.55,4.57,1.83,2.99,3.1-3.18,2.55-6.34,5.1,4.41,7.45,25.71,3.13,52.01,5.83,78.96,8.01,26.74-1.07,53.13-2.33,79.16-3.87,1.57-1.76,3.39-3.52,7.09-4.87,7.77-.71,15.51-1.41,23.24-2.12,4.77-3.79,3.38-8.17,6.58-10.7.39-11.25,33.18-20.98,25.82-31.53-2.98-3.1-47.7-5.75-67.58-11.8-4.59-1.81,6.37-5.06,11.11-8.86-26.25-.98-27.62-5.34-16.69-8.58-6.17-.57-12.32-1.12-12.32-1.12,1.59-1.26,6.36-5.08,6.36-5.08-66.24-7.4-140.09-19.58-205.12-16.78-13.92.17-37.17,2.41-52.67,3.91-7.73.73-24.65-2.14-30.83-2.67-10.94,3.29-9.52,7.65-14.25,11.47-47.76-5.52-151.01-15.7-148.32-1.34-38.55-1.86-46.49,4.52-86.63,3.95-53.19-.52-120.64-1.81-187.1-3.46-36.36-.29-71.27-1.78-106.49-3.15-13.12-.51-25.88-.99-38.02-1.46-32.8-1.31-64.8-2.85-94.79-5.65-3.72-.37-7.43-.74-11.13-1.1l-9.27-1.51-2.27-.35-2.52-.75-5.04-1.53-10.03-3.07c-13.04-4.9-25.79-10.09-37.68-16.98-24.18-13.12-23.6-76.92-64.11-82.09-40.51-5.16-73.19-7.72-73.19-7.72l-5.52-.75-11.04-1.46-22.11-2.88c-7.41-.99-14.34-1.45-21.54-2.18-14.29-1.31-28.58-2.62-42.93-3.94-28.66-2.43-57.43-4.44-86.74-6.43-58.55-3.76-118.96-6.76-183.34-8.8-64.9-2.1-130.48-5.45-195.68-10.41-16.23-1.37-32.29-3.15-48.42-4.77-16.39-1.41-31.69-3.7-46.63-7.68-14.84-3.9-29.01-9.46-40.48-17.39-5.54-4.11-10.39-8.7-14-13.92-3.6-5.24-5.79-11.15-6.89-17.49-1.08-6.35-.98-13.16-.03-20.1,1.1-6.96,2.97-13.99,5.29-20.98,4.91-13.98,11.56-27.71,19.03-41.08,14.92-26.8,32.45-52.32,49-78.41,8.26-13.11,16.38-26.33,23.6-40.42,3.61-7.09,6.89-14.35,9.84-22.19,3.08-8.56,5.52-18.27,6.03-27.68.52-9.45-.97-19.03-5.11-27.45-4.1-8.48-10.84-15.33-18.49-20.63-7.66-5.37-16.71-8.75-25.56-11.59-3.99-1-8.22-2.24-12.03-2.94-3.81-.66-7.67-1.54-11.4-1.99-15.08-2.22-29.57-2.84-43.74-3.01-7.1-.14-14.07,0-20.98.16-6.51.07-12.98.13-19.39.19-12.53-.02-24.69-.75-36.18-2.25-5.85-.56-11.14-2.01-16.63-2.9-2.54-.72-5.07-1.45-7.59-2.17l-3.75-1.05-3.35-1.4c-2.08-.92-4.75-1.79-6.32-2.68l-4.46-2.63c-1.31-1.01-2.52-2.06-3.75-3.07-1.18-1.07-2.09-2.39-3.12-3.54-3.81-5.01-4.79-11.46-3.67-17.07l1.06-4.12,1.57-3.9c.47-1.21,1.77-3.37,2.56-4.99.79-1.75,1.88-3.5,3.08-5.24,4.19-7.01,10.12-13.64,15.76-19.93,11.98-12.42,25.32-22.91,38.3-31.75,13.11-8.76,25.92-15.86,37.71-21.88,23.84-11.7,43.81-18.52,57.7-22.94,0,0,1.9-1.02,4.82-2.39,2.93-1.41,6.82-3.28,10.72-5.17,7.99-3.4,15.97-6.8,15.97-6.8l-.06.04h0Z"/>
        <g>
          <path class="st0" d="M1150.15,885.55v47.94h-9.02v11.55h84.42l-.32-11.55v-47.94l-39.02-21.65-36.06,21.65Z"/>
          <path class="st5" d="M1208.15,848.97h12.66v13.44l23.55,13.67-5.81,10.03-51.96-30.15-50.76,31.74-6.14-9.85,53.72-33.57,2.94-1.84,3.03,1.75,18.77,10.9v-6.11h0Z"/>
          <g>
            <rect class="st34" x="1171.24" y="888.07" width="13.64" height="13.63"/>
            <rect class="st34" x="1190.3" y="888.07" width="13.64" height="13.63"/>
            <rect class="st34" x="1171.24" y="907.15" width="13.64" height="13.63"/>
            <rect class="st34" x="1190.3" y="907.15" width="13.64" height="13.63"/>
          </g>
        </g>
        <g>
          <path class="st18" d="M1130,905.15c2.57.29,5.07.8,7.47,1.5l9.81-8.22,10.95,1.54s-4.82,8.43-7.6,13.23c1.75,1.28,3.39,2.69,4.92,4.22.26.27.54.54.79.82l12.61-2.22,8.71,6.8s-8.38,4.89-13.18,7.66c1,2.31,1.82,4.73,2.42,7.22l12.01,4.38,4.14,10.25s-9.71.04-15.24.04c-.29,2.57-.79,5.06-1.5,7.47l8.22,9.79-1.54,10.95s-8.43-4.82-13.23-7.58c-1.28,1.74-2.7,3.38-4.22,4.9-.27.27-.55.54-.82.8l2.22,12.61-6.8,8.72s-4.89-8.38-7.65-13.18c-2.31,1.02-4.73,1.84-7.23,2.43l-4.38,12.01-10.25,4.15s-.04-9.71-.04-15.25c-2.56-.27-5.07-.78-7.47-1.5l-9.79,8.22-10.95-1.54s4.82-8.43,7.59-13.22c-1.74-1.29-3.39-2.7-4.92-4.23-.26-.26-.54-.53-.78-.81l-12.61,2.21-8.71-6.8s8.38-4.88,13.18-7.65c-1.02-2.31-1.84-4.71-2.44-7.22l-12.01-4.38-4.14-10.25s9.71-.04,15.26-.04c.27-2.57.78-5.06,1.5-7.47l-8.21-9.81,1.54-10.95s8.43,4.82,13.22,7.6c1.29-1.74,2.69-3.39,4.22-4.91.27-.26.54-.54.82-.79l-2.22-12.61,6.81-8.71s4.88,8.38,7.65,13.19c2.31-1.02,4.73-1.84,7.23-2.43l4.38-12.02,10.25-4.14s.05,9.71.04,15.24h0l-.03-.02h0ZM1155.92,938.22l-16.42,9.48,16.41,9.48c.93-3.01,1.43-6.21,1.43-9.51s-.5-6.46-1.41-9.46h-.01ZM1117.48,960.41l-15.68,9.05c.28.29.56.59.84.87,4.03,4.02,9.12,6.99,14.83,8.42v-18.33h.01ZM1094.55,956.7l15.59-9-15.6-9.01c-.83,2.85-1.28,5.87-1.28,8.98s.45,6.16,1.29,9.03h0ZM1132.15,934.99l16.34-9.43c-.17-.17-.35-.36-.53-.53-4.26-4.26-9.71-7.32-15.8-8.65v18.62h-.01,0ZM1148.44,969.82l-16.3-9.41v18.57c6.1-1.34,11.55-4.39,15.8-8.65.18-.17.34-.33.5-.51h0ZM1101.78,925.92l15.7,9.07v-18.4c-5.71,1.44-10.8,4.39-14.83,8.43-.3.3-.58.6-.87.89h0Z"/>
          <path class="st18" d="M1148.74,947.62c0,13.04-10.57,23.62-23.62,23.62s-23.62-10.58-23.62-23.62,10.56-23.63,23.62-23.63,23.62,10.58,23.62,23.63Z"/>
        </g>
        <g>
          <path class="st15" d="M879.28,357.18h29.4l1.52-1.24-4.28.39-.26-2.79,8.45-.78,1.46-1.17-7.32.66-.26-2.79,11.49-1.04,1.8-1.46-10.94.99-.26-2.8,14.46-1.31.5-.67,6.63-9.02.23,6.49,4.59-3-1.09,7.74,10.63,6.27-2.25,6.83-11.49.19-4.49,24.29v21.62h-5.39l-2.51-19.32c-.74.15-1.47.3-2.22.43v18.89h-5.39l-2.34-17.93h0l-.83-5.89-1.84.3-1.86,5.75c-3.95.02-7.99-.27-12.13-.84v18.61h-5.38l-2.08-15.96v15.96h-5.39l-3.52-26.95c-.46-1.22-.85-2.46-1.14-3.71-.94,4.49-2.27,8.37-4.99,13.01-6.65-11.6-3.28-25.52,8.5-29.74h0Z"/>
          <path class="st0" d="M856.93,439.25c-.07-.59-.14-1.18-.2-1.78v-18.34l1.57,18.34c-.46.6-.91,1.18-1.37,1.78h0ZM907.22,407.12c.04,3.09-.51,6.27-1.73,9.1l2.03.9c1.36-3.13,1.96-6.63,1.92-10.02-.1-7.89-3.67-15.79-12.25-17.24-14.41.34-28.82.66-43.22.98-6.44.79-12.27-2.44-18.16-5.18l-1.86-2.55-1.38,3.94c-3.92,3.72-7.86,7.46-11.78,11.19,1.18,1.1,2.36,2.22,3.53,3.33,1.44-.45,2.87-.92,4.32-1.37,3.86.06,7.72.12,11.58.19,1.21,8.72,1.47,14.78,9.62,17.56l2.06,19.52c-.88,1.2-1.77,2.39-2.65,3.59v.68h12.81l2.79-23.57c6.73,1.68,8.67,1.46,15.93.27.3.74.71,1.49,1.24,2.21l-1.21,1.11c-.45.41-.48,1.12-.06,1.57.42.44,1.12.47,1.57.05l1.15-1.06c.2.2.41.39.63.58l-.95,1.56c-.31.52-.14,1.2.38,1.53.52.31,1.21.15,1.53-.38l.83-1.37c.31.19.63.39.96.56l-.64,1.54c-.23.57.04,1.22.6,1.45.57.23,1.22-.04,1.45-.61l.62-1.49c1.05.37,2.16.62,3.29.71l-4.5,15.34h6.13l3.95-16.94,3.16-.17-3.9,17.11h6.93c.7-5.51,1.68-11.98,2.37-17.4-.46-2.95-1.2-5.89-1.66-8.84l1.91-13.62c.41,1.64.65,3.43.66,5.24h0Z"/>
          <path class="st17" d="M944.29,401.2c-3.2,3.8-5.09,6.78-4.72,14.84-4.36,2.19-10.33,3.72-15.02,5.78l-6.62-3.5-1.25,2.49,6.02,5.07c1.15,2.96,3.5,6.09,6.9,7.25h0c.55,1.09,1.45,1.91,2.52,2.25v3.6l-.63.47-.2,1.3h6.3l-.1-1.04-3.33-1.09v-3.18c1.37-.35,2.48-1.5,3-3,5.38-1.18,9.63-4.38,9.58-13.42-1.55-4.08-2.6-9.21-1.12-14.14l12.1-1.45-.12-1.12-4.75-.52-2.17-3.76c-2.52-.04-4.65,1.02-6.39,3.17h0Z"/>
          <g>
            <path class="st7" d="M872.58,446.45c1.08-.07,2.14-.14,3.2-.2.07-2.05.24-4.08.51-6.11,1.46-1.27,2.92-2.53,4.38-3.8,1.91,1.27,3.82,2.53,5.72,3.8-.05,2.01-.09,3.91-.11,5.7,1.54-.04,3.07-.07,4.58-.08-.23-2.1-.52-4.29-.87-6.58,1.11-1.18,2.21-2.36,3.32-3.54,1.61,1.18,3.21,2.36,4.81,3.54.36,2.08.64,4.28.87,6.57,1.05.01,2.09.02,3.13.03-.09-3.61-.2-7.09-.37-10.31,1.12-1.18,2.23-2.36,3.33-3.54,1.6,1.18,3.2,2.36,4.81,3.54.22,2.93.37,6.52.47,10.48,1.52.04,3.03.08,4.56.12.22-2.4.52-4.7.89-6.88,1.6-1.17,3.2-2.36,4.8-3.54,1.11,1.18,2.22,2.36,3.34,3.54-.39,2.5-.7,4.86-.94,7.13,1.42.04,2.83.09,4.25.14v3.2c-1.52-.05-3.04-.11-4.56-.16-.57,6.38-.7,12.03-.79,17.61,1.78.05,3.57.11,5.35.16v3.22c-1.81-.06-3.61-.13-5.4-.2-.04,2.2-.1,4.41-.18,6.69h-8.12c.09-2.29.17-4.62.24-6.97-.93-.03-1.87-.06-2.8-.09.1,2.45.24,4.83.4,7.06h-8.13c-.19-2.35-.35-4.77-.46-7.26-.9-.01-1.79-.02-2.68-.04.08,2.45.16,4.89.26,7.29h-8.13c-.09-2.49-.14-4.9-.18-7.31-1.61.01-3.23.04-4.85.08.21,2.26.43,4.43.66,6.61h-10.1c-.16-2.06-.36-4.13-.56-6.19-1.54.09-3.09.2-4.64.32v-3.22c1.45-.09,2.91-.17,4.33-.25-.6-5.9-1.18-11.79-1.19-17.59-1.04.07-2.09.14-3.14.22v-3.2h-.01ZM880.9,447.18c-.43,0-.79.35-.79.79s.35.79.79.79.79-.35.79-.79-.36-.79-.79-.79h0ZM918.94,447.23c-.44,0-.79.35-.79.79s.35.79.79.79.79-.36.79-.79-.35-.79-.79-.79h0ZM917.95,467.92c-.43,0-.8.35-.8.79s.36.79.8.79.79-.35.79-.79-.35-.79-.79-.79h0ZM896.24,467.55c-.44,0-.8.35-.8.79s.35.79.8.79.79-.35.79-.79-.35-.79-.79-.79h0ZM907.2,467.84c-.44,0-.79.35-.79.79s.36.78.79.78.79-.35.79-.78-.35-.79-.79-.79h0ZM905.81,446.64c-.44,0-.8.35-.8.79s.36.8.8.8.79-.35.79-.8-.36-.79-.79-.79h0ZM895.13,446.5c-.44,0-.8.35-.8.79s.35.79.8.79.78-.35.78-.79-.35-.79-.78-.79h0ZM881.87,467.92c-.43,0-.79.35-.79.79s.35.79.79.79.8-.35.8-.79-.36-.79-.8-.79h0ZM886.97,466.65c1.7-.04,3.38-.06,5.06-.08-.09-5.61-.24-11.29-.84-17.73-1.63.02-3.27.05-4.91.09,0,7.27.3,12.81.69,17.72h0ZM900.04,466.58c.87,0,1.75.01,2.62.03-.23-5.86-.33-11.93-.46-17.74-.97-.01-1.96-.02-2.93-.03.43,5.63.6,11.69.77,17.74h0ZM910.89,466.78c1.01.02,2.01.05,3.01.07.17-6.01.34-12.05.76-17.65-1.4-.05-2.8-.1-4.21-.13.14,5.66.24,11.83.44,17.71h0ZM906.28,451s-.26,5.75-.3,7.11.37,5.93.59,6.51c.22.6.41,1.48.41,1.48,0,0,.26-8.35.03-10.34-.22-1.99-.73-4.75-.73-4.75h0Z"/>
            <path class="st7" d="M875.01,446.45v3.2c-1.05-.08-2.1-.15-3.14-.22,0,5.8-.59,11.69-1.18,17.59,1.43.08,2.87.16,4.32.25v3.22c-1.56-.12-3.1-.23-4.64-.32-.21,2.06-.41,4.13-.57,6.19h-10.1c.23-2.19.45-4.36.66-6.61-1.62-.04-3.23-.06-4.85-.08-.04,2.41-.09,4.82-.17,7.31h-8.14c.1-2.4.19-4.85.25-7.29-.89.01-1.78.02-2.67.04-.12,2.48-.27,4.91-.46,7.26h-8.13c.16-2.23.29-4.61.4-7.06-.94.03-1.87.06-2.81.09.08,2.35.15,4.68.25,6.97h-8.13c-.08-2.27-.13-4.49-.17-6.69-1.81.07-3.61.14-5.42.2v-3.22c1.79-.05,3.57-.11,5.36-.16-.09-5.58-.22-11.23-.79-17.61-1.52.05-3.04.11-4.57.16v-3.2c1.42-.05,2.84-.09,4.25-.14-.24-2.27-.54-4.63-.93-7.13,1.11-1.18,2.23-2.36,3.33-3.54,1.6,1.18,3.2,2.36,4.8,3.54.38,2.18.67,4.48.91,6.88,1.51-.04,3.03-.08,4.56-.12.1-3.95.25-7.55.47-10.48,1.61-1.18,3.21-2.36,4.81-3.54,1.11,1.18,2.22,2.36,3.33,3.54-.17,3.23-.28,6.7-.37,10.31,1.04-.01,2.08-.02,3.14-.03.22-2.29.5-4.49.86-6.57,1.61-1.18,3.2-2.36,4.8-3.54,1.11,1.18,2.22,2.36,3.33,3.54-.35,2.3-.64,4.49-.88,6.58,1.52.01,3.05.04,4.59.08-.02-1.79-.06-3.69-.11-5.7,1.91-1.27,3.83-2.53,5.73-3.8,1.46,1.27,2.92,2.53,4.38,3.8.27,2.02.43,4.06.52,6.11,1.05.06,2.12.13,3.19.2h-.01ZM866.69,447.18c-.44,0-.79.35-.79.79s.35.79.79.79.79-.35.79-.79-.35-.79-.79-.79h0ZM828.66,447.23c-.44,0-.8.35-.8.79s.36.79.8.79.79-.36.79-.79-.35-.79-.79-.79h0ZM829.64,467.92c-.43,0-.78.35-.78.79s.35.79.78.79.79-.35.79-.79-.35-.79-.79-.79h0ZM851.37,467.55c-.44,0-.8.35-.8.79s.36.79.8.79.79-.35.79-.79-.36-.79-.79-.79h0ZM840.4,467.84c-.44,0-.79.35-.79.79s.35.78.79.78.79-.35.79-.78-.35-.79-.79-.79h0ZM841.79,446.64c-.43,0-.79.35-.79.79s.36.8.79.8.79-.35.79-.8-.36-.79-.79-.79h0ZM852.47,446.5c-.44,0-.79.35-.79.79s.35.79.79.79.79-.35.79-.79-.35-.79-.79-.79h0ZM865.72,467.92c-.43,0-.79.35-.79.79s.36.79.79.79.8-.35.8-.79-.36-.79-.8-.79h0ZM860.63,466.65c.4-4.92.69-10.45.69-17.72-1.64-.04-3.29-.07-4.92-.09-.6,6.44-.74,12.13-.84,17.73,1.68.02,3.37.04,5.07.08h0ZM847.55,466.58c.17-6.06.34-12.11.77-17.74-.98,0-1.96.02-2.93.03-.12,5.81-.23,11.88-.46,17.74.87-.02,1.74-.03,2.62-.03h0ZM836.7,466.78c.21-5.88.31-12.05.44-17.71-1.4.04-2.8.08-4.21.13.42,5.6.58,11.64.76,17.65,1.01-.02,2-.06,3.01-.07h0ZM840.58,455.75c-.22,1.99.04,10.34.04,10.34,0,0,.19-.88.4-1.48.22-.59.63-5.15.59-6.51-.03-1.36-.29-7.11-.29-7.11,0,0-.51,2.76-.74,4.75h0Z"/>
            <path class="st7" d="M977.87,446.45v3.2c-1.04-.08-2.1-.15-3.14-.22,0,5.8-.59,11.69-1.18,17.59,1.42.08,2.87.16,4.32.25v3.22c-1.55-.12-3.1-.23-4.64-.32-.2,2.06-.4,4.13-.56,6.19h-10.11c.23-2.19.45-4.36.66-6.61-1.62-.04-3.23-.06-4.85-.08-.04,2.41-.09,4.82-.17,7.31h-8.14c.1-2.4.19-4.85.25-7.29-.89.01-1.78.02-2.67.04-.12,2.48-.27,4.91-.47,7.26h-8.13c.16-2.23.3-4.61.4-7.06-.94.03-1.87.06-2.81.09.07,2.35.15,4.68.25,6.97h-8.13c-.08-2.27-.13-4.49-.16-6.69-1.81.07-3.61.14-5.42.2v-3.22c1.79-.05,3.57-.11,5.36-.16-.09-5.58-.22-11.23-.79-17.61-1.52.05-3.04.11-4.57.16v-3.2c1.42-.05,2.84-.09,4.25-.14-.24-2.27-.54-4.63-.93-7.13,1.11-1.17,2.23-2.36,3.33-3.54,1.6,1.18,3.2,2.36,4.8,3.54.38,2.18.67,4.48.9,6.88,1.52-.04,3.03-.08,4.56-.12.1-3.95.25-7.55.47-10.48,1.6-1.18,3.21-2.36,4.8-3.54,1.11,1.18,2.22,2.36,3.33,3.54-.17,3.23-.28,6.7-.37,10.31,1.04-.01,2.08-.02,3.14-.03.22-2.29.5-4.49.86-6.57,1.61-1.17,3.2-2.36,4.81-3.54,1.11,1.18,2.22,2.36,3.33,3.54-.35,2.3-.64,4.49-.87,6.58,1.51.01,3.05.04,4.58.08-.02-1.79-.06-3.69-.11-5.7,1.91-1.27,3.82-2.53,5.73-3.8,1.46,1.27,2.91,2.53,4.37,3.8.28,2.02.43,4.06.52,6.11,1.05.06,2.12.13,3.2.2h0ZM969.55,447.18c-.44,0-.79.35-.79.79s.35.79.79.79.79-.35.79-.79-.35-.79-.79-.79h0ZM931.52,447.23c-.43,0-.79.35-.79.79s.36.79.79.79.79-.36.79-.79-.35-.79-.79-.79h0ZM932.5,467.92c-.43,0-.79.35-.79.79s.35.79.79.79.8-.35.8-.79-.35-.79-.8-.79h0ZM954.22,467.55c-.44,0-.79.35-.79.79s.35.8.79.8.79-.35.79-.8-.35-.79-.79-.79h0ZM943.26,467.84c-.45,0-.8.35-.8.79s.35.78.8.78.79-.35.79-.78-.35-.79-.79-.79h0ZM944.65,446.64c-.44,0-.8.35-.8.79s.36.8.8.8.8-.35.8-.8-.36-.79-.8-.79h0ZM955.32,446.5c-.43,0-.78.35-.78.79s.35.79.78.79.79-.35.79-.79-.35-.79-.79-.79h0ZM968.58,467.92c-.44,0-.8.35-.8.79s.36.79.8.79.79-.35.79-.79-.36-.79-.79-.79h0ZM963.49,466.65c.4-4.92.68-10.45.69-17.72-1.64-.04-3.28-.07-4.92-.09-.6,6.45-.74,12.13-.84,17.73,1.68.01,3.36.04,5.07.08h0ZM950.41,466.58c.17-6.06.34-12.11.78-17.74-.99,0-1.96.02-2.94.03-.13,5.81-.23,11.88-.46,17.74.87-.02,1.74-.03,2.62-.03h0ZM939.56,466.78c.21-5.88.31-12.05.44-17.71-1.41.04-2.8.08-4.21.13.42,5.6.58,11.64.75,17.65,1-.02,2-.05,3.01-.07h.01ZM943.44,455.75c-.22,1.99.04,10.34.04,10.34,0,0,.18-.88.41-1.48.22-.59.63-5.15.59-6.51s-.29-7.11-.29-7.11c0,0-.52,2.76-.74,4.75h-.01Z"/>
          </g>
        </g>
        <g>
          <g>
            <path class="st0" d="M1412.14,629.74c7.33.07,14.65.4,21.98.99l3.5.31c4.22.39,8.45.87,12.68,1.45v4.24h-81.15v-4.24c4.07-.55,8.13-1.02,12.2-1.41l3.5-.31c7.94-.67,15.86-1.01,23.79-1.04h3.5Z"/>
            <path class="st16" d="M1434.12,630.74v-21.4c-4.86-.55-6.42-3.77-5.77-9.43,3.96-.08,6.38,2.09,7.53,5.15,1.15-3.06,3.58-5.23,7.54-5.15.65,5.69-.91,8.89-5.8,9.43v21.71l-3.5-.31ZM1408.64,629.73v-20.35h0c-7.37-.5-9.71-4.97-8.77-13.11,5.48-.12,8.82,2.88,10.41,7.12,1.59-4.24,4.95-7.24,10.42-7.12.92,8.05-1.37,12.52-8.56,13.09v20.38h-3.5ZM1381.34,631.08v-21.74c-4.87-.55-6.41-3.77-5.77-9.43,3.96-.08,6.38,2.09,7.54,5.15,1.16-3.06,3.58-5.23,7.53-5.15.65,5.69-.9,8.89-5.8,9.43v21.43l-3.5.31ZM1387.73,580v-10.53h2.63v10.53h-2.63ZM1383.75,580v-12.7h2.62v12.7h-2.62ZM1375.73,580v-10.53h2.64v10.53h-2.64ZM1379.77,580v-12.7h2.62v12.7h-2.62ZM1383.11,590.66c-6.25.06-8.27-3.2-7.54-9.51,3.96-.09,6.38,2.08,7.54,5.15,1.16-3.07,3.58-5.24,7.53-5.15.73,6.31-1.27,9.56-7.53,9.51h0ZM1383.11,600.23c6.26.06,8.26-3.22,7.53-9.52-3.96-.08-6.38,2.09-7.53,5.16-1.15-3.07-3.57-5.24-7.54-5.16-.73,6.3,1.29,9.58,7.54,9.52h0ZM1440.51,580v-10.53h2.63v10.53h-2.63ZM1436.53,580v-12.7h2.62v12.7h-2.62ZM1428.5,580v-10.53h2.63v10.53h-2.63ZM1432.54,580v-12.7h2.63v12.7h-2.63ZM1435.88,590.66c-6.26.06-8.26-3.2-7.53-9.51,3.96-.09,6.38,2.08,7.53,5.15,1.15-3.07,3.58-5.24,7.54-5.15.72,6.31-1.27,9.56-7.54,9.51h0ZM1435.88,600.23c6.27.06,8.26-3.22,7.54-9.52-3.96-.08-6.39,2.09-7.54,5.16-1.14-3.07-3.57-5.24-7.53-5.16-.73,6.3,1.27,9.58,7.53,9.52h0ZM1416.94,568.75v-14.57h3.64v14.57h-3.64ZM1411.16,568.75v-17.57h3.64v17.57h-3.64ZM1400.07,568.75v-14.57h3.63v14.57h-3.63ZM1405.65,568.75v-17.57h3.63v17.57h-3.63ZM1410.28,583.49c-8.66.07-11.41-4.44-10.41-13.14,5.48-.12,8.82,2.88,10.41,7.12,1.59-4.25,4.95-7.25,10.42-7.12,1,8.7-1.76,13.22-10.42,13.14h0ZM1410.28,596.71c8.66.08,11.42-4.44,10.42-13.15-5.47-.13-8.83,2.88-10.42,7.12-1.59-4.24-4.93-7.25-10.41-7.12-1,8.7,1.76,13.23,10.41,13.15Z"/>
          </g>
          <g>
            <path class="st0" d="M1493.3,629.74c7.33.07,14.65.4,21.98.99l3.5.31c4.23.39,8.45.87,12.68,1.45v4.24h-81.16v-4.24c4.07-.55,8.14-1.02,12.2-1.41l3.5-.31c7.94-.67,15.86-1.01,23.79-1.04h3.51Z"/>
            <path class="st16" d="M1515.28,630.74v-21.4c-4.86-.55-6.42-3.77-5.77-9.43,3.96-.08,6.39,2.09,7.53,5.15,1.15-3.06,3.58-5.23,7.54-5.15.65,5.69-.91,8.89-5.8,9.43v21.71l-3.5-.31ZM1489.79,629.73v-20.35h0c-7.37-.5-9.71-4.97-8.78-13.11,5.48-.12,8.83,2.88,10.41,7.12,1.59-4.24,4.95-7.24,10.42-7.12.92,8.05-1.37,12.52-8.56,13.09v20.38h-3.5.01ZM1462.5,631.08v-21.74c-4.87-.55-6.41-3.77-5.77-9.43,3.97-.08,6.39,2.09,7.54,5.15,1.16-3.06,3.58-5.23,7.53-5.15.65,5.69-.9,8.89-5.8,9.43v21.43l-3.5.31ZM1468.89,580v-10.53h2.63v10.53h-2.63ZM1464.91,580v-12.7h2.62v12.7h-2.62ZM1456.88,580v-10.53h2.64v10.53h-2.64ZM1460.92,580v-12.7h2.63v12.7h-2.63ZM1464.27,590.66c-6.25.06-8.27-3.2-7.54-9.51,3.97-.09,6.39,2.08,7.54,5.15,1.16-3.07,3.58-5.24,7.53-5.15.73,6.31-1.27,9.56-7.53,9.51h0ZM1464.27,600.23c6.26.06,8.26-3.22,7.53-9.52-3.96-.08-6.38,2.09-7.53,5.16-1.15-3.07-3.57-5.24-7.54-5.16-.73,6.3,1.28,9.58,7.54,9.52h0ZM1521.66,580v-10.53h2.63v10.53h-2.63ZM1517.68,580v-12.7h2.62v12.7h-2.62ZM1509.65,580v-10.53h2.63v10.53h-2.63ZM1513.69,580v-12.7h2.63v12.7h-2.63ZM1517.04,590.66c-6.26.06-8.26-3.2-7.53-9.51,3.96-.09,6.39,2.08,7.53,5.15,1.15-3.07,3.58-5.24,7.54-5.15.72,6.31-1.27,9.56-7.54,9.51h0ZM1517.04,600.23c6.27.06,8.26-3.22,7.54-9.52-3.96-.08-6.39,2.09-7.54,5.16-1.14-3.07-3.57-5.24-7.53-5.16-.73,6.3,1.27,9.58,7.53,9.52h0ZM1498.09,568.75v-14.57h3.64v14.57h-3.64ZM1492.31,568.75v-17.57h3.64v17.57h-3.64ZM1481.23,568.75v-14.57h3.63v14.57h-3.63ZM1486.8,568.75v-17.57h3.63v17.57h-3.63ZM1491.43,583.49c-8.66.07-11.4-4.44-10.41-13.14,5.48-.12,8.83,2.88,10.41,7.12,1.59-4.25,4.95-7.25,10.42-7.12,1,8.7-1.76,13.22-10.42,13.14h0ZM1491.43,596.71c8.66.08,11.42-4.44,10.42-13.15-5.47-.13-8.83,2.88-10.42,7.12-1.59-4.24-4.93-7.25-10.41-7.12-.99,8.7,1.76,13.23,10.41,13.15Z"/>
          </g>
          <g>
            <path class="st0" d="M1574.45,629.74c7.33.07,14.65.4,21.98.99l3.5.31c4.22.39,8.45.87,12.68,1.45v4.24h-81.15v-4.24c4.07-.55,8.13-1.02,12.2-1.41l3.5-.31c7.94-.67,15.86-1.01,23.8-1.04h3.5-.01Z"/>
            <path class="st16" d="M1596.43,630.74v-21.4c-4.87-.55-6.42-3.77-5.76-9.43,3.95-.08,6.38,2.09,7.53,5.15,1.15-3.06,3.58-5.23,7.54-5.15.65,5.69-.9,8.89-5.8,9.43v21.71l-3.5-.31h-.01ZM1570.95,629.73v-20.35h0c-7.37-.5-9.71-4.97-8.78-13.11,5.48-.12,8.83,2.88,10.41,7.12,1.59-4.24,4.95-7.24,10.42-7.12.93,8.05-1.37,12.52-8.56,13.09v20.38h-3.5.01ZM1543.66,631.08v-21.74c-4.87-.55-6.41-3.77-5.77-9.43,3.97-.08,6.38,2.09,7.54,5.15,1.15-3.06,3.57-5.23,7.53-5.15.65,5.69-.9,8.89-5.8,9.43v21.43l-3.5.31ZM1550.04,580v-10.53h2.62v10.53h-2.62ZM1546.06,580v-12.7h2.62v12.7h-2.62ZM1538.04,580v-10.53h2.64v10.53h-2.64ZM1542.08,580v-12.7h2.63v12.7h-2.63ZM1545.42,590.66c-6.25.06-8.27-3.2-7.54-9.51,3.97-.09,6.38,2.08,7.54,5.15,1.15-3.07,3.57-5.24,7.53-5.15.73,6.31-1.27,9.56-7.53,9.51h0ZM1545.42,600.23c6.26.06,8.26-3.22,7.53-9.52-3.96-.08-6.38,2.09-7.53,5.16-1.15-3.07-3.57-5.24-7.54-5.16-.73,6.3,1.28,9.58,7.54,9.52h0ZM1602.82,580v-10.53h2.63v10.53h-2.63ZM1598.84,580v-12.7h2.62v12.7h-2.62ZM1590.81,580v-10.53h2.63v10.53h-2.63ZM1594.85,580v-12.7h2.63v12.7h-2.63ZM1598.2,590.66c-6.26.06-8.26-3.2-7.53-9.51,3.95-.09,6.38,2.08,7.53,5.15,1.15-3.07,3.58-5.24,7.54-5.15.72,6.31-1.27,9.56-7.54,9.51h0ZM1598.2,600.23c6.27.06,8.26-3.22,7.54-9.52-3.96-.08-6.39,2.09-7.54,5.16-1.14-3.07-3.57-5.24-7.53-5.16-.74,6.3,1.26,9.58,7.53,9.52h0ZM1579.25,568.75v-14.57h3.65v14.57h-3.65ZM1573.47,568.75v-17.57h3.64v17.57h-3.64ZM1562.39,568.75v-14.57h3.63v14.57h-3.63ZM1567.96,568.75v-17.57h3.63v17.57h-3.63ZM1572.59,583.49c-8.66.07-11.41-4.44-10.41-13.14,5.48-.12,8.83,2.88,10.41,7.12,1.59-4.25,4.95-7.25,10.42-7.12,1,8.7-1.76,13.22-10.42,13.14h0ZM1572.59,596.71c8.66.08,11.42-4.44,10.42-13.15-5.47-.13-8.83,2.88-10.42,7.12-1.59-4.24-4.93-7.25-10.41-7.12-.99,8.7,1.76,13.23,10.41,13.15Z"/>
          </g>
          <g>
            <path class="st0" d="M1655.61,629.74c7.33.07,14.65.4,21.98.99l3.5.31c4.23.39,8.45.87,12.68,1.45v4.24h-81.16v-4.24c4.07-.55,8.14-1.02,12.2-1.41l3.5-.31c7.94-.67,15.86-1.01,23.8-1.04h3.5Z"/>
            <path class="st16" d="M1677.59,630.74v-21.4c-4.87-.55-6.42-3.77-5.76-9.43,3.95-.08,6.39,2.09,7.53,5.15,1.15-3.06,3.58-5.23,7.54-5.15.65,5.69-.91,8.89-5.8,9.43v21.71l-3.5-.31h-.01ZM1652.11,629.73v-20.35h0c-7.37-.5-9.71-4.97-8.78-13.11,5.48-.12,8.83,2.88,10.41,7.12,1.59-4.24,4.95-7.24,10.42-7.12.93,8.05-1.36,12.52-8.56,13.09v20.38h-3.5.01ZM1624.81,631.08v-21.74c-4.87-.55-6.41-3.77-5.77-9.43,3.96-.08,6.38,2.09,7.54,5.15,1.15-3.06,3.57-5.23,7.53-5.15.65,5.69-.9,8.89-5.8,9.43v21.43l-3.5.31ZM1631.2,580v-10.53h2.62v10.53h-2.62ZM1627.22,580v-12.7h2.63v12.7h-2.63ZM1619.2,580v-10.53h2.64v10.53h-2.64ZM1623.24,580v-12.7h2.62v12.7h-2.62ZM1626.58,590.66c-6.26.06-8.27-3.2-7.54-9.51,3.96-.09,6.38,2.08,7.54,5.15,1.15-3.07,3.57-5.24,7.53-5.15.72,6.31-1.27,9.56-7.53,9.51h0ZM1626.58,600.23c6.26.06,8.26-3.22,7.53-9.52-3.96-.08-6.38,2.09-7.53,5.16-1.16-3.06-3.58-5.24-7.54-5.16-.73,6.3,1.28,9.58,7.54,9.52h0ZM1683.97,580v-10.53h2.63v10.53h-2.63ZM1679.99,580v-12.7h2.62v12.7h-2.62ZM1671.97,580v-10.53h2.63v10.53h-2.63ZM1676.01,580v-12.7h2.63v12.7h-2.63ZM1679.35,590.66c-6.26.06-8.26-3.2-7.53-9.51,3.95-.09,6.39,2.08,7.53,5.15,1.15-3.07,3.58-5.24,7.54-5.15.72,6.31-1.27,9.56-7.54,9.51h0ZM1679.35,600.23c6.27.06,8.26-3.22,7.54-9.52-3.96-.08-6.39,2.09-7.54,5.16-1.14-3.06-3.58-5.24-7.53-5.16-.73,6.3,1.27,9.58,7.53,9.52h0ZM1660.4,568.75v-14.57h3.64v14.57h-3.64ZM1654.62,568.75v-17.57h3.65v17.57h-3.65ZM1643.54,568.75v-14.57h3.63v14.57h-3.63ZM1649.11,568.75v-17.57h3.63v17.57h-3.63ZM1653.75,583.49c-8.66.07-11.41-4.44-10.41-13.15,5.48-.12,8.83,2.88,10.41,7.12,1.59-4.24,4.95-7.25,10.42-7.12,1,8.7-1.76,13.22-10.42,13.15h0ZM1653.75,596.71c8.66.08,11.42-4.44,10.42-13.15-5.47-.13-8.83,2.88-10.42,7.12-1.59-4.24-4.94-7.25-10.41-7.12-.99,8.7,1.76,13.23,10.41,13.15Z"/>
          </g>
        </g>
        <path class="st31" d="M1206.3,615.23c416.62,4.77,490.78,191.9,827.01,203.02H688.59c127.37-93.74,277.31-205.77,517.7-203.02h.01Z"/>
        <g>
          <path class="st4" d="M1398.33,805.74v11.74h-13.21v-11.74h-19.19l3.93-11.64,14.11-12.78-1.65-2-8.79,3.92,3.6-10.66,13.79-12.49-1.65-1.99-8.52,3.78,11.28-33.34,13.06,38.61,1.19,3.49-7.5-3.34-1.65,1.99,12.52,11.35,4.01,11.85-9.66-4.3-1.65,1.99,15.13,13.71-.05-.24.71,2.1h-19.82.01ZM1466.64,707.93l16.31,47.74,1.47,4.33-9.35-4.13-2.06,2.47,15.64,14.02,5.01,14.66-12.08-5.31-2.06,2.46,18.91,16.95-.06-.28.88,2.57h-26.49v15.65h-13.06v-15.65h-25.7l4.91-14.4,17.64-15.82-2.06-2.46-10.98,4.84,4.5-13.18,17.23-15.44-2.06-2.46-10.66,4.7,14.11-41.27h.01Z"/>
          <path class="st4" d="M1445.33,808.86h-11.74v10.21h11.74v-10.21h0ZM1434.22,727.09c-9.94,0-18.02,7.93-18.02,17.73,0,2.55.54,4.95,1.53,7.15-4.39,2.75-7.31,7.59-7.31,13.1,0,6.65,4.25,12.32,10.21,14.54-.19.89-.3,1.82-.3,2.78,0,6.2,4.36,11.38,10.2,12.8l2.56-7.54,1.21-3.6c5.55-16.41,10.4-30.74,15.99-47.25-2.98-5.76-9.06-9.69-16.07-9.69v-.02h0Z"/>
        </g>
        <path class="st23" d="M1312.33,227.34h-.67l-.55.55h-14.5l15.71,27.94h-.67l-.55.55h-22.36v20.63l-1.32,1.21h-21.17l-1.2-1.21v-20.63h-23.57c.3-1.89,5.55-11.39,15.73-28.49h-15.73v-1.2l35.15-59.91h1.19l34.5,60.57h.01ZM1243.23,218.28v.55c0,1.23-1.6,4.88-4.79,10.92h10.9l.54.65c.67,1.6,1.28,2.41,1.86,2.41l-14.52,25.43h15.18l4.15,3.59-1.21,1.2h-15.71v13.98l-1.19,1.21h-14.53l-1.19-1.21v-13.98h-17.03l-.55-.55,11.47-19.97h-10.92l-.55-.66,25.43-44.2c1.02.5,5.24,7.39,12.66,20.63h0Z"/>
        <path class="st24" d="M960.32,768.36h-.67l-.54.54h-14.5l15.71,27.94h-.67l-.54.55h-22.37v20.63l-1.31,1.21h-21.17l-1.2-1.21v-20.63h-23.57c.3-1.89,5.55-11.39,15.73-28.49h-15.73v-1.2l35.15-59.91h1.19l34.51,60.57h-.02ZM891.22,759.31v.54c0,1.24-1.6,4.88-4.79,10.92h10.9l.54.65c.67,1.6,1.28,2.41,1.87,2.41l-14.52,25.43h15.18l4.14,3.6-1.2,1.19h-15.71v13.97l-1.19,1.21h-14.53l-1.19-1.21v-13.97h-17.03l-.54-.55,11.47-19.97h-10.92l-.54-.65,25.43-44.21c1.02.51,5.24,7.39,12.66,20.64h-.03,0Z"/>
        <path class="st23" d="M592.5,589.23h-.67l-.54.54h-14.5l15.71,27.94h-.67l-.54.55h-22.37v20.63l-1.32,1.2h-21.17l-1.21-1.2v-20.63h-23.57c.3-1.89,5.55-11.39,15.73-28.48h-15.73v-1.2l35.15-59.91h1.19l34.5,60.57h0ZM523.4,580.17v.55c0,1.23-1.6,4.88-4.79,10.92h10.9l.54.65c.67,1.6,1.28,2.41,1.87,2.41l-14.52,25.43h15.18l4.15,3.59-1.2,1.21h-15.71v13.98l-1.19,1.2h-14.53l-1.19-1.2v-13.98h-17.03l-.54-.55,11.47-19.97h-10.92l-.54-.66,25.43-44.2c1.02.49,5.24,7.38,12.66,20.63h-.04,0Z"/>
      </g>
    </g>
  </g>
  <g id="Layer_1-24">
    <g class="st30">
      <g class="st28">
        <rect class="st20" x="-4049.78" y="999" width="5964.09" height="827.51"/>
      </g>
    </g>
  </g>
  <g id="Layer_1-25">
    <g class="st29">
      <rect class="st21" x="-8400.82" y="1016" width="11627.83" height="1613.34"/>
    </g>
  </g>
</svg>