<?xml version="1.0" encoding="UTF-8" standalone="no"?>
<svg
   id="Layer_2"
   data-name="Layer 2"
   viewBox="0 0 1920 1080"
   version="1.1"
   sodipodi:docname="05.svg"
   width="1920"
   height="1080"
   xmlns:inkscape="http://www.inkscape.org/namespaces/inkscape"
   xmlns:sodipodi="http://sodipodi.sourceforge.net/DTD/sodipodi-0.dtd"
   xmlns="http://www.w3.org/2000/svg"
   xmlns:svg="http://www.w3.org/2000/svg">
  <sodipodi:namedview
     id="namedview87"
     pagecolor="#ffffff"
     bordercolor="#000000"
     borderopacity="0.25"
     inkscape:showpageshadow="2"
     inkscape:pageopacity="0.0"
     inkscape:pagecheckerboard="0"
     inkscape:deskcolor="#d1d1d1" />
  <defs
     id="defs2">
    <style
       id="style1">
      .cls-1 {
        fill: #b37d4f;
      }

      .cls-1, .cls-2, .cls-3, .cls-4, .cls-5, .cls-6, .cls-7, .cls-8, .cls-9 {
        fill-rule: evenodd;
      }

      .cls-10, .cls-11, .cls-12, .cls-13, .cls-14 {
        fill: none;
      }

      .cls-11 {
        stroke-dasharray: 6.6 6.6;
      }

      .cls-11, .cls-12, .cls-13, .cls-14 {
        stroke: #000;
        stroke-width: 3.32px;
      }

      .cls-11, .cls-12, .cls-13, .cls-14, .cls-15 {
        stroke-miterlimit: 10;
      }

      .cls-2, .cls-16 {
        fill: #38a429;
      }

      .cls-17 {
        fill: #00b3eb;
      }

      .cls-3 {
        fill: #009536;
      }

      .cls-12 {
        stroke-dasharray: 6.66 6.66;
      }

      .cls-4 {
        opacity: .6;
      }

      .cls-4, .cls-8 {
        fill: #7d471a;
      }

      .cls-13 {
        stroke-dasharray: 6.63 6.63;
      }

      .cls-5 {
        fill: #c1021d;
      }

      .cls-18 {
        clip-path: url(#clippath-1);
      }

      .cls-6 {
        fill: #218e2a;
      }

      .cls-19 {
        fill: #915a2f;
      }

      .cls-20 {
        fill: #50a835;
      }

      .cls-7 {
        fill: #4f4e53;
      }

      .cls-21 {
        fill: #5dae42;
      }

      .cls-22 {
        fill: #2fbbed;
      }

      .cls-9 {
        fill: #cbcbcb;
      }

      .cls-23 {
        fill: #7a6356;
      }

      .cls-24 {
        fill: #6bb24d;
      }

      .cls-25 {
        clip-path: url(#clippath);
      }

      .cls-15 {
        fill: #90bf5f;
        stroke: #50a825;
        stroke-width: 11.8px;
      }
    </style>
    <clipPath
       id="clippath">
      <rect
         class="cls-10"
         x="1643.4399"
         y="353.28"
         width="1920"
         height="1080"
         id="rect1" />
    </clipPath>
    <clipPath
       id="clippath-1">
      <rect
         class="cls-10"
         x="1613.54"
         y="194.82001"
         width="1962.9"
         height="1610.46"
         id="rect2" />
    </clipPath>
  </defs>
  <g
     id="Layer_1-2"
     data-name="Layer 1"
     transform="translate(-1643.4399,-353.28)">
    <g
       class="cls-25"
       clip-path="url(#clippath)"
       id="g87">
      <g
         id="g86">
        <rect
           class="cls-15"
           x="1607.64"
           y="193.98"
           width="1967.96"
           height="1573.36"
           id="rect3" />
        <path
           class="cls-24"
           d="m 3582.46,233.54 c -312.2,3.29 -367.8,132.05 -619.76,139.69 h 855.93 c -95.45,-64.5 -56.04,-141.58 -236.18,-139.69 z"
           id="path3" />
        <path
           class="cls-24"
           d="m 3743.45,1217.55 c -261.06,2.45 -307.56,97.84 -518.23,103.5 h 674 c -79.83,-47.79 -5.13,-104.9 -155.77,-103.5 z"
           id="path4" />
        <path
           class="cls-21"
           d="m 3634.87,526.19 c -435.76,5.32 -513.34,214.08 -865,226.49 H 3906.52 C 3773.3,648.1 3886.31,523.13 3634.87,526.19 Z"
           id="path5" />
        <path
           class="cls-4"
           d="m 2915.4,844.93 c 88.67,-0.54 146.87,-94.2 146.87,-94.2 h -291.42 c 0,0 56.34,94.73 144.56,94.2 z"
           id="path6" />
        <path
           class="cls-8"
           d="m 2786.44,715.15 h -4.28 v -6.53 h 59.19 v 6.53 h -20.47 v 1.84 l 15.17,1.74 -3.13,15.03 c 0.88,0.41 1.69,0.98 2.38,1.67 1.51,1.51 2.46,3.6 2.46,5.9 0,2.3 -0.95,4.41 -2.46,5.92 -0.56,0.56 -1.2,1.05 -1.91,1.43 h 16.07 v 4.7 h -78.63 v -4.7 h 16.23 c -0.7,-0.37 -1.35,-0.86 -1.92,-1.43 -1.51,-1.51 -2.45,-3.61 -2.45,-5.92 0,-2.31 0.93,-4.39 2.45,-5.9 1.22,-1.21 2.81,-2.05 4.56,-2.34 l -3.28,-17.94 v 0 z m 49.38,-9.31 h -47.63 l -0.49,-1.25 3.68,-2.93 2.78,-1.35 -0.17,-3.85 3.44,-0.58 0.67,-2.36 4.86,-1.84 2.84,3.1 5.71,-0.25 0.34,-2.09 7.63,-1.43 1.59,8.14 4.44,-0.59 5.78,-0.08 0.42,3.77 4.7,1.43 -0.59,2.17 v 0 z m -40.75,42.85 h 30.34 c -0.71,-0.37 -1.35,-0.86 -1.92,-1.43 -1.51,-1.51 -2.44,-3.61 -2.44,-5.92 0,-0.32 0.01,-0.64 0.04,-0.95 h -21.72 c 0.05,0.31 0.06,0.63 0.06,0.95 0,2.31 -0.94,4.41 -2.45,5.92 -0.57,0.56 -1.21,1.05 -1.91,1.43 z m -6.33,-9.67 c -0.59,0.6 -0.96,1.42 -0.96,2.32 0,0.9 0.37,1.74 0.96,2.33 0.59,0.59 1.41,0.96 2.33,0.96 0.92,0 1.73,-0.37 2.33,-0.96 0.6,-0.59 0.97,-1.42 0.97,-2.33 0,-0.91 -0.37,-1.72 -0.97,-2.32 -0.59,-0.6 -1.42,-0.96 -2.33,-0.96 -0.91,0 -1.73,0.36 -2.33,0.96 z m 37.38,2.32 c 0,0.91 0.36,1.74 0.96,2.33 0.6,0.59 1.4,0.96 2.32,0.96 0.92,0 1.74,-0.37 2.33,-0.96 0.6,-0.59 0.96,-1.42 0.96,-2.33 0,-0.91 -0.36,-1.72 -0.96,-2.32 -0.59,-0.6 -1.42,-0.96 -2.33,-0.96 -0.91,0 -1.72,0.36 -2.32,0.96 -0.6,0.6 -0.96,1.42 -0.96,2.32 z"
           id="path7" />
        <path
           class="cls-7"
           d="m 2545.75,719.83 h -14.4 v 3.18 h 14.4 z m 0,6.62 h -14.4 v 3.18 h 14.4 z m 0,6.95 h -14.4 v 3.18 h 14.4 z m 27.15,-31.99 h -17.76 v 3.18 h 17.76 z m 0,6.94 h -17.76 v 3.18 h 17.76 z m 0,6.63 h -17.76 v 3.18 h 17.76 z m 0,6.95 h -17.76 v 3.19 h 17.76 z m 49.27,-29.4 h -17.77 v 3.18 h 17.77 z m 0,6.94 h -17.77 v 3.18 h 17.77 z m 0,6.62 h -17.77 v 3.18 h 17.77 z m 0,6.95 h -17.77 v 3.19 h 17.77 z m -76.42,-0.17 h -14.4 v 3.18 h 14.4 z m 85.32,32.39 h 2.21 v 8.13 h -110.72 v -8.13 h 2.94 v -38.09 h 20.45 v -11.06 h 27.13 v -11.73 h 57.99 v 60.87 0 z"
           id="path8" />
        <g
           id="g10">
          <path
             class="cls-9"
             d="m 2876.32,771.41 3.21,-3.19 c 1.29,-1.3 3.41,-1.29 4.69,0 l 1.71,1.73 c -2.62,2.65 -5.13,5.45 -7.52,8.33 l -2.12,-2.15 c -1.28,-1.3 -1.28,-3.42 0.03,-4.73 v 0 z m -9.51,29.66 c 0.6,0.58 1.23,1.18 1.83,1.77 4.39,-5.73 9.11,-11.48 14.73,-17.29 1.02,0.67 2.04,1.35 3.05,2.02 0.17,-0.2 0.36,-0.4 0.53,-0.61 l 37.59,38.15 c 1.27,1.3 3.39,1.3 4.7,0 l 3.2,-3.2 c 1.29,-1.29 1.3,-3.42 0.03,-4.72 l -37.89,-38.44 c 5.37,-5.4 11.38,-10.66 17.19,-14.34 l -4.75,-7.29 c -16.66,10.65 -30.45,26.77 -40.22,43.95 z"
             id="path9" />
          <path
             class="cls-9"
             d="m 2945.74,767.98 3.08,3.22 c 1.24,1.31 1.21,3.43 -0.07,4.73 l -1.72,1.71 c -2.55,-2.61 -5.24,-5.13 -8.02,-7.52 l 2.13,-2.15 c 1.29,-1.29 3.36,-1.29 4.61,0 v 0 z m -28.8,-9.44 c -0.59,0.62 -1.17,1.24 -1.75,1.84 5.53,4.4 11.08,9.11 16.68,14.76 -0.68,1.03 -1.35,2.06 -2.03,3.07 0.19,0.17 0.39,0.35 0.58,0.53 l -37.72,37.94 c -1.29,1.3 -1.33,3.42 -0.07,4.72 l 3.08,3.21 c 1.24,1.29 3.32,1.31 4.6,0.02 l 38.03,-38.25 c 5.19,5.39 10.23,11.42 13.76,17.24 l 7.16,-4.81 c -10.14,-16.7 -25.68,-30.51 -42.32,-40.27 z"
             id="path10" />
        </g>
        <polygon
           class="cls-8"
           points="2728.37,753.16 2652.13,753.16 2663.56,668.91 2716.95,668.91 "
           id="polygon10" />
        <path
           class="cls-17"
           d="m 2330.97,50.28 c -118.64,4.83 -235.81,45.06 -332.66,113.63 -10.24,7.43 -20.23,15.21 -29.51,23.77 -3.06,2.84 -6.04,5.78 -8.67,8.85 0,0 -4.68,-4.04 -4.68,-4.04 2.96,-3.34 6.1,-6.34 9.31,-9.23 9.6,-8.6 19.9,-16.38 30.42,-23.76 98.33,-67.43 216.6,-106.17 335.8,-109.22 v 0 z"
           id="path11" />
        <path
           class="cls-20"
           d="m 1812.78,1299.7 c -276.4,3.8 -125.61,152.37 -285.99,161.57 h 629.47 c -84.5,-74.6 -183.98,-163.75 -343.47,-161.57 z"
           id="path12" />
        <path
           class="cls-16"
           d="m 1990.67,323.03 h -0.7 l -0.57,0.56 h -15.16 l 16.43,29.22 h -0.7 l -0.57,0.57 h -23.39 v 21.58 l -1.38,1.26 h -22.14 l -1.27,-1.26 v -21.58 h -24.65 c 0.31,-1.97 5.8,-11.92 16.45,-29.79 h -16.45 v -1.26 l 36.77,-62.67 h 1.25 l 36.09,63.36 z m -72.27,-9.48 v 0.56 c 0,1.29 -1.68,5.1 -5.02,11.42 h 11.4 l 0.57,0.68 c 0.7,1.67 1.33,2.52 1.94,2.52 l -15.19,26.6 h 15.87 l 4.34,3.76 -1.26,1.25 h -16.44 v 14.62 l -1.25,1.26 h -15.2 l -1.24,-1.26 v -14.62 h -17.81 l -0.57,-0.57 12,-20.89 h -11.43 l -0.57,-0.69 26.6,-46.23 c 1.06,0.53 5.47,7.73 13.25,21.58 z"
           id="path13" />
        <path
           class="cls-16"
           d="m 2738.35,323.03 h -0.7 l -0.57,0.56 h -15.17 l 16.44,29.22 h -0.7 l -0.57,0.57 h -23.39 v 21.58 l -1.38,1.26 h -22.15 l -1.25,-1.26 v -21.58 h -24.66 c 0.31,-1.97 5.8,-11.92 16.45,-29.79 h -16.45 v -1.26 l 36.77,-62.67 h 1.25 l 36.09,63.36 z m -72.27,-9.48 v 0.56 c 0,1.29 -1.67,5.1 -5.01,11.42 h 11.4 l 0.57,0.68 c 0.7,1.67 1.34,2.52 1.95,2.52 l -15.19,26.6 h 15.88 l 4.34,3.76 -1.26,1.25 h -16.44 v 14.62 l -1.25,1.26 h -15.2 l -1.24,-1.26 v -14.62 h -17.81 l -0.57,-0.57 11.99,-20.89 h -11.42 l -0.57,-0.69 26.6,-46.23 c 1.06,0.53 5.48,7.73 13.24,21.58 z"
           id="path14" />
        <path
           class="cls-16"
           d="m 2923.69,323.03 h -0.7 l -0.57,0.56 h -15.17 l 16.44,29.22 h -0.7 l -0.57,0.57 h -23.39 v 21.58 l -1.38,1.26 h -22.15 l -1.26,-1.26 v -21.58 h -24.65 c 0.31,-1.97 5.8,-11.92 16.45,-29.79 h -16.45 v -1.26 l 36.76,-62.67 h 1.25 l 36.09,63.36 z m -72.27,-9.48 v 0.56 c 0,1.29 -1.67,5.1 -5,11.42 h 11.39 l 0.57,0.68 c 0.7,1.67 1.34,2.52 1.95,2.52 l -15.19,26.6 h 15.87 l 4.35,3.76 -1.26,1.25 h -16.44 v 14.62 l -1.24,1.26 h -15.21 l -1.25,-1.26 v -14.62 h -17.81 l -0.57,-0.57 12,-20.89 h -11.43 l -0.57,-0.69 26.6,-46.23 c 1.06,0.53 5.48,7.73 13.24,21.58 z"
           id="path15" />
        <g
           id="g17">
          <path
             class="cls-2"
             d="m 1897.96,1496.26 v 12.28 h -13.82 v -12.28 h -20.07 l 4.11,-12.18 14.76,-13.37 -1.73,-2.1 -9.19,4.11 3.77,-11.15 14.42,-13.07 -1.72,-2.08 -8.92,3.96 11.81,-34.88 13.65,40.39 1.25,3.65 -7.85,-3.49 -1.72,2.08 13.1,11.87 4.2,12.39 -10.1,-4.5 -1.72,2.09 15.83,14.34 -0.05,-0.25 0.74,2.19 h -20.73 z m 71.46,-102.31 17.06,49.93 1.53,4.54 -9.77,-4.32 -2.16,2.58 16.36,14.66 5.24,15.33 -12.63,-5.56 -2.16,2.57 19.79,17.73 -0.08,-0.29 0.93,2.69 h -27.7 v 16.37 h -13.66 v -16.37 h -26.89 l 5.15,-15.06 18.44,-16.55 -2.16,-2.57 -11.49,5.07 4.71,-13.79 18.02,-16.15 -2.15,-2.57 -11.15,4.91 14.76,-43.16 v 0 z"
             id="path16" />
          <path
             class="cls-6"
             d="m 1947.13,1499.52 h -12.28 v 10.68 h 12.28 z m -11.63,-85.53 c -10.39,0 -18.85,8.29 -18.85,18.54 0,2.66 0.57,5.18 1.6,7.47 -4.6,2.88 -7.65,7.94 -7.65,13.7 0,6.96 4.45,12.89 10.69,15.21 -0.19,0.93 -0.31,1.91 -0.31,2.91 0,6.47 4.56,11.9 10.68,13.38 l 2.67,-7.88 1.27,-3.77 c 5.8,-17.17 10.88,-32.15 16.73,-49.42 -3.12,-6.03 -9.48,-10.14 -16.82,-10.14 z"
             id="path17" />
        </g>
        <g
           id="g19">
          <path
             class="cls-2"
             d="m 2834.14,1496.26 v 12.28 h -13.82 v -12.28 h -20.07 l 4.11,-12.18 14.77,-13.37 -1.73,-2.1 -9.19,4.11 3.76,-11.15 14.43,-13.07 -1.73,-2.08 -8.92,3.96 11.8,-34.88 13.66,40.39 1.25,3.65 -7.85,-3.5 -1.73,2.08 13.1,11.87 4.2,12.39 -10.1,-4.5 -1.72,2.08 15.82,14.34 -0.05,-0.25 0.73,2.19 h -20.72 z m 71.45,-102.31 17.06,49.93 1.53,4.54 -9.78,-4.32 -2.15,2.58 16.35,14.66 5.25,15.33 -12.65,-5.56 -2.15,2.57 19.78,17.73 -0.05,-0.29 0.92,2.69 H 2912 v 16.37 h -13.66 v -16.37 h -26.89 l 5.14,-15.06 18.45,-16.55 -2.16,-2.57 -11.49,5.07 4.71,-13.79 18.02,-16.15 -2.16,-2.57 -11.15,4.91 14.76,-43.16 v 0 z"
             id="path18" />
          <path
             class="cls-6"
             d="m 2883.3,1499.52 h -12.28 v 10.68 h 12.28 z m -11.62,-85.53 c -10.39,0 -18.85,8.29 -18.85,18.54 0,2.66 0.57,5.18 1.59,7.47 -4.59,2.88 -7.65,7.94 -7.65,13.7 0,6.96 4.44,12.89 10.69,15.21 -0.19,0.93 -0.31,1.91 -0.31,2.91 0,6.47 4.55,11.9 10.67,13.38 l 2.67,-7.89 1.27,-3.77 c 5.8,-17.17 10.88,-32.15 16.72,-49.42 -3.11,-6.02 -9.47,-10.14 -16.81,-10.14 z"
             id="path19" />
        </g>
        <g
           id="g21">
          <path
             class="cls-2"
             d="m 1709.49,1306.8 v 12.28 h -13.81 v -12.28 h -20.08 l 4.12,-12.18 14.78,-13.37 -1.75,-2.09 -9.18,4.1 3.76,-11.15 14.42,-13.06 -1.72,-2.08 -8.93,3.96 11.81,-34.88 13.65,40.39 1.25,3.65 -7.84,-3.49 -1.73,2.08 13.1,11.87 4.19,12.39 -10.1,-4.5 -1.73,2.08 15.83,14.34 -0.06,-0.25 0.75,2.19 h -20.74 z m 71.45,-102.3 17.06,49.93 1.53,4.53 -9.77,-4.31 -2.16,2.58 16.36,14.66 5.24,15.33 -12.64,-5.56 -2.15,2.57 19.77,17.74 -0.06,-0.29 0.92,2.7 h -27.7 v 16.36 h -13.65 v -16.36 h -26.89 l 5.14,-15.06 18.45,-16.55 -2.16,-2.57 -11.49,5.06 4.71,-13.79 18.03,-16.14 -2.16,-2.58 -11.15,4.91 14.75,-43.16 v 0 z"
             id="path20" />
          <path
             class="cls-6"
             d="m 1758.66,1310.06 h -12.29 v 10.68 h 12.29 z m -11.62,-85.52 c -10.41,0 -18.85,8.3 -18.85,18.54 0,2.66 0.57,5.18 1.59,7.48 -4.59,2.88 -7.64,7.94 -7.64,13.7 0,6.95 4.44,12.88 10.69,15.21 -0.2,0.94 -0.31,1.9 -0.31,2.91 0,6.48 4.55,11.9 10.67,13.38 l 2.67,-7.89 1.28,-3.77 c 5.81,-17.16 10.88,-32.15 16.73,-49.42 -3.12,-6.02 -9.49,-10.14 -16.81,-10.14 z"
             id="path21" />
        </g>
        <g
           id="g23">
          <path
             class="cls-2"
             d="m 3212.57,1306.8 v 12.28 h -13.81 v -12.28 h -20.07 l 4.11,-12.18 14.77,-13.37 -1.74,-2.09 -9.19,4.1 3.76,-11.15 14.42,-13.06 -1.71,-2.08 -8.94,3.96 11.8,-34.88 13.66,40.39 1.25,3.65 -7.84,-3.49 -1.73,2.08 13.1,11.87 4.2,12.39 -10.11,-4.5 -1.72,2.08 15.82,14.34 -0.05,-0.25 0.76,2.19 h -20.75 z m 71.46,-102.3 17.06,49.93 1.53,4.53 -9.76,-4.31 -2.17,2.58 16.36,14.66 5.25,15.33 -12.63,-5.56 -2.16,2.57 19.78,17.74 -0.06,-0.29 0.93,2.69 h -27.71 v 16.36 h -13.64 v -16.36 h -26.89 l 5.13,-15.06 18.45,-16.55 -2.15,-2.57 -11.49,5.06 4.71,-13.79 18.02,-16.15 -2.15,-2.58 -11.16,4.91 14.76,-43.16 v 0 z"
             id="path22" />
          <path
             class="cls-6"
             d="m 3261.74,1310.06 h -12.28 v 10.68 h 12.28 z m -11.63,-85.52 c -10.4,0 -18.85,8.3 -18.85,18.54 0,2.66 0.57,5.18 1.6,7.48 -4.6,2.88 -7.64,7.93 -7.64,13.7 0,6.95 4.44,12.88 10.68,15.21 -0.19,0.94 -0.31,1.9 -0.31,2.91 0,6.48 4.56,11.9 10.67,13.38 l 2.67,-7.89 1.28,-3.77 c 5.81,-17.16 10.88,-32.15 16.72,-49.42 -3.11,-6.02 -9.47,-10.14 -16.81,-10.14 z"
             id="path23" />
        </g>
        <path
           class="cls-16"
           d="m 2174.73,890.65 h -0.7 l -0.57,0.57 h -15.16 l 16.44,29.22 h -0.7 l -0.57,0.57 h -23.39 v 21.58 l -1.38,1.26 h -22.15 l -1.27,-1.26 v -21.58 h -24.64 c 0.31,-1.97 5.8,-11.92 16.44,-29.8 h -16.44 v -1.26 l 36.76,-62.67 h 1.24 l 36.09,63.36 z m -72.27,-9.46 v 0.57 c 0,1.28 -1.66,5.09 -5,11.41 h 11.39 l 0.56,0.68 c 0.71,1.67 1.35,2.52 1.96,2.52 l -15.19,26.61 h 15.88 l 4.33,3.76 -1.25,1.25 h -16.45 v 14.62 l -1.23,1.26 h -15.21 l -1.25,-1.26 v -14.62 h -17.82 l -0.57,-0.57 12,-20.89 h -11.43 l -0.57,-0.68 26.6,-46.23 c 1.06,0.52 5.48,7.71 13.24,21.57 z"
           id="path24" />
        <path
           class="cls-16"
           d="m 1992.81,701.78 h -0.71 l -0.57,0.57 h -15.16 l 16.44,29.22 h -0.71 l -0.57,0.57 h -23.4 v 21.58 l -1.38,1.26 h -22.14 l -1.26,-1.26 v -21.58 h -24.65 c 0.31,-1.97 5.8,-11.92 16.45,-29.79 h -16.45 v -1.26 l 36.77,-62.66 h 1.24 l 36.09,63.35 z m -72.28,-9.47 v 0.56 c 0,1.29 -1.67,5.1 -5.01,11.43 h 11.4 l 0.57,0.68 c 0.7,1.67 1.33,2.52 1.94,2.52 l -15.18,26.6 h 15.88 l 4.34,3.76 -1.26,1.25 h -16.44 v 14.62 l -1.25,1.26 h -15.2 l -1.24,-1.26 v -14.62 h -17.82 l -0.57,-0.57 11.99,-20.89 h -11.42 l -0.57,-0.68 26.6,-46.23 c 1.07,0.52 5.48,7.72 13.24,21.58 z"
           id="path25" />
        <path
           class="cls-16"
           d="m 2174.73,1266.39 h -0.7 l -0.57,0.57 h -15.16 l 16.44,29.23 h -0.7 l -0.57,0.57 h -23.39 v 21.57 l -1.38,1.26 h -22.15 l -1.27,-1.26 v -21.57 h -24.64 c 0.31,-1.97 5.8,-11.92 16.44,-29.8 h -16.44 v -1.26 l 36.76,-62.66 h 1.24 z m -72.27,-9.48 v 0.56 c 0,1.3 -1.66,5.1 -5,11.42 h 11.39 l 0.56,0.68 c 0.71,1.67 1.35,2.52 1.96,2.52 l -15.19,26.6 h 15.88 l 4.33,3.76 -1.25,1.26 h -16.45 v 14.61 l -1.23,1.26 h -15.21 l -1.25,-1.26 v -14.61 h -17.82 l -0.57,-0.57 12,-20.89 h -11.43 l -0.57,-0.68 26.6,-46.24 c 1.06,0.53 5.48,7.74 13.24,21.58 z"
           id="path26" />
        <path
           class="cls-16"
           d="m 2366.23,1457.43 h -0.69 l -0.57,0.57 h -15.16 l 16.43,29.22 h -0.69 l -0.57,0.57 h -23.39 v 21.57 l -1.39,1.26 h -22.15 l -1.25,-1.26 v -21.57 h -24.65 c 0.31,-1.97 5.8,-11.92 16.45,-29.8 h -16.45 v -1.26 l 36.76,-62.67 h 1.25 l 36.08,63.36 z m -72.26,-9.47 v 0.56 c 0,1.3 -1.68,5.11 -5.01,11.43 h 11.4 l 0.57,0.67 c 0.69,1.67 1.34,2.52 1.95,2.52 l -15.19,26.6 h 15.88 l 4.34,3.76 -1.27,1.25 h -16.43 v 14.62 l -1.25,1.26 h -15.2 l -1.25,-1.26 v -14.62 h -17.81 l -0.57,-0.57 12.01,-20.89 h -11.43 l -0.57,-0.68 26.61,-46.23 c 1.06,0.53 5.47,7.73 13.24,21.58 z"
           id="path27" />
        <path
           class="cls-16"
           d="m 3112.38,1457.43 h -0.7 l -0.56,0.57 h -15.17 l 16.44,29.22 h -0.7 l -0.56,0.57 h -23.4 v 21.57 l -1.37,1.26 h -22.15 l -1.27,-1.26 v -21.57 h -24.65 c 0.31,-1.97 5.81,-11.92 16.44,-29.8 h -16.44 v -1.26 l 36.77,-62.67 h 1.24 l 36.09,63.36 z m -72.28,-9.47 v 0.56 c 0,1.3 -1.67,5.11 -5.01,11.43 h 11.4 l 0.57,0.67 c 0.7,1.67 1.34,2.52 1.95,2.52 l -15.18,26.6 h 15.87 l 4.34,3.76 -1.27,1.25 h -16.45 v 14.62 l -1.24,1.26 h -15.2 l -1.25,-1.26 v -14.62 h -17.81 l -0.57,-0.57 12,-20.89 h -11.42 l -0.57,-0.68 26.6,-46.23 c 1.06,0.53 5.48,7.73 13.23,21.58 z"
           id="path28" />
        <path
           class="cls-16"
           d="m 3496.41,1457.43 h -0.7 l -0.56,0.57 h -15.17 l 16.44,29.22 h -0.7 l -0.56,0.57 h -23.4 v 21.57 l -1.37,1.26 h -22.15 l -1.26,-1.26 v -21.57 h -24.65 c 0.31,-1.97 5.81,-11.92 16.44,-29.8 h -16.44 v -1.26 l 36.77,-62.67 h 1.24 l 36.09,63.36 z m -72.27,-9.47 v 0.56 c 0,1.3 -1.67,5.11 -5.02,11.43 h 11.41 l 0.57,0.67 c 0.71,1.67 1.34,2.52 1.95,2.52 l -15.18,26.6 h 15.88 l 4.33,3.76 -1.27,1.25 h -16.44 v 14.62 l -1.25,1.26 h -15.19 l -1.25,-1.26 v -14.62 h -17.81 l -0.57,-0.57 11.99,-20.89 h -11.42 l -0.57,-0.68 26.6,-46.23 c 1.07,0.53 5.48,7.73 13.24,21.58 z"
           id="path29" />
        <g
           id="g31">
          <path
             class="cls-2"
             d="m 1902.01,1682.33 v 12.28 h -13.83 v -12.28 h -20.06 l 4.11,-12.18 14.76,-13.37 -1.72,-2.09 -9.19,4.1 3.77,-11.15 14.42,-13.06 -1.73,-2.08 -8.92,3.96 11.81,-34.88 13.65,40.39 1.25,3.64 -7.84,-3.49 -1.73,2.08 13.1,11.87 4.19,12.39 -10.1,-4.5 -1.72,2.09 15.82,14.34 -0.06,-0.25 0.75,2.19 z m 71.45,-102.3 17.05,49.94 1.54,4.53 -9.78,-4.31 -2.16,2.58 16.36,14.66 5.24,15.33 -12.63,-5.55 -2.16,2.57 19.78,17.74 -0.05,-0.3 0.92,2.7 h -27.7 v 16.36 h -13.66 v -16.36 h -26.88 l 5.14,-15.06 18.45,-16.56 -2.16,-2.57 -11.49,5.06 4.71,-13.78 18.02,-16.16 -2.16,-2.57 -11.14,4.91 14.76,-43.15 v 0 z"
             id="path30" />
          <path
             class="cls-6"
             d="m 1951.17,1685.59 h -12.28 v 10.68 h 12.28 z m -11.62,-85.53 c -10.39,0 -18.85,8.3 -18.85,18.55 0,2.65 0.58,5.17 1.6,7.48 -4.59,2.88 -7.65,7.93 -7.65,13.7 0,6.95 4.44,12.89 10.68,15.21 -0.19,0.94 -0.31,1.9 -0.31,2.91 0,6.48 4.56,11.9 10.67,13.39 l 2.67,-7.89 1.28,-3.77 c 5.81,-17.17 10.88,-32.15 16.72,-49.42 -3.12,-6.02 -9.48,-10.14 -16.81,-10.14 z"
             id="path31" />
        </g>
        <g
           id="g33">
          <path
             class="cls-2"
             d="m 3212.57,1682.33 v 12.28 h -13.82 v -12.28 h -20.06 l 4.11,-12.18 14.76,-13.37 -1.73,-2.09 -9.19,4.1 3.76,-11.15 14.42,-13.06 -1.73,-2.08 -8.92,3.96 11.8,-34.88 13.66,40.39 1.25,3.64 -7.84,-3.49 -1.73,2.08 13.1,11.87 4.2,12.39 -10.11,-4.5 -1.72,2.09 15.82,14.34 -0.06,-0.25 0.75,2.19 h -20.74 z m 71.46,-102.3 17.06,49.94 1.53,4.53 -9.77,-4.31 -2.16,2.58 16.36,14.66 5.25,15.33 -12.63,-5.55 -2.16,2.57 19.78,17.74 -0.06,-0.3 0.93,2.7 h -27.71 v 16.36 h -13.66 v -16.36 h -26.88 l 5.13,-15.06 18.45,-16.56 -2.15,-2.57 -11.49,5.06 4.71,-13.78 18.02,-16.16 -2.16,-2.57 -11.14,4.91 z"
             id="path32" />
          <path
             class="cls-6"
             d="m 3261.74,1685.59 h -12.28 v 10.68 h 12.28 z m -11.63,-85.53 c -10.4,0 -18.85,8.3 -18.85,18.55 0,2.65 0.57,5.17 1.6,7.48 -4.6,2.88 -7.64,7.93 -7.64,13.7 0,6.95 4.44,12.89 10.68,15.21 -0.19,0.94 -0.31,1.9 -0.31,2.91 0,6.48 4.56,11.9 10.67,13.39 l 2.66,-7.89 1.28,-3.77 c 5.8,-17.17 10.88,-32.15 16.72,-49.42 -3.11,-6.02 -9.47,-10.14 -16.81,-10.14 z"
             id="path33" />
        </g>
        <g
           id="g35">
          <path
             class="cls-3"
             d="m 2649.25,1680.15 v 12.28 h -13.81 v -12.28 h -20.06 l 4.11,-12.18 14.76,-13.38 -1.73,-2.09 -9.18,4.11 3.76,-11.16 14.43,-13.06 -1.73,-2.07 -8.91,3.96 11.8,-34.88 13.66,40.39 1.25,3.64 -7.84,-3.49 -1.73,2.08 13.1,11.87 4.19,12.39 -10.1,-4.5 -1.73,2.09 15.83,14.34 -0.05,-0.26 0.74,2.2 h -20.73 z m 71.45,-102.31 17.06,49.94 1.53,4.53 -9.77,-4.31 -2.16,2.58 16.36,14.67 5.24,15.32 -12.63,-5.55 -2.16,2.57 19.79,17.73 -0.07,-0.3 0.92,2.7 h -27.7 v 16.37 h -13.66 v -16.37 h -26.88 l 5.14,-15.06 18.45,-16.56 -2.16,-2.57 -11.49,5.07 4.72,-13.79 18.02,-16.15 -2.15,-2.58 -11.15,4.91 14.76,-43.16 v 0 z"
             id="path34" />
          <path
             class="cls-3"
             d="m 2698.41,1683.41 h -12.28 v 10.68 h 12.28 z m -11.61,-85.54 c -10.4,0 -18.85,8.3 -18.85,18.55 0,2.65 0.57,5.17 1.6,7.47 -4.6,2.88 -7.65,7.94 -7.65,13.7 0,6.95 4.44,12.89 10.68,15.21 -0.19,0.94 -0.31,1.9 -0.31,2.91 0,6.48 4.55,11.91 10.67,13.38 l 2.68,-7.88 1.26,-3.77 c 5.81,-17.17 10.88,-32.16 16.72,-49.42 -3.11,-6.03 -9.47,-10.14 -16.81,-10.14 z"
             id="path35" />
        </g>
        <path
           class="cls-16"
           d="m 3119.8,1079.68 h -0.71 l -0.57,0.57 h -15.17 l 16.45,29.22 h -0.71 l -0.57,0.57 h -23.39 v 21.57 l -1.38,1.26 h -22.14 l -1.27,-1.26 v -21.57 h -24.64 c 0.31,-1.97 5.81,-11.92 16.45,-29.79 h -16.45 v -1.26 l 36.77,-62.66 h 1.25 l 36.09,63.35 z m -72.28,-9.47 v 0.56 c 0,1.29 -1.67,5.1 -5.02,11.42 h 11.4 l 0.57,0.68 c 0.71,1.67 1.34,2.52 1.95,2.52 l -15.19,26.6 h 15.88 l 4.33,3.76 -1.26,1.25 h -16.44 v 14.62 l -1.25,1.26 h -15.2 l -1.25,-1.26 V 1117 h -17.82 l -0.57,-0.57 12,-20.89 h -11.43 l -0.57,-0.68 26.6,-46.23 c 1.06,0.52 5.48,7.72 13.24,21.58 z"
           id="path36" />
        <path
           class="cls-16"
           d="m 1987.9,1079.68 h -0.71 l -0.56,0.57 h -15.17 l 16.44,29.22 h -0.71 l -0.56,0.57 h -23.4 v 21.57 l -1.38,1.26 h -22.14 l -1.27,-1.26 v -21.57 h -24.65 c 0.31,-1.97 5.8,-11.92 16.45,-29.79 h -16.45 v -1.26 l 36.77,-62.66 h 1.25 z m -72.27,-9.47 v 0.56 c 0,1.29 -1.67,5.1 -5.01,11.42 h 11.41 l 0.56,0.68 c 0.71,1.67 1.35,2.52 1.96,2.52 l -15.19,26.6 h 15.87 l 4.34,3.76 -1.26,1.25 h -16.44 v 14.62 l -1.25,1.26 h -15.2 l -1.24,-1.26 V 1117 h -17.81 l -0.57,-0.57 11.99,-20.89 h -11.42 l -0.57,-0.68 26.6,-46.23 c 1.05,0.52 5.48,7.72 13.24,21.58 z"
           id="path37" />
        <path
           class="cls-16"
           d="m 3496.41,1079.68 h -0.7 l -0.56,0.57 h -15.17 l 16.44,29.22 h -0.7 l -0.56,0.57 h -23.4 v 21.57 l -1.38,1.26 h -22.15 l -1.26,-1.26 v -21.57 h -24.65 c 0.31,-1.97 5.8,-11.92 16.45,-29.79 h -16.45 v -1.26 l 36.77,-62.66 h 1.24 l 36.09,63.35 z m -72.27,-9.47 v 0.56 c 0,1.29 -1.67,5.1 -5.02,11.42 h 11.41 l 0.57,0.68 c 0.71,1.67 1.34,2.52 1.95,2.52 l -15.19,26.6 h 15.89 l 4.32,3.76 -1.26,1.25 h -16.44 v 14.62 l -1.25,1.26 h -15.19 l -1.25,-1.26 V 1117 h -17.81 l -0.57,-0.57 11.99,-20.89 h -11.42 l -0.57,-0.68 26.6,-46.23 c 1.06,0.52 5.48,7.72 13.24,21.58 z"
           id="path38" />
        <g
           class="cls-18"
           clip-path="url(#clippath-1)"
           id="g42">
          <g
             id="g41">
            <path
               class="cls-22"
               d="m 3960.91,2729.77 c -2.25,-4 -5.68,-9 -9.93,-13.82 -8.43,-9.77 -19.72,-18.95 -26.38,-25.11 -2.98,-3.06 6.35,0.26 11.2,0.88 -9.92,-6.93 -15.02,-10.52 -16.35,-12.41 -1.34,-1.84 1.06,-1.86 5.87,-0.2 -2.37,-1.6 -4.76,-3.08 -6.55,-4.23 -1.79,-1.11 -2.99,-1.84 -2.99,-1.84 0.8,0 2.42,0 3.84,0 1.42,0.03 2.65,0.06 2.65,0.06 -25.75,-16.79 -53.55,-30.96 -81.32,-43.59 -27.8,-12.56 -55.57,-23.35 -81.75,-31.63 -11.17,-3.76 -29.97,-9.06 -42.32,-12.8 -6.2,-1.84 -18.64,-8.58 -23.17,-10.84 -9.02,-1.58 -8.87,1.24 -13.34,1.85 -8.72,-4.66 -19.78,-10.83 -30.79,-17.77 -11,-6.92 -21.81,-14.77 -29.88,-22.2 -4.05,-3.7 -7.4,-7.27 -9.94,-10.43 -1.24,-1.56 -2.47,-3.1 -3.27,-4.29 -0.23,-0.3 -0.46,-0.6 -0.68,-0.9 -0.09,-0.08 -0.31,-0.45 -0.48,-0.72 l -0.54,-0.84 c -0.73,-1.1 -1.42,-2.15 -2.08,-3.15 -2.61,-3.99 -5.23,-6.88 -7.14,-8.62 -1.94,-1.73 -3.31,-2.26 -3.99,-1.35 -5.04,-7.48 -9.52,-13.05 -13.71,-17.63 -2.12,-2.26 -4.1,-4.36 -6.08,-6.3 -2.02,-1.88 -3.96,-3.69 -5.92,-5.51 -7.9,-6.87 -15.93,-13.86 -29.4,-25.56 -17.59,-15.38 -38.39,-31.3 -60.59,-47.37 -22.19,-16.08 -45.81,-32.29 -68.8,-48.67 -12.68,-8.8 -24.88,-17.65 -36.61,-26.78 -5.85,-4.57 -11.63,-9.18 -17.21,-13.92 l -4.2,-3.56 -4.24,-3.73 -2.12,-1.87 c -0.69,-0.62 -1.6,-1.26 -2.4,-1.89 l -4.93,-3.77 c -1.23,-0.92 -2.46,-1.88 -3.69,-2.75 -1.23,-0.82 -2.46,-1.63 -3.68,-2.44 -2.45,-1.61 -4.87,-3.25 -7.3,-4.78 -2.46,-1.44 -4.89,-2.87 -7.31,-4.29 -1.2,-0.7 -2.4,-1.4 -3.59,-2.1 -1.21,-0.64 -2.41,-1.27 -3.61,-1.91 -12.92,-7.02 -25.99,-12.77 -38.93,-18.09 -12.94,-5.34 -25.86,-9.91 -38.64,-14.25 -25.57,-8.58 -50.72,-15.69 -75.31,-22.33 -6.13,-1.65 -12.23,-3.3 -18.31,-4.94 -3.09,-0.84 -6.18,-1.68 -9.27,-2.52 -3.08,-0.84 -6.25,-1.47 -9.36,-2.21 -3.12,-0.71 -6.24,-1.43 -9.35,-2.14 -3.11,-0.71 -6.24,-1.23 -9.36,-1.84 -3.11,-0.59 -6.22,-1.19 -9.33,-1.78 -3.1,-0.6 -6.22,-1.01 -9.32,-1.52 -24.84,-3.99 -49.48,-6.46 -73.95,-8.28 -48.94,-3.65 -97.32,-4.61 -146.32,-8.98 -6,-0.64 -12.01,-1.1 -18.09,-1.85 -6.13,-1.02 -12.3,-2.04 -18.49,-3.07 -12.39,-2.04 -24.9,-3.98 -37.65,-6.36 -25.5,-4.38 -51.52,-9.34 -78.33,-14.62 -54.03,-10.79 -108.22,-24.5 -161.33,-41.29 -13.2,-4.4 -26.39,-8.79 -39.56,-13.17 -13.24,-4.59 -26.47,-9.17 -39.66,-13.74 -3.3,-1.13 -6.58,-2.33 -9.89,-3.42 l -9.95,-3.2 c -6.62,-2.14 -13.23,-4.28 -19.83,-6.41 -6.61,-2.11 -13.18,-4.33 -19.77,-6.36 -6.6,-2.04 -13.17,-4.07 -19.75,-6.1 -52.48,-16.38 -104.24,-31.57 -153.43,-48.37 -12.39,-3.98 -24.42,-8.52 -36.43,-12.8 -5.99,-2.16 -11.95,-4.32 -17.89,-6.46 -2.99,-1.04 -5.9,-2.18 -8.78,-3.35 -2.89,-1.15 -5.78,-2.31 -8.66,-3.46 -11.53,-4.63 -22.82,-9.06 -34.15,-13.72 -5.78,-2.73 -11.82,-5.06 -17.78,-7.15 -2.97,-0.99 -5.94,-1.97 -8.89,-2.96 -2.95,-0.89 -5.9,-1.77 -8.83,-2.64 -23.48,-6.74 -46.36,-11.78 -68.51,-16.5 -22.15,-4.65 -43.57,-8.78 -64.14,-12.66 -41.07,-7.58 -78.75,-14.54 -112.24,-20.73 -33.38,-6.25 -62.46,-11.93 -86.28,-17.12 -23.83,-5.14 -42.42,-9.75 -54.94,-13.26 0,0 -1.89,-0.3 -4.71,-0.74 -2.74,-0.52 -6.53,-1.12 -10.13,-1.87 -3.53,-0.78 -7.25,-1.49 -9.64,-2.21 -2.52,-0.66 -4.2,-1.1 -4.2,-1.1 6.47,3.72 16.68,7.79 29.18,11.73 12.53,3.95 27.43,7.84 43.9,11.64 32.97,7.56 72.2,14.8 112.55,21.91 80.72,14.15 166.08,28.18 216.97,42.65 4.91,1.33 9.68,2.61 14.28,4.03 4.61,1.32 9.05,2.82 13.35,4.28 2.15,0.69 4.26,1.51 6.32,2.32 2.06,0.82 4.12,1.54 6.07,2.41 3.9,1.79 7.65,3.53 11.22,4.92 14.34,5.88 26.69,11.01 37.25,15.51 8.9,3.79 2.97,1.49 -13.04,-5.06 -8.02,-3.33 -18.51,-7.48 -30.99,-12.87 -12.57,-5.95 -27.84,-10.86 -44.46,-15.55 -29.92,-7.91 -65.56,-15.11 -107.54,-22.71 25.94,5.96 51.33,12.1 74.52,18.41 23.18,6.33 44.19,12.93 61.02,19.86 3.11,1.17 6.25,2.28 9.35,3.51 3.08,1.31 6.05,2.77 9.23,3.95 6.29,2.47 12.6,4.94 18.93,7.42 12.68,4.91 25.35,10.19 38.4,14.65 57,20.89 114.21,38.05 170.94,55.74 14.16,4.49 28.31,8.98 42.46,13.48 7.09,2.21 14.12,4.57 21.15,6.96 l 21.09,7.13 c 14.12,4.61 28,9.94 41.98,15.07 6.98,2.58 13.98,5.17 20.98,7.76 7.06,2.56 14.12,5.12 21.2,7.69 5.14,1.86 11.03,3.99 17.49,6.32 6.52,2.14 13.61,4.47 21.09,6.92 7.48,2.41 15.31,5.09 23.39,7.55 8.1,2.43 16.39,4.91 24.66,7.38 4.14,1.24 8.27,2.48 12.38,3.72 4.12,1.21 8.24,2.29 12.29,3.43 8.1,2.26 16.01,4.46 23.5,6.55 7.48,2.18 14.62,3.95 21.14,5.68 6.51,1.76 12.42,3.36 17.53,4.74 0,0 -8.05,-1.96 -22.15,-5.4 -7.06,-1.65 -15.57,-3.95 -25.33,-6.58 -4.88,-1.31 -10.08,-2.7 -15.55,-4.17 -5.48,-1.46 -11.24,-2.98 -17.19,-4.79 -11.92,-3.55 -24.89,-7.22 -38.51,-11.42 -6.79,-2.18 -13.76,-4.42 -20.89,-6.71 -3.56,-1.14 -7.16,-2.3 -10.8,-3.47 -3.64,-1.15 -7.31,-2.35 -10.97,-3.67 -14.64,-5.17 -29.98,-10.41 -45.19,-15.92 -7.62,-2.75 -15.31,-5.51 -23.02,-8.29 -7.71,-2.77 -15.43,-5.63 -23.27,-8.14 -62.36,-21.16 -125.8,-39.6 -173.09,-54.64 -11.84,-3.67 -22.64,-7.32 -32.23,-10.41 -9.58,-3.16 -17.97,-5.78 -24.81,-8.17 -13.68,-4.8 -21.5,-7.55 -21.5,-7.55 4.48,1.75 8.93,3.49 13.31,5.2 0,0 4.1,1.48 11.28,4.06 7.22,2.41 17.54,5.87 29.92,10.01 6.2,2.06 12.91,4.29 20,6.65 7.11,2.28 14.62,4.68 22.38,7.16 15.52,4.93 32.08,10.2 48.64,15.46 16.58,5.19 33.07,10.53 48.53,15.53 7.72,2.52 15.23,4.85 22.26,7.26 7.04,2.4 13.69,4.66 19.83,6.75 12.26,4.24 22.56,7.54 29.61,10.27 7.09,2.62 11.15,4.11 11.15,4.11 14.75,5.28 29.48,10.75 45.04,16.47 0,0 -2.84,-1.02 -7.11,-2.55 -4.24,-1.54 -9.88,-3.59 -15.53,-5.65 -11.2,-4.14 -22.4,-8.27 -22.4,-8.27 -19.2,-7.12 -38.58,-12.89 -58.24,-19.21 -9.82,-3.16 -19.92,-6.01 -30.12,-9.12 -10.22,-3.08 -20.65,-6.21 -31.36,-9.43 -13.21,-4.11 -27.29,-8.72 -41.37,-13.36 -14.1,-4.69 -28.2,-9.37 -41.44,-13.53 -10.77,-3.51 -21,-7.3 -31.07,-11.04 -10.07,-3.76 -19.99,-7.49 -30,-11.58 0,0 -9.79,-3.53 -19.58,-7.05 -4.9,-1.76 -9.79,-3.53 -13.46,-4.85 -1.84,-0.65 -3.37,-1.21 -4.42,-1.65 -1.06,-0.42 -1.67,-0.66 -1.67,-0.66 -3.85,-1.32 -7.96,-2.77 -12.15,-4.32 0.14,0.07 0.4,0.21 0.48,0.28 7.47,4.79 33.65,15.97 69.8,29.81 36.2,13.68 82.48,29.39 129.3,45.05 23.29,8.01 46.91,15.74 69.19,23.81 5.59,1.98 11.12,3.93 16.58,5.86 2.73,0.96 5.44,1.92 8.13,2.86 2.66,1.01 5.31,2 7.93,2.99 10.48,3.96 20.58,7.78 30.18,11.41 9.49,3.61 19,7.02 27.66,10.16 8.7,3.13 16.74,6.07 24,8.58 14.58,4.76 25.96,8.37 32.99,10.43 44.99,12.8 87.35,18.9 137.86,29.91 16.93,3.45 30.89,7.97 44.11,9.52 1.44,-0.52 8.06,0.16 14.7,0.85 8.46,1.55 16.87,3.32 25.16,5.13 8.36,1.71 16.6,3.39 24.6,5.02 4.01,0.79 7.96,1.56 11.83,2.32 1.94,0.36 3.86,0.71 5.76,1.06 1.9,0.34 3.76,0.71 5.7,0.84 7.62,0.71 15.02,1.36 21.67,1.28 9.33,0.35 26.71,4.71 42.32,8.36 15.62,3.74 29.38,6.97 31.41,5.89 14.8,-8.02 4.17,-2.28 47.32,0.75 2.6,0.23 8.19,-0.32 14.41,-0.73 6.23,-0.43 13.11,-0.8 18.27,-0.16 4.35,0.62 8.31,1.11 12.01,1.53 3.67,0.48 7.07,0.87 10.3,1.19 6.49,0.58 12.25,1.09 18.19,1.52 2.97,0.22 6,0.36 9.14,0.62 3.15,0.28 6.43,0.58 9.97,0.9 7.11,0.54 15.08,1.78 24.9,3.27 7.23,1.28 13.76,2.35 19.72,3.71 5.96,1.44 11.32,2.81 16.39,4.16 10.45,2.75 19.01,5.24 27.4,7.7 16.77,4.95 32.73,9.32 58.82,14.99 3.13,0.76 24.74,6.75 44.74,14.43 5,1.91 9.97,3.8 14.47,5.8 2.27,0.97 4.46,1.9 6.53,2.78 2.02,0.96 3.93,1.86 5.69,2.69 3.53,1.66 6.46,3.04 8.4,4.14 1.98,1.05 3.11,1.65 3.11,1.65 1.71,1.03 3.39,2.05 5.06,3.06 1.6,1.08 3.18,2.15 4.75,3.2 1.57,1.05 3.13,2.08 4.66,3.1 1.44,1.08 2.86,2.16 4.27,3.22 1.41,1.05 2.8,2.1 4.18,3.13 1.39,1.07 2.77,2.35 4.14,3.5 2.7,2.36 5.46,4.65 8.21,6.88 10.94,8.92 21.42,16.65 31.49,24.08 20.16,14.84 38.82,28.47 57.94,45.9 25.6,15.01 53.52,35.32 79.45,58.23 25.83,22.95 49.52,48.64 64.44,74.23 0.47,0.81 0.94,1.61 1.41,2.4 l 0.69,1.18 0.87,1.43 c 1.17,1.94 2.33,3.83 3.57,5.49 1.18,1.75 2.44,3.36 3.71,4.91 1.22,1.6 2.53,3.03 3.79,4.46 5.11,5.67 10.27,10.37 15.26,14.61 10.03,8.41 19.47,14.95 28.76,21.15 9.31,6.17 18.55,11.82 28.6,17.6 10.05,5.75 20.93,11.63 33.59,17.84 14.65,6.66 25.98,10.58 34.23,15.02 8.29,4.48 30.54,9.17 45.11,15.22 -1.5,0.29 -3.01,0.58 -4.51,0.87 4.88,2.03 14.56,6.07 19.43,8.1 4.84,2.04 3.32,2.32 1.82,2.6 -3.02,0.57 -5.99,1.13 2.14,5.48 19.92,9 40.17,17.98 60.07,27.59 20.38,7.74 39.97,16 56.88,25.68 1.52,-0.26 3.23,-0.41 5.98,0.46 4.99,2.92 9.69,6.02 13.93,9.31 4.02,0.54 5.01,-1.99 7.75,-1.47 2.46,-2.35 9.06,-0.18 14.94,2.76 5.87,2.84 11.02,6.56 12.29,2.12 0.03,-0.41 -0.25,-1.35 -0.78,-2.71 -0.5,-1.39 -1.36,-3.12 -2.49,-5.13 z"
               id="path39" />
            <path
               class="cls-22"
               d="m 1221.7,488.87 c 3.16,1.74 6.47,3.1 9.7,4.67 l 9.76,4.56 c 1.67,0.76 3.16,1.51 4.97,2.28 1.85,0.74 3.78,1.59 5.56,2.19 7.27,2.64 14.29,4.69 21.31,6.53 7.02,1.83 14.01,3.5 21.01,5 27.99,6.03 56.18,10.41 84.91,14.03 57.44,7.14 117,11 180.45,11.07 63.93,-0.04 128.69,-2.85 192.89,-10.59 32.09,-3.88 64.02,-9.1 95.46,-16.12 31.41,-7.14 62.38,-16.03 92.06,-28.04 29.59,-12.05 58.08,-27.14 82.85,-47.2 12.41,-9.96 23.6,-21.5 33.53,-33.36 5.07,-5.93 9.77,-12.2 14.3,-18.59 4.36,-6.54 8.61,-13.17 12.09,-20.35 3.51,-7.14 6.51,-14.65 8.48,-22.6 1.97,-7.93 2.86,-16.34 2.11,-24.75 -0.72,-8.4 -3.11,-16.68 -6.77,-24.13 -3.65,-7.47 -8.48,-14.11 -13.84,-19.89 -10.77,-11.6 -23.25,-20.26 -35.72,-27.78 -12.52,-7.49 -25.24,-13.77 -37.6,-19.79 -6.13,-2.99 -12.35,-5.99 -18.01,-8.89 l -1.9,-0.99 -0.93,-0.48 -0.71,-0.39 -2.8,-1.56 c -1.85,-1.04 -3.63,-2.15 -5.36,-3.3 -1.71,-1.18 -3.34,-2.42 -4.81,-3.83 -1.44,-1.41 -2.73,-3.05 -3.32,-4.99 -0.58,-1.96 -0.11,-4.1 0.97,-5.81 1.05,-1.74 2.54,-3.16 4.09,-4.41 3.14,-2.46 6.57,-4.44 9.74,-6.55 4.88,-3.21 9.72,-6.4 14.51,-9.55 5.17,-3.33 10.29,-6.63 15.37,-9.9 5.11,-3.15 10.17,-6.28 15.18,-9.37 20.13,-12.13 39.97,-22.56 59.21,-31.62 4.86,-2.14 9.66,-4.25 14.4,-6.34 2.38,-1.02 4.69,-2.14 7.08,-3.05 2.38,-0.92 4.74,-1.84 7.08,-2.75 4.69,-1.82 9.3,-3.62 13.85,-5.39 4.62,-1.56 9.18,-3.1 13.67,-4.62 35.93,-12.02 68.47,-18.52 95.51,-22.94 6.81,-0.87 13.26,-1.7 19.35,-2.48 6.09,-0.78 11.78,-1.62 17.18,-1.93 10.74,-0.89 19.95,-1.66 27.52,-2.29 l 35.41,-4.92 c -9.91,-0.34 -22.84,-0.63 -38.07,-0.34 -7.6,0.46 -15.77,0.95 -24.43,1.47 -2.17,0.14 -4.37,0.29 -6.6,0.43 -2.22,0.19 -4.46,0.51 -6.73,0.76 -4.54,0.55 -9.2,1.11 -13.95,1.69 -37.98,4.9 -82.14,14.6 -125.22,31.26 -5.36,2.13 -10.74,4.27 -16.13,6.42 -5.37,2.19 -10.61,4.71 -15.92,7.06 l -7.94,3.59 -7.79,3.9 c -2.59,1.3 -5.19,2.59 -7.77,3.89 -2.6,1.27 -5.17,2.59 -7.69,4.01 -20.45,10.73 -39.78,22.82 -58.08,34.7 -4.58,2.95 -9.08,5.95 -13.52,8.92 -3.91,2.6 -7.76,5.15 -11.55,7.67 -3.28,2.22 -6.67,4.23 -9.64,6.75 -1.49,1.24 -2.83,2.64 -3.99,4.16 -1.08,1.57 -1.91,3.32 -2.12,5.18 -0.19,1.87 0.39,3.68 1.24,5.25 0.83,1.61 2.09,2.9 3.3,4.16 2.54,2.43 5.39,4.4 8.24,6.2 2.86,1.79 5.74,3.42 8.57,4.96 1.64,0.86 3.26,1.71 4.84,2.55 1.72,0.88 3.41,1.74 5.06,2.58 10.3,5.06 20.18,9.76 29.33,14.52 9.17,4.74 17.63,9.55 25.31,14.51 15.3,9.94 27.49,20.75 35.22,32.27 3.16,4.91 3.54,5.84 1.91,3.24 -1.66,-2.55 -5.6,-8.57 -12.93,-15.83 -7.29,-7.28 -18,-15.58 -31.54,-23.72 -13.48,-8.23 -29.84,-16.23 -47.3,-24.99 -1.95,-0.97 -3.92,-1.95 -5.91,-2.94 -1.8,-0.94 -3.8,-1.93 -5.32,-2.76 -3.24,-1.74 -6.5,-3.57 -9.67,-5.65 -3.14,-2.1 -6.27,-4.44 -8.66,-7.56 -1.14,-1.58 -2.07,-3.4 -2.25,-5.41 -0.23,-2.02 0.51,-4.05 1.58,-5.79 2.18,-3.53 5.61,-6.16 9.11,-8.54 3.56,-2.38 7.18,-4.8 10.88,-7.27 4.68,-3.14 9.45,-6.33 14.31,-9.59 4.89,-3.19 9.86,-6.45 14.93,-9.76 -6.49,3.87 -12.96,7.69 -19.35,11.6 -3.19,1.96 -6.37,3.91 -9.53,5.84 -2.75,1.66 -5.5,3.32 -8.22,4.96 -2.68,1.62 -5.42,3.24 -8.1,5.01 -2.61,1.85 -5.2,3.87 -7.23,6.4 -2.05,2.49 -3.24,5.76 -2.67,8.82 0.52,3.07 2.36,5.64 4.4,7.81 4.17,4.35 9.27,7.73 14.45,10.95 5.14,3.17 10.79,6.28 16.19,9.23 10.83,5.88 21.01,11.3 30.01,16.6 13.6,7 26.99,14.69 38.91,24.38 5.94,4.85 11.42,10.27 16.04,16.34 2.36,3 4.33,6.27 6.18,9.59 1.67,3.41 3.24,6.88 4.25,10.55 1.28,3.98 1.84,8.13 2.22,12.27 0.16,4.16 0.14,8.34 -0.53,12.47 -1.14,8.28 -3.78,16.33 -7.26,24 -3.5,7.67 -7.78,14.99 -12.52,22 -4.86,6.94 -9.94,13.73 -15.51,20.13 -21.51,26.35 -49.46,46.17 -79.51,61.36 -30.12,15.21 -62.31,26.06 -95.1,34.4 -32.86,8.23 -66.43,13.93 -100.37,17.89 -12.32,1.36 -28.28,3.1 -46.1,4.48 -17.82,1.4 -37.47,2.54 -57.1,3.21 -39.26,1.4 -78.38,0.77 -102.4,-0.6 0,0 9.41,0.28 25.89,0.47 16.48,0.18 40.03,0.18 68.25,-0.73 28.22,-0.96 61.12,-2.9 96.15,-6.78 35.02,-3.91 72.18,-9.83 108.56,-18.8 36.34,-8.96 71.92,-21.13 102.85,-37.15 15.46,-7.99 29.72,-16.93 42.24,-26.62 3.06,-2.5 6.08,-4.97 9.06,-7.39 2.83,-2.58 5.62,-5.13 8.36,-7.63 2.59,-2.65 5.15,-5.25 7.65,-7.8 2.42,-2.7 4.79,-5.34 7.12,-7.94 9.11,-10.51 16.65,-20.75 22.33,-30.28 5.71,-9.53 9.51,-18.34 11.68,-25.76 2.17,-7.42 2.83,-13.38 2.9,-17.4 0.09,-2.01 -0.08,-3.55 -0.07,-4.58 0,-1.04 -0.1,-1.57 -0.1,-1.57 0.23,4.95 -0.17,9.9 -1.15,14.72 0,0 0,0.28 -0.15,0.82 -0.12,0.54 -0.3,1.34 -0.53,2.39 -0.39,2.1 -1.28,5.14 -2.56,8.98 -2.64,7.66 -7.83,18.35 -15.97,30.22 -4.19,5.87 -8.85,12.17 -14.33,18.46 -2.65,3.21 -5.58,6.36 -8.54,9.61 -2.95,3.26 -6.14,6.24 -9.29,9.47 -13.11,12.32 -28.82,23.68 -45.59,33.37 -33.7,19.29 -71.12,31.74 -99.44,39.38 -3.56,0.94 -6.96,1.83 -10.2,2.69 -3.26,0.78 -6.35,1.52 -9.26,2.22 -5.8,1.45 -10.92,2.44 -15.11,3.39 -4.19,0.94 -7.52,1.54 -9.77,2 -2.26,0.44 -3.46,0.68 -3.46,0.68 22.8,-4.67 45.06,-10.3 67.19,-17.69 11.08,-3.63 22.1,-7.78 33.17,-12.3 10.99,-4.69 22.1,-9.68 33.06,-15.56 13.62,-7.08 27.77,-15.42 40.84,-25.16 3.21,-2.49 6.41,-5.02 9.55,-7.57 3,-2.7 6.12,-5.27 8.97,-8.05 5.67,-5.49 11.2,-11.37 16.13,-17.27 8.15,-9.53 15.53,-18.97 21.73,-28.83 6.23,-9.83 11.15,-20.2 13.55,-31.24 0,0 0.09,-0.67 0.26,-1.84 0.16,-1.17 0.46,-2.85 0.52,-4.86 0.37,-4.02 0.14,-9.39 -0.97,-14.58 -1.06,-5.21 -3.09,-10.19 -4.92,-13.8 -1.02,-1.75 -1.8,-3.26 -2.46,-4.26 -0.66,-0.99 -1.04,-1.56 -1.04,-1.56 -1.19,-1.76 -2.69,-3.42 -4.1,-5.18 -1.56,-1.67 -3.07,-3.44 -4.8,-5.09 0.1,0.13 0.29,0.38 0.35,0.48 2.5,3.84 9.03,11.63 12.67,23.86 1.84,6.07 2.46,13.25 1.5,21.17 -0.99,7.93 -3.95,16.6 -8.44,25.51 -4.49,8.92 -10.68,18.04 -17.97,27.12 -1.87,2.25 -3.76,4.52 -5.67,6.81 -2,2.24 -4.02,4.51 -6.06,6.8 -2.13,2.23 -4.27,4.48 -6.43,6.76 -2.18,2.21 -4.41,4.26 -6.63,6.42 -18.17,16.81 -40.73,31.27 -65.28,42.62 -12.26,5.71 -24.92,10.79 -37.73,15.3 -12.85,4.42 -25.8,8.29 -38.62,11.74 -25.72,6.68 -50.84,11.63 -73.78,15.16 -45.89,7.11 -82.7,9.59 -98.94,11.17 -51.81,4.54 -99.55,10.63 -158.03,9.56 -19.53,-0.4 -35.92,-2.61 -50.93,-2.31 -1.52,0.72 -9.03,0.86 -16.59,0.93 -38.93,-2.25 -77.4,-9.31 -107.33,-10.98 -10.46,-0.92 -29.72,-6.67 -46.58,-12.54 -16.92,-5.79 -31.29,-11.66 -33.65,-11 -8.73,2.5 -9.95,2.76 -14.71,0.95 -2.31,-0.97 -5.52,-2.32 -10.88,-4.57 -1.28,-0.54 -2.7,-1.14 -4.26,-1.79 -1.43,-0.68 -3.18,-1.36 -4.77,-2.13 -0.81,-0.39 -1.66,-0.79 -2.54,-1.21 -1.04,-0.53 -2.13,-1.09 -3.27,-1.67 -2.28,-1.12 -4.76,-2.34 -7.44,-3.66 -5.22,-2.38 -23.64,-7.67 -33.51,-13.87 -4.07,-2.72 -7.8,-5.15 -11.3,-7.35 -3.47,-2.24 -6.54,-4.51 -9.58,-6.49 -3.03,-1.98 -5.9,-3.86 -8.71,-5.69 -2.74,-1.93 -5.44,-3.79 -8.19,-5.65 -5.62,-3.61 -11.03,-7.75 -17.42,-12.54 -3.26,-2.32 -6.41,-5.19 -9.97,-8.2 -1.77,-1.53 -3.61,-3.12 -5.54,-4.79 -1.89,-1.71 -3.75,-3.62 -5.75,-5.56 -12.23,-11.25 -20.63,-21.76 -27.8,-30.92 -3.37,-4.76 -6.5,-9.16 -9.36,-13.44 -2.73,-4.38 -5.32,-8.55 -7.88,-12.67 -9.89,-16.76 -18.63,-32.99 -33.15,-59.72 -0.91,-1.61 -3.99,-8.25 -8.08,-17.36 -4.04,-9.14 -8.97,-20.83 -13.73,-32.44 -4.8,-11.61 -9.46,-23.07 -13.23,-31.61 -1.81,-4.27 -3.46,-7.79 -4.59,-10.25 -1.12,-2.46 -1.76,-3.86 -1.76,-3.86 -7.39,-17.76 -15.92,-33.67 -26.87,-46.86 -1.47,-1.58 -2.92,-3.15 -4.36,-4.7 l -2.16,-2.3 c -0.71,-0.77 -1.57,-1.42 -2.34,-2.12 -1.58,-1.38 -3.16,-2.75 -4.72,-4.11 -1.56,-1.35 -3.15,-2.38 -4.7,-3.58 -1.57,-1.14 -3.1,-2.32 -4.67,-3.41 -1.58,-1.06 -3.15,-2.12 -4.72,-3.16 -3.09,-2.16 -6.29,-4.02 -9.41,-5.96 C 941.87,97.2 929.33,90.84 916.58,84.72 903.82,78.62 890.81,72.77 877.03,66.59 843.33,58.26 804.49,48.91 764.64,41.28 724.83,33.61 684.13,27.58 647.77,24.92 611.4,22.29 585.71,20.03 561.12,17.44 536.53,14.91 513.06,12.05 481.18,9.65 462.96,8.76 449.29,9.11 438.67,7.88 c -10.66,-1.24 -36.43,2.23 -54.63,1.91 1.49,-0.81 3,-1.63 4.5,-2.44 -6.11,-0.1 -18.23,-0.31 -24.32,-0.41 -6.09,-0.08 -4.57,-0.91 -3.08,-1.73 3.01,-1.65 6.01,-3.3 -4.68,-4.28 -25.45,-0.83 -51.49,-1.07 -78.11,-0.74 -26.23,2.25 -52.07,4.87 -77.49,7.84 -1.41,1.17 -3.08,2.36 -6.6,3.46 -7.55,1.06 -15.08,2.12 -22.6,3.18 -4.39,2.67 -2.69,5.15 -5.63,6.94 0.45,6.7 -30.73,15.42 -22.72,21.04 3.14,1.53 46.82,-0.79 66.57,1.37 4.59,0.73 -5.83,3.51 -10.17,6.15 25.55,-1.46 27.17,1.09 16.79,3.82 6.02,-0.12 12.02,-0.24 12.02,-0.24 -1.45,0.87 -5.82,3.49 -5.82,3.49 64.72,-0.53 136.78,3.01 199.57,-0.09 13.47,-0.44 35.91,-2.14 50.89,-3.12 7.47,-0.5 23.91,1.2 29.89,1.55 10.53,-1.91 9.09,-4.53 13.63,-6.8 23.14,1.89 59.7,4.88 90.1,7.36 30.33,2.31 54.49,3.63 53.42,-0.76 18.56,1.98 29.75,2.42 41.18,2.79 11.41,0.45 23.05,0.8 42.25,3.56 25.42,3.66 54.12,8.64 83.81,15.89 29.65,7.23 60.41,16.68 88.83,29.86 3.88,1.79 7.77,3.53 11.49,5.5 1.87,0.97 3.77,1.89 5.61,2.89 l 5.46,3.06 c 3.68,1.98 7.08,4.3 10.62,6.42 l 5.07,3.46 c 1.7,1.14 3.37,2.3 4.96,3.55 l 4.83,3.67 4.11,3.68 c 0.67,0.63 1.4,1.17 2.03,1.86 l 1.88,2.09 c 1.24,1.42 2.58,2.7 3.74,4.22 2.29,3.09 4.72,6.01 6.76,9.43 1.04,1.67 2.18,3.25 3.16,5 l 2.94,5.25 c 5.78,10.58 10.57,21.71 14.93,32.5 5.87,14.67 11.2,29.58 16.67,44.33 5.46,14.76 11.08,29.36 17.15,43.64 6.01,14.3 12.6,28.24 19.82,41.71 1.85,3.35 3.53,6.77 5.5,10.03 1.93,3.29 3.85,6.57 5.77,9.84 1.91,3.27 4.06,6.4 6.07,9.6 2.04,3.18 4.05,6.37 6.28,9.41 8.92,12.85 18.56,25.06 28.88,36.52 -0.3,3.39 -1.18,6.01 -3.06,7.05 -0.34,3.76 -4.08,4.15 -4.73,9.49 0.79,1.65 1.22,3.45 1.85,5.15 l 1.76,5.14 1.37,5.24 c 0.46,1.74 0.97,3.45 1.25,5.24 -0.13,3.59 -1.05,5.51 -2.04,7.19 4.35,22.98 2.42,47.59 -2.44,75.32 -1.18,14.26 -2.95,29.19 -4.26,45.13 -0.59,8.12 -1.18,16.24 -1.2,25.03 -0.12,4.24 0.12,8.87 0.23,13.29 l 0.53,6.94 0.3,3.46 0.49,3.59 c 1.43,7.9 3.17,10.83 4.12,10.92 1.03,0.13 1.68,-2.35 2.38,-4.76 0.34,-1.2 0.81,-2.34 1.25,-2.13 0.24,0.11 0.45,0.55 0.73,1.53 0.32,0.99 0.68,2.51 1.12,4.73 0.43,2.22 0.95,4.97 1.9,8.07 0.87,3.08 1.77,6.41 3.16,9.75 0.65,1.66 1.3,3.32 1.94,4.94 0.65,1.62 1.52,3.15 2.24,4.64 1.51,2.96 2.84,5.66 4.23,7.66 -0.4,-2.55 -0.44,-5.18 -0.48,-7.73 0.83,1.54 1.53,3.18 2.5,4.74 0.95,1.57 1.91,3.17 2.89,4.79 1.84,3.34 4.27,6.34 6.54,9.56 0.56,0.76 1.19,1.68 1.71,2.31 l 1.58,1.94 3.16,3.89 c 1.05,1.3 2.1,2.6 3.13,3.89 1.11,1.25 2.21,2.49 3.31,3.71 2.23,2.42 4.26,4.9 6.5,7.05 2.21,2.18 4.35,4.24 6.38,6.14 4.19,3.67 8.04,6.6 11.11,8.38 3.16,1.68 6.39,3.67 9.91,5.71 1.78,0.99 3.62,2.02 5.53,3.09 0.95,0.54 1.91,1.09 2.9,1.64 1,0.51 2.03,1.03 3.06,1.57 2.08,1.06 4.23,2.15 6.45,3.28 2.27,1.01 4.62,2.05 7.04,3.13 2.41,1.12 4.98,2.02 7.61,3.02 1.32,0.49 2.66,0.98 4.02,1.48 1.38,0.43 2.77,0.87 4.18,1.31 5,1.48 9.86,2.51 14.55,3.58 4.68,0.87 9.22,1.77 13.59,2.35 8.77,1.32 16.93,2.07 24.66,2.68 15.48,1.19 29.32,1.72 42.92,3.2 3.44,0.32 6.75,0.84 10.18,1.29 3.33,0.59 6.78,1.08 10.12,1.86 6.79,1.39 13.54,3.37 20.35,6.05 6.85,2.62 13.64,6.17 20.36,10.8 1.68,1.15 3.42,2.29 5.03,3.67 1.63,1.35 3.37,2.61 4.98,4.1 1.61,1.5 3.24,3.03 4.91,4.59 1.67,1.67 3.39,3.5 5.13,5.3 13.75,14.66 27.32,31.27 39.48,49.65 12.16,18.36 22.9,38.47 31.2,59.46 8.31,20.97 14.18,42.8 16.9,64.11 2.72,21.29 2.25,42.04 -1.45,60.31 0.43,16.21 -1.84,31.62 -6.49,46.03 -4.66,14.39 -11.83,27.81 -21.75,39.45 -9.9,11.64 -22.55,21.47 -37.98,28.37 -7.72,3.43 -16.13,6.12 -25.18,8 -4.53,0.93 -9.22,1.69 -14.07,2.21 -2.43,0.23 -4.87,0.55 -7.39,0.64 -2.65,0.16 -5.33,0.31 -8.04,0.47 0,0 -0.48,0 -1.37,0.02 -0.89,0.01 -2.21,0 -3.89,0.12 -3.37,0.18 -8.22,0.47 -14.1,1.48 -5.87,0.96 -12.81,2.56 -20.07,5.41 -7.27,2.8 -14.81,6.94 -21.64,12.22 -6.84,5.26 -12.96,11.59 -17.78,18.18 -4.87,6.57 -8.63,13.26 -11.51,19.25 -5.75,12.04 -8.17,21.24 -9.06,23.49 -6.41,18.75 -8.67,34.31 -9.93,47.96 -1.18,13.68 -1.14,25.6 -0.77,37.65 0.37,12.04 1.14,24.23 1.65,38.3 0.25,7.03 0.42,14.52 0.31,22.54 -0.14,7.94 -0.52,16.74 -2.04,24.68 -0.45,2.61 -1.02,4.83 -1.58,6.33 -1.01,3.06 -1.98,5.99 -2.91,8.79 -0.9,2.65 -1.77,4.96 -2.6,7.3 -0.82,2.29 -1.75,4.6 -2.58,6.76 -3.4,8.72 -6.62,16.09 -9.76,23.24 -3.12,7.13 -6.16,14.06 -9.56,21.82 -3.31,7.72 -6.96,16.25 -11.4,26.6 -0.71,1.5 -1.54,3.08 -2.47,4.7 -0.95,1.6 -2.03,3.21 -3.15,4.85 -2.2,3.32 -4.77,6.49 -7.21,9.49 -2.41,3.03 -4.9,5.59 -6.85,7.92 -2,2.25 -3.63,3.99 -4.46,5.3 -1.7,2.65 -3.65,5.01 -5.24,7.27 -1.59,2.19 -3.05,4.19 -4.38,6.04 -1.31,1.72 -2.5,3.29 -3.59,4.72 -1.15,1.45 -2.19,2.75 -3.14,3.94 -1.96,2.45 -3.53,4.41 -4.82,6.02 -1.37,1.63 -2.44,2.9 -3.33,3.97 -3.77,4.12 -5.28,4.38 -15.75,4.94 -1.46,0.06 -5,3.28 -10.2,8.2 -5.22,4.9 -12.13,11.51 -19.86,18.43 -15.45,13.81 -33.82,29.01 -44.78,35.03 -16.01,8.01 -33.71,19.26 -51.14,34.49 -4.33,3.85 -8.67,7.87 -12.85,12.29 l -3.14,3.32 -3.05,3.5 c -1.02,1.17 -2.05,2.33 -3.01,3.59 l -2.41,3.07 c -0.79,0.99 -2.96,3.14 -4.84,4.95 -1.9,1.86 -3.91,3.69 -5.91,5.52 -4.06,3.65 -8.3,7.24 -12.65,10.77 -7.19,4.92 -14.52,9.83 -16.54,10.13 -7.33,4.97 -14.56,10.96 -22.16,17.88 -7.6,6.92 -15.55,14.71 -24.17,23.76 -6.42,6.82 -12.54,14.04 -17.99,22.07 -5.46,7.99 -10.14,17.06 -13.23,27.08 -0.73,2.52 -1.38,5.09 -1.9,7.69 -0.4,2.37 -0.79,4.73 -1.18,7.08 -0.61,3.63 -1.22,7.23 -1.83,10.81 -1.47,7.04 -2.96,13.97 -4.93,20.53 -3.8,13.18 -8.76,25.27 -14.94,35.57 -3.23,5.01 -6.47,9.83 -10.33,13.91 -0.92,1.06 -1.83,2.13 -2.88,3.06 l -3,2.93 -3.21,2.74 c -1.02,0.96 -2.27,1.73 -3.38,2.62 -5.79,4.39 -15.76,10.73 -33.41,17.94 -8.79,3.7 -19.47,7.73 -31.76,13.37 -3.11,1.53 -6.23,2.93 -9.5,4.72 -1.62,0.88 -3.26,1.76 -4.91,2.65 -1.65,0.99 -3.32,1.99 -5,3 -6.68,4.17 -13.58,9.02 -20.01,15.05 -1.64,1.46 -3.25,2.96 -4.76,4.61 -1.54,1.63 -3.08,3.22 -4.62,4.93 -3.01,3.76 -6.52,7.72 -8.59,11.58 -1.18,1.95 -2.36,3.91 -3.54,5.89 -1.1,1.94 -2.03,3.84 -3.05,5.78 -2.08,3.81 -3.8,7.88 -5.58,11.95 -0.94,2.01 -1.63,4.15 -2.43,6.24 -0.74,2.11 -1.61,4.2 -2.24,6.37 -1.3,4.33 -2.67,8.67 -3.61,13.14 -1.13,4.43 -1.82,8.96 -2.6,13.49 -0.35,2.27 -0.56,4.55 -0.83,6.82 l -0.38,3.43 -0.22,3.42 c -1.29,18.32 0.32,36.56 3.4,54.02 3.11,17.49 7.69,34.27 12.63,50.48 9.95,32.32 21.32,62.53 27.83,90.92 0.38,1.75 0.85,3.58 1.16,5.25 0.29,1.66 0.59,3.32 0.89,4.97 0.26,1.65 0.69,3.31 0.81,4.93 0.17,1.63 0.34,3.25 0.51,4.87 0.69,6.47 0.58,12.72 0.15,18.77 -0.97,12.09 -4.65,22.98 -9.86,32.46 -5.24,9.49 -12.15,17.49 -19.37,24.1 -3.54,3.39 -7.37,6.21 -10.91,9 -3.75,2.55 -7.19,5.12 -10.71,7.14 -1.73,1.05 -3.37,2.12 -5,3.07 -1.66,0.92 -3.25,1.8 -4.77,2.64 -3.01,1.76 -5.88,3.16 -8.42,4.46 -5.03,2.71 -9.05,4.47 -11.47,5.92 -0.12,0.09 -0.45,0.25 -0.63,0.34 2.72,-0.88 5.41,-1.76 8.04,-2.62 2.59,-0.94 5.12,-1.85 7.57,-2.74 0,0 0.77,-0.32 2.12,-0.87 1.32,-0.62 3.2,-1.5 5.46,-2.56 1.12,-0.53 2.35,-1.11 3.64,-1.71 1.27,-0.64 2.57,-1.38 3.94,-2.11 1.36,-0.74 2.77,-1.5 4.2,-2.27 1.43,-0.77 2.79,-1.7 4.2,-2.54 1.39,-0.86 2.79,-1.73 4.16,-2.57 1.34,-0.89 2.6,-1.84 3.85,-2.72 1.25,-0.88 2.45,-1.74 3.59,-2.55 1.1,-0.85 2.09,-1.71 3.04,-2.48 1.85,-1.56 3.47,-2.78 4.49,-3.76 1.01,-0.97 1.59,-1.53 1.59,-1.53 9.33,-9.48 16.63,-20.26 20.97,-32.2 4.36,-11.93 6.19,-24.75 5.89,-38.36 0.08,-2.08 -0.25,-4.21 -0.36,-6.34 -0.19,-2.13 -0.22,-4.28 -0.64,-6.44 -0.34,-2.16 -0.68,-4.34 -1.02,-6.53 -0.29,-2.16 -0.9,-4.51 -1.34,-6.77 -1.96,-9.13 -4.44,-18.42 -7.16,-27.71 -5.44,-18.58 -11.81,-37.28 -17.05,-55.21 -8.17,-29.1 -14.86,-58.01 -15.49,-87.66 -0.22,-14.78 0.98,-29.69 4.45,-44.2 3.47,-14.5 9,-28.54 16.35,-41.55 0,0 0.45,-0.96 1.52,-2.66 1.03,-1.69 2.51,-4.1 4.29,-7 0.95,-1.43 2.28,-2.93 3.54,-4.53 1.3,-1.6 2.66,-3.32 4.16,-4.8 1.49,-1.54 2.98,-3.18 4.59,-4.74 1.67,-1.5 3.36,-3.02 5.06,-4.54 6.96,-5.87 14.54,-10.64 20.26,-13.88 2.88,-1.52 5.27,-2.86 6.96,-3.67 1.68,-0.82 2.65,-1.29 2.65,-1.29 -10.42,5.2 -20.85,11.29 -30.03,19.21 -4.6,4.01 -8.83,8.09 -12.84,12.92 -1.97,2.44 -4.14,4.85 -5.54,7.41 -1.53,2.52 -3.23,5.06 -4.6,7.57 0,0 -0.74,1.39 -2.11,4.01 -1.46,2.57 -3.23,6.55 -5.47,11.6 -1.06,2.55 -2.08,5.45 -3.26,8.56 -1.09,3.15 -2.1,6.61 -3.19,10.3 -1.91,7.45 -3.68,15.94 -4.62,25.28 -0.9,9.32 -1.13,19.43 -0.51,29.95 0.61,10.53 2.05,21.46 4.14,32.52 4.17,22.15 10.95,44.77 17.81,66.94 6.86,22.16 13.76,44 18.16,64.6 0.52,2.57 1.03,5.12 1.53,7.65 0.37,2.46 0.74,4.91 1.11,7.33 0.45,2.42 0.55,4.81 0.74,7.18 0.13,2.36 0.49,4.71 0.38,6.99 0,2.29 -0.01,4.55 -0.02,6.78 -0.12,2.21 -0.38,4.37 -0.55,6.5 -0.11,1.06 -0.14,2.14 -0.32,3.17 -0.19,1.03 -0.37,2.05 -0.55,3.06 -0.42,2 -0.6,4.04 -1.18,5.92 -3.82,15.31 -10.81,26.73 -16.68,33.89 -1.42,1.83 -2.9,3.32 -4.06,4.7 -1.19,1.37 -2.21,2.52 -3.16,3.36 -1.82,1.74 -2.79,2.67 -2.79,2.67 -1.94,2.16 -4.25,4.02 -6.47,5.99 -2.17,2.03 -4.67,3.73 -7.07,5.56 0,0 0.53,-0.38 1.57,-1.1 1,-0.76 2.63,-1.72 4.51,-3.26 3.76,-3.04 9.43,-7.44 15.28,-14.19 5.91,-6.66 12.21,-15.56 16.64,-27.03 4.46,-11.42 7.01,-25.39 6.02,-40.89 -0.13,-1.93 -0.26,-3.89 -0.39,-5.86 -0.13,-1.97 -0.53,-3.97 -0.79,-5.98 -0.31,-2.02 -0.53,-4.02 -0.91,-6.1 -0.41,-2.09 -0.81,-4.2 -1.22,-6.32 -1.76,-8.5 -3.92,-17.27 -6.36,-26.28 -4.87,-18.03 -10.95,-37 -16.73,-57 -5.77,-19.99 -11.27,-41.12 -14.15,-63.41 -2.88,-22.21 -2.81,-45.89 3.07,-68.7 2.9,-11.38 7.19,-22.43 12.65,-32.76 1.39,-2.58 2.69,-5.15 4.34,-7.7 l 2.37,-3.82 1.19,-1.91 c 0.41,-0.63 0.96,-1.22 1.43,-1.82 1.99,-2.36 3.9,-4.95 6.02,-7 2.08,-2.16 4.14,-4.34 6.43,-6.26 8.89,-7.96 18.93,-14.19 28.97,-19.14 10.06,-4.94 20.09,-8.84 29.63,-12.66 9.54,-3.81 18.63,-7.54 26.91,-11.86 8.27,-4.31 15.71,-9.22 22.12,-14.86 6.45,-5.59 11.8,-11.96 16.19,-18.73 0.56,-0.84 1.14,-1.66 1.67,-2.5 0.5,-0.88 0.99,-1.75 1.48,-2.62 0.95,-1.76 2.04,-3.41 2.87,-5.21 1.68,-3.59 3.45,-7.03 4.75,-10.68 5.65,-14.31 8.67,-28.55 10.68,-41.28 0.45,-3.2 0.97,-6.28 1.33,-9.29 0.31,-3.02 0.61,-5.94 0.89,-8.73 0.15,-1.4 0.28,-2.77 0.42,-4.11 0.2,-1.62 0.39,-3.2 0.58,-4.75 0.17,-1.58 0.57,-3.06 0.85,-4.53 0.27,-1.48 0.67,-2.87 1.06,-4.22 1.49,-5.45 3.48,-9.98 5.32,-13.8 1.87,-3.8 3.68,-6.85 5.18,-9.28 1.55,-2.38 2.72,-4.23 3.59,-5.38 0.84,-1.18 1.28,-1.79 1.28,-1.79 -4.27,6.33 -9,14.04 -12.55,23.67 -1.8,4.78 -3.13,10.11 -3.93,15.74 -0.15,1.41 -0.31,2.82 -0.46,4.26 -0.11,1.2 -0.21,2.4 -0.32,3.61 -0.22,2.43 -0.44,4.9 -0.66,7.4 -0.18,2.52 -0.54,5.02 -0.89,7.56 -0.35,2.54 -0.7,5.11 -1.05,7.7 -0.43,2.57 -0.96,5.14 -1.44,7.75 -0.48,2.61 -0.96,5.24 -1.66,7.81 -2.3,10.47 -5.83,20.78 -10.34,30.49 -4.55,9.7 -10.39,18.62 -17.42,26.14 -7.01,7.53 -15.12,13.71 -23.69,18.59 -8.53,4.93 -17.33,8.8 -25.62,12.27 -8.3,3.46 -16.1,6.55 -22.89,9.53 -9.36,4.08 -18.76,8.72 -27.57,14.58 -8.83,5.87 -16.88,12.91 -23.71,21.33 l -2.57,3.19 c -0.8,1.09 -1.41,2.25 -2.12,3.37 -1.34,2.27 -2.85,4.51 -4.03,6.81 l -3.62,6.89 -3.19,7.1 c -4.02,9.57 -7.03,19.54 -8.98,29.68 -3.98,20.32 -3.46,41.05 -0.67,61.04 2.77,20.05 7.77,39.52 13.3,58.65 5.52,19.15 11.64,38.02 16.93,57.04 5.2,19.01 10.16,38.28 10.85,57.55 0.2,9.66 -0.78,19.3 -3.05,28.64 -2.21,9.37 -6.23,18.25 -11.36,26.42 -5.17,8.16 -11.58,15.58 -18.9,22.1 -7.39,6.45 -15.56,12.05 -24.15,17.01 -15.79,8.79 -32.71,15.37 -49.99,20.19 -17.29,4.85 -34.89,8.23 -52.53,10.63 -11.9,2.47 -25.14,4.57 -39.4,6.33 -14.26,1.8 -29.56,3.14 -45.6,4.01 -32.08,1.84 -67.11,1.66 -102.8,-0.24 57,5.66 105.93,6.31 147.21,3.34 23.06,-1.96 44.06,-4.9 62.02,-8.6 17.97,-3.68 32.92,-7.87 44.07,-11.73 2.81,-0.88 5.33,-1.93 7.65,-2.76 2.31,-0.88 4.42,-1.56 6.22,-2.37 3.63,-1.5 6.3,-2.61 7.9,-3.28 3.18,-1.41 2.23,-0.76 -3.83,1.88 -14.34,6.34 -31.76,12.2 -52.41,16.82 -20.65,4.56 -44.49,8.17 -71.63,10.04 -35.2,3.03 -82.06,3.22 -133.52,-1.24 -51.48,-4.31 -107.53,-12.93 -161.52,-24.65 -54.02,-11.64 -105.96,-26.41 -149.79,-41.45 -21.92,-7.52 -41.83,-15.08 -59.06,-22.1 -17.24,-7 -31.81,-13.47 -43.18,-18.44 0,0 2.31,1.56 5.78,3.9 3.46,2.38 8.13,5.4 12.82,8.39 4.67,3.06 9.44,5.85 12.99,8.06 1.78,1.1 3.27,1.98 4.32,2.59 1.05,0.61 1.64,0.96 1.64,0.96 17.23,7.82 42.22,18.11 74.22,28.81 31.99,10.72 70.94,21.99 115.98,32.14 45.04,10.12 96.13,19.34 152.34,25.3 28.09,3.03 57.47,5.11 87.96,5.95 30.49,0.73 62.12,0.25 94.6,-2.92 32.43,-3.23 65.91,-8.7 98.99,-20.42 l 6.19,-2.24 6.14,-2.51 c 4.12,-1.61 8.15,-3.56 12.2,-5.48 2.04,-0.92 4.03,-1.97 6.01,-3.06 l 5.97,-3.23 5.84,-3.59 c 1.95,-1.19 3.9,-2.39 5.76,-3.77 l 5.65,-4.02 c 1.84,-1.41 3.63,-2.94 5.44,-4.41 l 2.71,-2.23 c 0.87,-0.79 1.72,-1.62 2.58,-2.43 1.7,-1.64 3.44,-3.24 5.1,-4.92 6.53,-6.92 12.38,-14.63 17.24,-23.05 4.62,-8.55 8.28,-17.67 10.6,-27.14 0.59,-2.36 0.94,-4.76 1.41,-7.15 l 0.65,-3.58 0.36,-3.61 c 0.22,-2.4 0.48,-4.81 0.65,-7.22 l 0.08,-7.21 c 0,-1.2 0.04,-2.41 0.01,-3.6 l -0.25,-3.57 -0.5,-7.15 -1,-7.05 c -0.36,-2.34 -0.64,-4.75 -1.12,-6.96 -1.68,-9.07 -3.82,-17.98 -6.12,-26.82 -9.23,-35.3 -21.69,-69.36 -28.58,-104.31 -3.43,-17.43 -5.43,-35.04 -4.55,-52.4 0.91,-17.32 4.68,-34.34 12.05,-49.91 1.72,-3.94 3.9,-7.68 5.96,-11.46 2.28,-3.45 4.28,-7.31 6.99,-10.05 0.65,-0.75 1.24,-1.51 1.92,-2.25 l 2.19,-2.19 2.18,-2.2 2.36,-2.03 2.35,-2.04 2.5,-1.88 2.51,-1.87 2.65,-1.73 c 14.16,-9.27 31.23,-15.1 48.95,-21.94 8.86,-3.44 17.94,-7.2 26.83,-11.94 8.88,-4.72 17.57,-10.5 25.34,-17.48 7.79,-6.96 14.58,-15.07 20.25,-23.75 5.59,-8.74 9.94,-18.01 13.69,-27.39 7.03,-18.88 11,-38.22 13.51,-57.39 l 0.94,-7.2 c 0.33,-1.75 0.48,-3.41 0.98,-5.12 0.34,-1.7 1,-3.38 1.51,-5.07 0.72,-1.68 1.3,-3.37 2.18,-5.04 3.17,-6.7 7.93,-13.21 13.29,-19.44 10.86,-12.36 24.13,-23.49 37.71,-34.34 13.62,-10.88 27.75,-21.45 41.58,-33.23 3.45,-2.98 6.89,-6 10.29,-9.2 0.72,-0.69 2.07,-1.92 3.11,-2.98 l 2.74,-3.24 1.79,-2.1 1.92,-2.04 c 5.11,-5.44 10.81,-10.58 16.86,-15.49 12.19,-9.76 25.61,-18.62 39.45,-27.11 27.69,-17.07 56.94,-32.67 85,-52.38 13.96,-9.99 27.8,-20.91 40.09,-34.71 1.59,-1.7 2.99,-3.43 4.4,-5.16 1.43,-1.73 2.82,-3.46 4.14,-5.17 l 4.02,-5.15 3.84,-5.4 c 5.12,-7.22 9.57,-14.63 13.9,-22.08 8.44,-14.95 15.67,-30.25 22.21,-45.79 6.51,-15.56 12.37,-31.33 17.51,-47.49 l 1.92,-6.07 1.86,-6.22 0.93,-3.12 0.83,-2.98 1.49,-5.35 c 1.79,-5.74 2.54,-10.78 3.1,-15.6 0.53,-4.81 0.77,-9.39 0.91,-13.88 0.41,-17.85 -0.61,-34.6 -1.22,-51.45 -0.66,-16.78 -1.15,-33.49 -0.66,-50.09 0.5,-16.56 1.91,-33.12 5.52,-48.76 3.58,-15.59 9.49,-30.33 18.95,-41.16 2.39,-2.67 4.91,-5.19 7.69,-7.39 2.81,-2.16 5.74,-4.18 8.96,-5.83 6.4,-3.35 13.62,-5.67 21.43,-6.95 1.45,-0.21 2.91,-0.42 4.38,-0.64 1.5,-0.14 3.01,-0.29 4.53,-0.43 3.41,-0.16 6.85,-0.32 10.33,-0.49 3.98,-0.11 8.02,-0.58 12.08,-0.95 4.06,-0.58 8.17,-1.06 12.28,-1.94 11.02,-2.17 21.93,-5.56 32.34,-10.28 10.43,-4.68 20.25,-10.86 29.21,-18.11 18.03,-14.49 31.82,-33.66 41.58,-54.42 8.68,-19.18 13.78,-39.51 16.32,-59.61 2.55,-20.13 2.53,-40.1 0.79,-59.27 -3.44,-38.41 -13.75,-73.59 -26.21,-103.04 -9.6,-22.16 -15.72,-35.31 -22.15,-48.17 -6.57,-12.75 -13.57,-25.29 -29.16,-43.16 2.75,-1.1 -0.52,-7.88 -8.46,-17.64 -1.02,-1.19 -2.1,-2.45 -3.22,-3.76 -1.16,-1.31 -2.23,-2.6 -3.8,-4.12 -2.99,-2.92 -6.05,-6.17 -9.82,-9.15 -7.19,-6.27 -16.2,-12.19 -26.04,-17.34 -9.86,-5.16 -20.71,-9.28 -31.46,-12.19 -10.76,-2.97 -21.42,-4.89 -31.39,-6.28 -9.97,-1.39 -19.32,-2.27 -27.66,-3.03 -8.36,-0.78 -15.88,-1.43 -22.22,-2.15 -2.15,-1.99 -2.68,-3.73 -3.93,-5.64 -0.63,-0.95 -1.45,-1.93 -2.76,-2.97 -1.31,-1.04 -3.1,-2.16 -5.52,-3.47 -3.04,-0.52 -8.68,-1.27 -14.18,-2.53 -1.38,-0.31 -2.78,-0.61 -4.13,-0.96 -1.31,-0.4 -2.6,-0.78 -3.83,-1.15 -2.49,-0.72 -4.56,-1.65 -6.12,-2.48 -6.21,-3.37 -13.48,-7.91 -19.93,-13.13 -6.47,-5.22 -12.38,-10.79 -16.78,-15.18 -1.3,-1.22 -2.5,-2.65 -3.74,-4.01 -1.25,-1.36 -2.5,-2.72 -3.77,-4.09 -1.22,-1.45 -2.45,-2.91 -3.68,-4.38 l -1.87,-2.17 c -0.39,-0.41 -0.5,-0.62 -0.63,-0.84 l -0.44,-0.67 c -2.56,-3.47 -4.29,-6.76 -5.78,-11.37 -1.46,-4.58 -2.51,-10.61 -2.87,-17.96 -0.36,-7.35 -0.11,-15.83 0.45,-24.89 1.13,-18.14 3.45,-38.74 4.3,-60.09 0.4,-10.75 0.4,-21.72 -0.13,-32.75 -0.57,-9.25 -1.53,-18.49 -3.02,-27.67 11.28,7.55 22.88,14.51 34.75,20.87 l 9.53,5.06 z m 605.28,10.02 c -14.36,2.75 -28.97,5.07 -44,6.92 4.83,-0.64 14.21,-1.92 23.56,-3.43 7.69,-1.19 15.3,-2.55 20.44,-3.5 z m -659.56,-41.17 c -0.38,-0.57 -0.75,-1.4 -1.15,-2.49 1.07,0.77 2.17,1.51 3.25,2.28 -0.55,1.48 -1.29,1.64 -2.1,0.21 z m 5.85,8.34 c 0,0 -0.31,-1.99 -0.77,-4.99 -0.09,-0.51 -0.17,-1.09 -0.26,-1.65 0.94,0.65 1.86,1.32 2.8,1.96 -0.67,1.77 -1.4,3.69 -1.78,4.68 z"
               id="path40" />
            <path
               class="cls-22"
               d="m 5405.71,1347.03 c -3.11,-3.24 -49.89,-6.05 -70.69,-12.37 -4.81,-1.89 6.65,-5.29 11.62,-9.28 -27.45,-1.01 -28.89,-5.57 -17.46,-8.96 -6.46,-0.58 -12.89,-1.17 -12.89,-1.17 1.65,-1.32 6.65,-5.31 6.65,-5.31 -69.29,-7.75 -146.54,-20.48 -214.55,-17.54 -14.56,0.19 -38.89,2.52 -55.1,4.08 -8.09,0.77 -25.78,-2.24 -32.25,-2.79 -11.45,3.45 -9.96,8 -14.91,12 -49.97,-5.78 -157.96,-16.41 -155.16,-1.4 -40.32,-1.94 -48.62,4.73 -90.61,4.13 -55.63,-0.55 -126.19,-1.87 -195.71,-3.62 -38.03,-0.28 -74.55,-1.84 -111.38,-3.3 -13.74,-0.52 -27.08,-1.02 -39.78,-1.5 -17.19,-0.68 -34.09,-1.44 -50.67,-2.38 -16.55,-0.95 -32.92,-1.97 -48.6,-3.48 -3.95,-0.35 -7.69,-0.83 -11.53,-1.23 -1.88,-0.22 -3.58,-0.51 -5.37,-0.75 l -2.65,-0.38 -2.03,-0.43 -2,-0.39 -2.64,-0.74 -5.31,-1.5 c -3.52,-1.05 -6.99,-2.21 -10.45,-3.35 -13.75,-4.83 -26.92,-10.71 -39.44,-17.69 -6.27,-3.47 -12.37,-7.23 -18.38,-11.14 -5.98,-3.99 -11.87,-8.1 -17.65,-12.46 -11.6,-8.69 -22.82,-18.1 -34.5,-27.84 -5.84,-4.87 -11.85,-9.83 -18.24,-14.75 -6.4,-4.92 -13.18,-9.83 -20.87,-14.41 -7.67,-4.55 -16.35,-8.81 -26.33,-11.63 -2.47,-0.69 -5.15,-1.24 -7.63,-1.77 l -5.94,-0.91 -11.89,-1.79 -22.71,-2.68 c -7.57,-0.89 -14.98,-1.53 -22.48,-2.3 -14.99,-1.53 -29.88,-2.76 -44.88,-4.06 -29.96,-2.5 -60.1,-4.71 -90.72,-6.7 -61.25,-3.96 -124.44,-7.01 -191.78,-9.18 -67.86,-2.23 -136.53,-5.51 -204.68,-10.89 -8.53,-0.65 -16.99,-1.5 -25.48,-2.25 l -12.72,-1.18 c -4.25,-0.39 -8.39,-0.93 -12.58,-1.38 l -12.54,-1.44 -6.27,-0.72 -5.99,-0.96 c -8.04,-1.37 -16.07,-3.04 -23.83,-5.09 -15.49,-4.13 -30.45,-9.82 -42.31,-18.25 -5.89,-4.21 -10.91,-9.09 -14.61,-14.58 -3.74,-5.48 -6.08,-11.64 -7.23,-18.28 -2.27,-13.34 0.6,-28.44 5.62,-43 5.05,-14.64 12.16,-28.98 19.91,-42.97 15.63,-28.03 33.97,-54.7 51.28,-82.02 8.65,-13.69 17.14,-27.53 24.68,-42.28 3.77,-7.41 7.26,-14.97 10.27,-23.21 l 1.15,-3.3 1.13,-3.59 c 0.71,-2.41 1.4,-4.83 1.94,-7.29 1.12,-4.89 1.89,-9.85 2.16,-14.81 0.55,-9.9 -1.03,-19.92 -5.4,-28.75 -4.34,-8.84 -11.32,-16.12 -19.44,-21.53 -8.08,-5.51 -17.42,-9.3 -26.81,-12.05 l -3.33,-0.91 -1.66,-0.45 -1.52,-0.36 c -2.02,-0.48 -4.05,-0.97 -6.05,-1.35 -4.02,-0.83 -7.99,-1.51 -11.92,-2.07 -15.75,-2.27 -30.93,-2.96 -45.76,-3.16 -7.4,-0.06 -14.72,-0.02 -21.94,0.2 -3.47,0.08 -6.93,0.16 -10.37,0.23 -3.33,0.08 -6.64,0.13 -9.91,0.07 -13.11,-0.06 -25.84,-0.77 -37.86,-2.37 -6.03,-0.74 -11.79,-1.88 -17.36,-3.1 -5.44,-1.39 -10.8,-2.81 -15.47,-4.75 -1.24,-0.42 -2.33,-0.95 -3.45,-1.45 -1.07,-0.5 -2.36,-0.99 -3.06,-1.46 l -2.47,-1.34 -2.17,-1.4 c -2.8,-1.96 -5.28,-4.25 -7.19,-6.89 -1.93,-2.63 -3.23,-5.63 -3.84,-8.71 -0.6,-3.08 -0.5,-6.21 0.03,-9.16 0.55,-2.98 1.47,-5.66 2.75,-8.37 0.21,-0.58 0.71,-1.57 1.16,-2.48 0.44,-0.91 0.85,-1.82 1.4,-2.74 l 1.53,-2.75 1.69,-2.74 c 4.64,-7.3 10.44,-14.33 16.6,-20.84 12.5,-13.02 26.47,-23.99 40.06,-33.22 13.67,-9.2 27.04,-16.69 39.44,-22.88 24.91,-12.3 45.82,-19.42 60.35,-24.01 0,0 0.5,-0.26 1.38,-0.72 0.88,-0.44 2.14,-1.06 3.66,-1.82 3.02,-1.55 7.11,-3.44 11.22,-5.36 8.24,-3.74 16.7,-7.11 16.7,-7.11 -20.11,1.41 -52.38,8.26 -88.52,24.52 -18.02,8.11 -36.95,18.53 -55.16,31.49 -9.11,6.46 -17.99,13.6 -26.33,21.37 -8.36,7.74 -16.13,16.2 -22.71,25.2 -3.33,4.49 -6.21,9.15 -8.69,13.85 -0.64,1.17 -1.24,2.35 -1.75,3.54 -0.54,1.17 -1.15,2.42 -1.48,3.39 -0.86,2.06 -1.58,4.1 -2.15,6.21 -1.15,4.21 -1.72,8.65 -1.36,13.05 0.34,4.4 1.68,8.73 3.89,12.56 2.22,3.84 5.32,7.12 8.81,9.83 3.56,2.75 7.23,4.77 11.82,6.85 4.7,2.18 9.92,3.75 15.1,5.27 5.28,1.35 10.63,2.55 16.07,3.41 21.75,3.55 43.61,3.74 63.6,3.18 20.87,-0.68 39.99,-0.24 56.52,1.52 6.37,0.53 12.58,1.34 18.6,2.33 3.01,0.48 5.98,1.09 8.91,1.7 2.91,0.68 5.77,1.35 8.78,2.23 12.16,3.46 23.18,8.67 31.25,15.99 8.18,7.25 12.82,16.92 14.04,26.17 1.26,9.3 -0.11,18.02 -2.19,25.61 -1.85,6.4 -2.41,7.39 -1.45,4.06 0.45,-1.67 1.25,-4.45 2,-8.31 0.75,-3.86 1.5,-8.82 1.42,-14.76 -0.13,-5.9 -1.22,-12.9 -4.78,-19.81 -3.51,-6.91 -9.55,-13.41 -17.52,-18.42 -3.98,-2.52 -8.4,-4.72 -13.16,-6.64 -4.75,-1.95 -9.99,-3.52 -14.89,-4.8 -9.79,-2.55 -20.18,-4.21 -31.01,-5.37 -9.69,-0.85 -19.78,-1.26 -30.28,-1.32 -5.25,-0.02 -10.6,0.03 -16.05,0.16 -5.36,0.16 -10.84,0.33 -16.43,0.51 -10.88,0.3 -22.19,0.31 -33.78,-0.43 -11.57,-0.76 -23.54,-2.02 -35.25,-4.78 7.21,2.15 14.67,3.99 22.28,5.29 3.78,0.75 7.62,1.21 11.43,1.82 3.84,0.43 7.65,0.98 11.48,1.32 7.65,0.74 15.27,1.28 22.81,1.58 7.46,0.34 15.16,0.47 22.55,0.88 14.83,0.78 29,2.08 42.09,4.26 6.54,1.09 12.83,2.32 18.74,3.88 5.91,1.53 11.54,3.32 16.47,5.32 7.45,2.23 14.77,5.25 21.05,9.9 3.13,2.32 5.96,5.07 8.24,8.23 2.28,3.17 3.96,6.77 4.98,10.54 2.07,7.58 1.54,15.64 -0.1,23.26 -0.83,3.84 -1.92,7.56 -3.22,11.31 -1.3,3.78 -2.85,7.66 -4.52,11.42 -7.36,16.66 -16.83,32.46 -26.48,48.04 -9.71,15.57 -19.83,30.91 -29.7,46.42 -9.86,15.52 -19.55,31.19 -28.29,47.52 -8.67,16.34 -16.6,33.32 -21.46,51.78 -2.35,9.23 -3.89,18.86 -3.73,28.77 0.15,9.87 2.25,20.05 6.71,29.24 4.43,9.21 11.04,17.23 18.62,23.62 7.59,6.43 16.03,11.48 24.71,15.6 8.69,4.16 17.66,7.41 26.7,10.13 9.06,2.72 18.19,4.91 27.41,6.77 l 6.97,1.32 6.86,1.01 13.74,2.04 c 9.19,1.45 18.3,2.52 27.46,3.75 26.55,3.67 68.83,7.86 110.91,12 42.07,4.05 83.92,8.03 109.6,11.32 0,0 -10.09,-0.83 -27.76,-2.27 -17.67,-1.51 -42.91,-3.65 -73.21,-6.23 -30.29,-2.64 -65.64,-5.95 -103.53,-9.91 -9.48,-1.08 -19.12,-2.18 -28.88,-3.29 -4.86,-0.52 -9.81,-1.19 -14.79,-1.86 -4.97,-0.67 -9.96,-1.34 -14.97,-2.01 -2.52,-0.36 -4.99,-0.62 -7.56,-1.07 -2.58,-0.47 -5.17,-0.95 -7.75,-1.42 -5.11,-1.01 -10.23,-2.11 -15.34,-3.37 -10.23,-2.54 -20.49,-5.65 -30.57,-9.75 -5.04,-2.07 -10.03,-4.41 -14.94,-7.03 -4.89,-2.69 -9.68,-5.7 -14.26,-9.15 -9.15,-6.83 -17.44,-15.82 -22.97,-26.5 -5.61,-10.65 -8.03,-22.6 -8.14,-33.77 -0.14,-11.24 1.76,-21.83 4.44,-31.7 5.46,-19.76 13.82,-36.95 22.2,-52.68 8.46,-15.71 17.18,-29.9 25.31,-42.86 16.34,-25.83 30.08,-46.87 38.84,-61.91 8.84,-15.01 13.04,-23.78 13.04,-23.78 -2.73,4.95 -5.67,9.81 -8.72,14.53 0,0 -2.56,4.5 -7.34,12.31 -4.78,7.81 -11.87,18.89 -20.61,32.22 -8.71,13.34 -19.07,28.92 -29.67,46.24 -10.53,17.35 -21.47,36.37 -29.88,57.5 -4.16,10.57 -7.68,21.7 -9.56,33.5 -1.88,11.74 -1.97,24.35 1.09,36.48 2.96,12.14 9.26,23.2 16.74,31.6 3.71,4.26 7.71,7.88 11.71,11.05 3.99,3.21 8.02,5.88 11.94,8.26 7.86,4.71 15.29,8.09 21.89,10.75 6.61,2.68 12.42,4.55 17.2,6.03 4.79,1.45 8.55,2.45 11.12,3.11 0.83,0.23 1.52,0.4 2.09,0.55 -5.89,-1.38 -11.78,-2.91 -17.65,-4.73 -6.49,-1.98 -12.97,-4.21 -19.41,-6.95 -12.83,-5.44 -25.85,-12.57 -37.3,-23.63 -5.69,-5.51 -10.8,-12.14 -14.81,-19.53 -3.93,-7.43 -6.74,-15.62 -8.06,-23.85 -1.42,-8.25 -1.51,-16.48 -0.82,-24.43 0.7,-7.96 2.26,-15.63 4.25,-23.09 5.27,-18.36 13.94,-35.73 23.28,-52.14 9.37,-16.4 19.51,-31.89 28.7,-46.34 15.15,-23.46 31.12,-43.26 45.1,-64.91 0,0 6.34,-10.72 11.5,-21.67 2.57,-5.42 4.89,-11.1 6.25,-15.01 0.71,-1.97 1.15,-3.39 1.48,-4.5 0.31,-1.08 0.49,-1.7 0.49,-1.7 0.76,-3.91 1.28,-8.12 1.37,-12.44 -0.04,0.15 -0.12,0.44 -0.18,0.55 -0.81,2.17 -1.84,5.43 -3.48,9.38 -0.79,1.98 -1.78,4.11 -2.85,6.38 -1.17,2.39 -2.62,5.46 -4.32,8.68 -6.73,12.91 -17.38,29.37 -30.7,48.32 -13.27,19 -29.21,40.45 -45.35,64.84 -8.05,12.22 -16.15,25.22 -23.66,39.42 -7.47,14.24 -14.5,29.67 -19.11,47.61 -2.24,9 -3.82,18.67 -3.92,29.09 -0.02,5.21 0.32,10.58 1.15,16.02 0.87,5.45 2.26,10.94 4.15,16.3 3.81,10.75 9.9,20.76 17.03,28.9 3.53,4.17 7.36,7.72 11.22,11.11 3.89,3.24 7.87,6.28 11.86,8.87 16.05,10.54 32.02,16.72 47.1,21.51 7.57,2.4 14.93,4.27 22.11,5.95 6.98,1.61 14.81,3.18 21.02,4.04 13.04,2 25.56,3.98 36.68,5.3 11.23,1.41 21.69,2.83 30.98,3.79 18.63,1.99 33.17,3.46 42.07,3.93 56.87,3.66 109.09,-1.42 172.05,2.22 21.04,1.22 38.59,4.92 54.85,4.02 1.69,-1.26 9.82,-1.72 17.99,-2.18 41.89,2.32 83.42,10.52 115.89,8.73 22.71,-0.1 83.71,27.15 88.74,23.49 9.39,-6.89 10.68,-7.82 16.2,-6.33 5.54,1.47 15.28,5.47 41.38,8.59 3.1,0.5 9.86,-0.27 17.44,-0.9 1.9,-0.14 3.85,-0.29 5.79,-0.43 1.84,-0.09 3.64,-0.12 5.43,-0.12 3.56,0.01 6.98,0.22 9.87,0.79 1.45,0.28 1.76,0.57 2.45,0.8 0.61,0.22 1.23,0.43 1.87,0.76 0.64,0.28 1.26,0.54 1.87,0.81 0.65,0.34 1.28,0.64 1.91,0.93 1.26,0.6 2.57,1.35 3.85,1.97 1.33,0.81 2.57,1.36 3.91,2.2 5.26,3.03 10.55,6.28 16.26,9.89 5.72,3.62 11.88,7.65 19.17,12.7 7.31,5.04 15.74,11.15 26.36,18.78 16.13,10.89 29.61,19.63 41.64,26.85 12.04,7.23 22.6,13.09 33.28,18.16 10.68,5.06 21.51,9.34 34.23,12.61 3.15,0.9 6.48,1.52 9.9,2.25 1.78,0.35 3.24,0.7 5.7,1.02 1.12,0.15 2.26,0.31 3.4,0.46 1.1,0.13 2.42,0.34 3.31,0.35 7.96,0.49 15.87,0.43 24.45,-0.05 4.26,-0.05 32.57,0.21 59.56,-0.14 26.97,-0.39 52.94,-0.77 52.94,-0.77 80.79,4.71 131.07,-1.38 193.74,11.42 72.95,-7.01 169.51,7.02 247.03,7.69 77.55,0.68 109.65,9.34 177.23,18.11 19.33,1.67 33.87,1.44 45.09,3.9 11.25,2.47 38.85,-2.53 58.17,-0.83 -1.65,1.33 -3.3,2.66 -4.96,3.99 6.48,0.57 19.33,1.69 25.79,2.26 6.46,0.58 4.78,1.9 3.12,3.24 -3.33,2.67 -6.63,5.33 4.61,7.79 26.89,3.29 54.41,6.07 82.59,8.37 27.97,-1.1 55.58,-2.42 82.8,-4.05 1.65,-1.85 3.55,-3.68 7.42,-5.09 8.12,-0.73 16.22,-1.47 24.3,-2.2 4.99,-3.97 3.53,-8.54 6.89,-11.2 0.41,-11.76 34.7,-21.92 27.01,-32.96 z M 3449.58,1163.24 c -5.58,-0.81 -13,-1.89 -20.44,-2.97 -3.74,-0.57 -7.37,-1.01 -10.96,-1.66 -3.62,-0.69 -7.03,-1.32 -9.84,-1.95 -2.84,-0.6 -5.2,-1.11 -6.86,-1.53 -1.65,-0.4 -2.6,-0.62 -2.6,-0.62 5,1.16 9.91,2.17 15.01,3.13 5.19,1.04 10.05,1.66 14.99,2.37 9.86,1.39 19.94,3.07 29.89,4.39 0,0 -3.68,-0.46 -9.19,-1.16 z"
               id="path41" />
          </g>
        </g>
        <g
           id="g43">
          <path
             class="cls-2"
             d="m 2642.6,928.17 v 12.28 h -13.81 v -12.28 h -20.07 l 4.12,-12.19 14.76,-13.37 -1.72,-2.09 -9.2,4.11 3.77,-11.16 14.43,-13.06 -1.74,-2.08 -8.92,3.96 11.8,-34.88 13.66,40.39 1.24,3.65 -7.84,-3.49 -1.72,2.08 13.1,11.86 4.19,12.39 -10.1,-4.5 -1.73,2.08 15.82,14.34 -0.05,-0.25 0.74,2.2 h -20.74 z m 71.46,-102.31 17.06,49.93 1.53,4.53 -9.77,-4.31 -2.16,2.58 16.36,14.67 5.25,15.32 -12.63,-5.55 -2.16,2.57 19.79,17.74 -0.07,-0.29 0.92,2.69 h -27.7 v 16.36 h -13.66 v -16.36 h -26.89 l 5.14,-15.06 18.45,-16.55 -2.15,-2.57 -11.49,5.06 4.72,-13.79 18.01,-16.14 -2.15,-2.58 -11.15,4.91 14.76,-43.16 v 0 z"
             id="path42" />
          <path
             class="cls-6"
             d="m 2691.77,931.42 h -12.28 v 10.68 h 12.28 z m -11.62,-85.52 c -10.39,0 -18.85,8.29 -18.85,18.53 0,2.66 0.57,5.18 1.6,7.48 -4.59,2.88 -7.64,7.94 -7.64,13.7 0,6.95 4.44,12.88 10.68,15.21 -0.2,0.93 -0.32,1.9 -0.32,2.91 0,6.48 4.56,11.91 10.68,13.38 l 2.68,-7.89 1.26,-3.77 c 5.81,-17.16 10.88,-32.16 16.73,-49.42 -3.12,-6.03 -9.48,-10.13 -16.82,-10.13 z"
             id="path43" />
        </g>
        <g
           id="g45">
          <path
             class="cls-2"
             d="m 3212.58,928.17 v 12.28 h -13.81 v -12.28 h -20.07 l 4.12,-12.19 14.77,-13.37 -1.73,-2.09 -9.21,4.11 3.76,-11.16 14.42,-13.06 -1.72,-2.08 -8.91,3.96 11.79,-34.88 13.66,40.39 1.25,3.65 -7.84,-3.49 -1.72,2.08 13.1,11.86 4.19,12.39 -10.09,-4.5 -1.73,2.08 15.82,14.34 -0.04,-0.25 0.73,2.2 h -20.73 z m 71.45,-102.31 17.08,49.93 1.52,4.53 -9.77,-4.31 -2.16,2.58 16.37,14.67 5.24,15.32 -12.63,-5.55 -2.15,2.57 19.79,17.74 -0.06,-0.29 0.92,2.69 h -27.71 v 16.36 h -13.65 v -16.36 h -26.88 l 5.13,-15.06 18.45,-16.55 -2.16,-2.57 -11.49,5.06 4.7,-13.79 18.03,-16.14 -2.15,-2.58 -11.15,4.91 14.75,-43.16 v 0 z"
             id="path44" />
          <path
             class="cls-6"
             d="m 3261.74,931.42 h -12.28 v 10.68 h 12.28 z m -11.61,-85.52 c -10.41,0 -18.86,8.29 -18.86,18.53 0,2.66 0.58,5.18 1.59,7.48 -4.59,2.88 -7.64,7.94 -7.64,13.7 0,6.95 4.44,12.88 10.69,15.21 -0.2,0.93 -0.32,1.9 -0.32,2.91 0,6.48 4.56,11.91 10.67,13.38 l 2.68,-7.89 1.28,-3.77 c 5.8,-17.16 10.87,-32.16 16.72,-49.42 -3.11,-6.03 -9.48,-10.13 -16.8,-10.13 z"
             id="path45" />
        </g>
        <g
           id="g47">
          <path
             class="cls-3"
             d="m 3215.49,358.52 v 12.28 h -13.81 v -12.28 h -20.07 l 4.12,-12.18 14.75,-13.37 -1.72,-2.09 -9.19,4.1 3.76,-11.15 14.42,-13.06 -1.73,-2.08 -8.92,3.96 11.8,-34.88 13.66,40.39 1.25,3.65 -7.84,-3.49 -1.73,2.08 13.1,11.87 4.19,12.39 -10.1,-4.5 -1.72,2.09 15.83,14.34 -0.06,-0.25 0.75,2.19 h -20.73 z m 71.46,-102.3 17.05,49.94 1.53,4.53 -9.78,-4.32 -2.15,2.58 16.35,14.66 5.24,15.33 -12.63,-5.56 -2.15,2.57 19.78,17.73 -0.07,-0.29 0.92,2.7 h -27.71 v 16.36 h -13.65 v -16.36 h -26.88 l 5.13,-15.06 18.45,-16.55 -2.15,-2.57 -11.49,5.06 4.72,-13.78 18.01,-16.15 -2.15,-2.57 -11.15,4.91 14.77,-43.16 v 0 z"
             id="path46" />
          <path
             class="cls-3"
             d="m 3264.66,361.78 h -12.28 v 10.68 h 12.28 z m -11.62,-85.53 c -10.4,0 -18.85,8.3 -18.85,18.54 0,2.66 0.57,5.18 1.6,7.48 -4.6,2.88 -7.65,7.94 -7.65,13.7 0,6.95 4.44,12.88 10.68,15.21 -0.19,0.93 -0.31,1.9 -0.31,2.91 0,6.48 4.56,11.91 10.66,13.38 l 2.68,-7.88 1.27,-3.77 c 5.8,-17.17 10.88,-32.16 16.72,-49.42 -3.11,-6.02 -9.47,-10.14 -16.81,-10.14 z"
             id="path47" />
        </g>
        <path
           class="cls-16"
           d="m 3309.53,508.74 h -0.7 l -0.57,0.57 h -15.16 l 16.43,29.22 h -0.7 l -0.57,0.57 h -23.4 v 21.58 l -1.37,1.26 h -22.14 l -1.26,-1.26 V 539.1 h -24.66 c 0.31,-1.97 5.81,-11.92 16.45,-29.79 h -16.45 v -1.26 l 36.77,-62.66 h 1.25 z m -72.27,-9.47 v 0.56 c 0,1.29 -1.67,5.1 -5,11.42 h 11.39 l 0.57,0.68 c 0.7,1.67 1.34,2.52 1.95,2.52 l -15.19,26.6 h 15.88 l 4.34,3.76 -1.26,1.25 h -16.43 v 14.62 l -1.24,1.26 h -15.21 l -1.25,-1.26 V 546.06 H 3198 l -0.57,-0.57 12,-20.89 H 3198 l -0.57,-0.68 26.6,-46.24 c 1.07,0.53 5.48,7.73 13.24,21.58 z"
           id="path48" />
        <g
           id="g54">
          <path
             class="cls-1"
             d="m 2456.58,1070.42 v 50.13 h -9.44 v 12.08 h 98.91 v -12.08 h -10.95 v -50.13 l -40.81,-22.64 z"
             id="path49" />
          <path
             class="cls-5"
             d="m 2517.26,1032.17 h 13.23 v 14.06 l 24.63,14.3 -6.08,10.48 -54.34,-31.53 -53.1,33.2 -6.41,-10.31 56.19,-35.12 3.09,-1.92 3.15,1.83 19.65,11.4 v -6.39 0 z"
             id="path50" />
          <g
             id="g53">
            <rect
               class="cls-23"
               x="2478.6499"
               y="1073.0699"
               width="14.25"
               height="14.26"
               id="rect50" />
            <rect
               class="cls-23"
               x="2498.6001"
               y="1073.0699"
               width="14.25"
               height="14.26"
               id="rect51" />
            <rect
               class="cls-23"
               x="2478.6499"
               y="1093.01"
               width="14.25"
               height="14.25"
               id="rect52" />
            <rect
               class="cls-23"
               x="2498.6001"
               y="1093.01"
               width="14.25"
               height="14.25"
               id="rect53" />
          </g>
        </g>
        <g
           id="g59">
          <path
             class="cls-1"
             d="m 2460.71,1258.93 v 50.14 h -9.44 v 12.07 h 98.9 v -12.07 h -10.93 v -50.14 l -40.82,-22.64 -37.7,22.64 z"
             id="path54" />
          <path
             class="cls-5"
             d="m 2521.38,1220.67 h 13.24 v 14.06 l 24.61,14.29 -6.07,10.49 -54.33,-31.54 -53.11,33.2 -6.4,-10.31 56.19,-35.11 3.08,-1.92 3.16,1.83 19.64,11.4 v -6.39 0 z"
             id="path55" />
          <g
             id="g58">
            <rect
               class="cls-23"
               x="2482.77"
               y="1261.5699"
               width="14.27"
               height="14.26"
               id="rect55" />
            <rect
               class="cls-23"
               x="2502.71"
               y="1261.5699"
               width="14.26"
               height="14.26"
               id="rect56" />
            <rect
               class="cls-23"
               x="2482.77"
               y="1281.52"
               width="14.27"
               height="14.25"
               id="rect57" />
            <rect
               class="cls-23"
               x="2502.71"
               y="1281.52"
               width="14.26"
               height="14.25"
               id="rect58" />
          </g>
        </g>
        <g
           id="g64">
          <path
             class="cls-1"
             d="m 2266.44,882.94 v 50.14 H 2257 v 12.07 h 98.91 v -12.07 h -10.94 v -50.14 l -40.81,-22.64 -37.71,22.64 z"
             id="path59" />
          <path
             class="cls-5"
             d="m 2327.11,844.68 h 13.23 v 14.06 l 24.63,14.3 -6.07,10.49 -54.34,-31.53 -53.11,33.19 -6.41,-10.31 56.19,-35.12 3.09,-1.92 3.16,1.83 19.64,11.4 v -6.39 0 z"
             id="path60" />
          <g
             id="g63">
            <rect
               class="cls-23"
               x="2288.5"
               y="885.57001"
               width="14.26"
               height="14.27"
               id="rect60" />
            <rect
               class="cls-23"
               x="2308.45"
               y="885.57001"
               width="14.25"
               height="14.27"
               id="rect61" />
            <rect
               class="cls-23"
               x="2288.5"
               y="905.53003"
               width="14.26"
               height="14.25"
               id="rect62" />
            <rect
               class="cls-23"
               x="2308.45"
               y="905.53003"
               width="14.25"
               height="14.25"
               id="rect63" />
          </g>
        </g>
        <g
           id="g65">
          <rect
             class="cls-19"
             x="2650.1699"
             y="1023.57"
             width="65.160004"
             height="11.77"
             id="rect64" />
          <rect
             class="cls-19"
             x="2675.72"
             y="1033.83"
             width="14.05"
             height="97.669998"
             id="rect65" />
        </g>
        <g
           id="g70">
          <path
             class="cls-1"
             d="m 2080.11,1069.21 v 50.13 h -9.44 v 12.07 h 98.9 v -12.07 h -10.93 v -50.13 l -40.83,-22.64 z"
             id="path65" />
          <path
             class="cls-5"
             d="m 2140.78,1030.96 h 13.24 v 14.06 l 24.62,14.3 -6.08,10.49 -54.33,-31.53 -53.11,33.2 -6.4,-10.3 56.19,-35.12 3.08,-1.92 3.16,1.83 19.64,11.4 v -6.39 0 z"
             id="path66" />
          <g
             id="g69">
            <rect
               class="cls-23"
               x="2102.1699"
               y="1071.86"
               width="14.27"
               height="14.26"
               id="rect66" />
            <rect
               class="cls-23"
               x="2122.1101"
               y="1071.86"
               width="14.26"
               height="14.26"
               id="rect67" />
            <rect
               class="cls-23"
               x="2102.1699"
               y="1091.8"
               width="14.27"
               height="14.25"
               id="rect68" />
            <rect
               class="cls-23"
               x="2122.1101"
               y="1091.8"
               width="14.26"
               height="14.25"
               id="rect69" />
          </g>
        </g>
        <g
           id="g71">
          <rect
             class="cls-19"
             x="1892.4301"
             y="837.45001"
             width="65.160004"
             height="11.78"
             id="rect70" />
          <rect
             class="cls-19"
             x="1917.98"
             y="847.71997"
             width="14.05"
             height="97.669998"
             id="rect71" />
        </g>
        <g
           id="g73">
          <rect
             class="cls-19"
             x="2464.0601"
             y="644.70001"
             width="65.160004"
             height="11.77"
             id="rect72" />
          <rect
             class="cls-19"
             x="2489.6101"
             y="654.96002"
             width="14.05"
             height="97.669998"
             id="rect73" />
        </g>
        <g
           id="g75">
          <rect
             class="cls-19"
             x="2271.3"
             y="1216.33"
             width="65.150002"
             height="11.77"
             id="rect74" />
          <rect
             class="cls-19"
             x="2296.8501"
             y="1226.59"
             width="14.05"
             height="97.669998"
             id="rect75" />
        </g>
        <g
           id="g80">
          <path
             class="cls-14"
             d="m 1926.68,840.33 c -0.56,-0.96 -1.12,-1.91 -1.67,-2.87 1.09,-0.19 2.19,-0.38 3.28,-0.57"
             id="path75" />
          <path
             class="cls-11"
             d="m 1934.78,835.75 c 311.96,-55.11 520.14,-168.55 556.55,-189.4"
             id="path76" />
          <path
             class="cls-14"
             d="m 2494.18,644.7 c 1.9,-1.1 2.86,-1.69 2.86,-1.69 0,0 0.31,1.09 0.94,3.18"
             id="path77" />
          <path
             class="cls-13"
             d="m 2499.92,652.53 c 12.99,41.56 70.19,211.93 178.95,364.37"
             id="path78" />
          <path
             class="cls-14"
             d="m 2680.8,1019.6 c 0.65,0.9 1.29,1.8 1.94,2.7 -0.79,0.78 -1.58,1.55 -2.38,2.32"
             id="path79" />
          <path
             class="cls-12"
             d="m 2675.55,1029.23 c -153.24,145.01 -370.56,187.09 -370.56,187.09 0,0 -221.65,-110.28 -376.63,-373.13"
             id="path80" />
        </g>
        <path
           class="cls-24"
           d="m 2278.87,360.82 c 435.76,4.83 513.33,194.51 865,205.79 H 1737.38 c 133.22,-95.02 290.05,-208.58 541.49,-205.79 z"
           id="path81" />
        <g
           id="g83">
          <path
             class="cls-3"
             d="m 2459.49,550.79 v 12.28 h -13.81 v -12.28 h -20.08 l 4.13,-12.18 14.76,-13.37 -1.73,-2.09 -9.19,4.1 3.77,-11.15 14.43,-13.06 -1.73,-2.08 -8.93,3.96 11.81,-34.88 13.66,40.39 1.24,3.65 -7.83,-3.49 -1.73,2.08 13.11,11.87 4.18,12.39 -10.1,-4.5 -1.73,2.08 15.83,14.34 -0.05,-0.25 0.74,2.19 h -20.74 z m 71.46,-102.3 17.06,49.93 1.53,4.53 -9.77,-4.32 -2.16,2.59 16.36,14.66 5.25,15.34 -12.63,-5.56 -2.15,2.57 19.78,17.74 -0.06,-0.29 0.92,2.69 h -27.71 v 16.36 h -13.66 v -16.36 h -26.88 l 5.14,-15.06 18.44,-16.55 -2.15,-2.57 -11.49,5.06 4.71,-13.79 18.03,-16.15 -2.16,-2.58 -11.15,4.91 14.75,-43.16 v 0 z"
             id="path82" />
          <path
             class="cls-3"
             d="m 2508.66,554.05 h -12.29 v 10.68 h 12.29 z m -11.62,-85.53 c -10.4,0 -18.85,8.3 -18.85,18.54 0,2.66 0.57,5.18 1.6,7.48 -4.6,2.88 -7.65,7.95 -7.65,13.7 0,6.95 4.44,12.89 10.69,15.21 -0.2,0.93 -0.31,1.9 -0.31,2.91 0,6.48 4.56,11.9 10.66,13.39 l 2.68,-7.89 1.28,-3.77 c 5.79,-17.17 10.88,-32.16 16.72,-49.42 -3.12,-6.02 -9.49,-10.14 -16.81,-10.14 z"
             id="path83" />
        </g>
        <g
           id="g85">
          <path
             class="cls-3"
             d="m 2087.95,550.79 v 12.28 h -13.81 v -12.28 h -20.08 l 4.13,-12.18 14.76,-13.37 -1.73,-2.09 -9.19,4.1 3.77,-11.15 14.43,-13.06 -1.73,-2.08 -8.93,3.96 11.81,-34.88 13.66,40.39 1.24,3.65 -7.83,-3.49 -1.73,2.08 13.11,11.87 4.18,12.39 -10.1,-4.5 -1.73,2.08 15.83,14.34 -0.05,-0.25 0.74,2.19 h -20.74 z m 71.46,-102.3 17.06,49.93 1.53,4.53 -9.77,-4.32 -2.16,2.59 16.36,14.66 5.25,15.34 -12.63,-5.56 -2.15,2.57 19.78,17.74 -0.06,-0.29 0.92,2.69 h -27.71 v 16.36 h -13.66 v -16.36 h -26.88 l 5.14,-15.06 18.44,-16.55 -2.15,-2.57 -11.49,5.06 4.71,-13.79 18.03,-16.15 -2.16,-2.58 -11.15,4.91 14.75,-43.16 v 0 z"
             id="path84" />
          <path
             class="cls-3"
             d="m 2137.12,554.05 h -12.29 v 10.68 h 12.29 z m -11.62,-85.53 c -10.4,0 -18.85,8.3 -18.85,18.54 0,2.66 0.57,5.18 1.6,7.48 -4.6,2.88 -7.65,7.95 -7.65,13.7 0,6.95 4.44,12.89 10.69,15.21 -0.2,0.93 -0.31,1.9 -0.31,2.91 0,6.48 4.56,11.9 10.66,13.39 l 2.68,-7.89 1.28,-3.77 c 5.79,-17.17 10.88,-32.16 16.72,-49.42 -3.12,-6.02 -9.49,-10.14 -16.81,-10.14 z"
             id="path85" />
        </g>
      </g>
    </g>
  </g>
</svg>
