<?xml version="1.0" encoding="UTF-8"?>
<svg id="Layer_1" xmlns="http://www.w3.org/2000/svg" width="1920" height="1080" xmlns:xlink="http://www.w3.org/1999/xlink" version="1.1" viewBox="0 0 1920 1080">
  <!-- Generator: Adobe Illustrator 29.7.1, SVG Export Plug-In . SVG Version: 2.1.1 Build 8)  -->
  <defs>
    <style>
      .st0 {
        fill: #b37d4f;
      }

      .st0, .st1, .st2, .st3, .st4, .st5, .st6, .st7, .st8 {
        fill-rule: evenodd;
      }

      .st9, .st10, .st11, .st12, .st13 {
        fill: none;
      }

      .st1, .st14 {
        fill: #38a429;
      }

      .st2 {
        fill: #009536;
      }

      .st10 {
        stroke-dasharray: 6.66 6.66;
      }

      .st10, .st11, .st12, .st13 {
        stroke: #000;
        stroke-width: 3.32px;
      }

      .st10, .st11, .st12, .st13, .st15 {
        stroke-miterlimit: 10;
      }

      .st16 {
        fill: url(#linear-gradient);
      }

      .st11 {
        stroke-dasharray: 6.6 6.6;
      }

      .st3 {
        isolation: isolate;
        opacity: .6;
      }

      .st3, .st7 {
        fill: #7d471a;
      }

      .st4 {
        fill: #c1021d;
      }

      .st17 {
        clip-path: url(#clippath-1);
      }

      .st18 {
        clip-path: url(#clippath-2);
      }

      .st5 {
        fill: #218e2a;
      }

      .st19 {
        fill: #915a2f;
      }

      .st20 {
        fill: #50a835;
      }

      .st12 {
        stroke-dasharray: 6.63 6.63;
      }

      .st6 {
        fill: #4f4e53;
      }

      .st21 {
        fill: #5dae42;
      }

      .st22 {
        fill: #2fbbed;
      }

      .st8 {
        fill: #cbcbcb;
      }

      .st23 {
        fill: #7a6356;
      }

      .st24 {
        fill: #6bb24d;
      }

      .st25 {
        clip-path: url(#clippath);
      }

      .st15 {
        fill: #90bf5f;
        stroke: #50a825;
        stroke-width: 11.8px;
      }
    </style>
    <clipPath id="clippath">
      <rect class="st9" width="1920" height="1080"/>
    </clipPath>
    <clipPath id="clippath-1">
      <rect class="st9" x="-29.9" y="-158.46" width="1962.9" height="1610.46"/>
    </clipPath>
    <clipPath id="clippath-2">
      <rect class="st9" x="-5940" y="4560" width="1920" height="1080"/>
    </clipPath>
    <linearGradient id="linear-gradient" x1="-5688.78" y1="-5959.28" x2="-5688.78" y2="-8249.28" gradientTransform="translate(-584.76 6832.63) scale(.7)" gradientUnits="userSpaceOnUse">
      <stop offset="0" stop-color="#b9e2f6"/>
      <stop offset="1" stop-color="#00b3eb"/>
    </linearGradient>
  </defs>
  <g id="Layer_1-22">
    <g class="st25">
      <g>
        <rect class="st15" x="-35.8" y="-159.3" width="1967.96" height="1573.36"/>
        <path class="st24" d="M1939.02-119.74c-312.2,3.29-367.8,132.05-619.76,139.69h855.93c-95.45-64.5-56.04-141.58-236.18-139.69h.01Z"/>
        <path class="st24" d="M2100.01,864.27c-261.06,2.45-307.56,97.84-518.23,103.5h674c-79.83-47.79-5.13-104.9-155.77-103.5Z"/>
        <path class="st21" d="M1991.43,172.91c-435.76,5.32-513.34,214.08-865,226.49h1136.65c-133.22-104.58-20.21-229.55-271.65-226.49h0Z"/>
        <path class="st3" d="M1271.96,491.65c88.67-.54,146.87-94.2,146.87-94.2h-291.42s56.34,94.73,144.56,94.2h-.01Z"/>
        <path class="st7" d="M1143,361.87h-4.28v-6.53h59.19v6.53h-20.47v1.84l15.17,1.74-3.13,15.03c.88.41,1.69.98,2.38,1.67,1.51,1.51,2.46,3.6,2.46,5.9s-.95,4.41-2.46,5.92c-.56.56-1.2,1.05-1.91,1.43h16.07v4.7h-78.63v-4.7h16.23c-.7-.37-1.35-.86-1.92-1.43-1.51-1.51-2.45-3.61-2.45-5.92s.93-4.39,2.45-5.9c1.22-1.21,2.81-2.05,4.56-2.34l-3.28-17.94h.02ZM1192.38,352.56h-47.63l-.49-1.25,3.68-2.93,2.78-1.35-.17-3.85,3.44-.58.67-2.36,4.86-1.84,2.84,3.1,5.71-.25.34-2.09,7.63-1.43,1.59,8.14,4.44-.59,5.78-.08.42,3.77,4.7,1.43-.59,2.17h0ZM1151.63,395.41h30.34c-.71-.37-1.35-.86-1.92-1.43-1.51-1.51-2.44-3.61-2.44-5.92,0-.32.01-.64.04-.95h-21.72c.05.31.06.63.06.95,0,2.31-.94,4.41-2.45,5.92-.57.56-1.21,1.05-1.91,1.43h0ZM1145.3,385.74c-.59.6-.96,1.42-.96,2.32s.37,1.74.96,2.33,1.41.96,2.33.96,1.73-.37,2.33-.96.97-1.42.97-2.33-.37-1.72-.97-2.32c-.59-.6-1.42-.96-2.33-.96s-1.73.36-2.33.96h0ZM1182.68,388.06c0,.91.36,1.74.96,2.33s1.4.96,2.32.96,1.74-.37,2.33-.96c.6-.59.96-1.42.96-2.33s-.36-1.72-.96-2.32c-.59-.6-1.42-.96-2.33-.96s-1.72.36-2.32.96-.96,1.42-.96,2.32Z"/>
        <path class="st6" d="M902.31,366.55h-14.4v3.18h14.4v-3.18h0ZM902.31,373.17h-14.4v3.18h14.4v-3.18h0ZM902.31,380.12h-14.4v3.18h14.4v-3.18h0ZM929.46,348.13h-17.76v3.18h17.76v-3.18h0ZM929.46,355.07h-17.76v3.18h17.76v-3.18h0ZM929.46,361.7h-17.76v3.18h17.76v-3.18h0ZM929.46,368.65h-17.76v3.19h17.76v-3.19h0ZM978.73,339.25h-17.77v3.18h17.77v-3.18h0ZM978.73,346.19h-17.77v3.18h17.77v-3.18h0ZM978.73,352.81h-17.77v3.18h17.77v-3.18h0ZM978.73,359.76h-17.77v3.19h17.77v-3.19h0ZM902.31,359.59h-14.4v3.18h14.4v-3.18h0ZM987.63,391.98h2.21v8.13h-110.72v-8.13h2.94v-38.09h20.45v-11.06h27.13v-11.73h57.99v60.87h0Z"/>
        <g>
          <path class="st8" d="M1232.88,418.13l3.21-3.19c1.29-1.3,3.41-1.29,4.69,0l1.71,1.73c-2.62,2.65-5.13,5.45-7.52,8.33l-2.12-2.15c-1.28-1.3-1.28-3.42.03-4.73h0ZM1223.37,447.79c.6.58,1.23,1.18,1.83,1.77,4.39-5.73,9.11-11.48,14.73-17.29,1.02.67,2.04,1.35,3.05,2.02.17-.2.36-.4.53-.61l37.59,38.15c1.27,1.3,3.39,1.3,4.7,0l3.2-3.2c1.29-1.29,1.3-3.42.03-4.72l-37.89-38.44c5.37-5.4,11.38-10.66,17.19-14.34l-4.75-7.29c-16.66,10.65-30.45,26.77-40.22,43.95h.01Z"/>
          <path class="st8" d="M1302.3,414.7l3.08,3.22c1.24,1.31,1.21,3.43-.07,4.73l-1.72,1.71c-2.55-2.61-5.24-5.13-8.02-7.52l2.13-2.15c1.29-1.29,3.36-1.29,4.61,0h-.01ZM1273.5,405.26c-.59.62-1.17,1.24-1.75,1.84,5.53,4.4,11.08,9.11,16.68,14.76-.68,1.03-1.35,2.06-2.03,3.07.19.17.39.35.58.53l-37.72,37.94c-1.29,1.3-1.33,3.42-.07,4.72l3.08,3.21c1.24,1.29,3.32,1.31,4.6.02l38.03-38.25c5.19,5.39,10.23,11.42,13.76,17.24l7.16-4.81c-10.14-16.7-25.68-30.51-42.32-40.27h0Z"/>
        </g>
        <polygon class="st7" points="1020.12 315.63 1073.51 315.63 1084.93 399.88 1008.69 399.88 1020.12 315.63 1020.12 315.63"/>
        <path class="st20" d="M169.34,946.42c-276.4,3.8-125.61,152.37-285.99,161.57h629.47c-84.5-74.6-183.98-163.75-343.47-161.57h0,0Z"/>
        <path class="st14" d="M347.23-30.25h-.7l-.57.56h-15.16L347.23-.47h-.7l-.57.57h-23.39v21.58l-1.38,1.26h-22.14l-1.27-1.26V.1h-24.65c.31-1.97,5.8-11.92,16.45-29.79h-16.45v-1.26l36.77-62.67h1.25l36.09,63.36h-.01,0ZM274.96-39.73v.56c0,1.29-1.68,5.1-5.02,11.42h11.4l.57.68c.7,1.67,1.33,2.52,1.94,2.52l-15.19,26.6h15.87l4.34,3.76-1.26,1.25h-16.44v14.62l-1.25,1.26h-15.2l-1.24-1.26V7.06h-17.81l-.57-.57,12-20.89h-11.43l-.57-.69,26.6-46.23c1.06.53,5.47,7.73,13.25,21.58h.01Z"/>
        <path class="st14" d="M1094.91-30.25h-.7l-.57.56h-15.17l16.44,29.22h-.7l-.57.57h-23.39v21.58l-1.38,1.26h-22.15l-1.25-1.26V.1h-24.66c.31-1.97,5.8-11.92,16.45-29.79h-16.45v-1.26l36.77-62.67h1.25l36.09,63.36h-.01ZM1022.64-39.73v.56c0,1.29-1.67,5.1-5.01,11.42h11.4l.57.68c.7,1.67,1.34,2.52,1.95,2.52l-15.19,26.6h15.88l4.34,3.76-1.26,1.25h-16.44v14.62l-1.25,1.26h-15.2l-1.24-1.26V7.06h-17.81l-.57-.57,11.99-20.89h-11.42l-.57-.69,26.6-46.23c1.06.53,5.48,7.73,13.24,21.58h-.01,0Z"/>
        <path class="st14" d="M1280.25-30.25h-.7l-.57.56h-15.17l16.44,29.22h-.7l-.57.57h-23.39v21.58l-1.38,1.26h-22.15l-1.26-1.26V.1h-24.65c.31-1.97,5.8-11.92,16.45-29.79h-16.45v-1.26l36.76-62.67h1.25l36.09,63.36h0ZM1207.98-39.73v.56c0,1.29-1.67,5.1-5,11.42h11.39l.57.68c.7,1.67,1.34,2.52,1.95,2.52l-15.19,26.6h15.87l4.35,3.76-1.26,1.25h-16.44v14.62l-1.24,1.26h-15.21l-1.25-1.26V7.06h-17.81l-.57-.57,12-20.89h-11.43l-.57-.69,26.6-46.23c1.06.53,5.48,7.73,13.24,21.58h0Z"/>
        <g>
          <path class="st1" d="M254.52,1142.98v12.28h-13.82v-12.28h-20.07l4.11-12.18,14.76-13.37-1.73-2.1-9.19,4.11,3.77-11.15,14.42-13.07-1.72-2.08-8.92,3.96,11.81-34.88,13.65,40.39,1.25,3.65-7.85-3.49-1.72,2.08,13.1,11.87,4.2,12.39-10.1-4.5-1.72,2.09,15.83,14.34-.05-.25.74,2.19h-20.75,0ZM325.98,1040.67l17.06,49.93,1.53,4.54-9.77-4.32-2.16,2.58,16.36,14.66,5.24,15.33-12.63-5.56-2.16,2.57,19.79,17.73-.08-.29.93,2.69h-27.7v16.37h-13.66v-16.37h-26.89l5.15-15.06,18.44-16.55-2.16-2.57-11.49,5.07,4.71-13.79,18.02-16.15-2.15-2.57-11.15,4.91,14.76-43.16h.01Z"/>
          <path class="st5" d="M303.69,1146.24h-12.28v10.68h12.28v-10.68h0ZM292.06,1060.71c-10.39,0-18.85,8.29-18.85,18.54,0,2.66.57,5.18,1.6,7.47-4.6,2.88-7.65,7.94-7.65,13.7,0,6.96,4.45,12.89,10.69,15.21-.19.93-.31,1.91-.31,2.91,0,6.47,4.56,11.9,10.68,13.38l2.67-7.88,1.27-3.77c5.8-17.17,10.88-32.15,16.73-49.42-3.12-6.03-9.48-10.14-16.82-10.14h-.01Z"/>
        </g>
        <g>
          <path class="st1" d="M1190.7,1142.98v12.28h-13.82v-12.28h-20.07l4.11-12.18,14.77-13.37-1.73-2.1-9.19,4.11,3.76-11.15,14.43-13.07-1.73-2.08-8.92,3.96,11.8-34.88,13.66,40.39,1.25,3.65-7.85-3.5-1.73,2.08,13.1,11.87,4.2,12.39-10.1-4.5-1.72,2.08,15.82,14.34-.05-.25.73,2.19h-20.72v.02h0ZM1262.15,1040.67l17.06,49.93,1.53,4.54-9.78-4.32-2.15,2.58,16.35,14.66,5.25,15.33-12.65-5.56-2.15,2.57,19.78,17.73-.05-.29.92,2.69h-27.7v16.37h-13.66v-16.37h-26.89l5.14-15.06,18.45-16.55-2.16-2.57-11.49,5.07,4.71-13.79,18.02-16.15-2.16-2.57-11.15,4.91,14.76-43.16h.02Z"/>
          <path class="st5" d="M1239.86,1146.24h-12.28v10.68h12.28v-10.68h0ZM1228.24,1060.71c-10.39,0-18.85,8.29-18.85,18.54,0,2.66.57,5.18,1.59,7.47-4.59,2.88-7.65,7.94-7.65,13.7,0,6.96,4.44,12.89,10.69,15.21-.19.93-.31,1.91-.31,2.91,0,6.47,4.55,11.9,10.67,13.38l2.67-7.89,1.27-3.77c5.8-17.17,10.88-32.15,16.72-49.42-3.11-6.02-9.47-10.14-16.81-10.14h.01Z"/>
        </g>
        <g>
          <path class="st1" d="M66.05,953.52v12.28h-13.81v-12.28h-20.08l4.12-12.18,14.78-13.37-1.75-2.09-9.18,4.1,3.76-11.15,14.42-13.06-1.72-2.08-8.93,3.96,11.81-34.88,13.65,40.39,1.25,3.65-7.84-3.49-1.73,2.08,13.1,11.87,4.19,12.39-10.1-4.5-1.73,2.08,15.83,14.34-.06-.25.75,2.19h-20.74.01ZM137.5,851.22l17.06,49.93,1.53,4.53-9.77-4.31-2.16,2.58,16.36,14.66,5.24,15.33-12.64-5.56-2.15,2.57,19.77,17.74-.06-.29.92,2.7h-27.7v16.36h-13.65v-16.36h-26.89l5.14-15.06,18.45-16.55-2.16-2.57-11.49,5.06,4.71-13.79,18.03-16.14-2.16-2.58-11.15,4.91,14.75-43.16h.02,0Z"/>
          <path class="st5" d="M115.22,956.78h-12.29v10.68h12.29v-10.68h0ZM103.6,871.26c-10.41,0-18.85,8.3-18.85,18.54,0,2.66.57,5.18,1.59,7.48-4.59,2.88-7.64,7.94-7.64,13.7,0,6.95,4.44,12.88,10.69,15.21-.2.94-.31,1.9-.31,2.91,0,6.48,4.55,11.9,10.67,13.38l2.67-7.89,1.28-3.77c5.81-17.16,10.88-32.15,16.73-49.42-3.12-6.02-9.49-10.14-16.81-10.14h-.02Z"/>
        </g>
        <g>
          <path class="st1" d="M1569.13,953.52v12.28h-13.81v-12.28h-20.07l4.11-12.18,14.77-13.37-1.74-2.09-9.19,4.1,3.76-11.15,14.42-13.06-1.71-2.08-8.94,3.96,11.8-34.88,13.66,40.39,1.25,3.65-7.84-3.49-1.73,2.08,13.1,11.87,4.2,12.39-10.11-4.5-1.72,2.08,15.82,14.34-.05-.25.76,2.19h-20.75.01,0ZM1640.59,851.22l17.06,49.93,1.53,4.53-9.76-4.31-2.17,2.58,16.36,14.66,5.25,15.33-12.63-5.56-2.16,2.57,19.78,17.74-.06-.29.93,2.69h-27.71v16.36h-13.64v-16.36h-26.89l5.13-15.06,18.45-16.55-2.15-2.57-11.49,5.06,4.71-13.79,18.02-16.15-2.15-2.58-11.16,4.91,14.76-43.16h0v.02h0Z"/>
          <path class="st5" d="M1618.3,956.78h-12.28v10.68h12.28v-10.68h0ZM1606.67,871.26c-10.4,0-18.85,8.3-18.85,18.54,0,2.66.57,5.18,1.6,7.48-4.6,2.88-7.64,7.93-7.64,13.7,0,6.95,4.44,12.88,10.68,15.21-.19.94-.31,1.9-.31,2.91,0,6.48,4.56,11.9,10.67,13.38l2.67-7.89,1.28-3.77c5.81-17.16,10.88-32.15,16.72-49.42-3.11-6.02-9.47-10.14-16.81-10.14h-.01Z"/>
        </g>
        <path class="st14" d="M531.29,537.37h-.7l-.57.57h-15.16l16.44,29.22h-.7l-.57.57h-23.39v21.58l-1.38,1.26h-22.15l-1.27-1.26v-21.58h-24.64c.31-1.97,5.8-11.92,16.44-29.8h-16.44v-1.26l36.76-62.67h1.24l36.09,63.36h0ZM459.02,527.91v.57c0,1.28-1.66,5.09-5,11.41h11.39l.56.68c.71,1.67,1.35,2.52,1.96,2.52l-15.19,26.61h15.88l4.33,3.76-1.25,1.25h-16.45v14.62l-1.23,1.26h-15.21l-1.25-1.26v-14.62h-17.82l-.57-.57,12-20.89h-11.43l-.57-.68,26.6-46.23c1.06.52,5.48,7.71,13.24,21.57h.01Z"/>
        <path class="st14" d="M349.37,348.5h-.71l-.57.57h-15.16l16.44,29.22h-.71l-.57.57h-23.4v21.58l-1.38,1.26h-22.14l-1.26-1.26v-21.58h-24.65c.31-1.97,5.8-11.92,16.45-29.79h-16.45v-1.26l36.77-62.66h1.24l36.09,63.35h.01ZM277.09,339.03v.56c0,1.29-1.67,5.1-5.01,11.43h11.4l.57.68c.7,1.67,1.33,2.52,1.94,2.52l-15.18,26.6h15.88l4.34,3.76-1.26,1.25h-16.44v14.62l-1.25,1.26h-15.2l-1.24-1.26v-14.62h-17.82l-.57-.57,11.99-20.89h-11.42l-.57-.68,26.6-46.23c1.07.52,5.48,7.72,13.24,21.58h0Z"/>
        <path class="st14" d="M531.29,913.11h-.7l-.57.57h-15.16l16.44,29.23h-.7l-.57.57h-23.39v21.57l-1.38,1.26h-22.15l-1.27-1.26v-21.57h-24.64c.31-1.97,5.8-11.92,16.44-29.8h-16.44v-1.26l36.76-62.66h1.24l36.09,63.35h0ZM459.02,903.63v.56c0,1.3-1.66,5.1-5,11.42h11.39l.56.68c.71,1.67,1.35,2.52,1.96,2.52l-15.19,26.6h15.88l4.33,3.76-1.25,1.26h-16.45v14.61l-1.23,1.26h-15.21l-1.25-1.26v-14.61h-17.82l-.57-.57,12-20.89h-11.43l-.57-.68,26.6-46.24c1.06.53,5.48,7.74,13.24,21.58h.01Z"/>
        <path class="st14" d="M722.79,1104.15h-.69l-.57.57h-15.16l16.43,29.22h-.69l-.57.57h-23.39v21.57l-1.39,1.26h-22.15l-1.25-1.26v-21.57h-24.65c.31-1.97,5.8-11.92,16.45-29.8h-16.45v-1.26l36.76-62.67h1.25l36.08,63.36h-.01,0ZM650.53,1094.68v.56c0,1.3-1.68,5.11-5.01,11.43h11.4l.57.67c.69,1.67,1.34,2.52,1.95,2.52l-15.19,26.6h15.88l4.34,3.76-1.27,1.25h-16.43v14.62l-1.25,1.26h-15.2l-1.25-1.26v-14.62h-17.81l-.57-.57,12.01-20.89h-11.43l-.57-.68,26.61-46.23c1.06.53,5.47,7.73,13.24,21.58h-.02Z"/>
        <path class="st14" d="M1468.94,1104.15h-.7l-.56.57h-15.17l16.44,29.22h-.7l-.56.57h-23.4v21.57l-1.37,1.26h-22.15l-1.27-1.26v-21.57h-24.65c.31-1.97,5.81-11.92,16.44-29.8h-16.44v-1.26l36.77-62.67h1.24l36.09,63.36h-.01,0ZM1396.66,1094.68v.56c0,1.3-1.67,5.11-5.01,11.43h11.4l.57.67c.7,1.67,1.34,2.52,1.95,2.52l-15.18,26.6h15.87l4.34,3.76-1.27,1.25h-16.45v14.62l-1.24,1.26h-15.2l-1.25-1.26v-14.62h-17.81l-.57-.57,12-20.89h-11.42l-.57-.68,26.6-46.23c1.06.53,5.48,7.73,13.23,21.58h.01Z"/>
        <path class="st14" d="M1852.97,1104.15h-.7l-.56.57h-15.17l16.44,29.22h-.7l-.56.57h-23.4v21.57l-1.37,1.26h-22.15l-1.26-1.26v-21.57h-24.65c.31-1.97,5.81-11.92,16.44-29.8h-16.44v-1.26l36.77-62.67h1.24l36.09,63.36h-.02,0ZM1780.7,1094.68v.56c0,1.3-1.67,5.11-5.02,11.43h11.41l.57.67c.71,1.67,1.34,2.52,1.95,2.52l-15.18,26.6h15.88l4.33,3.76-1.27,1.25h-16.44v14.62l-1.25,1.26h-15.19l-1.25-1.26v-14.62h-17.81l-.57-.57,11.99-20.89h-11.42l-.57-.68,26.6-46.23c1.07.53,5.48,7.73,13.24,21.58h0Z"/>
        <path class="st14" d="M1476.36,726.4h-.71l-.57.57h-15.17l16.45,29.22h-.71l-.57.57h-23.39v21.57l-1.38,1.26h-22.14l-1.27-1.26v-21.57h-24.64c.31-1.97,5.81-11.92,16.45-29.79h-16.45v-1.26l36.77-62.66h1.25l36.09,63.35h-.01ZM1404.08,716.93v.56c0,1.29-1.67,5.1-5.02,11.42h11.4l.57.68c.71,1.67,1.34,2.52,1.95,2.52l-15.19,26.6h15.88l4.33,3.76-1.26,1.25h-16.44v14.62l-1.25,1.26h-15.2l-1.25-1.26v-14.62h-17.82l-.57-.57,12-20.89h-11.43l-.57-.68,26.6-46.23c1.06.52,5.48,7.72,13.24,21.58h.03,0Z"/>
        <path class="st14" d="M344.46,726.4h-.71l-.56.57h-15.17l16.44,29.22h-.71l-.56.57h-23.4v21.57l-1.38,1.26h-22.14l-1.27-1.26v-21.57h-24.65c.31-1.97,5.8-11.92,16.45-29.79h-16.45v-1.26l36.77-62.66h1.25l36.09,63.35h0ZM272.19,716.93v.56c0,1.29-1.67,5.1-5.01,11.42h11.41l.56.68c.71,1.67,1.35,2.52,1.96,2.52l-15.19,26.6h15.87l4.34,3.76-1.26,1.25h-16.44v14.62l-1.25,1.26h-15.2l-1.24-1.26v-14.62h-17.81l-.57-.57,11.99-20.89h-11.42l-.57-.68,26.6-46.23c1.05.52,5.48,7.72,13.24,21.58h-.01,0Z"/>
        <path class="st14" d="M1852.97,726.4h-.7l-.56.57h-15.17l16.44,29.22h-.7l-.56.57h-23.4v21.57l-1.38,1.26h-22.15l-1.26-1.26v-21.57h-24.65c.31-1.97,5.8-11.92,16.45-29.79h-16.45v-1.26l36.77-62.66h1.24l36.09,63.35h-.01,0ZM1780.7,716.93v.56c0,1.29-1.67,5.1-5.02,11.42h11.41l.57.68c.71,1.67,1.34,2.52,1.95,2.52l-15.19,26.6h15.89l4.32,3.76-1.26,1.25h-16.44v14.62l-1.25,1.26h-15.19l-1.25-1.26v-14.62h-17.81l-.57-.57,11.99-20.89h-11.42l-.57-.68,26.6-46.23c1.06.52,5.48,7.72,13.24,21.58h0Z"/>
        <g class="st17">
          <g>
            <path class="st22" d="M-421.74,135.59c3.16,1.74,6.47,3.1,9.7,4.67l9.76,4.56c1.67.76,3.16,1.51,4.97,2.28,1.85.74,3.78,1.59,5.56,2.19,7.27,2.64,14.29,4.69,21.31,6.53,7.02,1.83,14.01,3.5,21.01,5,27.99,6.03,56.18,10.41,84.91,14.03,57.44,7.14,117,11,180.45,11.07,63.93-.04,128.69-2.85,192.89-10.59,32.09-3.88,64.02-9.1,95.46-16.12,31.41-7.14,62.38-16.03,92.06-28.04,29.59-12.05,58.08-27.14,82.85-47.2,12.41-9.96,23.6-21.5,33.53-33.36,5.07-5.93,9.77-12.2,14.3-18.59,4.36-6.54,8.61-13.17,12.09-20.35,3.51-7.14,6.51-14.65,8.48-22.6,1.97-7.93,2.86-16.34,2.11-24.75-.72-8.4-3.11-16.68-6.77-24.13-3.65-7.47-8.48-14.11-13.84-19.89-10.77-11.6-23.25-20.26-35.72-27.78-12.52-7.49-25.24-13.77-37.6-19.79-6.13-2.99-12.35-5.99-18.01-8.89l-1.9-.99-.93-.48-.71-.39-2.8-1.56c-1.85-1.04-3.63-2.15-5.36-3.3-1.71-1.18-3.34-2.42-4.81-3.83-1.44-1.41-2.73-3.05-3.32-4.99-.58-1.96-.11-4.1.97-5.81,1.05-1.74,2.54-3.16,4.09-4.41,3.14-2.46,6.57-4.44,9.74-6.55,4.88-3.21,9.72-6.4,14.51-9.55,5.17-3.33,10.29-6.63,15.37-9.9,5.11-3.15,10.17-6.28,15.18-9.37,20.13-12.13,39.97-22.56,59.21-31.62,4.86-2.14,9.66-4.25,14.4-6.34,2.38-1.02,4.69-2.14,7.08-3.05,2.38-.92,4.74-1.84,7.08-2.75,4.69-1.82,9.3-3.62,13.85-5.39,4.62-1.56,9.18-3.1,13.67-4.62,35.93-12.02,68.47-18.52,95.51-22.94,6.81-.87,13.26-1.7,19.35-2.48,6.09-.78,11.78-1.62,17.18-1.93,10.74-.89,19.95-1.66,27.52-2.29l35.41-4.92c-9.91-.34-22.84-.63-38.07-.34-7.6.46-15.77.95-24.43,1.47-2.17.14-4.37.29-6.6.43-2.22.19-4.46.51-6.73.76-4.54.55-9.2,1.11-13.95,1.69-37.98,4.9-82.14,14.6-125.22,31.26-5.36,2.13-10.74,4.27-16.13,6.42-5.37,2.19-10.61,4.71-15.92,7.06l-7.94,3.59-7.79,3.9c-2.59,1.3-5.19,2.59-7.77,3.89-2.6,1.27-5.17,2.59-7.69,4.01-20.45,10.73-39.78,22.82-58.08,34.7-4.58,2.95-9.08,5.95-13.52,8.92-3.91,2.6-7.76,5.15-11.55,7.67-3.28,2.22-6.67,4.23-9.64,6.75-1.49,1.24-2.83,2.64-3.99,4.16-1.08,1.57-1.91,3.32-2.12,5.18-.19,1.87.39,3.68,1.24,5.25.83,1.61,2.09,2.9,3.3,4.16,2.54,2.43,5.39,4.4,8.24,6.2,2.86,1.79,5.74,3.42,8.57,4.96,1.64.86,3.26,1.71,4.84,2.55,1.72.88,3.41,1.74,5.06,2.58,10.3,5.06,20.18,9.76,29.33,14.52,9.17,4.74,17.63,9.55,25.31,14.51,15.3,9.94,27.49,20.75,35.22,32.27,3.16,4.91,3.54,5.84,1.91,3.24-1.66-2.55-5.6-8.57-12.93-15.83-7.29-7.28-18-15.58-31.54-23.72-13.48-8.23-29.84-16.23-47.3-24.99-1.95-.97-3.92-1.95-5.91-2.94-1.8-.94-3.8-1.93-5.32-2.76-3.24-1.74-6.5-3.57-9.67-5.65-3.14-2.1-6.27-4.44-8.66-7.56-1.14-1.58-2.07-3.4-2.25-5.41-.23-2.02.51-4.05,1.58-5.79,2.18-3.53,5.61-6.16,9.11-8.54,3.56-2.38,7.18-4.8,10.88-7.27,4.68-3.14,9.45-6.33,14.31-9.59,4.89-3.19,9.86-6.45,14.93-9.76-6.49,3.87-12.96,7.69-19.35,11.6-3.19,1.96-6.37,3.91-9.53,5.84-2.75,1.66-5.5,3.32-8.22,4.96-2.68,1.62-5.42,3.24-8.1,5.01-2.61,1.85-5.2,3.87-7.23,6.4-2.05,2.49-3.24,5.76-2.67,8.82.52,3.07,2.36,5.64,4.4,7.81,4.17,4.35,9.27,7.73,14.45,10.95,5.14,3.17,10.79,6.28,16.19,9.23,10.83,5.88,21.01,11.3,30.01,16.6,13.6,7,26.99,14.69,38.91,24.38,5.94,4.85,11.42,10.27,16.04,16.34,2.36,3,4.33,6.27,6.18,9.59,1.67,3.41,3.24,6.88,4.25,10.55,1.28,3.98,1.84,8.13,2.22,12.27.16,4.16.14,8.34-.53,12.47-1.14,8.28-3.78,16.33-7.26,24-3.5,7.67-7.78,14.99-12.52,22-4.86,6.94-9.94,13.73-15.51,20.13-21.51,26.35-49.46,46.17-79.51,61.36-30.12,15.21-62.31,26.06-95.1,34.4-32.86,8.23-66.43,13.93-100.37,17.89-12.32,1.36-28.28,3.1-46.1,4.48-17.82,1.4-37.47,2.54-57.1,3.21-39.26,1.4-78.38.77-102.4-.6,0,0,9.41.28,25.89.47,16.48.18,40.03.18,68.25-.73,28.22-.96,61.12-2.9,96.15-6.78,35.02-3.91,72.18-9.83,108.56-18.8,36.34-8.96,71.92-21.13,102.85-37.15,15.46-7.99,29.72-16.93,42.24-26.62,3.06-2.5,6.08-4.97,9.06-7.39,2.83-2.58,5.62-5.13,8.36-7.63,2.59-2.65,5.15-5.25,7.65-7.8,2.42-2.7,4.79-5.34,7.12-7.94,9.11-10.51,16.65-20.75,22.33-30.28,5.71-9.53,9.51-18.34,11.68-25.76s2.83-13.38,2.9-17.4c.09-2.01-.08-3.55-.07-4.58,0-1.04-.1-1.57-.1-1.57.23,4.95-.17,9.9-1.15,14.72,0,0,0,.28-.15.82-.12.54-.3,1.34-.53,2.39-.39,2.1-1.28,5.14-2.56,8.98-2.64,7.66-7.83,18.35-15.97,30.22-4.19,5.87-8.85,12.17-14.33,18.46-2.65,3.21-5.58,6.36-8.54,9.61-2.95,3.26-6.14,6.24-9.29,9.47-13.11,12.32-28.82,23.68-45.59,33.37-33.7,19.29-71.12,31.74-99.44,39.38-3.56.94-6.96,1.83-10.2,2.69-3.26.78-6.35,1.52-9.26,2.22-5.8,1.45-10.92,2.44-15.11,3.39-4.19.94-7.52,1.54-9.77,2-2.26.44-3.46.68-3.46.68,22.8-4.67,45.06-10.3,67.19-17.69,11.08-3.63,22.1-7.78,33.17-12.3,10.99-4.69,22.1-9.68,33.06-15.56,13.62-7.08,27.77-15.42,40.84-25.16,3.21-2.49,6.41-5.02,9.55-7.57,3-2.7,6.12-5.27,8.97-8.05,5.67-5.49,11.2-11.37,16.13-17.27,8.15-9.53,15.53-18.97,21.73-28.83,6.23-9.83,11.15-20.2,13.55-31.24,0,0,.09-.67.26-1.84.16-1.17.46-2.85.52-4.86.37-4.02.14-9.39-.97-14.58-1.06-5.21-3.09-10.19-4.92-13.8-1.02-1.75-1.8-3.26-2.46-4.26-.66-.99-1.04-1.56-1.04-1.56-1.19-1.76-2.69-3.42-4.1-5.18-1.56-1.67-3.07-3.44-4.8-5.09.1.13.29.38.35.48,2.5,3.84,9.03,11.63,12.67,23.86,1.84,6.07,2.46,13.25,1.5,21.17-.99,7.93-3.95,16.6-8.44,25.51-4.49,8.92-10.68,18.04-17.97,27.12-1.87,2.25-3.76,4.52-5.67,6.81-2,2.24-4.02,4.51-6.06,6.8-2.13,2.23-4.27,4.48-6.43,6.76-2.18,2.21-4.41,4.26-6.63,6.42-18.17,16.81-40.73,31.27-65.28,42.62-12.26,5.71-24.92,10.79-37.73,15.3-12.85,4.42-25.8,8.29-38.62,11.74-25.72,6.68-50.84,11.63-73.78,15.16-45.89,7.11-82.7,9.59-98.94,11.17-51.81,4.54-99.55,10.63-158.03,9.56-19.53-.4-35.92-2.61-50.93-2.31-1.52.72-9.03.86-16.59.93-38.93-2.25-77.4-9.31-107.33-10.98-10.46-.92-29.72-6.67-46.58-12.54-16.92-5.79-31.29-11.66-33.65-11-8.73,2.5-9.95,2.76-14.71.95-2.31-.97-5.52-2.32-10.88-4.57-1.28-.54-2.7-1.14-4.26-1.79-1.43-.68-3.18-1.36-4.77-2.13-.81-.39-1.66-.79-2.54-1.21-1.04-.53-2.13-1.09-3.27-1.67-2.28-1.12-4.76-2.34-7.44-3.66-5.22-2.38-23.64-7.67-33.51-13.87-4.07-2.72-7.8-5.15-11.3-7.35-3.47-2.24-6.54-4.51-9.58-6.49-3.03-1.98-5.9-3.86-8.71-5.69-2.74-1.93-5.44-3.79-8.19-5.65-5.62-3.61-11.03-7.75-17.42-12.54-3.26-2.32-6.41-5.19-9.97-8.2-1.77-1.53-3.61-3.12-5.54-4.79-1.89-1.71-3.75-3.62-5.75-5.56-12.23-11.25-20.63-21.76-27.8-30.92-3.37-4.76-6.5-9.16-9.36-13.44-2.73-4.38-5.32-8.55-7.88-12.67-9.89-16.76-18.63-32.99-33.15-59.72-.91-1.61-3.99-8.25-8.08-17.36-4.04-9.14-8.97-20.83-13.73-32.44-4.8-11.61-9.46-23.07-13.23-31.61-1.81-4.27-3.46-7.79-4.59-10.25-1.12-2.46-1.76-3.86-1.76-3.86-7.39-17.76-15.92-33.67-26.87-46.86-1.47-1.58-2.92-3.15-4.36-4.7l-2.16-2.3c-.71-.77-1.57-1.42-2.34-2.12-1.58-1.38-3.16-2.75-4.72-4.11-1.56-1.35-3.15-2.38-4.7-3.58-1.57-1.14-3.1-2.32-4.67-3.41-1.58-1.06-3.15-2.12-4.72-3.16-3.09-2.16-6.29-4.02-9.41-5.96-12.57-7.59-25.11-13.95-37.86-20.07-12.76-6.1-25.77-11.95-39.55-18.13-33.7-8.33-72.54-17.68-112.39-25.31-39.81-7.67-80.51-13.7-116.87-16.36-36.37-2.63-62.06-4.89-86.65-7.48-24.59-2.53-48.06-5.39-79.94-7.79-18.22-.89-31.89-.54-42.51-1.77-10.66-1.24-36.43,2.23-54.63,1.91,1.49-.81,3-1.63,4.5-2.44-6.11-.1-18.23-.31-24.32-.41-6.09-.08-4.57-.91-3.08-1.73,3.01-1.65,6.01-3.3-4.68-4.28-25.45-.83-51.49-1.07-78.11-.74-26.23,2.25-52.07,4.87-77.49,7.84-1.41,1.17-3.08,2.36-6.6,3.46-7.55,1.06-15.08,2.12-22.6,3.18-4.39,2.67-2.69,5.15-5.63,6.94.45,6.7-30.73,15.42-22.72,21.04,3.14,1.53,46.82-.79,66.57,1.37,4.59.73-5.83,3.51-10.17,6.15,25.55-1.46,27.17,1.09,16.79,3.82,6.02-.12,12.02-.24,12.02-.24-1.45.87-5.82,3.49-5.82,3.49,64.72-.53,136.78,3.01,199.57-.09,13.47-.44,35.91-2.14,50.89-3.12,7.47-.5,23.91,1.2,29.89,1.55,10.53-1.91,9.09-4.53,13.63-6.8,23.14,1.89,59.7,4.88,90.1,7.36,30.33,2.31,54.49,3.63,53.42-.76,18.56,1.98,29.75,2.42,41.18,2.79,11.41.45,23.05.8,42.25,3.56,25.42,3.66,54.12,8.64,83.81,15.89,29.65,7.23,60.41,16.68,88.83,29.86,3.88,1.79,7.77,3.53,11.49,5.5,1.87.97,3.77,1.89,5.61,2.89l5.46,3.06c3.68,1.98,7.08,4.3,10.62,6.42l5.07,3.46c1.7,1.14,3.37,2.3,4.96,3.55l4.83,3.67,4.11,3.68c.67.63,1.4,1.17,2.03,1.86l1.88,2.09c1.24,1.42,2.58,2.7,3.74,4.22,2.29,3.09,4.72,6.01,6.76,9.43,1.04,1.67,2.18,3.25,3.16,5l2.94,5.25c5.78,10.58,10.57,21.71,14.93,32.5,5.87,14.67,11.2,29.58,16.67,44.33,5.46,14.76,11.08,29.36,17.15,43.64,6.01,14.3,12.6,28.24,19.82,41.71,1.85,3.35,3.53,6.77,5.5,10.03,1.93,3.29,3.85,6.57,5.77,9.84,1.91,3.27,4.06,6.4,6.07,9.6,2.04,3.18,4.05,6.37,6.28,9.41,8.92,12.85,18.56,25.06,28.88,36.52-.3,3.39-1.18,6.01-3.06,7.05-.34,3.76-4.08,4.15-4.73,9.49.79,1.65,1.22,3.45,1.85,5.15l1.76,5.14,1.37,5.24c.46,1.74.97,3.45,1.25,5.24-.13,3.59-1.05,5.51-2.04,7.19,4.35,22.98,2.42,47.59-2.44,75.32-1.18,14.26-2.95,29.19-4.26,45.13-.59,8.12-1.18,16.24-1.2,25.03-.12,4.24.12,8.87.23,13.29l.53,6.94.3,3.46.49,3.59c1.43,7.9,3.17,10.83,4.12,10.92,1.03.13,1.68-2.35,2.38-4.76.34-1.2.81-2.34,1.25-2.13.24.11.45.55.73,1.53.32.99.68,2.51,1.12,4.73.43,2.22.95,4.97,1.9,8.07.87,3.08,1.77,6.41,3.16,9.75.65,1.66,1.3,3.32,1.94,4.94.65,1.62,1.52,3.15,2.24,4.64,1.51,2.96,2.84,5.66,4.23,7.66-.4-2.55-.44-5.18-.48-7.73.83,1.54,1.53,3.18,2.5,4.74.95,1.57,1.91,3.17,2.89,4.79,1.84,3.34,4.27,6.34,6.54,9.56.56.76,1.19,1.68,1.71,2.31l1.58,1.94,3.16,3.89c1.05,1.3,2.1,2.6,3.13,3.89,1.11,1.25,2.21,2.49,3.31,3.71,2.23,2.42,4.26,4.9,6.5,7.05,2.21,2.18,4.35,4.24,6.38,6.14,4.19,3.67,8.04,6.6,11.11,8.38,3.16,1.68,6.39,3.67,9.91,5.71,1.78.99,3.62,2.02,5.53,3.09.95.54,1.91,1.09,2.9,1.64,1,.51,2.03,1.03,3.06,1.57,2.08,1.06,4.23,2.15,6.45,3.28,2.27,1.01,4.62,2.05,7.04,3.13,2.41,1.12,4.98,2.02,7.61,3.02,1.32.49,2.66.98,4.02,1.48,1.38.43,2.77.87,4.18,1.31,5,1.48,9.86,2.51,14.55,3.58,4.68.87,9.22,1.77,13.59,2.35,8.77,1.32,16.93,2.07,24.66,2.68,15.48,1.19,29.32,1.72,42.92,3.2,3.44.32,6.75.84,10.18,1.29,3.33.59,6.78,1.08,10.12,1.86,6.79,1.39,13.54,3.37,20.35,6.05,6.85,2.62,13.64,6.17,20.36,10.8,1.68,1.15,3.42,2.29,5.03,3.67,1.63,1.35,3.37,2.61,4.98,4.1,1.61,1.5,3.24,3.03,4.91,4.59,1.67,1.67,3.39,3.5,5.13,5.3,13.75,14.66,27.32,31.27,39.48,49.65,12.16,18.36,22.9,38.47,31.2,59.46,8.31,20.97,14.18,42.8,16.9,64.11,2.72,21.29,2.25,42.04-1.45,60.31.43,16.21-1.84,31.62-6.49,46.03-4.66,14.39-11.83,27.81-21.75,39.45-9.9,11.64-22.55,21.47-37.98,28.37-7.72,3.43-16.13,6.12-25.18,8-4.53.93-9.22,1.69-14.07,2.21-2.43.23-4.87.55-7.39.64-2.65.16-5.33.31-8.04.47,0,0-.48,0-1.37.02-.89.01-2.21,0-3.89.12-3.37.18-8.22.47-14.1,1.48-5.87.96-12.81,2.56-20.07,5.41-7.27,2.8-14.81,6.94-21.64,12.22-6.84,5.26-12.96,11.59-17.78,18.18-4.87,6.57-8.63,13.26-11.51,19.25-5.75,12.04-8.17,21.24-9.06,23.49-6.41,18.75-8.67,34.31-9.93,47.96-1.18,13.68-1.14,25.6-.77,37.65.37,12.04,1.14,24.23,1.65,38.3.25,7.03.42,14.52.31,22.54-.14,7.94-.52,16.74-2.04,24.68-.45,2.61-1.02,4.83-1.58,6.33-1.01,3.06-1.98,5.99-2.91,8.79-.9,2.65-1.77,4.96-2.6,7.3-.82,2.29-1.75,4.6-2.58,6.76-3.4,8.72-6.62,16.09-9.76,23.24-3.12,7.13-6.16,14.06-9.56,21.82-3.31,7.72-6.96,16.25-11.4,26.6-.71,1.5-1.54,3.08-2.47,4.7-.95,1.6-2.03,3.21-3.15,4.85-2.2,3.32-4.77,6.49-7.21,9.49-2.41,3.03-4.9,5.59-6.85,7.92-2,2.25-3.63,3.99-4.46,5.3-1.7,2.65-3.65,5.01-5.24,7.27-1.59,2.19-3.05,4.19-4.38,6.04-1.31,1.72-2.5,3.29-3.59,4.72-1.15,1.45-2.19,2.75-3.14,3.94-1.96,2.45-3.53,4.41-4.82,6.02-1.37,1.63-2.44,2.9-3.33,3.97-3.77,4.12-5.28,4.38-15.75,4.94-1.46.06-5,3.28-10.2,8.2-5.22,4.9-12.13,11.51-19.86,18.43-15.45,13.81-33.82,29.01-44.78,35.03-16.01,8.01-33.71,19.26-51.14,34.49-4.33,3.85-8.67,7.87-12.85,12.29l-3.14,3.32-3.05,3.5c-1.02,1.17-2.05,2.33-3.01,3.59l-2.41,3.07c-.79.99-2.96,3.14-4.84,4.95-1.9,1.86-3.91,3.69-5.91,5.52-4.06,3.65-8.3,7.24-12.65,10.77-7.19,4.92-14.52,9.83-16.54,10.13-7.33,4.97-14.56,10.96-22.16,17.88s-15.55,14.71-24.17,23.76c-6.42,6.82-12.54,14.04-17.99,22.07-5.46,7.99-10.14,17.06-13.23,27.08-.73,2.52-1.38,5.09-1.9,7.69-.4,2.37-.79,4.73-1.18,7.08-.61,3.63-1.22,7.23-1.83,10.81-1.47,7.04-2.96,13.97-4.93,20.53-3.8,13.18-8.76,25.27-14.94,35.57-3.23,5.01-6.47,9.83-10.33,13.91-.92,1.06-1.83,2.13-2.88,3.06l-3,2.93-3.21,2.74c-1.02.96-2.27,1.73-3.38,2.62-5.79,4.39-15.76,10.73-33.41,17.94-8.79,3.7-19.47,7.73-31.76,13.37-3.11,1.53-6.23,2.93-9.5,4.72-1.62.88-3.26,1.76-4.91,2.65-1.65.99-3.32,1.99-5,3-6.68,4.17-13.58,9.02-20.01,15.05-1.64,1.46-3.25,2.96-4.76,4.61-1.54,1.63-3.08,3.22-4.62,4.93-3.01,3.76-6.52,7.72-8.59,11.58-1.18,1.95-2.36,3.91-3.54,5.89-1.1,1.94-2.03,3.84-3.05,5.78-2.08,3.81-3.8,7.88-5.58,11.95-.94,2.01-1.63,4.15-2.43,6.24-.74,2.11-1.61,4.2-2.24,6.37-1.3,4.33-2.67,8.67-3.61,13.14-1.13,4.43-1.82,8.96-2.6,13.49-.35,2.27-.56,4.55-.83,6.82l-.38,3.43-.22,3.42c-1.29,18.32.32,36.56,3.4,54.02,3.11,17.49,7.69,34.27,12.63,50.48,9.95,32.32,21.32,62.53,27.83,90.92.38,1.75.85,3.58,1.16,5.25.29,1.66.59,3.32.89,4.97.26,1.65.69,3.31.81,4.93.17,1.63.34,3.25.51,4.87.69,6.47.58,12.72.15,18.77-.97,12.09-4.65,22.98-9.86,32.46-5.24,9.49-12.15,17.49-19.37,24.1-3.54,3.39-7.37,6.21-10.91,9-3.75,2.55-7.19,5.12-10.71,7.14-1.73,1.05-3.37,2.12-5,3.07-1.66.92-3.25,1.8-4.77,2.64-3.01,1.76-5.88,3.16-8.42,4.46-5.03,2.71-9.05,4.47-11.47,5.92-.12.09-.45.25-.63.34,2.72-.88,5.41-1.76,8.04-2.62,2.59-.94,5.12-1.85,7.57-2.74,0,0,.77-.32,2.12-.87,1.32-.62,3.2-1.5,5.46-2.56,1.12-.53,2.35-1.11,3.64-1.71,1.27-.64,2.57-1.38,3.94-2.11,1.36-.74,2.77-1.5,4.2-2.27s2.79-1.7,4.2-2.54c1.39-.86,2.79-1.73,4.16-2.57,1.34-.89,2.6-1.84,3.85-2.72s2.45-1.74,3.59-2.55c1.1-.85,2.09-1.71,3.04-2.48,1.85-1.56,3.47-2.78,4.49-3.76,1.01-.97,1.59-1.53,1.59-1.53,9.33-9.48,16.63-20.26,20.97-32.2,4.36-11.93,6.19-24.75,5.89-38.36.08-2.08-.25-4.21-.36-6.34-.19-2.13-.22-4.28-.64-6.44-.34-2.16-.68-4.34-1.02-6.53-.29-2.16-.9-4.51-1.34-6.77-1.96-9.13-4.44-18.42-7.16-27.71-5.44-18.58-11.81-37.28-17.05-55.21-8.17-29.1-14.86-58.01-15.49-87.66-.22-14.78.98-29.69,4.45-44.2,3.47-14.5,9-28.54,16.35-41.55,0,0,.45-.96,1.52-2.66,1.03-1.69,2.51-4.1,4.29-7,.95-1.43,2.28-2.93,3.54-4.53,1.3-1.6,2.66-3.32,4.16-4.8,1.49-1.54,2.98-3.18,4.59-4.74,1.67-1.5,3.36-3.02,5.06-4.54,6.96-5.87,14.54-10.64,20.26-13.88,2.88-1.52,5.27-2.86,6.96-3.67,1.68-.82,2.65-1.29,2.65-1.29-10.42,5.2-20.85,11.29-30.03,19.21-4.6,4.01-8.83,8.09-12.84,12.92-1.97,2.44-4.14,4.85-5.54,7.41-1.53,2.52-3.23,5.06-4.6,7.57,0,0-.74,1.39-2.11,4.01-1.46,2.57-3.23,6.55-5.47,11.6-1.06,2.55-2.08,5.45-3.26,8.56-1.09,3.15-2.1,6.61-3.19,10.3-1.91,7.45-3.68,15.94-4.62,25.28-.9,9.32-1.13,19.43-.51,29.95.61,10.53,2.05,21.46,4.14,32.52,4.17,22.15,10.95,44.77,17.81,66.94,6.86,22.16,13.76,44,18.16,64.6.52,2.57,1.03,5.12,1.53,7.65.37,2.46.74,4.91,1.11,7.33.45,2.42.55,4.81.74,7.18.13,2.36.49,4.71.38,6.99,0,2.29-.01,4.55-.02,6.78-.12,2.21-.38,4.37-.55,6.5-.11,1.06-.14,2.14-.32,3.17-.19,1.03-.37,2.05-.55,3.06-.42,2-.6,4.04-1.18,5.92-3.82,15.31-10.81,26.73-16.68,33.89-1.42,1.83-2.9,3.32-4.06,4.7-1.19,1.37-2.21,2.52-3.16,3.36-1.82,1.74-2.79,2.67-2.79,2.67-1.94,2.16-4.25,4.02-6.47,5.99-2.17,2.03-4.67,3.73-7.07,5.56,0,0,.53-.38,1.57-1.1,1-.76,2.63-1.72,4.51-3.26,3.76-3.04,9.43-7.44,15.28-14.19,5.91-6.66,12.21-15.56,16.64-27.03,4.46-11.42,7.01-25.39,6.02-40.89-.13-1.93-.26-3.89-.39-5.86s-.53-3.97-.79-5.98c-.31-2.02-.53-4.02-.91-6.1-.41-2.09-.81-4.2-1.22-6.32-1.76-8.5-3.92-17.27-6.36-26.28-4.87-18.03-10.95-37-16.73-57-5.77-19.99-11.27-41.12-14.15-63.41-2.88-22.21-2.81-45.89,3.07-68.7,2.9-11.38,7.19-22.43,12.65-32.76,1.39-2.58,2.69-5.15,4.34-7.7l2.37-3.82,1.19-1.91c.41-.63.96-1.22,1.43-1.82,1.99-2.36,3.9-4.95,6.02-7,2.08-2.16,4.14-4.34,6.43-6.26,8.89-7.96,18.93-14.19,28.97-19.14,10.06-4.94,20.09-8.84,29.63-12.66,9.54-3.81,18.63-7.54,26.91-11.86,8.27-4.31,15.71-9.22,22.12-14.86,6.45-5.59,11.8-11.96,16.19-18.73.56-.84,1.14-1.66,1.67-2.5.5-.88.99-1.75,1.48-2.62.95-1.76,2.04-3.41,2.87-5.21,1.68-3.59,3.45-7.03,4.75-10.68,5.65-14.31,8.67-28.55,10.68-41.28.45-3.2.97-6.28,1.33-9.29.31-3.02.61-5.94.89-8.73.15-1.4.28-2.77.42-4.11.2-1.62.39-3.2.58-4.75.17-1.58.57-3.06.85-4.53.27-1.48.67-2.87,1.06-4.22,1.49-5.45,3.48-9.98,5.32-13.8,1.87-3.8,3.68-6.85,5.18-9.28,1.55-2.38,2.72-4.23,3.59-5.38.84-1.18,1.28-1.79,1.28-1.79-4.27,6.33-9,14.04-12.55,23.67-1.8,4.78-3.13,10.11-3.93,15.74-.15,1.41-.31,2.82-.46,4.26-.11,1.2-.21,2.4-.32,3.61-.22,2.43-.44,4.9-.66,7.4-.18,2.52-.54,5.02-.89,7.56-.35,2.54-.7,5.11-1.05,7.7-.43,2.57-.96,5.14-1.44,7.75s-.96,5.24-1.66,7.81c-2.3,10.47-5.83,20.78-10.34,30.49-4.55,9.7-10.39,18.62-17.42,26.14-7.01,7.53-15.12,13.71-23.69,18.59-8.53,4.93-17.33,8.8-25.62,12.27-8.3,3.46-16.1,6.55-22.89,9.53-9.36,4.08-18.76,8.72-27.57,14.58-8.83,5.87-16.88,12.91-23.71,21.33l-2.57,3.19c-.8,1.09-1.41,2.25-2.12,3.37-1.34,2.27-2.85,4.51-4.03,6.81l-3.62,6.89-3.19,7.1c-4.02,9.57-7.03,19.54-8.98,29.68-3.98,20.32-3.46,41.05-.67,61.04,2.77,20.05,7.77,39.52,13.3,58.65,5.52,19.15,11.64,38.02,16.93,57.04,5.2,19.01,10.16,38.28,10.85,57.55.2,9.66-.78,19.3-3.05,28.64-2.21,9.37-6.23,18.25-11.36,26.42-5.17,8.16-11.58,15.58-18.9,22.1-7.39,6.45-15.56,12.05-24.15,17.01-15.79,8.79-32.71,15.37-49.99,20.19-17.29,4.85-34.89,8.23-52.53,10.63-11.9,2.47-25.14,4.57-39.4,6.33-14.26,1.8-29.56,3.14-45.6,4.01-32.08,1.84-67.11,1.66-102.8-.24,57,5.66,105.93,6.31,147.21,3.34,23.06-1.96,44.06-4.9,62.02-8.6,17.97-3.68,32.92-7.87,44.07-11.73,2.81-.88,5.33-1.93,7.65-2.76,2.31-.88,4.42-1.56,6.22-2.37,3.63-1.5,6.3-2.61,7.9-3.28,3.18-1.41,2.23-.76-3.83,1.88-14.34,6.34-31.76,12.2-52.41,16.82-20.65,4.56-44.49,8.17-71.63,10.04-35.2,3.03-82.06,3.22-133.52-1.24-51.48-4.31-107.53-12.93-161.52-24.65-54.02-11.64-105.96-26.41-149.79-41.45-21.92-7.52-41.83-15.08-59.06-22.1-17.24-7-31.81-13.47-43.18-18.44,0,0,2.31,1.56,5.78,3.9,3.46,2.38,8.13,5.4,12.82,8.39,4.67,3.06,9.44,5.85,12.99,8.06,1.78,1.1,3.27,1.98,4.32,2.59s1.64.96,1.64.96c17.23,7.82,42.22,18.11,74.22,28.81,31.99,10.72,70.94,21.99,115.98,32.14,45.04,10.12,96.13,19.34,152.34,25.3,28.09,3.03,57.47,5.11,87.96,5.95,30.49.73,62.12.25,94.6-2.92,32.43-3.23,65.91-8.7,98.99-20.42l6.19-2.24,6.14-2.51c4.12-1.61,8.15-3.56,12.2-5.48,2.04-.92,4.03-1.97,6.01-3.06l5.97-3.23,5.84-3.59c1.95-1.19,3.9-2.39,5.76-3.77l5.65-4.02c1.84-1.41,3.63-2.94,5.44-4.41l2.71-2.23c.87-.79,1.72-1.62,2.58-2.43,1.7-1.64,3.44-3.24,5.1-4.92,6.53-6.92,12.38-14.63,17.24-23.05,4.62-8.55,8.28-17.67,10.6-27.14.59-2.36.94-4.76,1.41-7.15l.65-3.58.36-3.61c.22-2.4.48-4.81.65-7.22l.08-7.21c0-1.2.04-2.41.01-3.6l-.25-3.57-.5-7.15-1-7.05c-.36-2.34-.64-4.75-1.12-6.96-1.68-9.07-3.82-17.98-6.12-26.82-9.23-35.3-21.69-69.36-28.58-104.31-3.43-17.43-5.43-35.04-4.55-52.4.91-17.32,4.68-34.34,12.05-49.91,1.72-3.94,3.9-7.68,5.96-11.46,2.28-3.45,4.28-7.31,6.99-10.05.65-.75,1.24-1.51,1.92-2.25l2.19-2.19,2.18-2.2,2.36-2.03,2.35-2.04,2.5-1.88,2.51-1.87,2.65-1.73c14.16-9.27,31.23-15.1,48.95-21.94,8.86-3.44,17.94-7.2,26.83-11.94,8.88-4.72,17.57-10.5,25.34-17.48,7.79-6.96,14.58-15.07,20.25-23.75,5.59-8.74,9.94-18.01,13.69-27.39,7.03-18.88,11-38.22,13.51-57.39l.94-7.2c.33-1.75.48-3.41.98-5.12.34-1.7,1-3.38,1.51-5.07.72-1.68,1.3-3.37,2.18-5.04,3.17-6.7,7.93-13.21,13.29-19.44,10.86-12.36,24.13-23.49,37.71-34.34,13.62-10.88,27.75-21.45,41.58-33.23,3.45-2.98,6.89-6,10.29-9.2.72-.69,2.07-1.92,3.11-2.98l2.74-3.24,1.79-2.1,1.92-2.04c5.11-5.44,10.81-10.58,16.86-15.49,12.19-9.76,25.61-18.62,39.45-27.11,27.69-17.07,56.94-32.67,85-52.38,13.96-9.99,27.8-20.91,40.09-34.71,1.59-1.7,2.99-3.43,4.4-5.16,1.43-1.73,2.82-3.46,4.14-5.17l4.02-5.15,3.84-5.4c5.12-7.22,9.57-14.63,13.9-22.08,8.44-14.95,15.67-30.25,22.21-45.79,6.51-15.56,12.37-31.33,17.51-47.49l1.92-6.07,1.86-6.22.93-3.12.83-2.98,1.49-5.35c1.79-5.74,2.54-10.78,3.1-15.6.53-4.81.77-9.39.91-13.88.41-17.85-.61-34.6-1.22-51.45-.66-16.78-1.15-33.49-.66-50.09.5-16.56,1.91-33.12,5.52-48.76,3.58-15.59,9.49-30.33,18.95-41.16,2.39-2.67,4.91-5.19,7.69-7.39,2.81-2.16,5.74-4.18,8.96-5.83,6.4-3.35,13.62-5.67,21.43-6.95,1.45-.21,2.91-.42,4.38-.64,1.5-.14,3.01-.29,4.53-.43,3.41-.16,6.85-.32,10.33-.49,3.98-.11,8.02-.58,12.08-.95,4.06-.58,8.17-1.06,12.28-1.94,11.02-2.17,21.93-5.56,32.34-10.28,10.43-4.68,20.25-10.86,29.21-18.11,18.03-14.49,31.82-33.66,41.58-54.42,8.68-19.18,13.78-39.51,16.32-59.61,2.55-20.13,2.53-40.1.79-59.27-3.44-38.41-13.75-73.59-26.21-103.04-9.6-22.16-15.72-35.31-22.15-48.17-6.57-12.75-13.57-25.29-29.16-43.16,2.75-1.1-.52-7.88-8.46-17.64-1.02-1.19-2.1-2.45-3.22-3.76-1.16-1.31-2.23-2.6-3.8-4.12-2.99-2.92-6.05-6.17-9.82-9.15-7.19-6.27-16.2-12.19-26.04-17.34-9.86-5.16-20.71-9.28-31.46-12.19-10.76-2.97-21.42-4.89-31.39-6.28s-19.32-2.27-27.66-3.03c-8.36-.78-15.88-1.43-22.22-2.15-2.15-1.99-2.68-3.73-3.93-5.64-.63-.95-1.45-1.93-2.76-2.97s-3.1-2.16-5.52-3.47c-3.04-.52-8.68-1.27-14.18-2.53-1.38-.31-2.78-.61-4.13-.96-1.31-.4-2.6-.78-3.83-1.15-2.49-.72-4.56-1.65-6.12-2.48-6.21-3.37-13.48-7.91-19.93-13.13-6.47-5.22-12.38-10.79-16.78-15.18-1.3-1.22-2.5-2.65-3.74-4.01-1.25-1.36-2.5-2.72-3.77-4.09-1.22-1.45-2.45-2.91-3.68-4.38l-1.87-2.17c-.39-.41-.5-.62-.63-.84l-.44-.67c-2.56-3.47-4.29-6.76-5.78-11.37-1.46-4.58-2.51-10.61-2.87-17.96s-.11-15.83.45-24.89c1.13-18.14,3.45-38.74,4.3-60.09.4-10.75.4-21.72-.13-32.75-.57-9.25-1.53-18.49-3.02-27.67,11.28,7.55,22.88,14.51,34.75,20.87l9.53,5.06v-.12h-.01ZM183.54,145.61c-14.36,2.75-28.97,5.07-44,6.92,4.83-.64,14.21-1.92,23.56-3.43,7.69-1.19,15.3-2.55,20.44-3.5h0ZM-476.02,104.44c-.38-.57-.75-1.4-1.15-2.49,1.07.77,2.17,1.51,3.25,2.28-.55,1.48-1.29,1.64-2.1.21ZM-470.17,112.78s-.31-1.99-.77-4.99c-.09-.51-.17-1.09-.26-1.65.94.65,1.86,1.32,2.8,1.96-.67,1.77-1.4,3.69-1.78,4.68h.01Z"/>
            <path class="st22" d="M3762.27,993.75c-3.11-3.24-49.89-6.05-70.69-12.37-4.81-1.89,6.65-5.29,11.62-9.28-27.45-1.01-28.89-5.57-17.46-8.96-6.46-.58-12.89-1.17-12.89-1.17,1.65-1.32,6.65-5.31,6.65-5.31-69.29-7.75-146.54-20.48-214.55-17.54-14.56.19-38.89,2.52-55.1,4.08-8.09.77-25.78-2.24-32.25-2.79-11.45,3.45-9.96,8-14.91,12-49.97-5.78-157.96-16.41-155.16-1.4-40.32-1.94-48.62,4.73-90.61,4.13-55.63-.55-126.19-1.87-195.71-3.62-38.03-.28-74.55-1.84-111.38-3.3-13.74-.52-27.08-1.02-39.78-1.5-17.19-.68-34.09-1.44-50.67-2.38-16.55-.95-32.92-1.97-48.6-3.48-3.95-.35-7.69-.83-11.53-1.23-1.88-.22-3.58-.51-5.37-.75l-2.65-.38-2.03-.43-2-.39-2.64-.74-5.31-1.5c-3.52-1.05-6.99-2.21-10.45-3.35-13.75-4.83-26.92-10.71-39.44-17.69-6.27-3.47-12.37-7.23-18.38-11.14-5.98-3.99-11.87-8.1-17.65-12.46-11.6-8.69-22.82-18.1-34.5-27.84-5.84-4.87-11.85-9.83-18.24-14.75-6.4-4.92-13.18-9.83-20.87-14.41-7.67-4.55-16.35-8.81-26.33-11.63-2.47-.69-5.15-1.24-7.63-1.77l-5.94-.91-11.89-1.79-22.71-2.68c-7.57-.89-14.98-1.53-22.48-2.3-14.99-1.53-29.88-2.76-44.88-4.06-29.96-2.5-60.1-4.71-90.72-6.7-61.25-3.96-124.44-7.01-191.78-9.18-67.86-2.23-136.53-5.51-204.68-10.89-8.53-.65-16.99-1.5-25.48-2.25l-12.72-1.18c-4.25-.39-8.39-.93-12.58-1.38l-12.54-1.44-6.27-.72-5.99-.96c-8.04-1.37-16.07-3.04-23.83-5.09-15.49-4.13-30.45-9.82-42.31-18.25-5.89-4.21-10.91-9.09-14.61-14.58-3.74-5.48-6.08-11.64-7.23-18.28-2.27-13.34.6-28.44,5.62-43,5.05-14.64,12.16-28.98,19.91-42.97,15.63-28.03,33.97-54.7,51.28-82.02,8.65-13.69,17.14-27.53,24.68-42.28,3.77-7.41,7.26-14.97,10.27-23.21l1.15-3.3,1.13-3.59c.71-2.41,1.4-4.83,1.94-7.29,1.12-4.89,1.89-9.85,2.16-14.81.55-9.9-1.03-19.92-5.4-28.75-4.34-8.84-11.32-16.12-19.44-21.53-8.08-5.51-17.42-9.3-26.81-12.05l-3.33-.91-1.66-.45-1.52-.36c-2.02-.48-4.05-.97-6.05-1.35-4.02-.83-7.99-1.51-11.92-2.07-15.75-2.27-30.93-2.96-45.76-3.16-7.4-.06-14.72-.02-21.94.2-3.47.08-6.93.16-10.37.23-3.33.08-6.64.13-9.91.07-13.11-.06-25.84-.77-37.86-2.37-6.03-.74-11.79-1.88-17.36-3.1-5.44-1.39-10.8-2.81-15.47-4.75-1.24-.42-2.33-.95-3.45-1.45-1.07-.5-2.36-.99-3.06-1.46l-2.47-1.34-2.17-1.4c-2.8-1.96-5.28-4.25-7.19-6.89-1.93-2.63-3.23-5.63-3.84-8.71-.6-3.08-.5-6.21.03-9.16.55-2.98,1.47-5.66,2.75-8.37.21-.58.71-1.57,1.16-2.48.44-.91.85-1.82,1.4-2.74l1.53-2.75,1.69-2.74c4.64-7.3,10.44-14.33,16.6-20.84,12.5-13.02,26.47-23.99,40.06-33.22,13.67-9.2,27.04-16.69,39.44-22.88,24.91-12.3,45.82-19.42,60.35-24.01,0,0,.5-.26,1.38-.72.88-.44,2.14-1.06,3.66-1.82,3.02-1.55,7.11-3.44,11.22-5.36,8.24-3.74,16.7-7.11,16.7-7.11-20.11,1.41-52.38,8.26-88.52,24.52-18.02,8.11-36.95,18.53-55.16,31.49-9.11,6.46-17.99,13.6-26.33,21.37-8.36,7.74-16.13,16.2-22.71,25.2-3.33,4.49-6.21,9.15-8.69,13.85-.64,1.17-1.24,2.35-1.75,3.54-.54,1.17-1.15,2.42-1.48,3.39-.86,2.06-1.58,4.1-2.15,6.21-1.15,4.21-1.72,8.65-1.36,13.05.34,4.4,1.68,8.73,3.89,12.56,2.22,3.84,5.32,7.12,8.81,9.83,3.56,2.75,7.23,4.77,11.82,6.85,4.7,2.18,9.92,3.75,15.1,5.27,5.28,1.35,10.63,2.55,16.07,3.41,21.75,3.55,43.61,3.74,63.6,3.18,20.87-.68,39.99-.24,56.52,1.52,6.37.53,12.58,1.34,18.6,2.33,3.01.48,5.98,1.09,8.91,1.7,2.91.68,5.77,1.35,8.78,2.23,12.16,3.46,23.18,8.67,31.25,15.99,8.18,7.25,12.82,16.92,14.04,26.17,1.26,9.3-.11,18.02-2.19,25.61-1.85,6.4-2.41,7.39-1.45,4.06.45-1.67,1.25-4.45,2-8.31s1.5-8.82,1.42-14.76c-.13-5.9-1.22-12.9-4.78-19.81-3.51-6.91-9.55-13.41-17.52-18.42-3.98-2.52-8.4-4.72-13.16-6.64-4.75-1.95-9.99-3.52-14.89-4.8-9.79-2.55-20.18-4.21-31.01-5.37-9.69-.85-19.78-1.26-30.28-1.32-5.25-.02-10.6.03-16.05.16-5.36.16-10.84.33-16.43.51-10.88.3-22.19.31-33.78-.43-11.57-.76-23.54-2.02-35.25-4.78,7.21,2.15,14.67,3.99,22.28,5.29,3.78.75,7.62,1.21,11.43,1.82,3.84.43,7.65.98,11.48,1.32,7.65.74,15.27,1.28,22.81,1.58,7.46.34,15.16.47,22.55.88,14.83.78,29,2.08,42.09,4.26,6.54,1.09,12.83,2.32,18.74,3.88,5.91,1.53,11.54,3.32,16.47,5.32,7.45,2.23,14.77,5.25,21.05,9.9,3.13,2.32,5.96,5.07,8.24,8.23,2.28,3.17,3.96,6.77,4.98,10.54,2.07,7.58,1.54,15.64-.1,23.26-.83,3.84-1.92,7.56-3.22,11.31-1.3,3.78-2.85,7.66-4.52,11.42-7.36,16.66-16.83,32.46-26.48,48.04-9.71,15.57-19.83,30.91-29.7,46.42-9.86,15.52-19.55,31.19-28.29,47.52-8.67,16.34-16.6,33.32-21.46,51.78-2.35,9.23-3.89,18.86-3.73,28.77.15,9.87,2.25,20.05,6.71,29.24,4.43,9.21,11.04,17.23,18.62,23.62,7.59,6.43,16.03,11.48,24.71,15.6,8.69,4.16,17.66,7.41,26.7,10.13,9.06,2.72,18.19,4.91,27.41,6.77l6.97,1.32,6.86,1.01,13.74,2.04c9.19,1.45,18.3,2.52,27.46,3.75,26.55,3.67,68.83,7.86,110.91,12,42.07,4.05,83.92,8.03,109.6,11.32,0,0-10.09-.83-27.76-2.27-17.67-1.51-42.91-3.65-73.21-6.23-30.29-2.64-65.64-5.95-103.53-9.91-9.48-1.08-19.12-2.18-28.88-3.29-4.86-.52-9.81-1.19-14.79-1.86-4.97-.67-9.96-1.34-14.97-2.01-2.52-.36-4.99-.62-7.56-1.07-2.58-.47-5.17-.95-7.75-1.42-5.11-1.01-10.23-2.11-15.34-3.37-10.23-2.54-20.49-5.65-30.57-9.75-5.04-2.07-10.03-4.41-14.94-7.03-4.89-2.69-9.68-5.7-14.26-9.15-9.15-6.83-17.44-15.82-22.97-26.5-5.61-10.65-8.03-22.6-8.14-33.77-.14-11.24,1.76-21.83,4.44-31.7,5.46-19.76,13.82-36.95,22.2-52.68,8.46-15.71,17.18-29.9,25.31-42.86,16.34-25.83,30.08-46.87,38.84-61.91,8.84-15.01,13.04-23.78,13.04-23.78-2.73,4.95-5.67,9.81-8.72,14.53,0,0-2.56,4.5-7.34,12.31s-11.87,18.89-20.61,32.22c-8.71,13.34-19.07,28.92-29.67,46.24-10.53,17.35-21.47,36.37-29.88,57.5-4.16,10.57-7.68,21.7-9.56,33.5-1.88,11.74-1.97,24.35,1.09,36.48,2.96,12.14,9.26,23.2,16.74,31.6,3.71,4.26,7.71,7.88,11.71,11.05,3.99,3.21,8.02,5.88,11.94,8.26,7.86,4.71,15.29,8.09,21.89,10.75,6.61,2.68,12.42,4.55,17.2,6.03,4.79,1.45,8.55,2.45,11.12,3.11.83.23,1.52.4,2.09.55-5.89-1.38-11.78-2.91-17.65-4.73-6.49-1.98-12.97-4.21-19.41-6.95-12.83-5.44-25.85-12.57-37.3-23.63-5.69-5.51-10.8-12.14-14.81-19.53-3.93-7.43-6.74-15.62-8.06-23.85-1.42-8.25-1.51-16.48-.82-24.43.7-7.96,2.26-15.63,4.25-23.09,5.27-18.36,13.94-35.73,23.28-52.14,9.37-16.4,19.51-31.89,28.7-46.34,15.15-23.46,31.12-43.26,45.1-64.91,0,0,6.34-10.72,11.5-21.67,2.57-5.42,4.89-11.1,6.25-15.01.71-1.97,1.15-3.39,1.48-4.5.31-1.08.49-1.7.49-1.7.76-3.91,1.28-8.12,1.37-12.44-.04.15-.12.44-.18.55-.81,2.17-1.84,5.43-3.48,9.38-.79,1.98-1.78,4.11-2.85,6.38-1.17,2.39-2.62,5.46-4.32,8.68-6.73,12.91-17.38,29.37-30.7,48.32-13.27,19-29.21,40.45-45.35,64.84-8.05,12.22-16.15,25.22-23.66,39.42-7.47,14.24-14.5,29.67-19.11,47.61-2.24,9-3.82,18.67-3.92,29.09-.02,5.21.32,10.58,1.15,16.02.87,5.45,2.26,10.94,4.15,16.3,3.81,10.75,9.9,20.76,17.03,28.9,3.53,4.17,7.36,7.72,11.22,11.11,3.89,3.24,7.87,6.28,11.86,8.87,16.05,10.54,32.02,16.72,47.1,21.51,7.57,2.4,14.93,4.27,22.11,5.95,6.98,1.61,14.81,3.18,21.02,4.04,13.04,2,25.56,3.98,36.68,5.3,11.23,1.41,21.69,2.83,30.98,3.79,18.63,1.99,33.17,3.46,42.07,3.93,56.87,3.66,109.09-1.42,172.05,2.22,21.04,1.22,38.59,4.92,54.85,4.02,1.69-1.26,9.82-1.72,17.99-2.18,41.89,2.32,83.42,10.52,115.89,8.73,22.71-.1,83.71,27.15,88.74,23.49,9.39-6.89,10.68-7.82,16.2-6.33,5.54,1.47,15.28,5.47,41.38,8.59,3.1.5,9.86-.27,17.44-.9,1.9-.14,3.85-.29,5.79-.43,1.84-.09,3.64-.12,5.43-.12,3.56.01,6.98.22,9.87.79,1.45.28,1.76.57,2.45.8.61.22,1.23.43,1.87.76.64.28,1.26.54,1.87.81.65.34,1.28.64,1.91.93,1.26.6,2.57,1.35,3.85,1.97,1.33.81,2.57,1.36,3.91,2.2,5.26,3.03,10.55,6.28,16.26,9.89,5.72,3.62,11.88,7.65,19.17,12.7,7.31,5.04,15.74,11.15,26.36,18.78,16.13,10.89,29.61,19.63,41.64,26.85,12.04,7.23,22.6,13.09,33.28,18.16,10.68,5.06,21.51,9.34,34.23,12.61,3.15.9,6.48,1.52,9.9,2.25,1.78.35,3.24.7,5.7,1.02,1.12.15,2.26.31,3.4.46,1.1.13,2.42.34,3.31.35,7.96.49,15.87.43,24.45-.05,4.26-.05,32.57.21,59.56-.14,26.97-.39,52.94-.77,52.94-.77,80.79,4.71,131.07-1.38,193.74,11.42,72.95-7.01,169.51,7.02,247.03,7.69,77.55.68,109.65,9.34,177.23,18.11,19.33,1.67,33.87,1.44,45.09,3.9,11.25,2.47,38.85-2.53,58.17-.83-1.65,1.33-3.3,2.66-4.96,3.99,6.48.57,19.33,1.69,25.79,2.26,6.46.58,4.78,1.9,3.12,3.24-3.33,2.67-6.63,5.33,4.61,7.79,26.89,3.29,54.41,6.07,82.59,8.37,27.97-1.1,55.58-2.42,82.8-4.05,1.65-1.85,3.55-3.68,7.42-5.09,8.12-.73,16.22-1.47,24.3-2.2,4.99-3.97,3.53-8.54,6.89-11.2.41-11.76,34.7-21.92,27.01-32.96v.02h-.01ZM1806.14,809.96c-5.58-.81-13-1.89-20.44-2.97-3.74-.57-7.37-1.01-10.96-1.66-3.62-.69-7.03-1.32-9.84-1.95-2.84-.6-5.2-1.11-6.86-1.53-1.65-.4-2.6-.62-2.6-.62,5,1.16,9.91,2.17,15.01,3.13,5.19,1.04,10.05,1.66,14.99,2.37,9.86,1.39,19.94,3.07,29.89,4.39,0,0-3.68-.46-9.19-1.16h0Z"/>
          </g>
        </g>
        <g>
          <path class="st1" d="M999.16,574.89v12.28h-13.81v-12.28h-20.07l4.12-12.19,14.76-13.37-1.72-2.09-9.2,4.11,3.77-11.16,14.43-13.06-1.74-2.08-8.92,3.96,11.8-34.88,13.66,40.39,1.24,3.65-7.84-3.49-1.72,2.08,13.1,11.86,4.19,12.39-10.1-4.5-1.73,2.08,15.82,14.34-.05-.25.74,2.2h-20.74.01,0ZM1070.62,472.58l17.06,49.93,1.53,4.53-9.77-4.31-2.16,2.58,16.36,14.67,5.25,15.32-12.63-5.55-2.16,2.57,19.79,17.74-.07-.29.92,2.69h-27.7v16.36h-13.66v-16.36h-26.89l5.14-15.06,18.45-16.55-2.15-2.57-11.49,5.06,4.72-13.79,18.01-16.14-2.15-2.58-11.15,4.91,14.76-43.16h-.01Z"/>
          <path class="st5" d="M1048.33,578.14h-12.28v10.68h12.28v-10.68h0ZM1036.71,492.62c-10.39,0-18.85,8.29-18.85,18.53,0,2.66.57,5.18,1.6,7.48-4.59,2.88-7.64,7.94-7.64,13.7,0,6.95,4.44,12.88,10.68,15.21-.2.93-.32,1.9-.32,2.91,0,6.48,4.56,11.91,10.68,13.38l2.68-7.89,1.26-3.77c5.81-17.16,10.88-32.16,16.73-49.42-3.12-6.03-9.48-10.13-16.82-10.13h0Z"/>
        </g>
        <g>
          <path class="st1" d="M1569.14,574.89v12.28h-13.81v-12.28h-20.07l4.12-12.19,14.77-13.37-1.73-2.09-9.21,4.11,3.76-11.16,14.42-13.06-1.72-2.08-8.91,3.96,11.79-34.88,13.66,40.39,1.25,3.65-7.84-3.49-1.72,2.08,13.1,11.86,4.19,12.39-10.09-4.5-1.73,2.08,15.82,14.34-.04-.25.73,2.2h-20.74ZM1640.59,472.58l17.08,49.93,1.52,4.53-9.77-4.31-2.16,2.58,16.37,14.67,5.24,15.32-12.63-5.55-2.15,2.57,19.79,17.74-.06-.29.92,2.69h-27.71v16.36h-13.65v-16.36h-26.88l5.13-15.06,18.45-16.55-2.16-2.57-11.49,5.06,4.7-13.79,18.03-16.14-2.15-2.58-11.15,4.91,14.75-43.16h-.02,0Z"/>
          <path class="st5" d="M1618.3,578.14h-12.28v10.68h12.28v-10.68h0ZM1606.69,492.62c-10.41,0-18.86,8.29-18.86,18.53,0,2.66.58,5.18,1.59,7.48-4.59,2.88-7.64,7.94-7.64,13.7,0,6.95,4.44,12.88,10.69,15.21-.2.93-.32,1.9-.32,2.91,0,6.48,4.56,11.91,10.67,13.38l2.68-7.89,1.28-3.77c5.8-17.16,10.87-32.16,16.72-49.42-3.11-6.03-9.48-10.13-16.8-10.13h-.01Z"/>
        </g>
        <g>
          <path class="st2" d="M1572.05,5.24v12.28h-13.81V5.24h-20.07l4.12-12.18,14.75-13.37-1.72-2.09-9.19,4.1,3.76-11.15,14.42-13.06-1.73-2.08-8.92,3.96,11.8-34.88,13.66,40.39,1.25,3.65-7.84-3.49-1.73,2.08,13.1,11.87,4.19,12.39-10.1-4.5-1.72,2.09,15.83,14.34-.06-.25.75,2.19h-20.74ZM1643.51-97.06l17.05,49.94,1.53,4.53-9.78-4.32-2.15,2.58,16.35,14.66,5.24,15.33-12.63-5.56-2.15,2.57,19.78,17.73-.07-.29.92,2.7h-27.71v16.36h-13.65V2.81h-26.88l5.13-15.06,18.45-16.55-2.15-2.57-11.49,5.06,4.72-13.78,18.01-16.15-2.15-2.57-11.15,4.91,14.77-43.16h.01Z"/>
          <path class="st2" d="M1621.22,8.5h-12.28v10.68h12.28v-10.68h0ZM1609.6-77.03c-10.4,0-18.85,8.3-18.85,18.54,0,2.66.57,5.18,1.6,7.48-4.6,2.88-7.65,7.94-7.65,13.7,0,6.95,4.44,12.88,10.68,15.21-.19.93-.31,1.9-.31,2.91,0,6.48,4.56,11.91,10.66,13.38l2.68-7.88,1.27-3.77c5.8-17.17,10.88-32.16,16.72-49.42-3.11-6.02-9.47-10.14-16.81-10.14h.01Z"/>
        </g>
        <path class="st14" d="M1666.09,155.46h-.7l-.57.57h-15.16l16.43,29.22h-.7l-.57.57h-23.4v21.58l-1.37,1.26h-22.14l-1.26-1.26v-21.58h-24.66c.31-1.97,5.81-11.92,16.45-29.79h-16.45v-1.26l36.77-62.66h1.25l36.08,63.35h0ZM1593.82,145.99v.56c0,1.29-1.67,5.1-5,11.42h11.39l.57.68c.7,1.67,1.34,2.52,1.95,2.52l-15.19,26.6h15.88l4.34,3.76-1.26,1.25h-16.43v14.62l-1.24,1.26h-15.21l-1.25-1.26v-14.62h-17.81l-.57-.57,12-20.89h-11.43l-.57-.68,26.6-46.24c1.07.53,5.48,7.73,13.24,21.58h-.01,0Z"/>
        <g>
          <path class="st0" d="M813.14,717.14v50.13h-9.44v12.08h98.91v-12.08h-10.95v-50.13l-40.81-22.64-37.71,22.64h0Z"/>
          <path class="st4" d="M873.82,678.89h13.23v14.06l24.63,14.3-6.08,10.48-54.34-31.53-53.1,33.2-6.41-10.31,56.19-35.12,3.09-1.92,3.15,1.83,19.65,11.4v-6.39h-.01Z"/>
          <g>
            <rect class="st23" x="835.21" y="719.79" width="14.25" height="14.26"/>
            <rect class="st23" x="855.16" y="719.79" width="14.25" height="14.26"/>
            <rect class="st23" x="835.21" y="739.73" width="14.25" height="14.25"/>
            <rect class="st23" x="855.16" y="739.73" width="14.25" height="14.25"/>
          </g>
        </g>
        <g>
          <path class="st0" d="M817.27,905.65v50.14h-9.44v12.07h98.9v-12.07h-10.93v-50.14l-40.82-22.64-37.7,22.64h-.01Z"/>
          <path class="st4" d="M877.94,867.39h13.24v14.06l24.61,14.29-6.07,10.49-54.33-31.54-53.11,33.2-6.4-10.31,56.19-35.11,3.08-1.92,3.16,1.83,19.64,11.4v-6.39h0Z"/>
          <g>
            <rect class="st23" x="839.33" y="908.29" width="14.27" height="14.26"/>
            <rect class="st23" x="859.27" y="908.29" width="14.26" height="14.26"/>
            <rect class="st23" x="839.33" y="928.24" width="14.27" height="14.25"/>
            <rect class="st23" x="859.27" y="928.24" width="14.26" height="14.25"/>
          </g>
        </g>
        <g>
          <path class="st0" d="M623,529.66v50.14h-9.44v12.07h98.91v-12.07h-10.94v-50.14l-40.81-22.64-37.71,22.64h-.01,0Z"/>
          <path class="st4" d="M683.67,491.4h13.23v14.06l24.63,14.3-6.07,10.49-54.34-31.53-53.11,33.19-6.41-10.31,56.19-35.12,3.09-1.92,3.16,1.83,19.64,11.4v-6.39h-.01Z"/>
          <g>
            <rect class="st23" x="645.06" y="532.29" width="14.26" height="14.27"/>
            <rect class="st23" x="665.01" y="532.29" width="14.25" height="14.27"/>
            <rect class="st23" x="645.06" y="552.25" width="14.26" height="14.25"/>
            <rect class="st23" x="665.01" y="552.25" width="14.25" height="14.25"/>
          </g>
        </g>
        <g>
          <rect class="st19" x="1006.73" y="670.29" width="65.16" height="11.77"/>
          <rect class="st19" x="1032.28" y="680.55" width="14.05" height="97.67"/>
        </g>
        <g>
          <path class="st0" d="M436.67,715.93v50.13h-9.44v12.07h98.9v-12.07h-10.93v-50.13l-40.83-22.64-37.7,22.64h0Z"/>
          <path class="st4" d="M497.34,677.68h13.24v14.06l24.62,14.3-6.08,10.49-54.33-31.53-53.11,33.2-6.4-10.3,56.19-35.12,3.08-1.92,3.16,1.83,19.64,11.4v-6.39h0v-.02h0Z"/>
          <g>
            <rect class="st23" x="458.73" y="718.58" width="14.27" height="14.26"/>
            <rect class="st23" x="478.67" y="718.58" width="14.26" height="14.26"/>
            <rect class="st23" x="458.73" y="738.52" width="14.27" height="14.25"/>
            <rect class="st23" x="478.67" y="738.52" width="14.26" height="14.25"/>
          </g>
        </g>
        <g>
          <rect class="st19" x="248.99" y="484.17" width="65.16" height="11.78"/>
          <rect class="st19" x="274.54" y="494.44" width="14.05" height="97.67"/>
        </g>
        <g>
          <rect class="st19" x="820.62" y="291.42" width="65.16" height="11.77"/>
          <rect class="st19" x="846.17" y="301.68" width="14.05" height="97.67"/>
        </g>
        <g>
          <rect class="st19" x="627.86" y="863.05" width="65.15" height="11.77"/>
          <rect class="st19" x="653.41" y="873.31" width="14.05" height="97.67"/>
        </g>
        <g>
          <path class="st13" d="M283.24,487.05c-.56-.96-1.12-1.91-1.67-2.87,1.09-.19,2.19-.38,3.28-.57"/>
          <path class="st11" d="M291.34,482.47c311.96-55.11,520.14-168.55,556.55-189.4"/>
          <path class="st13" d="M850.74,291.42c1.9-1.1,2.86-1.69,2.86-1.69,0,0,.31,1.09.94,3.18"/>
          <path class="st12" d="M856.48,299.25c12.99,41.56,70.19,211.93,178.95,364.37"/>
          <path class="st13" d="M1037.36,666.32c.65.9,1.29,1.8,1.94,2.7-.79.78-1.58,1.55-2.38,2.32"/>
          <path class="st10" d="M1032.11,675.95c-153.24,145.01-370.56,187.09-370.56,187.09,0,0-221.65-110.28-376.63-373.13"/>
        </g>
        <path class="st24" d="M635.43,7.54c435.76,4.83,513.33,194.51,865,205.79H93.94C227.16,118.31,383.99,4.75,635.43,7.54Z"/>
        <g>
          <path class="st2" d="M816.05,197.51v12.28h-13.81v-12.28h-20.08l4.13-12.18,14.76-13.37-1.73-2.09-9.19,4.1,3.77-11.15,14.43-13.06-1.73-2.08-8.93,3.96,11.81-34.88,13.66,40.39,1.24,3.65-7.83-3.49-1.73,2.08,13.11,11.87,4.18,12.39-10.1-4.5-1.73,2.08,15.83,14.34-.05-.25.74,2.19h-20.75ZM887.51,95.21l17.06,49.93,1.53,4.53-9.77-4.32-2.16,2.59,16.36,14.66,5.25,15.34-12.63-5.56-2.15,2.57,19.78,17.74-.06-.29.92,2.69h-27.71v16.36h-13.66v-16.36h-26.88l5.14-15.06,18.44-16.55-2.15-2.57-11.49,5.06,4.71-13.79,18.03-16.15-2.16-2.58-11.15,4.91,14.75-43.16h0Z"/>
          <path class="st2" d="M865.22,200.77h-12.29v10.68h12.29v-10.68h0ZM853.6,115.24c-10.4,0-18.85,8.3-18.85,18.54,0,2.66.57,5.18,1.6,7.48-4.6,2.88-7.65,7.95-7.65,13.7,0,6.95,4.44,12.89,10.69,15.21-.2.93-.31,1.9-.31,2.91,0,6.48,4.56,11.9,10.66,13.39l2.68-7.89,1.28-3.77c5.79-17.17,10.88-32.16,16.72-49.42-3.12-6.02-9.49-10.14-16.81-10.14h0Z"/>
        </g>
        <g>
          <path class="st2" d="M444.51,197.51v12.28h-13.81v-12.28h-20.08l4.13-12.18,14.76-13.37-1.73-2.09-9.19,4.1,3.77-11.15,14.43-13.06-1.73-2.08-8.93,3.96,11.81-34.88,13.66,40.39,1.24,3.65-7.83-3.49-1.73,2.08,13.11,11.87,4.18,12.39-10.1-4.5-1.73,2.08,15.83,14.34-.05-.25.74,2.19h-20.75,0ZM515.97,95.21l17.06,49.93,1.53,4.53-9.77-4.32-2.16,2.59,16.36,14.66,5.25,15.34-12.63-5.56-2.15,2.57,19.78,17.74-.06-.29.92,2.69h-27.71v16.36h-13.66v-16.36h-26.88l5.14-15.06,18.44-16.55-2.15-2.57-11.49,5.06,4.71-13.79,18.03-16.15-2.16-2.58-11.15,4.91,14.75-43.16h0Z"/>
          <path class="st2" d="M493.68,200.77h-12.29v10.68h12.29v-10.68h0ZM482.06,115.24c-10.4,0-18.85,8.3-18.85,18.54,0,2.66.57,5.18,1.6,7.48-4.6,2.88-7.65,7.95-7.65,13.7,0,6.95,4.44,12.89,10.69,15.21-.2.93-.31,1.9-.31,2.91,0,6.48,4.56,11.9,10.66,13.39l2.68-7.89,1.28-3.77c5.79-17.17,10.88-32.16,16.72-49.42-3.12-6.02-9.49-10.14-16.81-10.14h-.01Z"/>
        </g>
      </g>
    </g>
  </g>
  <g id="Layer_1-26">
    <g class="st18">
      <rect class="st16" x="-10380.82" y="1016" width="11627.83" height="1613.34"/>
    </g>
  </g>
</svg>