<?xml version="1.0" encoding="UTF-8"?>
<svg id="Layer_1" xmlns="http://www.w3.org/2000/svg" width="1920" height="1080" xmlns:xlink="http://www.w3.org/1999/xlink" version="1.1" viewBox="0 0 1920 1080">
  <!-- Generator: Adobe Illustrator 29.7.1, SVG Export Plug-In . SVG Version: 2.1.1 Build 8)  -->
  <defs>
    <style>
      .st0 {
        fill: #b37d4f;
      }

      .st0, .st1, .st2, .st3, .st4, .st5, .st6, .st7, .st8, .st9, .st10, .st11, .st12, .st13 {
        fill-rule: evenodd;
      }

      .st14, .st15, .st16, .st17, .st18 {
        fill: none;
      }

      .st19, .st13 {
        fill: #d39c6b;
      }

      .st1, .st20 {
        fill: #fff;
      }

      .st15 {
        stroke-dasharray: 4.25 4.25;
      }

      .st15, .st16, .st17, .st18 {
        stroke: #ff0;
        stroke-miterlimit: 10;
        stroke-width: 2.14px;
      }

      .st2 {
        fill: #986334;
      }

      .st3, .st21 {
        fill: #38a429;
      }

      .st4, .st22 {
        fill: #7a6356;
      }

      .st5, .st23 {
        fill: #009536;
      }

      .st24, .st8 {
        fill: #c1021d;
      }

      .st25 {
        fill: #00afeb;
      }

      .st6 {
        fill: #ffea00;
      }

      .st7 {
        isolation: isolate;
        opacity: .6;
      }

      .st7, .st11 {
        fill: #7d471a;
      }

      .st26 {
        clip-path: url(#clippath-1);
      }

      .st9 {
        fill: #218e2a;
      }

      .st16 {
        stroke-dasharray: 4.29 4.29;
      }

      .st27 {
        fill: #915a2f;
      }

      .st17 {
        stroke-dasharray: 4.27 4.27;
      }

      .st28 {
        fill: #50a835;
      }

      .st10 {
        fill: #4f4e53;
      }

      .st29 {
        fill: #5dae42;
      }

      .st30 {
        fill: #50a825;
      }

      .st31 {
        fill: #2fbbed;
      }

      .st12 {
        fill: #cbcbcb;
      }

      .st32 {
        fill: #6bb24d;
      }

      .st33 {
        fill: #00a2e8;
      }

      .st34 {
        clip-path: url(#clippath);
      }

      .st35 {
        fill: #90bf5f;
      }
    </style>
    <clipPath id="clippath">
      <rect class="st14" width="1920" height="1080"/>
    </clipPath>
    <clipPath id="clippath-1">
      <rect class="st14" y="-3.45" width="1920" height="1366.7"/>
    </clipPath>
  </defs>
  <g id="Layer_1-21">
    <g class="st34">
      <g>
        <g class="st26">
          <g>
            <rect class="st33" x="-2003.6" y="-214.94" width="5880.57" height="2595.53"/>
            <path class="st25" d="M3792.74,1061.52c0,714.52-1251.43,1293.73-2795.15,1293.73S-1797.56,1776.04-1797.56,1061.52-546.13-232.23,997.59-232.23,3792.74,346.99,3792.74,1061.52Z"/>
            <path class="st31" d="M3442.28,897.18c0,626.12-1096.61,1133.67-2449.34,1133.67S-1456.41,1523.3-1456.41,897.18-359.8-236.51,992.94-236.51,3442.28,271.06,3442.28,897.18Z"/>
            <g>
              <path class="st35" d="M951.49,1783.05c-295.5,0-582.15-26.78-851.98-79.61-129.67-25.38-254.73-56.8-371.7-93.38-115.84-36.22-224.75-77.81-323.73-123.62-98.93-45.79-188.73-96.16-266.91-149.72-78.86-54.03-146.57-111.76-201.26-171.61-55.61-60.85-98.31-124.51-126.9-189.19-29.29-66.26-44.15-134.43-44.15-202.64s14.85-136.37,44.15-202.63c28.6-64.68,71.3-128.33,126.91-189.19,54.69-59.85,122.41-117.58,201.27-171.61,78.18-53.56,167.99-103.94,266.92-149.73C-496.91,14.31-387.99-27.29-272.15-63.51-155.17-100.09-30.12-131.51,99.55-156.89c269.83-52.83,556.47-79.61,851.94-79.61h0c295.49,0,582.14,26.78,851.98,79.61,129.67,25.38,254.73,56.8,371.7,93.38,115.83,36.22,224.75,77.81,323.73,123.62,98.93,45.79,188.73,96.16,266.91,149.73,78.86,54.03,146.57,111.76,201.26,171.61,55.61,60.86,98.31,124.51,126.91,189.19,29.29,66.26,44.15,134.44,44.15,202.64s-14.85,136.38-44.15,202.64c-28.6,64.68-71.29,128.34-126.91,189.19-54.69,59.84-122.4,117.58-201.26,171.61-78.18,53.56-167.98,103.94-266.91,149.72-98.97,45.81-207.89,87.4-323.73,123.62-116.98,36.58-242.03,67.99-371.7,93.38-269.83,52.82-556.48,79.61-851.98,79.61Z"/>
              <path class="st30" d="M951.49-232.23c148.38,0,296.67,6.92,440.74,20.56,140.39,13.3,278.47,33.14,410.42,58.97,129.51,25.36,254.42,56.73,371.25,93.26,115.66,36.17,224.4,77.69,323.21,123.43,98.71,45.69,188.3,95.94,266.29,149.37,78.59,53.84,146.05,111.36,200.52,170.97,55.3,60.51,97.74,123.78,126.15,188.04,29.05,65.71,43.78,133.3,43.78,200.91s-14.73,135.2-43.78,200.91c-28.41,64.26-70.85,127.52-126.15,188.03-54.47,59.6-121.93,117.12-200.52,170.96-77.98,53.43-167.58,103.68-266.29,149.37-98.81,45.73-207.55,87.26-323.21,123.42-116.83,36.53-241.73,67.91-371.25,93.26-131.94,25.83-270.03,45.67-410.42,58.97-144.07,13.65-292.35,20.56-440.74,20.56s-296.67-6.92-440.74-20.56c-140.39-13.3-278.47-33.14-410.42-58.97-129.51-25.35-254.42-56.73-371.25-93.26-115.66-36.17-224.4-77.69-323.21-123.42-98.71-45.69-188.3-95.94-266.29-149.37-78.59-53.84-146.05-111.36-200.52-170.96-55.3-60.51-97.74-123.78-126.15-188.03-29.05-65.71-43.78-133.3-43.78-200.91s14.73-135.2,43.78-200.91c28.41-64.26,70.85-127.52,126.15-188.04,54.47-59.6,121.93-117.13,200.52-170.97,77.98-53.43,167.58-103.68,266.29-149.37C-495.32,18.26-386.57-23.26-270.92-59.43-154.09-95.96-29.18-127.34,100.33-152.7c131.94-25.83,270.03-45.67,410.42-58.97,144.07-13.64,292.36-20.56,440.74-20.56M951.49-240.79c-1210.01,0-2190.91,454.01-2190.91,1014.07S-258.52,1787.33,951.49,1787.33s2190.91-454,2190.91-1014.06S2161.49-240.79,951.49-240.79h0Z"/>
            </g>
            <path class="st31" d="M-242.34,1369.66c14.63,6.48,37.61,16.48,65.88,26.12,28.24,9.69,61.71,19.21,96.51,26.71,34.79,7.55,70.91,13.11,104.08,15.88,33.15,2.87,63.35,2.76,86.03.81,34.97-2.45,61.45-9.05,79.92-17.29,3.9-1.7,4.52-2.12,2.47-1.21-2.07.84-6.84,2.95-14.03,5.41-14.34,5.02-38.61,10.72-68.36,13.09-26.6,1.91-58.13,1.49-94.85-2.16,45.98,2.63,90.32-.09,121.01-6.5,22.63-3.15,45.64-8.47,66.07-19.84,5.54-3.19,10.8-6.8,15.57-10.95,4.72-4.2,8.85-8.97,12.19-14.23,6.85-10.47,9.58-23.07,9.33-35.47-.3-6.24-.99-12.39-2.46-18.6-1.2-6.21-2.87-12.35-4.53-18.48-3.38-12.26-7.35-24.42-10.88-36.76-3.54-12.34-6.73-24.88-8.55-37.79-1.83-12.87-2.21-26.24.42-39.33,2.61-13.05,7.71-25.62,15.77-36.69,8.74-10.98,20.97-17.99,32.99-23.21,8.67-3.99,20.21-7.82,31.2-14.18,1.37-.8,2.75-1.62,4.14-2.44,1.27-.97,2.55-1.95,3.84-2.93,2.74-1.82,4.95-4.25,7.28-6.61,4.56-4.8,8.29-10.58,11.22-16.83,1.78-2.94,2.58-6.44,3.8-9.66l1.71-4.89c.37-1.7.75-3.4,1.12-5.09.72-3.38,1.43-6.71,2.12-9.98.38-3.36.75-6.66,1.11-9.87.17-1.61.35-3.19.53-4.75l.26-2.32c.13-.91.26-1.82.39-2.71.36-3.7,1.45-6.99,2.47-10.16,2.39-6.11,5.28-11.22,8.1-15.23,0,0-.28.39-.84,1.13-.59.71-1.31,1.94-2.28,3.5-.96,1.58-2.22,3.44-3.33,5.98-.58,1.25-1.24,2.55-1.86,4-.49,1.53-1.03,3.15-1.59,4.87-.66,1.68-.81,3.66-1.18,5.65-.15.99-.3,2-.47,3.03-.1.86-.22,1.74-.33,2.63-.44,3.59-.92,7.47-1.44,11.61-1.38,8.16-3.25,17.36-6.9,26.58-3.81,9.04-8.87,18.52-17.32,25.65-8.24,7.36-19.27,12.4-31.61,17.23-12.19,4.9-26.14,10.23-37.72,20.56-1.54,1.13-2.81,2.65-4.13,4.12l-3.92,4.42c-2.33,3.09-3.95,6.53-5.94,9.8-3.49,6.74-6.32,13.78-8.13,21.14-3.78,14.68-3.84,29.93-1.98,44.24,1.85,14.36,5.4,27.97,9.08,40.86,3.7,12.9,7.63,25.12,10.76,36.74,3.03,11.61,5.7,22.7,6.22,32.57.63,9.99-1.03,18.99-3.91,26.34-2.86,7.39-6.93,13.12-10.74,17.41-3.77,4.35-7.42,7.18-9.86,9.14-2.5,1.88-3.91,2.81-3.91,2.81,3.16-2.28,6.1-4.77,8.73-7.44,0,0,2.65-2.28,6.46-6.9,3.79-4.61,8.3-11.97,10.77-21.83,5.74-19.84-3.68-48.35-12.39-76.79-4.4-14.28-8.75-28.86-11.42-43.14-2.74-14.24-3.55-28.2-2.42-40.23.91-5.99,1.55-11.52,3.1-16.26.68-2.38,1.21-4.65,1.92-6.67.81-1.99,1.56-3.81,2.23-5.46,1.35-3.3,2.39-5.9,3.46-7.55.95-1.69,1.46-2.59,1.46-2.59,1.98-3.21,3.45-6.63,6.37-9.5,2.61-3,5.22-6.07,8.32-8.38l4.5-3.74,4.84-3.13c3.22-2.23,6.57-3.83,9.94-5.6,0,0-2.47,1.26-6.19,3.16-3.61,2.32-8.62,5.07-12.98,9.08-1.12.94-2.23,1.88-3.33,2.81-1.04,1.03-1.98,2.17-2.93,3.21-1.84,2.14-3.67,4.09-4.97,5.87-2.13,3.73-3.56,6.22-3.56,6.22-5.08,8.45-8.19,17.5-10.69,26.8-.56,2.33-.86,4.71-1.29,7.07-.35,2.37-.94,4.73-.99,7.11-.28,4.75-.79,9.55-.49,14.29.35,19.11,4.63,37.76,9.92,56.48,3.34,11.56,7.48,23.62,10.96,35.58,1.69,5.99,3.35,11.98,4.57,17.86,1.4,5.91,2.01,11.37,2.19,16.81.18,8.77-1,17.03-3.82,24.71-2.81,7.68-7.51,14.63-13.53,20.73,0,0-1.46,1.46-3.92,3.41-1.17,1.03-2.65,2.12-4.27,3.24-1.57,1.19-3.35,2.31-5.16,3.41-3.59,2.24-7.38,4.22-10.3,5.56-2.88,1.41-4.88,2.21-4.88,2.21-3.13,1.18-6.54,2.32-10.06,3.45.12-.06.32-.17.41-.22,3.14-1.81,10.22-4.89,19.12-10.36,8.82-5.4,19.58-13.67,26.43-25.91,3.37-6.11,5.74-13.13,6.38-20.9.68-7.84-.15-16.04-2.29-24.99-4.17-18.27-11.46-37.78-17.88-58.57-3.14-10.49-6.11-21.27-8.13-32.53-1.83-11.31-3.09-22.97-2.18-34.81,1.03-11.72,3.26-23.58,8-34.05,1.88-5.37,5.06-10.37,7.82-15.32,1.17-2.5,3.48-4.81,5.39-7.11,2.02-2.2,3.92-4.76,6.11-6.42,2.15-1.81,4.28-3.59,6.37-5.35,2.15-1.63,4.36-2.91,6.51-4.33,1.08-.68,2.15-1.36,3.22-2.03,1.06-.55,2.1-1.09,3.15-1.63,2.08-1.06,4.13-2.1,6.14-3.12,7.8-3.53,14.86-6.27,20.39-8.62,11.26-4.74,17.95-8.7,21.54-11.61,5.78-4.58,10.86-9.48,14.64-16.37.93-1.71,2.22-3.12,2.94-5.08l2.48-5.64c1.92-3.61,2.85-7.99,4.23-12.14,1.49-4.11,2.24-8.67,3.13-13.23.44-2.29.89-4.59,1.33-6.9l.88-4.51c.37-1.67.66-3.38,1.15-4.99,4.13-12.95,11.93-22.9,20.11-31.69,11.15-11.49,20.43-20.39,29.84-26.83,1.3-.18,6.02-3.36,10.66-6.53,2.76-2.28,5.56-4.58,8.13-6.94,1.29-1.18,2.63-2.35,3.82-3.55l1.82-1.8c.56-.57,1.35-1.28,1.45-1.5l3.4-4.1c1.26-1.59,2.58-3.08,3.98-4.41,2.73-2.78,5.42-5.57,8.27-7.91,11.23-9.81,22.62-17.11,32.93-22.27,7.07-3.9,18.9-13.68,28.84-22.59,10-8.92,17.59-17.05,19.32-17.18,6.84-.32,7.72-.53,10.14-3.19.59-.68,1.31-1.49,2.21-2.53.82-1.07,1.77-2.37,3.04-3.91.63-.76,1.33-1.6,2.1-2.52.69-.96,1.46-2.02,2.3-3.17,1.74-2.14,3.69-5.12,6.11-8.47.55-.84,1.69-1.94,2.98-3.4,1.27-1.51,2.77-3.29,4.36-5.17,3.32-3.65,6.38-8.44,8.29-12.22,5.8-13.39,9.54-22.02,13.5-31.18,1.02-2.31,2.05-4.64,3.13-7.09,1.01-2.48,2.05-5.08,3.17-7.87,1.15-2.74,2.24-5.92,3.43-9.38.55-1.63,1.12-3.33,1.73-5.12.49-1.23.78-2.73,1.12-4.3.98-5.11,1.23-10.78,1.31-15.91.09-5.16-.04-10-.19-14.51-.39-9.2-.73-17.03-1.06-24.68-.22-7.76-.25-15.44.5-24.26.81-8.79,2.26-18.83,6.43-30.9.55-1.45,2.08-7.38,5.81-15.13,3.64-7.68,9.85-17.4,18.88-24.1,8.86-6.9,19.35-10.15,26.85-11.36,3.79-.57,6.91-.97,9.08-.94,2.16-.07,3.4-.12,3.4-.12,3.39-.27,6.7-.54,9.95-.79,3.13-.27,6.1-1,9.06-1.41,2.91-.61,5.67-1.51,8.44-2.19,2.67-.94,5.24-2,7.8-2.94,9.94-4.46,18.09-10.8,24.48-18.3,12.79-15.08,18.51-34.33,18.15-55.09,4.89-23.62.84-53.22-9.95-80.15-10.64-27.15-27.76-51.55-45.55-70.28-17.08-18.6-34.89-22.22-52.23-24.28-8.74-.99-17.66-1.32-27.65-2.13-9.9-.69-21.11-2.06-33.99-5.59-3.63-1.28-7.09-2.26-10.19-3.71-3.09-1.47-5.98-2.84-8.69-4.13-5.33-2.76-9.64-5.7-13.81-7.71-1.99-1.13-4.34-3.15-7.04-5.51-2.71-2.37-5.73-5.14-8.32-8.46-1.36-1.61-2.75-3.25-4.15-4.9l-2.1-2.46c-.69-.8-1.4-1.6-2.16-2.71-3.03-4.03-5.68-8.29-7.68-12.3.03,1.64.05,3.34.3,4.98-1.64-2.63-3.87-6.81-5.42-11.11-1.65-4.28-2.73-8.65-3.25-11.48-1.13-5.72-1.43-4.16-2-2.67-.44,1.55-.87,3.15-1.53,3.07-.61-.06-1.73-1.95-2.65-7.04-1.66-12.33-.96-23.32-.22-33.69.91-9.59,1.82-19.28,2.75-29.08,3.13-17.86,4.37-33.72,1.57-48.53.64-1.08,1.23-2.32,1.32-4.63-.42-2.29-1.15-4.47-1.69-6.75-.78-2.19-1.44-4.44-2.32-6.63.42-3.44,2.83-3.69,3.04-6.12,2.61-1.44,2.24-7.53,1.58-13.31-.72-5.68-1.46-11.06,2.37-10.45,1.24.49,7.52,7.19,13.34,16.47,5.98,9.18,10.93,21.01,13.88,28.52,1.61,3.46,1.7-5.41,2.35-9.67,3.13,10.43,4.24,16.04,5.42,17.81,1.01,1.78,1.86-.23,1.93-4.92.57,2.57,1.09,5.14,1.34,7.07.3,1.93.5,3.22.5,3.22.51-1.38,2.08-5.55,2.08-5.55,5.57,28.4,1.42,57.75-.15,81.19-.82,11.72-.45,21.83,1.55,27.62.96,2.98,2.07,5.09,3.72,7.33.25.32.24.49.69.96l1.24,1.34,2.44,2.71c1.64,1.74,3.07,3.83,4.76,5.37,2.99,2.53,6.53,6.63,10.87,9.69l3.13,2.57c1.13.72,2.25,1.43,3.35,2.13,2.24,1.35,4.2,2.95,6.33,3.85,3.96,2.24,14.18,4.09,18.21,4.61,6.48,3.24,5.04,5.29,7.85,7.8,8.15.95,19.33,1.65,32.14,3.4,12.72,1.76,27.68,5,40.46,11.91,3.25,1.44,6.09,3.63,8.97,5.39,1.41.94,2.79,1.86,4.15,2.76,1.27.99,2.43,2.06,3.59,3.06,2.3,2.03,4.45,3.99,6.4,5.84,1.94,1.86,3.14,3.52,4.5,5.1,5.21,6.21,7.21,10.67,5.46,11.36,10.13,11.44,14.54,19.6,18.82,27.78,4.11,8.31,8.06,16.77,14.28,31.03,3.96,9.53,7.62,19.91,10.62,31.03,2.87,11.15,5.11,23.01,6.25,35.37,2.28,24.6.1,51.74-10.99,76.6-6.31,13.39-15.31,25.64-26.84,35.04-11.45,9.53-25.45,15.54-39.63,18.28-2.65.43-5.29.87-7.91,1.3-2.61.18-5.21.37-7.78.55-2.23.16-4.44.31-6.62.47l-2.95.19c-.95.13-1.87.33-2.79.48-5.12.64-9.61,2.43-13.83,4.42-4.11,2.19-7.62,5.13-10.73,8.52-3.01,3.54-5.45,7.68-7.53,12.11-1.88,4.59-3.57,9.34-4.65,14.43-2.39,10.05-3.2,20.76-3.57,31.41-.34,10.69,0,21.46.42,32.28.4,10.83,1.01,21.67.78,33.14-.23,5.71-.54,12.01-2.52,18.72-1.61,5.44-2.81,10.26-4.63,15.56-6.75,20.77-14.78,40.81-25.56,60.11-5.72,9.64-11.78,18.89-19.62,27.67-7.84,8.73-16.77,15.94-25.75,22.37-18.1,12.64-36.91,22.78-54.76,33.76-8.96,5.45-17.54,11.2-25.37,17.5-1.97,1.57-3.94,3.14-5.66,4.85-1.74,1.7-3.73,3.28-5.2,5.12l-2.4,2.66-2.04,2.28-1.79,1.68c-2.19,2.05-4.39,4.06-6.63,5.93-8.89,7.61-18.01,14.43-26.78,21.44-8.74,7-17.25,14.19-24.3,22.13-3.3,4.05-6.58,8.19-8.53,12.53-.66,1.07-.92,2.17-1.35,3.25-.38,1.09-.91,2.17-1.02,3.26l-.7,3.31-.7,4.64-1.42,9.28-.71,4.64-1.16,4.64-2.34,9.25c-.64,3.1-2.16,6.1-3.2,9.14-1.97,6.15-5.44,11.91-8.62,17.69-1.96,2.72-4.04,5.38-6.07,8.04-2,2.69-4.71,4.81-7.05,7.2-10.05,9.07-22.2,14.6-33.56,18.99-11.4,4.44-22.39,8.22-31.5,14.21-4.53,3-8.63,6.49-11.95,10.43-1.96,1.69-3.05,4.36-4.51,6.63-1.38,2.35-2.88,4.63-3.85,7.26-4.89,9.97-7.19,21-7.73,32.15-.53,11.17.59,22.52,2.85,33.75,4.51,22.52,12.43,44.48,18.39,67.23l2.13,8.57,1.81,8.7c.58,2.91.94,6.02,1.37,9.03.15,3.08.6,6.12.47,9.23.18,6.18-.73,12.42-2.05,18.53-1.49,6.1-3.87,11.97-6.85,17.48-3.12,5.43-6.91,10.38-11.12,14.85-4.33,4.3-8.91,8.29-13.85,11.59-9.78,6.8-20.4,11.53-31,15.38-21.32,7.54-42.89,11.06-63.78,13.14-41.89,3.91-81.44,1.78-117.63-1.96-36.21-3.85-69.13-9.79-98.15-16.3-58.05-13.05-100.37-29.11-122.55-39.27,0,0-6.17-3.63-12.21-7.48-6.07-3.81-11.99-7.92-11.99-7.92l-.09-.02h0Z"/>
            <path class="st31" d="M1260.09-84.8c-6.39-.22-14.72-.4-24.54-.22-9.77.56-21.09,1.06-33.32,2.8-24.48,3.15-52.93,9.41-80.69,20.14-13.92,5.24-27.58,11.69-40.75,18.59-13.17,6.91-25.63,14.7-37.43,22.36-5.53,3.66-10.93,7.23-16.15,10.69-2.11,1.43-4.31,2.73-6.21,4.35-1.89,1.58-3.65,3.58-3.94,6.02-.2,2.47,1.35,4.51,2.92,6.06,1.63,1.57,3.47,2.84,5.31,4,1.85,1.16,3.7,2.2,5.52,3.2,2.21,1.14,4.34,2.25,6.38,3.31,13.31,6.46,25.34,12.27,35.21,18.71,9.86,6.41,17.72,13.37,22.7,20.79,2.03,3.16,2.28,3.76,1.23,2.09-1.07-1.64-3.61-5.52-8.33-10.2-4.7-4.69-11.6-10.04-20.32-15.29-8.69-5.3-19.23-10.46-30.48-16.1-5.45-2.69-9.32-4.64-13.46-7.32-2.02-1.35-4.04-2.87-5.58-4.87-.73-1.02-1.33-2.19-1.44-3.49-.15-1.3.33-2.61,1.02-3.73,1.41-2.28,3.62-3.97,5.88-5.5,2.29-1.53,4.62-3.1,7.01-4.69,6.03-4.07,12.3-8.23,18.85-12.47-8.09,4.88-16.1,9.72-23.91,14.44-3.42,2.09-7.2,4.09-9.88,7.35-1.32,1.6-2.09,3.71-1.72,5.68.34,1.98,1.52,3.63,2.83,5.03,5.5,5.49,12.72,9.03,19.74,13,6.98,3.79,13.54,7.28,19.33,10.7,8.76,4.51,17.4,9.46,25.07,15.71,7.57,6.23,14.34,14.02,17.06,23.51,3.22,10.39.89,21.62-3.59,31.4-4.51,9.9-10.99,18.84-18.07,27.15-1.72,2.12-3.63,4.1-5.43,6.14-1.87,1.98-3.9,3.79-5.84,5.69-1.99,1.84-3.84,3.83-5.94,5.55l-6.43,4.99c-4.16,3.5-8.88,6.23-13.43,9.17-4.46,3.09-9.46,5.32-14.21,7.94-19.4,9.81-40.15,16.78-61.28,22.15-21.16,5.33-42.78,9.06-64.65,11.62-15.88,1.76-41.19,4.13-66.5,4.93-25.3.91-50.51.55-65.99-.39,0,0,1.52.04,4.36.11,2.84.06,7.02.21,12.32.21,10.62.09,25.79.16,43.98-.5,36.32-1.16,84.96-4.99,131.91-16.48,23.41-5.78,46.34-13.63,66.25-23.98,2.48-1.31,4.93-2.62,7.36-3.91,2.45-1.25,4.63-2.88,6.93-4.28,2.26-1.45,4.51-2.88,6.72-4.29,2.14-1.51,4.12-3.17,6.15-4.71,2.02-1.57,4-3.11,5.96-4.63,1.78-1.71,3.53-3.4,5.24-5.06,1.72-1.66,3.41-3.29,5.08-4.89,1.56-1.74,3.09-3.44,4.58-5.12,11.82-13.5,19.23-26.52,21.92-36.11,1.39-4.78,1.82-8.62,1.87-11.22,0-2.59-.11-3.96-.11-3.96.14,3.19-.11,6.38-.74,9.48,0,0-.13.72-.43,2.07-.26,1.35-.83,3.32-1.65,5.79-1.7,4.94-5.04,11.82-10.29,19.48-2.7,3.78-5.7,7.84-9.24,11.9-3.44,4.14-7.37,8.28-11.63,12.16-8.17,8.23-18.66,15.12-29.24,21.64-21.75,12.38-45.87,20.37-64.09,25.35-9.2,2.31-16.83,4.31-22.29,5.3-5.42,1.12-8.52,1.76-8.52,1.76-11.25,2.2-22.7,4.14-34.58,5.49,0,0,2.17-.29,5.43-.73s7.61-.96,11.92-1.75c4.32-.72,8.63-1.45,11.87-1.99,3.25-.5,5.37-1.02,5.37-1.02,7.31-1.64,14.65-3.02,21.8-5.09,3.59-.97,7.19-1.94,10.8-2.91,3.55-1.14,7.11-2.29,10.68-3.45,7.23-2.13,14.16-5.18,21.41-7.86,3.51-1.58,7.04-3.18,10.62-4.8,1.77-.83,3.61-1.59,5.37-2.49,1.74-.94,3.49-1.89,5.25-2.84,2.19-1.14,4.42-2.31,6.68-3.49,2.29-1.14,4.36-2.65,6.6-3.97,2.2-1.36,4.43-2.74,6.67-4.12,2.19-1.43,4.2-3.11,6.33-4.66,2.09-1.59,4.23-3.12,6.27-4.75,1.9-1.78,3.79-3.55,5.66-5.3,3.8-3.4,7.34-7.22,10.52-11.02,5.25-6.14,10.01-12.22,14-18.58,4.02-6.33,7.19-13.02,8.73-20.13,0,0,.06-.43.17-1.19.1-.76.29-1.83.33-3.13.24-2.59.08-6.05-.63-9.4-.68-3.36-1.99-6.57-3.17-8.89-1.25-2.3-2.26-3.75-2.26-3.75-1.6-2.22-3.55-4.46-5.74-6.62.06.08.18.25.23.31,1.61,2.48,5.82,7.5,8.17,15.37,1.19,3.91,1.59,8.54.97,13.64-.63,5.11-2.54,10.7-5.44,16.44-2.89,5.75-6.88,11.63-11.58,17.48-2.36,2.92-4.91,5.84-7.56,8.77-1.37,1.44-2.75,2.89-4.14,4.35-1.42,1.41-2.93,2.67-4.4,4.03-11.65,10.85-26.1,20.31-41.98,27.54-15.83,7.31-32.7,12.95-49.18,17.45-16.63,4.13-32.74,7.56-47.56,9.72-29.55,4.65-53.3,6.11-63.75,7.25-33.39,2.9-64.15,6.79-101.83,6.16-12.59-.29-23.14-1.68-32.82-1.5-.98.48-5.83.57-10.69.59-25.09-1.45-49.87-6-69.15-7.07-6.74-.58-19.16-4.26-30.02-8.07-10.91-3.71-20.16-7.51-21.67-7.09-5.67,1.66-6.4,1.76-9.47.61-1.55-.57-3.65-1.51-6.98-2.94-.85-.34-1.77-.71-2.79-1.13-.91-.42-1.9-.88-2.98-1.39-.55-.24-1.13-.5-1.73-.76-.68-.34-1.38-.7-2.11-1.07-1.47-.73-3.06-1.51-4.79-2.36-3.36-1.54-15.23-4.94-21.59-8.94-2.64-1.72-5.04-3.28-7.28-4.74-2.2-1.49-4.23-2.87-6.17-4.18-3.93-2.52-7.37-4.88-10.89-7.31-7.09-4.81-14.54-10.06-24.92-20.04-15.54-14.76-22.55-26.1-29.03-36.75-6.37-10.8-12-21.26-21.36-38.48-1.17-2.07-7.99-17.09-14.06-32.09-3.09-7.48-6.09-14.87-8.53-20.37-2.38-5.5-4.09-9.09-4.09-9.09-4.76-11.45-10.26-21.69-17.31-30.2-3.63-4.07-7.68-8.06-11.81-10.77-4.11-2.83-7.96-5.82-12.12-8.06-16.25-9.71-32.14-16.63-49.86-24.68-21.72-5.36-46.74-11.37-72.42-16.28-25.66-4.94-51.88-8.83-75.31-10.56-23.43-1.75-39.99-3.11-55.83-4.84-15.84-1.59-30.97-3.5-51.52-5.01-11.74-.59-20.55-.33-27.39-1.15-6.87-.78-23.48,1.44-35.2,1.23l2.9-1.57c-3.93-.06-11.75-.19-15.67-.26-3.93-.06-2.95-.59-1.98-1.12,1.94-1.06,3.87-2.12-3.01-2.76-16.4-.5-33.18-.71-50.33-.47-16.9,1.46-33.56,3.12-49.93,5.05-.91.75-1.98,1.52-4.26,2.23-4.86.68-9.72,1.37-14.56,2.05-2.83,1.72-1.74,3.32-3.63,4.47.29,4.32-19.8,9.93-14.64,13.56,2.03.99,30.18-.5,42.9.89,2.96.47-3.76,2.25-6.55,3.96,16.46-.92,17.51.69,10.82,2.47,3.88-.08,7.75-.16,7.75-.16-.93.56-3.75,2.25-3.75,2.25,41.71-.35,88.14,1.94,128.6-.05,8.68-.31,23.14-1.36,32.79-2.02,4.81-.29,15.41.78,19.27,1,6.78-1.21,5.85-2.9,8.78-4.35,14.93,1.22,38.5,3.14,58.06,4.74,19.54,1.47,35.11,2.32,34.42-.51,11.95,1.31,19.18,1.52,26.53,1.82,7.37.18,14.84.59,27.24,2.25,16.36,2.43,34.85,5.63,53.99,10.26,19.11,4.64,38.95,10.72,57.24,19.24,4.88,2.48,10,4.55,14.5,7.43,2.3,1.36,4.6,2.71,6.9,4.06l6.39,4.59,3.19,2.29,2.64,2.37c1.8,1.53,3.32,3.47,4.94,5.26,3.04,3.87,5.83,8.08,8.29,12.68,3.73,6.81,6.81,13.99,9.62,20.94,7.51,18.95,13.89,38.32,21.78,56.68,7.78,18.41,16.93,35.98,27.99,51.94,21.94,32.18,51.76,56.88,84.41,74.26,4.09,2.18,8.17,4.39,12.39,6.27l6.29,2.93c1.99,1,4.32,1.93,6.74,2.82,9.36,3.34,18.26,5.51,27.31,7.47,18.04,3.91,36.2,6.72,54.72,9.05,37.02,4.57,75.4,7.1,116.28,7.13,41.2-.06,82.93-1.81,124.29-6.86,20.68-2.43,41.26-5.83,61.51-10.42,20.23-4.61,40.22-10.23,59.34-18,19.06-7.8,37.4-17.56,53.34-30.49,4.19-2.96,7.64-6.83,11.4-10.29,1.87-1.75,3.69-3.54,5.32-5.44,1.7-1.85,3.35-3.74,4.96-5.68,6.47-7.69,12.41-15.91,17-25.1,4.5-9.12,7.8-19.57,6.82-30.51-.87-10.94-6.36-21.02-13.28-28.36-6.94-7.47-14.98-13.06-23.02-17.9-8.07-4.83-16.27-8.87-24.22-12.75-3.9-1.92-7.77-3.84-11.61-5.73-1.81-.93-2.88-1.5-4.08-2.2-1.19-.67-2.34-1.39-3.45-2.13-2.14-1.53-4.4-3.16-5.23-5.68-.76-2.66,1.32-5.08,3.26-6.58,2.02-1.58,4.23-2.86,6.28-4.22,3.14-2.07,6.26-4.12,9.35-6.16,6.65-4.35,13.21-8.49,19.69-12.42,12.97-7.81,25.76-14.54,38.15-20.37,6.3-2.7,12.31-5.6,18.41-7.82,3.02-1.17,5.99-2.33,8.93-3.47,2.98-1.01,5.92-2,8.81-2.97,23.15-7.75,44.12-11.94,61.55-14.78,8.8-1.03,16.6-2.33,23.54-2.84,6.92-.58,12.86-1.07,17.74-1.48l22.82-3.17h-.09,0Z"/>
          </g>
        </g>
        <path class="st32" d="M1524.07,945.73c-280.8,3.21-330.79,129.34-557.41,136.83h836.36s26.11-32.36,2.03-48.29c-72.23-47.81-159.46-89.93-280.99-88.54h0Z"/>
        <path class="st32" d="M1811.34,82.08c-40.64,15.39-83.7,28.18-144.51,30.02h144.75s67.64-55.73-.24-30.02Z"/>
        <path class="st32" d="M731.62,1068.51c213.63,3.23,251.67,129.52,424.08,137.02H466.15c65.31-63.26,142.2-138.86,265.47-137.02Z"/>
        <path class="st32" d="M1226.17,104.1c280.81,3.11,330.79,125.34,557.41,132.61h-906.35c85.85-61.23,186.91-134.41,348.94-132.61h0Z"/>
        <path class="st29" d="M1832.52,267.7c-89.45,38.98-161.19,84.37-289.95,88.92h291.84s66.1-118.55-1.89-88.92Z"/>
        <path class="st24" d="M575.59,415v-30.96s-10.49-.96-23.44-1.87v-3.71l2.6-7.48v-2.6h-22.13c-3.76-1.23-9.06-2.02-14.96-2.02s-11.18.79-14.95,2.03h-22.57v2.76l3.14,6.64v4.47c-12.64.88-23.05,1.78-23.05,1.78v30.98h-4.44v63.46h122.75v-63.48h-2.95,0Z"/>
        <path class="st6" d="M1593.87,356.62c0,17.93-63.65,32.46-142.16,32.46s-142.17-14.53-142.17-32.46,63.66-32.46,142.17-32.46,142.16,14.53,142.16,32.46Z"/>
        <path class="st7" d="M1636.35,416.06c57.14-.35,94.64-60.7,94.64-60.7h-187.79s36.31,61.05,93.15,60.7Z"/>
        <path class="st11" d="M1553.25,332.44h-2.76v-4.21h38.15v4.21h-13.19v1.18l9.78,1.12-2.02,9.69c.57.27,1.09.63,1.54,1.08.97.97,1.58,2.32,1.58,3.8s-.61,2.85-1.58,3.82c-.36.36-.77.68-1.23.92h10.35v3.03h-50.67v-3.03h10.46c-.45-.24-.87-.56-1.23-.92-.98-.97-1.58-2.32-1.58-3.82s.6-2.83,1.58-3.8c.79-.78,1.8-1.32,2.94-1.51l-2.11-11.56h-.01ZM1585.07,326.43h-30.7l-.31-.8,2.38-1.89,1.79-.87-.11-2.48,2.22-.38.43-1.52,3.13-1.19,1.83,2,3.68-.16.22-1.35,4.92-.92,1.03,5.24,2.87-.38,3.72-.06.27,2.43,3.03.92-.38,1.4h-.02ZM1558.82,354.04h19.55c-.46-.24-.87-.56-1.23-.92-.97-.97-1.57-2.32-1.57-3.82,0-.2,0-.41.03-.61h-14.01c.03.2.04.4.04.61,0,1.49-.6,2.85-1.58,3.82-.37.36-.78.68-1.23.92h0ZM1554.74,347.81c-.38.39-.62.92-.62,1.5s.24,1.12.62,1.51c.38.38.91.62,1.5.62s1.12-.24,1.5-.62.63-.92.63-1.51-.24-1.11-.63-1.5-.91-.62-1.5-.62-1.12.23-1.5.62h0ZM1578.82,349.31c0,.59.23,1.12.62,1.51.39.38.91.62,1.5.62s1.11-.24,1.5-.62c.38-.38.62-.92.62-1.51s-.23-1.11-.62-1.5-.91-.62-1.5-.62-1.11.23-1.5.62c-.38.39-.62.92-.62,1.5Z"/>
        <path class="st1" d="M1496.07,299.81l-.24-1.49,2.55.07h.25c1.84,0,3.51-.75,4.71-1.95,1.2-1.21,1.96-2.87,1.96-4.71,0-.53-.07-1.04-.18-1.51-.12-.5-.29-.98-.51-1.42l-.54-1.11.69-1.01c.12-.17.21-.33.3-.47.08-.17.18-.33.25-.51l3.43-.62c.48.49,1.06.9,1.69,1.16.6.26,1.28.4,2,.4.82,0,1.61-.19,2.28-.52.71-.35,1.34-.87,1.82-1.49l3.39.03c.35.49.81.89,1.32,1.15.5.25,1.08.4,1.71.4,1.03,0,1.97-.42,2.63-1.09h.01c.68-.68,1.09-1.61,1.09-2.65s-.41-1.97-1.09-2.64h-.01c-.66-.68-1.6-1.1-2.63-1.1-.51,0-.97.09-1.39.26s-.83.44-1.18.75l-3.33-.59c-.43-.86-1.1-1.58-1.91-2.08-.78-.48-1.71-.76-2.71-.76s-1.84.26-2.61.69c-.79.47-1.44,1.13-1.89,1.92l-3.49.28c-.58-.73-1.34-1.33-2.18-1.74-.81-.38-1.73-.6-2.71-.6-1.18,0-2.28.32-3.21.88-.97.58-1.78,1.41-2.32,2.4l-1.24,2.29-1.99-1.71c-.46-.4-.99-.72-1.57-.94-.54-.2-1.15-.31-1.79-.31-1.43,0-2.72.57-3.65,1.51h-.01c-.93.93-1.51,2.22-1.51,3.65,0,.9.23,1.75.63,2.48.42.77,1.03,1.42,1.77,1.89l1.37.86-.49,1.55c-.1.31-.16.64-.22.98-.05.32-.08.66-.08,1.02v.21l.02.21.07,1.2-1,.68c-1.03.69-1.88,1.65-2.48,2.78-.22.42-.4.86-.55,1.31h-4.35c.23-1.17.63-2.27,1.17-3.3.72-1.36,1.72-2.59,2.91-3.57.01-.39.06-.78.12-1.16l.02-.14c-.78-.7-1.46-1.54-1.97-2.47-.73-1.35-1.16-2.89-1.16-4.52,0-2.59,1.05-4.94,2.76-6.63h0c1.69-1.71,4.05-2.76,6.65-2.76,1.12,0,2.23.21,3.27.59.32.12.63.26.93.41.74-.84,1.61-1.57,2.56-2.15,1.58-.93,3.41-1.46,5.36-1.46,1.61,0,3.15.37,4.53,1.03.64.31,1.23.67,1.79,1.09.54-.54,1.16-1.02,1.83-1.41,1.4-.81,3.01-1.27,4.72-1.27s3.48.51,4.92,1.4c.8.5,1.52,1.11,2.14,1.82.17-.08.34-.16.51-.23.93-.36,1.91-.56,2.94-.56,2.18,0,4.18.89,5.62,2.33h0c1.45,1.44,2.34,3.43,2.34,5.63s-.89,4.17-2.34,5.62h0c-1.44,1.46-3.44,2.35-5.62,2.35-1.3,0-2.53-.31-3.63-.88-.39-.2-.77-.43-1.12-.69-.5.39-1.04.74-1.63,1.02-1.27.62-2.67.97-4.14.97-1.05,0-2.05-.18-3.01-.5.06.46.08.92.08,1.37,0,3.01-1.22,5.72-3.19,7.7-.14.13-.26.25-.39.38h-9.87.02,0Z"/>
        <path class="st10" d="M1398.15,335.45h-9.28v2.05h9.28v-2.05h0ZM1398.15,339.72h-9.28v2.05h9.28v-2.05h0ZM1398.15,344.19h-9.28v2.05h9.28v-2.05h0ZM1415.65,323.58h-11.44v2.05h11.44v-2.05h0ZM1415.65,328.05h-11.44v2.05h11.44v-2.05h0ZM1415.65,332.32h-11.44v2.05h11.44v-2.05h0ZM1415.65,336.8h-11.44v2.06h11.44v-2.06h0ZM1447.39,317.86h-11.45v2.05h11.45v-2.05h0ZM1447.39,322.33h-11.45v2.05h11.45v-2.05h0ZM1447.39,326.6h-11.45v2.05h11.45v-2.05h0ZM1447.39,331.07h-11.45v2.06h11.45v-2.06h0ZM1398.15,330.96h-9.28v2.05h9.28v-2.05h0ZM1453.13,351.84h1.42v5.24h-71.35v-5.24h1.89v-24.54h13.18v-7.13h17.48v-7.55h37.37v39.23h0Z"/>
        <g>
          <path class="st12" d="M1611.17,368.69l2.07-2.05c.83-.84,2.19-.83,3.02,0l1.1,1.11c-1.69,1.71-3.31,3.51-4.84,5.37l-1.37-1.39c-.82-.84-.82-2.21.02-3.05h0ZM1605.05,387.8c.39.38.79.76,1.18,1.14,2.83-3.69,5.87-7.4,9.49-11.15.66.43,1.31.87,1.97,1.31.11-.13.22-.26.34-.39l24.22,24.58c.83.84,2.19.84,3.02,0l2.07-2.06c.83-.84.84-2.2.02-3.04l-24.42-24.77c3.46-3.48,7.34-6.87,11.08-9.24l-3.06-4.7c-10.73,6.86-19.63,17.25-25.92,28.32h.01Z"/>
          <path class="st12" d="M1655.91,366.48l1.98,2.07c.8.85.78,2.21-.04,3.05l-1.1,1.1c-1.65-1.69-3.38-3.3-5.17-4.84l1.37-1.38c.83-.83,2.17-.83,2.97,0h0ZM1637.35,360.39c-.38.4-.75.8-1.13,1.19,3.56,2.84,7.14,5.87,10.75,9.51-.44.66-.87,1.33-1.3,1.98.13.11.25.23.37.34l-24.31,24.45c-.83.84-.85,2.21-.05,3.05l1.98,2.07c.8.84,2.14.85,2.96.01l24.51-24.65c3.35,3.47,6.6,7.36,8.86,11.11l4.62-3.1c-6.54-10.76-16.55-19.66-27.27-25.95h.01Z"/>
        </g>
        <polygon class="st11" points="1474.07 302.63 1508.48 302.63 1515.83 356.92 1466.7 356.92 1474.07 302.63 1474.07 302.63"/>
        <path class="st28" d="M787.28,859.62c-178.11,2.45-233.1,98.19-336.45,104.12h557.78c-54.45-48.08-118.56-105.52-221.34-104.12h.01Z"/>
        <path class="st21" d="M189.34,687.74h-.45l-.37.37h-9.77l10.59,18.83h-.45l-.37.37h-15.07v13.9l-.88.81h-14.27l-.81-.81v-13.9h-15.89c.2-1.27,3.73-7.68,10.6-19.2h-10.6v-.81l23.69-40.38h.8l23.26,40.82h-.01ZM142.77,681.64v.36c0,.83-1.08,3.29-3.23,7.36h7.35l.36.44c.45,1.08.86,1.62,1.26,1.62l-9.79,17.14h10.23l2.79,2.43-.81.8h-10.59v9.42l-.81.81h-9.79l-.8-.81v-9.42h-11.48l-.37-.37,7.73-13.46h-7.36l-.37-.44,17.14-29.8c.69.34,3.53,4.98,8.53,13.91h0Z"/>
        <g>
          <path class="st3" d="M126.17,467.53v7.91h-8.9v-7.91h-12.93l2.65-7.85,9.51-8.62-1.11-1.35-5.93,2.64,2.43-7.19,9.29-8.42-1.11-1.33-5.75,2.55,7.6-22.48,8.8,26.03.81,2.35-5.05-2.25-1.11,1.34,8.44,7.65,2.7,7.99-6.51-2.9-1.11,1.34,10.2,9.24-.03-.16.48,1.41h-13.37,0ZM172.22,401.6l10.99,32.18.99,2.92-6.3-2.78-1.39,1.66,10.54,9.45,3.38,9.88-8.14-3.58-1.39,1.66,12.75,11.43-.04-.19.59,1.74h-17.85v10.54h-8.8v-10.54h-17.33l3.32-9.71,11.89-10.66-1.39-1.66-7.41,3.27,3.04-8.89,11.61-10.41-1.39-1.66-7.19,3.17,9.51-27.81h.01Z"/>
          <path class="st9" d="M157.85,469.63h-7.92v6.88h7.92v-6.88h0ZM150.36,414.52c-6.7,0-12.15,5.35-12.15,11.95,0,1.72.37,3.34,1.03,4.82-2.96,1.86-4.93,5.11-4.93,8.83,0,4.48,2.86,8.3,6.89,9.8-.12.6-.2,1.23-.2,1.87,0,4.17,2.94,7.67,6.88,8.63l1.72-5.09.82-2.43c3.74-11.06,7.01-20.72,10.78-31.85-2.01-3.88-6.11-6.53-10.83-6.53h-.01Z"/>
        </g>
        <g>
          <path class="st3" d="M127.75,954.09v7.91h-8.9v-7.91h-12.93l2.65-7.85,9.51-8.61-1.11-1.35-5.92,2.64,2.43-7.19,9.29-8.41-1.11-1.34-5.74,2.55,7.6-22.48,8.8,26.03.8,2.35-5.05-2.25-1.11,1.34,8.44,7.65,2.7,7.99-6.51-2.9-1.11,1.34,10.2,9.24-.04-.16.47,1.41h-13.36ZM173.8,888.16l10.99,32.18.99,2.92-6.3-2.78-1.39,1.67,10.55,9.45,3.38,9.88-8.15-3.58-1.38,1.66,12.75,11.43-.04-.19.59,1.74h-17.85v10.55h-8.8v-10.55h-17.33l3.31-9.7,11.89-10.67-1.39-1.65-7.4,3.26,3.03-8.88,11.62-10.41-1.39-1.66-7.19,3.17,9.52-27.81h0v-.03h-.01Z"/>
          <path class="st9" d="M159.44,956.19h-7.92v6.88h7.92v-6.88h0ZM151.95,901.07c-6.71,0-12.15,5.35-12.15,11.95,0,1.71.37,3.34,1.02,4.82-2.96,1.86-4.92,5.11-4.92,8.83,0,4.48,2.85,8.3,6.88,9.8-.13.6-.2,1.22-.2,1.87,0,4.17,2.94,7.67,6.88,8.63l1.71-5.08.82-2.43c3.73-11.07,7.01-20.72,10.78-31.85-2.01-3.88-6.11-6.53-10.83-6.53h0Z"/>
        </g>
        <path class="st21" d="M307.14,320.42h-.45l-.37.37h-9.77l10.59,18.83h-.45l-.37.37h-15.08v13.9l-.88.81h-14.27l-.81-.81v-13.9h-15.89c.2-1.27,3.74-7.68,10.6-19.2h-10.6v-.81l23.69-40.38h.8l23.26,40.82h0ZM260.57,314.32v.36c0,.83-1.08,3.29-3.23,7.36h7.34l.37.43c.45,1.08.86,1.62,1.26,1.62l-9.79,17.14h10.23l2.79,2.42-.8.81h-10.59v9.42l-.81.81h-9.79l-.81-.81v-9.42h-11.48l-.37-.37,7.73-13.46h-7.37l-.37-.44,17.14-29.79c.69.34,3.53,4.98,8.53,13.91h.02,0Z"/>
        <path class="st21" d="M307.14,201.69h-.45l-.37.37h-9.77l10.59,18.83h-.45l-.37.37h-15.08v13.9l-.88.81h-14.27l-.81-.81v-13.9h-15.89c.2-1.27,3.74-7.68,10.6-19.2h-10.6v-.81l23.69-40.38h.8l23.26,40.82ZM260.57,195.59v.36c0,.83-1.08,3.29-3.23,7.36h7.34l.37.43c.45,1.08.86,1.62,1.26,1.62l-9.79,17.14h10.23l2.79,2.42-.8.81h-10.59v9.42l-.81.81h-9.79l-.81-.81v-9.42h-11.48l-.37-.37,7.73-13.46h-7.37l-.37-.44,17.14-29.79c.69.34,3.53,4.98,8.53,13.91h.02,0Z"/>
        <g>
          <path class="st3" d="M128.21,102.72v7.91h-8.9v-7.91h-12.93l2.65-7.85,9.51-8.62-1.11-1.35-5.92,2.64,2.43-7.19,9.29-8.42-1.11-1.34-5.75,2.55,7.6-22.48,8.8,26.03.8,2.35-5.05-2.25-1.11,1.34,8.44,7.65,2.7,7.98-6.51-2.9-1.11,1.34,10.2,9.24-.03-.16.48,1.41h-13.36v.03h0ZM174.26,36.8l10.99,32.18.99,2.92-6.3-2.78-1.39,1.67,10.54,9.45,3.38,9.88-8.14-3.58-1.39,1.66,12.75,11.43-.04-.19.59,1.74h-17.85v10.54h-8.8v-10.54h-17.32l3.31-9.7,11.89-10.67-1.39-1.66-7.4,3.26,3.04-8.88,11.61-10.41-1.39-1.66-7.19,3.17,9.51-27.81h0v-.02h0Z"/>
          <path class="st9" d="M159.89,104.82h-7.91v6.88h7.91v-6.88h0ZM152.41,49.71c-6.7,0-12.15,5.35-12.15,11.95,0,1.71.37,3.34,1.03,4.82-2.96,1.86-4.93,5.12-4.93,8.83,0,4.48,2.86,8.3,6.88,9.8-.12.6-.2,1.23-.2,1.87,0,4.17,2.94,7.67,6.88,8.63l1.72-5.08.82-2.43c3.74-11.06,7.01-20.72,10.78-31.85-2.01-3.88-6.11-6.53-10.83-6.53h0Z"/>
        </g>
        <g>
          <path class="st3" d="M610.75,102.72v7.91h-8.91v-7.91h-12.93l2.65-7.85,9.51-8.62-1.11-1.35-5.92,2.64,2.43-7.19,9.29-8.42-1.11-1.34-5.75,2.55,7.6-22.48,8.8,26.03.81,2.35-5.06-2.25-1.11,1.34,8.44,7.65,2.7,7.98-6.51-2.9-1.11,1.34,10.2,9.24-.03-.16.48,1.41h-13.36v.03h0ZM656.8,36.8l10.99,32.18.99,2.92-6.3-2.78-1.39,1.66,10.54,9.45,3.38,9.88-8.14-3.58-1.39,1.66,12.74,11.43-.04-.19.59,1.74h-17.85v10.54h-8.8v-10.54h-17.33l3.32-9.7,11.88-10.67-1.39-1.66-7.4,3.26,3.03-8.88,11.62-10.41-1.39-1.66-7.18,3.17,9.51-27.81h.01Z"/>
          <path class="st9" d="M642.44,104.82h-7.92v6.88h7.92v-6.88h0ZM634.94,49.71c-6.7,0-12.14,5.34-12.14,11.95,0,1.71.37,3.34,1.03,4.82-2.96,1.86-4.93,5.12-4.93,8.83,0,4.48,2.86,8.3,6.89,9.8-.13.6-.2,1.23-.2,1.87,0,4.17,2.94,7.67,6.87,8.63l1.73-5.08.82-2.43c3.74-11.06,7.01-20.72,10.78-31.85-2.01-3.88-6.11-6.53-10.84-6.53h-.01Z"/>
        </g>
        <g>
          <path class="st3" d="M734.53,102.72v7.91h-8.91v-7.91h-12.93l2.65-7.85,9.51-8.62-1.11-1.35-5.92,2.64,2.43-7.19,9.29-8.42-1.11-1.34-5.75,2.55,7.6-22.48,8.8,26.03.8,2.35-5.05-2.25-1.12,1.34,8.44,7.65,2.7,7.98-6.51-2.9-1.11,1.34,10.2,9.24-.04-.16.48,1.41h-13.36l.02.03h0ZM780.58,36.8l10.99,32.18.99,2.92-6.3-2.78-1.39,1.66,10.54,9.45,3.38,9.88-8.14-3.58-1.39,1.66,12.74,11.43-.04-.19.59,1.74h-17.85v10.54h-8.8v-10.54h-17.33l3.31-9.7,11.89-10.67-1.39-1.66-7.4,3.26,3.04-8.88,11.62-10.41-1.39-1.66-7.19,3.17,9.51-27.81h.01Z"/>
          <path class="st9" d="M766.21,104.82h-7.91v6.88h7.91v-6.88h0ZM758.73,49.71c-6.7,0-12.15,5.34-12.15,11.95,0,1.71.37,3.34,1.03,4.82-2.96,1.86-4.93,5.12-4.93,8.83,0,4.48,2.86,8.3,6.89,9.8-.13.6-.2,1.23-.2,1.87,0,4.17,2.94,7.67,6.88,8.63l1.72-5.08.82-2.43c3.74-11.06,7.01-20.72,10.78-31.85-2.01-3.88-6.11-6.53-10.83-6.53h-.01Z"/>
        </g>
        <path class="st21" d="M552.56,79.75h-.45l-.37.36h-9.77l10.59,18.83h-.45l-.37.37h-15.07v13.9l-.89.81h-14.27l-.81-.81v-13.9h-15.89c.2-1.27,3.74-7.68,10.6-19.2h-10.6v-.81l23.69-40.38h.8l23.26,40.83h0ZM505.99,73.64v.36c0,.83-1.08,3.29-3.23,7.36h7.34l.37.44c.45,1.08.86,1.62,1.26,1.62l-9.79,17.14h10.23l2.8,2.42-.82.81h-10.59v9.42l-.8.81h-9.8l-.8-.81v-9.42h-11.48l-.37-.37,7.73-13.46h-7.36l-.37-.44,17.14-29.79c.69.34,3.53,4.98,8.53,13.91h0Z"/>
        <path class="st21" d="M1040.46,79.75h-.45l-.37.36h-9.77l10.59,18.83h-.45l-.37.37h-15.08v13.9l-.89.81h-14.27l-.81-.81v-13.9h-15.89c.2-1.27,3.74-7.68,10.6-19.2h-10.6v-.81l23.69-40.38h.8l23.26,40.83h.01ZM993.88,73.64v.36c0,.83-1.08,3.29-3.23,7.36h7.34l.37.44c.45,1.08.86,1.62,1.26,1.62l-9.79,17.14h10.23l2.79,2.42-.81.81h-10.59v9.42l-.8.81h-9.8l-.8-.81v-9.42h-11.48l-.37-.37,7.73-13.46h-7.36l-.37-.44,17.14-29.79c.69.34,3.53,4.98,8.53,13.91h0Z"/>
        <path class="st21" d="M1522.26,79.75h-.45l-.37.36h-9.77l10.59,18.83h-.45l-.37.37h-15.08v13.9l-.89.81h-14.27l-.81-.81v-13.9h-15.89c.2-1.27,3.74-7.68,10.6-19.2h-10.6v-.81l23.69-40.38h.8l23.26,40.83h.01ZM1475.69,73.64v.36c0,.83-1.08,3.29-3.23,7.36h7.35l.37.44c.45,1.08.86,1.62,1.25,1.62l-9.79,17.14h10.23l2.79,2.42-.81.81h-10.59v9.42l-.81.81h-9.8l-.8-.81v-9.42h-11.48l-.37-.37,7.73-13.46h-7.36l-.37-.44,17.14-29.79c.69.34,3.53,4.98,8.53,13.91h.02Z"/>
        <path class="st21" d="M1641.7,79.75h-.45l-.37.36h-9.77l10.59,18.83h-.45l-.37.37h-15.08v13.9l-.89.81h-14.27l-.81-.81v-13.9h-15.89c.2-1.27,3.74-7.68,10.6-19.2h-10.6v-.81l23.69-40.38h.8l23.26,40.83h.01ZM1595.13,73.64v.36c0,.83-1.08,3.29-3.23,7.36h7.35l.37.44c.45,1.08.86,1.62,1.25,1.62l-9.79,17.14h10.23l2.8,2.42-.81.81h-10.59v9.42l-.81.81h-9.8l-.8-.81v-9.42h-11.48l-.37-.37,7.73-13.46h-7.36l-.37-.44,17.14-29.79c.69.34,3.53,4.98,8.53,13.91h.01Z"/>
        <path class="st21" d="M430.44,806.84h-.45l-.37.37h-9.77l10.59,18.83h-.45l-.37.37h-15.08v13.9l-.89.81h-14.27l-.81-.81v-13.9h-15.89c.2-1.27,3.74-7.68,10.6-19.2h-10.6v-.81l23.7-40.38h.8l23.25,40.82h.01ZM383.87,800.74v.36c0,.83-1.08,3.29-3.23,7.36h7.35l.37.44c.46,1.08.86,1.62,1.26,1.62l-9.79,17.14h10.24l2.79,2.42-.81.81h-10.59v9.42l-.8.81h-9.8l-.8-.81v-9.42h-11.48l-.37-.37,7.73-13.46h-7.37l-.37-.44,17.14-29.79c.69.34,3.53,4.98,8.53,13.91h0Z"/>
        <g>
          <path class="st3" d="M737.56,835.78v7.91h-8.9v-7.91h-12.93l2.65-7.85,9.51-8.61-1.11-1.35-5.93,2.64,2.43-7.18,9.29-8.42-1.11-1.34-5.75,2.55,7.6-22.48,8.8,26.02.81,2.35-5.05-2.25-1.11,1.34,8.44,7.65,2.7,7.99-6.51-2.9-1.11,1.34,10.2,9.24-.03-.16.48,1.41h-13.37ZM783.6,769.86l10.99,32.18.99,2.92-6.3-2.78-1.39,1.67,10.54,9.45,3.38,9.88-8.14-3.58-1.39,1.65,12.75,11.43-.04-.19.59,1.74h-17.85v10.55h-8.8v-10.55h-17.33l3.32-9.71,11.89-10.66-1.39-1.66-7.4,3.26,3.04-8.88,11.61-10.41-1.39-1.66-7.19,3.17,9.51-27.81h0Z"/>
          <path class="st9" d="M769.24,837.89h-7.92v6.88h7.92v-6.88h0ZM761.75,782.77c-6.7,0-12.15,5.35-12.15,11.95,0,1.72.37,3.34,1.03,4.82-2.96,1.86-4.93,5.12-4.93,8.83,0,4.48,2.86,8.31,6.89,9.8-.12.61-.2,1.23-.2,1.87,0,4.17,2.94,7.67,6.88,8.63l1.72-5.08.82-2.43c3.74-11.06,7.01-20.72,10.77-31.85-2.01-3.88-6.11-6.53-10.83-6.53h0Z"/>
        </g>
        <g>
          <path class="st3" d="M980.71,835.78v7.91h-8.9v-7.91h-12.93l2.65-7.85,9.51-8.61-1.11-1.35-5.92,2.64,2.43-7.18,9.29-8.42-1.11-1.34-5.75,2.55,7.6-22.48,8.8,26.02.8,2.35-5.05-2.25-1.11,1.34,8.44,7.65,2.7,7.99-6.51-2.9-1.11,1.34,10.2,9.24-.04-.16.48,1.41h-13.36ZM1026.76,769.86l10.99,32.18.99,2.92-6.3-2.78-1.39,1.67,10.54,9.45,3.38,9.88-8.14-3.58-1.39,1.65,12.75,11.43-.04-.19.6,1.74h-17.85v10.55h-8.8v-10.55h-17.33l3.31-9.71,11.89-10.66-1.39-1.66-7.4,3.26,3.04-8.88,11.61-10.41-1.39-1.66-7.19,3.17,9.51-27.81h0Z"/>
          <path class="st9" d="M1012.4,837.89h-7.91v6.88h7.91v-6.88h0ZM1004.91,782.77c-6.7,0-12.15,5.35-12.15,11.95,0,1.72.37,3.34,1.03,4.82-2.96,1.86-4.93,5.12-4.93,8.83,0,4.48,2.86,8.31,6.88,9.8-.12.61-.2,1.23-.2,1.87,0,4.17,2.94,7.67,6.87,8.63l1.72-5.08.82-2.43c3.74-11.06,7.01-20.72,10.77-31.85-2.01-3.88-6.11-6.53-10.83-6.53h.02Z"/>
        </g>
        <g>
          <path class="st3" d="M1583.99,835.78v7.91h-8.91v-7.91h-12.93l2.65-7.85,9.52-8.61-1.11-1.35-5.93,2.64,2.43-7.18,9.3-8.42-1.12-1.34-5.75,2.55,7.61-22.48,8.8,26.02.81,2.35-5.06-2.25-1.11,1.34,8.44,7.65,2.7,7.99-6.51-2.9-1.11,1.34,10.2,9.24-.03-.16.47,1.41h-13.36,0ZM1630.04,769.86l10.99,32.18.99,2.92-6.3-2.78-1.38,1.67,10.54,9.45,3.39,9.88-8.15-3.58-1.38,1.65,12.74,11.43-.04-.19.59,1.74h-17.85v10.55h-8.8v-10.55h-17.32l3.31-9.7,11.89-10.67-1.39-1.66-7.4,3.26,3.03-8.89,11.61-10.41-1.39-1.66-7.19,3.17,9.51-27.81h0Z"/>
          <path class="st9" d="M1615.67,837.89h-7.91v6.88h7.91v-6.88h0ZM1608.19,782.77c-6.7,0-12.15,5.34-12.15,11.94,0,1.72.37,3.34,1.02,4.82-2.96,1.86-4.92,5.12-4.92,8.83,0,4.48,2.86,8.3,6.89,9.8-.13.61-.2,1.23-.2,1.87,0,4.17,2.94,7.67,6.87,8.63l1.72-5.08.82-2.43c3.74-11.06,7.01-20.72,10.78-31.85-2.01-3.88-6.11-6.53-10.83-6.53Z"/>
        </g>
        <g>
          <path class="st3" d="M859.26,713.7v7.91h-8.9v-7.91h-12.94l2.65-7.85,9.52-8.62-1.12-1.35-5.92,2.64,2.43-7.19,9.29-8.42-1.1-1.34-5.75,2.55,7.61-22.48,8.8,26.03.8,2.35-5.05-2.25-1.11,1.34,8.44,7.65,2.7,7.98-6.51-2.9-1.11,1.34,10.2,9.24-.03-.16.48,1.41h-13.37v.03h-.01ZM905.31,647.77l10.99,32.18.99,2.92-6.3-2.78-1.4,1.66,10.55,9.45,3.38,9.88-8.14-3.58-1.39,1.66,12.75,11.43-.04-.19.59,1.74h-17.85v10.54h-8.8v-10.54h-17.33l3.31-9.7,11.89-10.67-1.39-1.66-7.4,3.26,3.03-8.88,11.61-10.41-1.39-1.66-7.19,3.17,9.51-27.81h.02Z"/>
          <path class="st9" d="M890.95,715.8h-7.92v6.88h7.92v-6.88h0ZM883.46,660.68c-6.71,0-12.14,5.35-12.14,11.95,0,1.71.37,3.34,1.02,4.82-2.96,1.86-4.93,5.12-4.93,8.83,0,4.48,2.86,8.3,6.89,9.8-.13.6-.2,1.23-.2,1.87,0,4.18,2.94,7.67,6.88,8.63l1.72-5.08.82-2.43c3.75-11.06,7.01-20.72,10.78-31.85-2.01-3.88-6.11-6.53-10.83-6.53h-.01Z"/>
        </g>
        <g>
          <path class="st3" d="M736.04,348.23v7.91h-8.9v-7.91h-12.94l2.65-7.85,9.51-8.62-1.11-1.35-5.92,2.64,2.43-7.19,9.3-8.42-1.12-1.34-5.75,2.55,7.6-22.48,8.8,26.03.8,2.35-5.05-2.25-1.11,1.34,8.44,7.65,2.7,7.98-6.51-2.9-1.11,1.34,10.2,9.24-.04-.16.48,1.41h-13.36v.03h0ZM782.09,282.31l10.99,32.17.98,2.92-6.3-2.78-1.39,1.66,10.54,9.45,3.38,9.88-8.14-3.58-1.39,1.66,12.75,11.43-.04-.19.59,1.74h-17.86v10.54h-8.8v-10.54h-17.33l3.31-9.7,11.89-10.67-1.39-1.66-7.4,3.26,3.04-8.88,11.61-10.41-1.39-1.66-7.19,3.17,9.52-27.81h.02Z"/>
          <path class="st9" d="M767.72,350.33h-7.91v6.88h7.91v-6.88h0ZM760.24,295.22c-6.7,0-12.15,5.35-12.15,11.95,0,1.72.37,3.34,1.03,4.82-2.96,1.86-4.93,5.12-4.93,8.83,0,4.48,2.86,8.3,6.89,9.8-.13.6-.2,1.23-.2,1.88,0,4.17,2.94,7.67,6.88,8.62l1.72-5.08.82-2.43c3.74-11.06,7.01-20.72,10.77-31.85-2.01-3.88-6.11-6.53-10.83-6.53h0Z"/>
        </g>
        <path class="st21" d="M1159.07,445.53h-.45l-.37.37h-9.78l10.6,18.83h-.45l-.37.37h-15.08v13.9l-.88.81h-14.27l-.82-.81v-13.9h-15.88c.2-1.27,3.74-7.68,10.59-19.2h-10.59v-.81l23.69-40.38h.8l23.26,40.83h0ZM1112.49,439.43v.37c0,.83-1.07,3.28-3.22,7.35h7.34l.36.43c.46,1.08.87,1.62,1.26,1.62l-9.79,17.14h10.23l2.79,2.43-.81.8h-10.6v9.42l-.79.81h-9.8l-.8-.81v-9.42h-11.48l-.37-.37,7.73-13.46h-7.36l-.37-.43,17.14-29.79c.69.33,3.53,4.97,8.53,13.9h.01Z"/>
        <path class="st21" d="M1041.84,323.82h-.45l-.37.37h-9.77l10.59,18.83h-.45l-.37.37h-15.08v13.9l-.89.81h-14.27l-.81-.81v-13.9h-15.89c.2-1.27,3.74-7.68,10.6-19.2h-10.6v-.81l23.69-40.38h.8l23.26,40.83h.01ZM995.26,317.71v.36c0,.83-1.08,3.29-3.23,7.36h7.35l.37.44c.45,1.08.86,1.62,1.25,1.62l-9.79,17.14h10.23l2.8,2.42-.81.81h-10.59v9.42l-.81.81h-9.8l-.8-.81v-9.42h-11.48l-.37-.37,7.73-13.46h-7.36l-.37-.44,17.14-29.79c.69.34,3.53,4.98,8.53,13.91h0Z"/>
        <path class="st21" d="M1159.07,687.65h-.45l-.37.37h-9.78l10.6,18.83h-.45l-.37.37h-15.08v13.91l-.88.81h-14.27l-.82-.81v-13.91h-15.88c.2-1.27,3.74-7.68,10.59-19.2h-10.59v-.81l23.69-40.38h.8l23.26,40.83h0ZM1112.49,681.55v.37c0,.83-1.07,3.29-3.22,7.36h7.34l.36.43c.46,1.08.87,1.63,1.26,1.63l-9.79,17.14h10.23l2.79,2.42-.81.81h-10.6v9.42l-.79.81h-9.8l-.8-.81v-9.42h-11.48l-.37-.37,7.73-13.46h-7.36l-.37-.44,17.14-29.79c.69.34,3.53,4.98,8.53,13.91h.01Z"/>
        <path class="st21" d="M803.12,440.27h-.45l-.37.37h-9.77l10.59,18.83h-.45l-.37.37h-15.08v13.9l-.89.81h-14.27l-.81-.81v-13.9h-15.89c.2-1.27,3.74-7.68,10.59-19.2h-10.59v-.81l23.69-40.38h.8l23.26,40.83h.01ZM756.54,434.16v.37c0,.83-1.08,3.28-3.23,7.36h7.35l.37.43c.45,1.08.86,1.62,1.25,1.62l-9.79,17.14h10.23l2.79,2.42-.81.81h-10.59v9.42l-.81.81h-9.8l-.8-.81v-9.42h-11.48l-.37-.37,7.73-13.46h-7.36l-.37-.44,17.14-29.79c.68.34,3.53,4.97,8.53,13.9h.02,0Z"/>
        <path class="st21" d="M1282.47,810.76h-.45l-.37.37h-9.77l10.58,18.83h-.45l-.37.37h-15.08v13.9l-.89.81h-14.27l-.81-.81v-13.9h-15.89c.2-1.27,3.74-7.68,10.6-19.2h-10.6v-.81l23.69-40.38h.81l23.25,40.82h.02ZM1235.9,804.66v.36c0,.83-1.08,3.29-3.23,7.36h7.34l.37.44c.45,1.08.86,1.62,1.25,1.62l-9.79,17.14h10.24l2.79,2.42-.82.81h-10.59v9.42l-.8.81h-9.8l-.81-.81v-9.42h-11.47l-.37-.37,7.74-13.46h-7.36l-.37-.44,17.14-29.8c.69.34,3.53,4.98,8.53,13.91h.01Z"/>
        <path class="st21" d="M1763.29,810.76h-.46l-.36.37h-9.78l10.6,18.83h-.46l-.36.37h-15.08v13.9l-.88.81h-14.27l-.81-.81v-13.9h-15.88c.2-1.27,3.74-7.68,10.59-19.2h-10.59v-.81l23.69-40.38h.8l23.26,40.82h-.01ZM1716.72,804.66v.36c0,.83-1.08,3.29-3.23,7.36h7.35l.36.44c.45,1.08.87,1.62,1.26,1.62l-9.78,17.14h10.23l2.8,2.42-.82.81h-10.59v9.42l-.8.81h-9.79l-.8-.81v-9.42h-11.48l-.37-.37,7.73-13.46h-7.36l-.37-.44,17.14-29.8c.69.34,3.53,4.98,8.53,13.91h-.01Z"/>
        <g>
          <path class="st3" d="M983.32,955.69v7.91h-8.91v-7.91h-12.93l2.65-7.85,9.51-8.62-1.11-1.35-5.92,2.64,2.43-7.19,9.29-8.41-1.11-1.34-5.75,2.55,7.6-22.48,8.8,26.03.8,2.35-5.05-2.25-1.11,1.34,8.44,7.65,2.7,7.99-6.51-2.9-1.11,1.34,10.2,9.24-.04-.16.48,1.41h-13.36,0ZM1029.37,889.76l10.99,32.18.99,2.92-6.3-2.78-1.39,1.67,10.54,9.45,3.38,9.88-8.14-3.58-1.39,1.66,12.74,11.43-.04-.19.59,1.74h-17.85v10.54h-8.8v-10.54h-17.32l3.31-9.7,11.89-10.67-1.39-1.65-7.4,3.26,3.04-8.88,11.61-10.41-1.39-1.66-7.18,3.17,9.51-27.81h0v-.03h0Z"/>
          <path class="st9" d="M1015,957.79h-7.91v6.88h7.91v-6.88h0ZM1007.52,902.68c-6.7,0-12.15,5.34-12.15,11.95,0,1.71.37,3.33,1.03,4.82-2.96,1.85-4.93,5.11-4.93,8.83,0,4.48,2.86,8.31,6.88,9.8-.12.6-.2,1.23-.2,1.87,0,4.17,2.94,7.67,6.88,8.62l1.72-5.08.83-2.43c3.74-11.06,7.01-20.72,10.78-31.85-2.01-3.88-6.11-6.53-10.83-6.53h-.01Z"/>
        </g>
        <g>
          <path class="st3" d="M983.32,1073.62v7.91h-8.91v-7.91h-12.93l2.65-7.85,9.51-8.61-1.11-1.35-5.92,2.64,2.43-7.19,9.29-8.41-1.11-1.33-5.75,2.55,7.6-22.48,8.8,26.03.8,2.35-5.05-2.25-1.11,1.34,8.44,7.65,2.7,7.99-6.51-2.9-1.11,1.34,10.2,9.24-.04-.16.48,1.41h-13.36,0ZM1029.37,1007.69l10.99,32.18.99,2.92-6.3-2.78-1.39,1.67,10.54,9.45,3.38,9.88-8.14-3.58-1.39,1.65,12.74,11.43-.04-.19.59,1.73h-17.85v10.55h-8.8v-10.55h-17.32l3.31-9.7,11.89-10.66-1.39-1.66-7.4,3.27,3.04-8.89,11.61-10.41-1.39-1.66-7.18,3.17,9.51-27.81h0Z"/>
          <path class="st9" d="M1015,1075.72h-7.91v6.88h7.91v-6.88h0ZM1007.52,1020.61c-6.7,0-12.15,5.35-12.15,11.95,0,1.71.37,3.34,1.03,4.82-2.96,1.86-4.93,5.12-4.93,8.83,0,4.48,2.86,8.31,6.88,9.8-.12.6-.2,1.22-.2,1.87,0,4.17,2.94,7.67,6.88,8.63l1.72-5.08.83-2.43c3.74-11.07,7.01-20.72,10.78-31.85-2.01-3.88-6.11-6.53-10.83-6.53h-.01Z"/>
        </g>
        <path class="st23" d="M1765.74,1047.2h-.45l-.37.37h-9.77l10.59,18.83h-.45l-.37.37h-15.08v13.9l-.89.81h-14.27l-.81-.81v-13.9h-15.89c.2-1.27,3.74-7.68,10.6-19.2h-10.6v-.81l23.7-40.38h.81l23.25,40.83h0ZM1719.16,1041.09v.36c0,.83-1.08,3.29-3.23,7.36h7.35l.36.44c.46,1.08.87,1.62,1.26,1.62l-9.79,17.14h10.23l2.79,2.42-.81.81h-10.59v9.42l-.81.81h-9.8l-.8-.81v-9.42h-11.48l-.36-.37,7.73-13.46h-7.37l-.36-.44,17.14-29.8c.69.34,3.54,4.98,8.54,13.91h0Z"/>
        <path class="st23" d="M1282.46,1047.2h-.45l-.37.37h-9.77l10.59,18.83h-.45l-.37.37h-15.08v13.91l-.88.81h-14.27l-.81-.81v-13.91h-15.89c.21-1.27,3.75-7.68,10.61-19.2h-10.61v-.81l23.7-40.38h.81l23.25,40.83h-.01ZM1235.88,1041.09v.36c0,.83-1.08,3.29-3.23,7.36h7.35l.36.44c.46,1.08.87,1.62,1.26,1.62l-9.79,17.14h10.24l2.79,2.42-.81.81h-10.59v9.42l-.81.81h-9.8l-.8-.81v-9.42h-11.48l-.36-.37,7.73-13.46h-7.37l-.36-.44,17.14-29.8c.69.34,3.54,4.98,8.54,13.91h0Z"/>
        <g>
          <path class="st5" d="M1464.85,954.28v7.91h-8.9v-7.91h-12.93l2.65-7.85,9.51-8.61-1.11-1.35-5.92,2.64,2.43-7.19,9.29-8.41-1.11-1.34-5.74,2.55,7.6-22.48,8.8,26.03.81,2.35-5.05-2.25-1.11,1.34,8.44,7.65,2.7,7.98-6.51-2.9-1.11,1.34,10.2,9.24-.03-.16.48,1.41h-13.39,0ZM1510.89,888.35l10.99,32.18.99,2.92-6.3-2.78-1.39,1.66,10.54,9.45,3.38,9.88-8.14-3.58-1.39,1.66,12.75,11.43-.04-.19.6,1.73h-17.86v10.55h-8.8v-10.55h-17.32l3.31-9.7,11.89-10.66-1.39-1.65-7.4,3.26,3.04-8.89,11.61-10.41-1.39-1.66-7.19,3.17,9.51-27.81h0Z"/>
          <path class="st5" d="M1496.53,956.38h-7.91v6.88h7.91v-6.88h0ZM1489.04,901.27c-6.7,0-12.15,5.35-12.15,11.95,0,1.71.37,3.34,1.03,4.82-2.96,1.86-4.93,5.12-4.93,8.83,0,4.48,2.86,8.31,6.88,9.8-.13.6-.2,1.23-.2,1.87,0,4.18,2.94,7.67,6.88,8.63l1.72-5.08.82-2.43c3.74-11.07,7.01-20.72,10.78-31.85-2.01-3.88-6.11-6.53-10.83-6.53h0Z"/>
        </g>
        <path class="st21" d="M1768.07,567.33h-.46l-.36.37h-9.78l10.59,18.83h-.46l-.36.37h-15.07v13.9l-.89.81h-14.27l-.82-.81v-13.9h-15.88c.2-1.27,3.74-7.68,10.6-19.2h-10.6v-.81l23.69-40.38h.81l23.25,40.83h0ZM1721.5,561.23v.36c0,.83-1.08,3.29-3.23,7.36h7.35l.36.44c.46,1.08.87,1.62,1.26,1.62l-9.79,17.14h10.23l2.79,2.42-.81.81h-10.6v9.42l-.8.81h-9.8l-.8-.81v-9.42h-11.48l-.37-.37,7.73-13.46h-7.36l-.37-.44,17.14-29.79c.68.33,3.53,4.97,8.53,13.9h.02Z"/>
        <path class="st21" d="M1038.67,567.33h-.46l-.36.37h-9.78l10.6,18.83h-.46l-.36.37h-15.08v13.9l-.89.81h-14.27l-.82-.81v-13.9h-15.88c.2-1.27,3.74-7.68,10.6-19.2h-10.6v-.81l23.69-40.38h.8l23.26,40.83h.01ZM992.1,561.23v.36c0,.83-1.08,3.29-3.23,7.36h7.35l.36.44c.46,1.08.87,1.62,1.26,1.62l-9.79,17.14h10.23l2.79,2.42-.81.81h-10.6v9.42l-.8.81h-9.79l-.8-.81v-9.42h-11.48l-.37-.37,7.73-13.46h-7.36l-.37-.44,17.14-29.79c.68.33,3.53,4.97,8.53,13.9h0Z"/>
        <path class="st21" d="M553.09,567.33h-.46l-.36.37h-9.78l10.6,18.83h-.46l-.36.37h-15.08v13.9l-.89.81h-14.27l-.82-.81v-13.9h-15.88c.2-1.27,3.74-7.68,10.6-19.2h-10.6v-.81l23.69-40.38h.8l23.26,40.83h.01ZM506.51,561.23v.36c0,.83-1.08,3.29-3.23,7.36h7.35l.36.44c.46,1.08.87,1.62,1.26,1.62l-9.79,17.14h10.23l2.79,2.42-.81.81h-10.6v9.42l-.8.81h-9.79l-.8-.81v-9.42h-11.48l-.37-.37,7.73-13.46h-7.36l-.37-.44,17.14-29.79c.68.33,3.53,4.97,8.53,13.9h0Z"/>
        <g>
          <path class="st3" d="M1460.57,469.7v7.91h-8.9v-7.91h-12.93l2.65-7.85,9.51-8.62-1.11-1.35-5.92,2.65,2.43-7.19,9.29-8.42-1.11-1.34-5.75,2.55,7.6-22.48,8.8,26.03.8,2.35-5.05-2.25-1.11,1.34,8.44,7.65,2.7,7.99-6.51-2.9-1.11,1.34,10.2,9.24-.03-.16.48,1.42h-13.37,0ZM1506.61,403.77l10.99,32.18.99,2.92-6.3-2.78-1.39,1.67,10.54,9.45,3.38,9.88-8.14-3.58-1.39,1.66,12.75,11.43-.04-.19.59,1.74h-17.85v10.54h-8.8v-10.54h-17.32l3.31-9.71,11.89-10.66-1.39-1.66-7.4,3.26,3.04-8.88,11.61-10.4-1.39-1.66-7.19,3.17,9.51-27.81h0v-.03h0Z"/>
          <path class="st9" d="M1492.25,471.8h-7.91v6.88h7.91v-6.88h0ZM1484.76,416.69c-6.7,0-12.15,5.34-12.15,11.94,0,1.71.37,3.34,1.03,4.82-2.96,1.86-4.93,5.12-4.93,8.83,0,4.48,2.86,8.3,6.88,9.8-.12.6-.2,1.23-.2,1.88,0,4.17,2.94,7.67,6.88,8.62l1.72-5.08.82-2.43c3.74-11.06,7.01-20.72,10.78-31.85-2.01-3.88-6.11-6.53-10.83-6.53Z"/>
        </g>
        <g>
          <path class="st5" d="M1342.57,226.52v7.91h-8.9v-7.91h-12.94l2.66-7.85,9.51-8.62-1.12-1.35-5.92,2.64,2.43-7.19,9.29-8.42-1.11-1.34-5.75,2.55,7.61-22.48,8.8,26.03.8,2.35-5.05-2.25-1.12,1.34,8.45,7.65,2.7,7.99-6.51-2.9-1.12,1.34,10.2,9.24-.03-.16.48,1.41h-13.37v.02h.01ZM1388.62,160.59l10.99,32.18.99,2.92-6.3-2.78-1.39,1.67,10.54,9.45,3.38,9.88-8.14-3.58-1.39,1.66,12.75,11.43-.04-.19.59,1.74h-17.85v10.55h-8.8v-10.55h-17.32l3.31-9.7,11.88-10.67-1.39-1.66-7.4,3.26,3.04-8.88,11.61-10.41-1.39-1.66-7.19,3.17,9.51-27.81h0v-.02h.01Z"/>
          <path class="st5" d="M1374.25,228.62h-7.92v6.88h7.92v-6.88h0ZM1366.77,173.5c-6.71,0-12.15,5.35-12.15,11.95,0,1.71.36,3.34,1.03,4.82-2.96,1.86-4.93,5.12-4.93,8.83,0,4.48,2.87,8.3,6.89,9.8-.12.6-.2,1.23-.2,1.87,0,4.17,2.94,7.67,6.87,8.63l1.73-5.08.82-2.43c3.74-11.06,7.01-20.72,10.78-31.85-2.01-3.88-6.11-6.53-10.83-6.53h-.01Z"/>
        </g>
        <g>
          <path class="st0" d="M1580.72,561.93v32.31h-6.08v7.78h63.73v-7.78h-7.05v-32.31l-26.31-14.59-24.3,14.59h.01Z"/>
          <path class="st8" d="M1619.82,537.28h8.53v9.06l15.87,9.21-3.91,6.76-35.01-20.32-34.22,21.39-4.13-6.64,36.21-22.63,1.99-1.24,2.03,1.18,12.66,7.35v-4.12h-.02Z"/>
          <g>
            <rect class="st22" x="1594.94" y="563.63" width="9.19" height="9.19"/>
            <rect class="st22" x="1607.79" y="563.63" width="9.19" height="9.19"/>
            <rect class="st22" x="1594.94" y="576.49" width="9.19" height="9.18"/>
            <rect class="st22" x="1607.79" y="576.49" width="9.19" height="9.18"/>
          </g>
        </g>
        <g>
          <path class="st0" d="M1340.69,561.37v32.31h-6.08v7.78h63.74v-7.78h-7.05v-32.31l-26.3-14.59-24.3,14.59h0Z"/>
          <path class="st8" d="M1379.8,536.72h8.53v9.06l15.87,9.21-3.92,6.76-35.02-20.32-34.22,21.39-4.13-6.64,36.21-22.63,1.99-1.24,2.03,1.18,12.66,7.35v-4.12h0Z"/>
          <g>
            <rect class="st22" x="1354.91" y="563.08" width="9.19" height="9.19"/>
            <rect class="st22" x="1367.76" y="563.08" width="9.19" height="9.19"/>
            <rect class="st22" x="1354.91" y="575.93" width="9.19" height="9.19"/>
            <rect class="st22" x="1367.76" y="575.93" width="9.19" height="9.19"/>
          </g>
        </g>
        <g>
          <path class="st0" d="M1343.35,682.85v32.31h-6.08v7.78h63.73v-7.78h-7.04v-32.31l-26.31-14.59-24.29,14.59h0Z"/>
          <path class="st8" d="M1382.45,658.19h8.53v9.06l15.86,9.21-3.91,6.76-35.01-20.32-34.22,21.39-4.12-6.64,36.21-22.63,1.98-1.24,2.04,1.18,12.66,7.34v-4.12h-.02Z"/>
          <g>
            <rect class="st22" x="1357.57" y="684.55" width="9.19" height="9.19"/>
            <rect class="st22" x="1370.42" y="684.55" width="9.19" height="9.19"/>
            <rect class="st22" x="1357.57" y="697.41" width="9.19" height="9.18"/>
            <rect class="st22" x="1370.42" y="697.41" width="9.19" height="9.18"/>
          </g>
        </g>
        <g>
          <path class="st0" d="M1218.16,440.56v32.31h-6.08v7.78h63.74v-7.78h-7.05v-32.31l-26.3-14.59-24.3,14.59h0Z"/>
          <path class="st8" d="M1257.26,415.9h8.52v9.06l15.87,9.21-3.91,6.76-35.02-20.32-34.21,21.39-4.13-6.64,36.21-22.63,1.99-1.24,2.03,1.18,12.66,7.35v-4.12h-.01Z"/>
          <g>
            <rect class="st22" x="1232.38" y="442.25" width="9.19" height="9.19"/>
            <rect class="st22" x="1245.23" y="442.25" width="9.18" height="9.19"/>
            <rect class="st22" x="1232.38" y="455.11" width="9.19" height="9.18"/>
            <rect class="st22" x="1245.23" y="455.11" width="9.18" height="9.18"/>
          </g>
        </g>
        <g>
          <rect class="st27" x="1465.44" y="531.18" width="41.99" height="7.59"/>
          <rect class="st27" x="1481.91" y="537.79" width="9.06" height="62.94"/>
        </g>
        <g>
          <path class="st0" d="M1103.74,316.97v32.31h-6.08v7.78h63.73v-7.78h-7.05v-32.31l-26.31-14.59-24.3,14.59h.01Z"/>
          <path class="st8" d="M1142.84,292.32h8.53v9.06l15.87,9.21-3.91,6.76-35.02-20.32-34.22,21.39-4.13-6.64,36.21-22.63,1.99-1.24,2.03,1.18,12.66,7.35v-4.12h-.01Z"/>
          <g>
            <rect class="st22" x="1117.96" y="318.67" width="9.19" height="9.19"/>
            <rect class="st22" x="1130.81" y="318.67" width="9.19" height="9.19"/>
            <rect class="st22" x="1117.96" y="331.53" width="9.19" height="9.18"/>
            <rect class="st22" x="1130.81" y="331.53" width="9.19" height="9.18"/>
          </g>
        </g>
        <g>
          <path class="st0" d="M1103.74,196.98v32.31h-6.08v7.78h63.73v-7.78h-7.05v-32.31l-26.31-14.59-24.3,14.59h.01Z"/>
          <path class="st8" d="M1142.84,172.32h8.53v9.06l15.87,9.21-3.91,6.76-35.02-20.32-34.22,21.39-4.13-6.64,36.21-22.63,1.99-1.24,2.03,1.18,12.66,7.35v-4.12h-.01Z"/>
          <g>
            <rect class="st22" x="1117.96" y="198.68" width="9.19" height="9.19"/>
            <rect class="st22" x="1130.81" y="198.68" width="9.19" height="9.19"/>
            <rect class="st22" x="1117.96" y="211.53" width="9.19" height="9.19"/>
            <rect class="st22" x="1130.81" y="211.53" width="9.19" height="9.19"/>
          </g>
        </g>
        <g>
          <path class="st0" d="M1098.09,560.59v32.31h-6.08v7.78h63.73v-7.78h-7.04v-32.31l-26.31-14.59-24.29,14.59h0Z"/>
          <path class="st8" d="M1137.19,535.94h8.53v9.06l15.86,9.21-3.92,6.76-35.01-20.32-34.23,21.39-4.12-6.64,36.21-22.63,1.98-1.24,2.03,1.18,12.66,7.35v-4.12h.01Z"/>
          <g>
            <rect class="st22" x="1112.31" y="562.29" width="9.19" height="9.19"/>
            <rect class="st22" x="1125.16" y="562.29" width="9.2" height="9.19"/>
            <rect class="st22" x="1112.31" y="575.15" width="9.19" height="9.19"/>
            <rect class="st22" x="1125.16" y="575.15" width="9.2" height="9.19"/>
          </g>
        </g>
        <g>
          <path class="st0" d="M732.22,561.37v32.31h-6.08v7.78h63.73v-7.78h-7.05v-32.31l-26.31-14.59-24.3,14.59h.01Z"/>
          <path class="st8" d="M771.32,536.72h8.53v9.06l15.87,9.21-3.91,6.76-35.02-20.32-34.22,21.39-4.13-6.64,36.21-22.63,1.99-1.24,2.03,1.18,12.66,7.35v-4.12h-.01Z"/>
          <g>
            <rect class="st22" x="746.44" y="563.08" width="9.19" height="9.19"/>
            <rect class="st22" x="759.29" y="563.08" width="9.19" height="9.19"/>
            <rect class="st22" x="746.44" y="575.93" width="9.19" height="9.18"/>
            <rect class="st22" x="759.29" y="575.93" width="9.19" height="9.18"/>
          </g>
        </g>
        <g>
          <polygon class="st13" points="1211.97 183.62 1211.97 233.11 1282.45 233.11 1282.45 183.62 1247.21 183.62 1230.03 164.52 1211.97 183.62"/>
          <polygon class="st4" points="1223.68 208.97 1223.68 218.69 1228.1 218.69 1228.1 208.97 1223.68 208.97 1223.68 208.97"/>
          <polygon class="st4" points="1230.03 208.97 1230.03 218.69 1234.45 218.69 1234.45 208.97 1230.03 208.97 1230.03 208.97"/>
          <polygon class="st4" points="1223.68 187.76 1223.68 197.48 1228.1 197.48 1228.1 187.76 1223.68 187.76 1223.68 187.76"/>
          <rect class="st22" x="1230.03" y="187.76" width="4.42" height="9.72"/>
          <polygon class="st4" points="1259.85 192.76 1259.85 202.49 1264.27 202.49 1264.27 192.76 1259.85 192.76 1259.85 192.76"/>
          <polygon class="st4" points="1266.2 192.76 1266.2 202.49 1270.62 202.49 1270.62 192.76 1266.2 192.76 1266.2 192.76"/>
          <polygon class="st0" points="1279.15 183.62 1279.15 230.41 1276.91 230.41 1276.91 228.97 1273.57 228.97 1273.57 225.5 1269.81 225.5 1269.81 208.45 1260.64 208.45 1260.64 225.5 1256.88 225.5 1256.88 228.97 1253.4 228.97 1253.4 230.41 1250.49 230.41 1250.49 183.62 1244.08 179.86 1244.08 230.41 1215.42 230.41 1215.42 179.86 1209.01 183.62 1209.01 233.61 1209.01 236.82 1212.23 236.82 1244.08 236.82 1247.29 236.82 1250.49 236.82 1282.36 236.82 1285.56 236.82 1285.56 233.61 1285.56 183.62 1279.15 183.62"/>
          <polygon class="st8" points="1209.01 188.01 1229.75 168.62 1250.49 188.32 1252.76 190.58 1256.39 186.96 1279.15 186.96 1285.56 186.96 1289.48 186.96 1290.32 183.85 1275.38 166.87 1241.91 166.87 1251.18 179.14 1249.45 179.14 1231.35 161.04 1229.75 159.37 1229.72 159.41 1229.58 159.27 1226.26 162.58 1226.26 162.58 1202.37 186.52 1206.45 190.58 1209.01 188.01"/>
        </g>
        <path class="st6" d="M1481.99,547.04c0,4.57-3.7,8.28-8.28,8.28s-8.27-3.71-8.27-8.28,3.71-8.27,8.27-8.27,8.28,3.7,8.28,8.27Z"/>
        <path class="st6" d="M1507.69,547.04c0,4.57-3.7,8.28-8.27,8.28s-8.27-3.71-8.27-8.28,3.71-8.27,8.27-8.27,8.27,3.7,8.27,8.27Z"/>
        <g>
          <rect class="st27" x="977.15" y="411.25" width="41.99" height="7.59"/>
          <rect class="st27" x="993.62" y="417.86" width="9.06" height="62.94"/>
        </g>
        <path class="st6" d="M993.7,427.11c0,4.57-3.7,8.28-8.27,8.28s-8.27-3.71-8.27-8.28,3.7-8.27,8.27-8.27,8.27,3.7,8.27,8.27Z"/>
        <path class="st6" d="M1019.4,427.11c0,4.57-3.7,8.28-8.27,8.28s-8.27-3.71-8.27-8.28,3.71-8.27,8.27-8.27,8.27,3.7,8.27,8.27Z"/>
        <g>
          <rect class="st27" x="1345.51" y="287.03" width="41.99" height="7.59"/>
          <rect class="st27" x="1361.98" y="293.65" width="9.05" height="62.94"/>
        </g>
        <path class="st6" d="M1362.06,302.89c0,4.57-3.7,8.28-8.27,8.28s-8.27-3.7-8.27-8.28,3.71-8.27,8.27-8.27,8.27,3.7,8.27,8.27Z"/>
        <path class="st6" d="M1387.76,302.89c0,4.57-3.7,8.28-8.27,8.28s-8.27-3.7-8.27-8.28,3.7-8.27,8.27-8.27,8.27,3.7,8.27,8.27Z"/>
        <g>
          <g>
            <rect class="st27" x="1221.3" y="655.39" width="41.99" height="7.59"/>
            <rect class="st27" x="1237.76" y="662.01" width="9.05" height="62.94"/>
          </g>
          <path class="st6" d="M1237.84,671.25c0,4.57-3.7,8.28-8.28,8.28s-8.27-3.71-8.27-8.28,3.71-8.27,8.27-8.27,8.28,3.7,8.28,8.27Z"/>
          <path class="st6" d="M1263.55,671.25c0,4.57-3.7,8.28-8.27,8.28s-8.27-3.71-8.27-8.28,3.71-8.27,8.27-8.27,8.27,3.7,8.27,8.27Z"/>
        </g>
        <g>
          <rect class="st19" x="607.77" y="557.05" width="61.65" height="38.78"/>
          <g>
            <rect class="st22" x="656.18" y="579" width="6.59" height="8.61"/>
            <rect class="st22" x="656.18" y="566.07" width="6.59" height="8.61"/>
            <polygon class="st4" points="628.6 587.6 635.21 587.61 635.21 579 628.6 578.99 628.6 587.6"/>
            <polygon class="st4" points="628.6 574.68 635.21 574.68 635.21 566.07 628.6 566.07 628.6 574.68"/>
            <rect class="st22" x="615.16" y="578.99" width="6.61" height="8.61"/>
            <rect class="st22" x="615.16" y="566.07" width="6.61" height="8.61"/>
          </g>
          <polygon class="st8" points="681.48 559.61 674.96 536.36 626.05 536.35 626.05 534.67 628.68 534.67 628.68 529.22 615.04 529.22 615.04 534.67 617.88 534.67 617.88 546.21 617.05 546.65 613.74 536.35 604.72 536.35 596.58 559.61 681.48 559.61"/>
          <polygon class="st0" points="674.19 559.61 667.68 559.62 667.68 593.64 650.88 593.64 650.88 579 641.23 579 641.23 593.64 610 593.64 610 559.62 603.49 559.61 603.49 593.64 601.87 593.64 601.87 601.35 603.49 601.35 606.74 601.35 670.93 601.36 674.19 601.36 675.56 601.36 675.56 593.64 674.19 593.64 674.19 559.61"/>
        </g>
        <g>
          <polygon class="st13" points="604.66 668.85 604.66 718.35 675.13 718.35 675.13 668.85 639.9 668.85 622.72 649.75 604.66 668.85"/>
          <polygon class="st4" points="616.36 694.2 616.36 703.93 620.78 703.93 620.78 694.2 616.36 694.2 616.36 694.2"/>
          <polygon class="st4" points="622.72 694.2 622.72 703.93 627.14 703.93 627.14 694.2 622.72 694.2 622.72 694.2"/>
          <polygon class="st4" points="616.36 673 616.36 682.71 620.78 682.71 620.78 673 616.36 673 616.36 673"/>
          <rect class="st22" x="622.72" y="673" width="4.42" height="9.72"/>
          <polygon class="st4" points="652.54 678 652.54 687.73 656.95 687.73 656.95 678 652.54 678 652.54 678"/>
          <polygon class="st4" points="658.88 678 658.88 687.73 663.31 687.73 663.31 678 658.88 678 658.88 678"/>
          <polygon class="st0" points="671.83 668.85 671.83 715.65 669.59 715.65 669.59 714.21 666.26 714.21 666.26 710.73 662.49 710.73 662.49 693.68 653.33 693.68 653.33 710.73 649.57 710.73 649.57 714.21 646.08 714.21 646.08 715.65 643.17 715.65 643.17 668.85 636.77 665.1 636.77 715.65 608.11 715.65 608.11 665.1 601.7 668.85 601.7 718.85 601.7 722.06 604.91 722.06 636.77 722.06 639.98 722.06 643.17 722.06 675.04 722.06 678.25 722.06 678.25 718.85 678.25 668.85 671.83 668.85"/>
          <polygon class="st8" points="601.7 673.25 622.44 653.86 643.17 673.55 645.44 675.82 649.07 672.2 671.83 672.2 678.25 672.2 682.17 672.2 683 669.09 668.06 652.1 634.6 652.1 643.87 664.37 642.14 664.37 624.03 646.28 622.44 644.6 622.4 644.65 622.27 644.51 618.95 647.81 618.94 647.81 595.05 671.75 599.14 675.82 601.7 673.25"/>
        </g>
        <g>
          <polygon class="st13" points="359.48 668.85 359.48 718.35 429.95 718.35 429.95 668.85 394.71 668.85 377.53 649.75 359.48 668.85"/>
          <polygon class="st4" points="371.18 694.2 371.18 703.93 375.6 703.93 375.6 694.2 371.18 694.2 371.18 694.2"/>
          <polygon class="st4" points="377.53 694.2 377.53 703.93 381.95 703.93 381.95 694.2 377.53 694.2 377.53 694.2"/>
          <polygon class="st4" points="371.18 673 371.18 682.71 375.6 682.71 375.6 673 371.18 673 371.18 673"/>
          <rect class="st22" x="377.53" y="673" width="4.42" height="9.72"/>
          <polygon class="st4" points="407.35 678 407.35 687.73 411.77 687.73 411.77 678 407.35 678 407.35 678"/>
          <polygon class="st4" points="413.7 678 413.7 687.73 418.12 687.73 418.12 678 413.7 678 413.7 678"/>
          <polygon class="st0" points="426.65 668.85 426.65 715.65 424.41 715.65 424.41 714.21 421.07 714.21 421.07 710.73 417.31 710.73 417.31 693.68 408.14 693.68 408.14 710.73 404.38 710.73 404.38 714.21 400.9 714.21 400.9 715.65 397.99 715.65 397.99 668.85 391.58 665.1 391.58 715.65 362.92 715.65 362.92 665.1 356.51 668.85 356.51 718.85 356.51 722.06 359.72 722.06 391.58 722.06 394.79 722.06 397.99 722.06 429.86 722.06 433.06 722.06 433.06 718.85 433.06 668.85 426.65 668.85"/>
          <polygon class="st8" points="356.51 673.25 377.25 653.86 397.99 673.55 400.26 675.82 403.89 672.2 426.65 672.2 433.06 672.2 436.98 672.2 437.82 669.09 422.88 652.1 389.42 652.1 398.69 664.37 396.95 664.37 378.85 646.28 377.25 644.6 377.22 644.65 377.08 644.51 373.77 647.81 373.76 647.81 349.87 671.75 353.95 675.82 356.51 673.25"/>
        </g>
        <g>
          <path class="st0" d="M676.8,428.62v50.99h-28.68v-23.65c-5.94-3.56-11.69-3.76-17.23,0v23.65h-30.06v-50.99h75.97,0Z"/>
          <path class="st2" d="M648.12,479.61v-23.65c-5.94-3.56-11.69-3.76-17.23,0v23.65h17.23Z"/>
          <g>
            <polygon class="st4" points="667.66 455.96 657.03 455.96 657.03 467.91 654.7 467.91 654.7 470.1 670.05 470.1 670.05 467.91 667.66 467.91 667.66 455.96"/>
            <polygon class="st4" points="667.66 446.29 667.66 434.34 657.03 434.34 657.03 446.29 654.7 446.29 654.7 448.48 670.05 448.48 670.05 446.29 667.66 446.29"/>
            <polygon class="st4" points="644.66 434.34 634.01 434.34 634.01 446.29 631.69 446.29 631.69 448.48 647.05 448.48 647.05 446.29 644.66 446.29 644.66 434.34"/>
            <polygon class="st4" points="620.56 455.96 609.91 455.96 609.91 467.91 607.59 467.91 607.59 470.1 622.95 470.1 622.95 467.91 620.56 467.91 620.56 455.96"/>
            <polygon class="st4" points="620.56 434.34 609.91 434.34 609.91 446.29 607.59 446.29 607.59 448.48 622.95 448.48 622.95 446.29 620.56 446.29 620.56 434.34"/>
          </g>
          <polygon class="st8" points="682.26 428.62 675.69 413.59 602.36 413.59 595.16 428.62 682.26 428.62"/>
        </g>
        <g>
          <path class="st18" d="M999.22,413.1c-.36-.62-.72-1.23-1.08-1.85.7-.12,1.41-.24,2.11-.36"/>
          <path class="st15" d="M1004.44,410.15c201.03-35.52,335.19-108.62,358.64-122.06"/>
          <path class="st18" d="M1364.92,287.03c1.22-.71,1.84-1.09,1.84-1.09,0,0,.2.7.61,2.05"/>
          <path class="st17" d="M1368.62,292.07c8.37,26.78,45.23,136.57,115.31,234.8"/>
          <path class="st18" d="M1485.18,528.62c.42.58.83,1.16,1.25,1.74l-1.53,1.5"/>
          <path class="st16" d="M1481.8,534.83c-98.75,93.45-238.79,120.56-238.79,120.56,0,0-142.83-71.07-242.7-240.45"/>
        </g>
        <g>
          <path class="st0" d="M555.48,667.69v54.81h-30.83v-25.42c-6.38-3.81-12.57-4.04-18.52,0v25.42h-32.31v-54.81h81.66Z"/>
          <path class="st2" d="M524.65,722.5v-25.42c-6.38-3.81-12.57-4.04-18.52,0v25.42h18.52Z"/>
          <g>
            <polygon class="st4" points="545.66 697.08 534.23 697.08 534.23 709.93 531.73 709.93 531.73 712.28 548.23 712.28 548.23 709.93 545.66 709.93 545.66 697.08"/>
            <polygon class="st4" points="545.66 686.68 545.66 673.84 534.23 673.84 534.23 686.68 531.73 686.68 531.73 689.04 548.23 689.04 548.23 686.68 545.66 686.68"/>
            <polygon class="st4" points="520.94 673.84 509.48 673.84 509.48 686.68 507 686.68 507 689.04 523.5 689.04 523.5 686.68 520.94 686.68 520.94 673.84"/>
            <polygon class="st4" points="495.02 697.08 483.59 697.08 483.59 709.93 481.09 709.93 481.09 712.28 497.6 712.28 497.6 709.93 495.02 709.93 495.02 697.08"/>
            <polygon class="st4" points="495.02 673.84 483.59 673.84 483.59 686.68 481.09 686.68 481.09 689.04 497.6 689.04 497.6 686.68 495.02 686.68 495.02 673.84"/>
          </g>
          <polygon class="st8" points="561.35 667.69 554.29 651.54 475.47 651.54 467.74 667.69 561.35 667.69"/>
        </g>
        <path class="st1" d="M529.81,676.04v2.43h1.62c1.97,0,3.76.8,5.04,2.1,1.29,1.29,2.1,3.08,2.1,5.04v8.65c0,1.97-.81,3.75-2.1,5.04s-3.08,2.09-5.04,2.09h-1.62v1.07c0,1.61-.65,3.06-1.71,4.11h0c-1.05,1.06-2.51,1.71-4.1,1.71h-19.04c-1.59,0-3.04-.65-4.1-1.71h0c-1.05-1.06-1.71-2.51-1.71-4.11v-28.67h30.66v2.25h0ZM518.94,682.35v16.6h1.91v-16.6h-1.91ZM513.38,682.35v16.6h1.91v-16.6h-1.91ZM507.66,682.35v16.6h1.92v-16.6h-1.92ZM499.57,672.1c-1.14-1.6-1.67-3.01-1.61-5.05.04-1.31.4-2.58,1.09-3.67.69-1.11,1.7-2.03,3-2.6,1.55-.67,3.5-.85,5.82-.25.65-.64,1.39-1.14,2.21-1.51,1.27-.57,2.7-.8,4.08-.62,1.45.19,2.84.83,3.97,1.97.3.31.58.65.83,1.02.55-.23,1.1-.38,1.66-.47,1.67-.27,3.31.06,4.76.87,1.39.77,2.59,2,3.43,3.57.94,1.78,1.44,4.08,1.2,6.6h-4.96c.18-1.91-.23-4.59-2.05-5.59-.49-.27-1.05-.39-1.6-.3-.61.1-1.25.43-1.85,1.02l-4.19-1.4c-.14-.75-.4-1.28-.74-1.62-.3-.3-.68-.47-1.09-.53-.47-.06-.98.02-1.45.23-.49.22-.91.58-1.17,1.04l-1.07,1.93-2.01-.8c-1.75-.7-3.01-.74-3.84-.38-.34.15-.59.37-.75.63-.86,1.37,1.49,4.87,2.38,5.78l-6.06.1h0v.03h.01ZM529.81,684.59v10.67h1.62c.28,0,.52-.11.71-.3.18-.18.3-.44.3-.71v-8.65c0-.28-.11-.53-.3-.71-.19-.19-.43-.3-.71-.3h-1.62ZM525.3,702.46v-24.17h-21.64v24.17c0,.37.14.69.38.92h0c.23.24.56.38.92.38h19.04c.36,0,.69-.14.92-.38h0c.24-.24.38-.57.38-.93h0Z"/>
        <g>
          <path class="st0" d="M310.75,549.7v50.99h-28.68v-23.66c-5.94-3.55-11.69-3.76-17.23,0v23.66h-30.06v-50.99h75.97Z"/>
          <path class="st2" d="M282.07,600.68v-23.66c-5.94-3.55-11.69-3.76-17.23,0v23.66h17.23Z"/>
          <g>
            <polygon class="st4" points="301.61 577.03 290.98 577.03 290.98 588.99 288.65 588.99 288.65 591.17 304.01 591.17 304.01 588.99 301.61 588.99 301.61 577.03"/>
            <polygon class="st4" points="301.61 567.36 301.61 555.41 290.98 555.41 290.98 567.36 288.65 567.36 288.65 569.56 304.01 569.56 304.01 567.36 301.61 567.36"/>
            <polygon class="st4" points="278.61 555.41 267.96 555.41 267.96 567.36 265.65 567.36 265.65 569.56 281 569.56 281 567.36 278.61 567.36 278.61 555.41"/>
            <polygon class="st4" points="254.51 577.03 243.86 577.03 243.86 588.99 241.54 588.99 241.54 591.17 256.9 591.17 256.9 588.99 254.51 588.99 254.51 577.03"/>
            <polygon class="st4" points="254.51 555.41 243.86 555.41 243.86 567.36 241.54 567.36 241.54 569.56 256.9 569.56 256.9 567.36 254.51 567.36 254.51 555.41"/>
          </g>
          <polygon class="st8" points="316.21 549.7 309.64 534.66 236.31 534.66 229.12 549.7 316.21 549.7"/>
        </g>
        <g>
          <rect class="st19" x="484.42" y="313.1" width="61.65" height="38.78"/>
          <g>
            <rect class="st22" x="532.84" y="335.05" width="6.59" height="8.61"/>
            <rect class="st22" x="532.84" y="322.12" width="6.59" height="8.61"/>
            <polygon class="st4" points="505.26 343.65 511.87 343.66 511.87 335.05 505.26 335.04 505.26 343.65"/>
            <polygon class="st4" points="505.26 330.72 511.87 330.73 511.87 322.12 505.26 322.11 505.26 330.72"/>
            <rect class="st22" x="491.82" y="335.04" width="6.6" height="8.61"/>
            <rect class="st22" x="491.82" y="322.11" width="6.6" height="8.61"/>
          </g>
          <polygon class="st8" points="558.14 315.66 551.62 292.41 502.71 292.4 502.71 290.72 505.33 290.72 505.33 285.27 491.69 285.27 491.69 290.72 494.53 290.72 494.53 302.26 493.7 302.7 490.4 292.4 481.38 292.4 473.24 315.66 558.14 315.66"/>
          <polygon class="st0" points="550.84 315.66 544.33 315.67 544.33 349.7 527.53 349.7 527.53 335.05 517.89 335.05 517.89 349.7 486.66 349.69 486.66 315.66 480.15 315.66 480.15 349.69 478.52 349.69 478.52 357.4 480.15 357.4 483.41 357.4 547.59 357.41 550.84 357.41 552.22 357.41 552.22 349.7 550.84 349.7 550.84 315.66"/>
        </g>
        <g>
          <g>
            <rect class="st19" x="365.99" y="555.71" width="63.17" height="39.74"/>
            <g>
              <rect class="st22" x="415.6" y="578.21" width="6.76" height="8.82"/>
              <rect class="st22" x="415.6" y="564.96" width="6.76" height="8.82"/>
              <polygon class="st4" points="387.34 587.02 394.12 587.03 394.12 578.21 387.34 578.2 387.34 587.02"/>
              <polygon class="st4" points="387.34 573.77 394.12 573.78 394.12 564.96 387.34 564.96 387.34 573.77"/>
              <rect class="st22" x="373.56" y="578.2" width="6.77" height="8.82"/>
              <rect class="st22" x="373.56" y="564.96" width="6.77" height="8.82"/>
            </g>
            <polygon class="st8" points="441.52 558.34 434.85 534.51 384.73 534.5 384.73 532.78 387.41 532.78 387.41 527.2 373.44 527.2 373.44 532.78 376.35 532.78 376.35 544.6 375.5 545.06 372.11 534.5 362.87 534.5 354.52 558.34 441.52 558.34"/>
            <polygon class="st0" points="434.05 558.34 427.38 558.35 427.38 593.22 410.16 593.22 410.16 578.21 400.28 578.21 400.28 593.22 368.28 593.21 368.28 558.35 361.61 558.34 361.61 593.21 359.94 593.21 359.94 601.11 361.61 601.11 364.94 601.11 430.71 601.12 434.05 601.12 435.46 601.12 435.46 593.22 434.05 593.22 434.05 558.34"/>
          </g>
          <path class="st20" d="M374.62,542.11h.51l10.49,14.85h1.8v.51c-6.13,9.86-9.46,14.97-9.97,15.36h-2.83l-.52-.52v-29.68l.52-.52h0ZM378.2,542.11h38.36l.27.28h.24c-5.1,7.89-8,12.06-8.68,12.52h-22.26l-8.45-12.28.52-.52h0ZM390.22,556.96h14.84l9.97,15.59-.24.28h-34.28l-.52-.52c6.19-9.67,9.6-14.79,10.22-15.35h0ZM420.14,542.11h1.29l.5.52v29.68l-.5.52h-3.85c-6.65-9.9-9.97-15.19-9.97-15.87h2.04l10.49-14.85h0Z"/>
          <rect class="st27" x="417.73" y="518.32" width="4.73" height="15.76"/>
        </g>
        <g>
          <rect class="st19" x="366.76" y="433.75" width="61.65" height="38.78"/>
          <g>
            <rect class="st22" x="415.17" y="455.7" width="6.59" height="8.61"/>
            <rect class="st22" x="415.17" y="442.77" width="6.59" height="8.61"/>
            <polygon class="st4" points="387.6 464.3 394.21 464.31 394.21 455.7 387.6 455.69 387.6 464.3"/>
            <polygon class="st4" points="387.6 451.37 394.21 451.38 394.21 442.77 387.6 442.77 387.6 451.37"/>
            <rect class="st22" x="374.16" y="455.69" width="6.6" height="8.61"/>
            <rect class="st22" x="374.16" y="442.77" width="6.6" height="8.61"/>
          </g>
          <polygon class="st8" points="440.47 436.31 433.95 413.06 385.05 413.05 385.05 411.37 387.67 411.37 387.67 405.91 374.03 405.91 374.03 411.37 376.87 411.37 376.87 422.91 376.04 423.35 372.73 413.05 363.72 413.05 355.58 436.31 440.47 436.31"/>
          <polygon class="st0" points="433.18 436.31 426.67 436.31 426.67 470.34 409.87 470.34 409.87 455.7 400.22 455.7 400.22 470.34 369 470.34 369 436.31 362.49 436.31 362.49 470.34 360.85 470.34 360.85 478.05 362.49 478.05 365.74 478.05 429.92 478.06 433.18 478.06 434.56 478.06 434.56 470.34 433.18 470.34 433.18 436.31"/>
        </g>
      </g>
    </g>
  </g>
</svg>