<?xml version="1.0" encoding="UTF-8"?>
<svg id="Layer_2" data-name="Layer 2" xmlns="http://www.w3.org/2000/svg" xmlns:xlink="http://www.w3.org/1999/xlink" viewBox="0 0 5880.57 3411.45">
  <defs>
    <style>
      .cls-1, .cls-2, .cls-3, .cls-4, .cls-5, .cls-6, .cls-7 {
        fill: none;
      }

      .cls-2, .cls-3 {
        stroke-dasharray: 4.27 4.27;
      }

      .cls-2, .cls-3, .cls-4, .cls-5, .cls-6, .cls-7 {
        stroke: #e3e3e3;
        stroke-width: 2.14px;
      }

      .cls-2, .cls-5, .cls-6 {
        stroke-miterlimit: 10;
      }

      .cls-8, .cls-9, .cls-10, .cls-11, .cls-12, .cls-13, .cls-14, .cls-15, .cls-16, .cls-17, .cls-18, .cls-19, .cls-20, .cls-21, .cls-22 {
        fill-rule: evenodd;
      }

      .cls-8, .cls-23 {
        fill: #fff;
      }

      .cls-9, .cls-24 {
        fill: #767676;
      }

      .cls-25, .cls-14 {
        fill: #a7a7a7;
      }

      .cls-26, .cls-18 {
        fill: #e3e3e3;
      }

      .cls-27 {
        fill: #f3aa00;
      }

      .cls-10 {
        fill: #626262;
      }

      .cls-3, .cls-4, .cls-7 {
        stroke-linejoin: round;
      }

      .cls-28 {
        fill: #8a8a8a;
      }

      .cls-29 {
        fill: url(#linear-gradient);
      }

      .cls-11, .cls-30 {
        fill: #3e3e3e;
      }

      .cls-31 {
        fill: #929292;
      }

      .cls-12, .cls-32 {
        fill: #686868;
      }

      .cls-13 {
        fill: #888;
      }

      .cls-15, .cls-20 {
        fill: #525252;
      }

      .cls-4 {
        stroke-dasharray: 4.3 4.3;
      }

      .cls-33 {
        fill: #797979;
      }

      .cls-34 {
        fill: #a6a6a6;
      }

      .cls-35 {
        clip-path: url(#clippath-1);
      }

      .cls-36 {
        fill: #969696;
      }

      .cls-16 {
        fill: #cbcbcb;
      }

      .cls-37 {
        fill: #666;
      }

      .cls-17 {
        fill: #6e6e6e;
      }

      .cls-38, .cls-22 {
        fill: #5e5e5e;
      }

      .cls-39 {
        fill: #818181;
      }

      .cls-40 {
        fill: #838383;
      }

      .cls-41 {
        fill: #7f7f7f;
      }

      .cls-6 {
        stroke-dasharray: 4.28 4.28;
      }

      .cls-19 {
        fill: #d7d7d7;
      }

      .cls-20 {
        opacity: .6;
      }

      .cls-21 {
        fill: #4f4f4f;
      }

      .cls-42 {
        clip-path: url(#clippath);
      }

      .cls-43 {
        fill: #fcc107;
      }

      .cls-44 {
        fill: #ffd52c;
      }
    </style>
    <clipPath id="clippath">
      <rect class="cls-1" x="1999.98" y="1030.77" width="1920" height="1080"/>
    </clipPath>
    <clipPath id="clippath-1">
      <rect class="cls-1" x="2002.98" y="1027.4" width="1920" height="1366.7"/>
    </clipPath>
    <linearGradient id="linear-gradient" x1="2940.28" y1="815.92" x2="2940.28" y2="0" gradientUnits="userSpaceOnUse">
      <stop offset="0" stop-color="#d8d8d8"/>
      <stop offset="1" stop-color="#838383"/>
    </linearGradient>
  </defs>
  <g id="Layer_1-2" data-name="Layer 1">
    <g class="cls-42">
      <g>
        <g class="cls-35">
          <g>
            <rect class="cls-29" width="5880.57" height="815.92"/>
            <rect class="cls-33" y="815.92" width="5880.57" height="2595.53"/>
            <path class="cls-39" d="M5796.34,2092.37c0,714.52-1251.43,1293.73-2795.15,1293.73S206.03,2806.89,206.03,2092.37,1457.46,798.63,3001.19,798.63s2795.15,579.22,2795.15,1293.75Z"/>
            <path class="cls-36" d="M5445.88,1928.04c0,626.12-1096.61,1133.67-2449.34,1133.67-1352.74,0-2449.35-507.55-2449.35-1133.67S1643.8,794.34,2996.54,794.34s2449.34,507.57,2449.34,1133.69Z"/>
            <g>
              <path class="cls-34" d="M2955.09,2813.9c-295.5,0-582.15-26.78-851.98-79.61-129.67-25.38-254.73-56.8-371.7-93.38-115.83-36.22-224.75-77.81-323.73-123.62-98.93-45.79-188.73-96.16-266.91-149.72-78.86-54.03-146.57-111.76-201.26-171.61-55.61-60.85-98.31-124.51-126.91-189.19-29.29-66.26-44.15-134.43-44.15-202.64s14.85-136.37,44.15-202.63c28.6-64.68,71.3-128.33,126.92-189.19,54.69-59.84,122.41-117.58,201.27-171.61,78.18-53.56,167.99-103.94,266.92-149.73,98.98-45.81,207.9-87.41,323.73-123.63,116.98-36.58,242.04-68,371.7-93.39,269.83-52.83,556.47-79.61,851.94-79.61h0c295.5,0,582.14,26.78,851.98,79.61,129.67,25.38,254.73,56.8,371.7,93.38,115.83,36.22,224.75,77.81,323.73,123.63,98.93,45.79,188.73,96.16,266.91,149.73,78.86,54.03,146.57,111.76,201.26,171.61,55.61,60.86,98.31,124.51,126.91,189.19,29.29,66.26,44.15,134.44,44.15,202.64s-14.85,136.38-44.15,202.64c-28.6,64.68-71.29,128.34-126.91,189.19-54.69,59.85-122.4,117.58-201.26,171.61-78.18,53.56-167.98,103.94-266.91,149.72-98.98,45.81-207.89,87.4-323.73,123.62-116.98,36.58-242.04,67.99-371.7,93.38-269.83,52.82-556.48,79.61-851.98,79.61Z"/>
              <path class="cls-41" d="M2955.09,798.63c148.38,0,296.67,6.92,440.74,20.56,140.39,13.3,278.47,33.14,410.42,58.97,129.51,25.36,254.42,56.73,371.25,93.27,115.66,36.17,224.4,77.69,323.21,123.42,98.71,45.69,188.3,95.94,266.29,149.37,78.59,53.84,146.05,111.36,200.52,170.97,55.3,60.51,97.74,123.78,126.15,188.04,29.05,65.71,43.78,133.3,43.78,200.91s-14.73,135.2-43.78,200.91c-28.41,64.26-70.85,127.52-126.15,188.03-54.47,59.6-121.93,117.12-200.52,170.96-77.98,53.43-167.58,103.68-266.29,149.37-98.81,45.73-207.55,87.26-323.21,123.42-116.83,36.53-241.73,67.91-371.25,93.26-131.94,25.83-270.03,45.67-410.42,58.97-144.07,13.65-292.35,20.56-440.74,20.56s-296.67-6.92-440.74-20.56c-140.39-13.3-278.47-33.14-410.42-58.97-129.51-25.35-254.42-56.73-371.25-93.26-115.66-36.17-224.4-77.69-323.21-123.42-98.71-45.69-188.3-95.94-266.29-149.37-78.59-53.84-146.05-111.36-200.52-170.96-55.3-60.51-97.74-123.78-126.15-188.03-29.05-65.71-43.78-133.3-43.78-200.91s14.73-135.2,43.78-200.91c28.41-64.26,70.85-127.52,126.15-188.04,54.47-59.6,121.93-117.13,200.52-170.97,77.98-53.43,167.58-103.68,266.29-149.37,98.81-45.73,207.55-87.26,323.21-123.42,116.83-36.53,241.73-67.91,371.25-93.26,131.94-25.83,270.03-45.67,410.42-58.97,144.07-13.64,292.36-20.56,440.74-20.56M2955.09,790.06c-1210.01,0-2190.91,454.01-2190.91,1014.07s980.9,1014.05,2190.91,1014.05,2190.91-454,2190.91-1014.05-980.91-1014.07-2190.91-1014.07h0Z"/>
            </g>
            <path class="cls-36" d="M2841.82,2117.43c8.56,4.86,25.97,10.17,47.12,15.01,21.23,4.9,46.5,9.58,72.5,14.16,52.01,9.17,107.02,18.12,139.8,27.54,6.36,1.51,12.26,3.63,17.82,5.33,5.48,1.93,10.62,4.38,15.23,6.19,9.23,3.84,17.18,7.15,24,9.99,5.73,2.45,1.91.96-8.41-3.26-5.16-2.13-11.94-4.93-19.99-8.25-8.14-3.73-17.89-7.05-28.64-10.01-19.27-5.14-42.24-9.81-69.28-14.68,33.38,7.71,65.54,15.83,87.34,24.65,7.91,3.22,15.99,6.39,24.17,9.58,8.17,3.16,16.33,6.56,24.74,9.44,36.73,13.46,73.59,24.52,110.15,35.92,18.26,5.75,36.49,11.52,54.58,17.77,18.19,6.05,35.82,13.35,54.28,19.46,26.35,9.94,85.26,27.26,111.78,33.69,0,0-5.2-1.21-14.31-3.33-4.57-.96-10.04-2.52-16.3-4.3-6.27-1.76-13.35-3.75-21.06-5.92-7.7-2.22-16.11-4.4-24.88-7.12-8.72-2.92-17.9-6.01-27.41-9.2-9.46-3.24-19.42-6.37-29.21-9.95-9.84-3.47-19.75-7.26-29.83-10.59-40.18-13.63-81.06-25.52-111.53-35.21-15.23-4.86-27.9-9.01-36.75-11.98-8.81-3.09-13.85-4.86-13.85-4.86,2.88,1.13,5.75,2.25,8.58,3.35,0,0,2.64.95,7.26,2.62,4.65,1.56,11.3,3.78,19.28,6.45,15.94,5.4,37.33,12.09,58.65,18.86,21.33,6.77,42.61,13.54,58.39,19.04,15.87,5.27,26.27,9.27,26.27,9.27,9.53,3.43,19.14,6.9,29.06,10.48,0,0-1.84-.63-4.6-1.58-2.76-.95-6.45-2.21-10.03-3.56-7.22-2.66-14.43-5.33-14.43-5.33-24.85-8.9-49.53-15.98-77.14-24.33-17.02-5.26-36.3-11.95-53.36-17.32-13.85-4.65-26.43-9.42-39.35-14.58,0,0-6.31-2.27-12.62-4.55-3.15-1.13-6.31-2.27-8.67-3.12-2.37-.83-3.93-1.49-3.93-1.49-2.47-.88-5.12-1.82-7.83-2.79.09.05.25.14.31.18,4.81,3.09,21.68,10.29,44.97,19.2,23.33,8.82,53.15,18.94,83.31,29.03,30.12,10.18,60.43,20.64,85.06,30.24,25.14,9.13,45.62,15.92,54.57,18.74,14.46,4.25,28.67,6.8,43.12,9.93,7.27,1.41,14.53,3.28,22.17,4.51,7.62,1.36,15.44,2.85,23.59,4.61,10.89,2.32,19.85,5.37,28.37,6.4.94-.34,5.22.06,9.52.46,10.95,1.9,21.81,4.35,32.09,6.51,5.15,1.03,10.09,2.21,14.93,2.83,4.89.43,9.56.71,13.91.74,12.14.79,44.92,10.69,47.56,9.27,9.57-5.17,2.7-1.43,30.51.51,3.39.22,14.35-1.24,21.04-.53,22.35,3.31,29.09,2.08,54.48,5.77,9.32,1.8,16.78,3.46,23.27,5.07,6.6,1.77,12.27,3.37,17.66,4.98,10.79,3.23,21.1,5.98,37.87,9.71,1.01.25,5,1.33,10.37,2.91,5.25,1.82,12.05,3.88,18.48,6.35,3.19,1.29,6.36,2.57,9.31,3.76,1.48.6,2.9,1.18,4.25,1.73,1.28.64,2.49,1.26,3.61,1.82,4.48,2.25,7.43,3.72,7.43,3.72,1.11.64,2.22,1.28,3.3,1.9,1,.72,1.98,1.43,2.95,2.14,1.96,1.39,3.88,2.75,5.76,4.08,3.79,2.39,7.33,5.86,10.8,8.62,7.03,5.7,13.78,10.73,20.27,15.51,13,9.55,25,18.37,37.32,29.59,16.49,9.67,34.48,22.77,51.16,37.56,8.41,7.32,16.21,15.28,23.43,23.25,3.34,4.16,7.02,8.02,9.84,12.25,1.47,2.08,3.06,4.05,4.42,6.12,1.29,2.11,2.56,4.18,3.82,6.23,1.14,1.86,2.77,4.37,4.3,6.67,1.46,2.38,3.28,4.09,4.83,6.07,3.32,3.6,6.59,6.72,9.84,9.39,6.45,5.43,12.52,9.7,18.52,13.65,12.02,7.86,23.75,14.8,40.06,22.86,9.45,4.28,16.74,6.83,22.06,9.67,5.35,2.9,19.67,5.91,29.06,9.82l-2.91.56c3.14,1.31,9.38,3.91,12.52,5.22,3.12,1.32,2.14,1.49,1.17,1.68-1.94.36-3.87.74,1.39,3.54,12.83,5.8,25.89,11.58,38.7,17.78,13.12,5,25.71,10.34,36.66,16.54.97-.16,2.04-.24,3.8.33,1.64.93,3.25,1.87,4.67,2.91,1.45,1.02,3.08,1.98,4.31,3.08,2.52.37,3.24-1.28,5.02-.95,1.66-1.55,5.74-.06,9.64,1.78,3.66,1.9,7.21,4.17,7.95,1.35.02-.52-.79-2.36-2.13-5.03-.63-1.38-1.71-2.66-2.74-4.22-.54-.76-1.11-1.55-1.68-2.37-.65-.74-1.31-1.51-2-2.28-5.4-6.31-12.65-12.3-16.97-16.19-1.93-1.93,4.13.07,7.23.56-6.4-4.45-9.66-6.84-10.53-8.01-.87-1.16.7-1.23,3.79-.14-3.06-2.02-6.15-3.9-6.15-3.9,1.05.01,4.18.04,4.18.04-16.58-10.85-34.5-19.96-52.4-28.11-17.91-8.1-35.8-15.05-52.67-20.39-7.2-2.43-19.32-5.83-27.27-8.26-4.01-1.17-12.01-5.53-14.94-6.98-5.78-1.04-5.72.81-8.6,1.2-11.18-5.95-28.64-16.08-39.09-25.76-1.23-1.2-2.43-2.36-3.59-3.49-.94-1.15-1.89-2.23-2.82-3.23-.82-1-1.35-1.91-2.05-2.73l-.5-.61c-.18-.21-.47-.69-.69-1-.49-.7-.95-1.37-1.4-2.01-3.61-5.06-6.21-7.63-7.1-6.45-3.39-4.64-6.15-8.4-8.85-11.35-2.76-2.87-5.23-5.24-7.73-7.62-5.12-4.45-10.32-8.95-18.95-16.45-22.64-19.87-53.67-40.91-83.36-61.92-8.17-5.67-16.01-11.39-23.58-17.26-3.71-3.02-7.5-5.85-11.11-9.01-3.66-3.12-7.01-6.28-11.54-9.3-3.19-2.25-6.33-4.53-9.44-6.62-3.2-1.78-6.34-3.52-9.39-5.23-16.7-8.86-33.47-15.49-49.96-20.9-16.44-5.57-32.72-10.19-48.45-14.41-15.79-4.17-31.96-8.52-47.94-10.85-8-1.59-15.97-2.2-23.91-3.22-7.96-1.06-15.84-1.51-23.73-2.17-31.48-2.38-62.81-3.09-94.16-5.95-3.91-.38-7.84-.62-11.79-1.1-3.96-.7-7.94-1.4-11.94-2.1-8.01-1.37-16.09-2.76-24.27-4.16-8.17-1.49-16.52-2.49-24.87-4.37-8.38-1.68-16.88-3.38-25.51-5.11-8.69-1.77-17.48-3.33-26.17-5.35-8.66-2.18-17.33-4.36-26.01-6.55-8.67-2.23-17.39-4.38-26.05-6.73l-25.66-8.07c-8.55-2.72-17.09-5.44-25.62-8.16-8.53-2.95-17.06-5.9-25.56-8.84-17.05-5.71-34.09-11.25-51.02-16.42-33.81-10.56-67.16-20.35-98.86-31.17-7.98-2.57-15.74-5.49-23.47-8.25-7.73-2.78-15.4-5.5-22.76-8.55-7.42-2.97-14.77-5.91-22.02-8.82-3.83-1.53-7.63-3.27-11.45-4.61-3.83-1.21-7.64-2.41-11.43-3.6-30.26-8.45-58.97-13.66-85.47-18.8-26.45-4.89-50.74-9.39-72.31-13.38-43.06-7.92-74.88-14.99-90.94-19.62,0,0-1.21-.2-3.02-.5-1.77-.32-4.32-.65-6.58-1.15-4.48-1.06-8.95-2.12-8.95-2.12Z"/>
            <path class="cls-36" d="M1761.25,2400.52c14.63,6.48,37.61,16.48,65.88,26.12,28.24,9.69,61.71,19.21,96.51,26.71,34.79,7.55,70.91,13.11,104.08,15.88,33.15,2.87,63.35,2.76,86.03.81,34.97-2.45,61.45-9.05,79.92-17.29,3.9-1.7,4.52-2.12,2.47-1.21-2.07.84-6.84,2.95-14.03,5.41-14.34,5.02-38.61,10.72-68.36,13.09-26.6,1.91-58.13,1.49-94.85-2.16,45.98,2.63,90.32-.09,121.01-6.5,22.63-3.15,45.64-8.47,66.07-19.84,5.54-3.19,10.8-6.8,15.57-10.95,4.72-4.2,8.85-8.97,12.19-14.23,6.85-10.47,9.58-23.07,9.33-35.47-.3-6.24-.99-12.39-2.46-18.6-1.2-6.21-2.87-12.35-4.53-18.48-3.38-12.26-7.35-24.42-10.88-36.76-3.54-12.34-6.73-24.88-8.55-37.79-1.83-12.87-2.21-26.24.42-39.33,2.61-13.05,7.71-25.62,15.77-36.69,8.74-10.98,20.97-17.99,32.99-23.21,8.67-3.99,20.21-7.82,31.2-14.18,1.37-.8,2.75-1.62,4.14-2.44,1.27-.97,2.55-1.95,3.84-2.93,2.74-1.82,4.95-4.25,7.28-6.61,4.56-4.8,8.29-10.58,11.22-16.83,1.78-2.94,2.58-6.44,3.8-9.66l1.71-4.89c.37-1.7.75-3.4,1.12-5.09.72-3.38,1.43-6.71,2.12-9.98.38-3.36.75-6.66,1.11-9.87.17-1.61.35-3.19.53-4.75l.26-2.32c.13-.91.26-1.82.39-2.71.36-3.7,1.45-6.99,2.47-10.16,2.39-6.11,5.28-11.22,8.1-15.23,0,0-.28.39-.84,1.13-.59.71-1.31,1.94-2.28,3.5-.96,1.58-2.22,3.44-3.33,5.98-.58,1.25-1.24,2.55-1.86,4-.49,1.53-1.03,3.15-1.59,4.87-.66,1.68-.81,3.66-1.18,5.65-.15.99-.3,2-.47,3.03-.1.86-.22,1.74-.33,2.63-.44,3.59-.92,7.47-1.44,11.61-1.38,8.16-3.25,17.36-6.9,26.58-3.81,9.04-8.87,18.52-17.32,25.65-8.24,7.36-19.27,12.4-31.61,17.23-12.19,4.9-26.14,10.23-37.72,20.56-1.54,1.13-2.81,2.65-4.13,4.12l-3.92,4.42c-2.33,3.09-3.95,6.53-5.94,9.8-3.49,6.74-6.32,13.78-8.13,21.14-3.78,14.68-3.84,29.93-1.98,44.24,1.85,14.36,5.4,27.97,9.08,40.86,3.7,12.9,7.63,25.12,10.76,36.74,3.03,11.61,5.7,22.7,6.22,32.57.63,9.99-1.03,18.99-3.91,26.34-2.86,7.39-6.93,13.12-10.74,17.41-3.77,4.35-7.42,7.18-9.86,9.14-2.5,1.88-3.91,2.81-3.91,2.81,3.15-2.28,6.1-4.77,8.73-7.44,0,0,2.65-2.28,6.46-6.9,3.79-4.61,8.3-11.97,10.77-21.83,5.74-19.84-3.68-48.35-12.39-76.79-4.4-14.28-8.75-28.86-11.42-43.14-2.74-14.24-3.55-28.2-2.42-40.23.91-5.99,1.55-11.52,3.1-16.26.68-2.38,1.21-4.65,1.92-6.67.81-1.99,1.56-3.81,2.23-5.46,1.35-3.3,2.39-5.9,3.46-7.55.95-1.69,1.46-2.59,1.46-2.59,1.98-3.21,3.45-6.63,6.37-9.5,2.61-3,5.22-6.07,8.32-8.38l4.5-3.74,4.84-3.13c3.22-2.23,6.57-3.83,9.94-5.6,0,0-2.47,1.26-6.19,3.16-3.61,2.32-8.62,5.07-12.98,9.08-1.12.94-2.23,1.88-3.33,2.81-1.04,1.03-1.98,2.17-2.93,3.21-1.84,2.14-3.67,4.09-4.97,5.87-2.13,3.73-3.56,6.22-3.56,6.22-5.08,8.45-8.19,17.5-10.69,26.8-.56,2.33-.86,4.71-1.29,7.07-.35,2.37-.94,4.73-.99,7.11-.28,4.75-.79,9.55-.49,14.29.35,19.11,4.63,37.76,9.92,56.48,3.34,11.56,7.48,23.62,10.96,35.58,1.69,5.99,3.35,11.98,4.57,17.86,1.4,5.91,2.01,11.37,2.19,16.81.18,8.77-1,17.03-3.82,24.71-2.81,7.68-7.51,14.63-13.53,20.73,0,0-1.46,1.46-3.92,3.41-1.17,1.03-2.65,2.12-4.27,3.24-1.57,1.19-3.35,2.31-5.16,3.41-3.59,2.24-7.38,4.22-10.3,5.56-2.88,1.41-4.88,2.21-4.88,2.21-3.13,1.18-6.54,2.32-10.06,3.45.12-.06.32-.17.41-.22,3.14-1.81,10.22-4.89,19.12-10.36,8.82-5.4,19.58-13.67,26.43-25.91,3.37-6.11,5.74-13.13,6.38-20.9.68-7.84-.15-16.04-2.29-24.99-4.17-18.27-11.46-37.78-17.88-58.57-3.14-10.49-6.11-21.27-8.13-32.53-1.83-11.31-3.09-22.97-2.18-34.81,1.03-11.72,3.26-23.58,8-34.05,1.88-5.37,5.06-10.37,7.82-15.32,1.17-2.5,3.48-4.81,5.39-7.11,2.02-2.2,3.92-4.76,6.11-6.42,2.15-1.81,4.28-3.59,6.37-5.35,2.15-1.63,4.36-2.91,6.51-4.33,1.08-.68,2.15-1.36,3.22-2.03,1.06-.55,2.1-1.09,3.14-1.63,2.08-1.06,4.13-2.1,6.14-3.12,7.8-3.53,14.86-6.27,20.39-8.62,11.26-4.74,17.95-8.7,21.54-11.61,5.78-4.58,10.86-9.48,14.64-16.37.93-1.71,2.22-3.12,2.94-5.08l2.48-5.64c1.92-3.61,2.85-7.99,4.23-12.14,1.49-4.11,2.24-8.67,3.13-13.23.44-2.29.89-4.59,1.33-6.9l.88-4.51c.37-1.67.66-3.38,1.15-4.99,4.13-12.95,11.93-22.9,20.11-31.69,11.15-11.49,20.43-20.39,29.84-26.83,1.3-.18,6.02-3.36,10.66-6.53,2.76-2.28,5.56-4.58,8.13-6.94,1.29-1.18,2.63-2.35,3.82-3.55l1.82-1.8c.56-.57,1.35-1.28,1.45-1.5l3.4-4.1c1.26-1.59,2.58-3.08,3.98-4.41,2.73-2.78,5.42-5.57,8.27-7.91,11.23-9.81,22.62-17.11,32.93-22.27,7.07-3.9,18.9-13.68,28.84-22.59,10-8.92,17.59-17.05,19.32-17.18,6.84-.32,7.72-.53,10.14-3.19.59-.68,1.31-1.49,2.21-2.53.82-1.07,1.77-2.37,3.04-3.91.63-.76,1.33-1.6,2.1-2.52.69-.96,1.46-2.02,2.3-3.17,1.74-2.14,3.69-5.12,6.11-8.47.55-.84,1.69-1.94,2.98-3.4,1.27-1.51,2.77-3.29,4.36-5.17,3.32-3.65,6.38-8.44,8.29-12.22,5.8-13.39,9.54-22.02,13.5-31.18,1.02-2.31,2.05-4.64,3.13-7.09,1.01-2.48,2.05-5.08,3.17-7.87,1.15-2.74,2.24-5.92,3.43-9.38.55-1.63,1.12-3.33,1.73-5.12.49-1.23.78-2.73,1.12-4.3.98-5.11,1.23-10.78,1.31-15.91.09-5.16-.04-10-.19-14.51-.39-9.2-.73-17.03-1.06-24.68-.22-7.76-.25-15.44.5-24.26.81-8.79,2.26-18.83,6.43-30.9.55-1.45,2.08-7.38,5.81-15.13,3.64-7.68,9.85-17.4,18.88-24.1,8.86-6.9,19.35-10.15,26.85-11.36,3.79-.57,6.91-.97,9.08-.94,2.16-.07,3.4-.12,3.4-.12,3.39-.27,6.7-.54,9.95-.79,3.13-.27,6.1-1,9.06-1.41,2.91-.61,5.67-1.51,8.44-2.19,2.67-.94,5.24-2,7.8-2.94,9.94-4.46,18.09-10.8,24.47-18.3,12.79-15.08,18.51-34.33,18.15-55.09,4.89-23.62.84-53.22-9.95-80.15-10.64-27.15-27.76-51.55-45.55-70.28-17.08-18.6-34.89-22.22-52.23-24.28-8.74-.99-17.66-1.32-27.65-2.13-9.9-.69-21.11-2.06-33.99-5.59-3.63-1.28-7.09-2.26-10.19-3.71-3.09-1.47-5.98-2.84-8.69-4.13-5.33-2.76-9.64-5.7-13.81-7.71-1.99-1.13-4.34-3.15-7.04-5.51-2.71-2.37-5.73-5.14-8.32-8.46-1.36-1.61-2.75-3.25-4.15-4.9l-2.1-2.46c-.69-.8-1.4-1.6-2.16-2.71-3.03-4.03-5.68-8.29-7.68-12.3.03,1.64.05,3.34.3,4.98-1.64-2.63-3.87-6.81-5.42-11.11-1.65-4.28-2.73-8.65-3.25-11.48-1.13-5.72-1.43-4.16-2-2.67-.44,1.55-.87,3.15-1.53,3.07-.61-.06-1.73-1.95-2.65-7.04-1.66-12.33-.96-23.32-.22-33.69.91-9.59,1.82-19.28,2.75-29.08,3.13-17.86,4.37-33.72,1.57-48.53.64-1.08,1.23-2.32,1.32-4.63-.42-2.29-1.15-4.47-1.69-6.75-.78-2.19-1.44-4.44-2.32-6.63.42-3.44,2.83-3.69,3.05-6.12,2.61-1.44,2.24-7.53,1.58-13.31-.72-5.68-1.46-11.06,2.37-10.45,1.24.49,7.52,7.19,13.34,16.47,5.98,9.18,10.93,21.01,13.88,28.52,1.61,3.46,1.7-5.41,2.35-9.67,3.13,10.43,4.24,16.04,5.42,17.81,1.01,1.78,1.86-.23,1.93-4.92.57,2.57,1.09,5.14,1.34,7.07.3,1.93.5,3.22.5,3.22.51-1.38,2.08-5.55,2.08-5.55,5.57,28.4,1.42,57.75-.15,81.19-.82,11.72-.45,21.83,1.55,27.62.96,2.98,2.07,5.09,3.72,7.33.25.32.24.49.69.96l1.24,1.34,2.44,2.71c1.64,1.74,3.07,3.83,4.76,5.37,2.99,2.53,6.53,6.63,10.87,9.69l3.13,2.57c1.13.72,2.25,1.43,3.35,2.13,2.24,1.35,4.2,2.95,6.33,3.85,3.96,2.24,14.18,4.09,18.21,4.61,6.48,3.24,5.04,5.29,7.85,7.8,8.15.95,19.33,1.65,32.14,3.4,12.72,1.76,27.68,5,40.46,11.91,3.25,1.44,6.09,3.63,8.97,5.39,1.41.94,2.79,1.86,4.15,2.76,1.27.99,2.43,2.06,3.59,3.06,2.3,2.03,4.45,3.99,6.4,5.84,1.94,1.86,3.14,3.52,4.49,5.1,5.21,6.21,7.21,10.67,5.46,11.36,10.13,11.44,14.54,19.6,18.82,27.78,4.11,8.31,8.06,16.77,14.28,31.03,3.96,9.53,7.62,19.91,10.62,31.03,2.87,11.15,5.11,23.01,6.25,35.37,2.28,24.6.1,51.74-10.99,76.6-6.31,13.39-15.31,25.64-26.84,35.04-11.45,9.53-25.45,15.54-39.63,18.28-2.65.43-5.29.87-7.91,1.3-2.61.18-5.21.37-7.78.55-2.23.16-4.44.31-6.62.47l-2.95.19c-.95.13-1.87.33-2.79.48-5.12.64-9.61,2.43-13.83,4.42-4.11,2.19-7.62,5.13-10.73,8.52-3.01,3.54-5.45,7.68-7.53,12.11-1.88,4.59-3.57,9.34-4.65,14.43-2.39,10.05-3.2,20.76-3.57,31.41-.34,10.69,0,21.46.42,32.28.4,10.83,1.01,21.67.78,33.14-.23,5.71-.54,12.01-2.52,18.72-1.61,5.44-2.81,10.26-4.63,15.56-6.75,20.77-14.78,40.81-25.56,60.11-5.72,9.64-11.78,18.89-19.62,27.67-7.84,8.73-16.77,15.94-25.75,22.37-18.1,12.64-36.91,22.78-54.76,33.76-8.96,5.45-17.54,11.2-25.37,17.5-1.97,1.57-3.94,3.14-5.66,4.85-1.74,1.7-3.73,3.28-5.2,5.12l-2.4,2.66-2.04,2.28-1.79,1.68c-2.19,2.05-4.39,4.06-6.63,5.93-8.89,7.61-18.01,14.43-26.78,21.44-8.74,7-17.25,14.19-24.3,22.13-3.3,4.05-6.58,8.19-8.53,12.53-.66,1.07-.92,2.17-1.35,3.25-.38,1.09-.91,2.17-1.02,3.26l-.7,3.31-.7,4.64-1.42,9.28-.71,4.64-1.16,4.64-2.34,9.25c-.64,3.1-2.16,6.1-3.2,9.14-1.97,6.15-5.44,11.91-8.62,17.69-1.96,2.72-4.04,5.38-6.07,8.04-2,2.69-4.71,4.81-7.05,7.2-10.05,9.07-22.2,14.6-33.56,18.99-11.4,4.44-22.39,8.22-31.5,14.21-4.53,3-8.63,6.49-11.95,10.43-1.96,1.69-3.05,4.36-4.51,6.63-1.38,2.35-2.88,4.63-3.85,7.26-4.89,9.97-7.19,21-7.73,32.15-.53,11.17.59,22.52,2.85,33.75,4.51,22.52,12.43,44.48,18.39,67.23l2.13,8.57,1.81,8.7c.58,2.91.94,6.02,1.37,9.03.15,3.08.6,6.12.47,9.23.18,6.18-.73,12.42-2.05,18.53-1.49,6.1-3.87,11.97-6.85,17.48-3.12,5.43-6.91,10.38-11.12,14.85-4.33,4.3-8.91,8.29-13.85,11.59-9.78,6.8-20.4,11.53-31,15.38-21.32,7.54-42.89,11.06-63.78,13.14-41.89,3.91-81.44,1.78-117.63-1.96-36.21-3.85-69.13-9.79-98.15-16.3-58.05-13.05-100.37-29.11-122.55-39.27,0,0-6.17-3.63-12.21-7.48-6.07-3.81-11.99-7.92-11.99-7.92Z"/>
            <path class="cls-36" d="M3263.69,946.05c-6.39-.22-14.72-.4-24.54-.22-9.77.56-21.09,1.06-33.32,2.8-24.48,3.15-52.93,9.41-80.69,20.14-13.92,5.24-27.58,11.69-40.75,18.59-13.17,6.91-25.63,14.7-37.43,22.36-5.53,3.66-10.93,7.23-16.15,10.69-2.11,1.43-4.31,2.73-6.21,4.35-1.89,1.58-3.65,3.58-3.94,6.02-.2,2.47,1.35,4.51,2.92,6.06,1.63,1.57,3.47,2.84,5.31,4,1.85,1.16,3.7,2.2,5.52,3.2,2.21,1.14,4.34,2.25,6.38,3.31,13.31,6.46,25.34,12.27,35.21,18.71,9.86,6.41,17.72,13.37,22.7,20.79,2.03,3.16,2.28,3.76,1.23,2.09-1.07-1.64-3.61-5.52-8.33-10.2-4.7-4.69-11.6-10.04-20.32-15.29-8.69-5.3-19.23-10.46-30.48-16.1-5.45-2.69-9.32-4.64-13.46-7.32-2.02-1.35-4.04-2.87-5.58-4.87-.73-1.02-1.33-2.19-1.44-3.49-.15-1.3.33-2.61,1.02-3.73,1.41-2.28,3.62-3.97,5.88-5.5,2.29-1.53,4.62-3.1,7.01-4.69,6.03-4.07,12.3-8.23,18.85-12.47-8.09,4.88-16.1,9.72-23.91,14.44-3.42,2.09-7.2,4.09-9.88,7.35-1.32,1.6-2.09,3.71-1.72,5.68.34,1.98,1.52,3.63,2.83,5.03,5.5,5.49,12.72,9.03,19.74,13,6.98,3.79,13.54,7.28,19.33,10.7,8.76,4.51,17.4,9.46,25.07,15.71,7.57,6.23,14.34,14.02,17.06,23.51,3.22,10.39.89,21.62-3.59,31.4-4.51,9.9-10.99,18.84-18.06,27.15-1.72,2.12-3.63,4.1-5.43,6.14-1.87,1.98-3.9,3.79-5.84,5.69-1.99,1.84-3.84,3.83-5.94,5.55l-6.43,4.99c-4.16,3.5-8.88,6.23-13.43,9.17-4.46,3.09-9.46,5.32-14.21,7.94-19.4,9.81-40.15,16.78-61.28,22.15-21.16,5.33-42.78,9.06-64.65,11.62-15.88,1.76-41.19,4.13-66.5,4.93-25.3.91-50.51.55-65.99-.39,0,0,1.52.04,4.36.11,2.84.06,7.02.21,12.32.21,10.62.09,25.79.16,43.98-.5,36.32-1.16,84.96-4.99,131.91-16.48,23.41-5.78,46.34-13.63,66.25-23.98,2.48-1.31,4.93-2.62,7.36-3.91,2.45-1.25,4.63-2.88,6.93-4.28,2.26-1.45,4.51-2.88,6.72-4.29,2.14-1.51,4.12-3.17,6.15-4.71,2.02-1.57,4-3.11,5.96-4.63,1.78-1.71,3.53-3.4,5.24-5.06,1.72-1.66,3.41-3.29,5.08-4.89,1.56-1.74,3.09-3.44,4.58-5.12,11.82-13.5,19.23-26.52,21.92-36.11,1.39-4.78,1.82-8.62,1.87-11.22,0-2.59-.11-3.96-.11-3.96.14,3.19-.11,6.38-.74,9.48,0,0-.13.72-.43,2.07-.26,1.35-.83,3.32-1.65,5.79-1.7,4.94-5.04,11.82-10.29,19.48-2.7,3.78-5.7,7.84-9.24,11.9-3.44,4.14-7.37,8.28-11.63,12.16-8.17,8.23-18.66,15.12-29.24,21.64-21.75,12.38-45.87,20.37-64.09,25.35-9.2,2.31-16.83,4.31-22.29,5.3-5.42,1.12-8.52,1.76-8.52,1.76-11.25,2.2-22.7,4.14-34.58,5.49,0,0,2.17-.29,5.43-.73,3.26-.44,7.61-.96,11.92-1.75,4.32-.72,8.63-1.45,11.87-1.99,3.25-.5,5.37-1.02,5.37-1.02,7.31-1.64,14.65-3.02,21.8-5.09,3.59-.97,7.19-1.94,10.8-2.91,3.55-1.14,7.11-2.29,10.68-3.45,7.23-2.13,14.16-5.18,21.41-7.86,3.51-1.58,7.04-3.18,10.63-4.8,1.77-.83,3.61-1.59,5.37-2.49,1.74-.94,3.49-1.89,5.25-2.84,2.19-1.14,4.42-2.31,6.68-3.49,2.29-1.14,4.36-2.65,6.6-3.97,2.2-1.36,4.43-2.74,6.67-4.12,2.19-1.43,4.2-3.11,6.33-4.66,2.09-1.59,4.23-3.12,6.27-4.75,1.9-1.78,3.79-3.55,5.66-5.3,3.8-3.4,7.34-7.22,10.52-11.02,5.25-6.14,10.01-12.22,14-18.58,4.02-6.33,7.19-13.02,8.73-20.13,0,0,.06-.43.17-1.19.1-.76.29-1.83.33-3.13.24-2.59.08-6.05-.63-9.4-.68-3.36-1.99-6.57-3.17-8.89-1.25-2.3-2.26-3.75-2.26-3.75-1.6-2.22-3.55-4.46-5.74-6.62.06.08.18.25.23.31,1.61,2.48,5.82,7.5,8.17,15.37,1.19,3.91,1.59,8.54.97,13.64-.63,5.11-2.54,10.7-5.44,16.44-2.89,5.75-6.88,11.63-11.58,17.48-2.36,2.92-4.91,5.84-7.56,8.77-1.37,1.44-2.75,2.89-4.14,4.35-1.42,1.41-2.93,2.67-4.4,4.03-11.65,10.85-26.1,20.31-41.98,27.54-15.83,7.31-32.7,12.95-49.18,17.45-16.63,4.13-32.74,7.56-47.56,9.72-29.55,4.65-53.3,6.11-63.75,7.25-33.39,2.9-64.15,6.79-101.83,6.16-12.59-.29-23.14-1.68-32.82-1.5-.98.48-5.83.57-10.69.59-25.09-1.45-49.87-6-69.15-7.07-6.74-.58-19.16-4.26-30.02-8.07-10.91-3.71-20.16-7.51-21.67-7.09-5.67,1.66-6.4,1.76-9.47.61-1.55-.57-3.65-1.51-6.98-2.94-.85-.34-1.77-.71-2.79-1.13-.91-.42-1.9-.88-2.98-1.39-.55-.24-1.13-.5-1.73-.76-.68-.34-1.38-.7-2.11-1.07-1.47-.73-3.06-1.51-4.79-2.36-3.36-1.54-15.23-4.94-21.59-8.94-2.64-1.72-5.04-3.28-7.28-4.74-2.2-1.49-4.24-2.87-6.17-4.18-3.93-2.52-7.37-4.88-10.89-7.31-7.09-4.81-14.54-10.06-24.92-20.04-15.55-14.76-22.55-26.1-29.03-36.75-6.37-10.8-12-21.26-21.36-38.48-1.17-2.07-7.99-17.09-14.06-32.09-3.09-7.48-6.09-14.87-8.53-20.37-2.38-5.5-4.09-9.09-4.09-9.09-4.76-11.45-10.26-21.69-17.31-30.2-3.63-4.07-7.68-8.06-11.81-10.77-4.11-2.83-7.96-5.82-12.12-8.06-16.25-9.71-32.14-16.63-49.86-24.68-21.72-5.36-46.74-11.37-72.42-16.28-25.66-4.94-51.88-8.83-75.31-10.56-23.43-1.75-39.99-3.11-55.83-4.84-15.84-1.59-30.97-3.5-51.52-5.01-11.74-.59-20.55-.33-27.39-1.15-6.87-.78-23.48,1.44-35.2,1.23l2.9-1.57c-3.93-.06-11.75-.19-15.67-.26-3.93-.06-2.95-.59-1.98-1.12,1.94-1.06,3.87-2.12-3.01-2.76-16.4-.5-33.18-.71-50.33-.47-16.9,1.46-33.56,3.12-49.93,5.05-.91.75-1.98,1.52-4.26,2.23-4.86.68-9.72,1.37-14.56,2.05-2.83,1.72-1.74,3.32-3.63,4.47.29,4.32-19.8,9.93-14.64,13.56,2.03.99,30.18-.5,42.9.89,2.96.47-3.76,2.25-6.55,3.96,16.46-.92,17.51.69,10.82,2.47,3.88-.08,7.75-.16,7.75-.16-.93.56-3.75,2.25-3.75,2.25,41.71-.35,88.14,1.94,128.6-.05,8.68-.31,23.14-1.36,32.79-2.02,4.81-.29,15.41.78,19.27,1,6.78-1.21,5.85-2.9,8.78-4.35,14.93,1.22,38.5,3.14,58.06,4.74,19.54,1.47,35.11,2.32,34.42-.51,11.95,1.31,19.18,1.52,26.53,1.82,7.37.18,14.84.59,27.24,2.25,16.36,2.43,34.85,5.63,53.99,10.26,19.11,4.64,38.95,10.72,57.24,19.24,4.88,2.48,10,4.55,14.5,7.43,2.3,1.36,4.6,2.71,6.9,4.06l6.39,4.59,3.19,2.29,2.64,2.37c1.8,1.53,3.32,3.47,4.94,5.26,3.04,3.87,5.83,8.08,8.29,12.68,3.73,6.81,6.81,13.99,9.62,20.94,7.51,18.95,13.89,38.32,21.78,56.68,7.78,18.41,16.93,35.98,27.99,51.94,21.94,32.18,51.76,56.88,84.41,74.26,4.09,2.18,8.17,4.39,12.39,6.27l6.29,2.93c1.99,1,4.32,1.93,6.74,2.82,9.36,3.34,18.26,5.51,27.31,7.47,18.04,3.91,36.2,6.72,54.72,9.05,37.02,4.57,75.4,7.1,116.28,7.13,41.2-.06,82.93-1.81,124.29-6.86,20.69-2.43,41.26-5.83,61.51-10.42,20.23-4.61,40.22-10.23,59.34-18,19.06-7.8,37.4-17.56,53.34-30.49,4.19-2.96,7.64-6.83,11.4-10.29,1.87-1.75,3.69-3.54,5.32-5.44,1.7-1.85,3.35-3.74,4.96-5.68,6.47-7.69,12.41-15.91,17-25.1,4.5-9.12,7.8-19.57,6.82-30.51-.87-10.94-6.36-21.02-13.28-28.36-6.94-7.47-14.98-13.06-23.02-17.9-8.07-4.83-16.27-8.87-24.22-12.75-3.9-1.92-7.77-3.84-11.61-5.73-1.81-.93-2.88-1.5-4.08-2.2-1.19-.67-2.34-1.39-3.45-2.13-2.14-1.53-4.4-3.16-5.23-5.68-.76-2.66,1.32-5.08,3.26-6.58,2.02-1.58,4.23-2.86,6.28-4.22,3.14-2.07,6.26-4.12,9.35-6.16,6.65-4.35,13.21-8.49,19.69-12.42,12.97-7.81,25.76-14.54,38.15-20.37,6.3-2.7,12.31-5.6,18.41-7.82,3.02-1.17,5.99-2.33,8.93-3.47,2.98-1.01,5.92-2,8.81-2.97,23.15-7.75,44.12-11.94,61.55-14.78,8.8-1.03,16.6-2.33,23.54-2.84,6.92-.58,12.86-1.07,17.74-1.48l22.82-3.17Z"/>
          </g>
        </g>
        <path class="cls-31" d="M3527.67,1976.58c-280.8,3.21-330.79,129.34-557.41,136.83h836.36s26.11-32.36,2.03-48.29c-72.23-47.81-159.46-89.93-280.99-88.54Z"/>
        <path class="cls-31" d="M3084.08,2253.45c-232.7,2.45-274.14,98.42-461.94,104.12h751.12c-71.15-48.08-154.9-105.52-289.18-104.12Z"/>
        <path class="cls-31" d="M3814.94,1112.93c-40.64,15.39-83.7,28.18-144.51,30.02h144.75s67.64-55.73-.24-30.02Z"/>
        <path class="cls-31" d="M2735.21,2099.37c213.63,3.23,251.67,129.52,424.08,137.02h-689.55c65.31-63.26,142.2-138.86,265.47-137.02Z"/>
        <path class="cls-31" d="M3229.77,1134.96c280.81,3.11,330.79,125.34,557.41,132.61h-906.35c85.85-61.23,186.91-134.41,348.94-132.61Z"/>
        <path class="cls-28" d="M3836.12,1298.55c-89.45,38.98-161.19,84.37-289.95,88.92h291.84s66.1-118.55-1.89-88.92Z"/>
        <path class="cls-19" d="M3597.47,1387.47c0,17.93-63.65,32.46-142.16,32.46s-142.17-14.53-142.17-32.46,63.66-32.46,142.17-32.46,142.16,14.53,142.16,32.46Z"/>
        <path class="cls-20" d="M3639.95,1446.91c57.14-.35,94.64-60.7,94.64-60.7h-187.79s36.31,61.05,93.15,60.7Z"/>
        <path class="cls-15" d="M3556.85,1363.29h-2.76v-4.21h38.15v4.21h-13.19v1.18l9.78,1.12-2.02,9.69c.57.27,1.09.63,1.54,1.08.97.97,1.58,2.32,1.58,3.8s-.61,2.85-1.58,3.82c-.36.36-.77.68-1.23.92h10.35v3.03h-50.67v-3.03h10.46c-.45-.24-.87-.56-1.23-.92-.98-.97-1.58-2.32-1.58-3.82s.6-2.83,1.58-3.8c.79-.78,1.8-1.32,2.94-1.51l-2.11-11.56h0ZM3588.67,1357.28h-30.7l-.31-.8,2.38-1.89,1.79-.87-.11-2.48,2.22-.38.43-1.52,3.13-1.19,1.83,2,3.68-.16.22-1.35,4.92-.92,1.03,5.24,2.87-.38,3.72-.06.27,2.43,3.03.92-.38,1.4h0ZM3562.42,1384.9h19.55c-.46-.24-.87-.56-1.23-.92-.97-.97-1.57-2.32-1.57-3.82,0-.2,0-.41.03-.61h-14.01c.03.2.04.4.04.61,0,1.49-.6,2.85-1.58,3.82-.37.36-.78.68-1.23.92h0ZM3558.34,1378.67c-.38.39-.62.92-.62,1.5s.24,1.12.62,1.51c.38.38.91.62,1.5.62s1.12-.24,1.5-.62c.38-.38.63-.92.63-1.51s-.24-1.11-.63-1.5c-.38-.38-.91-.62-1.5-.62s-1.12.23-1.5.62h0ZM3582.42,1380.16c0,.59.23,1.12.62,1.51.39.38.91.62,1.5.62s1.11-.24,1.5-.62c.38-.38.62-.92.62-1.51s-.23-1.11-.62-1.5c-.38-.38-.91-.62-1.5-.62s-1.11.23-1.5.62c-.38.39-.62.92-.62,1.5Z"/>
        <path class="cls-8" d="M3499.67,1330.66l-.24-1.49,2.55.07h.16s.09,0,.09,0h0c1.84,0,3.51-.75,4.71-1.95,1.2-1.21,1.96-2.87,1.96-4.71,0-.53-.07-1.04-.18-1.51-.12-.5-.29-.98-.51-1.42l-.54-1.11.69-1.01c.12-.17.21-.33.3-.47.08-.17.18-.33.25-.51l3.43-.62c.48.49,1.06.9,1.69,1.16.6.26,1.28.4,2,.4.82,0,1.61-.19,2.28-.52.71-.35,1.34-.87,1.82-1.49l3.39.03c.35.49.81.89,1.32,1.15.5.25,1.08.4,1.71.4,1.03,0,1.97-.42,2.63-1.09h.01c.68-.68,1.09-1.61,1.09-2.65s-.41-1.97-1.09-2.64h-.01c-.66-.68-1.6-1.1-2.63-1.1-.51,0-.97.09-1.39.26-.42.17-.83.44-1.18.75l-3.33-.59c-.43-.86-1.1-1.58-1.91-2.08-.78-.48-1.71-.76-2.71-.76s-1.84.26-2.61.69c-.79.47-1.44,1.13-1.89,1.92l-3.49.28c-.58-.73-1.34-1.33-2.18-1.74-.81-.38-1.73-.6-2.71-.6-1.18,0-2.28.32-3.21.88-.97.58-1.78,1.41-2.32,2.4l-1.24,2.29-1.99-1.71c-.46-.4-.99-.72-1.57-.94-.54-.2-1.15-.31-1.79-.31-1.43,0-2.72.57-3.65,1.51h-.01c-.93.93-1.51,2.22-1.51,3.65,0,.9.23,1.75.63,2.48.42.77,1.03,1.42,1.77,1.89l1.37.86-.49,1.55c-.1.31-.16.64-.22.98-.05.32-.08.66-.08,1.02,0,.21,0,.14,0,.21l.02.21.07,1.2-1,.68c-1.03.69-1.88,1.65-2.48,2.78-.22.42-.4.86-.55,1.31h-4.35c.23-1.17.63-2.27,1.17-3.3.72-1.36,1.72-2.59,2.91-3.57.01-.39.06-.78.12-1.16l.02-.14c-.78-.7-1.46-1.54-1.97-2.47-.73-1.35-1.16-2.89-1.16-4.52,0-2.59,1.05-4.94,2.76-6.63h0c1.69-1.71,4.05-2.76,6.65-2.76,1.12,0,2.23.21,3.27.59.32.12.63.26.93.41.74-.84,1.61-1.57,2.56-2.15,1.58-.93,3.41-1.46,5.36-1.46,1.61,0,3.15.37,4.53,1.03.64.31,1.23.67,1.79,1.09.54-.54,1.16-1.02,1.83-1.41,1.4-.81,3.01-1.27,4.72-1.27s3.48.51,4.92,1.4c.8.5,1.52,1.11,2.14,1.82.17-.08.34-.16.51-.23.93-.36,1.91-.56,2.94-.56,2.18,0,4.18.89,5.62,2.33h0s0,0,0,0c1.45,1.44,2.34,3.43,2.34,5.63s-.89,4.17-2.34,5.62h0c-1.44,1.46-3.44,2.35-5.62,2.35-1.3,0-2.53-.31-3.63-.88-.39-.2-.77-.43-1.12-.69-.5.39-1.04.74-1.63,1.02-1.27.62-2.67.97-4.14.97-1.05,0-2.05-.18-3.01-.5.06.46.08.92.08,1.37,0,3.01-1.22,5.72-3.19,7.7-.14.13-.26.25-.39.38h-9.87Z"/>
        <path class="cls-21" d="M3401.75,1366.3h-9.28v2.05h9.28v-2.05h0ZM3401.75,1370.57h-9.28v2.05h9.28v-2.05h0ZM3401.75,1375.04h-9.28v2.05h9.28v-2.05h0ZM3419.24,1354.43h-11.44v2.05h11.44v-2.05h0ZM3419.24,1358.91h-11.44v2.05h11.44v-2.05h0ZM3419.24,1363.17h-11.44v2.05h11.44v-2.05h0ZM3419.24,1367.66h-11.44v2.06h11.44v-2.06h0ZM3450.99,1348.71h-11.45v2.05h11.45v-2.05h0ZM3450.99,1353.18h-11.45v2.05h11.45v-2.05h0ZM3450.99,1357.45h-11.45v2.05h11.45v-2.05h0ZM3450.99,1361.93h-11.45v2.06h11.45v-2.06h0ZM3401.75,1361.82h-9.28v2.05h9.28v-2.05h0ZM3456.73,1382.69h1.42v5.24h-71.35v-5.24h1.89v-24.54h13.18v-7.13h17.48v-7.55h37.37v39.23h0Z"/>
        <g>
          <path class="cls-16" d="M3614.77,1399.54l2.07-2.05c.83-.84,2.19-.83,3.02,0l1.1,1.11c-1.69,1.71-3.31,3.51-4.84,5.37l-1.37-1.39c-.82-.84-.82-2.21.02-3.05h0ZM3608.64,1418.66c.39.38.79.76,1.18,1.14,2.83-3.69,5.87-7.4,9.49-11.15.66.43,1.31.87,1.97,1.31.11-.13.22-.26.34-.39l24.22,24.58c.83.84,2.19.84,3.02,0l2.07-2.06c.83-.84.84-2.2.02-3.04l-24.42-24.77c3.46-3.48,7.34-6.87,11.08-9.24l-3.06-4.7c-10.73,6.86-19.63,17.25-25.92,28.32Z"/>
          <path class="cls-16" d="M3659.51,1397.33l1.98,2.07c.8.85.78,2.21-.04,3.05l-1.1,1.1c-1.65-1.69-3.38-3.3-5.17-4.84l1.37-1.38c.83-.83,2.17-.83,2.97,0h0ZM3640.95,1391.25c-.38.4-.75.8-1.13,1.19,3.56,2.84,7.14,5.87,10.75,9.51-.44.66-.87,1.33-1.3,1.98.13.11.25.23.37.34l-24.31,24.45c-.83.84-.85,2.21-.05,3.05l1.98,2.07c.8.84,2.14.85,2.96.01l24.51-24.65c3.35,3.47,6.6,7.36,8.86,11.11l4.62-3.1c-6.54-10.76-16.55-19.66-27.27-25.95Z"/>
        </g>
        <polygon class="cls-15" points="3477.67 1333.49 3512.07 1333.49 3519.43 1387.78 3470.3 1387.78 3477.67 1333.49 3477.67 1333.49"/>
        <path class="cls-40" d="M3263.34,934.84c-81.53,3.51-163.19,32.44-227.28,83.19-4.09,3.44-8.22,7.05-11.69,11.05,0,0-3.02-2.6-3.02-2.6,3.78-4.22,8-7.79,12.34-11.34,65.19-50.07,147.66-78.02,229.64-80.31h0Z"/>
        <path class="cls-39" d="M2790.88,1890.47c-178.11,2.45-233.1,98.19-336.45,104.12h557.78c-54.45-48.08-118.56-105.52-221.34-104.12Z"/>
        <path class="cls-24" d="M2192.94,1718.59h-.45l-.37.37h-9.77l10.59,18.83h-.45l-.37.37h-15.07v13.9l-.88.81h-14.27l-.81-.81v-13.9h-15.89c.2-1.27,3.73-7.68,10.6-19.2h-10.6v-.81l23.69-40.38h.8l23.26,40.82ZM2146.37,1712.49v.36c0,.83-1.08,3.29-3.23,7.36h7.35l.36.44c.45,1.08.86,1.62,1.26,1.62l-9.79,17.14h10.23l2.79,2.43-.81.8h-10.59v9.42l-.81.81h-9.79l-.8-.81v-9.42h-11.48l-.37-.37,7.73-13.46h-7.36l-.37-.44,17.14-29.8c.69.34,3.53,4.98,8.53,13.91Z"/>
        <g>
          <path class="cls-9" d="M2129.77,1498.38v7.91h-8.9v-7.91h-12.93l2.65-7.85,9.51-8.62-1.11-1.35-5.93,2.64,2.43-7.19,9.29-8.42-1.11-1.33-5.75,2.55,7.6-22.48,8.8,26.03.81,2.35-5.05-2.25-1.11,1.34,8.44,7.65,2.7,7.99-6.51-2.9-1.11,1.34,10.2,9.24-.03-.16.48,1.41h-13.36ZM2175.81,1432.46l10.99,32.18.99,2.92-6.3-2.78-1.39,1.66,10.54,9.45,3.38,9.88-8.14-3.58-1.39,1.66,12.75,11.43-.04-.19.59,1.74h-17.85v10.54h-8.8v-10.54h-17.33l3.32-9.71,11.89-10.66-1.39-1.66-7.41,3.27,3.04-8.89,11.61-10.41-1.39-1.66-7.19,3.17,9.51-27.81h0Z"/>
          <path class="cls-10" d="M2161.45,1500.48h-7.92v6.88h7.92v-6.88h0ZM2153.96,1445.37c-6.7,0-12.15,5.35-12.15,11.95,0,1.72.37,3.34,1.03,4.82-2.96,1.86-4.93,5.11-4.93,8.83,0,4.48,2.86,8.3,6.89,9.8-.12.6-.2,1.23-.2,1.87,0,4.17,2.94,7.67,6.88,8.63l1.72-5.09.82-2.43c3.74-11.06,7.01-20.72,10.78-31.85-2.01-3.88-6.11-6.53-10.83-6.53Z"/>
        </g>
        <g>
          <path class="cls-9" d="M2131.35,1984.94v7.91h-8.9v-7.91h-12.93l2.65-7.85,9.51-8.61-1.11-1.35-5.92,2.64,2.43-7.19,9.29-8.41-1.11-1.34-5.74,2.55,7.6-22.48,8.8,26.03.8,2.35-5.05-2.25-1.11,1.34,8.44,7.65,2.7,7.99-6.51-2.9-1.11,1.34,10.2,9.24-.04-.16.47,1.41h-13.36ZM2177.4,1919.01l10.99,32.18.99,2.92-6.3-2.78-1.39,1.67,10.55,9.45,3.38,9.88-8.15-3.58-1.38,1.66,12.75,11.43-.04-.19.59,1.74h-17.85v10.55h-8.8v-10.55h-17.33l3.31-9.7,11.89-10.67-1.39-1.65-7.4,3.26,3.03-8.88,11.62-10.41-1.39-1.66-7.19,3.17,9.52-27.81h0Z"/>
          <path class="cls-10" d="M2163.03,1987.04h-7.92v6.88h7.92v-6.88h0ZM2155.55,1931.93c-6.71,0-12.15,5.35-12.15,11.95,0,1.71.37,3.34,1.02,4.82-2.96,1.86-4.92,5.11-4.92,8.83,0,4.48,2.85,8.3,6.88,9.8-.13.6-.2,1.22-.2,1.87,0,4.17,2.94,7.67,6.88,8.63l1.71-5.08.82-2.43c3.73-11.07,7.01-20.72,10.78-31.85-2.01-3.88-6.11-6.53-10.83-6.53Z"/>
        </g>
        <path class="cls-24" d="M2310.74,1351.27h-.45l-.37.37h-9.77l10.59,18.83h-.45l-.37.37h-15.08v13.9l-.88.81h-14.27l-.81-.81v-13.9h-15.89c.2-1.27,3.74-7.68,10.6-19.2h-10.6v-.81l23.69-40.38h.8l23.26,40.82ZM2264.17,1345.17v.36c0,.83-1.08,3.29-3.23,7.36h7.34l.37.43c.45,1.08.86,1.62,1.26,1.62l-9.79,17.14h10.23l2.79,2.42-.8.81h-10.59v9.42l-.81.81h-9.79l-.81-.81v-9.42h-11.48l-.37-.37,7.73-13.46h-7.37l-.37-.44,17.14-29.79c.68.34,3.53,4.98,8.53,13.91Z"/>
        <g>
          <rect class="cls-25" x="2370.36" y="1464.6" width="61.65" height="38.78"/>
          <g>
            <rect class="cls-32" x="2418.77" y="1486.55" width="6.59" height="8.61"/>
            <rect class="cls-32" x="2418.77" y="1473.63" width="6.59" height="8.61"/>
            <polygon class="cls-12" points="2391.2 1495.15 2397.8 1495.16 2397.8 1486.55 2391.2 1486.54 2391.2 1495.15"/>
            <polygon class="cls-12" points="2391.2 1482.23 2397.8 1482.24 2397.8 1473.63 2391.2 1473.62 2391.2 1482.23"/>
            <rect class="cls-32" x="2377.75" y="1486.54" width="6.6" height="8.61"/>
            <rect class="cls-32" x="2377.75" y="1473.62" width="6.6" height="8.61"/>
          </g>
          <polygon class="cls-11" points="2444.07 1467.16 2437.55 1443.91 2388.65 1443.9 2388.65 1442.22 2391.27 1442.22 2391.27 1436.77 2377.63 1436.77 2377.63 1442.22 2380.46 1442.22 2380.46 1453.76 2379.64 1454.2 2376.33 1443.9 2367.31 1443.9 2359.17 1467.16 2444.07 1467.16"/>
          <polygon class="cls-13" points="2436.77 1467.16 2430.26 1467.17 2430.26 1501.19 2413.47 1501.19 2413.47 1486.55 2403.82 1486.55 2403.82 1501.19 2372.59 1501.19 2372.59 1467.17 2366.08 1467.16 2366.08 1501.19 2364.45 1501.19 2364.45 1508.91 2366.08 1508.91 2369.34 1508.91 2433.52 1508.91 2436.77 1508.91 2438.15 1508.91 2438.15 1501.19 2436.77 1501.19 2436.77 1467.16"/>
        </g>
        <path class="cls-24" d="M2310.74,1232.55h-.45l-.37.37h-9.77l10.59,18.83h-.45l-.37.37h-15.08v13.9l-.88.81h-14.27l-.81-.81v-13.9h-15.89c.2-1.27,3.74-7.68,10.6-19.2h-10.6v-.81l23.69-40.38h.8l23.26,40.82ZM2264.17,1226.45v.36c0,.83-1.08,3.29-3.23,7.36h7.34l.37.43c.45,1.08.86,1.62,1.26,1.62l-9.79,17.14h10.23l2.79,2.42-.8.81h-10.59v9.42l-.81.81h-9.79l-.81-.81v-9.42h-11.48l-.37-.37,7.73-13.46h-7.37l-.37-.44,17.14-29.79c.68.34,3.53,4.98,8.53,13.91Z"/>
        <g>
          <path class="cls-9" d="M2131.81,1133.57v7.91h-8.9v-7.91h-12.93l2.65-7.85,9.51-8.62-1.11-1.35-5.92,2.64,2.43-7.19,9.29-8.42-1.11-1.34-5.75,2.55,7.6-22.48,8.8,26.03.8,2.35-5.05-2.25-1.11,1.34,8.44,7.65,2.7,7.98-6.51-2.9-1.11,1.34,10.2,9.24-.03-.16.48,1.41h-13.36ZM2177.85,1067.65l10.99,32.18.99,2.92-6.3-2.78-1.39,1.67,10.54,9.45,3.38,9.88-8.14-3.58-1.39,1.66,12.75,11.43-.04-.19.59,1.74h-17.85v10.54h-8.8v-10.54h-17.32l3.31-9.7,11.89-10.67-1.39-1.66-7.4,3.26,3.04-8.88,11.61-10.41-1.39-1.66-7.19,3.17,9.51-27.81h0Z"/>
          <path class="cls-10" d="M2163.49,1135.67h-7.91v6.88h7.91v-6.88h0ZM2156,1080.56c-6.7,0-12.15,5.35-12.15,11.95,0,1.71.37,3.34,1.03,4.82-2.96,1.86-4.93,5.12-4.93,8.83,0,4.48,2.86,8.3,6.88,9.8-.12.6-.2,1.23-.2,1.87,0,4.17,2.94,7.67,6.87,8.63l1.72-5.08.82-2.43c3.74-11.06,7.01-20.72,10.78-31.85-2.01-3.88-6.11-6.53-10.83-6.53Z"/>
        </g>
        <g>
          <path class="cls-9" d="M2614.35,1133.57v7.91h-8.91v-7.91h-12.93l2.65-7.85,9.51-8.62-1.11-1.35-5.92,2.64,2.43-7.19,9.29-8.42-1.11-1.34-5.75,2.55,7.6-22.48,8.8,26.03.81,2.35-5.06-2.25-1.11,1.34,8.44,7.65,2.7,7.98-6.51-2.9-1.11,1.34,10.2,9.24-.03-.16.48,1.41h-13.36ZM2660.4,1067.65l10.99,32.18.99,2.92-6.3-2.78-1.39,1.66,10.54,9.45,3.38,9.88-8.14-3.58-1.39,1.66,12.74,11.43-.04-.19.59,1.74h-17.85v10.54h-8.8v-10.54h-17.33l3.32-9.7,11.88-10.67-1.39-1.66-7.4,3.26,3.03-8.88,11.62-10.41-1.39-1.66-7.18,3.17,9.51-27.81h0Z"/>
          <path class="cls-10" d="M2646.03,1135.67h-7.92v6.88h7.92v-6.88h0ZM2638.54,1080.56c-6.7,0-12.14,5.34-12.14,11.95,0,1.71.37,3.34,1.03,4.82-2.96,1.86-4.93,5.12-4.93,8.83,0,4.48,2.86,8.3,6.89,9.8-.13.6-.2,1.23-.2,1.87,0,4.17,2.94,7.67,6.87,8.63l1.73-5.08.82-2.43c3.74-11.06,7.01-20.72,10.78-31.85-2.01-3.88-6.11-6.53-10.84-6.53Z"/>
        </g>
        <g>
          <path class="cls-9" d="M2738.13,1133.57v7.91h-8.91v-7.91h-12.93l2.65-7.85,9.51-8.62-1.11-1.35-5.92,2.64,2.43-7.19,9.29-8.42-1.11-1.34-5.75,2.55,7.6-22.48,8.8,26.03.8,2.35-5.05-2.25-1.12,1.34,8.44,7.65,2.7,7.98-6.51-2.9-1.11,1.34,10.2,9.24-.04-.16.48,1.41h-13.36ZM2784.17,1067.65l10.99,32.18.99,2.92-6.3-2.78-1.39,1.66,10.54,9.45,3.38,9.88-8.14-3.58-1.39,1.66,12.74,11.43-.04-.19.59,1.74h-17.85v10.54h-8.8v-10.54h-17.33l3.31-9.7,11.89-10.67-1.39-1.66-7.4,3.26,3.04-8.88,11.62-10.41-1.39-1.66-7.19,3.17,9.51-27.81h0Z"/>
          <path class="cls-10" d="M2769.81,1135.67h-7.91v6.88h7.91v-6.88h0ZM2762.32,1080.56c-6.7,0-12.15,5.34-12.15,11.95,0,1.71.37,3.34,1.03,4.82-2.96,1.86-4.93,5.12-4.93,8.83,0,4.48,2.86,8.3,6.89,9.8-.13.6-.2,1.23-.2,1.87,0,4.17,2.94,7.67,6.88,8.63l1.72-5.08.82-2.43c3.74-11.06,7.01-20.72,10.78-31.85-2.01-3.88-6.11-6.53-10.83-6.53Z"/>
        </g>
        <path class="cls-24" d="M2556.16,1110.6h-.45l-.37.36h-9.77l10.59,18.83h-.45l-.37.37h-15.07v13.9l-.89.81h-14.27l-.81-.81v-13.9h-15.89c.2-1.27,3.74-7.68,10.6-19.2h-10.6v-.81l23.69-40.38h.8l23.26,40.83ZM2509.59,1104.5v.36c0,.83-1.08,3.29-3.23,7.36h7.34l.37.44c.45,1.08.86,1.62,1.26,1.62l-9.79,17.14h10.23l2.8,2.42-.82.81h-10.59v9.42l-.8.81h-9.8l-.8-.81v-9.42h-11.48l-.37-.37,7.73-13.46h-7.36l-.37-.44,17.14-29.79c.69.34,3.53,4.98,8.53,13.91Z"/>
        <path class="cls-24" d="M3044.05,1110.6h-.45l-.37.36h-9.77l10.59,18.83h-.45l-.37.37h-15.08v13.9l-.89.81h-14.27l-.81-.81v-13.9h-15.89c.2-1.27,3.74-7.68,10.6-19.2h-10.6v-.81l23.69-40.38h.8l23.26,40.83ZM2997.48,1104.5v.36c0,.83-1.08,3.29-3.23,7.36h7.34l.37.44c.45,1.08.86,1.62,1.26,1.62l-9.79,17.14h10.23l2.79,2.42-.81.81h-10.59v9.42l-.8.81h-9.8l-.8-.81v-9.42h-11.48l-.37-.37,7.73-13.46h-7.36l-.37-.44,17.14-29.79c.69.34,3.53,4.98,8.53,13.91Z"/>
        <path class="cls-24" d="M3525.86,1110.6h-.45l-.37.36h-9.77l10.59,18.83h-.45l-.37.37h-15.08v13.9l-.89.81h-14.27l-.81-.81v-13.9h-15.89c.2-1.27,3.74-7.68,10.6-19.2h-10.6v-.81l23.69-40.38h.8l23.26,40.83ZM3479.29,1104.5v.36c0,.83-1.08,3.29-3.23,7.36h7.35l.37.44c.45,1.08.86,1.62,1.25,1.62l-9.79,17.14h10.23l2.79,2.42-.81.81h-10.59v9.42l-.81.81h-9.8l-.8-.81v-9.42h-11.48l-.37-.37,7.73-13.46h-7.36l-.37-.44,17.14-29.79c.69.34,3.53,4.98,8.53,13.91Z"/>
        <path class="cls-24" d="M3645.3,1110.6h-.45l-.37.36h-9.77l10.59,18.83h-.45l-.37.37h-15.08v13.9l-.89.81h-14.27l-.81-.81v-13.9h-15.89c.2-1.27,3.74-7.68,10.6-19.2h-10.6v-.81l23.69-40.38h.8l23.26,40.83ZM3598.73,1104.5v.36c0,.83-1.08,3.29-3.23,7.36h7.35l.37.44c.45,1.08.86,1.62,1.25,1.62l-9.79,17.14h10.23l2.8,2.42-.81.81h-10.59v9.42l-.81.81h-9.8l-.8-.81v-9.42h-11.48l-.37-.37,7.73-13.46h-7.36l-.37-.44,17.14-29.79c.69.34,3.53,4.98,8.53,13.91Z"/>
        <path class="cls-24" d="M2434.04,1837.69h-.45l-.37.37h-9.77l10.59,18.83h-.45l-.37.37h-15.08v13.9l-.89.81h-14.27l-.81-.81v-13.9h-15.89c.2-1.27,3.74-7.68,10.6-19.2h-10.6v-.81l23.7-40.38h.8l23.25,40.82ZM2387.47,1831.59v.36c0,.83-1.08,3.29-3.23,7.36h7.35l.37.44c.46,1.08.86,1.62,1.26,1.62l-9.79,17.14h10.24l2.79,2.42-.81.81h-10.59v9.42l-.8.81h-9.8l-.8-.81v-9.42h-11.48l-.37-.37,7.73-13.46h-7.37l-.37-.44,17.14-29.79c.69.34,3.53,4.98,8.53,13.91Z"/>
        <g>
          <path class="cls-9" d="M2741.16,1866.64v7.91h-8.9v-7.91h-12.93l2.65-7.85,9.51-8.61-1.11-1.35-5.93,2.64,2.43-7.18,9.29-8.42-1.11-1.34-5.75,2.55,7.6-22.48,8.8,26.02.81,2.35-5.05-2.25-1.11,1.34,8.44,7.65,2.7,7.99-6.51-2.9-1.11,1.34,10.2,9.24-.03-.16.48,1.41h-13.36ZM2787.2,1800.71l10.99,32.18.99,2.92-6.3-2.78-1.39,1.67,10.54,9.45,3.38,9.88-8.14-3.58-1.39,1.65,12.75,11.43-.04-.19.59,1.74h-17.85v10.55h-8.8v-10.55h-17.33l3.32-9.71,11.89-10.66-1.39-1.66-7.4,3.26,3.04-8.88,11.61-10.41-1.39-1.66-7.19,3.17,9.51-27.81h0Z"/>
          <path class="cls-10" d="M2772.84,1868.74h-7.92v6.88h7.92v-6.88h0ZM2765.35,1813.62c-6.7,0-12.15,5.35-12.15,11.95,0,1.72.37,3.34,1.03,4.82-2.96,1.86-4.93,5.12-4.93,8.83,0,4.48,2.86,8.31,6.89,9.8-.12.61-.2,1.23-.2,1.87,0,4.17,2.94,7.67,6.88,8.63l1.72-5.08.82-2.43c3.74-11.06,7.01-20.72,10.77-31.85-2.01-3.88-6.11-6.53-10.83-6.53Z"/>
        </g>
        <g>
          <path class="cls-9" d="M2984.31,1866.64v7.91h-8.9v-7.91h-12.93l2.65-7.85,9.51-8.61-1.11-1.35-5.92,2.64,2.43-7.18,9.29-8.42-1.11-1.34-5.75,2.55,7.6-22.48,8.8,26.02.8,2.35-5.05-2.25-1.11,1.34,8.44,7.65,2.7,7.99-6.51-2.9-1.11,1.34,10.2,9.24-.04-.16.48,1.41h-13.36ZM3030.36,1800.71l10.99,32.18.99,2.92-6.3-2.78-1.39,1.67,10.54,9.45,3.38,9.88-8.14-3.58-1.39,1.65,12.75,11.43-.04-.19.6,1.74h-17.85v10.55h-8.8v-10.55h-17.33l3.31-9.71,11.89-10.66-1.39-1.66-7.4,3.26,3.04-8.88,11.61-10.41-1.39-1.66-7.19,3.17,9.51-27.81h0Z"/>
          <path class="cls-10" d="M3015.99,1868.74h-7.91v6.88h7.91v-6.88h0ZM3008.51,1813.62c-6.7,0-12.15,5.35-12.15,11.95,0,1.72.37,3.34,1.03,4.82-2.96,1.86-4.93,5.12-4.93,8.83,0,4.48,2.86,8.31,6.88,9.8-.12.61-.2,1.23-.2,1.87,0,4.17,2.94,7.67,6.87,8.63l1.72-5.08.82-2.43c3.74-11.06,7.01-20.72,10.77-31.85-2.01-3.88-6.11-6.53-10.83-6.53Z"/>
        </g>
        <g>
          <path class="cls-9" d="M3587.59,1866.64v7.91h-8.91v-7.91h-12.93l2.65-7.85,9.52-8.61-1.11-1.35-5.93,2.64,2.43-7.18,9.3-8.42-1.12-1.34-5.75,2.55,7.61-22.48,8.8,26.02.81,2.35-5.06-2.25-1.11,1.34,8.44,7.65,2.7,7.99-6.51-2.9-1.11,1.34,10.2,9.24-.03-.16.47,1.41h-13.36ZM3633.63,1800.71l10.99,32.18.99,2.92-6.3-2.78-1.38,1.67,10.54,9.45,3.39,9.88-8.15-3.58-1.38,1.65,12.74,11.43-.04-.19.59,1.74h-17.85v10.55h-8.8v-10.55h-17.32l3.31-9.7,11.89-10.67-1.39-1.66-7.4,3.26,3.03-8.89,11.61-10.41-1.39-1.66-7.19,3.17,9.51-27.81h0Z"/>
          <path class="cls-10" d="M3619.27,1868.74h-7.91v6.88h7.91v-6.88h0ZM3611.78,1813.62c-6.7,0-12.15,5.34-12.15,11.94,0,1.72.37,3.34,1.02,4.82-2.96,1.86-4.92,5.12-4.92,8.83,0,4.48,2.86,8.3,6.89,9.8-.13.61-.2,1.23-.2,1.87,0,4.17,2.94,7.67,6.88,8.63l1.72-5.08.82-2.43c3.74-11.06,7.01-20.72,10.78-31.85-2.01-3.88-6.11-6.53-10.83-6.53Z"/>
        </g>
        <g>
          <path class="cls-9" d="M2862.86,1744.55v7.91h-8.9v-7.91h-12.94l2.65-7.85,9.52-8.62-1.12-1.35-5.92,2.64,2.43-7.19,9.29-8.42-1.1-1.34-5.75,2.55,7.61-22.48,8.8,26.03.8,2.35-5.05-2.25-1.11,1.34,8.44,7.65,2.7,7.98-6.51-2.9-1.11,1.34,10.2,9.24-.03-.16.48,1.41h-13.37ZM2908.91,1678.62l10.99,32.18.99,2.92-6.3-2.78-1.4,1.66,10.55,9.45,3.38,9.88-8.14-3.58-1.39,1.66,12.75,11.43-.04-.19.59,1.74h-17.85v10.54h-8.8v-10.54h-17.33l3.31-9.7,11.89-10.67-1.39-1.66-7.4,3.26,3.03-8.88,11.61-10.41-1.39-1.66-7.19,3.17,9.51-27.81h0Z"/>
          <path class="cls-10" d="M2894.54,1746.65h-7.92v6.88h7.92v-6.88h0ZM2887.06,1691.54c-6.71,0-12.14,5.35-12.14,11.95,0,1.71.37,3.34,1.02,4.82-2.96,1.86-4.93,5.12-4.93,8.83,0,4.48,2.86,8.3,6.89,9.8-.13.6-.2,1.23-.2,1.87,0,4.18,2.94,7.67,6.88,8.63l1.72-5.08.82-2.43c3.75-11.06,7.01-20.72,10.78-31.85-2.01-3.88-6.11-6.53-10.83-6.53Z"/>
        </g>
        <g>
          <path class="cls-9" d="M2739.64,1379.09v7.91h-8.9v-7.91h-12.94l2.65-7.85,9.51-8.62-1.11-1.35-5.92,2.64,2.43-7.19,9.3-8.42-1.12-1.34-5.75,2.55,7.6-22.48,8.8,26.03.8,2.35-5.05-2.25-1.11,1.34,8.44,7.65,2.7,7.98-6.51-2.9-1.11,1.34,10.2,9.24-.04-.16.48,1.41h-13.36ZM2785.69,1313.16l10.99,32.17.98,2.92-6.3-2.78-1.39,1.66,10.54,9.45,3.38,9.88-8.14-3.58-1.39,1.66,12.75,11.43-.04-.19.59,1.74h-17.86v10.54h-8.8v-10.54h-17.33l3.31-9.7,11.89-10.67-1.39-1.66-7.4,3.26,3.04-8.88,11.61-10.41-1.39-1.66-7.19,3.17,9.52-27.81h0Z"/>
          <path class="cls-10" d="M2771.32,1381.19h-7.91v6.88h7.91v-6.88h0ZM2763.83,1326.07c-6.7,0-12.15,5.35-12.15,11.95,0,1.72.37,3.34,1.03,4.82-2.96,1.86-4.93,5.12-4.93,8.83,0,4.48,2.86,8.3,6.89,9.8-.13.6-.2,1.23-.2,1.88,0,4.17,2.94,7.67,6.88,8.62l1.72-5.08.82-2.43c3.74-11.06,7.01-20.72,10.77-31.85-2.01-3.88-6.11-6.53-10.83-6.53Z"/>
        </g>
        <path class="cls-24" d="M3162.67,1476.38h-.45l-.37.37h-9.78l10.6,18.83h-.45l-.37.37h-15.08v13.9l-.88.81h-14.27l-.82-.81v-13.9h-15.88c.2-1.27,3.74-7.68,10.59-19.2h-10.59v-.81l23.69-40.38h.8l23.26,40.83ZM3116.09,1470.28v.37c0,.83-1.07,3.28-3.22,7.35h7.34l.36.43c.46,1.08.87,1.62,1.26,1.62l-9.79,17.14h10.23l2.79,2.43-.81.8h-10.6v9.42l-.79.81h-9.8l-.8-.81v-9.42h-11.48l-.37-.37,7.73-13.46h-7.36l-.37-.43,17.14-29.79c.68.33,3.53,4.97,8.53,13.9Z"/>
        <path class="cls-24" d="M3045.43,1354.67h-.45l-.37.37h-9.77l10.59,18.83h-.45l-.37.37h-15.08v13.9l-.89.81h-14.27l-.81-.81v-13.9h-15.89c.2-1.27,3.74-7.68,10.6-19.2h-10.6v-.81l23.69-40.38h.8l23.26,40.83ZM2998.86,1348.57v.36c0,.83-1.08,3.29-3.23,7.36h7.35l.37.44c.45,1.08.86,1.62,1.25,1.62l-9.79,17.14h10.23l2.8,2.42-.81.81h-10.59v9.42l-.81.81h-9.8l-.8-.81v-9.42h-11.48l-.37-.37,7.73-13.46h-7.36l-.37-.44,17.14-29.79c.69.34,3.53,4.98,8.53,13.91Z"/>
        <path class="cls-24" d="M3162.67,1718.51h-.45l-.37.37h-9.78l10.6,18.83h-.45l-.37.37h-15.08v13.91l-.88.81h-14.27l-.82-.81v-13.91h-15.88c.2-1.27,3.74-7.68,10.59-19.2h-10.59v-.81l23.69-40.38h.8l23.26,40.83ZM3116.09,1712.4v.37c0,.83-1.07,3.29-3.22,7.36h7.34l.36.43c.46,1.08.87,1.63,1.26,1.63l-9.79,17.14h10.23l2.79,2.42-.81.81h-10.6v9.42l-.79.81h-9.8l-.8-.81v-9.42h-11.48l-.37-.37,7.73-13.46h-7.36l-.37-.44,17.14-29.79c.68.34,3.53,4.98,8.53,13.91Z"/>
        <path class="cls-24" d="M2806.71,1471.12h-.45l-.37.37h-9.77l10.59,18.83h-.45l-.37.37h-15.08v13.9l-.89.81h-14.27l-.81-.81v-13.9h-15.89c.2-1.27,3.74-7.68,10.59-19.2h-10.59v-.81l23.69-40.38h.8l23.26,40.83ZM2760.14,1465.02v.37c0,.83-1.08,3.28-3.23,7.36h7.35l.37.43c.45,1.08.86,1.62,1.25,1.62l-9.79,17.14h10.23l2.79,2.42-.81.81h-10.59v9.42l-.81.81h-9.8l-.8-.81v-9.42h-11.48l-.37-.37,7.73-13.46h-7.36l-.37-.44,17.14-29.79c.68.34,3.53,4.97,8.53,13.9Z"/>
        <path class="cls-24" d="M3286.07,1841.61h-.45l-.37.37h-9.77l10.59,18.83h-.45l-.37.37h-15.08v13.9l-.89.81h-14.27l-.81-.81v-13.9h-15.89c.2-1.27,3.74-7.68,10.6-19.2h-10.6v-.81l23.69-40.38h.81l23.25,40.82ZM3239.5,1835.51v.36c0,.83-1.08,3.29-3.23,7.36h7.34l.37.44c.45,1.08.86,1.62,1.25,1.62l-9.79,17.14h10.24l2.79,2.42-.82.81h-10.59v9.42l-.8.81h-9.8l-.81-.81v-9.42h-11.47l-.37-.37,7.74-13.46h-7.36l-.37-.44,17.14-29.8c.69.34,3.53,4.98,8.53,13.91Z"/>
        <path class="cls-24" d="M3766.89,1841.61h-.46l-.36.37h-9.78l10.6,18.83h-.46l-.36.37h-15.08v13.9l-.88.81h-14.27l-.81-.81v-13.9h-15.88c.2-1.27,3.74-7.68,10.59-19.2h-10.59v-.81l23.69-40.38h.8l23.26,40.82ZM3720.32,1835.51v.36c0,.83-1.08,3.29-3.23,7.36h7.35l.36.44c.45,1.08.87,1.62,1.26,1.62l-9.78,17.14h10.23l2.8,2.42-.82.81h-10.59v9.42l-.8.81h-9.79l-.8-.81v-9.42h-11.48l-.37-.37,7.73-13.46h-7.36l-.37-.44,17.14-29.8c.69.34,3.53,4.98,8.53,13.91Z"/>
        <g>
          <path class="cls-9" d="M2986.92,1986.54v7.91h-8.91v-7.91h-12.93l2.65-7.85,9.51-8.62-1.11-1.35-5.92,2.64,2.43-7.19,9.29-8.41-1.11-1.34-5.75,2.55,7.6-22.48,8.8,26.03.8,2.35-5.05-2.25-1.11,1.34,8.44,7.65,2.7,7.99-6.51-2.9-1.11,1.34,10.2,9.24-.04-.16.48,1.41h-13.36ZM3032.96,1920.61l10.99,32.18.99,2.92-6.3-2.78-1.39,1.67,10.54,9.45,3.38,9.88-8.14-3.58-1.39,1.66,12.74,11.43-.04-.19.59,1.74h-17.85v10.54h-8.8v-10.54h-17.32l3.31-9.7,11.89-10.67-1.39-1.65-7.4,3.26,3.04-8.88,11.61-10.41-1.39-1.66-7.18,3.17,9.51-27.81h0Z"/>
          <path class="cls-10" d="M3018.6,1988.64h-7.91v6.88h7.91v-6.88h0ZM3011.11,1933.53c-6.7,0-12.15,5.34-12.15,11.95,0,1.71.37,3.33,1.03,4.82-2.96,1.85-4.93,5.11-4.93,8.83,0,4.48,2.86,8.31,6.88,9.8-.12.6-.2,1.23-.2,1.87,0,4.17,2.94,7.67,6.88,8.62l1.72-5.08.83-2.43c3.74-11.06,7.01-20.72,10.78-31.85-2.01-3.88-6.11-6.53-10.83-6.53Z"/>
        </g>
        <g>
          <path class="cls-9" d="M2986.92,2104.47v7.91h-8.91v-7.91h-12.93l2.65-7.85,9.51-8.61-1.11-1.35-5.92,2.64,2.43-7.19,9.29-8.41-1.11-1.33-5.75,2.55,7.6-22.48,8.8,26.03.8,2.35-5.05-2.25-1.11,1.34,8.44,7.65,2.7,7.99-6.51-2.9-1.11,1.34,10.2,9.24-.04-.16.48,1.41h-13.36ZM3032.96,2038.55l10.99,32.18.99,2.92-6.3-2.78-1.39,1.67,10.54,9.45,3.38,9.88-8.14-3.58-1.39,1.65,12.74,11.43-.04-.19.59,1.73h-17.85v10.55h-8.8v-10.55h-17.32l3.31-9.7,11.89-10.66-1.39-1.66-7.4,3.27,3.04-8.89,11.61-10.41-1.39-1.66-7.18,3.17,9.51-27.81h0Z"/>
          <path class="cls-10" d="M3018.6,2106.58h-7.91v6.88h7.91v-6.88h0ZM3011.11,2051.46c-6.7,0-12.15,5.35-12.15,11.95,0,1.71.37,3.34,1.03,4.82-2.96,1.86-4.93,5.12-4.93,8.83,0,4.48,2.86,8.31,6.88,9.8-.12.6-.2,1.22-.2,1.87,0,4.17,2.94,7.67,6.88,8.63l1.72-5.08.83-2.43c3.74-11.07,7.01-20.72,10.78-31.85-2.01-3.88-6.11-6.53-10.83-6.53Z"/>
        </g>
        <path class="cls-38" d="M2802.43,2324.37h-.45l-.37.37h-9.77l10.59,18.83h-.45l-.37.37h-15.08v13.9l-.89.81h-14.27l-.81-.81v-13.9h-15.89c.2-1.27,3.73-7.68,10.59-19.2h-10.59v-.81l23.69-40.38h.8l23.26,40.83ZM2755.85,2318.26v.37c0,.83-1.08,3.29-3.22,7.36h7.34l.37.44c.45,1.08.86,1.62,1.25,1.62l-9.79,17.14h10.23l2.79,2.42-.81.81h-10.59v9.42l-.81.81h-9.8l-.8-.81v-9.42h-11.48l-.37-.37,7.73-13.46h-7.36l-.37-.44,17.14-29.8c.68.34,3.53,4.98,8.53,13.91Z"/>
        <path class="cls-38" d="M3287.02,2324.37h-.46l-.36.37h-9.78l10.59,18.83h-.46l-.36.37h-15.08s0,13.9,0,13.9l-.89.81h-14.27l-.81-.81v-13.9h-15.89c.2-1.27,3.74-7.68,10.6-19.2h-10.6v-.81l23.7-40.38h.8l23.26,40.83ZM3240.44,2318.26v.37c0,.83-1.08,3.29-3.23,7.36h7.35l.37.44c.45,1.08.86,1.62,1.26,1.62l-9.79,17.14h10.23l2.8,2.42-.81.81h-10.59v9.42l-.81.81h-9.8l-.81-.81v-9.42h-11.47l-.37-.37,7.73-13.46h-7.36l-.37-.44,17.14-29.8c.68.34,3.53,4.98,8.53,13.91Z"/>
        <g>
          <path class="cls-9" d="M2370.53,2349.57v7.91h-8.9v-7.91h-12.93l2.65-7.85,9.52-8.61-1.12-1.35-5.92,2.64,2.43-7.19,9.29-8.41-1.11-1.34-5.75,2.55,7.6-22.48,8.8,26.03.8,2.35-5.05-2.25-1.11,1.34,8.44,7.65,2.7,7.99-6.51-2.9-1.11,1.34,10.2,9.24-.03-.16.47,1.41h-13.36ZM2416.58,2283.64l10.99,32.18.99,2.92-6.3-2.78-1.39,1.67,10.54,9.45,3.38,9.88-8.14-3.58-1.39,1.65,12.75,11.43-.04-.19.59,1.73h-17.85v10.54h-8.8v-10.54h-17.32l3.31-9.7,11.89-10.67-1.39-1.65-7.4,3.26,3.04-8.88,11.61-10.41-1.39-1.66-7.18,3.17,9.51-27.81h0Z"/>
          <path class="cls-10" d="M2402.22,2351.67h-7.92v6.88h7.92v-6.88h0ZM2394.73,2296.56c-6.7,0-12.15,5.35-12.15,11.95,0,1.71.37,3.34,1.03,4.82-2.96,1.86-4.93,5.12-4.93,8.83,0,4.48,2.86,8.3,6.88,9.8-.12.6-.2,1.22-.2,1.87,0,4.17,2.94,7.67,6.88,8.62l1.72-5.08.82-2.43c3.74-11.07,7.01-20.72,10.78-31.85-2.01-3.88-6.11-6.53-10.83-6.53Z"/>
        </g>
        <g>
          <path class="cls-22" d="M2862.86,2347.4v7.91h-8.9v-7.91h-12.93l2.65-7.85,9.51-8.62-1.11-1.35-5.93,2.64,2.43-7.19,9.29-8.41-1.11-1.34-5.75,2.55,7.6-22.48,8.8,26.03.8,2.35-5.05-2.25-1.11,1.34,8.44,7.65,2.7,7.99-6.51-2.9-1.11,1.34,10.2,9.24-.03-.16.48,1.41h-13.36ZM2908.9,2281.47l10.99,32.18.99,2.92-6.3-2.78-1.39,1.66,10.54,9.45,3.38,9.88-8.14-3.58-1.39,1.66,12.75,11.43-.04-.19.59,1.74h-17.85v10.55h-8.8v-10.55h-17.32l3.31-9.7,11.89-10.67-1.39-1.66-7.4,3.26,3.04-8.89,11.61-10.4-1.39-1.66-7.19,3.17,9.51-27.81h0Z"/>
          <path class="cls-22" d="M2894.54,2349.5h-7.91v6.88h7.91v-6.88h0ZM2887.05,2294.39c-6.7,0-12.15,5.35-12.15,11.95,0,1.71.37,3.33,1.03,4.82-2.96,1.85-4.93,5.11-4.93,8.83,0,4.48,2.86,8.31,6.89,9.8-.12.6-.2,1.23-.2,1.87,0,4.17,2.94,7.67,6.88,8.63l1.72-5.08.82-2.43c3.74-11.06,7.01-20.72,10.77-31.85-2.01-3.88-6.11-6.53-10.83-6.53Z"/>
        </g>
        <g>
          <path class="cls-22" d="M2862.86,2224.07v7.91h-8.9v-7.91h-12.93l2.65-7.85,9.51-8.62-1.11-1.35-5.93,2.65,2.43-7.19,9.29-8.41-1.11-1.34-5.75,2.55,7.6-22.48,8.8,26.03.8,2.35-5.05-2.25-1.11,1.34,8.44,7.65,2.7,7.99-6.51-2.9-1.11,1.35,10.2,9.24-.03-.16.48,1.42h-13.36ZM2908.9,2158.13l10.99,32.18.99,2.92-6.3-2.78-1.39,1.67,10.54,9.45,3.38,9.88-8.14-3.58-1.39,1.66,12.75,11.43-.04-.19.59,1.74h-17.85v10.55h-8.8v-10.55h-17.32l3.31-9.7,11.89-10.67-1.39-1.66-7.4,3.26,3.04-8.88,11.61-10.4-1.39-1.66-7.19,3.17,9.51-27.82h0Z"/>
          <path class="cls-22" d="M2894.54,2226.16h-7.91v6.88h7.91v-6.88h0ZM2887.05,2171.05c-6.7,0-12.15,5.34-12.15,11.94,0,1.72.37,3.34,1.03,4.82-2.96,1.86-4.93,5.12-4.93,8.83,0,4.48,2.86,8.3,6.89,9.8-.12.6-.2,1.22-.2,1.87,0,4.17,2.94,7.67,6.88,8.63l1.72-5.08.82-2.43c3.74-11.07,7.01-20.73,10.77-31.85-2.01-3.88-6.11-6.53-10.83-6.53Z"/>
        </g>
        <path class="cls-38" d="M3769.34,2078.05h-.45l-.37.37h-9.77l10.59,18.83h-.45l-.37.37h-15.08v13.9l-.89.81h-14.27l-.81-.81v-13.9h-15.89c.2-1.27,3.74-7.68,10.6-19.2h-10.6v-.81l23.7-40.38h.81l23.25,40.83ZM3722.76,2071.95v.36c0,.83-1.08,3.29-3.23,7.36h7.35l.36.44c.46,1.08.87,1.62,1.26,1.62l-9.79,17.14h10.23l2.79,2.42-.81.81h-10.59v9.42l-.81.81h-9.8l-.8-.81v-9.42h-11.48l-.36-.37,7.73-13.46h-7.37l-.36-.44,17.14-29.8c.69.34,3.54,4.98,8.54,13.91Z"/>
        <path class="cls-38" d="M3286.05,2078.05h-.45l-.37.37h-9.77l10.59,18.83h-.45l-.37.37h-15.08v13.91l-.88.81h-14.27l-.81-.81v-13.91h-15.89c.21-1.27,3.75-7.68,10.6-19.2h-10.6v-.81l23.7-40.38h.81l23.25,40.83ZM3239.48,2071.95v.36c0,.83-1.08,3.29-3.23,7.36h7.35l.36.44c.46,1.08.87,1.62,1.26,1.62l-9.79,17.14h10.24l2.79,2.42-.81.81h-10.59v9.42l-.81.81h-9.8l-.8-.81v-9.42h-11.48l-.36-.37,7.73-13.46h-7.37l-.36-.44,17.14-29.8c.69.34,3.54,4.98,8.54,13.91Z"/>
        <path class="cls-24" d="M3522.84,2203.71h-.45l-.37.37h-9.77l10.59,18.83h-.45l-.37.37h-15.08v13.91l-.89.81h-14.27l-.81-.81v-13.91h-15.89c.2-1.27,3.74-7.68,10.61-19.2h-10.61v-.81l23.69-40.38h.8l23.26,40.82ZM3476.27,2197.61v.36c0,.83-1.08,3.29-3.23,7.36h7.35l.37.43c.45,1.08.87,1.62,1.26,1.62l-9.79,17.14h10.23l2.8,2.42-.81.81h-10.59v9.42l-.8.81h-9.8l-.8-.81v-9.42h-11.47l-.37-.37,7.73-13.46h-7.36l-.37-.44,17.15-29.8c.68.34,3.53,4.98,8.53,13.91Z"/>
        <g>
          <path class="cls-22" d="M3468.45,1985.13v7.91h-8.9v-7.91h-12.93l2.65-7.85,9.51-8.61-1.11-1.35-5.92,2.64,2.43-7.19,9.29-8.41-1.11-1.34-5.75,2.55,7.6-22.48,8.8,26.03.81,2.35-5.05-2.25-1.11,1.34,8.44,7.65,2.7,7.98-6.51-2.9-1.11,1.34,10.2,9.24-.03-.16.48,1.41h-13.36ZM3514.49,1919.21l10.99,32.18.99,2.92-6.3-2.78-1.39,1.66,10.54,9.45,3.38,9.88-8.14-3.58-1.39,1.66,12.75,11.43-.04-.19.6,1.73h-17.86v10.55h-8.8v-10.55h-17.32l3.31-9.7,11.89-10.66-1.39-1.65-7.4,3.26,3.04-8.89,11.61-10.41-1.39-1.66-7.19,3.17,9.51-27.81h0Z"/>
          <path class="cls-22" d="M3500.13,1987.23h-7.91v6.88h7.91v-6.88h0ZM3492.64,1932.12c-6.7,0-12.15,5.35-12.15,11.95,0,1.71.37,3.34,1.03,4.82-2.96,1.86-4.93,5.12-4.93,8.83,0,4.48,2.86,8.31,6.88,9.8-.13.6-.2,1.23-.2,1.87,0,4.18,2.94,7.67,6.88,8.63l1.72-5.08.82-2.43c3.74-11.07,7.01-20.72,10.78-31.85-2.01-3.88-6.11-6.53-10.83-6.53Z"/>
        </g>
        <path class="cls-24" d="M3771.67,1598.19h-.46l-.36.37h-9.78l10.59,18.83h-.46l-.36.37h-15.07v13.9l-.89.81h-14.27l-.82-.81v-13.9h-15.88c.2-1.27,3.74-7.68,10.6-19.2h-10.6v-.81l23.69-40.38h.81l23.25,40.83ZM3725.1,1592.08v.36c0,.83-1.08,3.29-3.23,7.36h7.35l.36.44c.46,1.08.87,1.62,1.26,1.62l-9.79,17.14h10.23l2.79,2.42-.81.81h-10.6v9.42l-.8.81h-9.8l-.8-.81v-9.42h-11.48l-.37-.37,7.73-13.46h-7.36l-.37-.44,17.14-29.79c.68.33,3.53,4.97,8.53,13.9Z"/>
        <path class="cls-24" d="M3042.27,1598.19h-.46l-.36.37h-9.78l10.6,18.83h-.46l-.36.37h-15.08v13.9l-.89.81h-14.27l-.82-.81v-13.9h-15.88c.2-1.27,3.74-7.68,10.6-19.2h-10.6v-.81l23.69-40.38h.8l23.26,40.83ZM2995.7,1592.08v.36c0,.83-1.08,3.29-3.23,7.36h7.35l.36.44c.46,1.08.87,1.62,1.26,1.62l-9.79,17.14h10.23l2.79,2.42-.81.81h-10.6v9.42l-.8.81h-9.79l-.8-.81v-9.42h-11.48l-.37-.37,7.73-13.46h-7.36l-.37-.44,17.14-29.79c.68.33,3.53,4.97,8.53,13.9Z"/>
        <g>
          <path class="cls-9" d="M3464.16,1500.55v7.91h-8.9v-7.91h-12.93l2.65-7.85,9.51-8.62-1.11-1.35-5.92,2.65,2.43-7.19,9.29-8.42-1.11-1.34-5.75,2.55,7.6-22.48,8.8,26.03.8,2.35-5.05-2.25-1.11,1.34,8.44,7.65,2.7,7.99-6.51-2.9-1.11,1.34,10.2,9.24-.03-.16.48,1.42h-13.36ZM3510.21,1434.63l10.99,32.18.99,2.92-6.3-2.78-1.39,1.67,10.54,9.45,3.38,9.88-8.14-3.58-1.39,1.66,12.75,11.43-.04-.19.59,1.74h-17.85v10.54h-8.8v-10.54h-17.32l3.31-9.71,11.89-10.66-1.39-1.66-7.4,3.26,3.04-8.88,11.61-10.4-1.39-1.66-7.19,3.17,9.51-27.81h0Z"/>
          <path class="cls-10" d="M3495.85,1502.65h-7.91v6.88h7.91v-6.88h0ZM3488.36,1447.54c-6.7,0-12.15,5.34-12.15,11.94,0,1.71.37,3.34,1.03,4.82-2.96,1.86-4.93,5.12-4.93,8.83,0,4.48,2.86,8.3,6.88,9.8-.12.6-.2,1.23-.2,1.88,0,4.17,2.94,7.67,6.88,8.62l1.72-5.08.82-2.43c3.74-11.06,7.01-20.72,10.78-31.85-2.01-3.88-6.11-6.53-10.83-6.53Z"/>
        </g>
        <g>
          <path class="cls-22" d="M3346.17,1257.37v7.91h-8.9v-7.91h-12.94l2.66-7.85,9.51-8.62-1.12-1.35-5.92,2.64,2.43-7.19,9.29-8.42-1.11-1.34-5.75,2.55,7.61-22.48,8.8,26.03.8,2.35-5.05-2.25-1.12,1.34,8.45,7.65,2.7,7.99-6.51-2.9-1.12,1.34,10.2,9.24-.03-.16.48,1.41h-13.37ZM3392.22,1191.45l10.99,32.18.99,2.92-6.3-2.78-1.39,1.67,10.54,9.45,3.38,9.88-8.14-3.58-1.39,1.66,12.75,11.43-.04-.19.59,1.74h-17.85v10.55h-8.8v-10.55h-17.32l3.31-9.7,11.88-10.67-1.39-1.66-7.4,3.26,3.04-8.88,11.61-10.41-1.39-1.66-7.19,3.17,9.51-27.81h0Z"/>
          <path class="cls-22" d="M3377.85,1259.47h-7.92v6.88h7.92v-6.88h0ZM3370.36,1204.36c-6.71,0-12.15,5.35-12.15,11.95,0,1.71.36,3.34,1.03,4.82-2.96,1.86-4.93,5.12-4.93,8.83,0,4.48,2.87,8.3,6.89,9.8-.12.6-.2,1.23-.2,1.87,0,4.17,2.94,7.67,6.87,8.63l1.73-5.08.82-2.43c3.74-11.06,7.01-20.72,10.78-31.85-2.01-3.88-6.11-6.53-10.83-6.53Z"/>
        </g>
        <g>
          <path class="cls-13" d="M3584.32,1592.78v32.31h-6.08v7.78h63.73v-7.78h-7.05v-32.31l-26.31-14.59-24.3,14.59Z"/>
          <path class="cls-11" d="M3623.42,1568.13h8.53v9.06l15.87,9.21-3.91,6.76-35.01-20.32-34.22,21.39-4.13-6.64,36.21-22.63,1.99-1.24,2.03,1.18,12.66,7.35v-4.12h0Z"/>
          <g>
            <rect class="cls-32" x="3598.54" y="1594.49" width="9.19" height="9.19"/>
            <rect class="cls-32" x="3611.39" y="1594.49" width="9.19" height="9.19"/>
            <rect class="cls-32" x="3598.54" y="1607.34" width="9.19" height="9.18"/>
            <rect class="cls-32" x="3611.39" y="1607.34" width="9.19" height="9.18"/>
          </g>
        </g>
        <g>
          <path class="cls-13" d="M3344.29,1592.23v32.31h-6.08v7.78h63.74v-7.78h-7.05v-32.31l-26.3-14.59-24.3,14.59Z"/>
          <path class="cls-11" d="M3383.39,1567.57h8.53v9.06l15.87,9.21-3.92,6.76-35.02-20.32-34.22,21.39-4.13-6.64,36.21-22.63,1.99-1.24,2.03,1.18,12.66,7.35v-4.12h0Z"/>
          <g>
            <rect class="cls-32" x="3358.51" y="1593.93" width="9.19" height="9.19"/>
            <rect class="cls-32" x="3371.36" y="1593.93" width="9.19" height="9.19"/>
            <rect class="cls-32" x="3358.51" y="1606.78" width="9.19" height="9.19"/>
            <rect class="cls-32" x="3371.36" y="1606.78" width="9.19" height="9.19"/>
          </g>
        </g>
        <g>
          <path class="cls-13" d="M3346.95,1713.7v32.31h-6.08v7.78h63.73v-7.78h-7.04v-32.31l-26.31-14.59-24.29,14.59Z"/>
          <path class="cls-11" d="M3386.05,1689.05h8.53v9.06l15.86,9.21-3.91,6.76-35.01-20.32-34.22,21.39-4.12-6.64,36.21-22.63,1.98-1.24,2.04,1.18,12.66,7.34v-4.12h0Z"/>
          <g>
            <rect class="cls-32" x="3361.16" y="1715.41" width="9.19" height="9.19"/>
            <rect class="cls-32" x="3374.01" y="1715.41" width="9.19" height="9.19"/>
            <rect class="cls-32" x="3361.16" y="1728.26" width="9.19" height="9.18"/>
            <rect class="cls-32" x="3374.01" y="1728.26" width="9.19" height="9.18"/>
          </g>
        </g>
        <g>
          <path class="cls-13" d="M3221.76,1471.41v32.31h-6.08v7.78h63.74v-7.78h-7.05v-32.31l-26.3-14.59-24.3,14.59Z"/>
          <path class="cls-11" d="M3260.86,1446.75h8.52v9.06l15.87,9.21-3.91,6.76-35.02-20.32-34.21,21.39-4.13-6.64,36.21-22.63,1.99-1.24,2.03,1.18,12.66,7.35v-4.12h0Z"/>
          <g>
            <rect class="cls-32" x="3235.98" y="1473.11" width="9.19" height="9.19"/>
            <rect class="cls-32" x="3248.83" y="1473.11" width="9.18" height="9.19"/>
            <rect class="cls-32" x="3235.98" y="1485.97" width="9.19" height="9.18"/>
            <rect class="cls-32" x="3248.83" y="1485.97" width="9.18" height="9.18"/>
          </g>
        </g>
        <g>
          <rect class="cls-37" x="3469.04" y="1562.03" width="41.99" height="7.59"/>
          <rect class="cls-37" x="3485.5" y="1568.65" width="9.06" height="62.94"/>
        </g>
        <g>
          <path class="cls-13" d="M3107.34,1347.83v32.31h-6.08v7.78h63.73v-7.78h-7.05v-32.31l-26.31-14.59-24.3,14.59Z"/>
          <path class="cls-11" d="M3146.44,1323.17h8.53v9.06l15.87,9.21-3.91,6.76-35.02-20.32-34.22,21.39-4.13-6.64,36.21-22.63,1.99-1.24,2.03,1.18,12.66,7.35v-4.12h0Z"/>
          <g>
            <rect class="cls-32" x="3121.56" y="1349.53" width="9.19" height="9.19"/>
            <rect class="cls-32" x="3134.41" y="1349.53" width="9.19" height="9.19"/>
            <rect class="cls-32" x="3121.56" y="1362.38" width="9.19" height="9.18"/>
            <rect class="cls-32" x="3134.41" y="1362.38" width="9.19" height="9.18"/>
          </g>
        </g>
        <g>
          <path class="cls-13" d="M3107.34,1227.83v32.31h-6.08v7.78h63.73v-7.78h-7.05v-32.31l-26.31-14.59-24.3,14.59Z"/>
          <path class="cls-11" d="M3146.44,1203.18h8.53v9.06l15.87,9.21-3.91,6.76-35.02-20.32-34.22,21.39-4.13-6.64,36.21-22.63,1.99-1.24,2.03,1.18,12.66,7.35v-4.12h0Z"/>
          <g>
            <rect class="cls-32" x="3121.56" y="1229.53" width="9.19" height="9.19"/>
            <rect class="cls-32" x="3134.41" y="1229.53" width="9.19" height="9.19"/>
            <rect class="cls-32" x="3121.56" y="1242.39" width="9.19" height="9.19"/>
            <rect class="cls-32" x="3134.41" y="1242.39" width="9.19" height="9.19"/>
          </g>
        </g>
        <g>
          <path class="cls-13" d="M3101.69,1591.45v32.31h-6.08v7.78h63.73v-7.78h-7.04v-32.31l-26.31-14.59-24.3,14.59Z"/>
          <path class="cls-11" d="M3140.79,1566.79h8.53v9.06l15.86,9.21-3.92,6.76-35.01-20.32-34.23,21.39-4.12-6.64,36.21-22.63,1.98-1.24,2.03,1.18,12.66,7.35v-4.12h0Z"/>
          <g>
            <rect class="cls-32" x="3115.91" y="1593.15" width="9.19" height="9.19"/>
            <rect class="cls-32" x="3128.75" y="1593.15" width="9.2" height="9.19"/>
            <rect class="cls-32" x="3115.91" y="1606" width="9.19" height="9.19"/>
            <rect class="cls-32" x="3128.75" y="1606" width="9.2" height="9.19"/>
          </g>
        </g>
        <g>
          <path class="cls-13" d="M2735.82,1592.23v32.31h-6.08v7.78h63.73v-7.78h-7.05v-32.31l-26.31-14.59-24.3,14.59Z"/>
          <path class="cls-11" d="M2774.92,1567.57h8.53v9.06l15.87,9.21-3.91,6.76-35.02-20.32-34.22,21.39-4.13-6.64,36.21-22.63,1.99-1.24,2.03,1.18,12.66,7.35v-4.12h0Z"/>
          <g>
            <rect class="cls-32" x="2750.03" y="1593.93" width="9.19" height="9.19"/>
            <rect class="cls-32" x="2762.88" y="1593.93" width="9.19" height="9.19"/>
            <rect class="cls-32" x="2750.03" y="1606.78" width="9.19" height="9.18"/>
            <rect class="cls-32" x="2762.88" y="1606.78" width="9.19" height="9.18"/>
          </g>
        </g>
        <g>
          <polygon class="cls-14" points="3215.57 1214.47 3215.57 1263.96 3286.05 1263.96 3286.05 1214.47 3250.81 1214.47 3233.63 1195.37 3215.57 1214.47"/>
          <polygon class="cls-12" points="3227.27 1239.82 3227.27 1249.55 3231.69 1249.55 3231.69 1239.82 3227.27 1239.82 3227.27 1239.82"/>
          <polygon class="cls-12" points="3233.63 1239.82 3233.63 1249.55 3238.05 1249.55 3238.05 1239.82 3233.63 1239.82 3233.63 1239.82"/>
          <polygon class="cls-12" points="3227.27 1218.61 3227.27 1228.33 3231.69 1228.33 3231.69 1218.61 3227.27 1218.61 3227.27 1218.61"/>
          <rect class="cls-32" x="3233.63" y="1218.61" width="4.42" height="9.72"/>
          <polygon class="cls-12" points="3263.45 1223.61 3263.45 1233.34 3267.87 1233.34 3267.87 1223.61 3263.45 1223.61 3263.45 1223.61"/>
          <polygon class="cls-12" points="3269.8 1223.61 3269.8 1233.34 3274.22 1233.34 3274.22 1223.61 3269.8 1223.61 3269.8 1223.61"/>
          <polygon class="cls-13" points="3282.75 1214.47 3282.75 1261.26 3280.51 1261.26 3280.51 1259.83 3277.17 1259.83 3277.17 1256.35 3273.41 1256.35 3273.41 1239.3 3264.24 1239.3 3264.24 1256.35 3260.48 1256.35 3260.48 1259.83 3257 1259.83 3257 1261.26 3254.09 1261.26 3254.09 1214.47 3247.68 1210.71 3247.68 1261.26 3219.02 1261.26 3219.02 1210.71 3212.61 1214.47 3212.61 1264.46 3212.61 1267.67 3215.82 1267.67 3247.68 1267.67 3250.89 1267.67 3254.09 1267.67 3285.95 1267.67 3289.16 1267.67 3289.16 1264.46 3289.16 1214.47 3282.75 1214.47"/>
          <polygon class="cls-11" points="3212.61 1218.87 3233.35 1199.48 3254.09 1219.17 3256.36 1221.43 3259.99 1217.82 3282.75 1217.82 3289.16 1217.82 3293.08 1217.82 3293.92 1214.7 3278.98 1197.72 3245.51 1197.72 3254.78 1209.99 3253.05 1209.99 3234.95 1191.89 3233.35 1190.22 3233.32 1190.27 3233.18 1190.13 3229.86 1193.43 3229.86 1193.43 3205.97 1217.37 3210.05 1221.43 3212.61 1218.87"/>
        </g>
        <g>
          <polygon class="cls-14" points="2976.14 1214.09 2976.14 1263.6 3046.63 1263.6 3046.63 1214.09 3011.39 1214.09 2994.2 1194.99 2976.14 1214.09"/>
          <polygon class="cls-12" points="2987.85 1239.45 2987.85 1249.18 2992.26 1249.18 2992.26 1239.45 2987.85 1239.45 2987.85 1239.45"/>
          <polygon class="cls-12" points="2994.2 1239.45 2994.2 1249.18 2998.63 1249.18 2998.63 1239.45 2994.2 1239.45 2994.2 1239.45"/>
          <polygon class="cls-12" points="2987.85 1218.24 2987.85 1227.96 2992.26 1227.96 2992.26 1218.24 2987.85 1218.24 2987.85 1218.24"/>
          <rect class="cls-32" x="2994.2" y="1218.24" width="4.42" height="9.72"/>
          <polygon class="cls-12" points="3024.03 1223.24 3024.03 1232.97 3028.45 1232.97 3028.45 1223.24 3024.03 1223.24 3024.03 1223.24"/>
          <polygon class="cls-12" points="3030.38 1223.24 3030.38 1232.97 3034.8 1232.97 3034.8 1223.24 3030.38 1223.24 3030.38 1223.24"/>
          <polygon class="cls-13" points="3043.34 1214.09 3043.34 1260.89 3041.09 1260.89 3041.09 1259.45 3037.75 1259.45 3037.75 1255.98 3033.99 1255.98 3033.99 1238.93 3024.82 1238.93 3024.82 1255.98 3021.06 1255.98 3021.06 1259.45 3017.58 1259.45 3017.58 1260.89 3014.67 1260.89 3014.67 1214.09 3008.26 1210.34 3008.26 1260.89 2979.59 1260.89 2979.59 1210.34 2973.18 1214.09 2973.18 1264.1 2973.18 1267.3 2976.39 1267.3 3008.26 1267.3 3011.46 1267.3 3014.67 1267.3 3046.54 1267.3 3049.74 1267.3 3049.74 1264.1 3049.74 1214.09 3043.34 1214.09"/>
          <polygon class="cls-11" points="2973.18 1218.49 2993.92 1199.1 3014.67 1218.8 3016.94 1221.06 3020.56 1217.44 3043.34 1217.44 3049.74 1217.44 3053.67 1217.44 3054.51 1214.33 3039.56 1197.34 3006.09 1197.34 3015.36 1209.61 3013.63 1209.61 2995.52 1191.51 2993.92 1189.84 2993.89 1189.89 2993.75 1189.74 2990.43 1193.05 2990.43 1193.05 2966.53 1216.99 2970.62 1221.06 2973.18 1218.49"/>
        </g>
        <path class="cls-19" d="M3485.59,1577.89c0,4.57-3.7,8.28-8.28,8.28s-8.27-3.71-8.27-8.28,3.71-8.27,8.27-8.27,8.28,3.7,8.28,8.27Z"/>
        <path class="cls-19" d="M3511.29,1577.89c0,4.57-3.7,8.28-8.27,8.28s-8.27-3.71-8.27-8.28,3.71-8.27,8.27-8.27,8.27,3.7,8.27,8.27Z"/>
        <g>
          <rect class="cls-37" x="2980.75" y="1442.1" width="41.99" height="7.59"/>
          <rect class="cls-37" x="2997.21" y="1448.71" width="9.06" height="62.94"/>
        </g>
        <path class="cls-19" d="M2997.3,1457.96c0,4.57-3.7,8.28-8.27,8.28s-8.27-3.71-8.27-8.28,3.7-8.27,8.27-8.27,8.27,3.7,8.27,8.27Z"/>
        <path class="cls-19" d="M3023,1457.96c0,4.57-3.7,8.28-8.27,8.28s-8.27-3.71-8.27-8.28,3.71-8.27,8.27-8.27,8.27,3.7,8.27,8.27Z"/>
        <g>
          <rect class="cls-37" x="3349.11" y="1317.89" width="41.99" height="7.59"/>
          <rect class="cls-37" x="3365.57" y="1324.5" width="9.05" height="62.94"/>
        </g>
        <path class="cls-19" d="M3365.66,1333.75c0,4.57-3.7,8.28-8.27,8.28s-8.27-3.7-8.27-8.28,3.71-8.27,8.27-8.27,8.27,3.7,8.27,8.27Z"/>
        <path class="cls-19" d="M3391.36,1333.75c0,4.57-3.7,8.28-8.27,8.28s-8.27-3.7-8.27-8.28,3.7-8.27,8.27-8.27,8.27,3.7,8.27,8.27Z"/>
        <g>
          <g>
            <rect class="cls-37" x="3224.9" y="1686.25" width="41.99" height="7.59"/>
            <rect class="cls-37" x="3241.36" y="1692.86" width="9.05" height="62.94"/>
          </g>
          <path class="cls-19" d="M3241.44,1702.11c0,4.57-3.7,8.28-8.28,8.28s-8.27-3.71-8.27-8.28,3.71-8.27,8.27-8.27,8.28,3.7,8.28,8.27Z"/>
          <path class="cls-19" d="M3267.14,1702.11c0,4.57-3.7,8.28-8.27,8.28s-8.27-3.71-8.27-8.28,3.71-8.27,8.27-8.27,8.27,3.7,8.27,8.27Z"/>
        </g>
        <g>
          <rect class="cls-25" x="2611.37" y="1587.9" width="61.65" height="38.78"/>
          <g>
            <rect class="cls-32" x="2659.78" y="1609.85" width="6.59" height="8.61"/>
            <rect class="cls-32" x="2659.78" y="1596.93" width="6.59" height="8.61"/>
            <polygon class="cls-12" points="2632.2 1618.46 2638.81 1618.46 2638.81 1609.85 2632.2 1609.85 2632.2 1618.46"/>
            <polygon class="cls-12" points="2632.2 1605.53 2638.81 1605.54 2638.81 1596.93 2632.2 1596.92 2632.2 1605.53"/>
            <rect class="cls-32" x="2618.76" y="1609.85" width="6.61" height="8.61"/>
            <rect class="cls-32" x="2618.76" y="1596.92" width="6.61" height="8.61"/>
          </g>
          <polygon class="cls-11" points="2685.08 1590.46 2678.56 1567.21 2629.65 1567.21 2629.65 1565.52 2632.28 1565.52 2632.28 1560.07 2618.64 1560.07 2618.64 1565.52 2621.47 1565.52 2621.47 1577.06 2620.65 1577.5 2617.34 1567.21 2608.32 1567.21 2600.17 1590.46 2685.08 1590.46"/>
          <polygon class="cls-13" points="2677.78 1590.46 2671.27 1590.47 2671.27 1624.49 2654.48 1624.49 2654.48 1609.85 2644.83 1609.85 2644.83 1624.49 2613.6 1624.49 2613.6 1590.47 2607.09 1590.46 2607.09 1624.49 2605.46 1624.49 2605.46 1632.21 2607.09 1632.21 2610.34 1632.21 2674.53 1632.22 2677.78 1632.22 2679.15 1632.22 2679.15 1624.49 2677.78 1624.49 2677.78 1590.46"/>
        </g>
        <g>
          <polygon class="cls-14" points="2608.26 1699.71 2608.26 1749.2 2678.73 1749.2 2678.73 1699.71 2643.49 1699.71 2626.31 1680.61 2608.26 1699.71"/>
          <polygon class="cls-12" points="2619.96 1725.06 2619.96 1734.78 2624.38 1734.78 2624.38 1725.06 2619.96 1725.06 2619.96 1725.06"/>
          <polygon class="cls-12" points="2626.31 1725.06 2626.31 1734.78 2630.73 1734.78 2630.73 1725.06 2626.31 1725.06 2626.31 1725.06"/>
          <polygon class="cls-12" points="2619.96 1703.85 2619.96 1713.57 2624.38 1713.57 2624.38 1703.85 2619.96 1703.85 2619.96 1703.85"/>
          <rect class="cls-32" x="2626.31" y="1703.85" width="4.42" height="9.72"/>
          <polygon class="cls-12" points="2656.13 1708.85 2656.13 1718.58 2660.55 1718.58 2660.55 1708.85 2656.13 1708.85 2656.13 1708.85"/>
          <polygon class="cls-12" points="2662.48 1708.85 2662.48 1718.58 2666.9 1718.58 2666.9 1708.85 2662.48 1708.85 2662.48 1708.85"/>
          <polygon class="cls-13" points="2675.43 1699.71 2675.43 1746.5 2673.19 1746.5 2673.19 1745.06 2669.85 1745.06 2669.85 1741.59 2666.09 1741.59 2666.09 1724.54 2656.92 1724.54 2656.92 1741.59 2653.16 1741.59 2653.16 1745.06 2649.68 1745.06 2649.68 1746.5 2646.77 1746.5 2646.77 1699.71 2640.36 1695.95 2640.36 1746.5 2611.7 1746.5 2611.7 1695.95 2605.29 1699.71 2605.29 1749.7 2605.29 1752.91 2608.51 1752.91 2640.36 1752.91 2643.57 1752.91 2646.77 1752.91 2678.64 1752.91 2681.84 1752.91 2681.84 1749.7 2681.84 1699.71 2675.43 1699.71"/>
          <polygon class="cls-11" points="2605.29 1704.1 2626.03 1684.72 2646.77 1704.41 2649.04 1706.67 2652.67 1703.05 2675.43 1703.05 2681.84 1703.05 2685.76 1703.05 2686.6 1699.94 2671.66 1682.96 2638.2 1682.96 2647.47 1695.23 2645.74 1695.23 2627.63 1677.13 2626.03 1675.46 2626 1675.5 2625.87 1675.36 2622.54 1678.67 2622.54 1678.67 2598.65 1702.61 2602.74 1706.67 2605.29 1704.1"/>
        </g>
        <g>
          <polygon class="cls-14" points="2363.07 1699.71 2363.07 1749.2 2433.55 1749.2 2433.55 1699.71 2398.31 1699.71 2381.13 1680.61 2363.07 1699.71"/>
          <polygon class="cls-12" points="2374.78 1725.06 2374.78 1734.78 2379.19 1734.78 2379.19 1725.06 2374.78 1725.06 2374.78 1725.06"/>
          <polygon class="cls-12" points="2381.13 1725.06 2381.13 1734.78 2385.55 1734.78 2385.55 1725.06 2381.13 1725.06 2381.13 1725.06"/>
          <polygon class="cls-12" points="2374.78 1703.85 2374.78 1713.57 2379.19 1713.57 2379.19 1703.85 2374.78 1703.85 2374.78 1703.85"/>
          <rect class="cls-32" x="2381.13" y="1703.85" width="4.42" height="9.72"/>
          <polygon class="cls-12" points="2410.95 1708.85 2410.95 1718.58 2415.37 1718.58 2415.37 1708.85 2410.95 1708.85 2410.95 1708.85"/>
          <polygon class="cls-12" points="2417.3 1708.85 2417.3 1718.58 2421.72 1718.58 2421.72 1708.85 2417.3 1708.85 2417.3 1708.85"/>
          <polygon class="cls-13" points="2430.25 1699.71 2430.25 1746.5 2428.01 1746.5 2428.01 1745.06 2424.67 1745.06 2424.67 1741.59 2420.91 1741.59 2420.91 1724.54 2411.74 1724.54 2411.74 1741.59 2407.98 1741.59 2407.98 1745.06 2404.5 1745.06 2404.5 1746.5 2401.59 1746.5 2401.59 1699.71 2395.18 1695.95 2395.18 1746.5 2366.52 1746.5 2366.52 1695.95 2360.11 1699.71 2360.11 1749.7 2360.11 1752.91 2363.32 1752.91 2395.18 1752.91 2398.39 1752.91 2401.59 1752.91 2433.45 1752.91 2436.66 1752.91 2436.66 1749.7 2436.66 1699.71 2430.25 1699.71"/>
          <polygon class="cls-11" points="2360.11 1704.1 2380.85 1684.72 2401.59 1704.41 2403.85 1706.67 2407.48 1703.05 2430.25 1703.05 2436.66 1703.05 2440.58 1703.05 2441.42 1699.94 2426.48 1682.96 2393.01 1682.96 2402.28 1695.23 2400.55 1695.23 2382.45 1677.13 2380.85 1675.46 2380.82 1675.5 2380.68 1675.36 2377.36 1678.67 2377.36 1678.67 2353.47 1702.61 2357.55 1706.67 2360.11 1704.1"/>
        </g>
        <g>
          <path class="cls-13" d="M2680.39,1459.47v50.99h-28.68v-23.65c-5.94-3.56-11.69-3.76-17.23,0v23.65h-30.06v-50.99h75.97Z"/>
          <path class="cls-17" d="M2651.71,1510.46v-23.65c-5.94-3.56-11.69-3.76-17.23,0v23.65h17.23Z"/>
          <g>
            <polygon class="cls-12" points="2671.26 1486.81 2660.62 1486.81 2660.62 1498.77 2658.3 1498.77 2658.3 1500.95 2673.65 1500.95 2673.65 1498.77 2671.26 1498.77 2671.26 1486.81"/>
            <polygon class="cls-12" points="2671.26 1477.14 2671.26 1465.19 2660.62 1465.19 2660.62 1477.14 2658.3 1477.14 2658.3 1479.33 2673.65 1479.33 2673.65 1477.14 2671.26 1477.14"/>
            <polygon class="cls-12" points="2648.26 1465.19 2637.6 1465.19 2637.6 1477.14 2635.29 1477.14 2635.29 1479.33 2650.64 1479.33 2650.64 1477.14 2648.26 1477.14 2648.26 1465.19"/>
            <polygon class="cls-12" points="2624.15 1486.81 2613.51 1486.81 2613.51 1498.77 2611.19 1498.77 2611.19 1500.95 2626.55 1500.95 2626.55 1498.77 2624.15 1498.77 2624.15 1486.81"/>
            <polygon class="cls-12" points="2624.15 1465.19 2613.51 1465.19 2613.51 1477.14 2611.19 1477.14 2611.19 1479.33 2626.55 1479.33 2626.55 1477.14 2624.15 1477.14 2624.15 1465.19"/>
          </g>
          <polygon class="cls-11" points="2685.86 1459.47 2679.29 1444.45 2605.96 1444.45 2598.76 1459.47 2685.86 1459.47"/>
        </g>
        <g>
          <path class="cls-13" d="M2559.07,1698.55v54.81h-30.83v-25.42c-6.38-3.81-12.57-4.04-18.52,0v25.42h-32.31v-54.81h81.66Z"/>
          <path class="cls-17" d="M2528.25,1753.35v-25.42c-6.38-3.81-12.57-4.04-18.52,0v25.42h18.52Z"/>
          <g>
            <polygon class="cls-18" points="2549.25 1727.93 2537.82 1727.93 2537.82 1740.78 2535.32 1740.78 2535.32 1743.13 2551.82 1743.13 2551.82 1740.78 2549.25 1740.78 2549.25 1727.93"/>
            <polygon class="cls-18" points="2549.25 1717.54 2549.25 1704.7 2537.82 1704.7 2537.82 1717.54 2535.32 1717.54 2535.32 1719.9 2551.82 1719.9 2551.82 1717.54 2549.25 1717.54"/>
            <polygon class="cls-12" points="2524.54 1704.7 2513.08 1704.7 2513.08 1717.54 2510.59 1717.54 2510.59 1719.9 2527.1 1719.9 2527.1 1717.54 2524.54 1717.54 2524.54 1704.7"/>
            <polygon class="cls-18" points="2498.62 1727.93 2487.18 1727.93 2487.18 1740.78 2484.68 1740.78 2484.68 1743.13 2501.2 1743.13 2501.2 1740.78 2498.62 1740.78 2498.62 1727.93"/>
            <polygon class="cls-18" points="2498.62 1704.7 2487.18 1704.7 2487.18 1717.54 2484.68 1717.54 2484.68 1719.9 2501.2 1719.9 2501.2 1717.54 2498.62 1717.54 2498.62 1704.7"/>
          </g>
          <polygon class="cls-11" points="2564.95 1698.55 2557.89 1682.39 2479.07 1682.39 2471.33 1698.55 2564.95 1698.55"/>
        </g>
        <rect class="cls-37" x="2485.34" y="1667.4" width="4.73" height="15.76"/>
        <path class="cls-8" d="M2533.41,1706.89v2.43h1.62c1.97,0,3.76.8,5.04,2.1,1.29,1.29,2.1,3.08,2.1,5.04v8.65c0,1.97-.81,3.75-2.1,5.04-1.29,1.29-3.08,2.09-5.04,2.09h-1.62v1.07c0,1.61-.65,3.06-1.71,4.11h0c-1.05,1.06-2.51,1.71-4.1,1.71h-19.04c-1.59,0-3.04-.65-4.1-1.71h0c-1.05-1.06-1.71-2.51-1.71-4.11v-28.67h30.66v2.25h0ZM2522.54,1713.21v16.6h1.91v-16.6h-1.91ZM2516.98,1713.21v16.6h1.91v-16.6h-1.91ZM2511.25,1713.21v16.6h1.91v-16.6h-1.91ZM2503.17,1702.95c-1.14-1.6-1.67-3.01-1.61-5.05.04-1.31.4-2.58,1.09-3.67.69-1.11,1.7-2.03,3-2.6,1.55-.67,3.5-.85,5.82-.25.65-.64,1.39-1.14,2.21-1.51,1.27-.57,2.7-.8,4.08-.62,1.45.19,2.84.83,3.97,1.97.3.31.58.65.83,1.02.55-.23,1.1-.38,1.66-.47,1.67-.27,3.31.06,4.76.87,1.39.77,2.59,2,3.43,3.57.94,1.78,1.44,4.08,1.2,6.6h-4.96c.18-1.91-.23-4.59-2.05-5.59-.49-.27-1.05-.39-1.6-.3-.61.1-1.25.43-1.85,1.02l-4.19-1.4c-.14-.75-.4-1.28-.74-1.62-.3-.3-.68-.47-1.09-.53-.47-.06-.98.02-1.45.23-.49.22-.91.58-1.17,1.04l-1.07,1.93-2.01-.8c-1.75-.7-3.01-.74-3.84-.38-.34.15-.59.37-.74.63-.86,1.37,1.49,4.87,2.38,5.78l-6.06.1h0ZM2533.41,1715.45v10.67h1.62c.28,0,.52-.11.71-.3.18-.18.3-.44.3-.71v-8.65c0-.28-.11-.53-.3-.71-.19-.19-.43-.3-.71-.3h-1.62ZM2528.9,1733.31v-24.17h-21.64v24.17c0,.37.14.69.38.92h0c.23.24.56.38.92.38h19.04c.36,0,.69-.14.92-.38h0c.24-.24.38-.57.38-.93Z"/>
        <g>
          <rect class="cls-25" x="2488.02" y="1343.95" width="61.65" height="38.78"/>
          <g>
            <rect class="cls-32" x="2536.43" y="1365.9" width="6.59" height="8.61"/>
            <rect class="cls-32" x="2536.43" y="1352.98" width="6.59" height="8.61"/>
            <polygon class="cls-12" points="2508.86 1374.5 2515.47 1374.51 2515.47 1365.9 2508.86 1365.89 2508.86 1374.5"/>
            <polygon class="cls-12" points="2508.86 1361.58 2515.47 1361.58 2515.47 1352.98 2508.86 1352.97 2508.86 1361.58"/>
            <rect class="cls-32" x="2495.42" y="1365.89" width="6.6" height="8.61"/>
            <rect class="cls-32" x="2495.42" y="1352.97" width="6.6" height="8.61"/>
          </g>
          <polygon class="cls-11" points="2561.73 1346.51 2555.22 1323.26 2506.31 1323.25 2506.31 1321.58 2508.93 1321.58 2508.93 1316.12 2495.29 1316.12 2495.29 1321.58 2498.13 1321.58 2498.13 1333.11 2497.3 1333.56 2494 1323.25 2484.98 1323.25 2476.84 1346.51 2561.73 1346.51"/>
          <polygon class="cls-13" points="2554.44 1346.51 2547.93 1346.52 2547.93 1380.55 2531.13 1380.55 2531.13 1365.9 2521.49 1365.9 2521.49 1380.55 2490.26 1380.54 2490.26 1346.52 2483.75 1346.51 2483.75 1380.54 2482.12 1380.54 2482.12 1388.25 2483.75 1388.25 2487 1388.25 2551.19 1388.26 2554.44 1388.26 2555.82 1388.26 2555.82 1380.55 2554.44 1380.55 2554.44 1346.51"/>
        </g>
        <g>
          <polygon class="cls-14" points="3211.36 1580.49 3211.36 1629.98 3281.83 1629.98 3281.83 1580.49 3246.59 1580.49 3229.41 1561.39 3211.36 1580.49"/>
          <polygon class="cls-12" points="3223.06 1605.84 3223.06 1615.57 3227.48 1615.57 3227.48 1605.84 3223.06 1605.84 3223.06 1605.84"/>
          <polygon class="cls-12" points="3229.41 1605.84 3229.41 1615.57 3233.84 1615.57 3233.84 1605.84 3229.41 1605.84 3229.41 1605.84"/>
          <polygon class="cls-12" points="3223.06 1584.63 3223.06 1594.35 3227.48 1594.35 3227.48 1584.63 3223.06 1584.63 3223.06 1584.63"/>
          <rect class="cls-32" x="3229.41" y="1584.63" width="4.42" height="9.72"/>
          <polygon class="cls-12" points="3259.24 1589.63 3259.24 1599.36 3263.65 1599.36 3263.65 1589.63 3259.24 1589.63 3259.24 1589.63"/>
          <polygon class="cls-12" points="3265.59 1589.63 3265.59 1599.36 3270 1599.36 3270 1589.63 3265.59 1589.63 3265.59 1589.63"/>
          <polygon class="cls-13" points="3278.54 1580.49 3278.54 1627.28 3276.29 1627.28 3276.29 1625.84 3272.96 1625.84 3272.96 1622.37 3269.19 1622.37 3269.19 1605.32 3260.02 1605.32 3260.02 1622.37 3256.27 1622.37 3256.27 1625.84 3252.79 1625.84 3252.79 1627.28 3249.88 1627.28 3249.88 1580.49 3243.47 1576.74 3243.47 1627.28 3214.8 1627.28 3214.8 1576.74 3208.4 1580.49 3208.4 1630.48 3208.4 1633.69 3211.61 1633.69 3243.47 1633.69 3246.67 1633.69 3249.88 1633.69 3281.74 1633.69 3284.94 1633.69 3284.94 1630.48 3284.94 1580.49 3278.54 1580.49"/>
          <polygon class="cls-11" points="3208.4 1584.88 3229.14 1565.5 3249.88 1585.19 3252.14 1587.45 3255.77 1583.84 3278.54 1583.84 3284.94 1583.84 3288.87 1583.84 3289.7 1580.72 3274.76 1563.74 3241.3 1563.74 3250.57 1576.01 3248.84 1576.01 3230.74 1557.91 3229.14 1556.24 3229.1 1556.29 3228.97 1556.15 3225.65 1559.45 3225.64 1559.45 3201.75 1583.39 3205.84 1587.45 3208.4 1584.88"/>
        </g>
        <g>
          <g>
            <rect class="cls-37" x="2501.03" y="1562.03" width="41.99" height="7.59"/>
            <rect class="cls-37" x="2517.49" y="1568.65" width="9.06" height="62.94"/>
          </g>
          <path class="cls-19" d="M2517.57,1577.89c0,4.57-3.7,8.28-8.27,8.28s-8.27-3.71-8.27-8.28,3.7-8.27,8.27-8.27,8.27,3.7,8.27,8.27Z"/>
          <path class="cls-19" d="M2543.27,1577.89c0,4.57-3.7,8.28-8.27,8.28s-8.28-3.71-8.28-8.28,3.71-8.27,8.28-8.27,8.27,3.7,8.27,8.27Z"/>
        </g>
        <g>
          <path class="cls-13" d="M3528.12,1702.02v50.99h-28.68v-23.65c-5.94-3.55-11.69-3.76-17.23,0v23.65h-30.06v-50.99h75.97Z"/>
          <path class="cls-17" d="M3499.44,1753.01v-23.65c-5.94-3.55-11.69-3.76-17.23,0v23.65h17.23Z"/>
          <g>
            <polygon class="cls-12" points="3518.98 1729.36 3508.35 1729.36 3508.35 1741.31 3506.02 1741.31 3506.02 1743.5 3521.37 1743.5 3521.37 1741.31 3518.98 1741.31 3518.98 1729.36"/>
            <polygon class="cls-12" points="3518.98 1719.69 3518.98 1707.74 3508.35 1707.74 3508.35 1719.69 3506.02 1719.69 3506.02 1721.88 3521.37 1721.88 3521.37 1719.69 3518.98 1719.69"/>
            <polygon class="cls-12" points="3495.98 1707.74 3485.32 1707.74 3485.32 1719.69 3483.01 1719.69 3483.01 1721.88 3498.37 1721.88 3498.37 1719.69 3495.98 1719.69 3495.98 1707.74"/>
            <polygon class="cls-12" points="3471.88 1729.36 3461.23 1729.36 3461.23 1741.31 3458.91 1741.31 3458.91 1743.5 3474.27 1743.5 3474.27 1741.31 3471.88 1741.31 3471.88 1729.36"/>
            <polygon class="cls-12" points="3471.88 1707.74 3461.23 1707.74 3461.23 1719.69 3458.91 1719.69 3458.91 1721.88 3474.27 1721.88 3474.27 1719.69 3471.88 1719.69 3471.88 1707.74"/>
          </g>
          <polygon class="cls-11" points="3533.58 1702.02 3527.01 1686.99 3453.68 1686.99 3446.48 1702.02 3533.58 1702.02"/>
        </g>
        <g>
          <polygon class="cls-14" points="2366.8 2064.9 2366.8 2114.39 2437.28 2114.39 2437.28 2064.9 2402.04 2064.9 2384.86 2045.8 2366.8 2064.9"/>
          <polygon class="cls-12" points="2378.51 2090.25 2378.51 2099.98 2382.92 2099.98 2382.92 2090.25 2378.51 2090.25 2378.51 2090.25"/>
          <polygon class="cls-12" points="2384.86 2090.25 2384.86 2099.98 2389.28 2099.98 2389.28 2090.25 2384.86 2090.25 2384.86 2090.25"/>
          <polygon class="cls-12" points="2378.51 2069.04 2378.51 2078.76 2382.92 2078.76 2382.92 2069.04 2378.51 2069.04 2378.51 2069.04"/>
          <rect class="cls-32" x="2384.86" y="2069.04" width="4.42" height="9.72"/>
          <polygon class="cls-12" points="2414.68 2074.04 2414.68 2083.77 2419.1 2083.77 2419.1 2074.04 2414.68 2074.04 2414.68 2074.04"/>
          <polygon class="cls-12" points="2421.03 2074.04 2421.03 2083.77 2425.45 2083.77 2425.45 2074.04 2421.03 2074.04 2421.03 2074.04"/>
          <polygon class="cls-13" points="2433.98 2064.9 2433.98 2111.69 2431.74 2111.69 2431.74 2110.26 2428.4 2110.26 2428.4 2106.78 2424.64 2106.78 2424.64 2089.73 2415.47 2089.73 2415.47 2106.78 2411.71 2106.78 2411.71 2110.26 2408.23 2110.26 2408.23 2111.69 2405.32 2111.69 2405.32 2064.9 2398.91 2061.14 2398.91 2111.69 2370.25 2111.69 2370.25 2061.14 2363.84 2064.9 2363.84 2114.89 2363.84 2118.1 2367.05 2118.1 2398.91 2118.1 2402.12 2118.1 2405.32 2118.1 2437.18 2118.1 2440.39 2118.1 2440.39 2114.89 2440.39 2064.9 2433.98 2064.9"/>
          <polygon class="cls-11" points="2363.84 2069.3 2384.58 2049.91 2405.32 2069.6 2407.58 2071.86 2411.22 2068.25 2433.98 2068.25 2440.39 2068.25 2444.31 2068.25 2445.15 2065.13 2430.21 2048.15 2396.74 2048.15 2406.01 2060.42 2404.28 2060.42 2386.18 2042.33 2384.58 2040.65 2384.55 2040.7 2384.41 2040.56 2381.09 2043.86 2381.09 2043.86 2357.2 2067.8 2361.28 2071.86 2363.84 2069.3"/>
        </g>
        <g>
          <rect class="cls-25" x="2243.36" y="2074.22" width="61.64" height="38.78"/>
          <g>
            <rect class="cls-32" x="2291.77" y="2096.17" width="6.59" height="8.61"/>
            <rect class="cls-32" x="2291.77" y="2083.25" width="6.59" height="8.61"/>
            <polygon class="cls-12" points="2264.2 2104.77 2270.81 2104.78 2270.81 2096.17 2264.2 2096.16 2264.2 2104.77"/>
            <polygon class="cls-12" points="2264.2 2091.85 2270.81 2091.86 2270.81 2083.25 2264.2 2083.24 2264.2 2091.85"/>
            <rect class="cls-32" x="2250.75" y="2096.16" width="6.6" height="8.61"/>
            <rect class="cls-32" x="2250.75" y="2083.24" width="6.6" height="8.61"/>
          </g>
          <polygon class="cls-11" points="2317.07 2076.78 2310.55 2053.53 2261.65 2053.52 2261.65 2051.84 2264.26 2051.84 2264.26 2046.39 2250.63 2046.39 2250.63 2051.84 2253.46 2051.84 2253.46 2063.38 2252.64 2063.82 2249.33 2053.52 2240.31 2053.52 2232.17 2076.78 2317.07 2076.78"/>
          <polygon class="cls-13" points="2309.77 2076.78 2303.27 2076.79 2303.27 2110.81 2286.47 2110.81 2286.47 2096.17 2276.82 2096.17 2276.82 2110.81 2245.59 2110.81 2245.59 2076.79 2239.08 2076.78 2239.08 2110.81 2237.45 2110.81 2237.45 2118.52 2239.08 2118.52 2242.34 2118.52 2306.52 2118.53 2309.77 2118.53 2311.15 2118.53 2311.15 2110.81 2309.77 2110.81 2309.77 2076.78"/>
        </g>
        <path class="cls-24" d="M2437.95,2203.62h-.45l-.37.37h-9.77l10.59,18.83h-.45l-.37.37h-15.07v13.9l-.89.81h-14.27l-.81-.81v-13.9h-15.89c.2-1.28,3.74-7.69,10.6-19.2h-10.6v-.81l23.69-40.38h.8l23.26,40.82ZM2391.38,2197.52v.36c0,.83-1.08,3.29-3.23,7.36h7.34l.37.43c.45,1.08.86,1.63,1.25,1.63l-9.79,17.14h10.23l2.8,2.42-.81.81h-10.59v9.42l-.81.81h-9.8l-.81-.81v-9.42h-11.48l-.37-.37,7.73-13.46h-7.36l-.37-.44,17.14-29.79c.69.34,3.53,4.98,8.53,13.91Z"/>
        <g>
          <path class="cls-13" d="M2308.89,2188.1v50.99h-28.68v-23.65c-5.94-3.55-11.69-3.76-17.24,0v23.65h-30.06v-50.99h75.97Z"/>
          <path class="cls-17" d="M2280.21,2239.09v-23.65c-5.94-3.55-11.69-3.76-17.24,0v23.65h17.24Z"/>
          <g>
            <polygon class="cls-12" points="2299.75 2215.43 2289.12 2215.43 2289.12 2227.39 2286.79 2227.39 2286.79 2229.58 2302.14 2229.58 2302.14 2227.39 2299.75 2227.39 2299.75 2215.43"/>
            <polygon class="cls-12" points="2299.75 2205.77 2299.75 2193.82 2289.12 2193.82 2289.12 2205.77 2286.79 2205.77 2286.79 2207.96 2302.14 2207.96 2302.14 2205.77 2299.75 2205.77"/>
            <polygon class="cls-12" points="2276.75 2193.82 2266.1 2193.82 2266.1 2205.77 2263.79 2205.77 2263.79 2207.96 2279.14 2207.96 2279.14 2205.77 2276.75 2205.77 2276.75 2193.82"/>
            <polygon class="cls-12" points="2252.65 2215.43 2242 2215.43 2242 2227.39 2239.68 2227.39 2239.68 2229.58 2255.05 2229.58 2255.05 2227.39 2252.65 2227.39 2252.65 2215.43"/>
            <polygon class="cls-12" points="2252.65 2193.82 2242 2193.82 2242 2205.77 2239.68 2205.77 2239.68 2207.96 2255.05 2207.96 2255.05 2205.77 2252.65 2205.77 2252.65 2193.82"/>
          </g>
          <polygon class="cls-11" points="2314.35 2188.1 2307.78 2173.07 2234.46 2173.07 2227.26 2188.1 2314.35 2188.1"/>
        </g>
        <g>
          <rect class="cls-25" x="3342.76" y="1829.02" width="61.65" height="38.78"/>
          <g>
            <rect class="cls-32" x="3391.17" y="1850.97" width="6.59" height="8.61"/>
            <rect class="cls-32" x="3391.17" y="1838.05" width="6.59" height="8.61"/>
            <polygon class="cls-12" points="3363.59 1859.57 3370.2 1859.58 3370.2 1850.97 3363.59 1850.96 3363.59 1859.57"/>
            <polygon class="cls-12" points="3363.59 1846.65 3370.2 1846.66 3370.2 1838.05 3363.59 1838.04 3363.59 1846.65"/>
            <rect class="cls-32" x="3350.15" y="1850.96" width="6.6" height="8.61"/>
            <rect class="cls-32" x="3350.15" y="1838.04" width="6.6" height="8.61"/>
          </g>
          <polygon class="cls-11" points="3416.47 1831.58 3409.95 1808.33 3361.04 1808.32 3361.04 1806.65 3363.66 1806.65 3363.66 1801.2 3350.03 1801.2 3350.03 1806.65 3352.86 1806.65 3352.86 1818.18 3352.03 1818.63 3348.73 1808.32 3339.71 1808.32 3331.57 1831.58 3416.47 1831.58"/>
          <polygon class="cls-13" points="3409.17 1831.58 3402.66 1831.6 3402.66 1865.62 3385.86 1865.62 3385.86 1850.97 3376.22 1850.97 3376.22 1865.62 3344.99 1865.61 3344.99 1831.59 3338.48 1831.58 3338.48 1865.61 3336.85 1865.61 3336.85 1873.33 3338.48 1873.33 3341.73 1873.33 3405.92 1873.33 3409.17 1873.33 3410.55 1873.33 3410.55 1865.62 3409.17 1865.62 3409.17 1831.58"/>
        </g>
        <path class="cls-19" d="M2597.23,1508.87c0,9.54-33.86,17.27-75.62,17.27s-75.63-7.73-75.63-17.27,33.86-17.26,75.63-17.26,75.62,7.73,75.62,17.26Z"/>
        <path class="cls-30" d="M2579.19,1445.85v-30.96s-10.49-.96-23.44-1.87v-3.71l2.6-7.48v-2.6h-22.13c-3.76-1.23-9.06-2.02-14.96-2.02s-11.18.79-14.95,2.03h-22.57v2.76l3.14,6.64v4.47c-12.64.88-23.05,1.78-23.05,1.78v30.98h-4.44v63.46h122.75v-63.48h-2.95Z"/>
        <g>
          <g>
            <rect class="cls-25" x="2369.59" y="1586.56" width="63.17" height="39.74"/>
            <g>
              <rect class="cls-26" x="2419.2" y="1609.06" width="6.76" height="8.82"/>
              <rect class="cls-26" x="2419.2" y="1595.82" width="6.76" height="8.82"/>
              <polygon class="cls-18" points="2390.94 1617.87 2397.71 1617.88 2397.71 1609.06 2390.94 1609.05 2390.94 1617.87"/>
              <polygon class="cls-18" points="2390.94 1604.63 2397.71 1604.63 2397.71 1595.82 2390.94 1595.81 2390.94 1604.63"/>
              <rect class="cls-26" x="2377.16" y="1609.05" width="6.77" height="8.82"/>
              <rect class="cls-26" x="2377.16" y="1595.81" width="6.77" height="8.82"/>
            </g>
            <polygon class="cls-11" points="2445.12 1589.19 2438.44 1565.37 2388.32 1565.36 2388.32 1563.64 2391.01 1563.64 2391.01 1558.05 2377.04 1558.05 2377.04 1563.64 2379.95 1563.64 2379.95 1575.45 2379.09 1575.92 2375.71 1565.36 2366.47 1565.36 2358.12 1589.19 2445.12 1589.19"/>
            <polygon class="cls-13" points="2437.64 1589.19 2430.98 1589.2 2430.98 1624.07 2413.76 1624.07 2413.76 1609.06 2403.88 1609.06 2403.88 1624.07 2371.88 1624.06 2371.88 1589.2 2365.2 1589.19 2365.2 1624.06 2363.54 1624.06 2363.54 1631.96 2365.2 1631.96 2368.54 1631.96 2434.31 1631.97 2437.64 1631.97 2439.06 1631.97 2439.06 1624.07 2437.64 1624.07 2437.64 1589.19"/>
          </g>
          <path class="cls-23" d="M2378.22,1572.96h.51l10.49,14.85h1.8v.51c-6.13,9.86-9.46,14.97-9.97,15.36h-2.83l-.52-.52v-29.68s.52-.52.52-.52ZM2381.8,1572.96h38.36l.27.28h.24c-5.1,7.89-8,12.06-8.68,12.52h-22.26l-8.45-12.28.52-.52ZM2393.82,1587.81h14.84l9.97,15.59-.24.28h-34.28s-.52-.52-.52-.52c6.19-9.67,9.6-14.79,10.22-15.35ZM2423.74,1572.96h1.29l.5.52v29.68l-.5.52h-3.85c-6.65-9.9-9.97-15.19-9.97-15.87h2.04l10.49-14.85Z"/>
          <rect class="cls-37" x="2420.71" y="1549.17" width="4.73" height="15.76"/>
        </g>
        <g>
          <path class="cls-13" d="M2314.35,1580.55v50.99h-28.68v-23.66c-5.94-3.55-11.69-3.76-17.23,0v23.66h-30.06v-50.99h75.97Z"/>
          <path class="cls-17" d="M2285.67,1631.54v-23.66c-5.94-3.55-11.69-3.76-17.23,0v23.66h17.23Z"/>
          <g>
            <polygon class="cls-12" points="2305.21 1607.88 2294.58 1607.88 2294.58 1619.84 2292.25 1619.84 2292.25 1622.03 2307.6 1622.03 2307.6 1619.84 2305.21 1619.84 2305.21 1607.88"/>
            <polygon class="cls-12" points="2305.21 1598.22 2305.21 1586.26 2294.58 1586.26 2294.58 1598.22 2292.25 1598.22 2292.25 1600.41 2307.6 1600.41 2307.6 1598.22 2305.21 1598.22"/>
            <polygon class="cls-12" points="2282.21 1586.26 2271.55 1586.26 2271.55 1598.22 2269.24 1598.22 2269.24 1600.41 2284.6 1600.41 2284.6 1598.22 2282.21 1598.22 2282.21 1586.26"/>
            <polygon class="cls-12" points="2258.11 1607.88 2247.46 1607.88 2247.46 1619.84 2245.13 1619.84 2245.13 1622.03 2260.5 1622.03 2260.5 1619.84 2258.11 1619.84 2258.11 1607.88"/>
            <polygon class="cls-12" points="2258.11 1586.26 2247.46 1586.26 2247.46 1598.22 2245.13 1598.22 2245.13 1600.41 2260.5 1600.41 2260.5 1598.22 2258.11 1598.22 2258.11 1586.26"/>
          </g>
          <polygon class="cls-11" points="2319.81 1580.55 2313.24 1565.52 2239.91 1565.52 2232.71 1580.55 2319.81 1580.55"/>
        </g>
        <polyline class="cls-6" points="2420.71 1549.17 2522.02 1562.03 2487.7 1667.4"/>
        <line class="cls-6" x1="2521.72" y1="1522.37" x2="2522.02" y2="1562.03"/>
        <path class="cls-6" d="M3001.74,1442.1c103.74,133.16,244.86,244.15,244.86,244.15"/>
        <g>
          <path class="cls-5" d="M3490.03,1561.22c-.42-.58-.84-1.16-1.25-1.74"/>
          <path class="cls-2" d="M3486.3,1556c-71.22-100.53-107.78-212.55-114.71-235.11"/>
          <path class="cls-5" d="M3370.96,1318.85c-.41-1.35-.61-2.05-.61-2.05"/>
        </g>
        <g>
          <path class="cls-7" d="M2522.02,1562.38c.71-.11,1.41-.21,2.12-.32"/>
          <path class="cls-4" d="M2528.39,1561.41c178.86-27.44,376.6-79,473.35-119.31,204.45-35.07,341.15-109.53,364.92-123.14"/>
          <path class="cls-7" d="M3368.52,1317.89c1.22-.71,1.84-1.09,1.84-1.09,0,0,.2.7.61,2.05"/>
          <path class="cls-3" d="M3372.22,1322.93c8.37,26.78,45.23,136.57,115.31,234.8"/>
          <path class="cls-7" d="M3488.78,1559.48c.42.58.83,1.16,1.25,1.74"/>
        </g>
        <g>
          <rect class="cls-25" x="2245" y="1707.95" width="61.65" height="38.78"/>
          <g>
            <rect class="cls-32" x="2293.41" y="1729.9" width="6.59" height="8.61"/>
            <rect class="cls-32" x="2293.41" y="1716.98" width="6.59" height="8.61"/>
            <rect class="cls-32" x="2265.84" y="1729.9" width="6.61" height="8.61"/>
            <rect class="cls-32" x="2265.84" y="1716.97" width="6.61" height="8.61"/>
            <rect class="cls-32" x="2252.39" y="1729.89" width="6.6" height="8.61"/>
            <rect class="cls-32" x="2252.39" y="1716.97" width="6.6" height="8.61"/>
          </g>
          <polygon class="cls-11" points="2318.71 1710.51 2312.19 1687.26 2263.29 1687.25 2263.29 1685.57 2265.91 1685.57 2265.91 1680.12 2252.27 1680.12 2252.27 1685.57 2255.1 1685.57 2255.1 1697.11 2254.27 1697.55 2250.97 1687.25 2241.95 1687.25 2233.81 1710.51 2318.71 1710.51"/>
          <polygon class="cls-13" points="2311.41 1710.51 2304.9 1710.52 2304.9 1744.54 2288.1 1744.54 2288.1 1729.9 2278.46 1729.9 2278.46 1744.54 2247.23 1744.54 2247.23 1710.52 2240.72 1710.51 2240.72 1744.54 2239.09 1744.54 2239.09 1752.25 2240.72 1752.25 2243.98 1752.25 2308.16 1752.26 2311.41 1752.26 2312.79 1752.26 2312.79 1744.54 2311.41 1744.54 2311.41 1710.51"/>
        </g>
      </g>
    </g>
    <g>
      <path class="cls-43" d="M2801.37,1432.52c0,25.01-2.82,49.36-8.18,72.73-33.04,144.19-162.13,251.76-316.32,251.76-205.26,0-366-190.58-314.94-404.43,27.66-115.89,118.61-206.99,234.45-234.88,7.09-1.71,14.14-3.18,21.17-4.42,36.86-6.52,72.83-6.83,107.07-1.77,2.11.3,2.29,3.33.23,3.87-95.84,24.93-167.18,110.57-170.51,213.4-4.16,128.41,99.74,235.84,228.22,235.8,98.74-.02,182.81-62.73,214.61-150.49.71-1.96,3.59-1.54,3.7.53.32,5.92.51,11.88.51,17.88Z"/>
      <path class="cls-27" d="M2793.19,1505.26c-33.04,144.19-162.13,251.76-316.32,251.76-205.26,0-366-190.58-314.94-404.43,27.66-115.89,118.61-206.99,234.45-234.88,7.09-1.71,14.14-3.18,21.17-4.42-46.13,22.09-85.78,59.65-113.26,103.27-56.43,89.58-66.47,208.44-19.5,303.32,46.95,94.87,151.86,159.93,257.5,153.16,83.09-5.32,159.96-52.29,213.63-115.94,13.76-16.34,26.14-33.7,37.27-51.84Z"/>
      <path class="cls-44" d="M2801.37,1431.08c0,4.85-.11,9.67-.32,14.46-28.11,47.44-70.59,86.35-120.53,109.81-78.68,36.93-173.75,34.5-247.18-13.61-129.48-84.82-131.16-259.85-32.61-369.59,24.35-27.12,54.04-49.34,86.76-65.38,12.58.39,24.95,1.52,37.12,3.31,2.11.3,2.29,3.33.23,3.87-95.84,24.93-167.18,110.57-170.51,213.4-4.16,128.41,99.74,235.84,228.22,235.8,98.74-.02,182.81-62.73,214.61-150.49.71-1.96,3.59-1.54,3.7.53.32,5.92.51,11.88.51,17.88Z"/>
    </g>
  </g>
</svg>