<?xml version="1.0" encoding="UTF-8"?>
<svg id="Layer_1" xmlns="http://www.w3.org/2000/svg" width="1920" height="1080" xmlns:xlink="http://www.w3.org/1999/xlink" version="1.1" viewBox="0 0 1920 1080">
  <!-- Generator: Adobe Illustrator 29.7.1, SVG Export Plug-In . SVG Version: 2.1.1 Build 8)  -->
  <defs>
    <style>
      .st0, .st1, .st2, .st3, .st4, .st5, .st6, .st7 {
        fill: none;
      }

      .st8, .st9, .st10, .st11, .st12, .st13, .st14, .st15, .st16, .st17, .st18, .st19, .st20, .st21, .st22 {
        fill-rule: evenodd;
      }

      .st8, .st23 {
        fill: #3e3e3e;
      }

      .st1 {
        stroke-dasharray: 4.32 4.32;
      }

      .st1, .st2, .st3, .st6, .st7 {
        stroke: #e3e3e3;
      }

      .st1, .st2, .st3, .st7 {
        stroke-linejoin: round;
      }

      .st1, .st2, .st6, .st7 {
        stroke-width: 2.17px;
      }

      .st9, .st17 {
        fill: #525252;
      }

      .st24, .st14 {
        fill: #a7a7a7;
      }

      .st10, .st25 {
        fill: #fff;
      }

      .st26, .st13 {
        fill: #e3e3e3;
      }

      .st27, .st19 {
        fill: #767676;
      }

      .st28 {
        fill: #f3aa00;
      }

      .st11 {
        fill: #626262;
      }

      .st12 {
        fill: #d7d7d7;
      }

      .st29 {
        fill: #969696;
      }

      .st3 {
        stroke-dasharray: 13.03 21.72;
        stroke-width: 8.69px;
      }

      .st15, .st30 {
        fill: #5e5e5e;
      }

      .st31 {
        fill: #a6a6a6;
      }

      .st32 {
        fill: #929292;
      }

      .st33 {
        fill: #797979;
      }

      .st34 {
        clip-path: url(#clippath-1);
      }

      .st16, .st35 {
        fill: #666;
      }

      .st4 {
        stroke: #646464;
        stroke-width: 8.42px;
      }

      .st4, .st5, .st6 {
        stroke-miterlimit: 10;
      }

      .st17 {
        isolation: isolate;
        opacity: .6;
      }

      .st18 {
        fill: #888;
      }

      .st36 {
        fill: #818181;
      }

      .st5 {
        stroke: #d7d7d7;
        stroke-linecap: round;
        stroke-width: 13.03px;
      }

      .st6 {
        stroke-dasharray: 4.34 4.34;
      }

      .st37 {
        fill: #8a8a8a;
      }

      .st38 {
        fill: #7f7f7f;
      }

      .st7 {
        stroke-dasharray: 4.35 4.35;
      }

      .st20 {
        fill: #cbcbcb;
      }

      .st39 {
        fill: #c2c2c2;
      }

      .st40 {
        clip-path: url(#clippath);
      }

      .st21 {
        fill: #6e6e6e;
      }

      .st22 {
        fill: #4f4f4f;
      }

      .st41 {
        fill: #fcc107;
      }

      .st42 {
        fill: #ffd52c;
      }
    </style>
    <clipPath id="clippath">
      <rect class="st0" width="1920" height="1080"/>
    </clipPath>
    <clipPath id="clippath-1">
      <rect class="st0" x=".37" y="-238.58" width="1919.63" height="1411.35"/>
    </clipPath>
  </defs>
  <g id="Layer_1-22">
    <g class="st40">
      <g>
        <g class="st34">
          <g>
            <rect class="st33" x="-2069.78" y="-453.5" width="5964.09" height="2632.39"/>
            <path class="st36" d="M3808.88,841.09c0,724.66-1269.2,1312.1-2834.85,1312.1S-1860.82,1565.75-1860.82,841.09-591.62-471.03,974.03-471.03,3808.88,116.42,3808.88,841.09h0Z"/>
            <path class="st29" d="M3453.44,674.42c0,635.01-1112.18,1149.77-2484.12,1149.77S-1514.82,1309.43-1514.82,674.42-402.64-475.37,969.32-475.37,3453.44,39.41,3453.44,674.42Z"/>
            <g>
              <path class="st31" d="M927.28,1572.87c-299.69,0-590.41-27.16-864.08-80.74-131.51-25.74-258.34-57.61-376.98-94.7-117.48-36.73-227.95-78.92-328.33-125.38-100.33-46.44-191.41-97.53-270.7-151.85-79.98-54.79-148.65-113.35-204.12-174.04-56.4-61.72-99.7-126.28-128.71-191.88-29.71-67.2-44.77-136.34-44.77-205.52s15.06-138.31,44.78-205.51c29.01-65.6,72.31-130.16,128.72-191.88,55.47-60.69,124.15-119.25,204.13-174.05,79.29-54.32,170.37-105.41,270.71-151.85,100.38-46.46,210.85-88.65,328.33-125.38,118.64-37.1,245.47-68.96,376.98-94.71,273.67-53.58,564.37-80.75,864.04-80.75h0c299.69,0,590.41,27.16,864.08,80.74,131.51,25.75,258.34,57.61,376.98,94.71,117.48,36.74,227.95,78.92,328.33,125.38,100.33,46.44,191.41,97.53,270.7,151.85,79.98,54.79,148.65,113.35,204.12,174.05,56.4,61.72,99.7,126.28,128.71,191.88,29.71,67.2,44.77,136.35,44.77,205.52s-15.06,138.32-44.77,205.52c-29,65.6-72.31,130.16-128.71,191.88-55.46,60.7-124.14,119.25-204.12,174.04-79.29,54.32-170.37,105.41-270.7,151.85-100.38,46.46-210.85,88.64-328.33,125.38-118.64,37.1-245.47,68.96-376.98,94.7-273.67,53.57-564.38,80.74-864.08,80.74h0Z"/>
              <path class="st38" d="M927.28-471.03c150.49,0,300.88,7.02,447,20.86,142.38,13.49,282.43,33.61,416.25,59.8,131.35,25.72,258.03,57.54,376.52,94.59,117.3,36.68,227.59,78.8,327.8,125.18,100.11,46.34,190.98,97.31,270.07,151.49,79.7,54.61,148.13,112.94,203.37,173.39,56.08,61.37,99.13,125.54,127.94,190.71,29.46,66.64,44.4,135.2,44.4,203.76s-14.94,137.12-44.4,203.76c-28.81,65.17-71.86,129.33-127.94,190.7-55.24,60.45-123.66,118.79-203.37,173.39-79.09,54.19-169.96,105.15-270.07,151.49-100.21,46.38-210.5,88.5-327.8,125.17-118.49,37.05-245.17,68.87-376.52,94.59-133.82,26.2-273.86,46.32-416.25,59.8-146.12,13.84-296.51,20.86-447,20.86s-300.88-7.02-447-20.86c-142.38-13.49-282.43-33.61-416.25-59.8-131.35-25.71-258.03-57.54-376.52-94.59-117.3-36.68-227.59-78.79-327.8-125.17-100.11-46.34-190.98-97.31-270.07-151.49-79.7-54.6-148.13-112.94-203.37-173.39-56.08-61.37-99.13-125.53-127.94-190.7-29.46-66.64-44.4-135.2-44.4-203.76s14.94-137.12,44.4-203.76c28.81-65.17,71.86-129.34,127.94-190.71,55.24-60.45,123.66-118.79,203.37-173.39,79.09-54.19,169.95-105.16,270.07-151.49,100.21-46.38,210.5-88.5,327.8-125.18,118.49-37.05,245.17-68.87,376.52-94.59,133.82-26.2,273.86-46.32,416.25-59.8,146.12-13.84,296.51-20.86,447-20.86M927.28-479.72c-1227.2,0-2222.03,460.46-2222.03,1028.47S-299.92,1577.2,927.28,1577.2s2222.03-460.44,2222.03-1028.45S2154.47-479.72,927.28-479.72h0Z"/>
            </g>
            <path class="st29" d="M812.4,866.5c8.68,4.92,26.34,10.31,47.79,15.23,21.53,4.97,47.16,9.72,73.53,14.36,52.75,9.29,108.54,18.38,141.79,27.94,6.45,1.53,12.43,3.68,18.07,5.41,5.56,1.97,10.77,4.45,15.44,6.28,9.36,3.9,17.42,7.26,24.33,10.13,5.82,2.48,1.94.97-8.52-3.31-5.23-2.16-12.11-5-20.27-8.36-8.26-3.78-18.15-7.15-29.05-10.15-19.55-5.21-42.84-9.95-70.27-14.9,33.85,7.82,66.48,16.06,88.58,25.01,8.02,3.26,16.22,6.48,24.52,9.72,8.29,3.21,16.57,6.66,25.09,9.57,37.25,13.65,74.64,24.87,111.72,36.43,18.52,5.83,37.01,11.68,55.35,18.02,18.46,6.13,36.33,13.54,55.05,19.74,26.72,10.07,86.47,27.65,113.37,34.16,0,0-5.28-1.23-14.51-3.38-4.64-.98-10.18-2.56-16.53-4.36-6.37-1.79-13.54-3.8-21.36-6-7.81-2.25-16.34-4.46-25.24-7.22-8.84-2.97-18.15-6.09-27.8-9.33-9.6-3.29-19.69-6.47-29.63-10.09-9.98-3.52-20.03-7.37-30.25-10.74-40.75-13.83-82.21-25.88-113.12-35.71-15.45-4.93-28.3-9.14-37.28-12.15-8.94-3.14-14.05-4.93-14.05-4.93,2.92,1.15,5.83,2.28,8.7,3.41,0,0,2.68.96,7.36,2.65,4.72,1.58,11.46,3.84,19.56,6.55,16.16,5.48,37.86,12.27,59.48,19.13,21.63,6.86,43.21,13.73,59.22,19.31,16.1,5.34,26.64,9.4,26.64,9.4,9.66,3.48,19.41,7,29.47,10.62,0,0-1.87-.64-4.66-1.6-2.81-.96-6.54-2.24-10.17-3.61-7.32-2.71-14.64-5.41-14.64-5.41-25.21-9.02-50.23-16.21-78.24-24.68-17.26-5.33-36.81-12.11-54.12-17.57-14.05-4.71-26.8-9.55-39.9-14.78,0,0-6.4-2.31-12.81-4.61-3.2-1.15-6.4-2.31-8.79-3.17-2.4-.84-3.98-1.51-3.98-1.51-2.51-.89-5.19-1.85-7.94-2.83.09.05.25.15.32.18,4.88,3.13,21.99,10.44,45.61,19.48,23.65,8.94,53.9,19.21,84.49,29.44,30.55,10.32,61.28,20.93,86.27,30.67,25.49,9.26,46.27,16.14,55.35,19,14.66,4.31,29.08,6.9,43.74,10.07,7.37,1.43,14.74,3.32,22.49,4.58,7.73,1.37,15.66,2.89,23.93,4.68,11.05,2.35,20.13,5.45,28.77,6.5.95-.35,5.29.06,9.66.47,11.1,1.93,22.12,4.41,32.54,6.61,5.23,1.05,10.24,2.24,15.14,2.87,4.96.44,9.69.72,14.1.75,12.31.8,45.56,10.84,48.24,9.4,9.7-5.24,2.74-1.45,30.94.52,3.44.22,14.55-1.26,21.34-.54,22.66,3.36,29.5,2.1,55.26,5.84,9.45,1.83,17.01,3.51,23.59,5.14,6.69,1.8,12.44,3.41,17.91,5.05,10.94,3.27,21.4,6.06,38.41,9.85,1.02.25,5.07,1.35,10.52,2.95,5.32,1.84,12.22,3.93,18.73,6.44,3.24,1.31,6.45,2.61,9.44,3.81,1.5.62,2.94,1.2,4.31,1.75,1.3.66,2.53,1.27,3.66,1.84,4.55,2.28,7.54,3.77,7.54,3.77,1.13.65,2.25,1.3,3.35,1.93,1.01.73,2.01,1.45,3,2.16,1.99,1.41,3.93,2.79,5.84,4.14,3.85,2.42,7.43,5.94,10.95,8.75,7.13,5.78,13.98,10.89,20.56,15.72,13.18,9.69,25.36,18.63,37.85,30.02,16.73,9.81,34.97,23.09,51.89,38.09,8.53,7.42,16.44,15.5,23.76,23.57,3.39,4.22,7.12,8.14,9.98,12.42,1.49,2.1,3.11,4.11,4.49,6.21,1.31,2.13,2.6,4.24,3.87,6.31,1.16,1.89,2.81,4.43,4.37,6.77,1.48,2.42,3.33,4.15,4.89,6.15,3.37,3.66,6.68,6.82,9.98,9.53,6.55,5.51,12.7,9.83,18.78,13.84,12.19,7.98,24.09,15.01,40.63,23.19,9.58,4.34,16.98,6.93,22.37,9.81,5.42,2.94,19.95,5.99,29.48,9.96l-2.95.57c3.19,1.33,9.52,3.97,12.69,5.3,3.16,1.34,2.17,1.51,1.19,1.7-1.97.37-3.92.74,1.41,3.58,13.01,5.88,26.26,11.75,39.25,18.03,13.31,5.07,26.07,10.49,37.17,16.78.98-.16,2.08-.25,3.85.33,1.66.94,3.29,1.9,4.74,2.95,1.47,1.03,3.13,2.01,4.37,3.12,2.56.38,3.29-1.29,5.09-.96,1.69-1.57,5.82-.06,9.77,1.81,3.71,1.93,7.31,4.23,8.06,1.37.03-.53-.8-2.39-2.16-5.1-.64-1.4-1.74-2.69-2.78-4.28-.55-.77-1.12-1.58-1.71-2.4-.66-.75-1.33-1.53-2.02-2.32-5.48-6.41-12.83-12.48-17.22-16.43-1.96-1.95,4.19.07,7.33.57-6.49-4.51-9.8-6.93-10.68-8.12-.88-1.18.71-1.24,3.85-.14-3.1-2.05-6.24-3.96-6.24-3.96,1.06.01,4.24.05,4.24.05-16.82-11.01-34.99-20.25-53.14-28.51-18.16-8.21-36.31-15.26-53.42-20.68-7.3-2.47-19.6-5.91-27.66-8.38-4.06-1.19-12.18-5.61-15.15-7.08-5.86-1.06-5.8.82-8.72,1.21-11.34-6.03-29.05-16.31-39.64-26.12-1.25-1.21-2.46-2.4-3.63-3.54-.96-1.17-1.92-2.26-2.86-3.28-.83-1.01-1.36-1.93-2.08-2.77l-.51-.62c-.18-.22-.48-.7-.71-1.02-.49-.71-.97-1.39-1.42-2.04-3.67-5.13-6.29-7.74-7.2-6.55-3.44-4.71-6.23-8.52-8.98-11.5-2.81-2.91-5.31-5.32-7.84-7.72-5.19-4.52-10.46-9.08-19.22-16.69-22.96-20.15-54.43-41.49-84.54-62.8-8.28-5.75-16.24-11.56-23.92-17.51-3.76-3.06-7.6-5.93-11.26-9.13-3.72-3.17-7.11-6.37-11.7-9.43-3.24-2.29-6.42-4.59-9.57-6.72-3.24-1.8-6.42-3.57-9.53-5.3-16.94-8.99-33.94-15.71-50.67-21.2-16.67-5.64-33.19-10.33-49.14-14.62-16.02-4.23-32.42-8.64-48.63-10.99-8.11-1.62-16.19-2.23-24.25-3.27-8.07-1.08-16.06-1.53-24.07-2.2-31.92-2.42-63.7-3.13-95.49-6.03-3.96-.39-7.95-.63-11.96-1.12-4.02-.71-8.05-1.41-12.11-2.13-8.12-1.39-16.32-2.8-24.62-4.22-8.29-1.51-16.75-2.53-25.23-4.43-8.5-1.7-17.12-3.43-25.87-5.18-8.81-1.8-17.73-3.37-26.54-5.43-8.78-2.21-17.57-4.43-26.38-6.64-8.8-2.26-17.64-4.44-26.42-6.82l-26.03-8.19c-8.67-2.76-17.33-5.52-25.98-8.28-8.66-2.99-17.3-5.98-25.92-8.97-17.29-5.79-34.57-11.41-51.75-16.66-34.29-10.71-68.11-20.64-100.27-31.61-8.09-2.61-15.96-5.57-23.81-8.36-7.84-2.82-15.62-5.58-23.08-8.68-7.53-3.01-14.98-6-22.33-8.94-3.88-1.56-7.74-3.32-11.6-4.68-3.89-1.22-7.75-2.44-11.59-3.66-30.69-8.57-59.81-13.85-86.69-19.06-26.83-4.97-51.46-9.52-73.34-13.57-43.67-8.03-75.95-15.21-92.24-19.89,0,0-1.23-.2-3.06-.51-1.8-.32-4.38-.65-6.68-1.16-4.54-1.08-9.08-2.15-9.08-2.15v.02h0Z"/>
            <path class="st29" d="M-283.51,1153.61c14.84,6.57,38.15,16.71,66.81,26.49,28.64,9.83,62.58,19.48,97.88,27.09,35.29,7.66,71.92,13.3,105.55,16.11,33.62,2.92,64.25,2.8,87.25.82,35.47-2.49,62.32-9.17,81.05-17.54,3.96-1.72,4.58-2.15,2.5-1.23-2.1.86-6.94,2.99-14.23,5.48-14.54,5.09-39.15,10.87-69.33,13.28-26.98,1.93-58.95,1.51-96.2-2.19,46.63,2.67,91.6-.09,122.73-6.6,22.95-3.19,46.28-8.58,67-20.12,5.62-3.24,10.96-6.9,15.79-11.1,4.78-4.26,8.98-9.1,12.36-14.43,6.95-10.62,9.71-23.4,9.46-35.98-.31-6.32-1-12.56-2.49-18.86-1.22-6.29-2.91-12.52-4.59-18.74-3.43-12.44-7.45-24.76-11.04-37.29-3.59-12.51-6.83-25.24-8.67-38.33-1.86-13.05-2.24-26.61.43-39.89,2.65-13.23,7.82-25.98,15.99-37.21,8.87-11.14,21.27-18.24,33.45-23.55,8.8-4.04,20.5-7.93,31.64-14.38,1.39-.81,2.79-1.64,4.2-2.47,1.29-.99,2.59-1.98,3.89-2.97,2.77-1.84,5.02-4.31,7.38-6.71,4.62-4.88,8.41-10.73,11.38-17.07,1.81-2.98,2.62-6.53,3.86-9.8l1.73-4.96c.38-1.74.76-3.46,1.14-5.16.73-3.42,1.45-6.81,2.15-10.12.39-3.41.76-6.76,1.13-10.01.18-1.63.36-3.23.54-4.82l.26-2.35c.13-.92.27-1.84.39-2.75.37-3.75,1.47-7.1,2.5-10.31,2.42-6.2,5.35-11.38,8.21-15.44,0,0-.29.39-.85,1.15-.59.72-1.33,1.97-2.31,3.55-.97,1.6-2.25,3.49-3.37,6.07-.58,1.26-1.26,2.59-1.88,4.06-.5,1.55-1.04,3.2-1.61,4.94-.67,1.7-.82,3.71-1.2,5.73-.16,1-.31,2.02-.48,3.07-.11.87-.22,1.76-.33,2.67-.45,3.64-.94,7.57-1.46,11.78-1.4,8.28-3.3,17.61-7,26.96-3.87,9.17-9,18.78-17.56,26.01-8.35,7.46-19.54,12.57-32.06,17.47-12.36,4.97-26.51,10.37-38.25,20.85-1.56,1.15-2.86,2.68-4.18,4.17l-3.98,4.49c-2.37,3.14-4.01,6.62-6.03,9.93-3.53,6.84-6.41,13.98-8.24,21.44-3.83,14.89-3.89,30.36-2.01,44.87,1.88,14.57,5.48,28.36,9.21,41.44,3.75,13.08,7.74,25.48,10.91,37.26,3.08,11.77,5.78,23.02,6.31,33.03.63,10.13-1.04,19.26-3.96,26.72-2.9,7.49-7.02,13.3-10.89,17.65-3.83,4.41-7.53,7.28-10,9.27-2.54,1.91-3.97,2.85-3.97,2.85,3.2-2.32,6.19-4.84,8.86-7.54,0,0,2.69-2.31,6.55-7,3.84-4.68,8.42-12.14,10.92-22.14,5.82-20.12-3.73-49.04-12.57-77.88-4.46-14.49-8.87-29.27-11.58-43.75-2.78-14.44-3.6-28.6-2.46-40.8.92-6.08,1.57-11.68,3.15-16.49.69-2.41,1.23-4.71,1.94-6.77.82-2.01,1.58-3.86,2.26-5.54,1.37-3.34,2.42-5.98,3.51-7.66.97-1.72,1.49-2.63,1.49-2.63,2.01-3.26,3.5-6.72,6.46-9.63,2.65-3.04,5.29-6.16,8.43-8.5l4.56-3.8,4.91-3.17c3.26-2.27,6.67-3.89,10.08-5.68,0,0-2.51,1.28-6.28,3.2-3.67,2.35-8.74,5.14-13.16,9.22-1.14.95-2.26,1.91-3.38,2.85-1.06,1.04-2.01,2.2-2.97,3.26-1.86,2.17-3.73,4.14-5.04,5.95-2.16,3.78-3.61,6.3-3.61,6.3-5.15,8.57-8.31,17.75-10.84,27.18-.57,2.36-.87,4.78-1.31,7.16-.35,2.4-.95,4.8-1.01,7.21-.29,4.82-.8,9.69-.49,14.49.36,19.38,4.69,38.3,10.06,57.28,3.39,11.73,7.58,23.95,11.12,36.09,1.72,6.08,3.4,12.15,4.63,18.11,1.42,6,2.04,11.53,2.22,17.05.19,8.89-1.01,17.27-3.87,25.06-2.85,7.79-7.61,14.83-13.72,21.03,0,0-1.48,1.48-3.97,3.45-1.19,1.05-2.69,2.15-4.33,3.29-1.59,1.2-3.4,2.35-5.24,3.45-3.64,2.27-7.48,4.28-10.45,5.64-2.92,1.43-4.95,2.24-4.95,2.24-3.18,1.2-6.64,2.35-10.2,3.49.11-.06.33-.17.41-.22,3.19-1.84,10.36-4.96,19.39-10.51,8.95-5.47,19.85-13.87,26.81-26.28,3.42-6.19,5.82-13.31,6.47-21.2.69-7.95-.15-16.27-2.32-25.35-4.23-18.52-11.62-38.31-18.14-59.4-3.18-10.63-6.19-21.57-8.25-32.99-1.85-11.48-3.13-23.3-2.21-35.3,1.04-11.89,3.3-23.92,8.11-34.53,1.91-5.44,5.13-10.52,7.93-15.54,1.19-2.54,3.52-4.88,5.46-7.21,2.05-2.24,3.97-4.84,6.19-6.51,2.18-1.84,4.34-3.65,6.46-5.43,2.18-1.65,4.42-2.95,6.6-4.39,1.1-.69,2.19-1.38,3.26-2.06,1.07-.56,2.13-1.11,3.19-1.66,2.11-1.07,4.19-2.13,6.23-3.16,7.91-3.58,15.07-6.36,20.68-8.74,11.42-4.81,18.2-8.82,21.85-11.78,5.86-4.64,11.01-9.62,14.85-16.6.94-1.74,2.26-3.17,2.99-5.15l2.51-5.72c1.95-3.66,2.89-8.11,4.28-12.31,1.51-4.17,2.28-8.79,3.17-13.42.45-2.32.9-4.65,1.35-7l.89-4.57c.37-1.69.67-3.43,1.16-5.06,4.19-13.13,12.1-23.22,20.39-32.13,11.31-11.66,20.72-20.68,30.27-27.22,1.32-.18,6.1-3.41,10.81-6.62,2.8-2.32,5.64-4.65,8.24-7.04,1.31-1.2,2.67-2.38,3.87-3.61l1.84-1.82c.56-.58,1.37-1.3,1.47-1.52l3.45-4.16c1.28-1.61,2.62-3.12,4.03-4.47,2.77-2.82,5.5-5.64,8.39-8.02,11.39-9.95,22.94-17.34,33.4-22.59,7.17-3.96,19.17-13.87,29.26-22.91,10.14-9.05,17.84-17.29,19.6-17.42,6.93-.32,7.83-.53,10.28-3.23.6-.69,1.32-1.51,2.24-2.56.83-1.09,1.8-2.4,3.08-3.96.64-.77,1.35-1.62,2.13-2.56.7-.97,1.48-2.04,2.33-3.21,1.77-2.17,3.74-5.19,6.2-8.6.56-.85,1.71-1.96,3.02-3.44,1.29-1.53,2.81-3.33,4.42-5.24,3.36-3.7,6.47-8.56,8.41-12.4,5.88-13.57,9.67-22.33,13.69-31.62,1.03-2.34,2.08-4.71,3.17-7.2,1.02-2.52,2.08-5.15,3.22-7.98,1.17-2.78,2.28-6.01,3.47-9.52.56-1.66,1.14-3.38,1.75-5.19.5-1.25.79-2.78,1.13-4.37,1-5.18,1.24-10.93,1.33-16.13.09-5.23-.04-10.14-.19-14.72-.4-9.33-.74-17.27-1.07-25.02-.23-7.87-.25-15.66.5-24.6.82-8.92,2.29-19.1,6.53-31.34.55-1.47,2.11-7.48,5.89-15.34,3.69-7.79,9.99-17.64,19.15-24.44,8.99-7,19.63-10.29,27.24-11.52,3.85-.58,7.01-.98,9.21-.95,2.2-.08,3.44-.12,3.44-.12,3.44-.27,6.8-.54,10.09-.81,3.18-.28,6.19-1.01,9.19-1.43,2.96-.62,5.75-1.53,8.56-2.22,2.71-.95,5.31-2.03,7.91-2.98,10.08-4.52,18.34-10.95,24.82-18.55,12.97-15.3,18.77-34.82,18.41-55.87,4.96-23.95.85-53.98-10.09-81.29-10.79-27.54-28.16-52.28-46.2-71.27-17.33-18.86-35.39-22.53-52.97-24.62-8.87-1.01-17.91-1.34-28.04-2.16-10.04-.7-21.41-2.09-34.47-5.67-3.68-1.3-7.19-2.29-10.33-3.77-3.14-1.49-6.07-2.88-8.82-4.19-5.41-2.8-9.77-5.78-14-7.82-2.02-1.15-4.4-3.19-7.14-5.59-2.75-2.41-5.81-5.21-8.44-8.58-1.38-1.63-2.79-3.29-4.21-4.97l-2.13-2.5c-.7-.81-1.42-1.62-2.19-2.75-3.07-4.09-5.77-8.4-7.79-12.48.02,1.66.05,3.39.31,5.05-1.66-2.66-3.93-6.91-5.49-11.27-1.67-4.34-2.78-8.76-3.3-11.64-1.15-5.8-1.45-4.22-2.03-2.7-.45,1.57-.88,3.2-1.55,3.11-.62-.06-1.76-1.98-2.69-7.14-1.68-12.51-.97-23.65-.22-34.18.92-9.72,1.84-19.55,2.79-29.49,3.17-18.12,4.44-34.2,1.59-49.22.65-1.1,1.24-2.35,1.34-4.7-.42-2.32-1.17-4.54-1.72-6.85-.79-2.22-1.46-4.51-2.35-6.73.42-3.49,2.87-3.74,3.09-6.2,2.65-1.46,2.27-7.64,1.6-13.51-.73-5.76-1.48-11.22,2.41-10.6,1.25.5,7.63,7.29,13.53,16.7,6.06,9.31,11.08,21.31,14.08,28.93,1.64,3.51,1.73-5.48,2.38-9.8,3.17,10.58,4.3,16.27,5.5,18.06,1.03,1.81,1.89-.23,1.96-4.98.58,2.6,1.1,5.21,1.36,7.17.3,1.96.5,3.26.5,3.26.52-1.4,2.11-5.63,2.11-5.63,5.66,28.81,1.44,58.58-.15,82.34-.83,11.89-.46,22.14,1.57,28.01.97,3.02,2.1,5.17,3.77,7.44.26.33.25.5.7.97l1.26,1.36,2.47,2.75c1.66,1.77,3.11,3.88,4.83,5.45,3.04,2.56,6.63,6.72,11.02,9.83l3.17,2.61c1.15.73,2.29,1.45,3.4,2.16,2.27,1.37,4.26,3,6.42,3.9,4.02,2.27,14.38,4.14,18.47,4.67,6.57,3.29,5.12,5.36,7.97,7.92,8.26.97,19.6,1.67,32.6,3.45,12.9,1.78,28.08,5.07,41.03,12.08,3.3,1.46,6.18,3.68,9.1,5.46,1.43.95,2.83,1.88,4.2,2.8,1.29,1,2.46,2.09,3.64,3.1,2.34,2.06,4.51,4.04,6.49,5.93,1.97,1.88,3.19,3.57,4.56,5.18,5.29,6.3,7.31,10.82,5.53,11.52,10.27,11.61,14.75,19.88,19.09,28.18,4.17,8.42,8.18,17.01,14.49,31.47,4.01,9.66,7.73,20.19,10.77,31.47,2.91,11.31,5.18,23.33,6.33,35.87,2.32,24.95.1,52.48-11.15,77.69-6.4,13.58-15.53,26-27.22,35.53-11.61,9.66-25.81,15.76-40.19,18.54-2.69.44-5.37.88-8.03,1.32-2.65.19-5.28.37-7.89.56-2.26.16-4.5.31-6.72.48l-2.99.2c-.97.13-1.9.34-2.83.49-5.2.65-9.75,2.47-14.03,4.48-4.17,2.22-7.72,5.2-10.89,8.64-3.05,3.59-5.53,7.79-7.64,12.28-1.91,4.66-3.62,9.48-4.72,14.63-2.43,10.19-3.24,21.05-3.62,31.85-.34,10.84,0,21.76.42,32.73.41,10.99,1.03,21.98.79,33.62-.23,5.79-.55,12.18-2.56,18.99-1.63,5.52-2.85,10.41-4.69,15.78-6.85,21.06-14.99,41.39-25.93,60.97-5.8,9.77-11.95,19.16-19.89,28.06-7.95,8.85-17.02,16.16-26.12,22.69-18.35,12.82-37.43,23.1-55.54,34.24-9.09,5.53-17.78,11.36-25.73,17.75-2,1.59-4,3.18-5.74,4.92-1.77,1.72-3.78,3.33-5.28,5.19l-2.43,2.7-2.07,2.32-1.82,1.7c-2.22,2.08-4.46,4.12-6.72,6.01-9.02,7.72-18.27,14.63-27.16,21.74-8.86,7.1-17.5,14.39-24.65,22.45-3.35,4.11-6.68,8.31-8.65,12.71-.67,1.08-.93,2.2-1.37,3.3-.38,1.1-.92,2.2-1.03,3.31l-.7,3.35-.71,4.71-1.44,9.41-.72,4.71-1.18,4.7-2.38,9.38c-.65,3.14-2.18,6.19-3.25,9.27-2,6.24-5.52,12.08-8.74,17.94-1.99,2.76-4.1,5.45-6.16,8.16-2.03,2.73-4.78,4.87-7.15,7.3-10.19,9.19-22.51,14.8-34.03,19.26-11.56,4.5-22.71,8.34-31.94,14.41-4.59,3.05-8.76,6.58-12.12,10.58-1.99,1.71-3.1,4.43-4.57,6.73-1.4,2.38-2.93,4.7-3.9,7.36-4.96,10.11-7.3,21.3-7.84,32.61-.54,11.33.6,22.84,2.89,34.23,4.57,22.84,12.61,45.11,18.65,68.18l2.16,8.7,1.84,8.83c.59,2.95.95,6.1,1.39,9.15.15,3.12.61,6.2.47,9.36.18,6.27-.74,12.6-2.08,18.79-1.51,6.19-3.92,12.15-6.94,17.73-3.17,5.51-7.01,10.53-11.28,15.06-4.39,4.36-9.04,8.41-14.05,11.75-9.92,6.9-20.69,11.69-31.44,15.6-21.62,7.65-43.5,11.22-64.69,13.32-42.48,3.96-82.6,1.8-119.3-1.99-36.72-3.9-70.12-9.92-99.54-16.53-58.88-13.24-101.79-29.52-124.29-39.82,0,0-6.25-3.68-12.38-7.59-6.15-3.86-12.15-8.03-12.15-8.03h.03,0Z"/>
          </g>
        </g>
        <path class="st32" d="M1507.99,723.66c-284.79,3.26-335.49,131.17-565.33,138.78h919.22c-87.07-64.08-189.57-140.66-353.89-138.78h0Z"/>
        <path class="st32" d="M1058.1,1004.46c-236.01,2.49-278.03,99.82-468.5,105.6h761.78c-72.16-48.76-157.1-107.02-293.28-105.6h0Z"/>
        <path class="st32" d="M704.28,848.18c216.66,3.27,255.24,131.36,430.1,138.96H435.04c66.24-64.16,144.22-140.83,269.24-138.96Z"/>
        <path class="st32" d="M1205.87-129.92c284.79,3.16,335.49,127.12,565.32,134.49h-919.22c87.07-62.1,189.57-136.32,353.9-134.49Z"/>
        <path class="st37" d="M1788.81,50.43c-77,35.56-147.13,71.69-262.05,75.75h258.89s80.17-111.3,3.17-75.75h-.01Z"/>
        <path class="st12" d="M1578.78,126.18c0,18.18-64.56,32.92-144.18,32.92s-144.19-14.74-144.19-32.92,64.56-32.92,144.19-32.92,144.18,14.74,144.18,32.92Z"/>
        <path class="st17" d="M1621.87,186.46c57.95-.35,95.98-61.56,95.98-61.56h-190.45s36.82,61.91,94.47,61.56Z"/>
        <path class="st9" d="M1537.59,101.65h-2.8v-4.27h38.69v4.27h-13.37v1.2l9.91,1.14-2.04,9.82c.58.27,1.1.64,1.56,1.09.98.99,1.6,2.35,1.6,3.86s-.62,2.88-1.6,3.87c-.37.37-.79.69-1.25.93h10.5v3.07h-51.38v-3.07h10.6c-.46-.25-.89-.57-1.25-.93-.99-.98-1.6-2.36-1.6-3.87s.61-2.87,1.6-3.86c.8-.79,1.83-1.34,2.98-1.53l-2.14-11.73h-.01,0ZM1569.86,95.56h-31.13l-.32-.82,2.41-1.91,1.81-.88-.11-2.52,2.24-.38.44-1.54,3.18-1.2,1.86,2.03,3.73-.17.22-1.37,4.99-.93,1.04,5.32,2.91-.39,3.77-.05.28,2.47,3.07.93-.39,1.42h0ZM1543.23,123.57h19.82c-.46-.25-.88-.57-1.25-.93-.99-.98-1.6-2.36-1.6-3.87,0-.21,0-.42.03-.62h-14.2c.04.2.04.41.04.62,0,1.51-.61,2.88-1.6,3.87-.37.37-.79.69-1.25.93h.01,0ZM1539.1,117.25c-.39.39-.64.93-.64,1.52s.24,1.14.64,1.53c.39.39.92.63,1.52.63s1.13-.24,1.52-.63.63-.93.63-1.53-.24-1.12-.63-1.52c-.38-.39-.93-.63-1.52-.63s-1.13.24-1.52.63h0ZM1563.52,118.77c0,.6.24,1.14.63,1.53s.92.63,1.52.63,1.13-.24,1.52-.63.63-.93.63-1.53-.23-1.12-.63-1.52c-.38-.39-.93-.63-1.52-.63s-1.13.24-1.52.63-.63.93-.63,1.52Z"/>
        <path class="st10" d="M1479.59,68.56l-.25-1.51,2.59.07h.26c1.86,0,3.56-.76,4.78-1.98,1.21-1.23,1.99-2.91,1.99-4.78,0-.54-.07-1.05-.18-1.54-.12-.51-.29-1-.52-1.44l-.54-1.12.7-1.03c.12-.17.21-.33.31-.48.08-.17.18-.34.26-.52l3.47-.63c.49.5,1.07.91,1.72,1.17.61.26,1.3.4,2.03.4.83,0,1.63-.19,2.31-.53.72-.36,1.35-.88,1.84-1.51l3.43.03c.36.5.82.9,1.34,1.17.51.25,1.1.41,1.74.41,1.04,0,1.99-.42,2.66-1.1h.01c.69-.69,1.1-1.63,1.1-2.69s-.42-2-1.1-2.67h-.01c-.67-.7-1.62-1.11-2.66-1.11-.52,0-.99.09-1.41.26-.43.17-.85.44-1.2.76l-3.38-.6c-.43-.87-1.12-1.6-1.94-2.11-.79-.49-1.74-.77-2.74-.77s-1.87.26-2.65.7c-.8.47-1.45,1.15-1.91,1.95l-3.54.29c-.6-.74-1.36-1.35-2.21-1.76-.82-.39-1.76-.61-2.75-.61-1.2,0-2.31.33-3.26.89-.98.58-1.8,1.42-2.35,2.43l-1.26,2.33-2.02-1.73c-.47-.41-1.01-.73-1.6-.95-.55-.21-1.17-.32-1.82-.32-1.45,0-2.76.58-3.7,1.53h-.01c-.94.94-1.53,2.25-1.53,3.7,0,.92.23,1.77.64,2.52.43.78,1.04,1.44,1.79,1.91l1.39.87-.5,1.57c-.1.31-.17.64-.22.99-.05.33-.08.67-.08,1.03v.22l.02.22.07,1.21-1.01.69c-1.05.71-1.91,1.68-2.52,2.82-.22.42-.41.87-.56,1.33h-4.41c.23-1.19.63-2.3,1.19-3.34.73-1.38,1.75-2.62,2.95-3.62.02-.4.06-.79.12-1.18l.02-.14c-.79-.71-1.48-1.56-2-2.51-.74-1.37-1.17-2.93-1.17-4.58,0-2.62,1.07-5.01,2.8-6.73h0c1.72-1.74,4.1-2.8,6.74-2.8,1.14,0,2.26.21,3.32.6.32.12.63.26.94.41.76-.85,1.63-1.6,2.6-2.18,1.6-.94,3.46-1.49,5.44-1.49,1.63,0,3.19.37,4.59,1.04.65.31,1.25.68,1.81,1.1.56-.54,1.18-1.03,1.86-1.43,1.42-.82,3.05-1.29,4.79-1.29s3.52.52,4.99,1.42c.82.51,1.54,1.13,2.17,1.85.17-.09.35-.17.52-.24.94-.37,1.94-.57,2.99-.57,2.21,0,4.24.9,5.7,2.37h0c1.47,1.46,2.37,3.48,2.37,5.71s-.9,4.23-2.37,5.7h0c-1.46,1.48-3.48,2.38-5.7,2.38-1.32,0-2.57-.32-3.68-.89-.4-.2-.78-.44-1.14-.7-.51.4-1.06.75-1.65,1.03-1.28.63-2.7.98-4.2.98-1.06,0-2.08-.18-3.06-.51.06.46.08.93.08,1.39,0,3.05-1.23,5.8-3.22,7.81-.14.13-.27.25-.4.38h-10.01v.05h0Z"/>
        <path class="st22" d="M1380.28,104.71h-9.42v2.08h9.42v-2.08h0ZM1380.28,109.03h-9.42v2.08h9.42v-2.08h0ZM1380.28,113.57h-9.42v2.08h9.42v-2.08h0ZM1398.03,92.67h-11.61v2.08h11.61v-2.08h0ZM1398.03,97.21h-11.61v2.08h11.61v-2.08h0ZM1398.03,101.53h-11.61v2.08h11.61v-2.08h0ZM1398.03,106.08h-11.61v2.09h11.61v-2.09h0ZM1430.23,86.86h-11.62v2.08h11.62v-2.08h0ZM1430.23,91.4h-11.62v2.08h11.62v-2.08h0ZM1430.23,95.73h-11.62v2.08h11.62v-2.08h0ZM1430.23,100.27h-11.62v2.09h11.62v-2.09h0ZM1380.28,100.16h-9.42v2.08h9.42v-2.08h0ZM1436.04,121.33h1.44v5.31h-72.36v-5.31h1.92v-24.89h13.36v-7.23h17.73v-7.66h37.9v39.78h.01Z"/>
        <g>
          <path class="st20" d="M1596.33,138.42l2.1-2.08c.84-.85,2.23-.84,3.06,0l1.11,1.13c-1.71,1.73-3.35,3.56-4.91,5.45l-1.39-1.4c-.84-.85-.83-2.24.02-3.09h.01ZM1590.12,157.8c.39.38.8.77,1.2,1.16,2.87-3.75,5.95-7.5,9.63-11.31.67.44,1.33.88,2,1.32.11-.13.23-.26.34-.4l24.57,24.93c.84.85,2.22.85,3.07,0l2.1-2.09c.84-.85.85-2.24.02-3.08l-24.76-25.12c3.51-3.53,7.44-6.97,11.23-9.37l-3.1-4.76c-10.89,6.96-19.9,17.5-26.29,28.72h-.01,0Z"/>
          <path class="st20" d="M1641.7,136.18l2,2.1c.81.86.79,2.24-.05,3.09l-1.12,1.12c-1.67-1.71-3.42-3.35-5.24-4.91l1.39-1.4c.85-.84,2.2-.84,3.02,0h0ZM1622.88,130.01c-.38.4-.76.81-1.15,1.2,3.61,2.88,7.24,5.96,10.9,9.64-.44.67-.88,1.35-1.32,2.01.13.11.26.23.38.34l-24.65,24.8c-.85.85-.86,2.24-.05,3.09l2.01,2.1c.81.85,2.17.86,3,0l24.86-24.99c3.39,3.52,6.69,7.46,8.99,11.26l4.69-3.14c-6.63-10.92-16.79-19.94-27.66-26.32h0Z"/>
        </g>
        <polygon class="st9" points="1457.28 71.43 1492.17 71.43 1499.63 126.49 1449.81 126.49 1457.28 71.43 1457.28 71.43"/>
        <path class="st27" d="M154.31,462h-.46l-.38.37h-9.91l10.74,19.1h-.46l-.38.37h-15.29v14.1l-.9.82h-14.47l-.82-.82v-14.1h-16.11c.2-1.29,3.79-7.79,10.75-19.47h-10.75v-.82l24.03-40.96h.81l23.59,41.41h.01ZM107.07,455.81v.37c0,.85-1.1,3.33-3.28,7.47h7.45l.37.44c.46,1.1.87,1.65,1.28,1.65l-9.93,17.39h10.38l2.83,2.46-.82.82h-10.74v9.55l-.82.82h-9.93l-.81-.82v-9.55h-11.64l-.37-.37,7.84-13.65h-7.47l-.37-.45,17.39-30.22c.7.34,3.58,5.05,8.65,14.11v-.02h-.01Z"/>
        <g>
          <path class="st19" d="M90.24,238.67v8.03h-9.03v-8.03h-13.12l2.69-7.96,9.65-8.74-1.13-1.37-6.01,2.68,2.46-7.29,9.43-8.53-1.13-1.35-5.83,2.58,7.71-22.8,8.93,26.39.82,2.38-5.13-2.28-1.13,1.36,8.56,7.75,2.74,8.1-6.6-2.94-1.13,1.36,10.34,9.37-.03-.16.48,1.43h-13.55v.02h0ZM136.94,171.8l11.15,32.64,1,2.96-6.39-2.82-1.41,1.69,10.69,9.58,3.43,10.02-8.25-3.63-1.41,1.68,12.93,11.59-.04-.19.6,1.76h-18.11v10.69h-8.93v-10.69h-17.57l3.36-9.84,12.06-10.81-1.41-1.68-7.51,3.31,3.08-9.01,11.78-10.56-1.41-1.68-7.29,3.21,9.65-28.21h0Z"/>
          <path class="st11" d="M122.37,240.79h-8.03v6.98h8.03v-6.98h0ZM114.77,184.9c-6.8,0-12.32,5.42-12.32,12.12,0,1.74.37,3.38,1.04,4.89-3,1.88-5,5.19-5,8.95,0,4.54,2.9,8.42,6.98,9.94-.13.61-.2,1.24-.2,1.9,0,4.23,2.98,7.78,6.97,8.75l1.75-5.16.83-2.46c3.79-11.22,7.11-21.02,10.93-32.3-2.04-3.94-6.19-6.63-10.99-6.63h.01,0Z"/>
        </g>
        <g>
          <path class="st19" d="M91.84,732.13v8.03h-9.02v-8.03h-13.11l2.68-7.96,9.65-8.74-1.13-1.37-6.01,2.68,2.46-7.29,9.42-8.53-1.12-1.36-5.82,2.59,7.71-22.8,8.93,26.4.81,2.38-5.12-2.28-1.13,1.36,8.56,7.75,2.74,8.1-6.6-2.94-1.13,1.36,10.34,9.37-.03-.17.48,1.43h-13.55v.02h0ZM138.54,665.27l11.15,32.64,1,2.96-6.39-2.82-1.41,1.69,10.69,9.58,3.43,10.02-8.26-3.63-1.4,1.68,12.93,11.59-.04-.19.6,1.76h-18.11v10.7h-8.93v-10.7h-17.57l3.36-9.85,12.06-10.81-1.41-1.68-7.51,3.31,3.07-9.01,11.78-10.55-1.41-1.69-7.29,3.21,9.65-28.21h0Z"/>
          <path class="st11" d="M123.98,734.26h-8.03v6.98h8.03v-6.98h0ZM116.38,678.36c-6.8,0-12.32,5.42-12.32,12.12,0,1.74.37,3.39,1.04,4.89-3,1.89-4.99,5.19-4.99,8.96,0,4.54,2.89,8.42,6.98,9.94-.13.61-.2,1.24-.2,1.9,0,4.23,2.98,7.78,6.98,8.74l1.74-5.15.84-2.47c3.79-11.22,7.11-21.01,10.93-32.3-2.04-3.93-6.2-6.62-10.99-6.62h-.01Z"/>
        </g>
        <path class="st27" d="M273.78,89.46h-.45l-.38.37h-9.91l10.74,19.1h-.45l-.38.37h-15.29v14.1l-.89.82h-14.48l-.82-.82v-14.1h-16.11c.2-1.29,3.79-7.79,10.75-19.47h-10.75v-.82l24.03-40.95h.81l23.59,41.41h-.01,0ZM226.55,83.27v.37c0,.84-1.09,3.33-3.28,7.47h7.45l.38.44c.46,1.09.87,1.65,1.27,1.65l-9.93,17.38h10.37l2.83,2.46-.82.82h-10.74v9.55l-.82.82h-9.93l-.81-.82v-9.55h-11.64l-.37-.37,7.84-13.65h-7.47l-.37-.45,17.39-30.22c.7.34,3.58,5.05,8.65,14.11h0Z"/>
        <path class="st27" d="M273.78-30.94h-.45l-.38.37h-9.91l10.74,19.1h-.45l-.38.37h-15.29V3l-.89.82h-14.48l-.82-.82v-14.1h-16.11c.2-1.29,3.79-7.79,10.75-19.47h-10.75v-.82l24.03-40.95h.81l23.59,41.4h-.01,0ZM226.55-37.14v.37c0,.84-1.09,3.33-3.28,7.47h7.45l.38.44c.46,1.09.87,1.64,1.27,1.64l-9.93,17.39h10.37l2.83,2.45-.82.82h-10.74V2.99l-.82.82h-9.93l-.81-.82V-6.56h-11.64l-.37-.37,7.84-13.65h-7.47l-.37-.45,17.39-30.21c.7.34,3.58,5.05,8.65,14.1h0Z"/>
        <path class="st27" d="M398.83,582.79h-.45l-.37.37h-9.91l10.74,19.1h-.45l-.37.37h-15.29v14.1l-.9.82h-14.47l-.82-.82v-14.1h-16.12c.21-1.29,3.8-7.79,10.75-19.47h-10.75v-.82l24.03-40.95h.81l23.58,41.4h-.01,0ZM351.6,576.6v.37c0,.85-1.09,3.33-3.28,7.47h7.45l.37.44c.46,1.1.87,1.65,1.27,1.65l-9.93,17.39h10.38l2.83,2.46-.82.81h-10.74v9.56l-.82.82h-9.94l-.81-.82v-9.56h-11.65l-.37-.37,7.84-13.65h-7.47l-.37-.45,17.39-30.21c.7.34,3.58,5.04,8.65,14.1h.02Z"/>
        <g>
          <path class="st19" d="M710.3,612.15v8.03h-9.03v-8.03h-13.12l2.69-7.96,9.65-8.73-1.13-1.37-6.01,2.68,2.46-7.28,9.43-8.54-1.13-1.36-5.83,2.59,7.71-22.8,8.93,26.39.81,2.39-5.13-2.28-1.13,1.36,8.56,7.75,2.74,8.1-6.6-2.94-1.13,1.36,10.34,9.37-.03-.16.48,1.43h-13.55.02ZM757,545.29l11.15,32.64,1,2.96-6.39-2.83-1.41,1.69,10.69,9.59,3.43,10.02-8.25-3.63-1.41,1.68,12.93,11.59-.04-.19.6,1.76h-18.11v10.69h-8.93v-10.69h-17.57l3.36-9.84,12.06-10.82-1.41-1.68-7.51,3.31,3.08-9.01,11.78-10.55-1.41-1.69-7.29,3.21,9.65-28.21h0Z"/>
          <path class="st11" d="M742.44,614.28h-8.03v6.97h8.03v-6.97h0ZM734.84,558.38c-6.8,0-12.32,5.42-12.32,12.12,0,1.74.37,3.38,1.04,4.89-3,1.89-5,5.19-5,8.96,0,4.55,2.9,8.42,6.98,9.94-.13.61-.2,1.24-.2,1.9,0,4.23,2.98,7.78,6.97,8.75l1.75-5.15.83-2.47c3.79-11.22,7.11-21.02,10.93-32.3-2.04-3.94-6.19-6.62-10.99-6.62v-.02h.01Z"/>
        </g>
        <g>
          <path class="st19" d="M956.92,612.15v8.03h-9.03v-8.03h-13.12l2.69-7.96,9.65-8.73-1.13-1.37-6.01,2.68,2.46-7.28,9.43-8.54-1.13-1.36-5.83,2.59,7.71-22.8,8.93,26.39.81,2.39-5.12-2.28-1.13,1.36,8.56,7.75,2.74,8.1-6.6-2.94-1.13,1.36,10.34,9.37-.03-.16.49,1.43h-13.55ZM1003.62,545.29l11.15,32.64,1,2.96-6.39-2.83-1.41,1.69,10.69,9.59,3.43,10.02-8.25-3.63-1.41,1.68,12.93,11.59-.04-.19.6,1.76h-18.11v10.69h-8.93v-10.69h-17.57l3.36-9.84,12.06-10.82-1.41-1.68-7.51,3.31,3.08-9.01,11.78-10.55-1.41-1.69-7.29,3.21,9.65-28.21h0Z"/>
          <path class="st11" d="M989.05,614.28h-8.03v6.97h8.03v-6.97h0ZM981.46,558.38c-6.8,0-12.32,5.42-12.32,12.12,0,1.74.37,3.38,1.04,4.89-3,1.89-5,5.19-5,8.96,0,4.55,2.9,8.42,6.98,9.94-.13.61-.2,1.24-.2,1.9,0,4.23,2.98,7.78,6.97,8.75l1.75-5.15.83-2.47c3.79-11.22,7.11-21.02,10.93-32.3-2.04-3.94-6.19-6.62-10.99-6.62v-.02h.01Z"/>
        </g>
        <g>
          <path class="st19" d="M1568.76,612.15v8.03h-9.03v-8.03h-13.12l2.69-7.96,9.65-8.73-1.13-1.37-6.01,2.68,2.46-7.28,9.43-8.54-1.13-1.36-5.83,2.59,7.72-22.8,8.93,26.4.82,2.39-5.14-2.28-1.12,1.36,8.56,7.75,2.74,8.1-6.6-2.94-1.13,1.36,10.34,9.37-.03-.16.48,1.43h-13.55,0ZM1615.46,545.29l11.15,32.64,1,2.96-6.39-2.83-1.4,1.69,10.69,9.59,3.43,10.02-8.26-3.63-1.4,1.68,12.92,11.59-.04-.19.61,1.76h-18.11v10.69h-8.93v-10.69h-17.57l3.36-9.84,12.06-10.82-1.4-1.68-7.51,3.31,3.08-9.01,11.78-10.55-1.41-1.69-7.29,3.21,9.65-28.21h-.02,0Z"/>
          <path class="st11" d="M1600.89,614.28h-8.03v6.97h8.03v-6.97h0ZM1593.3,558.38c-6.79,0-12.32,5.42-12.32,12.12,0,1.74.37,3.38,1.04,4.89-3,1.89-5,5.19-5,8.96,0,4.55,2.9,8.42,6.99,9.94-.12.61-.2,1.24-.2,1.9,0,4.23,2.98,7.78,6.97,8.75l1.75-5.15.84-2.47c3.78-11.22,7.11-21.01,10.93-32.3-2.03-3.94-6.19-6.62-10.99-6.62v-.02h-.01Z"/>
        </g>
        <g>
          <path class="st19" d="M833.74,488.33v8.03h-9.02v-8.03h-13.12l2.69-7.96,9.66-8.74-1.14-1.36-6,2.68,2.46-7.29,9.42-8.53-1.12-1.36-5.84,2.59,7.72-22.8,8.93,26.39.81,2.39-5.12-2.28-1.13,1.36,8.56,7.75,2.74,8.1-6.6-2.94-1.13,1.36,10.34,9.37-.03-.17.49,1.43h-13.57,0ZM880.44,421.47l11.15,32.64,1,2.96-6.39-2.82-1.42,1.69,10.69,9.58,3.43,10.02-8.26-3.63-1.4,1.68,12.93,11.59-.04-.19.6,1.76h-18.11v10.69h-8.92v-10.69h-17.58l3.36-9.84,12.06-10.82-1.41-1.68-7.51,3.31,3.07-9.01,11.78-10.55-1.41-1.68-7.29,3.21,9.65-28.21h.02,0Z"/>
          <path class="st11" d="M865.87,490.46h-8.03v6.98h8.03v-6.98h0ZM858.28,434.56c-6.8,0-12.32,5.42-12.32,12.12,0,1.74.37,3.38,1.04,4.89-3,1.88-5,5.19-5,8.96,0,4.55,2.9,8.42,6.99,9.94-.13.61-.2,1.24-.2,1.9,0,4.24,2.98,7.78,6.97,8.75l1.74-5.15.84-2.47c3.8-11.22,7.11-21.02,10.93-32.3-2.04-3.94-6.2-6.63-10.99-6.63h0Z"/>
        </g>
        <g>
          <path class="st19" d="M708.77,117.67v8.03h-9.03v-8.03h-13.12l2.69-7.96,9.65-8.74-1.13-1.37-6.01,2.68,2.46-7.29,9.43-8.54-1.13-1.36-5.83,2.59,7.71-22.8,8.93,26.4.81,2.38-5.12-2.28-1.13,1.36,8.56,7.75,2.74,8.1-6.6-2.94-1.13,1.36,10.34,9.37-.03-.17.48,1.43h-13.55v.03h.01ZM755.47,50.81l11.15,32.63,1,2.96-6.39-2.82-1.41,1.69,10.69,9.58,3.43,10.02-8.26-3.63-1.41,1.68,12.93,11.59-.04-.19.6,1.76h-18.11v10.69h-8.92v-10.69h-17.57l3.36-9.84,12.06-10.82-1.41-1.68-7.51,3.31,3.08-9.01,11.78-10.55-1.41-1.68-7.29,3.21,9.65-28.2h0Z"/>
          <path class="st11" d="M740.9,119.8h-8.03v6.98h8.03v-6.98h0ZM733.31,63.9c-6.8,0-12.32,5.42-12.32,12.12,0,1.74.37,3.38,1.05,4.89-3,1.88-5,5.19-5,8.95,0,4.54,2.9,8.42,6.98,9.94-.13.61-.2,1.24-.2,1.9,0,4.23,2.98,7.78,6.97,8.75l1.75-5.15.83-2.46c3.79-11.22,7.11-21.02,10.93-32.3-2.04-3.94-6.19-6.63-10.99-6.63h0Z"/>
        </g>
        <path class="st27" d="M1137.8,216.35h-.46l-.37.37h-9.91l10.75,19.1h-.46l-.37.37h-15.29v14.1l-.9.82h-14.48l-.82-.82v-14.1h-16.11c.2-1.29,3.79-7.79,10.75-19.47h-10.75v-.82l24.03-40.95h.81l23.59,41.41h-.01ZM1090.57,210.16v.37c0,.84-1.09,3.32-3.27,7.46h7.45l.37.44c.46,1.09.88,1.65,1.28,1.65l-9.93,17.39h10.38l2.83,2.46-.82.81h-10.75v9.55l-.81.82h-9.94l-.81-.82v-9.55h-11.64l-.37-.37,7.84-13.65h-7.47l-.37-.44,17.38-30.21c.7.34,3.58,5.04,8.65,14.1h0Z"/>
        <path class="st27" d="M1018.9,92.91h-.46l-.37.37h-9.91l10.74,19.1h-.46l-.37.37h-15.29v14.1l-.9.82h-14.47l-.82-.82v-14.1h-16.11c.2-1.29,3.79-7.79,10.75-19.47h-10.75v-.82l24.03-40.95h.81l23.59,41.41h-.01ZM971.67,86.72v.37c0,.84-1.1,3.33-3.27,7.47h7.45l.37.44c.46,1.09.87,1.65,1.27,1.65l-9.93,17.39h10.38l2.83,2.46-.82.82h-10.74v9.55l-.81.82h-9.94l-.81-.82v-9.55h-11.64l-.37-.37,7.84-13.65h-7.47l-.37-.45,17.39-30.22c.7.34,3.58,5.05,8.66,14.11l-.02-.02h0Z"/>
        <path class="st27" d="M1137.8,461.91h-.46l-.37.37h-9.91l10.75,19.1h-.46l-.37.37h-15.29v14.1l-.9.82h-14.48l-.82-.82v-14.1h-16.11c.2-1.29,3.79-7.79,10.75-19.47h-10.75v-.82l24.03-40.95h.81l23.59,41.4h-.01ZM1090.57,455.72v.37c0,.85-1.09,3.34-3.27,7.47h7.45l.37.44c.46,1.1.88,1.65,1.28,1.65l-9.93,17.39h10.38l2.83,2.46-.82.82h-10.75v9.55l-.81.82h-9.94l-.81-.82v-9.55h-11.64l-.37-.38,7.84-13.65h-7.47l-.37-.44,17.38-30.22c.7.34,3.58,5.05,8.65,14.1h0Z"/>
        <path class="st27" d="M776.79,211.01h-.45l-.38.37h-9.91l10.74,19.1h-.45l-.38.37h-15.29v14.1l-.9.82h-14.48l-.82-.82v-14.1h-16.11c.2-1.29,3.79-7.79,10.74-19.47h-10.74v-.82l24.02-40.95h.82l23.59,41.4h0ZM729.56,204.83v.37c0,.84-1.1,3.33-3.27,7.46h7.45l.37.44c.45,1.09.87,1.65,1.27,1.65l-9.93,17.38h10.38l2.83,2.46-.82.82h-10.74v9.56l-.82.82h-9.93l-.82-.82v-9.56h-11.64l-.37-.37,7.84-13.65h-7.47l-.37-.45,17.39-30.21c.69.34,3.58,5.04,8.65,14.1h0Z"/>
        <path class="st27" d="M1262.95,586.77h-.45l-.37.37h-9.91l10.74,19.1h-.45l-.37.37h-15.29v14.1l-.91.82h-14.48l-.82-.82v-14.1h-16.11c.2-1.29,3.79-7.79,10.75-19.47h-10.75v-.82l24.02-40.95h.82l23.58,41.41h0ZM1215.72,580.58v.37c0,.84-1.09,3.33-3.27,7.46h7.45l.37.44c.45,1.09.87,1.64,1.27,1.64l-9.92,17.39h10.38l2.83,2.46-.82.82h-10.74v9.55l-.82.82h-9.93l-.82-.82v-9.55h-11.64l-.37-.38,7.85-13.65h-7.47l-.37-.45,17.39-30.22c.7.34,3.58,5.04,8.65,14.1l-.02.02h0Z"/>
        <path class="st27" d="M1750.61,586.77h-.46l-.37.37h-9.92l10.74,19.1h-.46l-.37.37h-15.3v14.1l-.9.82h-14.48l-.83-.82v-14.1h-16.11c.2-1.29,3.8-7.79,10.75-19.47h-10.75v-.82l24.03-40.95h.81l23.59,41.41h.03,0ZM1703.37,580.58v.37c0,.84-1.09,3.33-3.27,7.46h7.45l.37.44c.46,1.09.88,1.64,1.28,1.64l-9.92,17.39h10.37l2.84,2.46-.83.82h-10.75v9.55l-.81.82h-9.93l-.81-.82v-9.55h-11.64l-.37-.38,7.84-13.65h-7.46l-.37-.45,17.38-30.22c.7.35,3.58,5.05,8.65,14.11h-.02,0Z"/>
        <g>
          <path class="st19" d="M959.56,853.36v8.03h-9.03v-8.03h-13.11l2.69-7.96,9.65-8.74-1.13-1.37-6.01,2.68,2.46-7.29,9.43-8.54-1.13-1.35-5.83,2.58,7.71-22.8,8.93,26.39.81,2.38-5.12-2.28-1.13,1.36,8.56,7.75,2.74,8.1-6.6-2.94-1.13,1.36,10.35,9.37-.04-.16.49,1.43h-13.55v.03h-.01ZM1006.26,786.5l11.15,32.64,1,2.96-6.39-2.82-1.41,1.69,10.69,9.58,3.43,10.02-8.25-3.63-1.41,1.68,12.93,11.59-.04-.19.6,1.76h-18.11v10.69h-8.93v-10.69h-17.57l3.36-9.84,12.06-10.81-1.41-1.68-7.51,3.31,3.08-9.01,11.78-10.56-1.41-1.69-7.28,3.22,9.64-28.21h0Z"/>
          <path class="st11" d="M991.69,855.5h-8.03v6.97h8.03v-6.97h0ZM984.1,799.6c-6.8,0-12.32,5.42-12.32,12.12,0,1.74.37,3.39,1.04,4.89-3,1.89-5,5.19-5,8.96,0,4.55,2.9,8.43,6.98,9.94-.12.61-.2,1.25-.2,1.9,0,4.23,2.98,7.78,6.97,8.75l1.75-5.15.83-2.47c3.79-11.22,7.11-21.01,10.93-32.3-2.04-3.94-6.19-6.63-10.99-6.63h.01Z"/>
        </g>
        <path class="st30" d="M772.45,1076.38h-.45l-.38.37h-9.91l10.74,19.1h-.45l-.38.37h-15.29v14.1l-.9.82h-14.47l-.82-.82v-14.1h-16.11c.2-1.29,3.79-7.79,10.74-19.47h-10.74v-.82l24.02-40.95h.81l23.59,41.4h0ZM725.21,1070.19v.37c0,.84-1.09,3.34-3.27,7.47h7.45l.37.44c.45,1.1.87,1.65,1.27,1.65l-9.93,17.39h10.38l2.83,2.46-.82.82h-10.74v9.55l-.82.82h-9.93l-.81-.82v-9.55h-11.64l-.37-.38,7.84-13.65h-7.47l-.37-.45,17.39-30.22c.69.34,3.58,5.04,8.65,14.1h-.01Z"/>
        <path class="st30" d="M1263.92,1076.38h-.46l-.37.37h-9.91l10.75,19.1h-.46l-.37.37h-15.29v14.1l-.9.82h-14.47l-.82-.82v-14.1h-16.11c.2-1.29,3.8-7.79,10.75-19.47h-10.75v-.82l24.03-40.95h.81l23.59,41.4h-.02ZM1216.69,1070.19v.37c0,.84-1.1,3.34-3.27,7.47h7.45l.37.44c.46,1.1.88,1.65,1.28,1.65l-9.93,17.39h10.38l2.83,2.46-.82.82h-10.74v9.55l-.81.82h-9.94l-.81-.82v-9.55h-11.64l-.37-.38,7.84-13.65h-7.46l-.37-.45,17.39-30.22c.69.34,3.58,5.04,8.65,14.1h-.03,0Z"/>
        <g>
          <path class="st19" d="M334.42,1101.94v8.03h-9.03v-8.03h-13.12l2.69-7.96,9.65-8.74-1.13-1.36-6.01,2.68,2.46-7.29,9.43-8.53-1.13-1.36-5.83,2.59,7.71-22.8,8.93,26.39.82,2.39-5.12-2.28-1.13,1.36,8.56,7.76,2.74,8.1-6.6-2.94-1.13,1.36,10.34,9.37-.03-.17.48,1.44h-13.55,0ZM381.12,1035.08l11.15,32.64,1,2.96-6.39-2.82-1.41,1.69,10.69,9.58,3.43,10.02-8.25-3.63-1.41,1.68,12.93,11.59-.04-.19.6,1.76h-18.1v10.7h-8.93v-10.7h-17.57l3.36-9.84,12.06-10.82-1.41-1.68-7.51,3.31,3.08-9.01,11.78-10.55-1.41-1.68-7.29,3.21,9.65-28.21h-.01,0Z"/>
          <path class="st11" d="M366.55,1104.07h-8.03v6.98h8.03v-6.98h0ZM358.96,1048.17c-6.8,0-12.32,5.42-12.32,12.12,0,1.74.37,3.39,1.05,4.89-3,1.89-5,5.19-5,8.96,0,4.55,2.9,8.42,6.98,9.94-.13.61-.2,1.24-.2,1.9,0,4.23,2.98,7.78,6.97,8.75l1.75-5.15.83-2.47c3.79-11.22,7.11-21.02,10.93-32.3-2.04-3.94-6.19-6.63-10.99-6.63h0Z"/>
        </g>
        <g>
          <path class="st15" d="M833.74,1099.74v8.03h-9.03v-8.03h-13.12l2.69-7.96,9.65-8.74-1.13-1.37-6.01,2.68,2.46-7.29,9.43-8.53-1.13-1.35-5.83,2.58,7.71-22.8,8.93,26.39.81,2.39-5.12-2.28-1.13,1.36,8.56,7.75,2.74,8.1-6.6-2.94-1.13,1.36,10.34,9.37-.03-.17.48,1.44h-13.55.01ZM880.44,1032.87l11.15,32.64,1,2.96-6.39-2.82-1.41,1.69,10.69,9.59,3.43,10.02-8.26-3.63-1.41,1.68,12.93,11.59-.04-.19.6,1.76h-18.11v10.7h-8.93v-10.7h-17.57l3.36-9.84,12.06-10.82-1.41-1.68-7.51,3.31,3.08-9.01,11.78-10.55-1.41-1.68-7.29,3.21,9.65-28.21h0v-.02h0Z"/>
          <path class="st15" d="M865.87,1101.87h-8.03v6.98h8.03v-6.98h0ZM858.28,1045.97c-6.8,0-12.32,5.43-12.32,12.12,0,1.74.37,3.38,1.04,4.89-3,1.88-5,5.19-5,8.95,0,4.54,2.9,8.43,6.98,9.94-.13.61-.2,1.24-.2,1.9,0,4.24,2.98,7.78,6.98,8.75l1.75-5.16.83-2.46c3.79-11.22,7.11-21.02,10.93-32.3-2.04-3.94-6.19-6.62-10.99-6.62h0Z"/>
        </g>
        <g>
          <path class="st15" d="M833.74,974.66v8.02h-9.03v-8.02h-13.12l2.69-7.96,9.65-8.74-1.13-1.37-6.01,2.68,2.46-7.29,9.43-8.53-1.13-1.36-5.83,2.59,7.71-22.8,8.93,26.39.81,2.39-5.12-2.29-1.13,1.36,8.56,7.76,2.74,8.1-6.6-2.94-1.13,1.36,10.34,9.37-.03-.17.48,1.44h-13.55.01ZM880.44,907.79l11.15,32.64,1,2.96-6.39-2.82-1.41,1.69,10.69,9.58,3.43,10.02-8.26-3.63-1.41,1.68,12.93,11.59-.04-.19.6,1.76h-18.11v10.7h-8.93v-10.7h-17.57l3.36-9.84,12.06-10.82-1.41-1.68-7.51,3.31,3.08-9.01,11.78-10.55-1.41-1.69-7.29,3.21,9.65-28.21h0Z"/>
          <path class="st15" d="M865.87,976.78h-8.03v6.98h8.03v-6.98h0ZM858.28,920.89c-6.8,0-12.32,5.42-12.32,12.11,0,1.74.37,3.39,1.04,4.89-3,1.89-5,5.19-5,8.96,0,4.54,2.9,8.42,6.98,9.94-.13.61-.2,1.24-.2,1.9,0,4.23,2.98,7.78,6.98,8.75l1.75-5.16.83-2.46c3.79-11.23,7.11-21.02,10.93-32.31-2.04-3.94-6.19-6.62-10.99-6.62h0Z"/>
        </g>
        <path class="st30" d="M1753.09,826.57h-.46l-.37.37h-9.91l10.74,19.1h-.46l-.37.37h-15.29v14.1l-.9.82h-14.48l-.82-.82v-14.1h-16.11c.21-1.29,3.79-7.79,10.75-19.47h-10.75v-.82l24.03-40.95h.81l23.59,41.4h0ZM1705.85,820.37v.37c0,.84-1.1,3.33-3.28,7.46h7.45l.37.44c.47,1.09.88,1.65,1.28,1.65l-9.93,17.39h10.38l2.82,2.45-.81.82h-10.74v9.56l-.82.82h-9.94l-.81-.82v-9.56h-11.65l-.37-.37,7.84-13.65h-7.47l-.37-.45,17.38-30.22c.7.34,3.59,5.05,8.66,14.1h.01Z"/>
        <path class="st27" d="M1503.1,954.01h-.46l-.37.37h-9.91l10.74,19.1h-.46l-.37.37h-15.29v14.1l-.9.82h-14.48l-.82-.82v-14.1h-16.11c.2-1.29,3.79-7.79,10.75-19.47h-10.75v-.82l24.03-40.95h.81l23.59,41.41h0ZM1455.87,947.82v.37c0,.84-1.1,3.33-3.27,7.46h7.45l.37.44c.46,1.09.88,1.64,1.27,1.64l-9.93,17.38h10.38l2.84,2.46-.82.82h-10.75v9.55l-.81.82h-9.94l-.81-.82v-9.55h-11.64l-.38-.38,7.84-13.65h-7.46l-.38-.44,17.39-30.22c.7.34,3.58,5.05,8.66,14.1v.02h0Z"/>
        <g>
          <path class="st15" d="M1447.93,732.33v8.03h-9.03v-8.03h-13.11l2.68-7.96,9.65-8.74-1.13-1.37-6.01,2.68,2.46-7.29,9.43-8.54-1.13-1.36-5.83,2.59,7.71-22.8,8.93,26.39.81,2.38-5.13-2.28-1.13,1.36,8.56,7.75,2.74,8.1-6.6-2.94-1.13,1.36,10.35,9.37-.03-.17.48,1.43h-13.55v.04h0ZM1494.63,665.47l11.15,32.64,1,2.96-6.39-2.82-1.41,1.69,10.69,9.58,3.43,10.02-8.26-3.63-1.41,1.68,12.93,11.59-.04-.19.6,1.76h-18.1v10.69h-8.93v-10.69h-17.57l3.36-9.85,12.06-10.81-1.41-1.68-7.51,3.31,3.08-9.01,11.78-10.55-1.41-1.69-7.29,3.22,9.65-28.21h0Z"/>
          <path class="st15" d="M1480.06,734.46h-8.03v6.98h8.03v-6.98h0ZM1472.46,678.56c-6.8,0-12.32,5.42-12.32,12.12,0,1.74.37,3.38,1.05,4.89-3,1.88-5,5.19-5,8.96,0,4.54,2.9,8.42,6.98,9.94-.13.61-.2,1.24-.2,1.9,0,4.23,2.98,7.78,6.97,8.75l1.75-5.15.83-2.46c3.79-11.22,7.11-21.02,10.93-32.3-2.04-3.93-6.2-6.63-10.99-6.63v-.02h0Z"/>
        </g>
        <path class="st27" d="M1755.46,339.89h-.47l-.37.37h-9.91l10.75,19.1h-.47l-.37.37h-15.29v14.1l-.9.82h-14.48l-.83-.82v-14.1h-16.11c.21-1.29,3.79-7.79,10.75-19.47h-10.75v-.82l24.03-40.95h.81l23.59,41.4h.02,0ZM1708.22,333.7v.37c0,.84-1.09,3.33-3.28,7.47h7.45l.37.44c.47,1.1.88,1.65,1.28,1.65l-9.93,17.38h10.38l2.83,2.46-.82.82h-10.74v9.55l-.82.82h-9.93l-.81-.82v-9.55h-11.64l-.37-.37,7.84-13.65h-7.46l-.37-.44,17.39-30.21c.69.34,3.58,5.04,8.65,14.1l-.02-.02h0Z"/>
        <path class="st27" d="M1015.7,339.89h-.46l-.37.37h-9.91l10.75,19.1h-.46l-.37.37h-15.29v14.1l-.9.82h-14.47l-.83-.82v-14.1h-16.11c.2-1.29,3.79-7.79,10.75-19.47h-10.75v-.82l24.03-40.95h.81l23.59,41.4h-.01ZM968.47,333.7v.37c0,.84-1.1,3.33-3.28,7.47h7.45l.37.44c.47,1.09.88,1.65,1.28,1.65l-9.93,17.38h10.38l2.83,2.46-.82.82h-10.75v9.55l-.81.82h-9.93l-.81-.82v-9.55h-11.64l-.37-.37,7.84-13.65h-7.46l-.37-.44,17.39-30.21c.69.34,3.58,5.04,8.65,14.1l-.02-.02h0Z"/>
        <g>
          <path class="st19" d="M1443.58,240.87v8.02h-9.03v-8.02h-13.12l2.69-7.96,9.65-8.74-1.13-1.37-6.01,2.69,2.46-7.29,9.43-8.54-1.13-1.36-5.83,2.59,7.71-22.8,8.93,26.4.81,2.38-5.13-2.28-1.13,1.36,8.56,7.75,2.74,8.1-6.6-2.94-1.13,1.36,10.34,9.37-.03-.17.48,1.44h-13.55.02ZM1490.28,174l11.15,32.64,1,2.96-6.39-2.82-1.41,1.69,10.69,9.59,3.43,10.02-8.25-3.63-1.41,1.68,12.93,11.59-.04-.19.6,1.76h-18.11v10.69h-8.93v-10.69h-17.57l3.36-9.84,12.05-10.82-1.4-1.68-7.51,3.31,3.07-9.01,11.78-10.55-1.41-1.69-7.29,3.21,9.65-28.21h.01Z"/>
          <path class="st11" d="M1475.71,242.99h-8.03v6.98h8.03v-6.98h0ZM1468.12,187.1c-6.8,0-12.32,5.42-12.32,12.11,0,1.74.37,3.38,1.05,4.89-3.01,1.88-5,5.19-5,8.96,0,4.54,2.9,8.42,6.98,9.94-.13.61-.21,1.24-.21,1.9,0,4.23,2.98,7.78,6.98,8.75l1.75-5.16.83-2.47c3.8-11.22,7.11-21.02,10.93-32.3-2.03-3.94-6.19-6.62-10.99-6.62h0Z"/>
        </g>
        <g>
          <path class="st15" d="M1323.91-5.77V2.26h-9.02V-5.77h-13.12l2.69-7.96,9.65-8.74-1.14-1.36-6,2.68,2.46-7.29,9.43-8.54-1.13-1.36-5.83,2.59,7.72-22.8,8.93,26.4.81,2.38-5.12-2.28-1.13,1.36,8.57,7.75,2.73,8.1-6.6-2.94-1.13,1.36,10.35,9.37-.03-.16.48,1.43h-13.57ZM1370.61-72.63l11.15,32.64,1,2.96-6.39-2.82-1.41,1.69,10.69,9.58,3.43,10.02-8.25-3.63-1.4,1.68,12.93,11.59-.04-.19.6,1.76h-18.11V3.35h-8.93V-7.35h-17.57l3.36-9.84,12.05-10.82-1.4-1.68-7.51,3.31,3.08-9.01,11.78-10.55-1.41-1.68-7.29,3.21,9.64-28.21h0Z"/>
          <path class="st15" d="M1356.04-3.64h-8.03V3.34h8.03V-3.64h0ZM1348.45-59.54c-6.8,0-12.32,5.42-12.32,12.12,0,1.74.37,3.38,1.05,4.89-3,1.88-5,5.19-5,8.95,0,4.54,2.91,8.42,6.99,9.94-.13.61-.21,1.24-.21,1.9,0,4.23,2.98,7.78,6.97,8.75l1.75-5.15.83-2.47c3.79-11.22,7.11-21.02,10.93-32.3-2.04-3.94-6.2-6.63-10.99-6.63h0Z"/>
        </g>
        <g>
          <path class="st18" d="M1565.45,334.41v32.77h-6.17v7.89h64.64v-7.89h-7.15v-32.77l-26.68-14.8-24.64,14.8h0Z"/>
          <path class="st8" d="M1605.1,309.4h8.65v9.19l16.09,9.34-3.97,6.86-35.51-20.61-34.71,21.69-4.18-6.74,36.72-22.95,2.01-1.26,2.06,1.2,12.84,7.45v-4.17h0Z"/>
          <g>
            <rect class="st26" x="1579.87" y="336.13" width="9.32" height="9.32"/>
            <rect class="st26" x="1592.9" y="336.13" width="9.32" height="9.32"/>
            <rect class="st26" x="1579.87" y="349.17" width="9.32" height="9.32"/>
            <rect class="st26" x="1592.9" y="349.17" width="9.32" height="9.32"/>
          </g>
        </g>
        <g>
          <path class="st18" d="M1324.71,457.04v32.77h-6.17v7.89h64.63v-7.89h-7.14v-32.77l-26.69-14.8-24.64,14.8h.01Z"/>
          <path class="st8" d="M1364.36,432.04h8.65v9.19l16.09,9.34-3.97,6.85-35.51-20.61-34.71,21.7-4.18-6.74,36.72-22.95,2.01-1.26,2.06,1.19,12.84,7.45v-4.18h0v.02Z"/>
          <g>
            <rect class="st26" x="1339.12" y="458.77" width="9.32" height="9.32"/>
            <rect class="st26" x="1352.15" y="458.77" width="9.32" height="9.32"/>
            <rect class="st26" x="1339.12" y="471.8" width="9.32" height="9.32"/>
            <rect class="st26" x="1352.15" y="471.8" width="9.32" height="9.32"/>
          </g>
        </g>
        <g>
          <path class="st18" d="M1197.73,211.31v32.77h-6.17v7.89h64.65v-7.89h-7.15v-32.77l-26.68-14.8-24.65,14.8h0Z"/>
          <path class="st8" d="M1237.39,186.3h8.64v9.19l16.09,9.34-3.97,6.85-35.52-20.61-34.7,21.7-4.19-6.74,36.72-22.95,2.02-1.26,2.06,1.2,12.84,7.45v-4.17h0Z"/>
          <g>
            <rect class="st26" x="1212.16" y="213.03" width="9.32" height="9.32"/>
            <rect class="st26" x="1225.19" y="213.03" width="9.32" height="9.32"/>
            <rect class="st26" x="1212.16" y="226.07" width="9.32" height="9.32"/>
            <rect class="st26" x="1225.19" y="226.07" width="9.32" height="9.32"/>
          </g>
        </g>
        <g>
          <rect class="st35" x="1448.53" y="303.22" width="42.58" height="7.7"/>
          <rect class="st35" x="1465.23" y="309.93" width="9.18" height="63.83"/>
        </g>
        <g>
          <path class="st18" d="M1081.69,85.97v32.77h-6.17v7.89h64.64v-7.89h-7.15v-32.77l-26.68-14.8-24.64,14.8h0Z"/>
          <path class="st8" d="M1121.34,60.96h8.65v9.19l16.09,9.34-3.97,6.86-35.51-20.61-34.71,21.69-4.19-6.74,36.72-22.95,2.02-1.25,2.06,1.19,12.84,7.45v-4.17h0Z"/>
          <g>
            <rect class="st26" x="1096.11" y="87.7" width="9.32" height="9.32"/>
            <rect class="st26" x="1109.14" y="87.7" width="9.32" height="9.32"/>
            <rect class="st26" x="1096.11" y="100.73" width="9.32" height="9.32"/>
            <rect class="st26" x="1109.14" y="100.73" width="9.32" height="9.32"/>
          </g>
        </g>
        <g>
          <path class="st18" d="M1075.96,333.05v32.77h-6.17v7.89h64.64v-7.89h-7.15v-32.77l-26.69-14.8-24.64,14.8h.01Z"/>
          <path class="st8" d="M1115.61,308.04h8.65v9.19l16.09,9.34-3.97,6.86-35.51-20.61-34.71,21.69-4.18-6.74,36.72-22.95,2.01-1.26,2.06,1.2,12.84,7.45v-4.17h0Z"/>
          <g>
            <rect class="st26" x="1090.38" y="334.77" width="9.32" height="9.32"/>
            <rect class="st26" x="1103.41" y="334.77" width="9.32" height="9.32"/>
            <rect class="st26" x="1090.38" y="347.81" width="9.32" height="9.32"/>
            <rect class="st26" x="1103.41" y="347.81" width="9.32" height="9.32"/>
          </g>
        </g>
        <g>
          <path class="st18" d="M704.89,333.84v32.77h-6.17v7.89h64.64v-7.89h-7.15v-32.77l-26.68-14.8-24.64,14.8h0Z"/>
          <path class="st8" d="M744.54,308.84h8.65v9.19l16.09,9.34-3.97,6.85-35.51-20.61-34.71,21.69-4.19-6.74,36.72-22.95,2.02-1.25,2.06,1.2,12.84,7.45v-4.17h0Z"/>
          <g>
            <rect class="st26" x="719.31" y="335.57" width="9.32" height="9.31"/>
            <rect class="st26" x="732.34" y="335.57" width="9.32" height="9.31"/>
            <rect class="st26" x="719.31" y="348.6" width="9.32" height="9.32"/>
            <rect class="st26" x="732.34" y="348.6" width="9.32" height="9.32"/>
          </g>
        </g>
        <g>
          <polygon class="st14" points="1191.46 -49.28 1191.46 .92 1262.94 .92 1262.94 -49.28 1227.2 -49.28 1209.77 -68.65 1191.46 -49.28"/>
          <polygon class="st18" points="1259.59 -49.28 1259.59 -1.82 1257.32 -1.82 1257.32 -3.28 1253.93 -3.28 1253.93 -6.8 1250.12 -6.8 1250.12 -24.1 1240.82 -24.1 1240.82 -6.8 1237.01 -6.8 1237.01 -3.28 1233.48 -3.28 1233.48 -1.82 1230.53 -1.82 1230.53 -49.28 1224.03 -53.09 1224.03 -1.82 1194.96 -1.82 1194.96 -53.09 1188.46 -49.28 1188.46 1.42 1188.46 4.67 1191.71 4.67 1224.03 4.67 1227.28 4.67 1230.53 4.67 1262.84 4.67 1266.09 4.67 1266.09 1.42 1266.09 -49.28 1259.59 -49.28"/>
        </g>
        <g>
          <polygon class="st14" points="948.13 -49.28 948.13 .92 1019.6 .92 1019.6 -49.28 983.87 -49.28 966.44 -68.65 948.13 -49.28"/>
          <polygon class="st18" points="1016.26 -49.28 1016.26 -1.82 1013.98 -1.82 1013.98 -3.28 1010.6 -3.28 1010.6 -6.8 1006.79 -6.8 1006.79 -24.1 997.49 -24.1 997.49 -6.8 993.67 -6.8 993.67 -3.28 990.14 -3.28 990.14 -1.82 987.19 -1.82 987.19 -49.28 980.69 -53.09 980.69 -1.82 951.62 -1.82 951.62 -53.09 945.12 -49.28 945.12 1.42 945.12 4.67 948.38 4.67 980.69 4.67 983.94 4.67 987.19 4.67 1019.51 4.67 1022.76 4.67 1022.76 1.42 1022.76 -49.28 1016.26 -49.28"/>
        </g>
        <path class="st12" d="M1465.31,319.3c0,4.64-3.76,8.4-8.39,8.4s-8.39-3.76-8.39-8.4,3.76-8.39,8.39-8.39,8.39,3.75,8.39,8.39Z"/>
        <path class="st12" d="M1491.38,319.3c0,4.64-3.75,8.4-8.39,8.4s-8.39-3.76-8.39-8.4,3.76-8.39,8.39-8.39,8.39,3.75,8.39,8.39Z"/>
        <g>
          <rect class="st35" x="953.3" y="181.58" width="42.58" height="7.7"/>
          <rect class="st35" x="970" y="188.29" width="9.18" height="63.83"/>
        </g>
        <path class="st12" d="M970.09,197.67c0,4.64-3.76,8.4-8.39,8.4s-8.39-3.76-8.39-8.4,3.76-8.39,8.39-8.39,8.39,3.75,8.39,8.39Z"/>
        <path class="st12" d="M996.15,197.67c0,4.64-3.75,8.4-8.39,8.4s-8.39-3.76-8.39-8.4,3.76-8.39,8.39-8.39,8.39,3.75,8.39,8.39Z"/>
        <g>
          <rect class="st35" x="1326.9" y="55.6" width="42.58" height="7.7"/>
          <rect class="st35" x="1343.59" y="62.31" width="9.18" height="63.83"/>
        </g>
        <path class="st12" d="M1343.68,71.69c0,4.64-3.76,8.39-8.39,8.39s-8.39-3.76-8.39-8.39,3.76-8.39,8.39-8.39,8.39,3.75,8.39,8.39Z"/>
        <path class="st12" d="M1369.74,71.69c0,4.64-3.76,8.39-8.39,8.39s-8.39-3.76-8.39-8.39,3.76-8.39,8.39-8.39,8.39,3.75,8.39,8.39Z"/>
        <g>
          <g>
            <rect class="st35" x="1200.92" y="429.2" width="42.58" height="7.7"/>
            <rect class="st35" x="1217.61" y="435.91" width="9.18" height="63.83"/>
          </g>
          <path class="st12" d="M1217.7,445.28c0,4.64-3.75,8.39-8.39,8.39s-8.39-3.76-8.39-8.39,3.76-8.39,8.39-8.39,8.39,3.75,8.39,8.39Z"/>
          <path class="st12" d="M1243.76,445.28c0,4.64-3.75,8.39-8.39,8.39s-8.39-3.76-8.39-8.39,3.76-8.39,8.39-8.39,8.39,3.75,8.39,8.39Z"/>
        </g>
        <g>
          <rect class="st24" x="578.68" y="329.45" width="62.52" height="39.33"/>
          <g>
            <rect class="st26" x="627.78" y="351.72" width="6.69" height="8.73"/>
            <rect class="st26" x="627.78" y="338.61" width="6.69" height="8.73"/>
            <polygon class="st13" points="599.8 360.44 606.5 360.45 606.5 351.72 599.8 351.71 599.8 360.44"/>
            <polygon class="st13" points="599.8 347.33 606.5 347.34 606.5 338.61 599.8 338.6 599.8 347.33"/>
            <rect class="st26" x="586.17" y="351.71" width="6.7" height="8.73"/>
            <rect class="st26" x="586.17" y="338.6" width="6.7" height="8.73"/>
          </g>
          <polygon class="st8" points="653.43 332.05 646.82 308.47 597.21 308.47 597.21 306.76 599.88 306.76 599.88 301.23 586.05 301.23 586.05 306.76 588.93 306.76 588.93 318.46 588.08 318.91 584.74 308.47 575.59 308.47 567.32 332.05 653.43 332.05"/>
          <polygon class="st18" points="646.04 332.05 639.43 332.06 639.43 366.57 622.4 366.57 622.4 351.72 612.61 351.72 612.61 366.57 580.94 366.57 580.94 332.06 574.34 332.05 574.34 366.57 572.69 366.57 572.69 374.39 574.34 374.39 577.63 374.39 642.73 374.4 646.04 374.4 647.43 374.4 647.43 366.57 646.04 366.57 646.04 332.05"/>
        </g>
        <g>
          <rect class="st24" x="333.79" y="204.67" width="62.52" height="39.34"/>
          <g>
            <rect class="st26" x="382.89" y="226.94" width="6.69" height="8.73"/>
            <rect class="st26" x="382.89" y="213.83" width="6.69" height="8.73"/>
            <polygon class="st13" points="354.92 235.66 361.62 235.67 361.62 226.94 354.92 226.93 354.92 235.66"/>
            <polygon class="st13" points="354.92 222.55 361.62 222.56 361.62 213.83 354.92 213.82 354.92 222.55"/>
            <rect class="st26" x="341.29" y="226.93" width="6.7" height="8.73"/>
            <rect class="st26" x="341.29" y="213.82" width="6.7" height="8.73"/>
          </g>
          <polygon class="st8" points="408.55 207.27 401.94 183.69 352.33 183.68 352.33 181.98 355 181.98 355 176.44 341.17 176.44 341.17 181.98 344.04 181.98 344.04 193.68 343.2 194.13 339.85 183.68 330.71 183.68 322.44 207.27 408.55 207.27"/>
          <polygon class="st18" points="401.15 207.27 394.55 207.28 394.55 241.78 377.52 241.78 377.52 226.94 367.73 226.94 367.73 241.78 336.06 241.78 336.06 207.28 329.46 207.27 329.46 241.78 327.8 241.78 327.8 249.61 329.46 249.61 332.75 249.61 397.85 249.61 401.15 249.61 402.54 249.61 402.54 241.78 401.15 241.78 401.15 207.27"/>
        </g>
        <g>
          <polygon class="st14" points="575.52 442.85 575.52 493.04 646.99 493.04 646.99 442.85 611.26 442.85 593.83 423.48 575.52 442.85"/>
          <polygon class="st13" points="587.39 468.56 587.39 478.42 591.87 478.42 591.87 468.56 587.39 468.56 587.39 468.56"/>
          <polygon class="st13" points="593.83 468.56 593.83 478.42 598.32 478.42 598.32 468.56 593.83 468.56 593.83 468.56"/>
          <polygon class="st13" points="587.39 447.05 587.39 456.9 591.87 456.9 591.87 447.05 587.39 447.05 587.39 447.05"/>
          <rect class="st26" x="593.83" y="447.05" width="4.48" height="9.86"/>
          <polygon class="st13" points="624.08 452.12 624.08 461.99 628.56 461.99 628.56 452.12 624.08 452.12 624.08 452.12"/>
          <polygon class="st13" points="630.52 452.12 630.52 461.99 635 461.99 635 452.12 630.52 452.12 630.52 452.12"/>
          <polygon class="st18" points="643.65 442.85 643.65 490.3 641.38 490.3 641.38 488.85 637.99 488.85 637.99 485.32 634.18 485.32 634.18 468.03 624.88 468.03 624.88 485.32 621.07 485.32 621.07 488.85 617.54 488.85 617.54 490.3 614.58 490.3 614.58 442.85 608.08 439.04 608.08 490.3 579.02 490.3 579.02 439.04 572.52 442.85 572.52 493.55 572.52 496.8 575.77 496.8 608.08 496.8 611.34 496.8 614.58 496.8 646.9 496.8 650.15 496.8 650.15 493.55 650.15 442.85 643.65 442.85"/>
          <polygon class="st8" points="572.52 447.31 593.55 427.64 614.58 447.62 616.88 449.91 620.56 446.24 643.65 446.24 650.15 446.24 654.13 446.24 654.98 443.09 639.82 425.86 605.88 425.86 615.29 438.3 613.53 438.3 595.17 419.95 593.55 418.25 593.52 418.3 593.38 418.16 590.01 421.51 590.01 421.51 565.78 445.79 569.92 449.91 572.52 447.31"/>
        </g>
        <g>
          <polygon class="st14" points="326.85 442.85 326.85 493.04 398.33 493.04 398.33 442.85 362.59 442.85 345.17 423.48 326.85 442.85"/>
          <polygon class="st13" points="338.72 468.56 338.72 478.42 343.2 478.42 343.2 468.56 338.72 468.56 338.72 468.56"/>
          <polygon class="st13" points="345.17 468.56 345.17 478.42 349.65 478.42 349.65 468.56 345.17 468.56 345.17 468.56"/>
          <polygon class="st13" points="338.72 447.05 338.72 456.9 343.2 456.9 343.2 447.05 338.72 447.05 338.72 447.05"/>
          <rect class="st26" x="345.17" y="447.05" width="4.48" height="9.86"/>
          <polygon class="st13" points="375.41 452.12 375.41 461.99 379.89 461.99 379.89 452.12 375.41 452.12 375.41 452.12"/>
          <polygon class="st13" points="381.85 452.12 381.85 461.99 386.34 461.99 386.34 452.12 381.85 452.12 381.85 452.12"/>
          <polygon class="st18" points="394.99 442.85 394.99 490.3 392.71 490.3 392.71 488.85 389.33 488.85 389.33 485.32 385.51 485.32 385.51 468.03 376.21 468.03 376.21 485.32 372.4 485.32 372.4 488.85 368.87 488.85 368.87 490.3 365.92 490.3 365.92 442.85 359.42 439.04 359.42 490.3 330.35 490.3 330.35 439.04 323.85 442.85 323.85 493.55 323.85 496.8 327.11 496.8 359.42 496.8 362.67 496.8 365.92 496.8 398.23 496.8 401.48 496.8 401.48 493.55 401.48 442.85 394.99 442.85"/>
          <polygon class="st8" points="323.85 447.31 344.88 427.64 365.92 447.62 368.22 449.91 371.9 446.24 394.99 446.24 401.48 446.24 405.46 446.24 406.31 443.09 391.16 425.86 357.22 425.86 366.62 438.3 364.87 438.3 346.5 419.95 344.88 418.25 344.85 418.3 344.71 418.16 341.34 421.51 341.34 421.51 317.11 445.79 321.25 449.91 323.85 447.31"/>
        </g>
        <g>
          <path class="st18" d="M648.68,199.2v51.72h-29.08v-23.99c-6.03-3.61-11.86-3.82-17.48,0v23.99h-30.48v-51.72h77.05-.01Z"/>
          <path class="st21" d="M619.6,250.91v-23.99c-6.03-3.61-11.86-3.82-17.48,0v23.99h17.48Z"/>
          <g>
            <polygon class="st13" points="639.42 226.93 628.63 226.93 628.63 239.05 626.27 239.05 626.27 241.27 641.84 241.27 641.84 239.05 639.42 239.05 639.42 226.93"/>
            <polygon class="st13" points="639.42 217.12 639.42 205 628.63 205 628.63 217.12 626.27 217.12 626.27 219.34 641.84 219.34 641.84 217.12 639.42 217.12"/>
            <polygon class="st13" points="616.09 205 605.28 205 605.28 217.12 602.94 217.12 602.94 219.34 618.51 219.34 618.51 217.12 616.09 217.12 616.09 205"/>
            <polygon class="st13" points="591.65 226.93 580.85 226.93 580.85 239.05 578.49 239.05 578.49 241.27 594.07 241.27 594.07 239.05 591.65 239.05 591.65 226.93"/>
            <polygon class="st13" points="591.65 205 580.85 205 580.85 217.12 578.49 217.12 578.49 219.34 594.07 219.34 594.07 217.12 591.65 217.12 591.65 205"/>
          </g>
          <polygon class="st8" points="654.22 199.2 647.56 183.96 573.19 183.96 565.89 199.2 654.22 199.2"/>
        </g>
        <g>
          <path class="st18" d="M525.64,441.67v55.58h-31.27v-25.78c-6.47-3.87-12.74-4.1-18.78,0v25.78h-32.77v-55.58h82.82Z"/>
          <path class="st21" d="M494.37,497.25v-25.78c-6.47-3.87-12.74-4.1-18.78,0v25.78h18.78Z"/>
          <g>
            <polygon class="st13" points="515.68 471.47 504.09 471.47 504.09 484.51 501.55 484.51 501.55 486.89 518.29 486.89 518.29 484.51 515.68 484.51 515.68 471.47"/>
            <polygon class="st13" points="515.68 460.93 515.68 447.91 504.09 447.91 504.09 460.93 501.55 460.93 501.55 463.32 518.29 463.32 518.29 460.93 515.68 460.93"/>
            <polygon class="st0" points="490.61 447.91 478.99 447.91 478.99 460.93 476.47 460.93 476.47 463.32 493.21 463.32 493.21 460.93 490.61 460.93 490.61 447.91"/>
            <polygon class="st13" points="464.33 471.47 452.73 471.47 452.73 484.51 450.2 484.51 450.2 486.89 466.94 486.89 466.94 484.51 464.33 484.51 464.33 471.47"/>
            <polygon class="st13" points="464.33 447.91 452.73 447.91 452.73 460.93 450.2 460.93 450.2 463.32 466.94 463.32 466.94 460.93 464.33 460.93 464.33 447.91"/>
          </g>
          <polygon class="st8" points="531.6 441.67 524.43 425.29 444.5 425.29 436.65 441.67 531.6 441.67"/>
        </g>
        <path class="st10" d="M499.61,450.13v2.47h1.65c1.99,0,3.81.81,5.11,2.13,1.31,1.3,2.13,3.12,2.13,5.11v8.78c0,1.99-.82,3.8-2.13,5.11-1.3,1.31-3.12,2.12-5.11,2.12h-1.65v1.08c0,1.63-.65,3.11-1.73,4.17h0c-1.07,1.07-2.55,1.73-4.16,1.73h-19.31c-1.62,0-3.08-.66-4.16-1.73h0c-1.07-1.08-1.73-2.55-1.73-4.17v-29.08h31.1v2.29h-.01,0ZM488.58,456.54v16.83h1.94v-16.83h-1.94ZM482.94,456.54v16.83h1.93v-16.83h-1.93ZM477.14,456.54v16.83h1.94v-16.83h-1.94ZM468.94,446.14c-1.16-1.62-1.7-3.05-1.64-5.12.04-1.32.41-2.61,1.1-3.72.7-1.13,1.72-2.06,3.05-2.63,1.57-.68,3.55-.86,5.9-.25.66-.64,1.41-1.16,2.24-1.53,1.29-.58,2.74-.81,4.14-.63,1.47.2,2.89.84,4.03,2,.3.31.59.65.84,1.03.55-.23,1.12-.38,1.68-.47,1.69-.27,3.36.06,4.82.88,1.41.79,2.63,2.02,3.48,3.62.95,1.8,1.46,4.13,1.22,6.69h-5.03c.18-1.94-.23-4.65-2.08-5.67-.5-.28-1.06-.4-1.63-.3-.62.1-1.26.43-1.88,1.04l-4.25-1.42c-.14-.76-.41-1.3-.75-1.65-.31-.3-.69-.48-1.1-.53-.47-.06-.99.03-1.47.24-.5.22-.92.59-1.19,1.06l-1.08,1.96-2.04-.81c-1.77-.71-3.05-.75-3.89-.38-.34.15-.6.37-.76.64-.87,1.39,1.52,4.94,2.42,5.86l-6.14.11h0v-.02h.01ZM499.61,458.81v10.82h1.65c.28,0,.53-.12.72-.3s.3-.44.3-.72v-8.78c0-.28-.11-.53-.3-.72s-.44-.31-.72-.31h-1.65ZM495.03,476.92v-24.51h-21.95v24.51c0,.37.14.71.38.94h0c.23.24.57.39.93.39h19.31c.36,0,.7-.14.93-.38h0c.24-.25.38-.58.38-.94h.02Z"/>
        <path class="st25" d="M342.22,316.24h.52l10.64,15.06h1.83v.52c-6.22,10-9.59,15.18-10.11,15.57h-2.87l-.53-.52v-30.1l.53-.53h-.01ZM345.85,316.24h38.91l.28.28h.24c-5.18,8-8.12,12.23-8.8,12.7h-22.58l-8.57-12.46.52-.53h0ZM358.03,331.29h15.05l10.11,15.82-.24.28h-34.77l-.53-.53c6.28-9.81,9.73-15,10.37-15.57h.01ZM388.38,316.24h1.32l.51.53v30.1l-.51.53h-3.91c-6.74-10.04-10.12-15.41-10.12-16.1h2.07l10.64-15.06h0Z"/>
        <g>
          <rect class="st24" x="453.58" y="82.04" width="62.52" height="39.33"/>
          <g>
            <rect class="st26" x="502.68" y="104.3" width="6.69" height="8.73"/>
            <rect class="st26" x="502.68" y="91.19" width="6.69" height="8.73"/>
            <polygon class="st13" points="474.71 113.02 481.42 113.03 481.42 104.3 474.71 104.29 474.71 113.02"/>
            <polygon class="st13" points="474.71 99.91 481.42 99.92 481.42 91.19 474.71 91.18 474.71 99.91"/>
            <rect class="st26" x="461.08" y="104.29" width="6.69" height="8.73"/>
            <rect class="st26" x="461.08" y="91.18" width="6.69" height="8.73"/>
          </g>
          <polygon class="st8" points="528.34 84.63 521.73 61.05 472.13 61.05 472.13 59.35 474.78 59.35 474.78 53.82 460.95 53.82 460.95 59.35 463.83 59.35 463.83 71.04 462.99 71.5 459.64 61.05 450.49 61.05 442.24 84.63 528.34 84.63"/>
          <polygon class="st18" points="520.94 84.63 514.34 84.65 514.34 119.16 497.3 119.16 497.3 104.3 487.52 104.3 487.52 119.16 455.84 119.15 455.84 84.64 449.24 84.63 449.24 119.15 447.59 119.15 447.59 126.97 449.24 126.97 452.54 126.97 517.64 126.98 520.94 126.98 522.34 126.98 522.34 119.16 520.94 119.16 520.94 84.63"/>
        </g>
        <g>
          <polygon class="st14" points="1187.19 321.94 1187.19 372.13 1258.66 372.13 1258.66 321.94 1222.93 321.94 1205.5 302.57 1187.19 321.94"/>
          <polygon class="st13" points="1199.06 347.65 1199.06 357.51 1203.54 357.51 1203.54 347.65 1199.06 347.65 1199.06 347.65"/>
          <polygon class="st13" points="1205.5 347.65 1205.5 357.51 1209.99 357.51 1209.99 347.65 1205.5 347.65 1205.5 347.65"/>
          <polygon class="st13" points="1199.06 326.14 1199.06 336 1203.54 336 1203.54 326.14 1199.06 326.14 1199.06 326.14"/>
          <rect class="st26" x="1205.5" y="326.14" width="4.49" height="9.86"/>
          <polygon class="st13" points="1235.74 331.21 1235.74 341.08 1240.23 341.08 1240.23 331.21 1235.74 331.21 1235.74 331.21"/>
          <polygon class="st13" points="1242.18 331.21 1242.18 341.08 1246.66 341.08 1246.66 331.21 1242.18 331.21 1242.18 331.21"/>
          <polygon class="st18" points="1255.32 321.94 1255.32 369.39 1253.05 369.39 1253.05 367.93 1249.66 367.93 1249.66 364.41 1245.84 364.41 1245.84 347.12 1236.54 347.12 1236.54 364.41 1232.74 364.41 1232.74 367.93 1229.2 367.93 1229.2 369.39 1226.25 369.39 1226.25 321.94 1219.75 318.13 1219.75 369.39 1190.68 369.39 1190.68 318.13 1184.18 321.94 1184.18 372.64 1184.18 375.89 1187.44 375.89 1219.75 375.89 1223 375.89 1226.25 375.89 1258.57 375.89 1261.82 375.89 1261.82 372.64 1261.82 321.94 1255.32 321.94"/>
          <polygon class="st8" points="1184.18 326.39 1205.22 306.73 1226.25 326.71 1228.55 329 1232.23 325.33 1255.32 325.33 1261.82 325.33 1265.8 325.33 1266.65 322.18 1251.49 304.95 1217.55 304.95 1226.96 317.39 1225.2 317.39 1206.84 299.04 1205.22 297.34 1205.19 297.39 1205.05 297.25 1201.68 300.6 1201.67 300.6 1177.45 324.87 1181.59 329 1184.18 326.39"/>
        </g>
        <g>
          <path class="st18" d="M1508.44,445.19v51.71h-29.09v-23.99c-6.02-3.6-11.86-3.81-17.48,0v23.99h-30.48v-51.71h77.05,0Z"/>
          <path class="st21" d="M1479.36,496.91v-23.99c-6.02-3.6-11.86-3.81-17.48,0v23.99h17.48Z"/>
          <g>
            <polygon class="st13" points="1499.18 472.92 1488.39 472.92 1488.39 485.04 1486.04 485.04 1486.04 487.26 1501.6 487.26 1501.6 485.04 1499.18 485.04 1499.18 472.92"/>
            <polygon class="st13" points="1499.18 463.11 1499.18 450.99 1488.39 450.99 1488.39 463.11 1486.04 463.11 1486.04 465.34 1501.6 465.34 1501.6 463.11 1499.18 463.11"/>
            <polygon class="st13" points="1475.85 450.99 1465.05 450.99 1465.05 463.11 1462.7 463.11 1462.7 465.34 1478.27 465.34 1478.27 463.11 1475.85 463.11 1475.85 450.99"/>
            <polygon class="st13" points="1451.4 472.92 1440.61 472.92 1440.61 485.04 1438.25 485.04 1438.25 487.26 1453.83 487.26 1453.83 485.04 1451.4 485.04 1451.4 472.92"/>
            <polygon class="st13" points="1451.4 450.99 1440.61 450.99 1440.61 463.11 1438.25 463.11 1438.25 465.34 1453.83 465.34 1453.83 463.11 1451.4 463.11 1451.4 450.99"/>
          </g>
          <polygon class="st8" points="1513.98 445.19 1507.32 429.95 1432.95 429.95 1425.65 445.19 1513.98 445.19"/>
        </g>
        <g>
          <polygon class="st14" points="330.64 813.23 330.64 863.42 402.11 863.42 402.11 813.23 366.38 813.23 348.95 793.86 330.64 813.23"/>
          <polygon class="st13" points="342.51 838.94 342.51 848.8 346.99 848.8 346.99 838.94 342.51 838.94 342.51 838.94"/>
          <polygon class="st13" points="348.95 838.94 348.95 848.8 353.44 848.8 353.44 838.94 348.95 838.94 348.95 838.94"/>
          <polygon class="st13" points="342.51 817.43 342.51 827.29 346.99 827.29 346.99 817.43 342.51 817.43 342.51 817.43"/>
          <rect class="st26" x="348.95" y="817.43" width="4.48" height="9.86"/>
          <polygon class="st13" points="379.2 822.5 379.2 832.37 383.67 832.37 383.67 822.5 379.2 822.5 379.2 822.5"/>
          <polygon class="st13" points="385.63 822.5 385.63 832.37 390.12 832.37 390.12 822.5 385.63 822.5 385.63 822.5"/>
          <polygon class="st18" points="398.77 813.23 398.77 860.68 396.5 860.68 396.5 859.23 393.11 859.23 393.11 855.7 389.3 855.7 389.3 838.41 380 838.41 380 855.7 376.18 855.7 376.18 859.23 372.65 859.23 372.65 860.68 369.7 860.68 369.7 813.23 363.2 809.42 363.2 860.68 334.13 860.68 334.13 809.42 327.64 813.23 327.64 863.93 327.64 867.19 330.89 867.19 363.2 867.19 366.46 867.19 369.7 867.19 402.02 867.19 405.27 867.19 405.27 863.93 405.27 813.23 398.77 813.23"/>
          <polygon class="st8" points="327.64 817.69 348.67 798.02 369.7 818 372 820.29 375.68 816.62 398.77 816.62 405.27 816.62 409.25 816.62 410.1 813.47 394.94 796.24 361 796.24 370.41 808.68 368.65 808.68 350.29 790.33 348.67 788.63 348.63 788.68 348.5 788.54 345.13 791.89 345.13 791.89 320.9 816.17 325.04 820.29 327.64 817.69"/>
        </g>
        <g>
          <rect class="st24" x="205.44" y="822.68" width="62.52" height="39.33"/>
          <g>
            <rect class="st26" x="254.54" y="844.94" width="6.69" height="8.73"/>
            <rect class="st26" x="254.54" y="831.84" width="6.69" height="8.73"/>
            <rect class="st26" x="225.59" y="845.98" width="8.73" height="6.7" transform="translate(-619.7 1078.1) rotate(-89.92)"/>
            <polygon class="st13" points="226.58 840.56 233.28 840.57 233.28 831.84 226.58 831.83 226.58 840.56"/>
            <rect class="st26" x="212.94" y="844.93" width="6.69" height="8.73"/>
            <rect class="st26" x="212.94" y="831.83" width="6.69" height="8.73"/>
          </g>
          <polygon class="st8" points="280.2 825.28 273.59 801.7 223.99 801.69 223.99 799.98 226.64 799.98 226.64 794.45 212.81 794.45 212.81 799.98 215.69 799.98 215.69 811.68 214.85 812.13 211.5 801.69 202.35 801.69 194.1 825.28 280.2 825.28"/>
          <polygon class="st18" points="272.8 825.28 266.2 825.29 266.2 859.79 249.16 859.79 249.16 844.94 239.38 844.94 239.38 859.79 207.71 859.79 207.71 825.29 201.1 825.28 201.1 859.79 199.45 859.79 199.45 867.61 201.1 867.61 204.41 867.61 269.5 867.62 272.8 867.62 274.2 867.62 274.2 859.79 272.8 859.79 272.8 825.28"/>
        </g>
        <path class="st27" d="M402.8,953.92h-.46l-.37.37h-9.91l10.74,19.1h-.46l-.37.37h-15.29v14.1l-.9.82h-14.47l-.82-.82v-14.1h-16.11c.2-1.29,3.79-7.79,10.75-19.47h-10.75v-.83l24.03-40.95h.81l23.59,41.4h-.01ZM355.57,947.73v.37c0,.84-1.09,3.33-3.27,7.46h7.45l.37.44c.46,1.09.87,1.65,1.27,1.65l-9.93,17.39h10.38l2.83,2.45-.82.82h-10.74v9.55l-.82.82h-9.94l-.81-.82v-9.55h-11.64l-.37-.37,7.84-13.65h-7.47l-.37-.44,17.38-30.22c.7.34,3.58,5.04,8.65,14.1h.01Z"/>
        <g>
          <path class="st18" d="M271.9,938.17v51.72h-29.09v-23.99c-6.02-3.6-11.85-3.81-17.48,0v23.99h-30.49v-51.72h77.06Z"/>
          <path class="st21" d="M242.81,989.89v-23.99c-6.02-3.6-11.85-3.81-17.48,0v23.99h17.48Z"/>
          <g>
            <polygon class="st13" points="262.63 965.9 251.85 965.9 251.85 978.03 249.49 978.03 249.49 980.24 265.06 980.24 265.06 978.03 262.63 978.03 262.63 965.9"/>
            <polygon class="st13" points="262.63 956.1 262.63 943.97 251.85 943.97 251.85 956.1 249.49 956.1 249.49 958.32 265.06 958.32 265.06 956.1 262.63 956.1"/>
            <polygon class="st13" points="239.31 943.97 228.5 943.97 228.5 956.1 226.16 956.1 226.16 958.32 241.73 958.32 241.73 956.1 239.31 956.1 239.31 943.97"/>
            <polygon class="st13" points="214.87 965.9 204.07 965.9 204.07 978.03 201.71 978.03 201.71 980.24 217.29 980.24 217.29 978.03 214.87 978.03 214.87 965.9"/>
            <polygon class="st13" points="214.87 943.97 204.07 943.97 204.07 956.1 201.71 956.1 201.71 958.32 217.29 958.32 217.29 956.1 214.87 956.1 214.87 943.97"/>
          </g>
          <polygon class="st8" points="277.44 938.17 270.78 922.93 196.41 922.93 189.11 938.17 277.44 938.17"/>
        </g>
        <g>
          <rect class="st24" x="1320.45" y="574" width="62.52" height="39.33"/>
          <g>
            <rect class="st26" x="1369.55" y="596.26" width="6.69" height="8.73"/>
            <rect class="st26" x="1369.55" y="583.15" width="6.69" height="8.73"/>
            <polygon class="st13" points="1341.58 604.98 1348.29 604.99 1348.29 596.26 1341.58 596.25 1341.58 604.98"/>
            <rect class="st26" x="1340.61" y="584.19" width="8.73" height="6.7" transform="translate(755.56 1931.69) rotate(-89.92)"/>
            <rect class="st26" x="1327.95" y="596.25" width="6.7" height="8.73"/>
            <rect class="st26" x="1327.95" y="583.14" width="6.7" height="8.73"/>
          </g>
          <polygon class="st8" points="1395.21 576.59 1388.6 553.02 1339 553.01 1339 551.31 1341.65 551.31 1341.65 545.78 1327.83 545.78 1327.83 551.31 1330.7 551.31 1330.7 563 1329.86 563.46 1326.51 553.01 1317.36 553.01 1309.1 576.59 1395.21 576.59"/>
          <polygon class="st18" points="1387.81 576.59 1381.21 576.61 1381.21 611.12 1364.17 611.12 1364.17 596.26 1354.39 596.26 1354.39 611.12 1322.72 611.11 1322.72 576.6 1316.12 576.59 1316.12 611.11 1314.46 611.11 1314.46 618.93 1316.12 618.93 1319.41 618.93 1384.51 618.94 1387.81 618.94 1389.21 618.94 1389.21 611.12 1387.81 611.12 1387.81 576.59"/>
        </g>
        <g>
          <rect class="st24" x="1320.45" y="328.99" width="62.52" height="39.34"/>
          <g>
            <rect class="st26" x="1369.55" y="351.25" width="6.69" height="8.73"/>
            <rect class="st26" x="1369.55" y="338.14" width="6.69" height="8.73"/>
            <polygon class="st13" points="1341.58 359.97 1348.29 359.98 1348.29 351.25 1341.58 351.24 1341.58 359.97"/>
            <polygon class="st13" points="1341.58 346.87 1348.29 346.87 1348.29 338.14 1341.58 338.14 1341.58 346.87"/>
            <rect class="st26" x="1327.95" y="351.24" width="6.7" height="8.73"/>
            <rect class="st26" x="1327.95" y="338.14" width="6.7" height="8.73"/>
          </g>
          <polygon class="st8" points="1395.21 331.59 1388.6 308.01 1339 308 1339 306.3 1341.65 306.3 1341.65 300.77 1327.83 300.77 1327.83 306.3 1330.7 306.3 1330.7 317.99 1329.86 318.45 1326.51 308 1317.36 308 1309.1 331.59 1395.21 331.59"/>
          <polygon class="st18" points="1387.81 331.59 1381.21 331.6 1381.21 366.11 1364.17 366.11 1364.17 351.25 1354.39 351.25 1354.39 366.11 1322.72 366.1 1322.72 331.59 1316.12 331.59 1316.12 366.1 1314.46 366.1 1314.46 373.92 1316.12 373.92 1319.41 373.92 1384.51 373.93 1387.81 373.93 1389.21 373.93 1389.21 366.11 1387.81 366.11 1387.81 331.59"/>
        </g>
        <path class="st12" d="M635.66,621.03c0,12.24-43.98,22.17-98.25,22.17s-98.25-9.93-98.25-22.17,43.99-22.17,98.25-22.17,98.25,9.92,98.25,22.17Z"/>
        <path class="st12" d="M563.93,249.61c0,9.67-34.33,17.51-76.68,17.51s-76.68-7.83-76.68-17.51,34.33-17.5,76.68-17.5,76.68,7.84,76.68,17.5Z"/>
        <path class="st29" d="M685.44,645.93c-70.28-25.81-141.76-23.93-171.95-23.93-36.08,0-65.2,2.51-98.69,13.94-14.56,49.28-21.33,76.75-54.28,120.54,50.53-15.92,77.78-9.73,142.94-32.18,32.22-11.1,37.68-4.76,98.56-48.13,25.7-18.31,69.14-15.61,83.42-30.24h0Z"/>
        <g>
          <path class="st22" d="M518.61,595.4h-9.41v2.08h9.41v-2.08h0ZM518.61,599.72h-9.41v2.08h9.41v-2.08h0ZM518.61,604.26h-9.41v2.08h9.41v-2.08h0ZM536.36,583.35h-11.61v2.08h11.61v-2.08h0ZM536.36,587.9h-11.61v2.08h11.61v-2.08h0ZM536.36,592.22h-11.61v2.08h11.61v-2.08h0ZM536.36,596.77h-11.61v2.09h11.61v-2.09h0ZM568.55,577.55h-11.62v2.08h11.62v-2.08h0ZM568.55,582.09h-11.62v2.08h11.62v-2.08h0ZM568.55,586.42h-11.62v2.08h11.62v-2.08h0ZM568.55,590.96h-11.62v2.09h11.62v-2.09h0ZM518.61,590.85h-9.41v2.08h9.41v-2.08h0ZM574.37,612.02h1.44v5.31h-72.36v-5.31h1.92v-24.89h13.36v-7.23h17.73v-7.66h37.9v39.78h.01,0Z"/>
          <g>
            <rect class="st35" x="466.51" y="546.79" width="42.57" height="7.7"/>
            <rect class="st35" x="483.2" y="553.5" width="9.19" height="63.83"/>
          </g>
        </g>
        <path class="st5" d="M414.8,630.36c103.48-10.15,159.58-22.83,275.86,17.35"/>
        <path class="st36" d="M760.73,636.32c-180.65,2.48-236.41,99.58-341.22,105.6h565.7c-55.22-48.76-120.24-107.02-224.48-105.6Z"/>
        <g>
          <path class="st19" d="M959.56,733.76v8.03h-9.03v-8.03h-13.11l2.69-7.96,9.65-8.74-1.13-1.37-6.01,2.68,2.46-7.29,9.43-8.54-1.13-1.36-5.83,2.59,7.71-22.8,8.93,26.39.81,2.38-5.12-2.28-1.13,1.36,8.56,7.75,2.74,8.1-6.6-2.94-1.13,1.36,10.35,9.37-.04-.17.49,1.43h-13.55v.04h-.01ZM1006.26,666.89l11.15,32.64,1,2.96-6.39-2.82-1.41,1.69,10.69,9.58,3.43,10.02-8.25-3.63-1.41,1.68,12.93,11.59-.04-.19.6,1.76h-18.11v10.7h-8.93v-10.7h-17.57l3.36-9.84,12.06-10.82-1.41-1.68-7.51,3.31,3.08-9.01,11.78-10.55-1.41-1.69-7.28,3.22,9.64-28.21h0Z"/>
          <path class="st11" d="M991.69,735.88h-8.03v6.98h8.03v-6.98h0ZM984.1,679.99c-6.8,0-12.32,5.42-12.32,12.12,0,1.73.37,3.38,1.04,4.89-3,1.88-5,5.19-5,8.95,0,4.54,2.9,8.43,6.98,9.94-.12.61-.2,1.24-.2,1.9,0,4.24,2.98,7.78,6.97,8.75l1.75-5.15.83-2.46c3.79-11.22,7.11-21.01,10.93-32.3-2.04-3.94-6.19-6.63-10.99-6.63h.01Z"/>
        </g>
        <path class="st12" d="M1375.17,863.25c0,12.24-43.99,22.17-98.25,22.17s-98.25-9.93-98.25-22.17,43.99-22.17,98.25-22.17,98.25,9.92,98.25,22.17Z"/>
        <polyline class="st4" points="1378.36 770.17 1312.08 898.94 1302.08 918.38"/>
        <line class="st4" x1="1398.01" y1="770.17" x2="1322.81" y2="916.27"/>
        <path class="st22" d="M1254.61,841.33h-9.42v2.09h9.42v-2.09h0ZM1254.61,845.66h-9.42v2.08h9.42v-2.08h0ZM1254.61,850.19h-9.42v2.08h9.42v-2.08h0ZM1272.35,829.29h-11.6v2.08h11.6v-2.08h0ZM1272.35,833.83h-11.6v2.08h11.6v-2.08h0ZM1272.35,838.15h-11.6v2.08h11.6v-2.08h0ZM1272.35,842.71h-11.6v2.09h11.6v-2.09h0ZM1304.56,823.49h-11.62v2.08h11.62v-2.08h0ZM1304.56,828.03h-11.62v2.08h11.62v-2.08h0ZM1304.56,832.35h-11.62v2.08h11.62v-2.08h0ZM1304.56,836.89h-11.62v2.09h11.62v-2.09h0ZM1254.61,836.78h-9.42v2.08h9.42v-2.08h0ZM1310.37,857.95h1.44v5.31h-72.36v-5.31h1.93v-24.89h13.36v-7.23h17.73v-7.67h37.9v39.79h0Z"/>
        <path class="st29" d="M1567.92,744.71h-126.15c-36.08,0-87.61,12.56-115.12,28.05-27.5,15.5-20.55,28.06,15.52,28.06h126.16c36.08,0,87.62-12.56,115.12-28.06,27.5-15.49,20.55-28.05-15.53-28.05Z"/>
        <g>
          <rect class="st35" x="1202.51" y="792.72" width="42.58" height="7.7"/>
          <polygon class="st16" points="1228.39 799.43 1228.39 863.26 1219.21 863.26 1219.21 799.42 1228.39 799.43"/>
        </g>
        <g>
          <path class="st29" d="M1347.91,917.61c-70.29,25.81-77.47,37.49-107.66,37.49-36.08,0-77.57,13.89-134.42,8.63-19.83-36.53-205.96-58.54-227.49-80.63,102.48,23.54,312.45,12.89,399.21,16.92,31.53,1.47,56.07,2.95,70.36,17.59h0Z"/>
          <polygon class="st39" points="1164.4 969.44 1337.9 925.45 1318.75 986.13 1246.94 1004.73 1164.4 969.44"/>
          <path class="st5" d="M1356.62,913.13c-90.87,40.76-149.46,60.39-271.99,49.22"/>
          <path class="st33" d="M1261,972.8c1.02,1.84.73,4.6-.86,8.33-.13,1,0,1.89.43,2.65.45.79,2.44,1.58,6.03,2.37,1.57.6,2.63,1.42,3.17,2.4l.66,1.18c1.02,1.83.73,4.6-.86,8.33-.13,1.01,0,1.89.44,2.65.39.71,1.81,1.39,4.29,2.05l.62.68c.23,1.79-.69,3.27-2.77,4.42-2.95,1.65-6.21.77-9.82-2.63l-.21-.39c-1.17-2.1-.93-5.12.71-9.03l-.2-2.22c-.66-1.19-2.92-2.11-6.76-2.76-1.66-1.11-2.73-2.08-3.2-2.93-1.17-2.09-.93-5.1.71-9.01l-.19-2.22c-.6-1.09-2.07-1.84-4.39-2.28l-.65-.66c-.62-1.13.03-2.45,1.96-3.98l1.4-.77c2.42-1.35,5.31-.53,8.69,2.44l.78,1.39h.02,0Z"/>
          <path class="st33" d="M1281.24,967.74c1.02,1.84.72,4.61-.86,8.33-.13,1,0,1.89.43,2.65.44.79,2.45,1.58,6.04,2.36,1.56.61,2.63,1.42,3.17,2.4l.66,1.18c1.01,1.83.73,4.61-.86,8.33-.13,1,0,1.89.44,2.65.39.7,1.82,1.39,4.29,2.05l.61.68c.24,1.79-.68,3.26-2.76,4.42-2.95,1.65-6.21.76-9.82-2.64l-.21-.39c-1.18-2.1-.94-5.11.71-9.02l-.19-2.22c-.67-1.2-2.92-2.11-6.76-2.76-1.66-1.11-2.73-2.08-3.2-2.95-1.17-2.09-.93-5.1.7-9.01l-.19-2.23c-.6-1.07-2.06-1.83-4.38-2.28l-.64-.66c-.63-1.12.02-2.44,1.95-3.97l1.4-.77c2.42-1.35,5.31-.53,8.69,2.44l.78,1.4h0Z"/>
          <path class="st33" d="M1302.23,962.12c1.02,1.84.72,4.61-.86,8.33-.13,1.01,0,1.89.42,2.65.45.79,2.45,1.58,6.03,2.37,1.57.6,2.63,1.42,3.17,2.4l.66,1.18c1.02,1.83.73,4.61-.86,8.33-.13,1,.01,1.89.44,2.65.39.7,1.82,1.39,4.29,2.05l.61.68c.23,1.79-.68,3.26-2.76,4.42-2.95,1.65-6.21.76-9.82-2.64l-.21-.39c-1.18-2.1-.94-5.11.71-9.02l-.19-2.22c-.67-1.2-2.92-2.11-6.76-2.76-1.66-1.11-2.73-2.08-3.19-2.95-1.17-2.1-.94-5.1.7-9.01l-.19-2.22c-.6-1.08-2.06-1.83-4.39-2.29l-.64-.66c-.63-1.12.02-2.44,1.96-3.97l1.4-.77c2.42-1.35,5.31-.53,8.68,2.43l.78,1.4h.02,0Z"/>
        </g>
        <rect class="st35" x="451.1" y="410.36" width="6.39" height="15.98"/>
        <rect class="st35" x="385.57" y="292.08" width="3.2" height="17.58"/>
        <path class="st23" d="M546.04,185.39v-31.4s-10.64-.98-23.77-1.9v-3.76l2.64-7.58v-2.64h-22.44c-3.82-1.25-9.19-2.05-15.17-2.05s-11.34.8-15.16,2.05h-22.9v2.8l3.18,6.74v4.53c-12.82.89-23.38,1.81-23.38,1.81v31.42h-4.51v64.36h124.49v-64.38h-2.99.01Z"/>
        <line class="st6" x1="487.84" y1="262.03" x2="470.76" y2="297.25"/>
        <path class="st6" d="M973.79,180.77c105.02,134.81,247.89,247.16,247.89,247.16"/>
        <g>
          <path class="st2" d="M507.19,299.59c.71-.11,1.43-.22,2.14-.32"/>
          <path class="st7" d="M513.64,298.61c180.63-27.72,362.21-77.03,460.16-117.84,206.99-35.5,345.38-110.89,369.43-124.66"/>
          <path class="st2" d="M1345.1,55.02c1.24-.72,1.86-1.1,1.86-1.1,0,0,.2.71.61,2.07"/>
          <path class="st1" d="M1348.85,60.12c8.47,27.11,45.79,138.25,116.74,237.71"/>
          <path class="st2" d="M1466.85,299.59c.42.59.84,1.17,1.27,1.76"/>
        </g>
        <path class="st35" d="M508.68,361.82l-7.85-48.07,10.61-5.32,1.92-.96v-8.77h-14.97l-1.15-7.04-.46-2.89h-18.2l-.47,2.89-1.15,7.04h-15.53v8.79l1.93.94,11.11,5.46-7.82,47.92h-13.42v11.55h68.08v-11.55h-12.63,0ZM477.35,338.82l1.04-6.34h13.37l-14.41,6.34h0ZM497.05,333.21l1.22,7.48h-18.22l17-7.48ZM476.6,343.48h16.32l-17.34,6.29,1.03-6.29h-.01ZM498.86,344.29l1.12,6.89h-20.16l19.04-6.89h0ZM496.48,329.69h-15.82l14.73-6.67,1.09,6.67ZM479.13,327.98l.97-5.99h12.26l-13.23,5.99ZM494.86,319.8h-10.33l9.62-4.36.71,4.36ZM501.79,305.59l-2.12,1.05-.17-1.05h2.29ZM484.41,295.66h6.51l.49,3.03h-7.49l.49-3.03ZM482.78,305.59h9.75l.42,2.54h-10.58l.41-2.54h0ZM489.77,315.02l-9.21,4.17.68-4.17h8.53ZM473.11,305.59h2.71l-.2,1.23-2.51-1.23h0ZM473.81,360.57l1.08-6.59h19.52l-20.69,6.99.09-.4h0ZM479.91,361.82l20.68-6.98,1.14,6.98h-21.82Z"/>
        <path class="st3" d="M501.22,545.78c13.48-116.58,2.24-254.28,2.24-254.28,0,0,300.42,265.98,708.7,501.22"/>
        <polyline class="st6" points="389.01 289.16 470.76 297.25 453.4 408.85"/>
        <g>
          <path class="st18" d="M161.43,812.8v51.72h-29.08v-23.99c-6.02-3.6-11.86-3.81-17.48,0v23.99h-30.49v-51.72h77.05Z"/>
          <path class="st21" d="M132.34,864.51v-23.99c-6.02-3.6-11.86-3.81-17.48,0v23.99h17.48Z"/>
          <g>
            <polygon class="st13" points="152.16 840.52 141.38 840.52 141.38 852.65 139.02 852.65 139.02 854.87 154.59 854.87 154.59 852.65 152.16 852.65 152.16 840.52"/>
            <polygon class="st13" points="152.16 830.72 152.16 818.6 141.38 818.6 141.38 830.72 139.02 830.72 139.02 832.94 154.59 832.94 154.59 830.72 152.16 830.72"/>
            <polygon class="st13" points="128.84 818.6 118.03 818.6 118.03 830.72 115.68 830.72 115.68 832.94 131.26 832.94 131.26 830.72 128.84 830.72 128.84 818.6"/>
            <polygon class="st13" points="104.39 840.52 93.59 840.52 93.59 852.65 91.23 852.65 91.23 854.87 106.82 854.87 106.82 852.65 104.39 852.65 104.39 840.52"/>
            <polygon class="st13" points="104.39 818.6 93.59 818.6 93.59 830.72 91.23 830.72 91.23 832.94 106.82 832.94 106.82 830.72 104.39 830.72 104.39 818.6"/>
          </g>
          <polygon class="st8" points="166.97 812.8 160.31 797.56 85.93 797.56 78.63 812.8 166.97 812.8"/>
        </g>
        <g>
          <polygon class="st14" points="83.92 933.19 83.92 983.38 155.39 983.38 155.39 933.19 119.65 933.19 102.23 913.82 83.92 933.19"/>
          <polygon class="st13" points="95.79 958.9 95.79 968.76 100.27 968.76 100.27 958.9 95.79 958.9 95.79 958.9"/>
          <polygon class="st13" points="102.23 958.9 102.23 968.76 106.71 968.76 106.71 958.9 102.23 958.9 102.23 958.9"/>
          <polygon class="st13" points="95.79 937.39 95.79 947.25 100.27 947.25 100.27 937.39 95.79 937.39 95.79 937.39"/>
          <rect class="st26" x="102.23" y="937.39" width="4.48" height="9.86"/>
          <polygon class="st13" points="132.47 942.46 132.47 952.33 136.95 952.33 136.95 942.46 132.47 942.46 132.47 942.46"/>
          <polygon class="st13" points="138.91 942.46 138.91 952.33 143.4 952.33 143.4 942.46 138.91 942.46 138.91 942.46"/>
          <polygon class="st18" points="152.05 933.19 152.05 980.65 149.77 980.65 149.77 979.18 146.39 979.18 146.39 975.66 142.57 975.66 142.57 958.37 133.27 958.37 133.27 975.66 129.46 975.66 129.46 979.18 125.93 979.18 125.93 980.65 122.98 980.65 122.98 933.19 116.48 929.38 116.48 980.65 87.41 980.65 87.41 929.38 80.91 933.19 80.91 983.89 80.91 987.14 84.17 987.14 116.48 987.14 119.73 987.14 122.98 987.14 155.3 987.14 158.55 987.14 158.55 983.89 158.55 933.19 152.05 933.19"/>
          <polygon class="st8" points="80.91 937.64 101.95 917.98 122.98 937.96 125.28 940.25 128.96 936.58 152.05 936.58 158.55 936.58 162.53 936.58 163.37 933.43 148.22 916.2 114.28 916.2 123.68 928.64 121.93 928.64 103.56 910.29 101.95 908.59 101.91 908.64 101.78 908.49 98.41 911.84 98.4 911.84 74.18 936.13 78.32 940.25 80.91 937.64"/>
        </g>
        <g>
          <path class="st18" d="M1146.47-46.47V5.24h-29.08v-23.99c-6.03-3.61-11.87-3.82-17.48,0V5.24h-30.48v-51.71h77.05-.01Z"/>
          <path class="st21" d="M1117.39,5.24v-23.99c-6.03-3.61-11.87-3.82-17.48,0V5.24h17.48Z"/>
        </g>
        <g>
          <polygon class="st14" points="87.16 318.14 87.16 368.33 158.63 368.33 158.63 318.14 122.89 318.14 105.47 298.77 87.16 318.14"/>
          <polygon class="st13" points="99.03 343.85 99.03 353.71 103.51 353.71 103.51 343.85 99.03 343.85 99.03 343.85"/>
          <polygon class="st13" points="105.47 343.85 105.47 353.71 109.95 353.71 109.95 343.85 105.47 343.85 105.47 343.85"/>
          <polygon class="st13" points="99.03 322.34 99.03 332.2 103.51 332.2 103.51 322.34 99.03 322.34 99.03 322.34"/>
          <rect class="st26" x="105.47" y="322.34" width="4.48" height="9.86"/>
          <polygon class="st13" points="135.71 327.41 135.71 337.28 140.19 337.28 140.19 327.41 135.71 327.41 135.71 327.41"/>
          <polygon class="st13" points="142.15 327.41 142.15 337.28 146.64 337.28 146.64 327.41 142.15 327.41 142.15 327.41"/>
          <polygon class="st18" points="155.29 318.14 155.29 365.59 153.01 365.59 153.01 364.14 149.63 364.14 149.63 360.61 145.82 360.61 145.82 343.32 136.52 343.32 136.52 360.61 132.7 360.61 132.7 364.14 129.17 364.14 129.17 365.59 126.22 365.59 126.22 318.14 119.72 314.33 119.72 365.59 90.65 365.59 90.65 314.33 84.15 318.14 84.15 368.84 84.15 372.09 87.41 372.09 119.72 372.09 122.97 372.09 126.22 372.09 158.54 372.09 161.79 372.09 161.79 368.84 161.79 318.14 155.29 318.14"/>
          <polygon class="st8" points="84.15 322.6 105.19 302.93 126.22 322.91 128.52 325.2 132.2 321.53 155.29 321.53 161.79 321.53 165.77 321.53 166.62 318.37 151.46 301.15 117.52 301.15 126.92 313.59 125.17 313.59 106.81 295.24 105.19 293.54 105.15 293.59 105.02 293.45 101.65 296.8 101.64 296.8 77.42 321.08 81.56 325.2 84.15 322.6"/>
        </g>
        <g>
          <path class="st18" d="M406.64,73.63v51.71h-29.09v-23.99c-6.02-3.6-11.86-3.81-17.48,0v23.99h-30.48v-51.71h77.05Z"/>
          <path class="st21" d="M377.56,125.34v-23.99c-6.02-3.6-11.86-3.81-17.48,0v23.99h17.48Z"/>
          <g>
            <polygon class="st13" points="397.38 101.35 386.59 101.35 386.59 113.48 384.24 113.48 384.24 115.69 399.81 115.69 399.81 113.48 397.38 113.48 397.38 101.35"/>
            <polygon class="st13" points="397.38 91.55 397.38 79.42 386.59 79.42 386.59 91.55 384.24 91.55 384.24 93.77 399.81 93.77 399.81 91.55 397.38 91.55"/>
            <polygon class="st13" points="374.05 79.42 363.25 79.42 363.25 91.55 360.9 91.55 360.9 93.77 376.47 93.77 376.47 91.55 374.05 91.55 374.05 79.42"/>
            <polygon class="st13" points="349.61 101.35 338.81 101.35 338.81 113.48 336.45 113.48 336.45 115.69 352.03 115.69 352.03 113.48 349.61 113.48 349.61 101.35"/>
            <polygon class="st13" points="349.61 79.42 338.81 79.42 338.81 91.55 336.45 91.55 336.45 93.77 352.03 93.77 352.03 91.55 349.61 91.55 349.61 79.42"/>
          </g>
          <polygon class="st8" points="412.18 73.63 405.52 58.38 331.15 58.38 323.85 73.63 412.18 73.63"/>
        </g>
        <g>
          <polygon class="st14" points="207.23 195.15 207.23 245.35 278.7 245.35 278.7 195.15 242.97 195.15 225.54 175.78 207.23 195.15"/>
          <polygon class="st13" points="219.1 220.87 219.1 230.73 223.58 230.73 223.58 220.87 219.1 220.87 219.1 220.87"/>
          <polygon class="st13" points="225.54 220.87 225.54 230.73 230.03 230.73 230.03 220.87 225.54 220.87 225.54 220.87"/>
          <polygon class="st13" points="219.1 199.35 219.1 209.21 223.58 209.21 223.58 199.35 219.1 199.35 219.1 199.35"/>
          <rect class="st26" x="225.54" y="199.35" width="4.48" height="9.86"/>
          <polygon class="st13" points="255.79 204.43 255.79 214.29 260.27 214.29 260.27 204.43 255.79 204.43 255.79 204.43"/>
          <polygon class="st13" points="262.23 204.43 262.23 214.29 266.71 214.29 266.71 204.43 262.23 204.43 262.23 204.43"/>
          <polygon class="st18" points="275.36 195.15 275.36 242.61 273.09 242.61 273.09 241.15 269.7 241.15 269.7 237.63 265.89 237.63 265.89 220.34 256.59 220.34 256.59 237.63 252.78 237.63 252.78 241.15 249.25 241.15 249.25 242.61 246.29 242.61 246.29 195.15 239.79 191.34 239.79 242.61 210.73 242.61 210.73 191.34 204.23 195.15 204.23 245.86 204.23 249.11 207.48 249.11 239.79 249.11 243.05 249.11 246.29 249.11 278.61 249.11 281.86 249.11 281.86 245.86 281.86 195.15 275.36 195.15"/>
          <polygon class="st8" points="204.23 199.61 225.26 179.95 246.29 199.92 248.59 202.22 252.27 198.55 275.36 198.55 281.86 198.55 285.84 198.55 286.69 195.39 271.54 178.17 237.6 178.17 247 190.61 245.24 190.61 226.88 172.26 225.26 170.56 225.23 170.61 225.09 170.46 221.72 173.81 221.72 173.81 197.49 198.09 201.63 202.22 204.23 199.61"/>
        </g>
        <g>
          <g>
            <g>
              <rect class="st24" x="333.11" y="328.39" width="64.05" height="40.3"/>
              <g>
                <rect class="st26" x="383.41" y="351.2" width="6.85" height="8.94"/>
                <rect class="st26" x="383.41" y="337.77" width="6.85" height="8.94"/>
                <polygon class="st13" points="354.76 360.13 361.62 360.15 361.62 351.2 354.76 351.19 354.76 360.13"/>
                <polygon class="st13" points="354.76 346.71 361.62 346.71 361.62 337.77 354.76 337.77 354.76 346.71"/>
                <rect class="st26" x="340.79" y="351.19" width="6.86" height="8.94"/>
                <rect class="st26" x="340.79" y="337.77" width="6.86" height="8.94"/>
              </g>
              <polygon class="st8" points="409.69 331.06 402.92 306.9 352.1 306.89 352.1 305.15 354.83 305.15 354.83 299.48 340.66 299.48 340.66 305.15 343.61 305.15 343.61 317.13 342.74 317.59 339.31 306.89 329.94 306.89 321.48 331.06 409.69 331.06"/>
              <polygon class="st18" points="402.11 331.06 395.35 331.06 395.35 366.42 377.9 366.42 377.9 351.2 367.88 351.2 367.88 366.42 335.43 366.41 335.43 331.06 328.66 331.06 328.66 366.41 326.97 366.41 326.97 374.43 328.66 374.43 332.04 374.43 398.73 374.44 402.11 374.44 403.55 374.44 403.55 366.42 402.11 366.42 402.11 331.06"/>
            </g>
            <path class="st25" d="M341.86,314.6h.52l10.64,15.06h1.83v.52c-6.22,10-9.59,15.18-10.11,15.57h-2.87l-.53-.52v-30.1l.53-.53h-.01ZM345.49,314.6h38.9l.28.28h.24c-5.17,8-8.12,12.23-8.8,12.7h-22.57l-8.57-12.45.53-.53h0ZM357.67,329.66h15.05l10.11,15.81-.24.28h-34.76l-.52-.53c6.28-9.81,9.73-15,10.36-15.57h0ZM388.02,314.6h1.31l.51.53v30.1l-.51.53h-3.91c-6.74-10.03-10.11-15.4-10.11-16.09h2.07l10.63-15.06h.01,0Z"/>
            <rect class="st35" x="385.57" y="290.48" width="4.8" height="15.98"/>
          </g>
          <g>
            <path class="st18" d="M277.09,322.29v51.7h-29.08v-23.99c-6.02-3.6-11.85-3.81-17.47,0v23.99h-30.48v-51.7h77.03Z"/>
            <path class="st21" d="M248.01,373.99v-23.99c-6.02-3.6-11.85-3.81-17.47,0v23.99h17.47Z"/>
            <g>
              <polygon class="st13" points="267.83 350.01 257.05 350.01 257.05 362.13 254.69 362.13 254.69 364.35 270.26 364.35 270.26 362.13 267.83 362.13 267.83 350.01"/>
              <polygon class="st13" points="267.83 340.21 267.83 328.09 257.05 328.09 257.05 340.21 254.69 340.21 254.69 342.43 270.26 342.43 270.26 340.21 267.83 340.21"/>
              <polygon class="st13" points="244.51 328.09 233.7 328.09 233.7 340.21 231.36 340.21 231.36 342.43 246.93 342.43 246.93 340.21 244.51 340.21 244.51 328.09"/>
              <polygon class="st13" points="220.07 350.01 209.27 350.01 209.27 362.13 206.91 362.13 206.91 364.35 222.5 364.35 222.5 362.13 220.07 362.13 220.07 350.01"/>
              <polygon class="st13" points="220.07 328.09 209.27 328.09 209.27 340.21 206.91 340.21 206.91 342.43 222.5 342.43 222.5 340.21 220.07 340.21 220.07 328.09"/>
            </g>
            <polygon class="st8" points="282.63 322.29 275.97 307.05 201.62 307.05 194.32 322.29 282.63 322.29"/>
          </g>
          <g>
            <rect class="st24" x="206.78" y="451.47" width="62.51" height="39.32"/>
            <g>
              <rect class="st26" x="255.86" y="473.73" width="6.69" height="8.73"/>
              <rect class="st26" x="255.86" y="460.63" width="6.69" height="8.73"/>
              <rect class="st26" x="227.91" y="473.73" width="6.7" height="8.73"/>
              <rect class="st26" x="227.91" y="460.62" width="6.7" height="8.73"/>
              <rect class="st26" x="214.28" y="473.72" width="6.69" height="8.73"/>
              <rect class="st26" x="214.28" y="460.62" width="6.69" height="8.73"/>
            </g>
            <polygon class="st8" points="281.52 454.07 274.91 430.5 225.32 430.49 225.32 428.78 227.98 428.78 227.98 423.25 214.15 423.25 214.15 428.78 217.02 428.78 217.02 440.48 216.18 440.93 212.83 430.49 203.69 430.49 195.44 454.07 281.52 454.07"/>
            <polygon class="st18" points="274.12 454.07 267.52 454.08 267.52 488.58 250.49 488.58 250.49 473.73 240.71 473.73 240.71 488.58 209.04 488.58 209.04 454.08 202.44 454.07 202.44 488.58 200.79 488.58 200.79 496.4 202.44 496.4 205.74 496.4 270.82 496.4 274.12 496.4 275.52 496.4 275.52 488.58 274.12 488.58 274.12 454.07"/>
          </g>
        </g>
      </g>
    </g>
    <g>
      <path class="st41" d="M801.39,401.75c0,25.01-2.82,49.36-8.18,72.73-33.04,144.19-162.13,251.76-316.32,251.76-205.26,0-366-190.58-314.94-404.43,27.66-115.89,118.61-206.99,234.45-234.88,7.09-1.71,14.14-3.18,21.17-4.42,36.86-6.52,72.83-6.83,107.07-1.77,2.11.3,2.29,3.33.23,3.87-95.84,24.93-167.18,110.57-170.51,213.4-4.16,128.41,99.74,235.84,228.22,235.8,98.74-.02,182.81-62.73,214.61-150.49.71-1.96,3.59-1.54,3.7.53.32,5.92.51,11.88.51,17.88v.02h0Z"/>
      <path class="st28" d="M793.21,474.49c-33.04,144.19-162.13,251.76-316.32,251.76-205.26,0-366-190.58-314.94-404.43,27.66-115.89,118.61-206.99,234.45-234.88,7.09-1.71,14.14-3.18,21.17-4.42-46.13,22.09-85.78,59.65-113.26,103.27-56.43,89.58-66.47,208.44-19.5,303.32,46.95,94.87,151.86,159.93,257.5,153.16,83.09-5.32,159.96-52.29,213.63-115.94,13.76-16.34,26.14-33.7,37.27-51.84h0Z"/>
      <path class="st42" d="M801.39,400.31c0,4.85-.11,9.67-.32,14.46-28.11,47.44-70.59,86.35-120.53,109.81-78.68,36.93-173.75,34.5-247.18-13.61-129.48-84.82-131.16-259.85-32.61-369.59,24.35-27.12,54.04-49.34,86.76-65.38,12.58.39,24.95,1.52,37.12,3.31,2.11.3,2.29,3.33.23,3.87-95.84,24.93-167.18,110.57-170.51,213.4-4.16,128.41,99.74,235.84,228.22,235.8,98.74-.02,182.81-62.73,214.61-150.49.71-1.96,3.59-1.54,3.7.53.32,5.92.51,11.88.51,17.88h0Z"/>
    </g>
  </g>
</svg>