<?xml version="1.0" encoding="UTF-8"?>
<svg id="Layer_1" xmlns="http://www.w3.org/2000/svg" width="1920" height="1080" xmlns:xlink="http://www.w3.org/1999/xlink" version="1.1" viewBox="0 0 1920 1080">
  <!-- Generator: Adobe Illustrator 29.7.1, SVG Export Plug-In . SVG Version: 2.1.1 Build 8)  -->
  <defs>
    <style>
      .st0, .st1, .st2, .st3, .st4, .st5, .st6, .st7 {
        fill: none;
      }

      .st8 {
        fill: url(#linear-gradient11);
      }

      .st8, .st9, .st10, .st11, .st12, .st13, .st14, .st15, .st16, .st17, .st18, .st19, .st20, .st21, .st22, .st23, .st24, .st25, .st26, .st27, .st28, .st29, .st30 {
        fill-rule: evenodd;
      }

      .st9 {
        fill: url(#linear-gradient10);
      }

      .st31, .st27 {
        fill: #ef8b00;
      }

      .st10, .st32 {
        fill: #fff;
      }

      .st33 {
        fill: #c1c2c5;
      }

      .st11, .st34 {
        fill: #38a429;
      }

      .st12, .st35 {
        fill: #009536;
      }

      .st1 {
        stroke-dasharray: 26.35 43.91;
      }

      .st1, .st2, .st3, .st4, .st5, .st6, .st7 {
        stroke-miterlimit: 7.05;
      }

      .st1, .st5, .st6 {
        stroke: #fae704;
        stroke-width: 16.94px;
      }

      .st36 {
        fill: #00afeb;
      }

      .st13, .st37 {
        fill: #ffea00;
      }

      .st2, .st3, .st7 {
        stroke: #ffea00;
        stroke-width: 33.88px;
      }

      .st38 {
        clip-path: url(#clippath-1);
      }

      .st14 {
        fill: #218e2a;
      }

      .st39, .st30 {
        fill: #915a2f;
      }

      .st3 {
        stroke-dasharray: 51.29 51.29;
      }

      .st40 {
        fill: #50a835;
      }

      .st15 {
        fill: #363538;
      }

      .st41 {
        opacity: .8;
      }

      .st16 {
        fill: url(#linear-gradient);
      }

      .st42 {
        fill: #45c2ef;
      }

      .st17 {
        fill: #4f4e53;
      }

      .st18 {
        fill: url(#linear-gradient1);
      }

      .st19 {
        fill: url(#linear-gradient2);
      }

      .st20 {
        fill: url(#linear-gradient8);
      }

      .st21 {
        fill: url(#linear-gradient7);
      }

      .st22 {
        fill: url(#linear-gradient4);
      }

      .st23 {
        fill: url(#linear-gradient5);
      }

      .st24 {
        fill: url(#linear-gradient3);
      }

      .st25 {
        fill: url(#linear-gradient6);
      }

      .st26 {
        fill: url(#linear-gradient9);
      }

      .st43 {
        fill: #50a825;
      }

      .st4 {
        stroke: #d6d7d9;
        stroke-linecap: round;
        stroke-width: 25.41px;
      }

      .st44 {
        fill: #2fbbed;
      }

      .st28 {
        fill: #aaabae;
      }

      .st45 {
        fill: #6bb24d;
      }

      .st46 {
        fill: #6bb240;
      }

      .st47 {
        fill: #00a2e8;
      }

      .st29 {
        fill: #f5ad2b;
      }

      .st6 {
        stroke-dasharray: 24.96 41.6;
      }

      .st48 {
        clip-path: url(#clippath);
      }

      .st7 {
        stroke-dasharray: 53.1 53.1;
      }

      .st49 {
        fill: #90bf5f;
      }
    </style>
    <clipPath id="clippath">
      <rect class="st0" width="1920" height="1080"/>
    </clipPath>
    <clipPath id="clippath-1">
      <path class="st0" d="M967.61,607.15c422.41,6.39,497.63,256.1,838.54,270.92H442.69c129.14-125.09,281.18-274.58,524.92-270.92Z"/>
    </clipPath>
    <linearGradient id="linear-gradient" x1="-372.05" y1="2174.24" x2="-399.75" y2="2222.24" gradientTransform="translate(1170.41 -939.96) scale(.7)" gradientUnits="userSpaceOnUse">
      <stop offset="0" stop-color="#4f4e53"/>
      <stop offset="1" stop-color="#000"/>
    </linearGradient>
    <linearGradient id="linear-gradient1" x1="-319.35" y1="2178.87" x2="-343.42" y2="2220.57" gradientTransform="translate(1170.41 -939.96) scale(.7)" gradientUnits="userSpaceOnUse">
      <stop offset="0" stop-color="#4f4e53"/>
      <stop offset="1" stop-color="#000"/>
    </linearGradient>
    <linearGradient id="linear-gradient2" x1="-326.33" y1="2135.79" x2="-346.79" y2="2171.24" gradientTransform="translate(1170.41 -939.96) scale(.7)" gradientUnits="userSpaceOnUse">
      <stop offset="0" stop-color="#4f4e53"/>
      <stop offset="1" stop-color="#000"/>
    </linearGradient>
    <linearGradient id="linear-gradient3" x1="-284.06" y1="2142.06" x2="-302.27" y2="2173.6" gradientTransform="translate(1170.41 -939.96) scale(.7)" gradientUnits="userSpaceOnUse">
      <stop offset="0" stop-color="#4f4e53"/>
      <stop offset="1" stop-color="#000"/>
    </linearGradient>
    <linearGradient id="linear-gradient4" x1="-274.88" y1="2182.65" x2="-296.09" y2="2219.36" gradientTransform="translate(1170.41 -939.96) scale(.7)" gradientUnits="userSpaceOnUse">
      <stop offset="0" stop-color="#4f4e53"/>
      <stop offset="1" stop-color="#000"/>
    </linearGradient>
    <linearGradient id="linear-gradient5" x1="-375.87" y1="2128.3" x2="-399.18" y2="2168.67" gradientTransform="translate(1170.41 -939.96) scale(.7)" gradientUnits="userSpaceOnUse">
      <stop offset="0" stop-color="#4f4e53"/>
      <stop offset="1" stop-color="#000"/>
    </linearGradient>
    <linearGradient id="linear-gradient6" x1="-134.06" y1="2174.91" x2="-161.76" y2="2222.9" gradientTransform="translate(1170.41 -939.96) scale(.7)" gradientUnits="userSpaceOnUse">
      <stop offset="0" stop-color="#4f4e53"/>
      <stop offset="1" stop-color="#000"/>
    </linearGradient>
    <linearGradient id="linear-gradient7" x1="-81.34" y1="2179.54" x2="-105.41" y2="2221.23" gradientTransform="translate(1170.41 -939.96) scale(.7)" gradientUnits="userSpaceOnUse">
      <stop offset="0" stop-color="#4f4e53"/>
      <stop offset="1" stop-color="#000"/>
    </linearGradient>
    <linearGradient id="linear-gradient8" x1="-88.31" y1="2136.46" x2="-108.78" y2="2171.9" gradientTransform="translate(1170.41 -939.96) scale(.7)" gradientUnits="userSpaceOnUse">
      <stop offset="0" stop-color="#4f4e53"/>
      <stop offset="1" stop-color="#000"/>
    </linearGradient>
    <linearGradient id="linear-gradient9" x1="-46.09" y1="2142.71" x2="-64.3" y2="2174.27" gradientTransform="translate(1170.41 -939.96) scale(.7)" gradientUnits="userSpaceOnUse">
      <stop offset="0" stop-color="#4f4e53"/>
      <stop offset="1" stop-color="#000"/>
    </linearGradient>
    <linearGradient id="linear-gradient10" x1="-36.91" y1="2183.31" x2="-58.09" y2="2220.02" gradientTransform="translate(1170.41 -939.96) scale(.7)" gradientUnits="userSpaceOnUse">
      <stop offset="0" stop-color="#4f4e53"/>
      <stop offset="1" stop-color="#000"/>
    </linearGradient>
    <linearGradient id="linear-gradient11" x1="-137.88" y1="2128.97" x2="-161.17" y2="2169.32" gradientTransform="translate(1170.41 -939.96) scale(.7)" gradientUnits="userSpaceOnUse">
      <stop offset="0" stop-color="#4f4e53"/>
      <stop offset="1" stop-color="#000"/>
    </linearGradient>
  </defs>
  <g id="Layer_1-22">
    <g class="st48">
      <g>
        <rect class="st47" x="-4440.82" y="-1930.66" width="11627.83" height="5132.23"/>
        <path class="st36" d="M7020.47,593.32c0,1412.84-2474.5,2558.13-5526.94,2558.13S-4033.42,2006.16-4033.42,593.32-1558.93-1964.85,1493.53-1964.85,7020.47-819.54,7020.47,593.32Z"/>
        <path class="st44" d="M6327.48,268.37c0,1238.04-2168.35,2241.65-4843.15,2241.65S-3358.84,1506.41-3358.84,268.37-1190.49-1973.32,1484.33-1973.32,6327.48-969.69,6327.48,268.37Z"/>
        <g>
          <path class="st49" d="M1402.37,2020.02c-293.67,0-587.15-13.69-872.29-40.7-277.87-26.32-551.19-65.59-812.36-116.71-256.4-50.19-503.68-112.32-734.98-184.64-229.05-71.62-444.41-153.86-640.12-244.44-195.61-90.54-373.18-190.14-527.76-296.05-155.93-106.83-289.82-220.99-397.95-339.33-109.96-120.33-194.39-246.19-250.93-374.09-57.92-131.01-87.29-265.82-87.29-400.68s29.37-269.67,87.29-400.69c56.55-127.9,140.97-253.77,250.93-374.1,108.14-118.34,242.03-232.5,397.95-339.33,154.59-105.91,332.15-205.52,527.76-296.06,195.71-90.58,411.07-172.83,640.12-244.45,231.3-72.33,478.58-134.45,734.98-184.64,261.17-51.13,534.49-90.4,812.36-116.72,285.14-27.01,578.62-40.7,872.29-40.7s587.14,13.69,872.28,40.7c277.87,26.32,551.19,65.59,812.36,116.72,256.4,50.19,503.68,112.32,734.98,184.64,229.04,71.62,444.41,153.87,640.12,244.45,195.61,90.54,373.18,190.15,527.77,296.06,155.93,106.83,289.82,221,397.96,339.33,109.96,120.33,194.39,246.2,250.93,374.1,57.92,131.02,87.29,265.83,87.29,400.69s-29.37,269.67-87.29,400.68c-56.55,127.9-140.97,253.76-250.93,374.09-108.14,118.33-242.03,232.5-397.96,339.33-154.59,105.91-332.15,205.51-527.77,296.05-195.71,90.58-411.07,172.82-640.12,244.44-231.3,72.33-478.58,134.45-734.98,184.64-261.17,51.13-534.49,90.4-812.36,116.71-285.14,27.01-578.61,40.7-872.28,40.7h0Z"/>
          <path class="st43" d="M1402.37-1964.85c293.4,0,586.61,13.68,871.48,40.66,277.6,26.29,550.63,65.52,811.53,116.6,256.09,50.13,503.07,112.18,734.08,184.42,228.69,71.51,443.71,153.62,639.09,244.05,195.18,90.34,372.34,189.71,526.54,295.36,155.39,106.46,288.79,220.2,396.49,338.06,109.34,119.65,193.27,244.75,249.44,371.81,28.48,64.41,50.21,130.32,64.59,195.88,14.58,66.45,21.97,134.21,21.97,201.39s-7.39,134.93-21.97,201.38c-14.38,65.56-36.12,131.46-64.59,195.87-56.17,127.06-140.1,252.15-249.44,371.81-107.7,117.85-241.1,231.59-396.49,338.05-154.2,105.64-331.35,205.01-526.54,295.35-195.37,90.43-410.39,172.54-639.09,244.05-231.01,72.23-477.99,134.28-734.08,184.41-260.9,51.07-533.94,90.3-811.53,116.59-284.87,26.98-578.08,40.66-871.48,40.66s-586.61-13.68-871.49-40.66c-277.6-26.29-550.64-65.52-811.53-116.59-256.09-50.13-503.07-112.18-734.08-184.41-228.69-71.51-443.71-153.62-639.09-244.05-195.18-90.34-372.34-189.71-526.53-295.35-155.39-106.46-288.79-220.2-396.49-338.05-109.34-119.65-193.26-244.75-249.44-371.81-28.48-64.41-50.21-130.31-64.59-195.87-14.58-66.45-21.97-134.21-21.97-201.38s7.39-134.94,21.97-201.39c14.38-65.56,36.12-131.46,64.59-195.88,56.17-127.06,140.1-252.16,249.44-371.81,107.7-117.86,241.1-231.6,396.49-338.06,154.2-105.64,331.35-205.02,526.53-295.36,195.37-90.43,410.39-172.54,639.09-244.05,231.01-72.23,477.99-134.28,734.08-184.42,260.9-51.08,533.94-90.3,811.53-116.6,284.88-26.98,578.09-40.66,871.49-40.66M1402.37-1981.79c-2392.6,0-4332.16,897.73-4332.16,2005.15S-990.23,2028.48,1402.37,2028.48,5734.53,1130.77,5734.53,23.36,3794.95-1981.79,1402.37-1981.79h0Z"/>
        </g>
        <g class="st41">
          <path class="st42" d="M1178.41,642.85c8.25,4.74,21.24,9.93,37.18,14.94,15.97,5.04,34.95,9.99,55.94,14.83,42.02,9.63,91.99,18.86,143.41,27.92,51.43,9.06,104.34,17.97,152.49,27,24.08,4.52,46.96,9.07,67.89,13.62s39.88,9.21,56.09,13.73c3.13.85,6.21,1.69,9.25,2.51,3.04.81,6.01,1.77,8.95,2.63,2.93.9,5.83,1.7,8.66,2.65,2.83.95,5.61,1.89,8.35,2.81,1.37.48,2.73.88,4.07,1.41,1.34.52,2.67,1.03,3.98,1.54,1.32.51,2.62,1.01,3.92,1.52,1.29.52,2.6.95,3.82,1.55,2.48,1.13,4.91,2.25,7.31,3.34,1.2.57,2.37,1.05,3.52,1.53s2.3.97,3.43,1.44c9.08,3.83,17.54,7.4,25.39,10.72,7.94,3.26,15.29,6.27,22.06,9.05,11.41,4.74,3.81,1.86-16.71-6.31-2.56-1.03-5.35-2.1-8.28-3.33-2.92-1.23-6.03-2.54-9.32-3.93-3.28-1.39-6.74-2.85-10.37-4.38-1.81-.77-3.66-1.55-5.55-2.35-.95-.4-1.9-.81-2.87-1.21-.98-.45-1.97-.91-2.97-1.37-2-.93-4.04-1.87-6.12-2.84-2.1-.93-4.3-1.73-6.5-2.62-2.22-.85-4.46-1.81-6.76-2.62-2.3-.8-4.64-1.61-7.02-2.44-4.74-1.72-9.67-3.17-14.71-4.76-5.04-1.64-10.24-3.01-15.54-4.55-38.12-10.08-83.54-19.26-137.03-28.93,33.05,7.59,65.4,15.41,94.95,23.46,29.53,8.06,56.3,16.48,77.75,25.3,3.97,1.49,7.96,2.91,11.91,4.47l5.84,2.57,2.92,1.29,2.99,1.21c8,3.22,16.02,6.44,24.07,9.68,8.06,3.21,16.19,6.22,24.33,9.37,8.12,3.17,16.37,6.13,24.62,9.15,72.67,26.51,145.56,48.38,217.85,70.92,36.15,11.28,72.17,22.76,107.96,35.04,8.94,3.09,17.91,6.12,26.8,9.37,4.45,1.6,8.91,3.21,13.36,4.82l6.68,2.41,6.66,2.5c8.88,3.36,17.77,6.72,26.67,10.09,8.98,3.29,17.96,6.69,26.98,9.93,6.55,2.32,14.08,4.98,22.32,7.9,8.29,2.78,17.31,5.8,26.82,8.98,9.55,3.03,19.56,6.31,29.85,9.48,10.31,3.12,20.82,6.45,31.4,9.49,5.28,1.55,10.56,3.1,15.8,4.64,5.26,1.49,10.48,2.97,15.64,4.43,5.16,1.45,10.25,2.93,15.25,4.3,5.01,1.37,9.92,2.71,14.7,4.02,9.55,2.67,18.63,5.03,26.93,7.28,8.3,2.24,15.83,4.27,22.34,6.03-13.72-3.2-27.36-6.7-41.03-10.12l-20.44-5.35c-6.82-1.75-13.6-3.7-20.4-5.53l-10.19-2.8-10.16-2.9c-6.77-1.96-13.55-3.86-20.3-5.87l-20.24-6.08c-6.75-2.02-13.45-4.2-20.18-6.29-26.88-8.51-53.58-17.42-80.14-27.06l-9.95-3.58-9.84-3.63-19.69-7.24-19.77-6.95-9.89-3.47-9.94-3.35-19.88-6.7-19.96-6.51-9.98-3.25-10.01-3.18-20.02-6.35c-26.75-8.36-53.54-16.6-80.38-24.83-53.66-16.47-107.35-33.24-160.47-51.86,5.71,2.2,11.39,4.38,16.99,6.53,111.67,39.39,225.71,70.63,335.94,110.93,2.35.83,4.7,1.65,7.06,2.48,2.35.87,4.7,1.74,7.05,2.61,4.7,1.76,9.42,3.53,14.17,5.3,9.57,3.6,19.23,7.23,29.04,10.91-9.62-3.55-19.39-7.05-28.81-10.66l-14.24-5.38-7.12-2.69-7.15-2.58c-49.2-17.33-97.91-31.62-152.58-47.95-33.62-10.48-71.81-23.48-105.52-34.25-27.45-8.96-52.24-18.7-77.84-28.73-8.34-2.94-16.68-5.84-24.97-8.94l-12.45-4.58c-4.15-1.53-8.31-3.02-12.42-4.65-4.9-1.64-10.14-3.42-15.48-5.35.17.09.5.26.62.35,9.55,5.77,42.76,20.46,88.91,37.83,5.77,2.16,11.74,4.39,17.87,6.68,6.15,2.22,12.47,4.5,18.94,6.84,12.94,4.7,26.51,9.36,40.5,14.24,27.98,9.62,57.64,19.58,87.45,29.59,29.79,10.04,59.71,20.17,88.23,30.21,7.14,2.5,14.15,5.07,21.09,7.54,3.47,1.24,6.91,2.47,10.33,3.7,3.4,1.26,6.77,2.5,10.11,3.74,6.68,2.47,13.25,4.91,19.67,7.28,6.41,2.47,12.68,4.88,18.79,7.23,12.06,4.7,24.2,9.13,35.24,13.22,5.54,2.04,10.88,3.87,15.98,5.68,5.11,1.78,9.97,3.52,14.6,5.08,9.27,3.09,17.53,5.81,24.58,8.09,7.08,2.2,12.95,3.96,17.44,5.25,3.58,1.03,7.13,2.06,10.69,3.03,3.57.93,7.12,1.85,10.66,2.77,7.09,1.78,14.13,3.59,21.21,5.14,7.07,1.6,14.14,3.15,21.23,4.68,7.11,1.44,14.23,2.89,21.41,4.34,28.72,5.68,58.27,11.14,90.49,18.1,10.78,2.24,20.6,4.88,29.85,7.07,9.26,2.17,17.92,4.11,26.35,5.05,1.84-.66,10.26.25,18.72,1.17,5.38,1.04,10.75,2.09,16.11,3.13,5.35,1.07,10.68,2.18,15.97,3.31,10.59,2.2,21.02,4.37,31.15,6.48,5.14,1.01,10.21,1.99,15.18,2.9,2.49.45,4.96.89,7.39,1.33,2.44.42,4.84.88,7.3,1.06,4.88.48,9.64.88,14.27,1.18,2.31.15,4.59.27,6.83.37,2.23.09,4.38.08,6.52.08,2.98.1,6.59.52,10.65,1.19,4.06.67,8.56,1.6,13.31,2.56,9.5,1.98,20.04,4.59,29.97,6.9,4.97,1.18,9.8,2.32,14.29,3.38,4.48,1.02,8.61,1.93,12.21,2.66,7.2,1.46,12.24,2.17,13.53,1.46,9.46-5.13,10.75-5.83,16.59-4.8,2.93.52,6.98,1.47,13.74,2.53,6.77,1.05,16.26,2.2,29.95,3.21,3.32.29,10.44-.41,18.36-.92,3.96-.27,8.14-.52,12.15-.62,4.02-.11,7.83.05,11.13.41,5.54.79,10.59,1.41,15.3,1.96,4.68.61,9.01,1.11,13.13,1.52,4.11.43,8.04.68,11.85,1.03s7.54.64,11.32.9c3.78.28,7.65.45,11.65.79,4.01.36,8.2.74,12.7,1.14,2.26.22,4.59.44,7.02.67,2.44.21,4.92.62,7.54.96,5.23.73,10.91,1.54,17.16,2.53,4.61.79,8.99,1.56,13.17,2.33,2.09.39,4.13.77,6.12,1.15,1,.19,1.98.38,2.95.57.97.23,1.93.46,2.88.68,3.79.92,7.41,1.81,10.87,2.7,3.48.91,6.82,1.78,10.03,2.61,6.82,1.79,12.69,3.41,18.43,5.04,5.69,1.65,11.11,3.21,16.47,4.76,10.69,3.12,21.11,6.13,33.02,9.21s25.31,6.22,41.92,9.89c2.01.46,9.87,2.64,20.45,5.88,10.57,3.25,23.81,7.65,36.58,12.48,12.79,4.8,25.07,10.06,34.03,14.32,4.46,2.16,8.16,3.96,10.68,5.3,1.27.66,2.27,1.17,2.95,1.52s1.04.55,1.04.55c8.68,5.28,16.69,10.61,23.99,16.09,1.75,1.35,3.47,2.68,5.18,4l.64.49.66.57,1.32,1.14c.88.76,1.75,1.51,2.62,2.26,1.75,1.5,3.44,2.99,5.2,4.44,1.77,1.45,3.53,2.89,5.27,4.32,13.95,11.36,27.29,21.21,40.13,30.68,25.69,18.91,49.47,36.28,73.83,58.48,16.33,9.56,33.35,20.82,50.46,33.32,17.09,12.51,34.3,26.26,50.78,40.87,16.43,14.65,32.24,30.09,46.28,46.02,3.45,4.02,6.96,7.95,10.16,12.03,1.61,2.03,3.32,3.99,4.84,6.04,1.54,2.04,3.08,4.06,4.61,6.08,1.58,1.99,2.93,4.07,4.38,6.1.72,1.01,1.43,2.03,2.14,3.03.72,1,1.44,2.01,2.07,3.04,1.32,2.04,2.63,4.08,3.94,6.09l.98,1.51c.32.51.61,1.04.91,1.55.6,1.03,1.21,2.07,1.81,3.09.6,1.03,1.2,2.04,1.79,3.05.29.5.59,1.01.88,1.51.37.61.74,1.22,1.11,1.82.75,1.22,1.5,2.44,2.24,3.64s1.55,2.25,2.31,3.36c.78,1.09,1.53,2.19,2.31,3.24.81,1.02,1.61,2.02,2.41,3.02,1.56,2.04,3.22,3.86,4.84,5.69,6.51,7.23,13.08,13.22,19.44,18.62,12.78,10.72,24.81,19.06,36.65,26.95,11.86,7.86,23.64,15.06,36.44,22.42,12.81,7.33,26.67,14.81,42.8,22.74,18.67,8.49,33.1,13.49,43.61,19.14,10.56,5.71,38.91,11.69,57.48,19.4-1.91.37-3.83.73-5.75,1.1,6.22,2.59,18.55,7.74,24.75,10.33,6.17,2.6,4.23,2.95,2.32,3.31-3.85.72-7.64,1.45,2.74,6.99,25.38,11.46,51.19,22.91,76.54,35.16,25.97,9.87,50.93,20.39,72.48,32.72,1.94-.33,4.11-.51,7.62.59,6.36,3.73,12.34,7.67,17.74,11.87,1.27.17,2.31.09,3.22-.1.88-.19,1.62-.5,2.32-.82,1.4-.64,2.6-1.3,4.33-.95,1.55-1.46,4.49-1.58,7.87-.77,1.7.4,3.65.96,5.47,1.74.93.38,1.89.79,2.86,1.21l1.45.64c.46.23.92.47,1.38.7.94.48,1.86.94,2.75,1.4.92.45,1.82.89,2.62,1.34,1.65.88,3.23,1.63,4.64,2.1,2.8.96,4.83.63,5.64-2.14.04-.53-.32-1.72-1-3.45-.35-.86-.74-1.89-1.27-2.98-.56-1.08-1.19-2.27-1.89-3.55-2.87-5.09-7.24-11.47-12.66-17.62-5.38-6.18-11.65-12.28-17.65-17.74-5.98-5.51-11.75-10.26-15.96-14.26-1.89-1.94.13-1.89,3.39-1.2,1.63.34,3.58.82,5.51,1.26,1.92.47,3.82.91,5.36,1.06-1.57-1.12-3.05-2.17-4.45-3.15-1.39-.97-2.69-1.87-3.9-2.72-2.41-1.74-4.47-3.15-6.18-4.44-3.41-2.58-5.46-4.32-6.31-5.51-1.71-2.35,1.36-2.37,7.49-.25-3.02-2.04-6.07-3.92-8.34-5.4-2.28-1.44-3.81-2.35-3.81-2.35,1.02,0,3.08-.02,4.9,0,1.81.04,3.37.08,3.37.08-16.39-10.76-33.46-20.53-50.84-29.75-17.38-9.19-35.07-17.79-52.77-25.79-35.42-16-70.81-29.74-104.17-40.3-7.11-2.4-16.66-5.29-26.4-8.16-9.7-2.87-19.61-5.8-27.53-8.15-3.92-1.19-9.9-3.9-15.56-6.7-2.85-1.39-5.6-2.82-8.02-4.07-2.42-1.23-4.5-2.3-5.95-3.04-5.74-1-8.57-.61-10.67.12-2.1.75-3.49,1.85-6.33,2.23-11.11-5.94-25.21-13.8-39.23-22.64-14.02-8.82-27.79-18.82-38.08-28.28-5.17-4.72-9.43-9.27-12.67-13.29-.46-.5-.82-1-1.18-1.48-.37-.48-.74-.96-1.1-1.43-.81-.96-1.3-1.76-1.88-2.55-.29-.39-.58-.77-.87-1.15-.11-.1-.4-.59-.61-.92-.23-.36-.46-.72-.69-1.07-.91-1.41-1.8-2.75-2.65-4.01-3.32-5.08-6.67-8.77-9.1-10.99-2.47-2.21-4.21-2.88-5.09-1.72-1.62-2.36-3.19-4.59-4.69-6.7-1.51-2.12-2.95-4.13-4.44-5.92-1.47-1.82-2.89-3.55-4.26-5.2-.69-.82-1.37-1.63-2.03-2.42-.68-.77-1.37-1.5-2.04-2.22-2.7-2.88-5.23-5.56-7.74-8.03-2.56-2.42-5.04-4.72-7.54-7.02-1.24-1.17-2.52-2.27-3.82-3.39-1.29-1.12-2.6-2.26-3.94-3.42-1.33-1.16-2.68-2.35-4.08-3.58-1.41-1.2-2.86-2.43-4.37-3.71-3-2.58-6.16-5.4-9.7-8.4-3.49-3.05-7.31-6.37-11.55-10.08-22.42-19.59-48.92-39.88-77.21-60.35-28.27-20.49-58.38-41.15-87.67-62.01-16.16-11.21-31.71-22.5-46.65-34.12-3.71-2.93-7.47-5.8-11.09-8.79-3.65-2.96-7.3-5.91-10.84-8.94l-5.36-4.54-5.4-4.76-2.7-2.38c-.42-.39-.98-.82-1.5-1.24l-1.59-1.26-3.19-2.52c-1.08-.87-2.08-1.55-3.12-2.34-6.15-4.6-12.44-8.66-18.62-12.56-3.13-1.86-6.19-3.79-9.29-5.51-1.54-.88-3.08-1.75-4.6-2.62-1.54-.83-3.07-1.66-4.59-2.48-16.49-8.85-33.11-16.3-49.61-23.04-16.52-6.71-32.95-12.67-49.24-18.13-32.59-10.93-64.62-19.98-95.97-28.43-7.81-2.1-15.58-4.2-23.32-6.28-3.94-1.07-7.88-2.14-11.81-3.21-1.95-.57-3.96-.99-5.95-1.45s-3.98-.91-5.97-1.37c-3.98-.91-7.95-1.82-11.92-2.72-1.98-.48-3.97-.83-5.96-1.21l-5.96-1.14c-3.97-.76-7.93-1.51-11.89-2.27-1.98-.4-3.96-.69-5.94-1.01l-5.94-.94c-31.65-5.09-63.04-8.23-94.22-10.55-62.35-4.64-124.01-5.87-186.44-11.45-3.82-.38-7.65-.75-11.49-1.13-1.92-.19-3.84-.37-5.76-.56l-2.89-.28-1.45-.14-1.45-.24c-7.76-1.25-15.56-2.51-23.39-3.77-15.83-2.63-31.96-5.3-48.17-8.16-32.47-5.68-65.66-11.83-99.8-18.66-68.84-13.76-137.88-31.24-205.55-52.66-8.44-2.74-16.87-5.48-25.3-8.21-8.37-2.86-16.74-5.71-25.1-8.56-8.41-2.97-16.82-5.95-25.22-8.92l-6.3-2.24-6.33-2.15c-4.22-1.43-8.43-2.87-12.65-4.3-33.72-11.4-67.44-22.12-100.91-32.48-66.93-20.69-132.81-40.22-195.54-61.48-15.72-5.23-31.16-10.76-46.47-16.18-7.61-2.81-15.19-5.6-22.73-8.39-1.88-.7-3.76-1.4-5.64-2.09-1.87-.72-3.73-1.45-5.59-2.17-3.72-1.45-7.43-2.89-11.14-4.33-3.7-1.44-7.39-2.88-11.07-4.31-3.66-1.44-7.22-2.95-10.82-4.42-3.58-1.47-7.16-2.94-10.72-4.41-1.78-.73-3.56-1.46-5.33-2.19l-2.66-1.09c-.45-.19-.88-.35-1.34-.56l-1.4-.63c-1.86-.84-3.73-1.68-5.58-2.51l-2.79-1.25-2.86-1.1c-1.91-.73-3.82-1.46-5.72-2.18l-2.86-1.09c-.95-.36-1.9-.65-2.84-.97-3.79-1.26-7.57-2.52-11.33-3.77-3.76-1.13-7.52-2.25-11.25-3.37-14.96-4.28-29.72-8.09-44.28-11.47-3.64-.85-7.26-1.74-10.88-2.54-3.61-.81-7.21-1.61-10.8-2.41-7.17-1.64-14.28-3.08-21.34-4.6-28.23-5.93-55.52-11.19-81.72-16.13-52.41-9.85-100.47-18.45-143.02-26.41-42.53-7.97-79.59-15.21-109.95-21.81-30.37-6.56-54.04-12.43-70-16.9l-4.83-.73-4.71-.85-4.72-.85c-1.58-.28-3.17-.55-4.66-.9l-9.1-1.97-8.53-2.26.04.07h0Z"/>
        </g>
        <path class="st13" d="M839.34,162.95c0,23.87-85.75,43.22-191.55,43.22s-191.55-19.35-191.55-43.22,85.77-43.22,191.55-43.22,191.55,19.34,191.55,43.22Z"/>
        <g class="st41">
          <path class="st42" d="M-958.23,1202.62c14.47,6.36,33.03,14.62,55,23.53,21.97,8.93,47.34,18.55,75.27,28.13s58.43,19.1,90.56,28.05c32.13,8.96,65.9,17.34,100.31,24.78,68.8,14.92,140.23,25.92,205.82,31.41,32.79,2.78,64.11,4.2,92.84,4.38,28.73.2,54.87-.88,77.3-2.78,34.58-2.48,64.96-6.91,91.27-12.83,26.3-5.9,48.52-13.28,66.8-21.37,7.68-3.48,8.91-4.24,4.86-2.46-4.08,1.71-13.51,5.89-27.74,10.72-14.21,4.88-33.25,10.29-56.15,14.94-22.89,4.69-49.64,8.49-79.03,11-52.6,3.7-114.95,2.97-187.59-4.29,45.47,2.48,90.11,2.59,130.99.33,40.88-2.23,77.96-7,108.32-13.16,22.48-3.06,44.91-7.37,66.93-13.58,11.01-3.09,21.9-6.72,32.58-10.96,10.68-4.21,21.11-9.11,31.13-14.78,5.49-3.14,10.87-6.45,16.01-10.07,5.13-3.62,10.07-7.49,14.76-11.61,9.31-8.3,17.59-17.67,24.16-28.1,6.54-10.43,11.51-21.79,14.44-33.7,1.48-5.94,2.6-11.98,3.19-18.1.59-6.11.84-12.26.68-18.41-.02-1.54-.14-3.08-.2-4.61l-.12-2.31-.2-2.3-.42-4.6-.58-4.59c-.17-1.53-.43-3.06-.68-4.58-.26-1.53-.48-3.05-.77-4.58l-1.8-9.21c-2.57-12.25-5.69-24.42-9.06-36.54-6.74-24.24-14.54-48.28-21.58-72.69-3.52-12.2-6.87-24.49-9.8-36.93-2.9-12.45-5.38-25.05-7.15-37.81s-2.82-25.7-2.82-38.73,1.19-26.13,3.67-39.05c2.48-12.92,6.32-25.62,11.44-37.81l4.07-9.05,4.61-8.78c.74-1.48,1.61-2.89,2.47-4.3l2.57-4.24,1.33-2.19.69-1.13c.23-.4.47-.79.77-1.14l1.71-2.2c.53-.66,1.03-1.35,1.57-2,8.56-10.54,18.95-19.64,30.18-27.06,11.24-7.46,23.22-13.34,35.14-18.55,8.64-3.81,18.59-7.74,29.18-12.14,10.57-4.41,21.79-9.34,32.65-15.63,10.88-6.25,21.26-14.06,30.22-23.65,8.98-9.55,16.44-20.93,22.23-33.29,2.9-6.18,5.41-12.59,7.59-19.1,1.12-3.24,2.07-6.55,3.04-9.84.87-3.32,1.8-6.6,2.53-9.94,3.13-13.27,5.11-26.57,6.41-39.29.16-1.59.32-3.17.48-4.74.13-1.58.25-3.14.38-4.69.12-1.55.24-3.09.36-4.62.2-1.82.39-3.63.59-5.42.15-1.82.57-3.56.88-5.31.17-.87.34-1.74.5-2.6s.43-1.69.64-2.52c.46-1.66.87-3.33,1.36-4.93.54-1.58,1.08-3.15,1.62-4.69.5-1.57,1.18-3.01,1.77-4.48.63-1.44,1.17-2.94,1.86-4.28,1.33-2.74,2.6-5.44,4.02-7.9.7-1.24,1.36-2.49,2.05-3.68.72-1.17,1.42-2.31,2.11-3.44,1.36-2.29,2.81-4.35,4.16-6.39-5.97,8.22-11.4,17.17-15.56,27.05-.56,1.21-1.02,2.48-1.48,3.75l-1.38,3.81c-.42,1.29-.77,2.62-1.16,3.93-.35,1.33-.8,2.61-1.06,3.97l-.84,4.06c-.13.68-.29,1.35-.39,2.03l-.27,2.07-.51,4.14-.06.51-.04.42-.08.85-.16,1.69c-.76,9.06-1.88,18.03-3.27,26.92-1.41,8.89-3.15,17.67-5.34,26.28-4.38,17.19-10.62,33.66-19.48,48.21-2.24,3.61-4.58,7.15-7.16,10.48-2.53,3.38-5.28,6.56-8.16,9.62-5.78,6.11-12.24,11.56-19.29,16.39-14.08,9.72-30.44,16.85-47.62,23.71-17.17,6.89-35.36,13.66-52.78,23.71-4.34,2.52-8.63,5.22-12.78,8.17-4.15,2.96-8.18,6.15-12.04,9.54-3.84,3.43-7.49,7.09-10.94,10.92l-2.52,2.93c-.42.49-.84.98-1.23,1.49l-1.24,1.57c-1.95,2.24-3.35,4.8-4.64,6.83-10.54,16.83-18.83,35.33-23.61,54.72-.59,2.42-1.24,4.83-1.76,7.27l-1.38,7.33c-.21,1.22-.49,2.44-.65,3.67l-.49,3.69c-.31,2.46-.67,4.92-.93,7.38l-.57,7.39c-.08,1.23-.22,2.47-.25,3.7l-.11,3.69c-.06,2.46-.17,4.93-.17,7.38l.13,7.36c.03,1.22.02,2.46.09,3.67l.22,3.66c.16,2.44.27,4.88.46,7.31l.71,7.26c.13,1.21.22,2.42.38,3.63l.48,3.6.98,7.2,1.18,7.14.6,3.57.69,3.54,1.37,7.07c7.84,37.57,19.84,73.37,30.14,109.02,5.13,17.82,9.92,35.63,13.32,53.5.42,2.23.9,4.49,1.22,6.66.34,2.19.75,4.37.98,6.57.26,2.19.59,4.38.74,6.57.19,2.19.41,4.38.48,6.57.46,8.76.17,17.49-.98,26.05-2.32,17.12-8.35,33.5-17.99,47.75-4.74,7.17-10.44,13.75-16.68,19.83-6.24,6.09-13.14,11.59-20.47,16.57,6.23-4.53,12.04-9.46,17.27-14.71,6.71-6.2,12.62-13.1,17.74-20.46,2.5-3.72,4.88-7.51,6.89-11.48,2.11-3.93,3.85-8.03,5.45-12.17,3.06-8.35,5.25-17.03,6.3-25.95,1.09-8.91,1.25-17.99.61-27.1-.17-2.28-.42-4.56-.63-6.83l-.92-6.83c-.4-2.28-.75-4.53-1.18-6.84l-1.41-7c-1.98-9.33-4.22-18.65-6.77-27.97-5-18.64-10.91-37.27-16.71-56.1-5.8-18.86-11.64-37.89-16.51-57.46-2.5-9.75-4.63-19.69-6.53-29.72-.87-5.04-1.8-10.07-2.45-15.18-.79-5.08-1.28-10.24-1.82-15.38-.27-2.57-.38-5.18-.57-7.78l-.26-3.9c-.09-1.3-.08-2.61-.13-3.92l-.19-7.85.15-7.89c.04-1.32.04-2.63.11-3.95l.27-3.96c.21-2.64.32-5.28.62-7.92.66-5.27,1.2-10.56,2.27-15.81,3.62-21.06,11.2-41.57,21.51-60.33.82-1.63,1.84-3.14,2.78-4.69l2.87-4.64,1.59-2.57c.53-.96,1.25-1.79,1.95-2.69l1.95-2.46c.58-.76,1.22-1.47,1.84-2.21,4.95-5.85,10.42-11.32,16.29-16.31,11.73-10.05,24.98-17.89,38.28-24.5-13.06,6.32-26.26,14.02-38.07,24.04-5.89,4.99-11.42,10.51-16.41,16.44-.62.75-1.27,1.47-1.86,2.23l-1.93,2.46c-.69.94-1.47,1.75-2,2.74l-1.62,2.64-2.88,4.73c-.94,1.59-1.96,3.12-2.78,4.79-9.37,16.57-16.42,34.46-20.84,52.94-.32,1.15-.56,2.31-.78,3.47l-.69,3.49c-.44,2.33-.98,4.65-1.32,6.99l-1,7.03c-.16,1.17-.35,2.35-.48,3.52l-.32,3.53c-.21,2.35-.42,4.71-.63,7.07-.13,2.35-.21,4.71-.31,7.07-.28,4.73-.14,9.42-.14,14.15v1.77l.09,1.76.16,3.52c.13,2.35.18,4.72.38,7.06s.4,4.68.6,7.03c.11,1.17.19,2.35.32,3.52l.42,3.5c.28,2.34.56,4.68.85,7.02.35,2.32.7,4.65,1.05,6.98.66,4.69,1.58,9.29,2.4,13.95,3.54,18.57,8.27,36.99,13.48,55.57,3.36,11.42,7.03,23.09,10.76,34.86s7.51,23.64,10.96,35.48c3.46,11.84,6.61,23.67,9.12,35.31.3,1.45.61,2.91.91,4.35l.45,2.17.37,2.1c.24,1.39.49,2.79.73,4.17.22,1.39.38,2.77.58,4.15.43,2.76.6,5.5.89,8.22.1,1.36.15,2.71.23,4.05.08,1.35.15,2.69.14,4.01.21,8.68-.25,17.1-1.45,25.27-1.21,8.16-3.26,16.03-6.06,23.62-2.78,7.59-6.49,14.83-10.96,21.7-4.46,6.88-9.72,13.36-15.73,19.35-15.97,14.93-35.6,26.39-56.44,35.26-6.21,2.32-12.93,4.61-19.89,6.82.23-.11.66-.32.81-.43,6.21-3.57,20.23-9.65,37.83-20.47,4.37-2.74,8.95-5.76,13.6-9.16,4.63-3.43,9.34-7.2,13.96-11.41,9.23-8.4,18.04-18.61,24.7-30.71,6.65-12.1,11.19-26.02,12.5-41.4.68-7.68.63-15.68-.14-23.9-.37-4.11-.95-8.28-1.67-12.48-.33-2.1-.82-4.22-1.21-6.34-.18-1.03-.48-2.2-.73-3.31-.26-1.12-.51-2.25-.77-3.38s-.51-2.26-.77-3.39c-.28-1.13-.57-2.27-.86-3.41-.58-2.28-1.16-4.56-1.74-6.86-1.28-4.61-2.49-9.22-3.9-13.91-2.69-9.34-5.72-18.84-8.83-28.49-6.25-19.29-13.04-39.2-19.38-59.8-3.13-10.34-6.18-20.82-8.93-31.54-.7-2.66-1.32-5.39-1.99-8.08l-.98-4.05-.9-4.1c-.58-2.74-1.2-5.47-1.75-8.22-.52-2.78-1.04-5.55-1.55-8.32-3.93-22.25-5.99-45.49-4.34-68.83.09-1.46.19-2.91.28-4.36.16-1.46.33-2.91.49-4.37.35-2.91.61-5.81,1.06-8.7.99-5.77,1.87-11.53,3.31-17.18.33-1.42.66-2.83,1-4.24.17-.7.32-1.41.51-2.11l.61-2.09c.83-2.78,1.65-5.55,2.48-8.31.39-1.39.89-2.73,1.38-4.08.49-1.35.98-2.69,1.47-4.03,1.02-2.67,1.9-5.39,3.09-7.95,1.14-2.59,2.28-5.17,3.41-7.74l.86-1.92c.3-.63.63-1.24.94-1.86.64-1.24,1.27-2.47,1.91-3.7,1.29-2.45,2.52-4.93,3.85-7.31,1.4-2.34,2.79-4.67,4.18-6.98.8-1.32,1.61-2.64,2.41-3.96l.73-1.19.86-1.11,1.77-2.29,1.41-1.81c.44-.58.91-1.13,1.37-1.68.93-1.11,1.86-2.21,2.79-3.31,3.81-4.31,7.77-8.43,11.9-12.2,8.25-7.56,16.98-13.91,25.53-19.16,8.55-5.3,16.89-9.5,24.73-13.17,7.83-3.62,15.19-6.7,21.93-9.46,6.75-2.76,12.94-5.23,18.54-7.58,11.22-4.66,20.07-8.86,26.97-12.74,3.47-1.93,6.46-3.75,9.03-5.45,2.6-1.68,4.76-3.25,6.62-4.61,2.92-2.21,5.71-4.47,8.35-6.87,2.61-2.42,5.15-4.91,7.54-7.58,2.37-2.69,4.71-5.44,6.86-8.44,1.13-1.44,2.13-3.02,3.21-4.54,1.03-1.57,2.05-3.16,3.05-4.79,7.92-13.07,14.26-28.48,19.08-45.29,2.42-8.4,4.48-17.16,6.23-26.18.41-2.27.83-4.55,1.24-6.83.37-2.31.73-4.62,1.1-6.94.21-1.33.42-2.65.63-3.99.28-1.68.56-3.35.85-5.04l.22-1.26.3-1.23.6-2.45.62-2.45c.2-.82.41-1.64.68-2.42,1.04-3.15,2.01-6.37,3.31-9.35.62-1.51,1.22-3.05,1.89-4.52.7-1.45,1.4-2.9,2.1-4.35l1.06-2.17,1.15-2.08c.77-1.38,1.55-2.77,2.32-4.15.81-1.35,1.65-2.65,2.47-3.98.84-1.32,1.65-2.67,2.54-3.91,6.95-10.23,14.74-19.43,22.93-28.12,5.49-5.78,10.77-11.11,15.88-16.17,5.13-4.98,10.07-9.73,14.91-14.11,9.68-8.82,18.9-16.45,28.23-22.79,2.57-.38,11.91-6.64,21.07-12.91,5.54-4.5,10.95-9.07,16.12-13.72,2.55-2.33,5.12-4.67,7.54-7.03,1.23-1.18,2.45-2.36,3.61-3.55l1.52-1.56c.41-.41.77-.79,1.09-1.24.15-.2.38-.47.46-.6l.08-.11.14-.19.47-.59,1.87-2.36c1.23-1.6,2.53-3.09,3.83-4.57,1.3-1.49,2.6-2.98,3.89-4.46,1.34-1.41,2.67-2.82,4-4.23,5.32-5.64,10.85-10.76,16.37-15.67,11.07-9.73,22.31-18.13,33.27-25.42,10.97-7.28,21.67-13.46,31.9-18.53,7.01-3.82,16.32-10.6,26.38-18.6s20.85-17.23,30.68-26.04c9.85-8.81,18.65-17.23,25.3-23.48,6.62-6.27,11.13-10.37,12.99-10.45,13.34-.71,15.27-1.04,20.07-6.29,1.17-1.34,2.51-2.99,4.25-5.05.82-1.04,1.74-2.19,2.76-3.48,1-1.28,2.23-2.63,3.38-4.19,1.19-1.55,2.55-3.21,4-5.03,1.36-1.87,2.89-3.79,4.58-6.02.84-1.17,1.72-2.38,2.64-3.66.47-.63.94-1.27,1.43-1.93.5-.69,1-1.39,1.52-2.11,1.05-1.42,2.14-2.91,3.27-4.45.56-.77,1.18-1.54,1.74-2.35.54-.81,1.1-1.63,1.67-2.47.53-.82,1.31-1.81,2.28-2.93.48-.56,1.02-1.16,1.59-1.79.58-.62,1.19-1.28,1.81-2.03,1.27-1.46,2.66-3.04,4.13-4.72,1.49-1.67,3.07-3.42,4.6-5.37,1.55-1.91,3.14-3.89,4.71-5.89.8-.99,1.56-2.02,2.29-3.07s1.46-2.09,2.18-3.13c1.42-2.09,2.8-4.14,4.01-6.18,1.18-2.07,2.25-4.08,3.15-5.99.72-1.63,1.43-3.22,2.12-4.78.67-1.58,1.32-3.13,1.96-4.65,1.3-3.02,2.54-5.92,3.74-8.71,2.32-5.65,4.64-10.77,6.71-15.75,2.15-4.94,4.19-9.61,6.18-14.19,2.02-4.58,4-9.07,6.01-13.61,2.05-4.54,3.98-9.2,6.11-14.06,1.01-2.45,2.05-4.95,3.12-7.53.53-1.29,1.07-2.6,1.62-3.94.52-1.34,1.05-2.7,1.59-4.09,1.06-2.78,2.23-5.65,3.3-8.66.54-1.51,1.1-3.04,1.66-4.61.28-.79.56-1.58.85-2.38.14-.4.29-.8.43-1.21.15-.44.29-.88.44-1.33.59-1.78,1.19-3.6,1.8-5.46.3-.93.61-1.87.92-2.82l.23-.72c.08-.26.13-.37.2-.56.13-.35.25-.69.38-1.04.12-.34.28-.73.37-1.03l.26-.88c.09-.29.18-.59.27-.89.1-.29.17-.68.25-1.02.16-.72.36-1.36.5-2.17.15-.79.3-1.59.46-2.4.98-4.99,1.57-10.43,1.96-15.73.38-5.34.55-10.62.64-15.71.15-10.23-.08-19.77-.4-28.72-.65-17.92-1.63-33.46-2.1-48.8s-.52-30.54.98-47.97c.77-8.72,1.94-18,3.88-28.12,1.95-10.11,4.65-21.08,8.77-33,.26-.72.68-1.99,1.24-3.73.28-.87.6-1.86.95-2.95.38-1.09.81-2.3,1.26-3.6.87-2.6,2.06-5.6,3.34-8.9,1.38-3.3,2.88-6.92,4.75-10.74,3.66-7.64,8.45-16.17,14.66-24.53,6.15-8.39,13.95-16.46,22.66-23.16,8.71-6.72,18.31-12,27.57-15.56,9.26-3.64,18.1-5.67,25.58-6.89,7.5-1.28,13.68-1.66,17.97-1.89,2.15-.16,3.82-.14,4.96-.16,1.14-.01,1.75-.02,1.75-.02,3.46-.2,6.87-.41,10.25-.61,3.2-.11,6.32-.53,9.41-.81,6.18-.65,12.15-1.63,17.92-2.81,11.54-2.39,22.25-5.83,32.09-10.2,19.67-8.79,35.79-21.32,48.4-36.15,6.31-7.42,11.76-15.4,16.37-23.82,4.59-8.43,8.36-17.28,11.33-26.45,5.92-18.36,8.81-37.99,8.27-58.65,4.72-23.27,5.31-49.72,1.84-76.85-3.47-27.15-10.95-54.98-21.54-81.69-10.58-26.74-24.26-52.37-39.75-75.76-15.49-23.43-32.78-44.59-50.3-63.27-2.21-2.29-4.4-4.63-6.54-6.75-2.12-1.98-4.2-3.93-6.25-5.84-.99-1-2.12-1.8-3.17-2.67-1.07-.86-2.13-1.71-3.18-2.55-.52-.42-1.05-.84-1.57-1.26-.51-.43-1.04-.83-1.6-1.19-1.09-.75-2.17-1.49-3.24-2.22s-2.13-1.46-3.19-2.19l-.79-.54-.83-.48c-.55-.32-1.1-.64-1.64-.95-1.09-.63-2.17-1.26-3.24-1.88-.54-.31-1.07-.62-1.6-.93-.52-.32-1.06-.61-1.62-.87-2.2-1.07-4.37-2.13-6.51-3.18-1.05-.55-2.18-.96-3.27-1.41-1.09-.44-2.18-.89-3.26-1.32s-2.14-.88-3.22-1.29c-1.1-.37-2.19-.74-3.28-1.1s-2.17-.72-3.24-1.08c-1.07-.36-2.13-.73-3.24-1-2.18-.59-4.34-1.18-6.48-1.76-2.13-.58-4.35-.98-6.48-1.47-1.07-.23-2.14-.46-3.21-.69-1.06-.23-2.17-.39-3.24-.58-2.16-.37-4.31-.73-6.44-1.1-2.17-.29-4.33-.59-6.49-.88-1.07-.14-2.15-.28-3.22-.42-1.09-.12-2.18-.23-3.27-.35-2.17-.22-4.34-.45-6.5-.67-2.2-.18-4.39-.37-6.59-.55-4.35-.38-8.89-.65-13.35-.96-4.57-.29-9.17-.59-13.83-.88-2.35-.15-4.72-.31-7.11-.46-2.42-.18-4.86-.36-7.32-.55-1.23-.09-2.47-.19-3.71-.28-1.26-.11-2.52-.23-3.79-.35-2.54-.24-5.1-.45-7.71-.73-5.25-.61-10.61-1.17-16.21-2.06-5.57-.74-11.36-1.89-17.32-3-5.98-1.35-12.16-2.67-18.54-4.56-1.81-.56-3.58-1.1-5.33-1.68-1.73-.64-3.44-1.27-5.12-1.89-3.35-1.27-6.62-2.42-9.69-3.84-3.09-1.37-6.08-2.7-8.97-3.99-2.83-1.44-5.57-2.83-8.22-4.18-1.32-.68-2.63-1.34-3.91-2-1.25-.71-2.48-1.41-3.69-2.1-2.43-1.36-4.78-2.67-7.05-3.93-1.16-.6-2.23-1.29-3.3-1.93-1.08-.64-2.14-1.27-3.18-1.89-2.09-1.22-4.14-2.38-6.14-3.46-2.01-1.08-4.14-2.67-6.54-4.45-1.19-.9-2.43-1.87-3.71-2.9-1.27-1.04-2.64-2.1-3.91-3.33-2.59-2.41-5.31-5.05-8.13-7.82-.69-.7-1.44-1.38-2.11-2.12-.67-.74-1.35-1.49-2.04-2.25-1.36-1.52-2.74-3.06-4.14-4.62-1.39-1.56-2.79-3.14-4.21-4.73-1.32-1.64-2.66-3.3-3.99-4.96-1.34-1.65-2.68-3.31-4.02-4.96l-2.01-2.47c-.32-.37-.72-.91-1.09-1.4l-1.13-1.49c-6.05-7.94-11.16-16.44-15.25-24.33.1,3.22.25,6.55.66,9.86-1.65-2.61-3.52-5.99-5.43-9.76-.9-1.9-1.9-3.88-2.77-5.94-.84-2.06-1.79-4.17-2.55-6.29-3.22-8.5-5.32-17.08-6.45-22.74-.53-2.81-.95-4.73-1.34-5.99-.36-1.25-.66-1.82-.95-1.96-.57-.28-1.12,1.2-1.58,2.72-.93,3.05-1.81,6.18-3.12,6.02-.65-.09-1.41-1-2.33-3.2-.93-2.21-1.92-5.66-2.88-10.72-.84-6.08-1.28-11.95-1.62-17.78-.27-5.76-.39-11.46-.32-16.97.1-11.08.76-21.61,1.57-31.84,1.67-20.37,3.96-39.37,5.43-57.51,3.07-17.68,5.36-34.37,6.01-50.27.67-15.9-.14-31.06-2.9-45.7.65-1.07,1.27-2.23,1.77-3.69.24-.73.47-1.54.62-2.45.14-.9.22-1.9.25-3.04-.91-4.49-2.12-8.9-3.39-13.34-.71-2.19-1.38-4.4-2.14-6.59l-1.18-3.27-.59-1.64-.65-1.62c.48-3.4,1.88-5.27,3.24-6.85,1.33-1.57,2.64-2.86,2.81-5.26,2.46-1.41,3.72-5.15,3.99-9.94.16-2.4.16-5.11-.06-7.87-.2-2.78-.44-5.71-.82-8.52-.62-5.69-1.43-11.08-1.05-15,.36-3.91,1.9-6.2,5.7-5.65,2.52.9,14.92,14.17,26.48,32.51,5.79,9.13,11.33,19.47,15.95,29.47,4.65,9.98,8.39,19.59,11.44,26.98,1.62,3.38,2.41.76,3.06-3.83.29-2.29.48-5.05.75-7.79.22-2.73.44-5.41.89-7.51,3.15,10.3,5.16,18.26,6.75,24.06.4,1.45.79,2.76,1.15,3.94.34,1.18.66,2.24.98,3.17.63,1.85,1.23,3.2,1.74,4.09,2.03,3.53,3.66-.46,3.9-9.72,2.26,10.17,3.58,20.35,3.58,20.35.52-1.34,1.64-4.04,2.49-6.46.86-2.43,1.61-4.52,1.61-4.52,1.34,6.99,2.34,14.02,3.21,21.08.81,7.05,1.39,14.12,1.79,21.17.36,7.03.55,14.05.57,21.03,0,6.95-.15,13.86-.4,20.7-1.06,27.28-4.03,53.41-5.51,76.62-.72,11.55-1.03,22.33-.55,31.68.47,9.36,1.78,17.06,3.64,22.9,1.88,5.89,4.08,10.07,7.28,14.5l.62.83.3.42.08.11.15.17.3.34,2.39,2.77c1.58,1.85,3.14,3.71,4.69,5.58,1.61,1.75,3.2,3.49,4.8,5.22,1.59,1.74,3.11,3.56,4.77,5.11,1.43,1.35,2.95,2.84,4.54,4.46.4.41.8.82,1.21,1.23.43.38.86.77,1.29,1.16.87.79,1.76,1.6,2.66,2.42.9.84,1.81,1.69,2.74,2.56l.69.66.73.6c.49.41.98.81,1.48,1.22.99.83,1.98,1.67,2.98,2.51,1.01.83,1.97,1.78,3.05,2.52,8.22,6.65,17.48,12.44,25.39,16.73,1.98,1.05,4.62,2.24,7.79,3.16,1.56.49,3.2.98,4.88,1.47,1.71.44,3.51.82,5.26,1.22.88.19,1.76.39,2.62.58.43.09.86.19,1.29.28.44.08.88.15,1.32.23,1.74.3,3.42.59,4.99.86,3.09.59,5.95.91,7.85,1.27,1.57.82,2.88,1.61,4.04,2.35,1.18.72,2.17,1.41,3,2.08,1.66,1.34,2.71,2.58,3.51,3.79,1.59,2.43,2.27,4.65,5.01,7.18,8.07.92,17.66,1.75,28.31,2.75,10.64.98,22.54,2.1,35.25,3.87,12.7,1.77,26.28,4.21,39.99,7.99,3.44,1.02,6.86,1.97,10.27,3.08,3.42,1.21,6.82,2.41,10.19,3.61,3.36,1.34,6.69,2.78,9.98,4.18.82.36,1.65.69,2.45,1.08.81.4,1.61.8,2.41,1.19,1.6.8,3.19,1.6,4.77,2.4,1.57.82,3.16,1.56,4.68,2.44,1.51.89,3.02,1.78,4.51,2.65,2.96,1.8,5.95,3.45,8.66,5.42,2.75,1.91,5.44,3.8,8.05,5.67,2.54,1.95,4.93,3.97,7.28,5.9,1.17.98,2.32,1.94,3.45,2.9,1.13.95,2.13,1.99,3.17,2.97,2.05,1.98,4.02,3.91,5.89,5.79,1.99,1.93,3.36,3.58,4.84,5.25,1.45,1.66,2.82,3.25,4.1,4.79,5.03,6.23,8.68,11.45,10.5,15.39,1.86,3.9,2.06,6.37.28,7.1,9.99,11.32,17.09,21.1,22.89,29.95,5.7,8.91,10.15,16.87,14.27,25.05,1.03,2.04,2.06,4.09,3.1,6.16,1,2.09,2.01,4.21,3.05,6.37,2.11,4.3,4.15,8.86,6.44,13.72,4.46,9.79,9.59,20.97,15.64,35.13,3.97,9.39,7.73,19.24,11.3,29.46,3.48,10.26,6.79,20.89,9.7,31.89,2.88,11.02,5.44,22.38,7.56,34.05,2.11,11.67,3.72,23.66,4.83,35.88,1.1,12.22,1.66,24.68,1.55,37.31-.13,12.62-.94,25.4-2.56,38.22-3.24,25.61-9.73,51.51-20.79,75.95-6.23,13.27-13.73,25.94-22.54,37.67-8.77,11.75-19.04,22.44-30.44,31.68-11.41,9.23-23.93,17.11-37.22,23.07-13.26,6.02-27.15,10.34-41.2,13.11-2.62.51-5.24,1.05-7.85,1.37-2.61.37-5.21.76-7.8,1.09-5.18.47-10.32,1.07-15.39,1.21-4.43.21-8.82.42-13.16.62-1.94.19-3.86.37-5.77.55-1.89.24-3.74.55-5.59.81-1.27.14-2.46.47-3.68.7-1.21.26-2.45.46-3.64.77-2.34.66-4.76,1.16-7,1.99-4.61,1.39-8.87,3.32-12.98,5.41l-3.01,1.66c-.99.57-1.92,1.23-2.89,1.82l-1.44.91-1.36,1.01c-.9.69-1.85,1.3-2.72,2.03-3.54,2.8-6.76,6.01-9.8,9.42-3.01,3.45-5.69,7.25-8.21,11.22-2.47,4.02-4.66,8.3-6.68,12.72-3.91,8.95-7,18.52-9.25,28.5-1.19,4.96-2.09,10.05-2.96,15.14-.78,5.13-1.51,10.28-2.03,15.49-1.11,10.4-1.74,20.92-2.04,31.5-.62,21.15,0,42.44.84,63.82.42,10.71.9,21.44,1.25,32.31s.59,21.85.3,33.25c-.17,5.73-.48,11.56-1.16,17.69-.17,1.53-.34,3.06-.59,4.67l-.35,2.38c-.12.79-.3,1.64-.44,2.45l-.47,2.47c-.18.84-.4,1.72-.61,2.58-.21.85-.41,1.76-.64,2.55l-.69,2.3c-1.62,5.51-2.64,9.74-4.32,15.21-.78,2.6-1.55,5.2-2.33,7.8-.82,2.58-1.63,5.16-2.44,7.73-6.55,20.58-14.01,40.69-22.31,60.51-8.34,19.8-17.54,39.29-28.31,58.34l-4.18,7.1c-1.41,2.36-2.75,4.74-4.29,7.07-3.02,4.67-5.9,9.38-9.24,13.96-1.63,2.29-3.23,4.62-4.89,6.88l-5.13,6.56-2.57,3.28-2.7,3.3-2.7,3.3c-.89,1.1-1.93,2.18-2.9,3.27-7.82,8.76-16.15,16.7-24.75,23.93-8.59,7.26-17.41,13.95-26.34,20.29-17.88,12.58-36.14,23.8-54.33,34.63-18.19,10.83-36.36,21.27-53.98,32.12-8.83,5.42-17.51,10.94-25.92,16.67s-16.62,11.64-24.35,17.88c-7.71,6.25-14.97,12.8-21.48,19.74l-2.45,2.6-2.28,2.67-3.51,4.14c-.69.72-1.44,1.39-2.14,2.07l-1.82,1.72c-4.33,4.09-8.71,7.93-13.11,11.72-17.61,15-35.62,28.47-52.97,42.34-8.67,6.92-17.19,13.92-25.33,21.16-8.11,7.24-15.81,14.75-22.72,22.61l-2.52,3c-.85,1-1.68,2-2.45,3.02l-2.36,3.05-2.18,3.09-1.09,1.55-.99,1.57c-.65,1.05-1.35,2.09-1.97,3.14-1.16,2.11-2.43,4.22-3.38,6.36-1.12,2.12-1.86,4.28-2.78,6.42-.66,2.15-1.5,4.3-1.93,6.46-.64,2.17-.83,4.28-1.25,6.53l-1.11,9.16c-3.19,24.42-8.25,49.08-17.31,73.12-2.35,5.99-4.84,11.94-7.76,17.78-2.92,5.83-6.09,11.57-9.68,17.12-7.18,11.08-15.82,21.44-25.76,30.31-9.93,8.89-21,16.23-32.33,22.25-11.34,6.04-22.91,10.82-34.2,15.19-11.31,4.37-22.38,8.36-32.9,12.78-10.52,4.4-20.49,9.25-29.5,15.12-9.02,5.85-17.07,12.72-23.91,20.75-1.86,2.24-2.94,3.41-4.3,5.74l-4.42,6.99-3.97,7.23-1,1.8c-.31.61-.59,1.24-.88,1.86l-1.75,3.72-1.75,3.72c-.54,1.26-1.01,2.54-1.52,3.81l-1.51,3.82-.76,1.91c-.24.64-.43,1.3-.65,1.95l-2.54,7.8-2.05,7.95c-2.49,10.67-3.98,21.59-4.58,32.63l-.28,8.3.1,8.34c0,1.39.09,2.78.16,4.17l.23,4.18c.1,2.78.39,5.57.65,8.36,1.06,11.15,2.7,22.31,4.94,33.42,2.21,11.11,4.84,22.19,7.74,33.23,2.94,11.04,6.1,22.06,9.36,33.07,6.52,22.05,13.45,44.09,19.32,66.62,2.93,11.26,5.66,22.62,7.8,34.17.59,2.83,1.04,5.88,1.53,8.84.47,2.98.8,6,1.17,9l.41,4.54.2,2.27.12,2.28.23,4.56.06,4.58c.09,3.05-.1,6.13-.17,9.19-.09,1.53-.21,3.07-.32,4.6l-.17,2.3-.26,2.3-.55,4.59-.74,4.58c-.22,1.53-.55,3.04-.87,4.56-.34,1.51-.59,3.04-1,4.54-1.43,6.04-3.36,11.96-5.57,17.76-2.27,5.79-4.97,11.39-7.95,16.81-3.05,5.39-6.45,10.54-10.1,15.48-3.72,4.87-7.67,9.52-11.86,13.9-8.43,8.68-17.65,16.36-27.35,22.98-4.82,3.37-9.8,6.4-14.8,9.34-5.04,2.84-10.1,5.6-15.26,8.06-10.28,5.01-20.73,9.33-31.25,13.06-21.05,7.49-42.3,12.89-63.4,17.02-21.1,4.12-42.06,6.98-62.75,8.98-41.39,3.96-81.7,4.67-120.55,3.69-38.86-1.02-76.28-3.76-112.09-7.57-35.8-3.81-69.99-8.65-102.39-14.15-32.41-5.48-63.03-11.62-91.72-18.09-57.38-12.96-107.04-27.27-147.79-40.95-40.76-13.66-72.62-26.7-94.57-36.7-16.24-9.56-32.22-19.71-47.84-30.48l.08.08h0Z"/>
        </g>
        <g>
          <path class="st45" d="M2534.55,364.36c-555.24,6.35-654.09,255.75-1102.18,270.58h1792.15c-169.76-124.94-369.59-274.23-689.97-270.58h0Z"/>
          <path class="st45" d="M1657.44,911.83c-460.13,4.85-542.06,194.61-913.41,205.88h1485.21c-140.69-95.07-306.3-208.66-571.8-205.88h0Z"/>
          <path class="st45" d="M967.61,607.15c422.41,6.39,497.63,256.1,838.54,270.92H442.69c129.14-125.09,281.18-274.58,524.92-270.92Z"/>
        </g>
        <path class="st44" d="M936.38,211.5c-137.02-50.32-276.39-46.65-335.25-46.65-70.34,0-127.12,4.9-192.41,27.18-28.39,96.08-41.59,149.64-105.83,235.01,98.52-31.05,151.64-18.97,278.68-62.74,62.83-21.64,73.47-9.28,192.15-93.84,50.11-35.7,134.81-30.42,162.65-58.95h.01Z"/>
        <g>
          <path class="st17" d="M611.13,112.97h-18.35v4.05h18.35v-4.05h0ZM611.13,121.41h-18.35v4.05h18.35v-4.05h0ZM611.13,130.26h-18.35v4.05h18.35v-4.05h0ZM645.73,89.5h-22.63v4.05h22.63v-4.05h0ZM645.73,98.35h-22.63v4.05h22.63v-4.05h0ZM645.73,106.79h-22.63v4.05h22.63v-4.05h0ZM645.73,115.65h-22.63v4.07h22.63v-4.07h0ZM708.5,78.19h-22.65v4.05h22.65v-4.05h0ZM708.5,87.04h-22.65v4.05h22.65v-4.05h0ZM708.5,95.47h-22.65v4.05h22.65v-4.05h0ZM708.5,104.32h-22.65v4.07h22.65v-4.07h0ZM611.13,104.11h-18.35v4.05h18.35v-4.05h0ZM719.85,145.38h2.81v10.36h-141.08v-10.36h3.75v-48.53h26.05v-14.09h34.56v-14.94h73.9v77.56h.01Z"/>
          <g>
            <rect class="st39" x="509.55" y="18.21" width="83" height="15"/>
            <rect class="st39" x="542.09" y="31.29" width="17.92" height="124.44"/>
          </g>
        </g>
        <g>
          <path class="st31" d="M164.14,495.12v144.79l-2.04,2.04-94.73.02-2.04-2.03v-144.81l2.04-2.03h94.73l2.04,2.03h0Z"/>
          <path class="st39" d="M-38.72,532.82v107.11l2.03,2.03H58.05l2.05-2.03v-107.11l-2.05-2.03H-36.69s-2.03,2.03-2.03,2.03Z"/>
          <path class="st32" d="M129.88,506.7v20.89l22.12-.02,2.08,2.08v24.58c0,2.22-1.36,3.31-4.09,3.31l-20.11.02v20.88c0,2.22-1.1,3.31-3.31,3.31h-24.2c-1.64-.96-2.46-2.2-2.46-3.69v-20.5h-20.49c-1.5,0-2.73-.83-3.71-2.46v-24.2c0-2.22,1.1-3.33,3.32-3.33l20.88.02v-20.11c0-2.73,1.11-4.09,3.32-4.09h24.58c1.38.71,2.07,1.82,2.07,3.31h0Z"/>
          <path class="st32" d="M50.64,565.03c-12.66,13.93-25.28,20.89-37.9,20.89h-2.71c-12.29,0-24.93-6.96-37.93-20.89,13.22-13.94,25.47-20.91,36.74-20.91h4.27c12.34,0,24.85,6.96,37.53,20.91ZM42.92,564.65c-9.69-8.27-17.55-12.9-23.61-13.91,5.43,3.94,8.12,8.44,8.12,13.5v1.57c0,5.77-2.84,10.16-8.54,13.13v.41h.41c6.53-1.08,14.41-5.86,23.61-14.33v-.38h.01ZM3.46,550.74c-6.81,1.31-14.68,6.07-23.61,14.29,8.92,8.09,16.79,12.87,23.61,14.33h.36v-.41c-5.66-3.47-8.49-7.99-8.49-13.5,0-6.25,2.83-11.03,8.49-14.34v-.36h-.36,0Z"/>
        </g>
        <g>
          <path class="st31" d="M-31.45,735.89H63.28l2.04,2.03v144.81l-2.04,2.03H-31.45l-2.04-2.03v-144.81l2.04-2.03Z"/>
          <path class="st39" d="M167.34,773.59h-94.74l-2.05,2.04v107.11l2.05,2.03h94.74l2.03-2.03v-107.11l-2.03-2.04Z"/>
          <path class="st10" d="M44.45,828.79c23.34-18.61-1.34-32.82-.84-47.61-4.28,2.05-7.86,6.34-9.18,10.5-2.07-14.33-21.24-18.84-13.24-33.46-11.45,5.77-27.35,15.14-25.72,38.34-.21-5.44-7.91-3.32-8.44-12.14-13.8,16.36-11.71,30.83-1.02,44.37H.82c-16.43-20.03,18.4-25.46,11.45-38.23,6.11,3.09,14.64,8.12,13.75,20.53.12-2.89,4.25-1.77,4.51-6.47,7.55,8.9,6.24,16.79.23,24.17h13.71-.02Z"/>
          <g>
            <polygon class="st32" points="96.48 807.47 96.48 829.37 138.93 829.37 138.93 806.84 115.54 815.11 96.48 807.47"/>
            <polygon class="st32" points="147 799.03 143.13 800.4 143.29 815.26 141.48 834.17 145.99 835.51 150.94 834.17 147.07 815.18 147 799.03"/>
            <path class="st32" d="M121.41,795.06c-2.7.2-5.81-.89-6.99-2.43-1.18-1.52.06-2.89,2.75-3.08,2.68-.18,5.81.91,7,2.43.14.2.26.4.34.58l22.49,6.47,10.54-3.74-40.96-14.09-38.11,14.09,37.08,14.87,27.58-9.76-19.68-5.82c-.53.26-1.22.43-2.04.48h0Z"/>
          </g>
        </g>
        <g>
          <path class="st27" d="M398.5,641.8v-69.05h6.04v-8.85l-20.91-21.35-29.66-30.21-29.61,30.21-20.88,21.31v8.9h6.24v69.05h17.43v-29.49h21.36v29.49h49.99Z"/>
          <path class="st13" d="M327.15,641.8v-29.49h21.36v29.49h-21.36Z"/>
          <path class="st30" d="M253.11,544.01l-29.46,30.01-20.38,20.79v9.28h5.84v37.78h88.28v-37.78h5.19v-9.64l-20.01-20.43-29.47-30.01h.01Z"/>
          <g>
            <rect class="st37" x="265.47" y="612.65" width="15.33" height="17.58"/>
            <rect class="st37" x="248.19" y="571.68" width="10.02" height="11.45"/>
            <rect class="st37" x="224.13" y="612.65" width="15.33" height="17.58"/>
            <rect class="st37" x="244.19" y="612.65" width="15.33" height="17.58"/>
            <rect class="st37" x="329.9" y="578.46" width="15.86" height="18.96"/>
            <rect class="st37" x="366.4" y="579.72" width="15.4" height="17.63"/>
            <path class="st13" d="M354.32,541.54c3.71,0,6.74,3.01,6.74,6.75s-3.04,6.77-6.74,6.77-6.78-3.03-6.78-6.77,3.01-6.75,6.78-6.75Z"/>
            <rect class="st37" x="366.4" y="612.41" width="15.4" height="17.68"/>
          </g>
        </g>
        <g>
          <g>
            <path class="st31" d="M446.06,732.4h94.73l2.04,2.03v144.81l-2.04,2.03-94.73-.02-2.04-2.03v-144.79l2.04-2.03h0Z"/>
            <path class="st39" d="M644.85,770.1h-94.74l-2.04,2.04v107.11l2.04,2.03h94.74l2.04-2.03v-107.11l-2.04-2.04Z"/>
          </g>
          <g>
            <rect class="st37" x="452.17" y="742.57" width="18.34" height="18.35"/>
            <rect class="st37" x="452.17" y="769.07" width="18.34" height="18.48"/>
            <rect class="st37" x="452.17" y="796.72" width="18.34" height="18.34"/>
            <rect class="st37" x="481.72" y="742.57" width="18.33" height="18.35"/>
            <rect class="st37" x="481.72" y="769.07" width="18.33" height="18.48"/>
            <rect class="st37" x="481.72" y="796.72" width="18.33" height="18.34"/>
            <polygon class="st37" points="512.28 760.92 530.6 760.92 530.6 742.59 512.28 742.57 512.28 760.92"/>
            <polygon class="st37" points="512.28 787.55 530.6 787.57 530.6 769.07 512.28 769.07 512.28 787.55"/>
            <polygon class="st37" points="512.28 815.06 530.6 815.06 530.6 796.73 512.28 796.72 512.28 815.06"/>
            <rect class="st37" x="556.23" y="809.97" width="18.33" height="18.34"/>
            <rect class="st37" x="556.23" y="783.48" width="18.33" height="18.34"/>
            <rect class="st37" x="586.78" y="809.97" width="18.34" height="18.34"/>
            <rect class="st37" x="586.78" y="783.48" width="18.34" height="18.34"/>
            <rect class="st37" x="616.33" y="809.97" width="18.34" height="18.34"/>
            <rect class="st37" x="616.33" y="783.48" width="18.34" height="18.34"/>
          </g>
        </g>
        <g class="st38">
          <path class="st13" d="M1262.32,627.05c0,35.45-134.5,64.18-300.43,64.18s-300.43-28.73-300.43-64.18,134.52-64.18,300.43-64.18,300.43,28.73,300.43,64.18Z"/>
        </g>
        <path class="st13" d="M2273.92,637.52c0,23.87-85.76,43.22-191.55,43.22s-191.55-19.35-191.55-43.22,85.76-43.22,191.55-43.22,191.55,19.34,191.55,43.22Z"/>
        <g>
          <path class="st7" d="M512.35,1158.08c-66.91-153.08-107.25-302.17-125.36-377.49"/>
          <path class="st2" d="M380.95,754.74c-3.6-15.97-5.35-24.83-5.35-24.83"/>
        </g>
        <g>
          <path class="st3" d="M474.06-397.55c-27.98,526.05-159.82,942.73-207.9,1079.54"/>
          <path class="st2" d="M257.52,706.13c-5.71,15.62-8.95,23.77-8.95,23.77"/>
        </g>
        <path class="st5" d="M583.51,18.21c.74-4.16,1.45-8.34,2.15-12.53"/>
        <g>
          <path class="st5" d="M766.94,489.9c-3.06,2.95-6.13,5.87-9.2,8.76"/>
          <path class="st6" d="M726.75,526.4c-129.86,111-266.93,165.13-327.56,185.31"/>
          <path class="st5" d="M379.36,717.99c-7.92,2.36-12.22,3.44-12.22,3.44"/>
        </g>
        <g>
          <path class="st1" d="M-106.31,957.95c140.39-65.83,279.12-169.88,336.08-214.75"/>
          <path class="st5" d="M246.98,729.48c6.4-5.17,9.83-8.04,9.83-8.04"/>
        </g>
        <path class="st30" d="M362.07,857.18h12.7v23.46h-127.29v-23.46h13.46l13.68-80.18h-28.34l-1.34-.76-21.48-11.6-3.2-1.7v-17.88h13.32v-15.15h12.03v15.15h5.12v-15.15h12.04v15.15h17.26l6-35.17,1.16-6.78h46.18l1.22,6.67,6.57,35.28h17.28v-15.15h12.03v15.15h5.12v-15.15h12.05v15.15h10.07v18.96l-3.52,1.62-22.99,10.74-1.28.63h-22.78l14.93,80.18h0ZM299.92,724.99h21.08l-1.05-5.64h-19.06l-.97,5.64h0ZM322.56,733.44l-17.52,11.61h19.69l-2.18-11.61h.01,0ZM296.87,742.72l16.93-11.25h-15l-1.93,11.25h0ZM292.57,831.85h48.34l-3.05-16.38-45.28,16.38h-.01ZM342.38,839.82l-50.26,16.95h53.42l-3.16-16.95h0ZM277.79,854.79l48.67-16.43h-45.89l-2.79,16.43h.01ZM293.1,807.47h43.27l-3.28-17.6-39.99,17.6h0ZM282.24,828.74l40.78-14.79h-38.27l-2.51,14.79h0ZM290.2,781.93h41.39l-.9-4.93h-39.67l-.82,4.93h0ZM286.56,803.25l33.75-14.84h-31.22l-2.53,14.84h0ZM343.45,757.23l1.41,7.59h22.51l16.2-7.59h-40.12ZM276.7,764.82l1.3-7.59h-42.7l14.03,7.59h27.38,0ZM327,757.23h-32.6l-1.28,7.59h35.3l-1.42-7.59h0Z"/>
        <g>
          <polygon class="st28" points="867.89 540.04 867.89 628.73 997.59 628.73 978.7 553.68 867.89 540.04"/>
          <polygon class="st28" points="1037.56 540.04 1037.56 628.73 1167.25 628.73 1148.37 553.68 1037.56 540.04"/>
          <g>
            <g>
              <rect class="st39" x="747.86" y="495.49" width="83.01" height="15"/>
              <rect class="st39" x="780.41" y="508.57" width="17.91" height="124.44"/>
            </g>
            <path class="st15" d="M977.8,558.73l-102.92-13.17v78.74h118.08l-15.16-65.57h0ZM871.3,536.16l110.19,14.09,2.79.36.68,2.96,17.12,74.07,1.27,5.52h-146.23l1.13-32.57-12.01,32.57h-15.1l28.75-79.73.47-13.23,6.43-4.63,4.51.58h0Z"/>
            <g>
              <path class="st16" d="M912.81,589.56c-4.9-.3-9.88-.58-14.97-.88-5.19-.28-10.51-.6-15.9-.89v29.03h32.64c-.31-4.76-.6-9.43-.9-14.01-.3-4.52-.58-8.92-.86-13.25h-.01Z"/>
              <path class="st18" d="M947.8,591.58c-4.19-.26-8.47-.51-12.8-.76-4.42-.25-8.94-.51-13.54-.78.35,4.27.71,8.6,1.07,13.02.38,4.5.76,9.1,1.14,13.76h27.62c-.6-4.4-1.21-8.72-1.8-12.95-.57-4.19-1.14-8.27-1.7-12.29h0Z"/>
              <path class="st19" d="M946.69,583.71c-.53-3.84-1.07-7.61-1.59-11.3-.5-3.64-1.01-7.23-1.51-10.77-3.95-.5-8-.99-12.07-1.51-4.16-.53-8.41-1.06-12.75-1.6.34,3.72.65,7.49.98,11.31.33,3.89.67,7.87,1,11.91,4.54.35,8.98.66,13.36.99,4.26.33,8.47.65,12.58.96h0Z"/>
              <path class="st24" d="M976,585.92c-.74-3.57-1.44-7.13-2.15-10.62-.69-3.41-1.37-6.8-2.03-10.14-3.49-.43-7.01-.88-10.59-1.32-3.63-.45-7.33-.91-11.09-1.39.54,3.51,1.09,7.03,1.65,10.64.58,3.64,1.14,7.36,1.72,11.13,3.92.3,7.78.58,11.55.88,3.71.28,7.34.56,10.95.83h-.01,0Z"/>
              <path class="st22" d="M979.81,604.78c-.78-3.89-1.55-7.71-2.32-11.48-3.64-.22-7.34-.45-11.11-.64-3.82-.23-7.72-.46-11.69-.7.63,3.97,1.23,8.01,1.87,12.13.64,4.17,1.29,8.42,1.95,12.74h23.72c-.83-4.07-1.64-8.09-2.43-12.04h.01Z"/>
              <path class="st23" d="M912.25,581.11c-.28-4.1-.55-8.14-.82-12.11-.25-3.87-.49-7.71-.75-11.48-4.57-.56-9.21-1.14-13.96-1.74-4.83-.61-9.76-1.22-14.78-1.85v24.91c5.3.4,10.54.78,15.61,1.16,5,.38,9.89.74,14.71,1.11h-.01,0Z"/>
            </g>
            <path class="st15" d="M1144.64,558.73l-102.89-13.17v78.74h118.07l-15.18-65.57h0ZM1038.15,536.16l110.21,14.09,2.78.36.67,2.96,17.11,74.07,1.29,5.52h-146.25l1.14-32.57-12.02,32.57h-15.1l28.76-79.73.45-13.23,6.44-4.63,4.5.58h.02Z"/>
            <g>
              <path class="st25" d="M1079.67,589.56c-4.9-.3-9.88-.58-14.97-.88-5.18-.28-10.5-.6-15.89-.89v29.03h32.63c-.32-4.76-.62-9.43-.91-14.01-.3-4.52-.58-8.92-.86-13.25h0Z"/>
              <path class="st21" d="M1114.66,591.58c-4.19-.26-8.47-.51-12.79-.76-4.43-.25-8.95-.51-13.54-.78.35,4.27.71,8.6,1.07,13.02.38,4.5.75,9.1,1.14,13.76h27.62c-.6-4.4-1.21-8.72-1.8-12.95-.58-4.19-1.14-8.27-1.7-12.29h0Z"/>
              <path class="st20" d="M1113.55,583.71c-.52-3.84-1.07-7.61-1.58-11.3-.5-3.64-1.02-7.23-1.51-10.77-3.95-.5-8-.99-12.07-1.51-4.16-.53-8.41-1.06-12.74-1.6.33,3.72.64,7.49.98,11.31.34,3.89.66,7.87,1,11.91,4.53.35,8.97.66,13.34.99,4.27.33,8.47.65,12.59.96h-.01Z"/>
              <path class="st26" d="M1142.86,585.92c-.74-3.57-1.45-7.13-2.16-10.62-.67-3.41-1.36-6.8-2.03-10.14-3.49-.43-7.01-.88-10.59-1.32-3.62-.45-7.33-.91-11.09-1.39.54,3.51,1.1,7.03,1.65,10.64.58,3.64,1.14,7.36,1.71,11.13,3.93.3,7.78.58,11.55.88,3.71.28,7.34.56,10.95.83h.01Z"/>
              <path class="st9" d="M1146.66,604.78c-.78-3.89-1.55-7.71-2.32-11.48-3.64-.22-7.34-.45-11.09-.64-3.83-.23-7.73-.46-11.7-.7.63,3.97,1.23,8.01,1.87,12.13.65,4.17,1.29,8.42,1.96,12.74h23.71c-.83-4.07-1.65-8.09-2.43-12.04h0Z"/>
              <path class="st8" d="M1079.11,581.11c-.28-4.1-.55-8.14-.81-12.11-.25-3.87-.5-7.71-.76-11.48-4.57-.56-9.21-1.14-13.96-1.74-4.83-.61-9.76-1.22-14.76-1.85v24.91c5.29.4,10.51.78,15.59,1.16,5.01.38,9.89.74,14.71,1.11h-.01,0Z"/>
            </g>
            <polygon class="st29" points="1123.84 476.56 1133.53 476.56 1128.56 465.61 1123.84 476.56 1123.84 476.56"/>
            <polygon class="st29" points="1111.32 482.67 1119.72 477.82 1109.95 470.81 1111.32 482.67 1111.32 482.67"/>
            <polygon class="st29" points="1103.56 494.18 1108.38 485.8 1096.43 484.6 1103.56 494.18 1103.56 494.18"/>
            <polygon class="st29" points="1102.58 508.06 1102.58 498.37 1091.61 503.33 1102.58 508.06 1102.58 508.06"/>
            <polygon class="st29" points="1108.66 520.55 1103.82 512.16 1096.8 521.94 1108.66 520.55 1108.66 520.55"/>
            <polygon class="st29" points="1120.18 528.34 1111.79 523.49 1110.6 535.47 1120.18 528.34 1120.18 528.34"/>
            <polygon class="st29" points="1134.06 529.32 1124.37 529.32 1129.33 540.27 1134.06 529.32 1134.06 529.32"/>
            <polygon class="st29" points="1146.56 523.23 1138.15 528.08 1147.94 535.07 1146.56 523.23 1146.56 523.23"/>
            <polygon class="st29" points="1154.34 511.7 1149.49 520.1 1161.46 521.28 1154.34 511.7 1154.34 511.7"/>
            <polygon class="st29" points="1155.32 497.84 1155.32 507.51 1166.28 502.55 1155.32 497.84 1155.32 497.84"/>
            <polygon class="st29" points="1149.23 485.33 1154.07 493.72 1161.09 483.96 1149.23 485.33 1149.23 485.33"/>
            <polygon class="st29" points="1137.71 477.56 1146.1 482.39 1147.28 470.43 1137.71 477.56 1137.71 477.56"/>
            <path class="st29" d="M1128.95,479.49c12.95,0,23.45,10.49,23.45,23.46s-10.5,23.44-23.45,23.44-23.46-10.49-23.46-23.44,10.5-23.46,23.46-23.46h0Z"/>
          </g>
        </g>
        <path class="st4" d="M408.73,181.14c201.75-19.78,311.12-44.51,537.83,33.83"/>
        <path class="st40" d="M1077.67,194.1c-352.19,4.85-460.91,194.15-665.26,205.88h1102.92c-107.67-95.07-234.43-208.66-437.66-205.88Z"/>
        <polygon class="st46" points="1832.93 840.65 2023.49 921.11 2009.33 825.12 1832.93 840.65"/>
        <g>
          <path class="st44" d="M2220.77,743.48c-137.03,50.32-151.04,73.1-209.89,73.1-70.34,0-151.23,27.08-262.07,16.82-38.65-71.21-401.55-114.14-443.52-157.2,199.79,45.89,609.16,25.13,778.31,32.98,61.47,2.86,109.33,5.76,137.17,34.29h0Z"/>
          <polygon class="st33" points="1862.99 844.54 2201.27 758.79 2163.92 877.09 2023.91 913.35 1862.99 844.54"/>
          <path class="st4" d="M2237.76,734.77c-177.17,79.47-291.4,117.73-530.28,95.96"/>
        </g>
        <path class="st34" d="M372.08,89.73h-.89l-.73.73h-19.32l20.93,37.24h-.89l-.73.73h-29.81v27.49l-1.75,1.6h-28.22l-1.6-1.6v-27.49h-31.42c.41-2.51,7.4-15.19,20.97-37.96h-20.97v-1.6l46.86-79.85h1.59l45.98,80.72h0ZM280,77.66v.73c0,1.64-2.13,6.5-6.39,14.56h14.52l.73.86c.89,2.13,1.7,3.21,2.48,3.21l-19.36,33.89h20.24l5.52,4.78-1.6,1.6h-20.94v18.63l-1.59,1.6h-19.38l-1.58-1.6v-18.63h-22.7l-.73-.73,15.29-26.62h-14.57l-.73-.88,33.9-58.91c1.36.66,6.98,9.84,16.87,27.49l.02.02h0Z"/>
        <g>
          <path class="st11" d="M979.35,146.97v15.65h-17.6v-15.65h-25.57l5.24-15.52,18.81-17.04-2.2-2.66-11.71,5.23,4.8-14.21,18.38-16.64-2.2-2.65-11.36,5.05,15.04-44.45,17.4,51.46,1.59,4.65-9.99-4.45-2.2,2.65,16.69,15.12,5.34,15.8-12.87-5.74-2.2,2.66,20.16,18.26-.07-.32.94,2.8h-26.42ZM1070.4,16.6l21.74,63.64,1.95,5.77-12.46-5.51-2.75,3.29,20.84,18.69,6.68,19.54-16.1-7.08-2.75,3.28,25.21,22.6-.08-.38,1.17,3.44h-35.3v20.84h-17.4v-20.84h-34.26l6.55-19.19,23.51-21.09-2.75-3.28-14.64,6.45,6-17.57,22.96-20.58-2.75-3.29-14.21,6.27,18.81-55h.03,0Z"/>
          <path class="st14" d="M1041.99,151.12h-15.65v13.6h15.65v-13.6h0ZM1027.19,42.14c-13.25,0-24.02,10.57-24.02,23.62,0,3.39.73,6.6,2.03,9.53-5.86,3.67-9.74,10.11-9.74,17.45,0,8.87,5.66,16.43,13.61,19.39-.25,1.19-.4,2.42-.4,3.71,0,8.25,5.81,15.17,13.6,17.05l3.41-10.06,1.62-4.8c7.39-21.89,13.86-40.97,21.31-62.97-3.97-7.68-12.08-12.92-21.42-12.92Z"/>
        </g>
        <g>
          <path class="st11" d="M1460.16,146.97v15.65h-17.6v-15.65h-25.57l5.24-15.52,18.81-17.04-2.2-2.66-11.71,5.23,4.8-14.21,18.38-16.64-2.2-2.65-11.36,5.05,15.04-44.45,17.4,51.46,1.59,4.65-9.99-4.45-2.2,2.65,16.69,15.12,5.34,15.8-12.87-5.74-2.2,2.66,20.16,18.26-.07-.32.94,2.8h-26.42ZM1551.2,16.6l21.74,63.64,1.95,5.77-12.46-5.51-2.75,3.29,20.84,18.69,6.68,19.54-16.1-7.08-2.75,3.28,25.21,22.6-.08-.38,1.17,3.44h-35.3v20.84h-17.4v-20.84h-34.26l6.55-19.19,23.51-21.09-2.75-3.28-14.64,6.45,6-17.57,22.96-20.58-2.75-3.29-14.21,6.27,18.81-55h.03,0Z"/>
          <path class="st14" d="M1522.8,151.12h-15.65v13.6h15.65v-13.6h0ZM1508,42.14c-13.25,0-24.02,10.57-24.02,23.62,0,3.39.73,6.6,2.03,9.53-5.86,3.67-9.74,10.11-9.74,17.45,0,8.87,5.66,16.43,13.61,19.39-.25,1.19-.4,2.42-.4,3.71,0,8.25,5.81,15.17,13.6,17.05l3.41-10.06,1.62-4.8c7.39-21.89,13.86-40.97,21.31-62.97-3.97-7.68-12.08-12.92-21.42-12.92Z"/>
        </g>
        <path class="st34" d="M2056.82,97.49h-.89l-.73.73h-19.32l20.93,37.24h-.89l-.73.73h-29.81v27.49l-1.76,1.6h-28.22l-1.6-1.6v-27.49h-31.41c.39-2.51,7.39-15.19,20.96-37.96h-20.96v-1.6l46.84-79.85h1.6l45.98,80.72h.01,0ZM1964.74,85.42v.73c0,1.64-2.13,6.5-6.39,14.56h14.52l.73.86c.89,2.13,1.7,3.21,2.47,3.21l-19.35,33.89h20.24l5.52,4.78-1.61,1.6h-20.93v18.63l-1.59,1.6h-19.37l-1.6-1.6v-18.63h-22.69l-.74-.73,15.3-26.62h-14.57l-.74-.88,33.9-58.91c1.36.66,6.98,9.84,16.87,27.49l.03.02h0Z"/>
        <g>
          <path class="st11" d="M1465.31,384.06v15.65h-17.61v-15.65h-25.57l5.24-15.52,18.81-17.04-2.2-2.66-11.71,5.23,4.8-14.21,18.38-16.64-2.2-2.65-11.36,5.05,15.04-44.45,17.4,51.46,1.59,4.65-9.98-4.45-2.21,2.65,16.69,15.12,5.34,15.8-12.87-5.74-2.2,2.66,20.16,18.26-.07-.31.95,2.8h-26.42ZM1556.36,253.7l21.74,63.64,1.95,5.77-12.46-5.51-2.75,3.29,20.84,18.69,6.68,19.54-16.1-7.08-2.75,3.28,25.2,22.6-.07-.38,1.17,3.44h-35.3v20.84h-17.4v-20.84h-34.26l6.55-19.19,23.51-21.09-2.75-3.28-14.64,6.45,6-17.57,22.96-20.58-2.75-3.29-14.19,6.27,18.8-55h.02,0Z"/>
          <path class="st14" d="M1527.95,388.21h-15.65v13.6h15.65v-13.6h0ZM1513.15,279.24c-13.25,0-24.02,10.57-24.02,23.62,0,3.39.73,6.6,2.03,9.53-5.86,3.67-9.74,10.11-9.74,17.45,0,8.87,5.66,16.43,13.61,19.39-.25,1.19-.4,2.41-.4,3.71,0,8.25,5.81,15.17,13.6,17.05l3.4-10.06,1.63-4.8c7.39-21.88,13.86-40.97,21.31-62.97-3.97-7.68-12.08-12.92-21.42-12.92h0Z"/>
        </g>
        <g>
          <path class="st11" d="M1465.31,617.25v15.65h-17.61v-15.65h-25.57l5.24-15.52,18.81-17.04-2.2-2.66-11.71,5.23,4.8-14.21,18.38-16.64-2.2-2.65-11.36,5.05,15.04-44.45,17.4,51.46,1.59,4.65-9.98-4.45-2.21,2.65,16.69,15.12,5.34,15.8-12.87-5.74-2.2,2.66,20.16,18.26-.07-.31.95,2.8h-26.42ZM1556.36,486.89l21.74,63.64,1.95,5.77-12.46-5.51-2.75,3.29,20.84,18.69,6.68,19.54-16.1-7.08-2.75,3.28,25.2,22.6-.07-.38,1.17,3.44h-35.3v20.84h-17.4v-20.84h-34.26l6.55-19.19,23.51-21.09-2.75-3.28-14.64,6.45,6-17.57,22.96-20.58-2.75-3.29-14.19,6.27,18.8-55h.02,0Z"/>
          <path class="st14" d="M1527.95,621.41h-15.65v13.6h15.65v-13.6h0ZM1513.15,512.43c-13.25,0-24.02,10.57-24.02,23.62,0,3.39.73,6.6,2.03,9.53-5.86,3.67-9.74,10.11-9.74,17.45,0,8.87,5.66,16.43,13.61,19.39-.25,1.19-.4,2.41-.4,3.71,0,8.25,5.81,15.17,13.6,17.05l3.4-10.06,1.63-4.8c7.39-21.88,13.86-40.97,21.31-62.97-3.97-7.67-12.08-12.92-21.42-12.92h0Z"/>
        </g>
        <path class="st35" d="M1100.51,1052.06h-.89l-.74.73h-19.32l20.94,37.24h-.89l-.74.73h-29.81v27.49l-1.75,1.6h-28.22l-1.6-1.6v-27.49h-31.41c.39-2.51,7.39-15.19,20.94-37.96h-20.94v-1.6l46.84-79.85h1.59l45.99,80.72h.01ZM1008.42,1039.98v.73c0,1.64-2.13,6.5-6.38,14.56h14.52l.73.86c.89,2.13,1.7,3.21,2.48,3.21l-19.35,33.89h20.23l5.53,4.78-1.6,1.6h-20.93v18.63l-1.6,1.6h-19.37l-1.59-1.6v-18.63h-22.7l-.73-.73,15.28-26.62h-14.56l-.73-.88,33.89-58.91c1.35.66,6.97,9.84,16.86,27.49l.02.02h0Z"/>
        <path class="st35" d="M2058.7,1052.06h-.9l-.72.73h-19.33l20.95,37.24h-.9l-.72.73h-29.81v27.49l-1.75,1.6h-28.22l-1.6-1.6v-27.49h-31.41c.4-2.51,7.39-15.19,20.96-37.96h-20.96v-1.6l46.86-79.85h1.58l45.99,80.72h-.02ZM1966.61,1039.98v.73c0,1.64-2.13,6.5-6.39,14.56h14.52l.73.86c.89,2.13,1.7,3.21,2.49,3.21l-19.36,33.89h20.23l5.52,4.78-1.6,1.6h-20.94v18.63l-1.59,1.6h-19.37l-1.59-1.6v-18.63h-22.7l-.72-.73,15.28-26.62h-14.56l-.72-.88,33.89-58.91c1.34.66,6.97,9.84,16.86,27.49l.02.02h0Z"/>
        <g>
          <path class="st11" d="M246.51,1101.88v15.65h-17.6v-15.65h-25.57l5.24-15.52,18.81-17.04-2.2-2.66-11.71,5.23,4.8-14.21,18.38-16.64-2.2-2.65-11.36,5.05,15.04-44.45,17.4,51.46,1.59,4.65-9.99-4.45-2.2,2.66,16.69,15.12,5.34,15.78-12.87-5.72-2.2,2.65,20.16,18.28-.07-.33.94,2.8h-26.42ZM337.56,971.53l21.74,63.62,1.95,5.77-12.46-5.49-2.75,3.29,20.84,18.68,6.68,19.54-16.1-7.08-2.75,3.28,25.21,22.6-.08-.36,1.17,3.42h-35.3v20.86h-17.4v-20.86h-34.26l6.55-19.19,23.51-21.09-2.75-3.28-14.64,6.45,6-17.57,22.96-20.58-2.75-3.28-14.21,6.25,18.81-54.99h.03Z"/>
          <path class="st14" d="M309.16,1106.03h-15.65v13.61h15.65v-13.61h0ZM294.35,997.05c-13.25,0-24.02,10.57-24.02,23.62,0,3.39.73,6.6,2.03,9.53-5.86,3.67-9.74,10.12-9.74,17.47,0,8.85,5.66,16.41,13.61,19.37-.25,1.19-.4,2.43-.4,3.71,0,8.25,5.81,15.17,13.6,17.05l3.41-10.04,1.62-4.81c7.39-21.87,13.86-40.97,21.31-62.98-3.97-7.67-12.07-12.92-21.42-12.92h0Z"/>
        </g>
        <g>
          <path class="st12" d="M1220,1097.6v15.65h-17.6v-15.65h-25.57l5.24-15.52,18.81-17.04-2.2-2.66-11.71,5.23,4.8-14.21,18.38-16.64-2.2-2.65-11.36,5.05,15.04-44.45,17.4,51.46,1.59,4.65-9.99-4.45-2.2,2.65,16.69,15.12,5.34,15.8-12.87-5.74-2.2,2.66,20.16,18.26-.07-.31.94,2.8h-26.42ZM1311.05,967.23l21.74,63.64,1.95,5.77-12.46-5.51-2.75,3.29,20.84,18.69,6.68,19.54-16.1-7.08-2.75,3.28,25.21,22.6-.08-.38,1.17,3.44h-35.3v20.84h-17.4v-20.84h-34.26l6.55-19.19,23.51-21.09-2.75-3.28-14.64,6.45,6-17.57,22.96-20.58-2.75-3.29-14.21,6.27,18.81-55h.03,0Z"/>
          <path class="st12" d="M1282.65,1101.75h-15.65v13.6h15.65v-13.6h0ZM1267.84,992.77c-13.25,0-24.02,10.57-24.02,23.62,0,3.39.73,6.6,2.03,9.53-5.86,3.67-9.74,10.11-9.74,17.45,0,8.87,5.66,16.43,13.61,19.39-.25,1.19-.4,2.42-.4,3.71,0,8.25,5.81,15.17,13.6,17.05l3.41-10.06,1.62-4.8c7.39-21.89,13.86-40.97,21.31-62.98-3.97-7.67-12.07-12.92-21.42-12.92h0Z"/>
        </g>
        <g>
          <path class="st12" d="M1220,853.72v15.65h-17.6v-15.65h-25.57l5.24-15.52,18.81-17.04-2.2-2.66-11.71,5.23,4.8-14.21,18.38-16.64-2.2-2.65-11.36,5.05,15.04-44.45,17.4,51.46,1.59,4.65-9.99-4.45-2.2,2.65,16.69,15.12,5.34,15.8-12.87-5.74-2.2,2.66,20.16,18.26-.07-.31.94,2.8h-26.42ZM1311.05,723.35l21.74,63.64,1.95,5.77-12.46-5.51-2.75,3.29,20.84,18.69,6.68,19.54-16.1-7.08-2.75,3.28,25.21,22.6-.08-.38,1.17,3.44h-35.3v20.84h-17.4v-20.84h-34.26l6.55-19.19,23.51-21.09-2.75-3.28-14.64,6.45,6-17.57,22.96-20.58-2.75-3.29-14.21,6.27,18.81-55h.03,0Z"/>
          <path class="st12" d="M1282.65,857.87h-15.65v13.6h15.65v-13.6h0ZM1267.84,748.89c-13.25,0-24.02,10.57-24.02,23.62,0,3.39.73,6.6,2.03,9.53-5.86,3.67-9.74,10.11-9.74,17.45,0,8.87,5.66,16.43,13.61,19.39-.25,1.19-.4,2.42-.4,3.71,0,8.25,5.81,15.17,13.6,17.05l3.41-10.06,1.62-4.8c7.39-21.89,13.86-40.97,21.31-62.98-3.97-7.67-12.07-12.92-21.42-12.92h0Z"/>
        </g>
      </g>
    </g>
  </g>
</svg>