<?xml version="1.0" encoding="UTF-8"?>
<svg id="Layer_1" xmlns="http://www.w3.org/2000/svg" width="1920" height="1080" xmlns:xlink="http://www.w3.org/1999/xlink" version="1.1" viewBox="0 0 1920 1080">
  <!-- Generator: Adobe Illustrator 29.7.1, SVG Export Plug-In . SVG Version: 2.1.1 Build 8)  -->
  <defs>
    <style>
      .st0 {
        fill: none;
      }

      .st1 {
        fill: #ff0;
        fill-rule: evenodd;
      }

      .st2 {
        fill: #fff;
      }

      .st3 {
        clip-path: url(#clippath);
      }
    </style>
    <clipPath id="clippath">
      <rect class="st0" width="1920" height="1080"/>
    </clipPath>
  </defs>
  <g id="Layer_1-23">
    <g class="st3">
      <g>
        <rect x="-31" y="-14.63" width="1951" height="1110.83"/>
        <g>
          <path class="st2" d="M755.75,243.87h55.27c37.95,0,54.27,17.65,54.27,53.6v9.32c0,23.97-7.32,38.95-23.64,45.61v.67c19.64,6.66,27.3,23.97,27.3,48.61v19.98c0,35.96-18.98,55.27-55.6,55.27h-57.6v-233.05h0ZM806.69,338.76c13.65,0,21.97-5.99,21.97-24.64v-12.98c0-16.65-5.66-23.97-18.64-23.97h-17.65v61.59h14.32ZM813.35,443.63c12.32,0,18.98-5.66,18.98-22.97v-20.31c0-21.64-6.99-28.3-23.64-28.3h-16.31v71.58h20.97Z"/>
          <path class="st2" d="M880.26,243.87h36.62v199.76h60.26v33.29h-96.88v-233.05h0Z"/>
          <path class="st2" d="M1014.43,243.87h49.61l37.95,233.05h-36.62l-6.66-46.28v.67h-41.62l-6.66,45.61h-33.96l37.95-233.05h.01ZM1054.38,399.68l-16.31-115.19h-.67l-15.98,115.19h32.96Z"/>
          <path class="st2" d="M1106.65,422.99v-125.18c0-35.96,18.64-57.26,53.93-57.26s53.94,21.31,53.94,57.26v24.64h-34.62v-26.97c0-15.32-7.32-21.64-18.31-21.64s-18.31,6.33-18.31,21.64v130.18c0,15.31,7.32,21.31,18.31,21.31s18.31-5.99,18.31-21.31v-35.62h34.62v32.96c0,35.96-18.64,57.26-53.94,57.26s-53.93-21.31-53.93-57.26h0Z"/>
          <path class="st2" d="M1226.5,243.87h36.62v98.21l46.61-98.21h36.62l-43.61,85.56,44.28,147.49h-38.29l-30.96-103.88-14.65,29.63v74.24h-36.62v-233.05h0Z"/>
          <path class="st2" d="M1346.36,421.66v-122.52c0-37.29,19.64-58.6,55.6-58.6s55.6,21.31,55.6,58.6v122.52c0,37.29-19.64,58.6-55.6,58.6s-55.6-21.31-55.6-58.6ZM1420.93,423.99v-127.18c0-16.65-7.32-22.97-18.98-22.97s-18.98,6.33-18.98,22.97v127.18c0,16.65,7.32,22.97,18.98,22.97s18.98-6.33,18.98-22.97Z"/>
          <path class="st2" d="M1470.87,421.66v-177.79h36.62v180.45c0,16.65,6.99,22.64,18.64,22.64s18.64-5.99,18.64-22.64v-180.45h35.29v177.79c0,37.29-18.64,58.6-54.6,58.6s-54.6-21.31-54.6-58.6h0Z"/>
          <path class="st2" d="M1624.68,277.16h-38.29v-33.29h113.2v33.29h-38.29v199.76h-36.62v-199.76h0Z"/>
        </g>
        <polygon class="st1" points="380.47 -7 310.81 628.82 579.55 757.62 509.78 1088.51 987.61 496.4 649.61 511.14 840.27 -7 380.47 -7"/>
      </g>
    </g>
  </g>
</svg>