<?xml version="1.0" encoding="UTF-8" standalone="no"?>
<svg
   id="Layer_2"
   data-name="Layer 2"
   viewBox="0 0 1920 1080"
   version="1.1"
   sodipodi:docname="36.svg"
   width="1920"
   height="1080"
   xmlns:inkscape="http://www.inkscape.org/namespaces/inkscape"
   xmlns:sodipodi="http://sodipodi.sourceforge.net/DTD/sodipodi-0.dtd"
   xmlns="http://www.w3.org/2000/svg"
   xmlns:svg="http://www.w3.org/2000/svg">
  <sodipodi:namedview
     id="namedview11"
     pagecolor="#ffffff"
     bordercolor="#000000"
     borderopacity="0.25"
     inkscape:showpageshadow="2"
     inkscape:pageopacity="0.0"
     inkscape:pagecheckerboard="0"
     inkscape:deskcolor="#d1d1d1" />
  <defs
     id="defs1">
    <style
       id="style1">
      .cls-1 {
        fill: none;
      }

      .cls-2 {
        fill: #ff0;
        fill-rule: evenodd;
      }

      .cls-3 {
        fill: #fff;
      }

      .cls-4 {
        clip-path: url(#clippath);
      }
    </style>
    <clipPath
       id="clippath">
      <rect
         class="cls-1"
         width="1920"
         height="1080"
         id="rect1"
         x="0"
         y="0" />
    </clipPath>
  </defs>
  <g
     id="Layer_1-2"
     data-name="Layer 1">
    <g
       class="cls-4"
       clip-path="url(#clippath)"
       id="g11">
      <g
         id="g10">
        <rect
           x="-31"
           y="-14.63"
           width="1951"
           height="1110.83"
           id="rect2" />
        <g
           id="g9">
          <path
             class="cls-3"
             d="m 755.75,243.87 h 55.27 c 37.95,0 54.27,17.65 54.27,53.6 v 9.32 c 0,23.97 -7.32,38.95 -23.64,45.61 v 0.67 c 19.64,6.66 27.3,23.97 27.3,48.61 v 19.98 c 0,35.96 -18.98,55.27 -55.6,55.27 h -57.6 V 243.88 Z m 50.94,94.89 c 13.65,0 21.97,-5.99 21.97,-24.64 v -12.98 c 0,-16.65 -5.66,-23.97 -18.64,-23.97 h -17.65 v 61.59 z m 6.66,104.87 c 12.32,0 18.98,-5.66 18.98,-22.97 v -20.31 c 0,-21.64 -6.99,-28.3 -23.64,-28.3 h -16.31 v 71.58 z"
             id="path2" />
          <path
             class="cls-3"
             d="m 880.26,243.87 h 36.62 v 199.76 h 60.26 v 33.29 h -96.88 z"
             id="path3" />
          <path
             class="cls-3"
             d="m 1014.43,243.87 h 49.61 l 37.95,233.05 h -36.62 l -6.66,-46.28 v 0.67 h -41.62 l -6.66,45.61 h -33.96 l 37.95,-233.05 z m 39.95,155.81 -16.31,-115.19 h -0.67 l -15.98,115.19 z"
             id="path4" />
          <path
             class="cls-3"
             d="M 1106.65,422.99 V 297.81 c 0,-35.96 18.64,-57.26 53.93,-57.26 35.29,0 53.94,21.31 53.94,57.26 v 24.64 h -34.62 v -26.97 c 0,-15.32 -7.32,-21.64 -18.31,-21.64 -10.99,0 -18.31,6.33 -18.31,21.64 v 130.18 c 0,15.31 7.32,21.31 18.31,21.31 10.99,0 18.31,-5.99 18.31,-21.31 v -35.62 h 34.62 V 423 c 0,35.96 -18.64,57.26 -53.94,57.26 -35.3,0 -53.93,-21.31 -53.93,-57.26 z"
             id="path5" />
          <path
             class="cls-3"
             d="m 1226.5,243.87 h 36.62 v 98.21 l 46.61,-98.21 h 36.62 l -43.61,85.56 44.28,147.49 h -38.29 l -30.96,-103.88 -14.65,29.63 v 74.24 H 1226.5 V 243.86 Z"
             id="path6" />
          <path
             class="cls-3"
             d="M 1346.36,421.66 V 299.14 c 0,-37.29 19.64,-58.6 55.6,-58.6 35.96,0 55.6,21.31 55.6,58.6 v 122.52 c 0,37.29 -19.64,58.6 -55.6,58.6 -35.96,0 -55.6,-21.31 -55.6,-58.6 z m 74.57,2.33 V 296.81 c 0,-16.65 -7.32,-22.97 -18.98,-22.97 -11.66,0 -18.98,6.33 -18.98,22.97 v 127.18 c 0,16.65 7.32,22.97 18.98,22.97 11.66,0 18.98,-6.33 18.98,-22.97 z"
             id="path7" />
          <path
             class="cls-3"
             d="M 1470.87,421.66 V 243.87 h 36.62 v 180.45 c 0,16.65 6.99,22.64 18.64,22.64 11.65,0 18.64,-5.99 18.64,-22.64 V 243.87 h 35.29 v 177.79 c 0,37.29 -18.64,58.6 -54.6,58.6 -35.96,0 -54.6,-21.31 -54.6,-58.6 z"
             id="path8" />
          <path
             class="cls-3"
             d="m 1624.68,277.16 h -38.29 v -33.29 h 113.2 v 33.29 h -38.29 v 199.76 h -36.62 z"
             id="path9" />
        </g>
        <polygon
           class="cls-2"
           points="579.55,757.62 509.78,1088.51 987.61,496.4 649.61,511.14 840.27,-7 380.47,-7 310.81,628.82 "
           id="polygon9" />
      </g>
    </g>
  </g>
</svg>
